<?xml version="1.0" encoding="us-ascii" standalone="no"?><svg xmlns="http://www.w3.org/2000/svg" xmlns:xlink="http://www.w3.org/1999/xlink" contentStyleType="text/css" height="894px" preserveAspectRatio="none" style="width:1852px;height:894px;background:#FFFFFF;" version="1.1" viewBox="0 0 1852 894" width="1852px" zoomAndPan="magnify"><defs/><g><!--cluster RequirementsSpecificationAgg--><g id="cluster_RequirementsSpecificationAgg"><path d="M1373.5,371.69 L1594.5,371.69 A3.75,3.75 0 0 1 1597,374.19 L1604,394.1783 L1842.5,394.1783 A2.5,2.5 0 0 1 1845,396.6783 L1845,677.63 A2.5,2.5 0 0 1 1842.5,680.13 L1373.5,680.13 A2.5,2.5 0 0 1 1371,677.63 L1371,374.19 A2.5,2.5 0 0 1 1373.5,371.69 " fill="none" style="stroke:#000000;stroke-width:1.5;"/><line style="stroke:#000000;stroke-width:1.5;" x1="1371" x2="1604" y1="394.1783" y2="394.1783"/><text fill="#000000" font-family="sans-serif" font-size="14" font-weight="bold" lengthAdjust="spacing" textLength="220" x="1375" y="387.2252">RequirementsSpecificationAgg</text></g><!--cluster JobApplicationAgg--><g id="cluster_JobApplicationAgg"><path d="M8.5,6 L143.5,6 A3.75,3.75 0 0 1 146,8.5 L153,28.4883 L886.5,28.4883 A2.5,2.5 0 0 1 889,30.9883 L889,517.65 A2.5,2.5 0 0 1 886.5,520.15 L8.5,520.15 A2.5,2.5 0 0 1 6,517.65 L6,8.5 A2.5,2.5 0 0 1 8.5,6 " fill="none" style="stroke:#000000;stroke-width:1.5;"/><line style="stroke:#000000;stroke-width:1.5;" x1="6" x2="153" y1="28.4883" y2="28.4883"/><text fill="#000000" font-family="sans-serif" font-size="14" font-weight="bold" lengthAdjust="spacing" textLength="134" x="10" y="21.5352">JobApplicationAgg</text></g><!--cluster JobOpeningAgg--><g id="cluster_JobOpeningAgg"><path d="M915.5,201.47 L1029.5,201.47 A3.75,3.75 0 0 1 1032,203.97 L1039,223.9583 L1344.5,223.9583 A2.5,2.5 0 0 1 1347,226.4583 L1347,884.56 A2.5,2.5 0 0 1 1344.5,887.06 L915.5,887.06 A2.5,2.5 0 0 1 913,884.56 L913,203.97 A2.5,2.5 0 0 1 915.5,201.47 " fill="none" style="stroke:#000000;stroke-width:1.5;"/><line style="stroke:#000000;stroke-width:1.5;" x1="913" x2="1039" y1="223.9583" y2="223.9583"/><text fill="#000000" font-family="sans-serif" font-size="14" font-weight="bold" lengthAdjust="spacing" textLength="113" x="917" y="217.0052">JobOpeningAgg</text></g><!--class RequirementsSpecification--><g id="elem_RequirementsSpecification"><rect codeLine="3" fill="#F1F1F1" height="97.4648" id="RequirementsSpecification" rx="2.5" ry="2.5" style="stroke:#181818;stroke-width:0.5;" width="214" x="1444" y="406.69"/><ellipse cx="1459" cy="422.69" fill="#ADD1B2" rx="11" ry="11" style="stroke:#181818;stroke-width:1.0;"/><path d="M1461.9731,428.3331 Q1461.3921,428.6319 1460.7529,428.7813 Q1460.1138,428.9307 1459.4082,428.9307 Q1456.9014,428.9307 1455.5815,427.2789 Q1454.2617,425.627 1454.2617,422.5059 Q1454.2617,419.3765 1455.5815,417.7247 Q1456.9014,416.0728 1459.4082,416.0728 Q1460.1138,416.0728 1460.7612,416.2222 Q1461.4087,416.3716 1461.9731,416.6705 L1461.9731,419.3931 Q1461.3423,418.8121 1460.7488,418.5423 Q1460.1553,418.2725 1459.5244,418.2725 Q1458.1797,418.2725 1457.4949,419.3392 Q1456.8101,420.4058 1456.8101,422.5059 Q1456.8101,424.5977 1457.4949,425.6644 Q1458.1797,426.731 1459.5244,426.731 Q1460.1553,426.731 1460.7488,426.4612 Q1461.3423,426.1915 1461.9731,425.6104 Z " fill="#000000"/><text fill="#000000" font-family="sans-serif" font-size="14" lengthAdjust="spacing" textLength="182" x="1473" y="427.981">RequirementsSpecification</text><line style="stroke:#181818;stroke-width:0.5;" x1="1445" x2="1657" y1="438.69" y2="438.69"/><ellipse cx="1455" cy="452.4341" fill="none" rx="3" ry="3" style="stroke:#038048;stroke-width:1.0;"/><text fill="#000000" font-family="sans-serif" font-size="14" lengthAdjust="spacing" textLength="92" x="1464" y="456.2252">id: SpecName</text><ellipse cx="1455" cy="468.9224" fill="none" rx="3" ry="3" style="stroke:#038048;stroke-width:1.0;"/><text fill="#000000" font-family="sans-serif" font-size="14" lengthAdjust="spacing" textLength="163" x="1464" y="472.7134">description: Description</text><ellipse cx="1455" cy="485.4107" fill="none" rx="3" ry="3" style="stroke:#038048;stroke-width:1.0;"/><text fill="#000000" font-family="sans-serif" font-size="14" lengthAdjust="spacing" textLength="92" x="1464" y="489.2017">jarFile: JarFile</text><line style="stroke:#181818;stroke-width:0.5;" x1="1445" x2="1657" y1="496.1548" y2="496.1548"/></g><!--class Description--><g id="elem_Description"><rect codeLine="9" fill="#F1F1F1" height="64.4883" id="Description" rx="2.5" ry="2.5" style="stroke:#181818;stroke-width:0.5;" width="113" x="1386.5" y="599.64"/><ellipse cx="1402.85" cy="615.64" fill="#ADD1B2" rx="11" ry="11" style="stroke:#181818;stroke-width:1.0;"/><path d="M1405.8231,621.2831 Q1405.2421,621.5819 1404.6029,621.7313 Q1403.9638,621.8807 1403.2582,621.8807 Q1400.7514,621.8807 1399.4315,620.2289 Q1398.1117,618.577 1398.1117,615.4559 Q1398.1117,612.3265 1399.4315,610.6747 Q1400.7514,609.0228 1403.2582,609.0228 Q1403.9638,609.0228 1404.6112,609.1722 Q1405.2587,609.3216 1405.8231,609.6205 L1405.8231,612.3431 Q1405.1923,611.7621 1404.5988,611.4923 Q1404.0053,611.2225 1403.3744,611.2225 Q1402.0297,611.2225 1401.3449,612.2892 Q1400.6601,613.3558 1400.6601,615.4559 Q1400.6601,617.5477 1401.3449,618.6144 Q1402.0297,619.681 1403.3744,619.681 Q1404.0053,619.681 1404.5988,619.4112 Q1405.1923,619.1415 1405.8231,618.5604 Z " fill="#000000"/><text fill="#000000" font-family="sans-serif" font-size="14" lengthAdjust="spacing" textLength="78" x="1417.15" y="620.931">Description</text><line style="stroke:#181818;stroke-width:0.5;" x1="1387.5" x2="1498.5" y1="631.64" y2="631.64"/><ellipse cx="1397.5" cy="645.3841" fill="none" rx="3" ry="3" style="stroke:#038048;stroke-width:1.0;"/><text fill="#000000" font-family="sans-serif" font-size="14" lengthAdjust="spacing" textLength="87" x="1406.5" y="649.1752">name: String</text><line style="stroke:#181818;stroke-width:0.5;" x1="1387.5" x2="1498.5" y1="656.1283" y2="656.1283"/></g><!--class JarFile--><g id="elem_JarFile"><rect codeLine="13" fill="#F1F1F1" height="64.4883" id="JarFile" rx="2.5" ry="2.5" style="stroke:#181818;stroke-width:0.5;" width="147" x="1534.5" y="599.64"/><ellipse cx="1582.75" cy="615.64" fill="#ADD1B2" rx="11" ry="11" style="stroke:#181818;stroke-width:1.0;"/><path d="M1585.7231,621.2831 Q1585.1421,621.5819 1584.5029,621.7313 Q1583.8638,621.8807 1583.1582,621.8807 Q1580.6514,621.8807 1579.3315,620.2289 Q1578.0117,618.577 1578.0117,615.4559 Q1578.0117,612.3265 1579.3315,610.6747 Q1580.6514,609.0228 1583.1582,609.0228 Q1583.8638,609.0228 1584.5112,609.1722 Q1585.1587,609.3216 1585.7231,609.6205 L1585.7231,612.3431 Q1585.0923,611.7621 1584.4988,611.4923 Q1583.9053,611.2225 1583.2744,611.2225 Q1581.9297,611.2225 1581.2449,612.2892 Q1580.5601,613.3558 1580.5601,615.4559 Q1580.5601,617.5477 1581.2449,618.6144 Q1581.9297,619.681 1583.2744,619.681 Q1583.9053,619.681 1584.4988,619.4112 Q1585.0923,619.1415 1585.7231,618.5604 Z " fill="#000000"/><text fill="#000000" font-family="sans-serif" font-size="14" lengthAdjust="spacing" textLength="42" x="1603.25" y="620.931">JarFile</text><line style="stroke:#181818;stroke-width:0.5;" x1="1535.5" x2="1680.5" y1="631.64" y2="631.64"/><ellipse cx="1545.5" cy="645.3841" fill="none" rx="3" ry="3" style="stroke:#038048;stroke-width:1.0;"/><text fill="#000000" font-family="sans-serif" font-size="14" lengthAdjust="spacing" textLength="121" x="1554.5" y="649.1752">jarFilePath: String</text><line style="stroke:#181818;stroke-width:0.5;" x1="1535.5" x2="1680.5" y1="656.1283" y2="656.1283"/></g><!--class SpecName--><g id="elem_SpecName"><rect codeLine="16" fill="#F1F1F1" height="64.4883" id="SpecName" rx="2.5" ry="2.5" style="stroke:#181818;stroke-width:0.5;" width="113" x="1716.5" y="599.64"/><ellipse cx="1736" cy="615.64" fill="#ADD1B2" rx="11" ry="11" style="stroke:#181818;stroke-width:1.0;"/><path d="M1738.9731,621.2831 Q1738.3921,621.5819 1737.7529,621.7313 Q1737.1138,621.8807 1736.4082,621.8807 Q1733.9014,621.8807 1732.5815,620.2289 Q1731.2617,618.577 1731.2617,615.4559 Q1731.2617,612.3265 1732.5815,610.6747 Q1733.9014,609.0228 1736.4082,609.0228 Q1737.1138,609.0228 1737.7612,609.1722 Q1738.4087,609.3216 1738.9731,609.6205 L1738.9731,612.3431 Q1738.3423,611.7621 1737.7488,611.4923 Q1737.1553,611.2225 1736.5244,611.2225 Q1735.1797,611.2225 1734.4949,612.2892 Q1733.8101,613.3558 1733.8101,615.4559 Q1733.8101,617.5477 1734.4949,618.6144 Q1735.1797,619.681 1736.5244,619.681 Q1737.1553,619.681 1737.7488,619.4112 Q1738.3423,619.1415 1738.9731,618.5604 Z " fill="#000000"/><text fill="#000000" font-family="sans-serif" font-size="14" lengthAdjust="spacing" textLength="71" x="1751" y="620.931">SpecName</text><line style="stroke:#181818;stroke-width:0.5;" x1="1717.5" x2="1828.5" y1="631.64" y2="631.64"/><ellipse cx="1727.5" cy="645.3841" fill="none" rx="3" ry="3" style="stroke:#038048;stroke-width:1.0;"/><text fill="#000000" font-family="sans-serif" font-size="14" lengthAdjust="spacing" textLength="87" x="1736.5" y="649.1752">name: String</text><line style="stroke:#181818;stroke-width:0.5;" x1="1717.5" x2="1828.5" y1="656.1283" y2="656.1283"/></g><!--class JobApplication--><g id="elem_JobApplication"><rect codeLine="26" fill="#F1F1F1" height="97.4648" id="JobApplication" rx="2.5" ry="2.5" style="stroke:#181818;stroke-width:0.5;" width="363" x="456.5" y="41"/><ellipse cx="583.75" cy="57" fill="#ADD1B2" rx="11" ry="11" style="stroke:#181818;stroke-width:1.0;"/><path d="M586.7231,62.6431 Q586.1421,62.9419 585.5029,63.0913 Q584.8638,63.2407 584.1582,63.2407 Q581.6514,63.2407 580.3315,61.5889 Q579.0117,59.937 579.0117,56.8159 Q579.0117,53.6865 580.3315,52.0347 Q581.6514,50.3828 584.1582,50.3828 Q584.8638,50.3828 585.5112,50.5322 Q586.1587,50.6816 586.7231,50.9805 L586.7231,53.7031 Q586.0923,53.1221 585.4988,52.8523 Q584.9053,52.5825 584.2744,52.5825 Q582.9297,52.5825 582.2449,53.6492 Q581.5601,54.7158 581.5601,56.8159 Q581.5601,58.9077 582.2449,59.9744 Q582.9297,61.041 584.2744,61.041 Q584.9053,61.041 585.4988,60.7712 Q586.0923,60.5015 586.7231,59.9204 Z " fill="#000000"/><text fill="#000000" font-family="sans-serif" font-size="14" lengthAdjust="spacing" textLength="100" x="604.25" y="62.291">JobApplication</text><line style="stroke:#181818;stroke-width:0.5;" x1="457.5" x2="818.5" y1="73" y2="73"/><ellipse cx="467.5" cy="86.7441" fill="none" rx="3" ry="3" style="stroke:#038048;stroke-width:1.0;"/><text fill="#000000" font-family="sans-serif" font-size="14" lengthAdjust="spacing" textLength="55" x="476.5" y="90.5352">id: Long</text><ellipse cx="467.5" cy="103.2324" fill="none" rx="3" ry="3" style="stroke:#038048;stroke-width:1.0;"/><text fill="#000000" font-family="sans-serif" font-size="14" lengthAdjust="spacing" textLength="337" x="476.5" y="107.0234">requirementsEvaluation: RequirementsEvaluation</text><ellipse cx="467.5" cy="119.7207" fill="none" rx="3" ry="3" style="stroke:#038048;stroke-width:1.0;"/><text fill="#000000" font-family="sans-serif" font-size="14" lengthAdjust="spacing" textLength="105" x="476.5" y="123.5117">files: List&lt;File&gt;</text><line style="stroke:#181818;stroke-width:0.5;" x1="457.5" x2="818.5" y1="130.4648" y2="130.4648"/></g><!--class File--><g id="elem_File"><rect codeLine="32" fill="#F1F1F1" height="97.4648" id="File" rx="2.5" ry="2.5" style="stroke:#181818;stroke-width:0.5;" width="124" x="218" y="228.22"/><ellipse cx="263.75" cy="244.22" fill="#ADD1B2" rx="11" ry="11" style="stroke:#181818;stroke-width:1.0;"/><path d="M266.7231,249.8631 Q266.1421,250.1619 265.5029,250.3113 Q264.8638,250.4607 264.1582,250.4607 Q261.6514,250.4607 260.3315,248.8089 Q259.0117,247.157 259.0117,244.0359 Q259.0117,240.9065 260.3315,239.2547 Q261.6514,237.6028 264.1582,237.6028 Q264.8638,237.6028 265.5112,237.7522 Q266.1587,237.9016 266.7231,238.2005 L266.7231,240.9231 Q266.0923,240.3421 265.4988,240.0723 Q264.9053,239.8025 264.2744,239.8025 Q262.9297,239.8025 262.2449,240.8692 Q261.5601,241.9358 261.5601,244.0359 Q261.5601,246.1277 262.2449,247.1944 Q262.9297,248.261 264.2744,248.261 Q264.9053,248.261 265.4988,247.9912 Q266.0923,247.7215 266.7231,247.1404 Z " fill="#000000"/><text fill="#000000" font-family="sans-serif" font-size="14" lengthAdjust="spacing" textLength="24" x="284.25" y="249.511">File</text><line style="stroke:#181818;stroke-width:0.5;" x1="219" x2="341" y1="260.22" y2="260.22"/><ellipse cx="229" cy="273.9641" fill="none" rx="3" ry="3" style="stroke:#038048;stroke-width:1.0;"/><text fill="#000000" font-family="sans-serif" font-size="14" lengthAdjust="spacing" textLength="56" x="238" y="277.7552">id : long</text><ellipse cx="229" cy="290.4524" fill="none" rx="3" ry="3" style="stroke:#038048;stroke-width:1.0;"/><text fill="#000000" font-family="sans-serif" font-size="14" lengthAdjust="spacing" textLength="97" x="238" y="294.2434">path : FilePath</text><ellipse cx="229" cy="306.9407" fill="none" rx="3" ry="3" style="stroke:#038048;stroke-width:1.0;"/><text fill="#000000" font-family="sans-serif" font-size="14" lengthAdjust="spacing" textLength="98" x="238" y="310.7317">type : FileType</text><line style="stroke:#181818;stroke-width:0.5;" x1="219" x2="341" y1="317.6848" y2="317.6848"/></g><!--class FilePath--><g id="elem_FilePath"><rect codeLine="39" fill="#F1F1F1" height="64.4883" id="FilePath" rx="2.5" ry="2.5" style="stroke:#181818;stroke-width:0.5;" width="106" x="22" y="423.18"/><ellipse cx="46" cy="439.18" fill="#ADD1B2" rx="11" ry="11" style="stroke:#181818;stroke-width:1.0;"/><path d="M48.9731,444.8231 Q48.3921,445.1219 47.7529,445.2713 Q47.1138,445.4207 46.4082,445.4207 Q43.9014,445.4207 42.5815,443.7689 Q41.2617,442.117 41.2617,438.9959 Q41.2617,435.8665 42.5815,434.2147 Q43.9014,432.5628 46.4082,432.5628 Q47.1138,432.5628 47.7612,432.7122 Q48.4087,432.8616 48.9731,433.1605 L48.9731,435.8831 Q48.3423,435.3021 47.7488,435.0323 Q47.1553,434.7625 46.5244,434.7625 Q45.1797,434.7625 44.4949,435.8292 Q43.8101,436.8958 43.8101,438.9959 Q43.8101,441.0877 44.4949,442.1544 Q45.1797,443.221 46.5244,443.221 Q47.1553,443.221 47.7488,442.9512 Q48.3423,442.6815 48.9731,442.1004 Z " fill="#000000"/><text fill="#000000" font-family="sans-serif" font-size="14" lengthAdjust="spacing" textLength="54" x="62" y="444.471">FilePath</text><line style="stroke:#181818;stroke-width:0.5;" x1="23" x2="127" y1="455.18" y2="455.18"/><ellipse cx="33" cy="468.9241" fill="none" rx="3" ry="3" style="stroke:#038048;stroke-width:1.0;"/><text fill="#000000" font-family="sans-serif" font-size="14" lengthAdjust="spacing" textLength="80" x="42" y="472.7152">path: String</text><line style="stroke:#181818;stroke-width:0.5;" x1="23" x2="127" y1="479.6683" y2="479.6683"/></g><!--class FileType--><g id="elem_FileType"><rect codeLine="43" fill="#F1F1F1" height="80.9766" id="FileType" rx="2.5" ry="2.5" style="stroke:#181818;stroke-width:0.5;" width="235" x="162.5" y="414.93"/><ellipse cx="247.25" cy="430.93" fill="#EB937F" rx="11" ry="11" style="stroke:#181818;stroke-width:1.0;"/><path d="M251.3643,436.93 L243.6445,436.93 L243.6445,424.5369 L251.3643,424.5369 L251.3643,426.6951 L246.0933,426.6951 L246.0933,429.368 L250.8662,429.368 L250.8662,431.5262 L246.0933,431.5262 L246.0933,434.7718 L251.3643,434.7718 Z " fill="#000000"/><text fill="#000000" font-family="sans-serif" font-size="14" lengthAdjust="spacing" textLength="57" x="267.75" y="436.221">FileType</text><line style="stroke:#181818;stroke-width:0.5;" x1="163.5" x2="396.5" y1="446.93" y2="446.93"/><text fill="#000000" font-family="sans-serif" font-size="14" lengthAdjust="spacing" textLength="190" x="168.5" y="464.4652">CandidateInterviewAnswers</text><text fill="#000000" font-family="sans-serif" font-size="14" lengthAdjust="spacing" textLength="223" x="168.5" y="480.9534">CandidateRequirementsAnswers</text><line style="stroke:#181818;stroke-width:0.5;" x1="163.5" x2="396.5" y1="487.9066" y2="487.9066"/></g><!--class Requirements--><g id="elem_Requirements"><rect codeLine="49" fill="#F1F1F1" height="80.9766" id="Requirements" rx="2.5" ry="2.5" style="stroke:#181818;stroke-width:0.5;" width="293" x="491.5" y="236.47"/><ellipse cx="586.25" cy="252.47" fill="#ADD1B2" rx="11" ry="11" style="stroke:#181818;stroke-width:1.0;"/><path d="M589.2231,258.1131 Q588.6421,258.4119 588.0029,258.5613 Q587.3638,258.7107 586.6582,258.7107 Q584.1514,258.7107 582.8315,257.0589 Q581.5117,255.407 581.5117,252.2859 Q581.5117,249.1565 582.8315,247.5047 Q584.1514,245.8528 586.6582,245.8528 Q587.3638,245.8528 588.0112,246.0022 Q588.6587,246.1516 589.2231,246.4505 L589.2231,249.1731 Q588.5923,248.5921 587.9988,248.3223 Q587.4053,248.0525 586.7744,248.0525 Q585.4297,248.0525 584.7449,249.1192 Q584.0601,250.1858 584.0601,252.2859 Q584.0601,254.3777 584.7449,255.4444 Q585.4297,256.511 586.7744,256.511 Q587.4053,256.511 587.9988,256.2412 Q588.5923,255.9715 589.2231,255.3904 Z " fill="#000000"/><text fill="#000000" font-family="sans-serif" font-size="14" lengthAdjust="spacing" textLength="95" x="606.75" y="257.761">Requirements</text><line style="stroke:#181818;stroke-width:0.5;" x1="492.5" x2="783.5" y1="268.47" y2="268.47"/><ellipse cx="502.5" cy="282.2141" fill="none" rx="3" ry="3" style="stroke:#038048;stroke-width:1.0;"/><text fill="#000000" font-family="sans-serif" font-size="14" lengthAdjust="spacing" textLength="267" x="511.5" y="286.0052">justification : RequirementsJustification</text><ellipse cx="502.5" cy="298.7024" fill="none" rx="3" ry="3" style="stroke:#038048;stroke-width:1.0;"/><text fill="#000000" font-family="sans-serif" font-size="14" lengthAdjust="spacing" textLength="249" x="511.5" y="302.4934">evaluation : RequirementsEvaluation</text><line style="stroke:#181818;stroke-width:0.5;" x1="492.5" x2="783.5" y1="309.4466" y2="309.4466"/></g><!--class RequirementsJustification--><g id="elem_RequirementsJustification"><rect codeLine="55" fill="#F1F1F1" height="64.4883" id="RequirementsJustification" rx="2.5" ry="2.5" style="stroke:#181818;stroke-width:0.5;" width="207" x="432.5" y="423.18"/><ellipse cx="447.5" cy="439.18" fill="#ADD1B2" rx="11" ry="11" style="stroke:#181818;stroke-width:1.0;"/><path d="M450.4731,444.8231 Q449.8921,445.1219 449.2529,445.2713 Q448.6138,445.4207 447.9082,445.4207 Q445.4014,445.4207 444.0815,443.7689 Q442.7617,442.117 442.7617,438.9959 Q442.7617,435.8665 444.0815,434.2147 Q445.4014,432.5628 447.9082,432.5628 Q448.6138,432.5628 449.2612,432.7122 Q449.9087,432.8616 450.4731,433.1605 L450.4731,435.8831 Q449.8423,435.3021 449.2488,435.0323 Q448.6553,434.7625 448.0244,434.7625 Q446.6797,434.7625 445.9949,435.8292 Q445.3101,436.8958 445.3101,438.9959 Q445.3101,441.0877 445.9949,442.1544 Q446.6797,443.221 448.0244,443.221 Q448.6553,443.221 449.2488,442.9512 Q449.8423,442.6815 450.4731,442.1004 Z " fill="#000000"/><text fill="#000000" font-family="sans-serif" font-size="14" lengthAdjust="spacing" textLength="175" x="461.5" y="444.471">RequirementsJustification</text><line style="stroke:#181818;stroke-width:0.5;" x1="433.5" x2="638.5" y1="455.18" y2="455.18"/><ellipse cx="443.5" cy="468.9241" fill="none" rx="3" ry="3" style="stroke:#038048;stroke-width:1.0;"/><text fill="#000000" font-family="sans-serif" font-size="14" lengthAdjust="spacing" textLength="133" x="452.5" y="472.7152">justification : String</text><line style="stroke:#181818;stroke-width:0.5;" x1="433.5" x2="638.5" y1="479.6683" y2="479.6683"/></g><!--class RequirementsEvaluation--><g id="elem_RequirementsEvaluation"><rect codeLine="60" fill="#F1F1F1" height="97.4648" id="RequirementsEvaluation" rx="2.5" ry="2.5" style="stroke:#181818;stroke-width:0.5;" width="198" x="675" y="406.69"/><ellipse cx="690" cy="422.69" fill="#EB937F" rx="11" ry="11" style="stroke:#181818;stroke-width:1.0;"/><path d="M694.1143,428.69 L686.3945,428.69 L686.3945,416.2969 L694.1143,416.2969 L694.1143,418.4551 L688.8433,418.4551 L688.8433,421.128 L693.6162,421.128 L693.6162,423.2862 L688.8433,423.2862 L688.8433,426.5318 L694.1143,426.5318 Z " fill="#000000"/><text fill="#000000" font-family="sans-serif" font-size="14" lengthAdjust="spacing" textLength="166" x="704" y="427.981">RequirementsEvaluation</text><line style="stroke:#181818;stroke-width:0.5;" x1="676" x2="872" y1="438.69" y2="438.69"/><text fill="#000000" font-family="sans-serif" font-size="14" lengthAdjust="spacing" textLength="56" x="681" y="456.2252">Pending</text><text fill="#000000" font-family="sans-serif" font-size="14" lengthAdjust="spacing" textLength="63" x="681" y="472.7134">Accepted</text><text fill="#000000" font-family="sans-serif" font-size="14" lengthAdjust="spacing" textLength="58" x="681" y="489.2017">Rejected</text><line style="stroke:#181818;stroke-width:0.5;" x1="676" x2="872" y1="496.1548" y2="496.1548"/></g><!--class JobOpening--><g id="elem_JobOpening"><rect codeLine="76" fill="#F1F1F1" height="80.9766" id="JobOpening" rx="2.5" ry="2.5" style="stroke:#181818;stroke-width:0.5;" width="301" x="966.5" y="236.47"/><ellipse cx="1072.25" cy="252.47" fill="#ADD1B2" rx="11" ry="11" style="stroke:#181818;stroke-width:1.0;"/><path d="M1075.2231,258.1131 Q1074.6421,258.4119 1074.0029,258.5613 Q1073.3638,258.7107 1072.6582,258.7107 Q1070.1514,258.7107 1068.8315,257.0589 Q1067.5117,255.407 1067.5117,252.2859 Q1067.5117,249.1565 1068.8315,247.5047 Q1070.1514,245.8528 1072.6582,245.8528 Q1073.3638,245.8528 1074.0112,246.0022 Q1074.6587,246.1516 1075.2231,246.4505 L1075.2231,249.1731 Q1074.5923,248.5921 1073.9988,248.3223 Q1073.4053,248.0525 1072.7744,248.0525 Q1071.4297,248.0525 1070.7449,249.1192 Q1070.0601,250.1858 1070.0601,252.2859 Q1070.0601,254.3777 1070.7449,255.4444 Q1071.4297,256.511 1072.7744,256.511 Q1073.4053,256.511 1073.9988,256.2412 Q1074.5923,255.9715 1075.2231,255.3904 Z " fill="#000000"/><text fill="#000000" font-family="sans-serif" font-size="14" lengthAdjust="spacing" textLength="81" x="1092.75" y="257.761">JobOpening</text><line style="stroke:#181818;stroke-width:0.5;" x1="967.5" x2="1266.5" y1="268.47" y2="268.47"/><ellipse cx="977.5" cy="282.2141" fill="none" rx="3" ry="3" style="stroke:#038048;stroke-width:1.0;"/><text fill="#000000" font-family="sans-serif" font-size="14" lengthAdjust="spacing" textLength="111" x="986.5" y="286.0052">id: JobReference</text><ellipse cx="977.5" cy="298.7024" fill="none" rx="3" ry="3" style="stroke:#038048;stroke-width:1.0;"/><text fill="#000000" font-family="sans-serif" font-size="14" lengthAdjust="spacing" textLength="275" x="986.5" y="302.4934">recruitmentProcess: RecruitmentProcess</text><line style="stroke:#181818;stroke-width:0.5;" x1="967.5" x2="1266.5" y1="309.4466" y2="309.4466"/></g><!--class RecruitmentProcess--><g id="elem_RecruitmentProcess"><rect codeLine="80" fill="#F1F1F1" height="97.4648" id="RecruitmentProcess" rx="2.5" ry="2.5" style="stroke:#181818;stroke-width:0.5;" width="252" x="991" y="406.69"/><ellipse cx="1045.25" cy="422.69" fill="#ADD1B2" rx="11" ry="11" style="stroke:#181818;stroke-width:1.0;"/><path d="M1048.2231,428.3331 Q1047.6421,428.6319 1047.0029,428.7813 Q1046.3638,428.9307 1045.6582,428.9307 Q1043.1514,428.9307 1041.8315,427.2789 Q1040.5117,425.627 1040.5117,422.5059 Q1040.5117,419.3765 1041.8315,417.7247 Q1043.1514,416.0728 1045.6582,416.0728 Q1046.3638,416.0728 1047.0112,416.2222 Q1047.6587,416.3716 1048.2231,416.6705 L1048.2231,419.3931 Q1047.5923,418.8121 1046.9988,418.5423 Q1046.4053,418.2725 1045.7744,418.2725 Q1044.4297,418.2725 1043.7449,419.3392 Q1043.0601,420.4058 1043.0601,422.5059 Q1043.0601,424.5977 1043.7449,425.6644 Q1044.4297,426.731 1045.7744,426.731 Q1046.4053,426.731 1046.9988,426.4612 Q1047.5923,426.1915 1048.2231,425.6104 Z " fill="#000000"/><text fill="#000000" font-family="sans-serif" font-size="14" lengthAdjust="spacing" textLength="135" x="1065.75" y="427.981">RecruitmentProcess</text><line style="stroke:#181818;stroke-width:0.5;" x1="992" x2="1242" y1="438.69" y2="438.69"/><ellipse cx="1002" cy="452.4341" fill="none" rx="3" ry="3" style="stroke:#038048;stroke-width:1.0;"/><text fill="#000000" font-family="sans-serif" font-size="14" lengthAdjust="spacing" textLength="39" x="1011" y="456.2252">id: int</text><ellipse cx="1002" cy="468.9224" fill="none" rx="3" ry="3" style="stroke:#038048;stroke-width:1.0;"/><text fill="#000000" font-family="sans-serif" font-size="14" lengthAdjust="spacing" textLength="226" x="1011" y="472.7134">status: RecruitmentProcessStatus</text><ellipse cx="1002" cy="485.4107" fill="none" rx="3" ry="3" style="stroke:#038048;stroke-width:1.0;"/><text fill="#000000" font-family="sans-serif" font-size="14" lengthAdjust="spacing" textLength="141" x="1011" y="489.2017">phases: List&lt;Phase&gt;</text><line style="stroke:#181818;stroke-width:0.5;" x1="992" x2="1242" y1="496.1548" y2="496.1548"/></g><!--class Phase--><g id="elem_Phase"><rect codeLine="86" fill="#F1F1F1" height="97.4648" id="Phase" rx="2.5" ry="2.5" style="stroke:#181818;stroke-width:0.5;" width="157" x="929.5" y="583.15"/><ellipse cx="983.75" cy="599.15" fill="#ADD1B2" rx="11" ry="11" style="stroke:#181818;stroke-width:1.0;"/><path d="M986.7231,604.7931 Q986.1421,605.0919 985.5029,605.2413 Q984.8638,605.3907 984.1582,605.3907 Q981.6514,605.3907 980.3315,603.7389 Q979.0117,602.087 979.0117,598.9659 Q979.0117,595.8365 980.3315,594.1847 Q981.6514,592.5328 984.1582,592.5328 Q984.8638,592.5328 985.5112,592.6822 Q986.1587,592.8316 986.7231,593.1305 L986.7231,595.8531 Q986.0923,595.2721 985.4988,595.0023 Q984.9053,594.7325 984.2744,594.7325 Q982.9297,594.7325 982.2449,595.7992 Q981.5601,596.8658 981.5601,598.9659 Q981.5601,601.0577 982.2449,602.1244 Q982.9297,603.191 984.2744,603.191 Q984.9053,603.191 985.4988,602.9212 Q986.0923,602.6515 986.7231,602.0704 Z " fill="#000000"/><text fill="#000000" font-family="sans-serif" font-size="14" lengthAdjust="spacing" textLength="40" x="1004.25" y="604.441">Phase</text><line style="stroke:#181818;stroke-width:0.5;" x1="930.5" x2="1085.5" y1="615.15" y2="615.15"/><ellipse cx="940.5" cy="628.8941" fill="none" rx="3" ry="3" style="stroke:#038048;stroke-width:1.0;"/><text fill="#000000" font-family="sans-serif" font-size="14" lengthAdjust="spacing" textLength="55" x="949.5" y="632.6852">id: Long</text><ellipse cx="940.5" cy="645.3824" fill="none" rx="3" ry="3" style="stroke:#038048;stroke-width:1.0;"/><text fill="#000000" font-family="sans-serif" font-size="14" lengthAdjust="spacing" textLength="125" x="949.5" y="649.1734">name: PhaseName</text><ellipse cx="940.5" cy="661.8707" fill="none" rx="3" ry="3" style="stroke:#038048;stroke-width:1.0;"/><text fill="#000000" font-family="sans-serif" font-size="14" lengthAdjust="spacing" textLength="131" x="949.5" y="665.6617">status: PhaseStatus</text><line style="stroke:#181818;stroke-width:0.5;" x1="930.5" x2="1085.5" y1="672.6148" y2="672.6148"/></g><!--class PhaseName--><g id="elem_PhaseName"><rect codeLine="92" fill="#F1F1F1" height="130.4414" id="PhaseName" rx="2.5" ry="2.5" style="stroke:#181818;stroke-width:0.5;" width="111" x="940.5" y="740.62"/><ellipse cx="955.5" cy="756.62" fill="#EB937F" rx="11" ry="11" style="stroke:#181818;stroke-width:1.0;"/><path d="M959.6143,762.62 L951.8945,762.62 L951.8945,750.2269 L959.6143,750.2269 L959.6143,752.3851 L954.3433,752.3851 L954.3433,755.058 L959.1162,755.058 L959.1162,757.2162 L954.3433,757.2162 L954.3433,760.4618 L959.6143,760.4618 Z " fill="#000000"/><text fill="#000000" font-family="sans-serif" font-size="14" lengthAdjust="spacing" textLength="79" x="969.5" y="761.911">PhaseName</text><line style="stroke:#181818;stroke-width:0.5;" x1="941.5" x2="1050.5" y1="772.62" y2="772.62"/><text fill="#000000" font-family="sans-serif" font-size="14" lengthAdjust="spacing" textLength="95" x="946.5" y="790.1552">APPLICATION,</text><text fill="#000000" font-family="sans-serif" font-size="14" lengthAdjust="spacing" textLength="81" x="946.5" y="806.6434">SCREENING,</text><text fill="#000000" font-family="sans-serif" font-size="14" lengthAdjust="spacing" textLength="85" x="946.5" y="823.1317">INTERVIEWS,</text><text fill="#000000" font-family="sans-serif" font-size="14" lengthAdjust="spacing" textLength="70" x="946.5" y="839.62">ANALYSIS,</text><text fill="#000000" font-family="sans-serif" font-size="14" lengthAdjust="spacing" textLength="51" x="946.5" y="856.1083">RESULT</text><line style="stroke:#181818;stroke-width:0.5;" x1="941.5" x2="1050.5" y1="863.0614" y2="863.0614"/></g><!--class PhaseStatus--><g id="elem_PhaseStatus"><rect codeLine="100" fill="#F1F1F1" height="80.9766" id="PhaseStatus" rx="2.5" ry="2.5" style="stroke:#181818;stroke-width:0.5;" width="114" x="1087" y="765.35"/><ellipse cx="1102" cy="781.35" fill="#EB937F" rx="11" ry="11" style="stroke:#181818;stroke-width:1.0;"/><path d="M1106.1143,787.35 L1098.3945,787.35 L1098.3945,774.9569 L1106.1143,774.9569 L1106.1143,777.1151 L1100.8433,777.1151 L1100.8433,779.788 L1105.6162,779.788 L1105.6162,781.9462 L1100.8433,781.9462 L1100.8433,785.1918 L1106.1143,785.1918 Z " fill="#000000"/><text fill="#000000" font-family="sans-serif" font-size="14" lengthAdjust="spacing" textLength="82" x="1116" y="786.641">PhaseStatus</text><line style="stroke:#181818;stroke-width:0.5;" x1="1088" x2="1200" y1="797.35" y2="797.35"/><text fill="#000000" font-family="sans-serif" font-size="14" lengthAdjust="spacing" textLength="37" x="1093" y="814.8852">Open</text><text fill="#000000" font-family="sans-serif" font-size="14" lengthAdjust="spacing" textLength="47" x="1093" y="831.3734">Closed</text><line style="stroke:#181818;stroke-width:0.5;" x1="1088" x2="1200" y1="838.3266" y2="838.3266"/></g><!--class RecruitmentProcessStatus--><g id="elem_RecruitmentProcessStatus"><rect codeLine="105" fill="#F1F1F1" height="97.4648" id="RecruitmentProcessStatus" rx="2.5" ry="2.5" style="stroke:#181818;stroke-width:0.5;" width="209" x="1121.5" y="583.15"/><ellipse cx="1136.5" cy="599.15" fill="#EB937F" rx="11" ry="11" style="stroke:#181818;stroke-width:1.0;"/><path d="M1140.6143,605.15 L1132.8945,605.15 L1132.8945,592.7569 L1140.6143,592.7569 L1140.6143,594.9151 L1135.3433,594.9151 L1135.3433,597.588 L1140.1162,597.588 L1140.1162,599.7462 L1135.3433,599.7462 L1135.3433,602.9918 L1140.6143,602.9918 Z " fill="#000000"/><text fill="#000000" font-family="sans-serif" font-size="14" lengthAdjust="spacing" textLength="177" x="1150.5" y="604.441">RecruitmentProcessStatus</text><line style="stroke:#181818;stroke-width:0.5;" x1="1122.5" x2="1329.5" y1="615.15" y2="615.15"/><text fill="#000000" font-family="sans-serif" font-size="14" lengthAdjust="spacing" textLength="75" x="1127.5" y="632.6852">Uninitiated</text><text fill="#000000" font-family="sans-serif" font-size="14" lengthAdjust="spacing" textLength="69" x="1127.5" y="649.1734">In Process</text><text fill="#000000" font-family="sans-serif" font-size="14" lengthAdjust="spacing" textLength="58" x="1127.5" y="665.6617">Finished</text><line style="stroke:#181818;stroke-width:0.5;" x1="1122.5" x2="1329.5" y1="672.6148" y2="672.6148"/></g><!--link RequirementsSpecification to Description--><g id="link_RequirementsSpecification_Description"><path codeLine="20" d="M1521.2,504.56 C1502.53,534.71 1482.1583,567.6285 1465.8083,594.0385 " fill="none" id="RequirementsSpecification-to-Description" style="stroke:#181818;stroke-width:1.0;"/><polygon fill="#181818" points="1462.65,599.14,1470.7884,593.5932,1465.2819,594.8887,1463.9864,589.3822,1462.65,599.14" style="stroke:#181818;stroke-width:1.0;"/></g><!--link RequirementsSpecification to JarFile--><g id="link_RequirementsSpecification_JarFile"><path codeLine="21" d="M1566.73,504.56 C1576.58,534.71 1587.1364,567.0268 1595.7664,593.4368 " fill="none" id="RequirementsSpecification-to-JarFile" style="stroke:#181818;stroke-width:1.0;"/><polygon fill="#181818" points="1597.63,599.14,1598.6367,589.3427,1596.077,594.3873,1591.0324,591.8276,1597.63,599.14" style="stroke:#181818;stroke-width:1.0;"/></g><!--link RequirementsSpecification to SpecName--><g id="link_RequirementsSpecification_SpecName"><path codeLine="22" d="M1612.25,504.56 C1650.62,534.71 1694.2822,569.0229 1727.8922,595.4329 " fill="none" id="RequirementsSpecification-to-SpecName" style="stroke:#181818;stroke-width:1.0;"/><polygon fill="#181818" points="1732.61,599.14,1728.0048,590.4342,1728.6785,596.0507,1723.0619,596.7245,1732.61,599.14" style="stroke:#181818;stroke-width:1.0;"/></g><!--link JobApplication to Requirements--><g id="link_JobApplication_Requirements"><path codeLine="65" d="M638,138.92 C638,169.14 638,201.65 638,230.14 " fill="none" id="JobApplication-to-Requirements" style="stroke:#181818;stroke-width:1.0;"/><polygon fill="#181818" points="638,236.14,642,227.14,638,231.14,634,227.14,638,236.14" style="stroke:#181818;stroke-width:1.0;"/></g><!--link JobApplication to File--><g id="link_JobApplication_File"><path codeLine="66" d="M544.87,138.92 C481.06,171.93 403.4991,212.063 347.5791,240.993 " fill="none" id="JobApplication-to-File" style="stroke:#181818;stroke-width:1.0;"/><polygon fill="#181818" points="342.25,243.75,352.0816,243.1673,346.6909,241.4525,348.4056,236.0618,342.25,243.75" style="stroke:#181818;stroke-width:1.0;"/></g><!--link Requirements to RequirementsJustification--><g id="link_Requirements_RequirementsJustification"><path codeLine="68" d="M615.11,317.56 C596.72,349.36 574.2523,388.2351 557.2323,417.6851 " fill="none" id="Requirements-to-RequirementsJustification" style="stroke:#181818;stroke-width:1.0;"/><polygon fill="#181818" points="554.23,422.88,562.1966,417.0892,556.7319,418.551,555.2701,413.0862,554.23,422.88" style="stroke:#181818;stroke-width:1.0;"/></g><!--link Requirements to RequirementsEvaluation--><g id="link_Requirements_RequirementsEvaluation"><path codeLine="69" d="M668.52,317.56 C688.8,343.88 711.897,373.8379 733.387,401.7179 " fill="none" id="Requirements-to-RequirementsEvaluation" style="stroke:#181818;stroke-width:1.0;"/><polygon fill="#181818" points="737.05,406.47,734.7236,396.8998,733.9975,402.5099,728.3875,401.7838,737.05,406.47" style="stroke:#181818;stroke-width:1.0;"/></g><!--link File to FilePath--><g id="link_File_FilePath"><path codeLine="71" d="M217.66,311.33 C193.62,325.74 166.74,343.85 145,363.69 C125.9,381.12 111.5561,399.3174 98.7161,417.8574 " fill="none" id="File-to-FilePath" style="stroke:#181818;stroke-width:1.0;"/><polygon fill="#181818" points="95.3,422.79,103.7125,417.6685,98.1467,418.6795,97.1357,413.1137,95.3,422.79" style="stroke:#181818;stroke-width:1.0;"/></g><!--link File to FileType--><g id="link_File_FileType"><path codeLine="72" d="M280,326.18 C280,353.93 280,382.39 280,408.6 " fill="none" id="File-to-FileType" style="stroke:#181818;stroke-width:1.0;"/><polygon fill="#181818" points="280,414.6,284,405.6,280,409.6,276,405.6,280,414.6" style="stroke:#181818;stroke-width:1.0;"/></g><!--link JobOpening to RecruitmentProcess--><g id="link_JobOpening_RecruitmentProcess"><path codeLine="111" d="M1117,317.56 C1117,343.88 1117,372.59 1117,400.47 " fill="none" id="JobOpening-to-RecruitmentProcess" style="stroke:#181818;stroke-width:1.0;"/><polygon fill="#181818" points="1117,406.47,1121,397.47,1117,401.47,1113,397.47,1117,406.47" style="stroke:#181818;stroke-width:1.0;"/></g><!--link RecruitmentProcess to RecruitmentProcessStatus--><g id="link_RecruitmentProcess_RecruitmentProcessStatus"><path codeLine="112" d="M1147.07,504.56 C1162.32,528.96 1177.6121,553.4307 1192.8421,577.8207 " fill="none" id="RecruitmentProcess-to-RecruitmentProcessStatus" style="stroke:#181818;stroke-width:1.0;"/><polygon fill="#181818" points="1196.02,582.91,1194.646,573.1575,1193.3717,578.6689,1187.8603,577.3947,1196.02,582.91" style="stroke:#181818;stroke-width:1.0;"/></g><!--link RecruitmentProcess to Phase--><g id="link_RecruitmentProcess_Phase"><path codeLine="113" d="M1075.52,504.43 C1067.6,514.59 1059.69,525.48 1053,536.15 C1043.81,550.81 1037.7778,562.1885 1030.6378,577.5585 " fill="none" id="RecruitmentProcess-to-Phase" style="stroke:#181818;stroke-width:1.0;"/><polygon fill="#181818" points="1028.11,583,1035.5294,576.5229,1030.2165,578.4654,1028.274,573.1525,1028.11,583" style="stroke:#181818;stroke-width:1.0;"/><text fill="#000000" font-family="sans-serif" font-size="13" lengthAdjust="spacing" textLength="105" x="1054" y="549.7184">Is separated into</text></g><!--link Phase to PhaseName--><g id="link_Phase_PhaseName"><path codeLine="114" d="M1004.66,680.78 C1003.37,699.17 1002.3091,714.4747 1000.9291,734.1847 " fill="none" id="Phase-to-PhaseName" style="stroke:#181818;stroke-width:1.0;"/><polygon fill="#181818" points="1000.51,740.17,1005.1288,731.4714,1000.8592,735.1822,997.1484,730.9126,1000.51,740.17" style="stroke:#181818;stroke-width:1.0;"/></g><!--link Phase to PhaseStatus--><g id="link_Phase_PhaseStatus"><path codeLine="115" d="M1045.88,680.78 C1066.87,707.32 1088.9277,735.2042 1108.7977,760.3242 " fill="none" id="Phase-to-PhaseStatus" style="stroke:#181818;stroke-width:1.0;"/><polygon fill="#181818" points="1112.52,765.03,1110.0737,755.4898,1109.4181,761.1085,1103.7994,760.4528,1112.52,765.03" style="stroke:#181818;stroke-width:1.0;"/></g><!--link JobOpening to RequirementsSpecification--><g id="link_JobOpening_RequirementsSpecification"><path codeLine="118" d="M1228.38,317.9 C1266.22,331.89 1308.63,348.02 1347,363.69 C1379.39,376.91 1408.8105,389.6456 1440.4405,403.7556 " fill="none" id="JobOpening-to-RequirementsSpecification" style="stroke:#181818;stroke-width:1.0;"/><polygon fill="#181818" points="1445.92,406.2,1439.3303,398.8804,1441.3537,404.163,1436.0712,406.1864,1445.92,406.2" style="stroke:#181818;stroke-width:1.0;"/></g><!--link JobApplication to JobOpening--><g id="link_JobApplication_JobOpening"><path codeLine="119" d="M762.6,138.92 C840.63,169.09 934.3939,205.3457 1008.0339,233.8257 " fill="none" id="JobApplication-to-JobOpening" style="stroke:#181818;stroke-width:1.0;"/><polygon fill="#181818" points="1013.63,235.99,1006.6787,229.0129,1008.9666,234.1865,1003.7931,236.4743,1013.63,235.99" style="stroke:#181818;stroke-width:1.0;"/><text fill="#000000" font-family="sans-serif" font-size="13" lengthAdjust="spacing" textLength="59" x="878" y="182.0384">Refers To</text></g><!--SRC=[ZLNRZfim47tFLrZxskuFHDLAAAKLKSGYoBRgeqicYLDYN6nsLLNxxxKDmMDielAIC1UVcJbdZA3rBte2KiBlddLm1Qva9Q1cHrPJnLgUd4xaxsf5z5CtLChbI1r6nkS3Ewo9SURq2ivw05btJ9ZWDVdiNbp4XNPVM0DhiXt-MCyxXaTf691h80sfEiPFOT9u6auW8rH1rNcMwF9kBVmFql9S7X-VWcxlH-FkxqTEGrwzhyJ8vRRzcGZHU0IYMNZUEMcxTkpAMZg4dRxIfgS3TsNKxlAEkdYf3sDIVJADF8MKJFrv1P0rQRmAXAP76szCEOVw8s1qxFNVE819mG0Y9Dl-0E-l_b4kQKFvWHseWemhw5uPl2LSla4dmmWy5XpqlhG_ym5SUgaSl_wSjzZdKc0QFxdBos8DuRbt2beONHmN7LI07X7YDQbh40eEaw642zGtmx22Cw4QjGUpYyHOOGMR4wI7RTyDHzEqmVOwkS5DolIiLalULZuBu7eAmPNgNFDrr9uIZj01hm6lPTtrJ9d2YgwjGKf3_TmMt6PXo1oESUKCKb7LHq-kh0UjrPdAQTyByn9PU6k_VzqCLwiDz3ySjrAi2w5Z3Kvf2CDAhIXssIRPPy_vHyzHRSeqpRFygs_EydrQVilIxvLlJ_9azwFAPjOohLvs-tWnGw6e74EokpMQLavwnwiKdpOwvaKhXIb6yVvad63Q1p5o9iy-15BQeF2eQ292YKSZAXPo1jRNv26JH8AWdQdQwAnzi6c3VugSQ9_PHo3THT31mjTn5RaQKAwHjTuhIVRjFm00]--></g></svg>