<?xml version="1.0" encoding="us-ascii" standalone="no"?><svg xmlns="http://www.w3.org/2000/svg" xmlns:xlink="http://www.w3.org/1999/xlink" contentStyleType="text/css" height="266.4px" preserveAspectRatio="none" style="width:876px;height:266px;background:#FFFFFF;" version="1.1" viewBox="0 0 876 266" width="876.6px" zoomAndPan="magnify"><defs/><g><text fill="#000000" font-family="sans-serif" font-size="8.4" font-weight="bold" lengthAdjust="spacing" textLength="93.6" x="387.45" y="15.0645">Domain Driven Design</text><!--cluster ApplicationAgg--><g id="cluster_ApplicationAgg"><path d="M5.1,27.3809 L68.7,27.3809 A2.25,2.25 0 0 1 70.2,28.8809 L74.4,42.1535 L682.5,42.1535 A1.5,1.5 0 0 1 684,43.6535 L684,261.0809 A1.5,1.5 0 0 1 682.5,262.5809 L5.1,262.5809 A1.5,1.5 0 0 1 3.6,261.0809 L3.6,28.8809 A1.5,1.5 0 0 1 5.1,27.3809 " fill="#AAAABB" style="stroke:#000000;stroke-width:0.8999999999999999;"/><line style="stroke:#000000;stroke-width:0.8999999999999999;" x1="3.6" x2="74.4" y1="42.1535" y2="42.1535"/><text fill="#000000" font-family="sans-serif" font-size="8.4" font-weight="bold" lengthAdjust="spacing" textLength="63" x="6" y="37.6453">ApplicationAgg</text></g><!--class Application--><g id="elem_Application"><rect codeLine="8" fill="#F1F1F1" height="36.3258" id="Application" rx="1.5" ry="1.5" style="stroke:#181818;stroke-width:0.3;" width="60.6" x="323.7" y="54.3809"/><ellipse cx="332.7" cy="72.5438" fill="#ADD1B2" rx="6.6" ry="6.6" style="stroke:#181818;stroke-width:0.6;"/><path d="M334.3594,70.0688 Q334.4531,69.9375 334.5656,69.8719 Q334.6781,69.8062 334.8094,69.8062 Q335.0344,69.8062 335.175,69.9656 Q335.3156,70.1156 335.3156,70.4813 L335.3156,71.3531 Q335.3156,71.7188 335.175,71.8781 Q335.0344,72.0375 334.8094,72.0375 Q334.6031,72.0375 334.4813,71.9156 Q334.3594,71.8031 334.2938,71.4937 Q334.2656,71.2781 334.1531,71.1656 Q333.9563,70.9406 333.5906,70.8094 Q333.225,70.6781 332.85,70.6781 Q332.3906,70.6781 332.0062,70.875 Q331.6312,71.0719 331.3313,71.5219 Q331.0406,71.9719 331.0406,72.5906 L331.0406,73.2469 Q331.0406,73.9875 331.575,74.4844 Q332.1094,74.9719 333.0656,74.9719 Q333.6281,74.9719 334.0219,74.8219 Q334.2562,74.7281 334.5094,74.4656 Q334.6688,74.3062 334.7531,74.2594 Q334.8469,74.2125 334.9688,74.2125 Q335.1656,74.2125 335.3156,74.3719 Q335.475,74.5219 335.475,74.7281 Q335.475,74.9344 335.2688,75.1781 Q334.9688,75.525 334.4906,75.7219 Q333.8438,75.9937 333.0656,75.9937 Q332.1563,75.9937 331.4344,75.6187 Q330.8438,75.3188 330.4313,74.6812 Q330.0188,74.0344 330.0188,73.2656 L330.0188,72.5719 Q330.0188,71.775 330.3844,71.0906 Q330.7594,70.3969 331.4156,70.0313 Q332.0719,69.6563 332.8125,69.6563 Q333.2531,69.6563 333.6375,69.7594 Q334.0313,69.8531 334.3594,70.0688 Z " fill="#000000"/><text fill="#000000" font-family="sans-serif" font-size="7.2" font-style="italic" lengthAdjust="spacing" textLength="24" x="349.8" y="65.1504">&#171;Root&#187;</text><text fill="#000000" font-family="sans-serif" font-size="7.2" font-style="italic" lengthAdjust="spacing" textLength="26.4" x="348.6" y="74.727">&#171;Entity&#187;</text><text fill="#000000" font-family="sans-serif" font-size="8.4" lengthAdjust="spacing" textLength="41.4" x="341.1" y="85.5984">Application</text></g><!--class ApplicationID--><g id="elem_ApplicationID"><rect codeLine="9" fill="#F1F1F1" height="36.3258" id="ApplicationID" rx="1.5" ry="1.5" style="stroke:#181818;stroke-width:0.3;" width="68.4" x="18" y="138.3809"/><ellipse cx="27" cy="156.5438" fill="#ADD1B2" rx="6.6" ry="6.6" style="stroke:#181818;stroke-width:0.6;"/><path d="M28.6594,154.0688 Q28.7531,153.9375 28.8656,153.8719 Q28.9781,153.8063 29.1094,153.8063 Q29.3344,153.8063 29.475,153.9656 Q29.6156,154.1156 29.6156,154.4813 L29.6156,155.3531 Q29.6156,155.7188 29.475,155.8781 Q29.3344,156.0375 29.1094,156.0375 Q28.9031,156.0375 28.7813,155.9156 Q28.6594,155.8031 28.5938,155.4938 Q28.5656,155.2781 28.4531,155.1656 Q28.2562,154.9406 27.8906,154.8094 Q27.525,154.6781 27.15,154.6781 Q26.6906,154.6781 26.3063,154.875 Q25.9313,155.0719 25.6312,155.5219 Q25.3406,155.9719 25.3406,156.5906 L25.3406,157.2469 Q25.3406,157.9875 25.875,158.4844 Q26.4094,158.9719 27.3656,158.9719 Q27.9281,158.9719 28.3219,158.8219 Q28.5563,158.7281 28.8094,158.4656 Q28.9688,158.3063 29.0531,158.2594 Q29.1469,158.2125 29.2687,158.2125 Q29.4656,158.2125 29.6156,158.3719 Q29.775,158.5219 29.775,158.7281 Q29.775,158.9344 29.5687,159.1781 Q29.2687,159.525 28.7906,159.7219 Q28.1438,159.9938 27.3656,159.9938 Q26.4563,159.9938 25.7344,159.6188 Q25.1438,159.3188 24.7313,158.6813 Q24.3187,158.0344 24.3187,157.2656 L24.3187,156.5719 Q24.3187,155.775 24.6844,155.0906 Q25.0594,154.3969 25.7156,154.0313 Q26.3719,153.6563 27.1125,153.6563 Q27.5531,153.6563 27.9375,153.7594 Q28.3313,153.8531 28.6594,154.0688 Z " fill="#000000"/><text fill="#000000" font-family="sans-serif" font-size="7.2" font-style="italic" lengthAdjust="spacing" textLength="51" x="34.5" y="149.1504">&#171;Value Object&#187;</text><text fill="#000000" font-family="sans-serif" font-size="7.2" font-style="italic" lengthAdjust="spacing" textLength="15" x="52.5" y="158.727">&#171;Id&#187;</text><text fill="#000000" font-family="sans-serif" font-size="8.4" lengthAdjust="spacing" textLength="49.2" x="35.4" y="169.5984">ApplicationID</text></g><!--class FilePath--><g id="elem_FilePath"><rect codeLine="11" fill="#F1F1F1" height="26.7492" id="FilePath" rx="1.5" ry="1.5" style="stroke:#181818;stroke-width:0.3;" width="67.8" x="19.5" y="216.3809"/><ellipse cx="28.5" cy="229.7555" fill="#ADD1B2" rx="6.6" ry="6.6" style="stroke:#181818;stroke-width:0.6;"/><path d="M30.1594,227.2805 Q30.2531,227.1492 30.3656,227.0836 Q30.4781,227.018 30.6094,227.018 Q30.8344,227.018 30.975,227.1773 Q31.1156,227.3273 31.1156,227.693 L31.1156,228.5648 Q31.1156,228.9305 30.975,229.0898 Q30.8344,229.2492 30.6094,229.2492 Q30.4031,229.2492 30.2813,229.1273 Q30.1594,229.0148 30.0938,228.7055 Q30.0656,228.4898 29.9531,228.3773 Q29.7562,228.1523 29.3906,228.0211 Q29.025,227.8898 28.65,227.8898 Q28.1906,227.8898 27.8063,228.0867 Q27.4313,228.2836 27.1312,228.7336 Q26.8406,229.1836 26.8406,229.8023 L26.8406,230.4586 Q26.8406,231.1992 27.375,231.6961 Q27.9094,232.1836 28.8656,232.1836 Q29.4281,232.1836 29.8219,232.0336 Q30.0563,231.9398 30.3094,231.6773 Q30.4688,231.518 30.5531,231.4711 Q30.6469,231.4242 30.7687,231.4242 Q30.9656,231.4242 31.1156,231.5836 Q31.275,231.7336 31.275,231.9398 Q31.275,232.1461 31.0687,232.3898 Q30.7687,232.7367 30.2906,232.9336 Q29.6437,233.2055 28.8656,233.2055 Q27.9563,233.2055 27.2344,232.8305 Q26.6438,232.5305 26.2313,231.893 Q25.8187,231.2461 25.8187,230.4773 L25.8187,229.7836 Q25.8187,228.9867 26.1844,228.3023 Q26.5594,227.6086 27.2156,227.243 Q27.8719,226.868 28.6125,226.868 Q29.0531,226.868 29.4375,226.9711 Q29.8312,227.0648 30.1594,227.2805 Z " fill="#000000"/><text fill="#000000" font-family="sans-serif" font-size="7.2" font-style="italic" lengthAdjust="spacing" textLength="51" x="35.7" y="227.1504">&#171;Value Object&#187;</text><text fill="#000000" font-family="sans-serif" font-size="8.4" lengthAdjust="spacing" textLength="31.2" x="45.6" y="238.0219">FilePath</text></g><!--class File--><g id="elem_File"><rect codeLine="12" fill="#F1F1F1" height="26.7492" id="File" rx="1.5" ry="1.5" style="stroke:#181818;stroke-width:0.3;" width="67.8" x="107.7" y="143.1809"/><ellipse cx="116.7" cy="156.5555" fill="#ADD1B2" rx="6.6" ry="6.6" style="stroke:#181818;stroke-width:0.6;"/><path d="M118.3594,154.0805 Q118.4531,153.9492 118.5656,153.8836 Q118.6781,153.818 118.8094,153.818 Q119.0344,153.818 119.175,153.9773 Q119.3156,154.1273 119.3156,154.493 L119.3156,155.3648 Q119.3156,155.7305 119.175,155.8898 Q119.0344,156.0492 118.8094,156.0492 Q118.6031,156.0492 118.4812,155.9273 Q118.3594,155.8148 118.2937,155.5055 Q118.2656,155.2898 118.1531,155.1773 Q117.9563,154.9523 117.5906,154.8211 Q117.225,154.6898 116.85,154.6898 Q116.3906,154.6898 116.0063,154.8867 Q115.6313,155.0836 115.3313,155.5336 Q115.0406,155.9836 115.0406,156.6023 L115.0406,157.2586 Q115.0406,157.9992 115.575,158.4961 Q116.1094,158.9836 117.0656,158.9836 Q117.6281,158.9836 118.0219,158.8336 Q118.2563,158.7398 118.5094,158.4773 Q118.6687,158.318 118.7531,158.2711 Q118.8469,158.2242 118.9688,158.2242 Q119.1656,158.2242 119.3156,158.3836 Q119.475,158.5336 119.475,158.7398 Q119.475,158.9461 119.2688,159.1898 Q118.9688,159.5367 118.4906,159.7336 Q117.8438,160.0055 117.0656,160.0055 Q116.1563,160.0055 115.4344,159.6305 Q114.8438,159.3305 114.4312,158.693 Q114.0188,158.0461 114.0188,157.2773 L114.0188,156.5836 Q114.0188,155.7867 114.3844,155.1023 Q114.7594,154.4086 115.4156,154.043 Q116.0719,153.668 116.8125,153.668 Q117.2531,153.668 117.6375,153.7711 Q118.0313,153.8648 118.3594,154.0805 Z " fill="#000000"/><text fill="#000000" font-family="sans-serif" font-size="7.2" font-style="italic" lengthAdjust="spacing" textLength="51" x="123.9" y="153.9504">&#171;Value Object&#187;</text><text fill="#000000" font-family="sans-serif" font-size="8.4" lengthAdjust="spacing" textLength="13.8" x="142.5" y="164.8219">File</text></g><!--class FileType--><g id="elem_FileType"><rect codeLine="13" fill="#F1F1F1" height="26.7492" id="FileType" rx="1.5" ry="1.5" style="stroke:#181818;stroke-width:0.3;" width="52.2" x="108.3" y="216.3809"/><ellipse cx="117.3" cy="229.7555" fill="#ADD1B2" rx="6.6" ry="6.6" style="stroke:#181818;stroke-width:0.6;"/><path d="M118.9594,227.2805 Q119.0531,227.1492 119.1656,227.0836 Q119.2781,227.018 119.4094,227.018 Q119.6344,227.018 119.775,227.1773 Q119.9156,227.3273 119.9156,227.693 L119.9156,228.5648 Q119.9156,228.9305 119.775,229.0898 Q119.6344,229.2492 119.4094,229.2492 Q119.2031,229.2492 119.0813,229.1273 Q118.9594,229.0148 118.8938,228.7055 Q118.8656,228.4898 118.7531,228.3773 Q118.5562,228.1523 118.1906,228.0211 Q117.825,227.8898 117.45,227.8898 Q116.9906,227.8898 116.6062,228.0867 Q116.2312,228.2836 115.9312,228.7336 Q115.6406,229.1836 115.6406,229.8023 L115.6406,230.4586 Q115.6406,231.1992 116.175,231.6961 Q116.7094,232.1836 117.6656,232.1836 Q118.2281,232.1836 118.6219,232.0336 Q118.8562,231.9398 119.1094,231.6773 Q119.2688,231.518 119.3531,231.4711 Q119.4469,231.4242 119.5688,231.4242 Q119.7656,231.4242 119.9156,231.5836 Q120.075,231.7336 120.075,231.9398 Q120.075,232.1461 119.8687,232.3898 Q119.5688,232.7367 119.0906,232.9336 Q118.4438,233.2055 117.6656,233.2055 Q116.7563,233.2055 116.0344,232.8305 Q115.4438,232.5305 115.0313,231.893 Q114.6187,231.2461 114.6187,230.4773 L114.6187,229.7836 Q114.6187,228.9867 114.9844,228.3023 Q115.3594,227.6086 116.0156,227.243 Q116.6719,226.868 117.4125,226.868 Q117.8531,226.868 118.2375,226.9711 Q118.6313,227.0648 118.9594,227.2805 Z " fill="#000000"/><text fill="#000000" font-family="sans-serif" font-size="7.2" font-style="italic" lengthAdjust="spacing" textLength="28.2" x="128.1" y="227.1504">&#171;Enum&#187;</text><text fill="#000000" font-family="sans-serif" font-size="8.4" lengthAdjust="spacing" textLength="33" x="125.7" y="238.0219">FileType</text></g><!--class RejectionJustification--><g id="elem_RejectionJustification"><rect codeLine="15" fill="#F1F1F1" height="26.7492" id="RejectionJustification" rx="1.5" ry="1.5" style="stroke:#181818;stroke-width:0.3;" width="98.4" x="181.8" y="216.3809"/><ellipse cx="190.8" cy="229.7555" fill="#ADD1B2" rx="6.6" ry="6.6" style="stroke:#181818;stroke-width:0.6;"/><path d="M192.4594,227.2805 Q192.5531,227.1492 192.6656,227.0836 Q192.7781,227.018 192.9094,227.018 Q193.1344,227.018 193.275,227.1773 Q193.4156,227.3273 193.4156,227.693 L193.4156,228.5648 Q193.4156,228.9305 193.275,229.0898 Q193.1344,229.2492 192.9094,229.2492 Q192.7031,229.2492 192.5812,229.1273 Q192.4594,229.0148 192.3937,228.7055 Q192.3656,228.4898 192.2531,228.3773 Q192.0563,228.1523 191.6906,228.0211 Q191.325,227.8898 190.95,227.8898 Q190.4906,227.8898 190.1063,228.0867 Q189.7313,228.2836 189.4313,228.7336 Q189.1406,229.1836 189.1406,229.8023 L189.1406,230.4586 Q189.1406,231.1992 189.675,231.6961 Q190.2094,232.1836 191.1656,232.1836 Q191.7281,232.1836 192.1219,232.0336 Q192.3563,231.9398 192.6094,231.6773 Q192.7687,231.518 192.8531,231.4711 Q192.9469,231.4242 193.0688,231.4242 Q193.2656,231.4242 193.4156,231.5836 Q193.575,231.7336 193.575,231.9398 Q193.575,232.1461 193.3688,232.3898 Q193.0688,232.7367 192.5906,232.9336 Q191.9438,233.2055 191.1656,233.2055 Q190.2563,233.2055 189.5344,232.8305 Q188.9438,232.5305 188.5313,231.893 Q188.1188,231.2461 188.1188,230.4773 L188.1188,229.7836 Q188.1188,228.9867 188.4844,228.3023 Q188.8594,227.6086 189.5156,227.243 Q190.1719,226.868 190.9125,226.868 Q191.3531,226.868 191.7375,226.9711 Q192.1313,227.0648 192.4594,227.2805 Z " fill="#000000"/><text fill="#000000" font-family="sans-serif" font-size="7.2" font-style="italic" lengthAdjust="spacing" textLength="51" x="213.3" y="227.1504">&#171;Value Object&#187;</text><text fill="#000000" font-family="sans-serif" font-size="8.4" lengthAdjust="spacing" textLength="79.2" x="199.2" y="238.0219">RejectionJustification</text></g><!--class InterviewDateTime--><g id="elem_InterviewDateTime"><rect codeLine="16" fill="#F1F1F1" height="26.7492" id="InterviewDateTime" rx="1.5" ry="1.5" style="stroke:#181818;stroke-width:0.3;" width="88.8" x="424.2" y="216.3809"/><ellipse cx="433.2" cy="229.7555" fill="#ADD1B2" rx="6.6" ry="6.6" style="stroke:#181818;stroke-width:0.6;"/><path d="M434.8594,227.2805 Q434.9531,227.1492 435.0656,227.0836 Q435.1781,227.018 435.3094,227.018 Q435.5344,227.018 435.675,227.1773 Q435.8156,227.3273 435.8156,227.693 L435.8156,228.5648 Q435.8156,228.9305 435.675,229.0898 Q435.5344,229.2492 435.3094,229.2492 Q435.1031,229.2492 434.9813,229.1273 Q434.8594,229.0148 434.7938,228.7055 Q434.7656,228.4898 434.6531,228.3773 Q434.4563,228.1523 434.0906,228.0211 Q433.725,227.8898 433.35,227.8898 Q432.8906,227.8898 432.5062,228.0867 Q432.1312,228.2836 431.8313,228.7336 Q431.5406,229.1836 431.5406,229.8023 L431.5406,230.4586 Q431.5406,231.1992 432.075,231.6961 Q432.6094,232.1836 433.5656,232.1836 Q434.1281,232.1836 434.5219,232.0336 Q434.7562,231.9398 435.0094,231.6773 Q435.1688,231.518 435.2531,231.4711 Q435.3469,231.4242 435.4688,231.4242 Q435.6656,231.4242 435.8156,231.5836 Q435.975,231.7336 435.975,231.9398 Q435.975,232.1461 435.7688,232.3898 Q435.4688,232.7367 434.9906,232.9336 Q434.3438,233.2055 433.5656,233.2055 Q432.6563,233.2055 431.9344,232.8305 Q431.3438,232.5305 430.9313,231.893 Q430.5188,231.2461 430.5188,230.4773 L430.5188,229.7836 Q430.5188,228.9867 430.8844,228.3023 Q431.2594,227.6086 431.9156,227.243 Q432.5719,226.868 433.3125,226.868 Q433.7531,226.868 434.1375,226.9711 Q434.5313,227.0648 434.8594,227.2805 Z " fill="#000000"/><text fill="#000000" font-family="sans-serif" font-size="7.2" font-style="italic" lengthAdjust="spacing" textLength="51" x="450.9" y="227.1504">&#171;Value Object&#187;</text><text fill="#000000" font-family="sans-serif" font-size="8.4" lengthAdjust="spacing" textLength="69.6" x="441.6" y="238.0219">InterviewDateTime</text></g><!--class ApplicationState--><g id="elem_ApplicationState"><rect codeLine="18" fill="#F1F1F1" height="26.7492" id="ApplicationState" rx="1.5" ry="1.5" style="stroke:#181818;stroke-width:0.3;" width="80.4" x="196.8" y="143.1809"/><ellipse cx="205.8" cy="156.5555" fill="#ADD1B2" rx="6.6" ry="6.6" style="stroke:#181818;stroke-width:0.6;"/><path d="M207.4594,154.0805 Q207.5531,153.9492 207.6656,153.8836 Q207.7781,153.818 207.9094,153.818 Q208.1344,153.818 208.275,153.9773 Q208.4156,154.1273 208.4156,154.493 L208.4156,155.3648 Q208.4156,155.7305 208.275,155.8898 Q208.1344,156.0492 207.9094,156.0492 Q207.7031,156.0492 207.5812,155.9273 Q207.4594,155.8148 207.3937,155.5055 Q207.3656,155.2898 207.2531,155.1773 Q207.0563,154.9523 206.6906,154.8211 Q206.325,154.6898 205.95,154.6898 Q205.4906,154.6898 205.1063,154.8867 Q204.7313,155.0836 204.4313,155.5336 Q204.1406,155.9836 204.1406,156.6023 L204.1406,157.2586 Q204.1406,157.9992 204.675,158.4961 Q205.2094,158.9836 206.1656,158.9836 Q206.7281,158.9836 207.1219,158.8336 Q207.3563,158.7398 207.6094,158.4773 Q207.7687,158.318 207.8531,158.2711 Q207.9469,158.2242 208.0688,158.2242 Q208.2656,158.2242 208.4156,158.3836 Q208.575,158.5336 208.575,158.7398 Q208.575,158.9461 208.3688,159.1898 Q208.0688,159.5367 207.5906,159.7336 Q206.9438,160.0055 206.1656,160.0055 Q205.2563,160.0055 204.5344,159.6305 Q203.9438,159.3305 203.5313,158.693 Q203.1188,158.0461 203.1188,157.2773 L203.1188,156.5836 Q203.1188,155.7867 203.4844,155.1023 Q203.8594,154.4086 204.5156,154.043 Q205.1719,153.668 205.9125,153.668 Q206.3531,153.668 206.7375,153.7711 Q207.1313,153.8648 207.4594,154.0805 Z " fill="#000000"/><text fill="#000000" font-family="sans-serif" font-size="7.2" font-style="italic" lengthAdjust="spacing" textLength="26.4" x="231.6" y="153.9504">&#171;Entity&#187;</text><text fill="#000000" font-family="sans-serif" font-size="8.4" lengthAdjust="spacing" textLength="61.2" x="214.2" y="164.8219">ApplicationState</text></g><!--class ApplicationStateName--><g id="elem_ApplicationStateName"><rect codeLine="19" fill="#F1F1F1" height="36.3258" id="ApplicationStateName" rx="1.5" ry="1.5" style="stroke:#181818;stroke-width:0.3;" width="102" x="301.2" y="211.5809"/><ellipse cx="310.2" cy="229.7438" fill="#ADD1B2" rx="6.6" ry="6.6" style="stroke:#181818;stroke-width:0.6;"/><path d="M311.8594,227.2687 Q311.9531,227.1375 312.0656,227.0719 Q312.1781,227.0063 312.3094,227.0063 Q312.5344,227.0063 312.675,227.1656 Q312.8156,227.3156 312.8156,227.6813 L312.8156,228.5531 Q312.8156,228.9188 312.675,229.0781 Q312.5344,229.2375 312.3094,229.2375 Q312.1031,229.2375 311.9813,229.1156 Q311.8594,229.0031 311.7938,228.6938 Q311.7656,228.4781 311.6531,228.3656 Q311.4563,228.1406 311.0906,228.0094 Q310.725,227.8781 310.35,227.8781 Q309.8906,227.8781 309.5062,228.075 Q309.1312,228.2719 308.8313,228.7219 Q308.5406,229.1719 308.5406,229.7906 L308.5406,230.4469 Q308.5406,231.1875 309.075,231.6844 Q309.6094,232.1719 310.5656,232.1719 Q311.1281,232.1719 311.5219,232.0219 Q311.7562,231.9281 312.0094,231.6656 Q312.1688,231.5063 312.2531,231.4594 Q312.3469,231.4125 312.4688,231.4125 Q312.6656,231.4125 312.8156,231.5719 Q312.975,231.7219 312.975,231.9281 Q312.975,232.1344 312.7688,232.3781 Q312.4688,232.725 311.9906,232.9219 Q311.3438,233.1938 310.5656,233.1938 Q309.6563,233.1938 308.9344,232.8188 Q308.3438,232.5187 307.9313,231.8813 Q307.5188,231.2344 307.5188,230.4656 L307.5188,229.7719 Q307.5188,228.975 307.8844,228.2906 Q308.2594,227.5969 308.9156,227.2313 Q309.5719,226.8563 310.3125,226.8563 Q310.7531,226.8563 311.1375,226.9594 Q311.5313,227.0531 311.8594,227.2687 Z " fill="#000000"/><text fill="#000000" font-family="sans-serif" font-size="7.2" font-style="italic" lengthAdjust="spacing" textLength="28.2" x="345.9" y="222.3504">&#171;Enum&#187;</text><text fill="#000000" font-family="sans-serif" font-size="7.2" font-style="italic" lengthAdjust="spacing" textLength="16.2" x="351.9" y="231.927">&#171;ID&#187;</text><text fill="#000000" font-family="sans-serif" font-size="8.4" lengthAdjust="spacing" textLength="82.8" x="318.6" y="242.7984">ApplicationStateName</text></g><!--class RequirementsEvaluation--><g id="elem_RequirementsEvaluation"><rect codeLine="21" fill="#F1F1F1" height="26.7492" id="RequirementsEvaluation" rx="1.5" ry="1.5" style="stroke:#181818;stroke-width:0.3;" width="111.6" x="298.2" y="143.1809"/><ellipse cx="307.2" cy="156.5555" fill="#ADD1B2" rx="6.6" ry="6.6" style="stroke:#181818;stroke-width:0.6;"/><path d="M308.8594,154.0805 Q308.9531,153.9492 309.0656,153.8836 Q309.1781,153.818 309.3094,153.818 Q309.5344,153.818 309.675,153.9773 Q309.8156,154.1273 309.8156,154.493 L309.8156,155.3648 Q309.8156,155.7305 309.675,155.8898 Q309.5344,156.0492 309.3094,156.0492 Q309.1031,156.0492 308.9813,155.9273 Q308.8594,155.8148 308.7938,155.5055 Q308.7656,155.2898 308.6531,155.1773 Q308.4563,154.9523 308.0906,154.8211 Q307.725,154.6898 307.35,154.6898 Q306.8906,154.6898 306.5062,154.8867 Q306.1312,155.0836 305.8313,155.5336 Q305.5406,155.9836 305.5406,156.6023 L305.5406,157.2586 Q305.5406,157.9992 306.075,158.4961 Q306.6094,158.9836 307.5656,158.9836 Q308.1281,158.9836 308.5219,158.8336 Q308.7562,158.7398 309.0094,158.4773 Q309.1688,158.318 309.2531,158.2711 Q309.3469,158.2242 309.4688,158.2242 Q309.6656,158.2242 309.8156,158.3836 Q309.975,158.5336 309.975,158.7398 Q309.975,158.9461 309.7688,159.1898 Q309.4688,159.5367 308.9906,159.7336 Q308.3438,160.0055 307.5656,160.0055 Q306.6563,160.0055 305.9344,159.6305 Q305.3438,159.3305 304.9313,158.693 Q304.5188,158.0461 304.5188,157.2773 L304.5188,156.5836 Q304.5188,155.7867 304.8844,155.1023 Q305.2594,154.4086 305.9156,154.043 Q306.5719,153.668 307.3125,153.668 Q307.7531,153.668 308.1375,153.7711 Q308.5313,153.8648 308.8594,154.0805 Z " fill="#000000"/><text fill="#000000" font-family="sans-serif" font-size="7.2" font-style="italic" lengthAdjust="spacing" textLength="28.2" x="347.7" y="153.9504">&#171;Enum&#187;</text><text fill="#000000" font-family="sans-serif" font-size="8.4" lengthAdjust="spacing" textLength="92.4" x="315.6" y="164.8219">RequirementsEvaluation</text></g><!--class Interview--><g id="elem_Interview"><rect codeLine="23" fill="#F1F1F1" height="26.7492" id="Interview" rx="1.5" ry="1.5" style="stroke:#181818;stroke-width:0.3;" width="67.8" x="431.1" y="143.1809"/><ellipse cx="440.1" cy="156.5555" fill="#ADD1B2" rx="6.6" ry="6.6" style="stroke:#181818;stroke-width:0.6;"/><path d="M441.7594,154.0805 Q441.8531,153.9492 441.9656,153.8836 Q442.0781,153.818 442.2094,153.818 Q442.4344,153.818 442.575,153.9773 Q442.7156,154.1273 442.7156,154.493 L442.7156,155.3648 Q442.7156,155.7305 442.575,155.8898 Q442.4344,156.0492 442.2094,156.0492 Q442.0031,156.0492 441.8812,155.9273 Q441.7594,155.8148 441.6937,155.5055 Q441.6656,155.2898 441.5531,155.1773 Q441.3563,154.9523 440.9906,154.8211 Q440.625,154.6898 440.25,154.6898 Q439.7906,154.6898 439.4063,154.8867 Q439.0313,155.0836 438.7313,155.5336 Q438.4406,155.9836 438.4406,156.6023 L438.4406,157.2586 Q438.4406,157.9992 438.975,158.4961 Q439.5094,158.9836 440.4656,158.9836 Q441.0281,158.9836 441.4219,158.8336 Q441.6563,158.7398 441.9094,158.4773 Q442.0687,158.318 442.1531,158.2711 Q442.2469,158.2242 442.3688,158.2242 Q442.5656,158.2242 442.7156,158.3836 Q442.875,158.5336 442.875,158.7398 Q442.875,158.9461 442.6688,159.1898 Q442.3688,159.5367 441.8906,159.7336 Q441.2438,160.0055 440.4656,160.0055 Q439.5563,160.0055 438.8344,159.6305 Q438.2438,159.3305 437.8313,158.693 Q437.4188,158.0461 437.4188,157.2773 L437.4188,156.5836 Q437.4188,155.7867 437.7844,155.1023 Q438.1594,154.4086 438.8156,154.043 Q439.4719,153.668 440.2125,153.668 Q440.6531,153.668 441.0375,153.7711 Q441.4313,153.8648 441.7594,154.0805 Z " fill="#000000"/><text fill="#000000" font-family="sans-serif" font-size="7.2" font-style="italic" lengthAdjust="spacing" textLength="51" x="447.3" y="153.9504">&#171;Value Object&#187;</text><text fill="#000000" font-family="sans-serif" font-size="8.4" lengthAdjust="spacing" textLength="33" x="456.3" y="164.8219">Interview</text></g><!--class InterviewGrade--><g id="elem_InterviewGrade"><rect codeLine="24" fill="#F1F1F1" height="26.7492" id="InterviewGrade" rx="1.5" ry="1.5" style="stroke:#181818;stroke-width:0.3;" width="76.2" x="534.3" y="216.3809"/><ellipse cx="543.3" cy="229.7555" fill="#ADD1B2" rx="6.6" ry="6.6" style="stroke:#181818;stroke-width:0.6;"/><path d="M544.9594,227.2805 Q545.0531,227.1492 545.1656,227.0836 Q545.2781,227.018 545.4094,227.018 Q545.6344,227.018 545.775,227.1773 Q545.9156,227.3273 545.9156,227.693 L545.9156,228.5648 Q545.9156,228.9305 545.775,229.0898 Q545.6344,229.2492 545.4094,229.2492 Q545.2031,229.2492 545.0813,229.1273 Q544.9594,229.0148 544.8938,228.7055 Q544.8656,228.4898 544.7531,228.3773 Q544.5563,228.1523 544.1906,228.0211 Q543.825,227.8898 543.45,227.8898 Q542.9906,227.8898 542.6062,228.0867 Q542.2312,228.2836 541.9313,228.7336 Q541.6406,229.1836 541.6406,229.8023 L541.6406,230.4586 Q541.6406,231.1992 542.175,231.6961 Q542.7094,232.1836 543.6656,232.1836 Q544.2281,232.1836 544.6219,232.0336 Q544.8562,231.9398 545.1094,231.6773 Q545.2688,231.518 545.3531,231.4711 Q545.4469,231.4242 545.5688,231.4242 Q545.7656,231.4242 545.9156,231.5836 Q546.075,231.7336 546.075,231.9398 Q546.075,232.1461 545.8688,232.3898 Q545.5688,232.7367 545.0906,232.9336 Q544.4438,233.2055 543.6656,233.2055 Q542.7563,233.2055 542.0344,232.8305 Q541.4438,232.5305 541.0313,231.893 Q540.6188,231.2461 540.6188,230.4773 L540.6188,229.7836 Q540.6188,228.9867 540.9844,228.3023 Q541.3594,227.6086 542.0156,227.243 Q542.6719,226.868 543.4125,226.868 Q543.8531,226.868 544.2375,226.9711 Q544.6313,227.0648 544.9594,227.2805 Z " fill="#000000"/><text fill="#000000" font-family="sans-serif" font-size="7.2" font-style="italic" lengthAdjust="spacing" textLength="51" x="554.7" y="227.1504">&#171;Value Object&#187;</text><text fill="#000000" font-family="sans-serif" font-size="8.4" lengthAdjust="spacing" textLength="57" x="551.7" y="238.0219">InterviewGrade</text></g><!--class JobOpening--><g id="elem_JobOpening"><rect fill="#F1F1F1" height="19.2" id="JobOpening" rx="1.5" ry="1.5" style="stroke:#181818;stroke-width:0.3;" width="64.8" x="520.2" y="147.0809"/><ellipse cx="529.2" cy="156.6809" fill="#ADD1B2" rx="6.6" ry="6.6" style="stroke:#181818;stroke-width:0.6;"/><path d="M530.8594,154.2059 Q530.9531,154.0746 531.0656,154.009 Q531.1781,153.9434 531.3094,153.9434 Q531.5344,153.9434 531.675,154.1027 Q531.8156,154.2527 531.8156,154.6184 L531.8156,155.4902 Q531.8156,155.8559 531.675,156.0152 Q531.5344,156.1746 531.3094,156.1746 Q531.1031,156.1746 530.9812,156.0527 Q530.8594,155.9402 530.7937,155.6309 Q530.7656,155.4152 530.6531,155.3027 Q530.4563,155.0777 530.0906,154.9465 Q529.725,154.8152 529.35,154.8152 Q528.8906,154.8152 528.5063,155.0121 Q528.1313,155.209 527.8313,155.659 Q527.5406,156.109 527.5406,156.7277 L527.5406,157.384 Q527.5406,158.1246 528.075,158.6215 Q528.6094,159.109 529.5656,159.109 Q530.1281,159.109 530.5219,158.959 Q530.7563,158.8652 531.0094,158.6027 Q531.1687,158.4434 531.2531,158.3965 Q531.3469,158.3496 531.4688,158.3496 Q531.6656,158.3496 531.8156,158.509 Q531.975,158.659 531.975,158.8652 Q531.975,159.0715 531.7688,159.3152 Q531.4688,159.6621 530.9906,159.859 Q530.3438,160.1309 529.5656,160.1309 Q528.6563,160.1309 527.9344,159.7559 Q527.3438,159.4559 526.9313,158.8184 Q526.5188,158.1715 526.5188,157.4027 L526.5188,156.709 Q526.5188,155.9121 526.8844,155.2277 Q527.2594,154.534 527.9156,154.1684 Q528.5719,153.7934 529.3125,153.7934 Q529.7531,153.7934 530.1375,153.8965 Q530.5313,153.9902 530.8594,154.2059 Z " fill="#000000"/><text fill="#000000" font-family="sans-serif" font-size="8.4" lengthAdjust="spacing" textLength="45.6" x="537.6" y="160.159">JobOpening</text></g><!--class Candidate--><g id="elem_Candidate"><rect fill="#F1F1F1" height="19.2" id="Candidate" rx="1.5" ry="1.5" style="stroke:#181818;stroke-width:0.3;" width="58.2" x="606.3" y="147.0809"/><ellipse cx="615.3" cy="156.6809" fill="#ADD1B2" rx="6.6" ry="6.6" style="stroke:#181818;stroke-width:0.6;"/><path d="M616.9594,154.2059 Q617.0531,154.0746 617.1656,154.009 Q617.2781,153.9434 617.4094,153.9434 Q617.6344,153.9434 617.775,154.1027 Q617.9156,154.2527 617.9156,154.6184 L617.9156,155.4902 Q617.9156,155.8559 617.775,156.0152 Q617.6344,156.1746 617.4094,156.1746 Q617.2031,156.1746 617.0813,156.0527 Q616.9594,155.9402 616.8938,155.6309 Q616.8656,155.4152 616.7531,155.3027 Q616.5563,155.0777 616.1906,154.9465 Q615.825,154.8152 615.45,154.8152 Q614.9906,154.8152 614.6062,155.0121 Q614.2312,155.209 613.9313,155.659 Q613.6406,156.109 613.6406,156.7277 L613.6406,157.384 Q613.6406,158.1246 614.175,158.6215 Q614.7094,159.109 615.6656,159.109 Q616.2281,159.109 616.6219,158.959 Q616.8562,158.8652 617.1094,158.6027 Q617.2688,158.4434 617.3531,158.3965 Q617.4469,158.3496 617.5688,158.3496 Q617.7656,158.3496 617.9156,158.509 Q618.075,158.659 618.075,158.8652 Q618.075,159.0715 617.8688,159.3152 Q617.5688,159.6621 617.0906,159.859 Q616.4438,160.1309 615.6656,160.1309 Q614.7563,160.1309 614.0344,159.7559 Q613.4438,159.4559 613.0313,158.8184 Q612.6188,158.1715 612.6188,157.4027 L612.6188,156.709 Q612.6188,155.9121 612.9844,155.2277 Q613.3594,154.534 614.0156,154.1684 Q614.6719,153.7934 615.4125,153.7934 Q615.8531,153.7934 616.2375,153.8965 Q616.6313,153.9902 616.9594,154.2059 Z " fill="#000000"/><text fill="#000000" font-family="sans-serif" font-size="8.4" lengthAdjust="spacing" textLength="39" x="623.7" y="160.159">Candidate</text></g><!--class CandidateAgg--><g id="elem_CandidateAgg"><rect fill="#F1F1F1" height="19.2" id="CandidateAgg" rx="1.5" ry="1.5" style="stroke:#181818;stroke-width:0.3;" width="73.2" x="698.4" y="147.0809"/><ellipse cx="707.4" cy="156.6809" fill="#ADD1B2" rx="6.6" ry="6.6" style="stroke:#181818;stroke-width:0.6;"/><path d="M709.0594,154.2059 Q709.1531,154.0746 709.2656,154.009 Q709.3781,153.9434 709.5094,153.9434 Q709.7344,153.9434 709.875,154.1027 Q710.0156,154.2527 710.0156,154.6184 L710.0156,155.4902 Q710.0156,155.8559 709.875,156.0152 Q709.7344,156.1746 709.5094,156.1746 Q709.3031,156.1746 709.1813,156.0527 Q709.0594,155.9402 708.9938,155.6309 Q708.9656,155.4152 708.8531,155.3027 Q708.6563,155.0777 708.2906,154.9465 Q707.925,154.8152 707.55,154.8152 Q707.0906,154.8152 706.7063,155.0121 Q706.3313,155.209 706.0313,155.659 Q705.7406,156.109 705.7406,156.7277 L705.7406,157.384 Q705.7406,158.1246 706.275,158.6215 Q706.8094,159.109 707.7656,159.109 Q708.3281,159.109 708.7219,158.959 Q708.9563,158.8652 709.2094,158.6027 Q709.3688,158.4434 709.4531,158.3965 Q709.5469,158.3496 709.6687,158.3496 Q709.8656,158.3496 710.0156,158.509 Q710.175,158.659 710.175,158.8652 Q710.175,159.0715 709.9688,159.3152 Q709.6687,159.6621 709.1906,159.859 Q708.5437,160.1309 707.7656,160.1309 Q706.8562,160.1309 706.1344,159.7559 Q705.5437,159.4559 705.1313,158.8184 Q704.7188,158.1715 704.7188,157.4027 L704.7188,156.709 Q704.7188,155.9121 705.0844,155.2277 Q705.4594,154.534 706.1156,154.1684 Q706.7719,153.7934 707.5125,153.7934 Q707.9531,153.7934 708.3375,153.8965 Q708.7312,153.9902 709.0594,154.2059 Z " fill="#000000"/><text fill="#000000" font-family="sans-serif" font-size="8.4" lengthAdjust="spacing" textLength="54" x="715.8" y="160.159">CandidateAgg</text></g><!--class JobOpeningAgg--><g id="elem_JobOpeningAgg"><rect fill="#F1F1F1" height="19.2" id="JobOpeningAgg" rx="1.5" ry="1.5" style="stroke:#181818;stroke-width:0.3;" width="79.8" x="792.9" y="147.0809"/><ellipse cx="801.9" cy="156.6809" fill="#ADD1B2" rx="6.6" ry="6.6" style="stroke:#181818;stroke-width:0.6;"/><path d="M803.5594,154.2059 Q803.6531,154.0746 803.7656,154.009 Q803.8781,153.9434 804.0094,153.9434 Q804.2344,153.9434 804.375,154.1027 Q804.5156,154.2527 804.5156,154.6184 L804.5156,155.4902 Q804.5156,155.8559 804.375,156.0152 Q804.2344,156.1746 804.0094,156.1746 Q803.8031,156.1746 803.6813,156.0527 Q803.5594,155.9402 803.4938,155.6309 Q803.4656,155.4152 803.3531,155.3027 Q803.1563,155.0777 802.7906,154.9465 Q802.425,154.8152 802.05,154.8152 Q801.5906,154.8152 801.2063,155.0121 Q800.8313,155.209 800.5313,155.659 Q800.2406,156.109 800.2406,156.7277 L800.2406,157.384 Q800.2406,158.1246 800.775,158.6215 Q801.3094,159.109 802.2656,159.109 Q802.8281,159.109 803.2219,158.959 Q803.4563,158.8652 803.7094,158.6027 Q803.8688,158.4434 803.9531,158.3965 Q804.0469,158.3496 804.1687,158.3496 Q804.3656,158.3496 804.5156,158.509 Q804.675,158.659 804.675,158.8652 Q804.675,159.0715 804.4688,159.3152 Q804.1687,159.6621 803.6906,159.859 Q803.0437,160.1309 802.2656,160.1309 Q801.3562,160.1309 800.6344,159.7559 Q800.0437,159.4559 799.6313,158.8184 Q799.2188,158.1715 799.2188,157.4027 L799.2188,156.709 Q799.2188,155.9121 799.5844,155.2277 Q799.9594,154.534 800.6156,154.1684 Q801.2719,153.7934 802.0125,153.7934 Q802.4531,153.7934 802.8375,153.8965 Q803.2312,153.9902 803.5594,154.2059 Z " fill="#000000"/><text fill="#000000" font-family="sans-serif" font-size="8.4" lengthAdjust="spacing" textLength="60.6" x="810.3" y="160.159">JobOpeningAgg</text></g><!--link Application to ApplicationID--><g id="link_Application_ApplicationID"><path codeLine="26" d="M323.604,79.6769 C275.178,90.1589 177.756,112.4429 97.2,138.3809 C93.684,139.5149 93.4293,139.5452 89.8173,140.8652 " fill="none" id="Application-to-ApplicationID" style="stroke:#181818;stroke-width:0.6;"/><polygon fill="#181818" points="86.436,142.1009,92.3317,142.5015,89.2537,141.0711,90.6841,137.9931,86.436,142.1009" style="stroke:#181818;stroke-width:0.6;"/><text fill="#000000" font-family="sans-serif" font-size="7.8" lengthAdjust="spacing" textLength="4.2" x="314.6312" y="78.2053">1</text><text fill="#000000" font-family="sans-serif" font-size="7.8" lengthAdjust="spacing" textLength="4.2" x="91.0916" y="137.8251">1</text></g><!--link Application to ApplicationState--><g id="link_Application_ApplicationState"><path codeLine="27" d="M328.902,91.0409 C306.81,106.6769 278.0987,126.9955 258.2987,141.0055 " fill="none" id="Application-to-ApplicationState" style="stroke:#181818;stroke-width:0.6;"/><polygon fill="#181818" points="255.36,143.0849,261.1544,141.9249,257.8089,141.352,258.3819,138.0066,255.36,143.0849" style="stroke:#181818;stroke-width:0.6;"/><text fill="#000000" font-family="sans-serif" font-size="7.8" lengthAdjust="spacing" textLength="4.2" x="319.5174" y="103.9727">1</text><text fill="#000000" font-family="sans-serif" font-size="7.8" lengthAdjust="spacing" textLength="4.2" x="255.5299" y="136.3345">1</text></g><!--link ApplicationState to ApplicationStateName--><g id="link_ApplicationState_ApplicationStateName"><path codeLine="28" d="M257.862,170.3189 C276.276,181.8269 300.2354,196.8026 320.6414,209.5586 " fill="none" id="ApplicationState-to-ApplicationStateName" style="stroke:#181818;stroke-width:0.6;"/><polygon fill="#181818" points="323.694,211.4669,320.3872,206.5694,321.1501,209.8767,317.8429,210.6396,323.694,211.4669" style="stroke:#181818;stroke-width:0.6;"/><text fill="#000000" font-family="sans-serif" font-size="7.8" lengthAdjust="spacing" textLength="4.2" x="258.0007" y="183.1182">1</text><text fill="#000000" font-family="sans-serif" font-size="7.8" lengthAdjust="spacing" textLength="4.2" x="313.1815" y="204.8804">1</text></g><!--link ApplicationState to RejectionJustification--><g id="link_ApplicationState_RejectionJustification"><path codeLine="29" d="M235.914,170.3189 C234.828,183.3689 233.4654,199.7373 232.3794,212.7513 " fill="none" id="ApplicationState-to-RejectionJustification" style="stroke:#181818;stroke-width:0.6;"/><polygon fill="#181818" points="232.08,216.3389,234.9207,211.1571,232.3295,213.3493,230.1374,210.758,232.08,216.3389" style="stroke:#181818;stroke-width:0.6;"/><text fill="#000000" font-family="sans-serif" font-size="7.8" lengthAdjust="spacing" textLength="4.2" x="230.9772" y="183.1182">1</text><text fill="#000000" font-family="sans-serif" font-size="7.8" lengthAdjust="spacing" textLength="13.2" x="217.3965" y="209.603">0..1</text></g><!--link Application to Interview--><g id="link_Application_Interview"><path codeLine="30" d="M377.814,91.0409 C398.772,106.6769 425.9101,126.9227 444.6961,140.9327 " fill="none" id="Application-to-Interview" style="stroke:#181818;stroke-width:0.6;"/><polygon fill="#181818" points="447.582,143.0849,444.688,137.9327,445.1771,141.2914,441.8184,141.7805,447.582,143.0849" style="stroke:#181818;stroke-width:0.6;"/><text fill="#000000" font-family="sans-serif" font-size="7.8" lengthAdjust="spacing" textLength="4.2" x="377.7532" y="103.9727">1</text><text fill="#000000" font-family="sans-serif" font-size="7.8" lengthAdjust="spacing" textLength="13.2" x="427.9272" y="136.3345">0..1</text></g><!--link Application to File--><g id="link_Application_File"><path codeLine="31" d="M323.616,84.9509 C289.938,97.9169 234.036,119.4989 186,138.3809 C182.136,139.8989 181.439,140.1751 177.425,141.7651 " fill="none" id="Application-to-File" style="stroke:#181818;stroke-width:0.6;"/><polygon fill="#181818" points="174.078,143.0909,179.9823,143.3335,176.8672,141.986,178.2146,138.8709,174.078,143.0909" style="stroke:#181818;stroke-width:0.6;"/><text fill="#000000" font-family="sans-serif" font-size="7.8" lengthAdjust="spacing" textLength="4.2" x="314.6449" y="95.952">1</text><text fill="#000000" font-family="sans-serif" font-size="7.8" lengthAdjust="spacing" textLength="3" x="179.4033" y="136.3421">*</text></g><!--link Application to RequirementsEvaluation--><g id="link_Application_RequirementsEvaluation"><path codeLine="33" d="M354,91.0409 C354,106.6289 354,125.3369 354,139.3589 " fill="none" id="Application-to-RequirementsEvaluation" style="stroke:#181818;stroke-width:0.6;"/><polygon fill="#181818" points="354,142.9589,356.4,137.5589,354,139.9589,351.6,137.5589,354,142.9589" style="stroke:#181818;stroke-width:0.6;"/><text fill="#000000" font-family="sans-serif" font-size="7.8" lengthAdjust="spacing" textLength="4.2" x="349.3997" y="103.9727">1</text><text fill="#000000" font-family="sans-serif" font-size="7.8" lengthAdjust="spacing" textLength="4.2" x="349.2619" y="136.4072">1</text></g><!--link File to FilePath--><g id="link_File_FilePath"><path codeLine="35" d="M125.628,170.3189 C109.644,183.3689 87.9828,201.0483 72.0408,214.0623 " fill="none" id="File-to-FilePath" style="stroke:#181818;stroke-width:0.6;"/><polygon fill="#181818" points="69.252,216.3389,74.9529,214.7832,71.576,214.4417,71.9174,211.0648,69.252,216.3389" style="stroke:#181818;stroke-width:0.6;"/><text fill="#000000" font-family="sans-serif" font-size="7.8" lengthAdjust="spacing" textLength="4.2" x="117.2488" y="183.1182">1</text><text fill="#000000" font-family="sans-serif" font-size="7.8" lengthAdjust="spacing" textLength="4.2" x="68.7479" y="209.603">1</text></g><!--link File to FileType--><g id="link_File_FileType"><path codeLine="36" d="M140.298,170.3189 C138.99,183.3689 137.3564,199.7427 136.0544,212.7567 " fill="none" id="File-to-FileType" style="stroke:#181818;stroke-width:0.6;"/><polygon fill="#181818" points="135.696,216.3389,138.6216,211.2046,135.9946,213.3538,133.8455,210.7268,135.696,216.3389" style="stroke:#181818;stroke-width:0.6;"/><text fill="#000000" font-family="sans-serif" font-size="7.8" lengthAdjust="spacing" textLength="4.2" x="135.3113" y="183.1182">1</text><text fill="#000000" font-family="sans-serif" font-size="7.8" lengthAdjust="spacing" textLength="4.2" x="131.2799" y="209.603">1</text></g><!--link Interview to InterviewGrade--><g id="link_Interview_InterviewGrade"><path codeLine="38" d="M484.452,170.3189 C503.916,183.3689 530.6916,201.3205 550.1076,214.3345 " fill="none" id="Interview-to-InterviewGrade" style="stroke:#181818;stroke-width:0.6;"/><polygon fill="#181818" points="553.098,216.3389,549.9487,211.3387,550.606,214.6685,547.2762,215.3259,553.098,216.3389" style="stroke:#181818;stroke-width:0.6;"/><text fill="#000000" font-family="sans-serif" font-size="7.8" lengthAdjust="spacing" textLength="4.2" x="484.2646" y="183.1182">1</text><text fill="#000000" font-family="sans-serif" font-size="7.8" lengthAdjust="spacing" textLength="13.2" x="532.9368" y="209.603">0..1</text></g><!--link Interview to InterviewDateTime--><g id="link_Interview_InterviewDateTime"><path codeLine="39" d="M465.654,170.3189 C466.302,183.3689 467.125,199.7293 467.773,212.7433 " fill="none" id="Interview-to-InterviewDateTime" style="stroke:#181818;stroke-width:0.6;"/><polygon fill="#181818" points="467.952,216.3389,470.0805,210.8262,467.8028,213.3426,465.2864,211.0649,467.952,216.3389" style="stroke:#181818;stroke-width:0.6;"/><text fill="#000000" font-family="sans-serif" font-size="7.8" lengthAdjust="spacing" textLength="4.2" x="461.1196" y="183.1182">1</text><text fill="#000000" font-family="sans-serif" font-size="7.8" lengthAdjust="spacing" textLength="4.2" x="463.0135" y="209.603">1</text></g><!--link Application to JobOpening--><g id="link_Application_JobOpening"><path codeLine="41" d="M384.468,90.0689 C385.116,90.3809 385.758,90.6869 386.4,90.9809 C439.554,115.6109 454.956,116.7389 509.4,138.3809 C516.402,141.1649 520.6915,142.8943 527.5495,145.7083 " fill="none" id="Application-to-JobOpening" style="stroke:#181818;stroke-width:0.6;"/><polygon fill="#181818" points="530.88,147.0749,526.7953,142.8046,528.1046,145.936,524.9731,147.2453,530.88,147.0749" style="stroke:#181818;stroke-width:0.6;"/><text fill="#000000" font-family="sans-serif" font-size="7.8" lengthAdjust="spacing" textLength="31.2" x="460.8" y="117.9979">Refers to</text><text fill="#000000" font-family="sans-serif" font-size="7.8" lengthAdjust="spacing" textLength="12" x="389.1405" y="89.889">0..*</text><text fill="#000000" font-family="sans-serif" font-size="7.8" lengthAdjust="spacing" textLength="4.2" x="518.4919" y="140.2667">1</text></g><!--link Application to Candidate--><g id="link_Application_Candidate"><path codeLine="42" d="M384.396,90.2549 C385.062,90.5129 385.734,90.7529 386.4,90.9809 C433.674,107.1929 448.698,97.7609 497.4,108.9809 C541.632,119.1689 552.618,122.6729 595.2,138.3809 C602.142,140.9429 606.3064,142.638 612.8824,145.572 " fill="none" id="Application-to-Candidate" style="stroke:#181818;stroke-width:0.6;"/><polygon fill="#181818" points="616.17,147.0389,612.2165,142.6469,613.4303,145.8165,610.2607,147.0304,616.17,147.0389" style="stroke:#181818;stroke-width:0.6;"/><text fill="#000000" font-family="sans-serif" font-size="7.8" lengthAdjust="spacing" textLength="53.4" x="543" y="117.9979">Is submitted by</text><text fill="#000000" font-family="sans-serif" font-size="7.8" lengthAdjust="spacing" textLength="12" x="389.0592" y="101.6057">1..*</text><text fill="#000000" font-family="sans-serif" font-size="7.8" lengthAdjust="spacing" textLength="4.2" x="604.9044" y="140.4015">1</text></g><!--link ApplicationAgg to CandidateAgg--><g id="link_ApplicationAgg_CandidateAgg"><path codeLine="45" d="M684.12,80.5796 C684.1707,80.6549 684.2218,80.7306 684.2731,80.8069 C684.6842,81.4169 685.1161,82.0577 685.567,82.7269 C689.1748,88.0806 694.0076,95.2521 699.2422,103.0199 C709.7115,118.5554 719.7762,133.4905 726.8742,144.0235 " fill="none" id="ApplicationAgg-to-CandidateAgg" style="stroke:#181818;stroke-width:0.6;stroke-dasharray:7.0,7.0;"/><polygon fill="#181818" points="728.886,147.0089,727.8586,141.1896,727.2095,144.521,723.878,143.872,728.886,147.0089" style="stroke:#181818;stroke-width:0.6;"/><text fill="#000000" font-family="sans-serif" font-size="7.8" lengthAdjust="spacing" textLength="53.4" x="711.6" y="117.9979">Is submitted by</text></g><!--link ApplicationAgg to JobOpeningAgg--><g id="link_ApplicationAgg_JobOpeningAgg"><path codeLine="46" d="M684.0216,74.6576 C684.0871,74.6767 684.1531,74.6961 684.2198,74.7156 C684.4864,74.7938 684.7626,74.8751 685.0481,74.9594 C686.1903,75.2966 687.482,75.6827 688.9073,76.116 C694.6084,77.8489 702.447,80.3357 711.4035,83.4621 C729.3165,89.7149 751.701,98.5259 770.4,108.9809 C790.182,120.0449 807.9822,134.3673 819.8682,144.6213 " fill="none" id="ApplicationAgg-to-JobOpeningAgg" style="stroke:#181818;stroke-width:0.6;stroke-dasharray:7.0,7.0;"/><polygon fill="#181818" points="822.594,146.9729,820.073,141.6283,820.3225,145.0132,816.9375,145.2627,822.594,146.9729" style="stroke:#181818;stroke-width:0.6;"/><text fill="#000000" font-family="sans-serif" font-size="7.8" lengthAdjust="spacing" textLength="31.2" x="787.2" y="117.9979">Refers to</text></g><!--SRC=[ZPHHRu8m58NV-ojkt9k9P7irXCGCj-33N9pPUu4ht0c5qO8Xo_xx2ZX419MNDktvsdFkRGZ9HzWHHZuBgscCAanyoPWY5I7OISn9W9rHWNf0IO5WSayYvHcF8IA1gamH3hmeWR6KUtiU82pID2AFAqh48WZWWUlFTU67WVwyY4lPbPZc9acKPPdcKkXhIyiQrZcsQNxoA4TOkr_erOJZ7zKTv8KYVESgxAjxaXlRMvshSfJ7Ugkpjy5AhksiSgbersOOFSmH2hE2y61pXLkAXoyUZloXD7EhBhNeZSUjNLqMks_wEwSCOnHABWjz-z7qPRpMxJs9NZFkNyQfbHr_C7cQm6ncrUDPF-zLrWdxudhnAb7Lv0RrQ1XwEjpJSNSDrPPXN3YTr6_fUac6czCm5Nqc_d_SuxlLmstWrk2eyxg1OzgkyF_j3YJHHqvFn2fnroaA4W7CTR8TPX9KCf3_Z7hcmYU_wimS70aoTsDI2drmI_RBMEz_OXZMYQWMBg41ukIiGLfpVm00]--></g></svg>