<?xml version="1.0" encoding="us-ascii" standalone="no"?><svg xmlns="http://www.w3.org/2000/svg" xmlns:xlink="http://www.w3.org/1999/xlink" contentStyleType="text/css" height="638px" preserveAspectRatio="none" style="width:2508px;height:638px;background:#FFFFFF;" version="1.1" viewBox="0 0 2508 638" width="2508px" zoomAndPan="magnify"><defs/><g><text fill="#000000" font-family="sans-serif" font-size="14" font-weight="bold" lengthAdjust="spacing" textLength="165" x="1164.5" y="24.5332">CD - Register Customer</text><!--class Customer--><g id="elem_Customer"><rect codeLine="4" fill="#F1F1F1" height="118.4375" id="Customer" rx="2.5" ry="2.5" style="stroke:#181818;stroke-width:0.5;" width="630" x="7" y="290.6094"/><ellipse cx="287.25" cy="306.6094" fill="#ADD1B2" rx="11" ry="11" style="stroke:#181818;stroke-width:1.0;"/><path d="M290.0156,302.4844 Q290.1719,302.2656 290.3594,302.1563 Q290.5469,302.0469 290.7656,302.0469 Q291.1406,302.0469 291.375,302.3125 Q291.6094,302.5625 291.6094,303.1719 L291.6094,304.625 Q291.6094,305.2344 291.375,305.5 Q291.1406,305.7656 290.7656,305.7656 Q290.4219,305.7656 290.2188,305.5625 Q290.0156,305.375 289.9063,304.8594 Q289.8594,304.5 289.6719,304.3125 Q289.3438,303.9375 288.7344,303.7188 Q288.125,303.5 287.5,303.5 Q286.7344,303.5 286.0938,303.8281 Q285.4688,304.1563 284.9688,304.9063 Q284.4844,305.6563 284.4844,306.6875 L284.4844,307.7813 Q284.4844,309.0156 285.375,309.8438 Q286.2656,310.6563 287.8594,310.6563 Q288.7969,310.6563 289.4531,310.4063 Q289.8438,310.25 290.2656,309.8125 Q290.5313,309.5469 290.6719,309.4688 Q290.8281,309.3906 291.0313,309.3906 Q291.3594,309.3906 291.6094,309.6563 Q291.875,309.9063 291.875,310.25 Q291.875,310.5938 291.5313,311 Q291.0313,311.5781 290.2344,311.9063 Q289.1563,312.3594 287.8594,312.3594 Q286.3438,312.3594 285.1406,311.7344 Q284.1563,311.2344 283.4688,310.1719 Q282.7813,309.0938 282.7813,307.8125 L282.7813,306.6563 Q282.7813,305.3281 283.3906,304.1875 Q284.0156,303.0313 285.1094,302.4219 Q286.2031,301.7969 287.4375,301.7969 Q288.1719,301.7969 288.8125,301.9688 Q289.4688,302.125 290.0156,302.4844 Z " fill="#000000"/><text fill="#000000" font-family="sans-serif" font-size="14" lengthAdjust="spacing" textLength="61" x="307.75" y="312.3379">Customer</text><line style="stroke:#181818;stroke-width:0.5;" x1="8" x2="636" y1="322.6094" y2="322.6094"/><rect fill="none" height="6" style="stroke:#C82930;stroke-width:1.0;" width="6" x="15" y="333.9141"/><text fill="#000000" font-family="sans-serif" font-size="14" lengthAdjust="spacing" textLength="199" x="27" y="341.1426">customerCode : CustomerCode</text><rect fill="none" height="6" style="stroke:#C82930;stroke-width:1.0;" width="6" x="15" y="351.5234"/><text fill="#000000" font-family="sans-serif" font-size="14" lengthAdjust="spacing" textLength="115" x="27" y="358.752">address : Address</text><rect fill="none" height="6" style="stroke:#C82930;stroke-width:1.0;" width="6" x="15" y="369.1328"/><text fill="#000000" font-family="sans-serif" font-size="14" lengthAdjust="spacing" textLength="203" x="27" y="376.3613">customerName : CustomerName</text><line style="stroke:#181818;stroke-width:0.5;" x1="8" x2="636" y1="383.4375" y2="383.4375"/><ellipse cx="18" cy="397.7422" fill="#84BE84" rx="3" ry="3" style="stroke:#038048;stroke-width:1.0;"/><text fill="#000000" font-family="sans-serif" font-size="14" lengthAdjust="spacing" textLength="604" x="27" y="401.9707">Customer(customerCode : CustomerCode, address : Address, customerName : CustomerName)</text></g><!--class CustomerRepresentative--><g id="elem_CustomerRepresentative"><rect codeLine="14" fill="#F1F1F1" height="136.0469" id="CustomerRepresentative" rx="2.5" ry="2.5" style="stroke:#181818;stroke-width:0.5;" width="507" x="97.5" y="495.6094"/><ellipse cx="268.25" cy="511.6094" fill="#ADD1B2" rx="11" ry="11" style="stroke:#181818;stroke-width:1.0;"/><path d="M271.0156,507.4844 Q271.1719,507.2656 271.3594,507.1563 Q271.5469,507.0469 271.7656,507.0469 Q272.1406,507.0469 272.375,507.3125 Q272.6094,507.5625 272.6094,508.1719 L272.6094,509.625 Q272.6094,510.2344 272.375,510.5 Q272.1406,510.7656 271.7656,510.7656 Q271.4219,510.7656 271.2188,510.5625 Q271.0156,510.375 270.9063,509.8594 Q270.8594,509.5 270.6719,509.3125 Q270.3438,508.9375 269.7344,508.7188 Q269.125,508.5 268.5,508.5 Q267.7344,508.5 267.0938,508.8281 Q266.4688,509.1563 265.9688,509.9063 Q265.4844,510.6563 265.4844,511.6875 L265.4844,512.7813 Q265.4844,514.0156 266.375,514.8438 Q267.2656,515.6563 268.8594,515.6563 Q269.7969,515.6563 270.4531,515.4063 Q270.8438,515.25 271.2656,514.8125 Q271.5313,514.5469 271.6719,514.4688 Q271.8281,514.3906 272.0313,514.3906 Q272.3594,514.3906 272.6094,514.6563 Q272.875,514.9063 272.875,515.25 Q272.875,515.5938 272.5313,516 Q272.0313,516.5781 271.2344,516.9063 Q270.1563,517.3594 268.8594,517.3594 Q267.3438,517.3594 266.1406,516.7344 Q265.1563,516.2344 264.4688,515.1719 Q263.7813,514.0938 263.7813,512.8125 L263.7813,511.6563 Q263.7813,510.3281 264.3906,509.1875 Q265.0156,508.0313 266.1094,507.4219 Q267.2031,506.7969 268.4375,506.7969 Q269.1719,506.7969 269.8125,506.9688 Q270.4688,507.125 271.0156,507.4844 Z " fill="#000000"/><text fill="#000000" font-family="sans-serif" font-size="14" lengthAdjust="spacing" textLength="157" x="288.75" y="517.3379">CustomerRepresentative</text><line style="stroke:#181818;stroke-width:0.5;" x1="98.5" x2="603.5" y1="527.6094" y2="527.6094"/><rect fill="none" height="6" style="stroke:#C82930;stroke-width:1.0;" width="6" x="105.5" y="538.9141"/><text fill="#000000" font-family="sans-serif" font-size="14" lengthAdjust="spacing" textLength="191" x="117.5" y="546.1426">phoneNumber : PhoneNumber</text><rect fill="none" height="6" style="stroke:#C82930;stroke-width:1.0;" width="6" x="105.5" y="556.5234"/><text fill="#000000" font-family="sans-serif" font-size="14" lengthAdjust="spacing" textLength="201" x="117.5" y="563.752">customerManager : SystemUser</text><rect fill="none" height="6" style="stroke:#C82930;stroke-width:1.0;" width="6" x="105.5" y="574.1328"/><text fill="#000000" font-family="sans-serif" font-size="14" lengthAdjust="spacing" textLength="131" x="117.5" y="581.3613">customer : Customer</text><rect fill="none" height="6" style="stroke:#C82930;stroke-width:1.0;" width="6" x="105.5" y="591.7422"/><text fill="#000000" font-family="sans-serif" font-size="14" lengthAdjust="spacing" textLength="160" x="117.5" y="598.9707">systemUser : SystemUser</text><line style="stroke:#181818;stroke-width:0.5;" x1="98.5" x2="603.5" y1="606.0469" y2="606.0469"/><ellipse cx="108.5" cy="620.3516" fill="#84BE84" rx="3" ry="3" style="stroke:#038048;stroke-width:1.0;"/><text fill="#000000" font-family="sans-serif" font-size="14" lengthAdjust="spacing" textLength="481" x="117.5" y="624.5801">CustomerRepresentative(user : SystemUser, phoneNumber : PhoneNumber)</text></g><!--class RegisterCustomerController--><g id="elem_RegisterCustomerController"><rect codeLine="24" fill="#F1F1F1" height="65.6094" id="RegisterCustomerController" rx="2.5" ry="2.5" style="stroke:#181818;stroke-width:0.5;" width="841" x="1308.5" y="154.6094"/><ellipse cx="1636.75" cy="170.6094" fill="#ADD1B2" rx="11" ry="11" style="stroke:#181818;stroke-width:1.0;"/><path d="M1639.5156,166.4844 Q1639.6719,166.2656 1639.8594,166.1563 Q1640.0469,166.0469 1640.2656,166.0469 Q1640.6406,166.0469 1640.875,166.3125 Q1641.1094,166.5625 1641.1094,167.1719 L1641.1094,168.625 Q1641.1094,169.2344 1640.875,169.5 Q1640.6406,169.7656 1640.2656,169.7656 Q1639.9219,169.7656 1639.7188,169.5625 Q1639.5156,169.375 1639.4063,168.8594 Q1639.3594,168.5 1639.1719,168.3125 Q1638.8438,167.9375 1638.2344,167.7188 Q1637.625,167.5 1637,167.5 Q1636.2344,167.5 1635.5938,167.8281 Q1634.9688,168.1563 1634.4688,168.9063 Q1633.9844,169.6563 1633.9844,170.6875 L1633.9844,171.7813 Q1633.9844,173.0156 1634.875,173.8438 Q1635.7656,174.6563 1637.3594,174.6563 Q1638.2969,174.6563 1638.9531,174.4063 Q1639.3438,174.25 1639.7656,173.8125 Q1640.0313,173.5469 1640.1719,173.4688 Q1640.3281,173.3906 1640.5313,173.3906 Q1640.8594,173.3906 1641.1094,173.6563 Q1641.375,173.9063 1641.375,174.25 Q1641.375,174.5938 1641.0313,175 Q1640.5313,175.5781 1639.7344,175.9063 Q1638.6563,176.3594 1637.3594,176.3594 Q1635.8438,176.3594 1634.6406,175.7344 Q1633.6563,175.2344 1632.9688,174.1719 Q1632.2813,173.0938 1632.2813,171.8125 L1632.2813,170.6563 Q1632.2813,169.3281 1632.8906,168.1875 Q1633.5156,167.0313 1634.6094,166.4219 Q1635.7031,165.7969 1636.9375,165.7969 Q1637.6719,165.7969 1638.3125,165.9688 Q1638.9688,166.125 1639.5156,166.4844 Z " fill="#000000"/><text fill="#000000" font-family="sans-serif" font-size="14" lengthAdjust="spacing" textLength="176" x="1657.25" y="176.3379">RegisterCustomerController</text><line style="stroke:#181818;stroke-width:0.5;" x1="1309.5" x2="2148.5" y1="186.6094" y2="186.6094"/><line style="stroke:#181818;stroke-width:0.5;" x1="1309.5" x2="2148.5" y1="194.6094" y2="194.6094"/><ellipse cx="1319.5" cy="208.9141" fill="#84BE84" rx="3" ry="3" style="stroke:#038048;stroke-width:1.0;"/><text fill="#000000" font-family="sans-serif" font-size="14" lengthAdjust="spacing" textLength="815" x="1328.5" y="213.1426">registerCustomer(userData : UserData, customerData : CustomerData, phoneNumber : PhoneNumber) : CustomerRepresentative</text></g><!--class AddUserController--><g id="elem_AddUserController"><rect codeLine="28" fill="#F1F1F1" height="65.6094" id="AddUserController" rx="2.5" ry="2.5" style="stroke:#181818;stroke-width:0.5;" width="843" x="672.5" y="316.6094"/><ellipse cx="1031.75" cy="332.6094" fill="#ADD1B2" rx="11" ry="11" style="stroke:#181818;stroke-width:1.0;"/><path d="M1034.5156,328.4844 Q1034.6719,328.2656 1034.8594,328.1563 Q1035.0469,328.0469 1035.2656,328.0469 Q1035.6406,328.0469 1035.875,328.3125 Q1036.1094,328.5625 1036.1094,329.1719 L1036.1094,330.625 Q1036.1094,331.2344 1035.875,331.5 Q1035.6406,331.7656 1035.2656,331.7656 Q1034.9219,331.7656 1034.7188,331.5625 Q1034.5156,331.375 1034.4063,330.8594 Q1034.3594,330.5 1034.1719,330.3125 Q1033.8438,329.9375 1033.2344,329.7188 Q1032.625,329.5 1032,329.5 Q1031.2344,329.5 1030.5938,329.8281 Q1029.9688,330.1563 1029.4688,330.9063 Q1028.9844,331.6563 1028.9844,332.6875 L1028.9844,333.7813 Q1028.9844,335.0156 1029.875,335.8438 Q1030.7656,336.6563 1032.3594,336.6563 Q1033.2969,336.6563 1033.9531,336.4063 Q1034.3438,336.25 1034.7656,335.8125 Q1035.0313,335.5469 1035.1719,335.4688 Q1035.3281,335.3906 1035.5313,335.3906 Q1035.8594,335.3906 1036.1094,335.6563 Q1036.375,335.9063 1036.375,336.25 Q1036.375,336.5938 1036.0313,337 Q1035.5313,337.5781 1034.7344,337.9063 Q1033.6563,338.3594 1032.3594,338.3594 Q1030.8438,338.3594 1029.6406,337.7344 Q1028.6563,337.2344 1027.9688,336.1719 Q1027.2813,335.0938 1027.2813,333.8125 L1027.2813,332.6563 Q1027.2813,331.3281 1027.8906,330.1875 Q1028.5156,329.0313 1029.6094,328.4219 Q1030.7031,327.7969 1031.9375,327.7969 Q1032.6719,327.7969 1033.3125,327.9688 Q1033.9688,328.125 1034.5156,328.4844 Z " fill="#000000"/><text fill="#000000" font-family="sans-serif" font-size="14" lengthAdjust="spacing" textLength="116" x="1052.25" y="338.3379">AddUserController</text><line style="stroke:#181818;stroke-width:0.5;" x1="673.5" x2="1514.5" y1="348.6094" y2="348.6094"/><line style="stroke:#181818;stroke-width:0.5;" x1="673.5" x2="1514.5" y1="356.6094" y2="356.6094"/><ellipse cx="683.5" cy="370.9141" fill="#84BE84" rx="3" ry="3" style="stroke:#038048;stroke-width:1.0;"/><text fill="#000000" font-family="sans-serif" font-size="14" lengthAdjust="spacing" textLength="817" x="692.5" y="375.1426">addUser(username : String, password : String, firstName : String, lastName : String, email : String, roles : Set&lt;Role&gt;) : SystemUser</text></g><!--class CustomerBuilder--><g id="elem_CustomerBuilder"><rect codeLine="32" fill="#F1F1F1" height="136.0469" id="CustomerBuilder" rx="2.5" ry="2.5" style="stroke:#181818;stroke-width:0.5;" width="357" x="1550.5" y="281.6094"/><ellipse cx="1672.25" cy="297.6094" fill="#ADD1B2" rx="11" ry="11" style="stroke:#181818;stroke-width:1.0;"/><path d="M1675.0156,293.4844 Q1675.1719,293.2656 1675.3594,293.1563 Q1675.5469,293.0469 1675.7656,293.0469 Q1676.1406,293.0469 1676.375,293.3125 Q1676.6094,293.5625 1676.6094,294.1719 L1676.6094,295.625 Q1676.6094,296.2344 1676.375,296.5 Q1676.1406,296.7656 1675.7656,296.7656 Q1675.4219,296.7656 1675.2188,296.5625 Q1675.0156,296.375 1674.9063,295.8594 Q1674.8594,295.5 1674.6719,295.3125 Q1674.3438,294.9375 1673.7344,294.7188 Q1673.125,294.5 1672.5,294.5 Q1671.7344,294.5 1671.0938,294.8281 Q1670.4688,295.1563 1669.9688,295.9063 Q1669.4844,296.6563 1669.4844,297.6875 L1669.4844,298.7813 Q1669.4844,300.0156 1670.375,300.8438 Q1671.2656,301.6563 1672.8594,301.6563 Q1673.7969,301.6563 1674.4531,301.4063 Q1674.8438,301.25 1675.2656,300.8125 Q1675.5313,300.5469 1675.6719,300.4688 Q1675.8281,300.3906 1676.0313,300.3906 Q1676.3594,300.3906 1676.6094,300.6563 Q1676.875,300.9063 1676.875,301.25 Q1676.875,301.5938 1676.5313,302 Q1676.0313,302.5781 1675.2344,302.9063 Q1674.1563,303.3594 1672.8594,303.3594 Q1671.3438,303.3594 1670.1406,302.7344 Q1669.1563,302.2344 1668.4688,301.1719 Q1667.7813,300.0938 1667.7813,298.8125 L1667.7813,297.6563 Q1667.7813,296.3281 1668.3906,295.1875 Q1669.0156,294.0313 1670.1094,293.4219 Q1671.2031,292.7969 1672.4375,292.7969 Q1673.1719,292.7969 1673.8125,292.9688 Q1674.4688,293.125 1675.0156,293.4844 Z " fill="#000000"/><text fill="#000000" font-family="sans-serif" font-size="14" lengthAdjust="spacing" textLength="105" x="1692.75" y="303.3379">CustomerBuilder</text><line style="stroke:#181818;stroke-width:0.5;" x1="1551.5" x2="1906.5" y1="313.6094" y2="313.6094"/><line style="stroke:#181818;stroke-width:0.5;" x1="1551.5" x2="1906.5" y1="321.6094" y2="321.6094"/><ellipse cx="1561.5" cy="335.9141" fill="#84BE84" rx="3" ry="3" style="stroke:#038048;stroke-width:1.0;"/><text fill="#000000" font-family="sans-serif" font-size="14" lengthAdjust="spacing" textLength="301" x="1570.5" y="340.1426">withSystemUser(SystemUser) : CustomerBuilder</text><ellipse cx="1561.5" cy="353.5234" fill="#84BE84" rx="3" ry="3" style="stroke:#038048;stroke-width:1.0;"/><text fill="#000000" font-family="sans-serif" font-size="14" lengthAdjust="spacing" textLength="272" x="1570.5" y="357.752">withCompany(Customer) : CustomerBuilder</text><ellipse cx="1561.5" cy="371.1328" fill="#84BE84" rx="3" ry="3" style="stroke:#038048;stroke-width:1.0;"/><text fill="#000000" font-family="sans-serif" font-size="14" lengthAdjust="spacing" textLength="331" x="1570.5" y="375.3613">withPhoneNumber(PhoneNumber) : CustomerBuilder</text><ellipse cx="1561.5" cy="388.7422" fill="#84BE84" rx="3" ry="3" style="stroke:#038048;stroke-width:1.0;"/><text fill="#000000" font-family="sans-serif" font-size="14" lengthAdjust="spacing" textLength="330" x="1570.5" y="392.9707">withCustomManager(SystemUser) : CustomerBuilder</text><ellipse cx="1561.5" cy="406.3516" fill="#84BE84" rx="3" ry="3" style="stroke:#038048;stroke-width:1.0;"/><text fill="#000000" font-family="sans-serif" font-size="14" lengthAdjust="spacing" textLength="209" x="1570.5" y="410.5801">build() : CustomerRepresentative</text></g><!--class CustomerRepresentativeRepository--><g id="elem_CustomerRepresentativeRepository"><rect codeLine="40" fill="#F1F1F1" height="65.6094" id="CustomerRepresentativeRepository" rx="2.5" ry="2.5" style="stroke:#181818;stroke-width:0.5;" width="558" x="1943" y="316.6094"/><ellipse cx="2105.25" cy="332.6094" fill="#ADD1B2" rx="11" ry="11" style="stroke:#181818;stroke-width:1.0;"/><path d="M2108.0156,328.4844 Q2108.1719,328.2656 2108.3594,328.1563 Q2108.5469,328.0469 2108.7656,328.0469 Q2109.1406,328.0469 2109.375,328.3125 Q2109.6094,328.5625 2109.6094,329.1719 L2109.6094,330.625 Q2109.6094,331.2344 2109.375,331.5 Q2109.1406,331.7656 2108.7656,331.7656 Q2108.4219,331.7656 2108.2188,331.5625 Q2108.0156,331.375 2107.9063,330.8594 Q2107.8594,330.5 2107.6719,330.3125 Q2107.3438,329.9375 2106.7344,329.7188 Q2106.125,329.5 2105.5,329.5 Q2104.7344,329.5 2104.0938,329.8281 Q2103.4688,330.1563 2102.9688,330.9063 Q2102.4844,331.6563 2102.4844,332.6875 L2102.4844,333.7813 Q2102.4844,335.0156 2103.375,335.8438 Q2104.2656,336.6563 2105.8594,336.6563 Q2106.7969,336.6563 2107.4531,336.4063 Q2107.8438,336.25 2108.2656,335.8125 Q2108.5313,335.5469 2108.6719,335.4688 Q2108.8281,335.3906 2109.0313,335.3906 Q2109.3594,335.3906 2109.6094,335.6563 Q2109.875,335.9063 2109.875,336.25 Q2109.875,336.5938 2109.5313,337 Q2109.0313,337.5781 2108.2344,337.9063 Q2107.1563,338.3594 2105.8594,338.3594 Q2104.3438,338.3594 2103.1406,337.7344 Q2102.1563,337.2344 2101.4688,336.1719 Q2100.7813,335.0938 2100.7813,333.8125 L2100.7813,332.6563 Q2100.7813,331.3281 2101.3906,330.1875 Q2102.0156,329.0313 2103.1094,328.4219 Q2104.2031,327.7969 2105.4375,327.7969 Q2106.1719,327.7969 2106.8125,327.9688 Q2107.4688,328.125 2108.0156,328.4844 Z " fill="#000000"/><text fill="#000000" font-family="sans-serif" font-size="14" lengthAdjust="spacing" textLength="225" x="2125.75" y="338.3379">CustomerRepresentativeRepository</text><line style="stroke:#181818;stroke-width:0.5;" x1="1944" x2="2500" y1="348.6094" y2="348.6094"/><line style="stroke:#181818;stroke-width:0.5;" x1="1944" x2="2500" y1="356.6094" y2="356.6094"/><ellipse cx="1954" cy="370.9141" fill="#84BE84" rx="3" ry="3" style="stroke:#038048;stroke-width:1.0;"/><text fill="#000000" font-family="sans-serif" font-size="14" lengthAdjust="spacing" textLength="532" x="1963" y="375.1426">save(customerRepresentative : CustomerRepresentative) : CustomerRepresentative</text></g><!--class RegisterCostumerUI--><g id="elem_RegisterCostumerUI"><rect fill="#F1F1F1" height="48" id="RegisterCostumerUI" rx="2.5" ry="2.5" style="stroke:#181818;stroke-width:0.5;" width="158" x="1650" y="45.6094"/><ellipse cx="1665" cy="61.6094" fill="#ADD1B2" rx="11" ry="11" style="stroke:#181818;stroke-width:1.0;"/><path d="M1667.7656,57.4844 Q1667.9219,57.2656 1668.1094,57.1563 Q1668.2969,57.0469 1668.5156,57.0469 Q1668.8906,57.0469 1669.125,57.3125 Q1669.3594,57.5625 1669.3594,58.1719 L1669.3594,59.625 Q1669.3594,60.2344 1669.125,60.5 Q1668.8906,60.7656 1668.5156,60.7656 Q1668.1719,60.7656 1667.9688,60.5625 Q1667.7656,60.375 1667.6563,59.8594 Q1667.6094,59.5 1667.4219,59.3125 Q1667.0938,58.9375 1666.4844,58.7188 Q1665.875,58.5 1665.25,58.5 Q1664.4844,58.5 1663.8438,58.8281 Q1663.2188,59.1563 1662.7188,59.9063 Q1662.2344,60.6563 1662.2344,61.6875 L1662.2344,62.7813 Q1662.2344,64.0156 1663.125,64.8438 Q1664.0156,65.6563 1665.6094,65.6563 Q1666.5469,65.6563 1667.2031,65.4063 Q1667.5938,65.25 1668.0156,64.8125 Q1668.2813,64.5469 1668.4219,64.4688 Q1668.5781,64.3906 1668.7813,64.3906 Q1669.1094,64.3906 1669.3594,64.6563 Q1669.625,64.9063 1669.625,65.25 Q1669.625,65.5938 1669.2813,66 Q1668.7813,66.5781 1667.9844,66.9063 Q1666.9063,67.3594 1665.6094,67.3594 Q1664.0938,67.3594 1662.8906,66.7344 Q1661.9063,66.2344 1661.2188,65.1719 Q1660.5313,64.0938 1660.5313,62.8125 L1660.5313,61.6563 Q1660.5313,60.3281 1661.1406,59.1875 Q1661.7656,58.0313 1662.8594,57.4219 Q1663.9531,56.7969 1665.1875,56.7969 Q1665.9219,56.7969 1666.5625,56.9688 Q1667.2188,57.125 1667.7656,57.4844 Z " fill="#000000"/><text fill="#000000" font-family="sans-serif" font-size="14" lengthAdjust="spacing" textLength="126" x="1679" y="67.3379">RegisterCostumerUI</text><line style="stroke:#181818;stroke-width:0.5;" x1="1651" x2="1807" y1="77.6094" y2="77.6094"/><line style="stroke:#181818;stroke-width:0.5;" x1="1651" x2="1807" y1="85.6094" y2="85.6094"/></g><!--link RegisterCostumerUI to RegisterCustomerController--><g id="link_RegisterCostumerUI_RegisterCustomerController"><path codeLine="44" d="M1729,93.8094 C1729,111.1294 1729,129.0194 1729,148.2294 " fill="none" id="RegisterCostumerUI-to-RegisterCustomerController" style="stroke:#181818;stroke-width:1.0;"/><polygon fill="#181818" points="1729,154.2294,1733,145.2294,1729,149.2294,1725,145.2294,1729,154.2294" style="stroke:#181818;stroke-width:1.0;"/></g><!--link RegisterCustomerController to AddUserController--><g id="link_RegisterCustomerController_AddUserController"><path codeLine="45" d="M1601.64,220.6994 C1491.04,248.5694 1337.5082,287.2536 1226.9582,315.1036 " fill="none" id="RegisterCustomerController-to-AddUserController" style="stroke:#181818;stroke-width:1.0;"/><polygon fill="#181818" points="1221.14,316.5694,1230.8445,318.2496,1225.9885,315.3479,1228.8902,310.492,1221.14,316.5694" style="stroke:#181818;stroke-width:1.0;"/></g><!--link RegisterCustomerController to CustomerBuilder--><g id="link_RegisterCustomerController_CustomerBuilder"><path codeLine="46" d="M1729,220.9894 C1729,238.4294 1729,254.6194 1729,275.5794 " fill="none" id="RegisterCustomerController-to-CustomerBuilder" style="stroke:#181818;stroke-width:1.0;"/><polygon fill="#181818" points="1729,281.5794,1733,272.5794,1729,276.5794,1725,272.5794,1729,281.5794" style="stroke:#181818;stroke-width:1.0;"/></g><!--link CustomerBuilder to CustomerRepresentative--><g id="link_CustomerBuilder_CustomerRepresentative"><path codeLine="47" d="M1550.25,413.3894 C1544.46,414.8894 1538.7,416.2994 1533,417.6094 C1217.52,490.0594 851.8122,527.657 610.6522,546.297 " fill="none" id="CustomerBuilder-to-CustomerRepresentative" style="stroke:#181818;stroke-width:1.0;stroke-dasharray:7.0,7.0;"/><polygon fill="#181818" points="604.67,546.7594,613.9515,550.0539,609.6551,546.3741,613.335,542.0777,604.67,546.7594" style="stroke:#181818;stroke-width:1.0;"/><text fill="#000000" font-family="sans-serif" font-size="13" lengthAdjust="spacing" textLength="50" x="1376" y="462.1045">&#171;create&#187;</text></g><!--link RegisterCustomerController to CustomerRepresentativeRepository--><g id="link_RegisterCustomerController_CustomerRepresentativeRepository"><path codeLine="48" d="M1827.88,220.6994 C1913.75,248.5694 2031.7529,286.8676 2117.5829,314.7176 " fill="none" id="RegisterCustomerController-to-CustomerRepresentativeRepository" style="stroke:#181818;stroke-width:1.0;"/><polygon fill="#181818" points="2123.29,316.5694,2115.9639,309.9869,2118.5341,315.0262,2113.4948,317.5964,2123.29,316.5694" style="stroke:#181818;stroke-width:1.0;"/></g><!--link Customer to CustomerRepresentative--><g id="link_Customer_CustomerRepresentative"><path codeLine="49" d="M329.96,408.8194 C333.63,435.6694 337.1967,461.7347 341.0067,489.5847 " fill="none" id="Customer-to-CustomerRepresentative" style="stroke:#181818;stroke-width:1.0;"/><polygon fill="#181818" points="341.82,495.5294,344.5632,486.0703,341.1423,490.5755,336.637,487.1546,341.82,495.5294" style="stroke:#181818;stroke-width:1.0;"/></g><!--SRC=[ZLJBReCm4BpxAtmaIiW7e0Yf9PSU6bM9yW4ER1DBW96zD8gg_7lD8yOuu8QJrpl3p3u0EUP0aoqDwHxEN258cjGAHG6Ia3HdIfcO_XAgdv2c_KKYCg2HoJTXZs1P9a5J8_hMdHpcZXKsimb92rcQky2ZideMMFdUlI1tGjnozb1f8fJ8aF-0AQwwY19sTN7I1KVqQuYS4ZvPoSujvd3JRIkEwWbYkUWpoa37FAVsiRMWTl6hUPTTgLsbZuaEhIjHYZmternIwK1QhIr3fjzwx8z3Q_j4OeK-AnPqN57ZiREefzV8J3XZNQOrL7OZFQ3avLahQkPLoCow-kPIuMuCqmBk5HICvrQiDQ5PeWFWPg_FyM8ybxkxDEyrppFBvPNZPS07mz4klYTPb4GK5IjlmGFXHriz3MRwEo7HPlejVSdOgOc2LwOsdTUHK1o5l9dsAARNDvt-uEPa_0RCJWk5jKOSFsWOnfvL9vwle64-RU1_1BTvxcgir_7SFoQYcqqgWI74yQioSpqskXuq8Ny0]--></g></svg>