<?xml version="1.0" encoding="us-ascii" standalone="no"?><svg xmlns="http://www.w3.org/2000/svg" xmlns:xlink="http://www.w3.org/1999/xlink" contentStyleType="text/css" height="773px" preserveAspectRatio="none" style="width:1704px;height:773px;background:#FFFFFF;" version="1.1" viewBox="0 0 1704 773" width="1704px" zoomAndPan="magnify"><defs/><g><text fill="#000000" font-family="sans-serif" font-size="14" font-weight="bold" lengthAdjust="spacing" textLength="219" x="741.5" y="29.5332">Customer Registration Process</text><rect fill="#FFFFFF" height="520.2734" style="stroke:#181818;stroke-width:1.0;" width="10" x="132.5" y="153.5703"/><rect fill="#FFFFFF" height="416.2188" style="stroke:#181818;stroke-width:1.0;" width="10" x="497.5" y="227.2734"/><rect fill="#FFFFFF" height="73.7031" style="stroke:#181818;stroke-width:1.0;" width="10" x="903.5" y="257.625"/><rect fill="#FFFFFF" height="190.7578" style="stroke:#181818;stroke-width:1.0;" width="10" x="1095.5" y="361.6797"/><rect fill="#FFFFFF" height="30.3516" style="stroke:#181818;stroke-width:1.0;" width="10" x="1352.5" y="582.7891"/><line style="stroke:#181818;stroke-width:0.5;stroke-dasharray:5.0,5.0;" x1="22" x2="22" y1="121.2188" y2="691.8438"/><line style="stroke:#181818;stroke-width:0.5;stroke-dasharray:5.0,5.0;" x1="137.5" x2="137.5" y1="121.2188" y2="691.8438"/><line style="stroke:#181818;stroke-width:0.5;stroke-dasharray:5.0,5.0;" x1="502.5" x2="502.5" y1="121.2188" y2="691.8438"/><line style="stroke:#181818;stroke-width:0.5;stroke-dasharray:5.0,5.0;" x1="908" x2="908" y1="121.2188" y2="691.8438"/><line style="stroke:#181818;stroke-width:0.5;stroke-dasharray:5.0,5.0;" x1="1100" x2="1100" y1="121.2188" y2="691.8438"/><line style="stroke:#181818;stroke-width:0.5;stroke-dasharray:5.0,5.0;" x1="1357" x2="1357" y1="121.2188" y2="691.8438"/><line style="stroke:#181818;stroke-width:0.5;stroke-dasharray:5.0,5.0;" x1="1612" x2="1612" y1="121.2188" y2="691.8438"/><text fill="#000000" font-family="sans-serif" font-size="14" lengthAdjust="spacing" textLength="29" x="5" y="118.1426">User</text><ellipse cx="22.5" cy="52.1094" fill="#E2E2F0" rx="8" ry="8" style="stroke:#181818;stroke-width:0.5;"/><path d="M22.5,60.1094 L22.5,87.1094 M9.5,68.1094 L35.5,68.1094 M22.5,87.1094 L9.5,102.1094 M22.5,87.1094 L35.5,102.1094 " fill="none" style="stroke:#181818;stroke-width:0.5;"/><text fill="#000000" font-family="sans-serif" font-size="14" lengthAdjust="spacing" textLength="29" x="5" y="705.377">User</text><ellipse cx="22.5" cy="716.9531" fill="#E2E2F0" rx="8" ry="8" style="stroke:#181818;stroke-width:0.5;"/><path d="M22.5,724.9531 L22.5,751.9531 M9.5,732.9531 L35.5,732.9531 M22.5,751.9531 L9.5,766.9531 M22.5,751.9531 L35.5,766.9531 " fill="none" style="stroke:#181818;stroke-width:0.5;"/><rect fill="#E2E2F0" height="31.6094" rx="2.5" ry="2.5" style="stroke:#181818;stroke-width:0.5;" width="164" x="55.5" y="88.6094"/><text fill="#000000" font-family="sans-serif" font-size="14" lengthAdjust="spacing" textLength="150" x="62.5" y="110.1426">UI : RegisterCustomerUI</text><rect fill="#E2E2F0" height="31.6094" rx="2.5" ry="2.5" style="stroke:#181818;stroke-width:0.5;" width="164" x="55.5" y="690.8438"/><text fill="#000000" font-family="sans-serif" font-size="14" lengthAdjust="spacing" textLength="150" x="62.5" y="712.377">UI : RegisterCustomerUI</text><rect fill="#E2E2F0" height="31.6094" rx="2.5" ry="2.5" style="stroke:#181818;stroke-width:0.5;" width="264" x="370.5" y="88.6094"/><text fill="#000000" font-family="sans-serif" font-size="14" lengthAdjust="spacing" textLength="250" x="377.5" y="110.1426">Controller : RegisterCustomerController</text><rect fill="#E2E2F0" height="31.6094" rx="2.5" ry="2.5" style="stroke:#181818;stroke-width:0.5;" width="264" x="370.5" y="690.8438"/><text fill="#000000" font-family="sans-serif" font-size="14" lengthAdjust="spacing" textLength="250" x="377.5" y="712.377">Controller : RegisterCustomerController</text><rect fill="#E2E2F0" height="31.6094" rx="2.5" ry="2.5" style="stroke:#181818;stroke-width:0.5;" width="189" x="814" y="88.6094"/><text fill="#000000" font-family="sans-serif" font-size="14" lengthAdjust="spacing" textLength="175" x="821" y="110.1426">Service : AddUserController</text><rect fill="#E2E2F0" height="31.6094" rx="2.5" ry="2.5" style="stroke:#181818;stroke-width:0.5;" width="189" x="814" y="690.8438"/><text fill="#000000" font-family="sans-serif" font-size="14" lengthAdjust="spacing" textLength="175" x="821" y="712.377">Service : AddUserController</text><rect fill="#E2E2F0" height="31.6094" rx="2.5" ry="2.5" style="stroke:#181818;stroke-width:0.5;" width="175" x="1013" y="88.6094"/><text fill="#000000" font-family="sans-serif" font-size="14" lengthAdjust="spacing" textLength="161" x="1020" y="110.1426">Builder : CustomerBuilder</text><rect fill="#E2E2F0" height="31.6094" rx="2.5" ry="2.5" style="stroke:#181818;stroke-width:0.5;" width="175" x="1013" y="690.8438"/><text fill="#000000" font-family="sans-serif" font-size="14" lengthAdjust="spacing" textLength="161" x="1020" y="712.377">Builder : CustomerBuilder</text><rect fill="#E2E2F0" height="31.6094" rx="2.5" ry="2.5" style="stroke:#181818;stroke-width:0.5;" width="319" x="1198" y="88.6094"/><text fill="#000000" font-family="sans-serif" font-size="14" lengthAdjust="spacing" textLength="305" x="1205" y="110.1426">Repository : CustomerRepresentativeRepository</text><rect fill="#E2E2F0" height="31.6094" rx="2.5" ry="2.5" style="stroke:#181818;stroke-width:0.5;" width="319" x="1198" y="690.8438"/><text fill="#000000" font-family="sans-serif" font-size="14" lengthAdjust="spacing" textLength="305" x="1205" y="712.377">Repository : CustomerRepresentativeRepository</text><rect fill="#E2E2F0" height="31.6094" rx="2.5" ry="2.5" style="stroke:#181818;stroke-width:0.5;" width="171" x="1527" y="88.6094"/><text fill="#000000" font-family="sans-serif" font-size="14" lengthAdjust="spacing" textLength="157" x="1534" y="110.1426">CustomerRepresentative</text><rect fill="#E2E2F0" height="31.6094" rx="2.5" ry="2.5" style="stroke:#181818;stroke-width:0.5;" width="171" x="1527" y="690.8438"/><text fill="#000000" font-family="sans-serif" font-size="14" lengthAdjust="spacing" textLength="157" x="1534" y="712.377">CustomerRepresentative</text><rect fill="#FFFFFF" height="520.2734" style="stroke:#181818;stroke-width:1.0;" width="10" x="132.5" y="153.5703"/><rect fill="#FFFFFF" height="416.2188" style="stroke:#181818;stroke-width:1.0;" width="10" x="497.5" y="227.2734"/><rect fill="#FFFFFF" height="73.7031" style="stroke:#181818;stroke-width:1.0;" width="10" x="903.5" y="257.625"/><rect fill="#FFFFFF" height="190.7578" style="stroke:#181818;stroke-width:1.0;" width="10" x="1095.5" y="361.6797"/><rect fill="#FFFFFF" height="30.3516" style="stroke:#181818;stroke-width:1.0;" width="10" x="1352.5" y="582.7891"/><polygon fill="#181818" points="120.5,149.5703,130.5,153.5703,120.5,157.5703,124.5,153.5703" style="stroke:#181818;stroke-width:1.0;"/><line style="stroke:#181818;stroke-width:1.0;" x1="22.5" x2="126.5" y1="153.5703" y2="153.5703"/><text fill="#000000" font-family="sans-serif" font-size="13" lengthAdjust="spacing" textLength="38" x="29.5" y="148.7139">show()</text><line style="stroke:#181818;stroke-width:1.0;" x1="142.5" x2="184.5" y1="183.9219" y2="183.9219"/><line style="stroke:#181818;stroke-width:1.0;" x1="184.5" x2="184.5" y1="183.9219" y2="196.9219"/><line style="stroke:#181818;stroke-width:1.0;" x1="143.5" x2="184.5" y1="196.9219" y2="196.9219"/><polygon fill="#181818" points="153.5,192.9219,143.5,196.9219,153.5,200.9219,149.5,196.9219" style="stroke:#181818;stroke-width:1.0;"/><text fill="#000000" font-family="sans-serif" font-size="13" lengthAdjust="spacing" textLength="81" x="149.5" y="179.0654">getUserInput()</text><polygon fill="#181818" points="485.5,223.2734,495.5,227.2734,485.5,231.2734,489.5,227.2734" style="stroke:#181818;stroke-width:1.0;"/><line style="stroke:#181818;stroke-width:1.0;" x1="142.5" x2="491.5" y1="227.2734" y2="227.2734"/><text fill="#000000" font-family="sans-serif" font-size="13" lengthAdjust="spacing" textLength="336" x="149.5" y="222.417">registerCustomer(userData, customerData, phoneNumber)</text><polygon fill="#181818" points="891.5,253.625,901.5,257.625,891.5,261.625,895.5,257.625" style="stroke:#181818;stroke-width:1.0;"/><line style="stroke:#181818;stroke-width:1.0;" x1="507.5" x2="897.5" y1="257.625" y2="257.625"/><text fill="#000000" font-family="sans-serif" font-size="13" lengthAdjust="spacing" textLength="377" x="514.5" y="252.7686">addUser(username, password, firstName, lastName, email, roles)</text><line style="stroke:#181818;stroke-width:1.0;" x1="913.5" x2="955.5" y1="287.9766" y2="287.9766"/><line style="stroke:#181818;stroke-width:1.0;" x1="955.5" x2="955.5" y1="287.9766" y2="300.9766"/><line style="stroke:#181818;stroke-width:1.0;" x1="914.5" x2="955.5" y1="300.9766" y2="300.9766"/><polygon fill="#181818" points="924.5,296.9766,914.5,300.9766,924.5,304.9766,920.5,300.9766" style="stroke:#181818;stroke-width:1.0;"/><text fill="#000000" font-family="sans-serif" font-size="13" lengthAdjust="spacing" textLength="103" x="920.5" y="283.1201">registerNewUser()</text><polygon fill="#181818" points="518.5,327.3281,508.5,331.3281,518.5,335.3281,514.5,331.3281" style="stroke:#181818;stroke-width:1.0;"/><line style="stroke:#181818;stroke-width:1.0;stroke-dasharray:2.0,2.0;" x1="512.5" x2="907.5" y1="331.3281" y2="331.3281"/><text fill="#000000" font-family="sans-serif" font-size="13" lengthAdjust="spacing" textLength="72" x="524.5" y="326.4717">SystemUser</text><polygon fill="#181818" points="1083.5,357.6797,1093.5,361.6797,1083.5,365.6797,1087.5,361.6797" style="stroke:#181818;stroke-width:1.0;"/><line style="stroke:#181818;stroke-width:1.0;" x1="507.5" x2="1089.5" y1="361.6797" y2="361.6797"/><text fill="#000000" font-family="sans-serif" font-size="13" lengthAdjust="spacing" textLength="175" x="514.5" y="356.8232">withSystemUser(SystemUser)</text><line style="stroke:#181818;stroke-width:1.0;" x1="1105.5" x2="1147.5" y1="392.0313" y2="392.0313"/><line style="stroke:#181818;stroke-width:1.0;" x1="1147.5" x2="1147.5" y1="392.0313" y2="405.0313"/><line style="stroke:#181818;stroke-width:1.0;" x1="1106.5" x2="1147.5" y1="405.0313" y2="405.0313"/><polygon fill="#181818" points="1116.5,401.0313,1106.5,405.0313,1116.5,409.0313,1112.5,405.0313" style="stroke:#181818;stroke-width:1.0;"/><text fill="#000000" font-family="sans-serif" font-size="13" lengthAdjust="spacing" textLength="142" x="1112.5" y="387.1748">withCompany(Customer)</text><line style="stroke:#181818;stroke-width:1.0;" x1="1105.5" x2="1147.5" y1="435.3828" y2="435.3828"/><line style="stroke:#181818;stroke-width:1.0;" x1="1147.5" x2="1147.5" y1="435.3828" y2="448.3828"/><line style="stroke:#181818;stroke-width:1.0;" x1="1106.5" x2="1147.5" y1="448.3828" y2="448.3828"/><polygon fill="#181818" points="1116.5,444.3828,1106.5,448.3828,1116.5,452.3828,1112.5,448.3828" style="stroke:#181818;stroke-width:1.0;"/><text fill="#000000" font-family="sans-serif" font-size="13" lengthAdjust="spacing" textLength="195" x="1112.5" y="430.5264">withPhoneNumber(PhoneNumber)</text><line style="stroke:#181818;stroke-width:1.0;" x1="1105.5" x2="1147.5" y1="478.7344" y2="478.7344"/><line style="stroke:#181818;stroke-width:1.0;" x1="1147.5" x2="1147.5" y1="478.7344" y2="491.7344"/><line style="stroke:#181818;stroke-width:1.0;" x1="1106.5" x2="1147.5" y1="491.7344" y2="491.7344"/><polygon fill="#181818" points="1116.5,487.7344,1106.5,491.7344,1116.5,495.7344,1112.5,491.7344" style="stroke:#181818;stroke-width:1.0;"/><text fill="#000000" font-family="sans-serif" font-size="13" lengthAdjust="spacing" textLength="198" x="1112.5" y="473.8779">withCustomManager(SystemUser)</text><polygon fill="#181818" points="1600.5,518.0859,1610.5,522.0859,1600.5,526.0859,1604.5,522.0859" style="stroke:#181818;stroke-width:1.0;"/><line style="stroke:#181818;stroke-width:1.0;" x1="1105.5" x2="1606.5" y1="522.0859" y2="522.0859"/><text fill="#000000" font-family="sans-serif" font-size="13" lengthAdjust="spacing" textLength="35" x="1112.5" y="517.2295">build()</text><polygon fill="#181818" points="518.5,548.4375,508.5,552.4375,518.5,556.4375,514.5,552.4375" style="stroke:#181818;stroke-width:1.0;"/><line style="stroke:#181818;stroke-width:1.0;stroke-dasharray:2.0,2.0;" x1="512.5" x2="1099.5" y1="552.4375" y2="552.4375"/><text fill="#000000" font-family="sans-serif" font-size="13" lengthAdjust="spacing" textLength="77" x="524.5" y="547.5811">customerRep</text><polygon fill="#181818" points="1340.5,578.7891,1350.5,582.7891,1340.5,586.7891,1344.5,582.7891" style="stroke:#181818;stroke-width:1.0;"/><line style="stroke:#181818;stroke-width:1.0;" x1="507.5" x2="1346.5" y1="582.7891" y2="582.7891"/><text fill="#000000" font-family="sans-serif" font-size="13" lengthAdjust="spacing" textLength="111" x="514.5" y="577.9326">save(customerRep)</text><polygon fill="#181818" points="518.5,609.1406,508.5,613.1406,518.5,617.1406,514.5,613.1406" style="stroke:#181818;stroke-width:1.0;"/><line style="stroke:#181818;stroke-width:1.0;stroke-dasharray:2.0,2.0;" x1="512.5" x2="1356.5" y1="613.1406" y2="613.1406"/><text fill="#000000" font-family="sans-serif" font-size="13" lengthAdjust="spacing" textLength="141" x="524.5" y="608.2842">CustomerRepresentative</text><polygon fill="#181818" points="153.5,639.4922,143.5,643.4922,153.5,647.4922,149.5,643.4922" style="stroke:#181818;stroke-width:1.0;"/><line style="stroke:#181818;stroke-width:1.0;stroke-dasharray:2.0,2.0;" x1="147.5" x2="501.5" y1="643.4922" y2="643.4922"/><text fill="#000000" font-family="sans-serif" font-size="13" lengthAdjust="spacing" textLength="110" x="159.5" y="638.6357">successMessage()</text><polygon fill="#181818" points="33.5,669.8438,23.5,673.8438,33.5,677.8438,29.5,673.8438" style="stroke:#181818;stroke-width:1.0;"/><line style="stroke:#181818;stroke-width:1.0;" x1="27.5" x2="136.5" y1="673.8438" y2="673.8438"/><text fill="#000000" font-family="sans-serif" font-size="13" lengthAdjust="spacing" textLength="86" x="39.5" y="668.9873">displayResult()</text><!--SRC=[TLJ1Ri8m3BtdAo9EHO8Vs67InYuSG8Y93p2j1v7Qf4fS47y_9oNKBN10Ics_P_lPXWpLg5TT8DUWrtiycK0Uo3YhTzwL689IK9BpUdO8w6SQWkxueLhmP4hJWYLshVN77Om-intMAVgm7iUkd2NlwfhJFMC6PyAMZyynno_wYocH2RwgAjOrmSKAxp5Zu7TdwYfbpXdlbWGxzkynP8-j2uOLk0aK6pq6jCHINN08wQiUWjoazvVmAKWf5HlGoq-TX0rdTotcSGpc0eHHKSMEx3uXHGdMjks8m-wkKihi9p8NaVy721QFlFrNUtOMjrrpH2yIYZ4emSjPXD2S1lfX97OB3J8VX71rlbheF-C3RPEnXlp21aozqCo7GUIJuvCPdXBclhPuJOddoYDrtkhV6vkRQ5CLlkITD79yBCRLq7c05yDJ59WN9QEU25QkuOdVYYpu_7teRf2ys4dvtvCdqWrOE4qA512nJmnBZa4UkMn2dzpMH1kvpt4TuOA5iCb5aPi_WYsdA_dw56Gr8x9HIO_3wChu3xNX7ql1xKcqsDd-8j9DVUZAXBQ6snv3LwTx4I2-h7y0]--></g></svg>