<?xml version="1.0" encoding="us-ascii" standalone="no"?><svg xmlns="http://www.w3.org/2000/svg" xmlns:xlink="http://www.w3.org/1999/xlink" contentStyleType="text/css" height="601px" preserveAspectRatio="none" style="width:157px;height:601px;background:#FFFFFF;" version="1.1" viewBox="0 0 157 601" width="157px" zoomAndPan="magnify"><defs/><g><!--class User--><g id="elem_User"><rect codeLine="1" fill="#F1F1F1" height="97.4648" id="User" rx="2.5" ry="2.5" style="stroke:#181818;stroke-width:0.5;" width="143" x="7" y="7"/><ellipse cx="58.75" cy="23" fill="#ADD1B2" rx="11" ry="11" style="stroke:#181818;stroke-width:1.0;"/><path d="M61.7231,28.6431 Q61.1421,28.9419 60.5029,29.0913 Q59.8638,29.2407 59.1582,29.2407 Q56.6514,29.2407 55.3315,27.5889 Q54.0117,25.937 54.0117,22.8159 Q54.0117,19.6865 55.3315,18.0347 Q56.6514,16.3828 59.1582,16.3828 Q59.8638,16.3828 60.5112,16.5322 Q61.1587,16.6816 61.7231,16.9805 L61.7231,19.7031 Q61.0923,19.1221 60.4988,18.8523 Q59.9053,18.5825 59.2744,18.5825 Q57.9297,18.5825 57.2449,19.6492 Q56.5601,20.7158 56.5601,22.8159 Q56.5601,24.9077 57.2449,25.9744 Q57.9297,27.041 59.2744,27.041 Q59.9053,27.041 60.4988,26.7712 Q61.0923,26.5015 61.7231,25.9204 Z " fill="#000000"/><text fill="#000000" font-family="sans-serif" font-size="14" lengthAdjust="spacing" textLength="31" x="79.25" y="28.291">User</text><line style="stroke:#181818;stroke-width:0.5;" x1="8" x2="149" y1="39" y2="39"/><ellipse cx="18" cy="52.7441" fill="none" rx="3" ry="3" style="stroke:#038048;stroke-width:1.0;"/><text fill="#000000" font-family="sans-serif" font-size="14" lengthAdjust="spacing" textLength="39" x="27" y="56.5352">id: int</text><ellipse cx="18" cy="69.2324" fill="none" rx="3" ry="3" style="stroke:#038048;stroke-width:1.0;"/><text fill="#000000" font-family="sans-serif" font-size="14" lengthAdjust="spacing" textLength="117" x="27" y="73.0234">username: String</text><ellipse cx="18" cy="85.7207" fill="none" rx="3" ry="3" style="stroke:#038048;stroke-width:1.0;"/><text fill="#000000" font-family="sans-serif" font-size="14" lengthAdjust="spacing" textLength="86" x="27" y="89.5117">email: String</text><line style="stroke:#181818;stroke-width:0.5;" x1="8" x2="149" y1="96.4648" y2="96.4648"/></g><!--class Product--><g id="elem_Product"><rect codeLine="7" fill="#F1F1F1" height="97.4648" id="Product" rx="2.5" ry="2.5" style="stroke:#181818;stroke-width:0.5;" width="113" x="22" y="497.42"/><ellipse cx="49.6" cy="513.42" fill="#ADD1B2" rx="11" ry="11" style="stroke:#181818;stroke-width:1.0;"/><path d="M52.5731,519.0631 Q51.9921,519.3619 51.3529,519.5113 Q50.7138,519.6607 50.0082,519.6607 Q47.5014,519.6607 46.1815,518.0089 Q44.8617,516.357 44.8617,513.2359 Q44.8617,510.1065 46.1815,508.4547 Q47.5014,506.8028 50.0082,506.8028 Q50.7138,506.8028 51.3612,506.9522 Q52.0087,507.1016 52.5731,507.4005 L52.5731,510.1231 Q51.9423,509.5421 51.3488,509.2723 Q50.7553,509.0025 50.1244,509.0025 Q48.7797,509.0025 48.0949,510.0692 Q47.4101,511.1358 47.4101,513.2359 Q47.4101,515.3277 48.0949,516.3944 Q48.7797,517.461 50.1244,517.461 Q50.7553,517.461 51.3488,517.1912 Q51.9423,516.9215 52.5731,516.3404 Z " fill="#000000"/><text fill="#000000" font-family="sans-serif" font-size="14" lengthAdjust="spacing" textLength="53" x="66.4" y="518.711">Product</text><line style="stroke:#181818;stroke-width:0.5;" x1="23" x2="134" y1="529.42" y2="529.42"/><ellipse cx="33" cy="543.1641" fill="none" rx="3" ry="3" style="stroke:#038048;stroke-width:1.0;"/><text fill="#000000" font-family="sans-serif" font-size="14" lengthAdjust="spacing" textLength="39" x="42" y="546.9552">id: int</text><ellipse cx="33" cy="559.6524" fill="none" rx="3" ry="3" style="stroke:#038048;stroke-width:1.0;"/><text fill="#000000" font-family="sans-serif" font-size="14" lengthAdjust="spacing" textLength="87" x="42" y="563.4434">name: String</text><ellipse cx="33" cy="576.1407" fill="none" rx="3" ry="3" style="stroke:#038048;stroke-width:1.0;"/><text fill="#000000" font-family="sans-serif" font-size="14" lengthAdjust="spacing" textLength="73" x="42" y="579.9317">price: float</text><line style="stroke:#181818;stroke-width:0.5;" x1="23" x2="134" y1="586.8848" y2="586.8848"/></g><!--class Order--><g id="elem_Order"><rect codeLine="13" fill="#F1F1F1" height="80.9766" id="Order" rx="2.5" ry="2.5" style="stroke:#181818;stroke-width:0.5;" width="134" x="11.5" y="181.46"/><ellipse cx="54.4" cy="197.46" fill="#ADD1B2" rx="11" ry="11" style="stroke:#181818;stroke-width:1.0;"/><path d="M57.3731,203.1031 Q56.7921,203.4019 56.1529,203.5513 Q55.5138,203.7007 54.8082,203.7007 Q52.3014,203.7007 50.9815,202.0489 Q49.6617,200.397 49.6617,197.2759 Q49.6617,194.1465 50.9815,192.4947 Q52.3014,190.8428 54.8082,190.8428 Q55.5138,190.8428 56.1612,190.9922 Q56.8087,191.1416 57.3731,191.4405 L57.3731,194.1631 Q56.7423,193.5821 56.1488,193.3123 Q55.5553,193.0425 54.9244,193.0425 Q53.5797,193.0425 52.8949,194.1092 Q52.2101,195.1758 52.2101,197.2759 Q52.2101,199.3677 52.8949,200.4344 Q53.5797,201.501 54.9244,201.501 Q55.5553,201.501 56.1488,201.2312 Q56.7423,200.9615 57.3731,200.3804 Z " fill="#000000"/><text fill="#000000" font-family="sans-serif" font-size="14" lengthAdjust="spacing" textLength="40" x="74.6" y="202.751">Order</text><line style="stroke:#181818;stroke-width:0.5;" x1="12.5" x2="144.5" y1="213.46" y2="213.46"/><ellipse cx="22.5" cy="227.2041" fill="none" rx="3" ry="3" style="stroke:#038048;stroke-width:1.0;"/><text fill="#000000" font-family="sans-serif" font-size="14" lengthAdjust="spacing" textLength="39" x="31.5" y="230.9952">id: int</text><ellipse cx="22.5" cy="243.6924" fill="none" rx="3" ry="3" style="stroke:#038048;stroke-width:1.0;"/><text fill="#000000" font-family="sans-serif" font-size="14" lengthAdjust="spacing" textLength="108" x="31.5" y="247.4834">orderDate: Date</text><line style="stroke:#181818;stroke-width:0.5;" x1="12.5" x2="144.5" y1="254.4366" y2="254.4366"/></g><!--class OrderItem--><g id="elem_OrderItem"><rect codeLine="18" fill="#F1F1F1" height="80.9766" id="OrderItem" rx="2.5" ry="2.5" style="stroke:#181818;stroke-width:0.5;" width="108" x="24.5" y="339.44"/><ellipse cx="42.2" cy="355.44" fill="#ADD1B2" rx="11" ry="11" style="stroke:#181818;stroke-width:1.0;"/><path d="M45.1731,361.0831 Q44.5921,361.3819 43.9529,361.5313 Q43.3138,361.6807 42.6082,361.6807 Q40.1014,361.6807 38.7815,360.0289 Q37.4617,358.377 37.4617,355.2559 Q37.4617,352.1265 38.7815,350.4747 Q40.1014,348.8228 42.6082,348.8228 Q43.3138,348.8228 43.9612,348.9722 Q44.6087,349.1216 45.1731,349.4205 L45.1731,352.1431 Q44.5423,351.5621 43.9488,351.2923 Q43.3553,351.0225 42.7244,351.0225 Q41.3797,351.0225 40.6949,352.0892 Q40.0101,353.1558 40.0101,355.2559 Q40.0101,357.3477 40.6949,358.4144 Q41.3797,359.481 42.7244,359.481 Q43.3553,359.481 43.9488,359.2112 Q44.5423,358.9415 45.1731,358.3604 Z " fill="#000000"/><text fill="#000000" font-family="sans-serif" font-size="14" lengthAdjust="spacing" textLength="70" x="56.8" y="360.731">OrderItem</text><line style="stroke:#181818;stroke-width:0.5;" x1="25.5" x2="131.5" y1="371.44" y2="371.44"/><ellipse cx="35.5" cy="385.1841" fill="none" rx="3" ry="3" style="stroke:#038048;stroke-width:1.0;"/><text fill="#000000" font-family="sans-serif" font-size="14" lengthAdjust="spacing" textLength="82" x="44.5" y="388.9752">quantity: int</text><ellipse cx="35.5" cy="401.6724" fill="none" rx="3" ry="3" style="stroke:#038048;stroke-width:1.0;"/><text fill="#000000" font-family="sans-serif" font-size="14" lengthAdjust="spacing" textLength="73" x="44.5" y="405.4634">price: float</text><line style="stroke:#181818;stroke-width:0.5;" x1="25.5" x2="131.5" y1="412.4166" y2="412.4166"/></g><!--link User to Order--><g id="link_User_Order"><path codeLine="23" d="M78.5,104.67 C78.5,128.91 78.5,157.98 78.5,180.99 " fill="none" id="User-Order" style="stroke:#181818;stroke-width:1.0;"/><text fill="#000000" font-family="sans-serif" font-size="13" lengthAdjust="spacing" textLength="40" x="79.5" y="148.0284">places</text><text fill="#000000" font-family="sans-serif" font-size="13" lengthAdjust="spacing" textLength="8" x="69.9375" y="125.1967">1</text><text fill="#000000" font-family="sans-serif" font-size="13" lengthAdjust="spacing" textLength="22" x="54.7469" y="170.8601">0..*</text></g><!--link Order to OrderItem--><g id="link_Order_OrderItem"><path codeLine="24" d="M78.5,262.71 C78.5,286.09 78.5,315.55 78.5,338.97 " fill="none" id="Order-OrderItem" style="stroke:#181818;stroke-width:1.0;"/><text fill="#000000" font-family="sans-serif" font-size="13" lengthAdjust="spacing" textLength="54" x="79.5" y="306.0084">contains</text><text fill="#000000" font-family="sans-serif" font-size="13" lengthAdjust="spacing" textLength="8" x="69.8625" y="282.9948">1</text><text fill="#000000" font-family="sans-serif" font-size="13" lengthAdjust="spacing" textLength="22" x="54.7469" y="328.8401">1..*</text></g><!--link OrderItem to Product--><g id="link_OrderItem_Product"><path codeLine="25" d="M78.5,420.68 C78.5,443.65 78.5,472.71 78.5,496.98 " fill="none" id="OrderItem-Product" style="stroke:#181818;stroke-width:1.0;"/><text fill="#000000" font-family="sans-serif" font-size="13" lengthAdjust="spacing" textLength="53" x="79.5" y="463.9884">includes</text><text fill="#000000" font-family="sans-serif" font-size="13" lengthAdjust="spacing" textLength="22" x="54.7469" y="440.9632">0..*</text><text fill="#000000" font-family="sans-serif" font-size="13" lengthAdjust="spacing" textLength="8" x="69.9375" y="486.6006">1</text></g><!--SRC=[TL2z3i8W4DvvYWkZferTcLsSD34-m0NGa52eS0p6-EvI-cUgta1ottq_nqcBCS8bwW1F1hcsHWamZeOcvO73LWiuKp3kDg2wHMDdwCMOB2wdu5MIzDFeswGBHcReQZtIud4Cwiyglf_iaRAcVrUI0-bsajqJEZBq-12lmyg7USEXge3lwdh3nsG1dKMf8nlQYT8ib98aG7f7QDn8BE1eLFXylaQ_XRH9wVW6]--></g></svg>