<?xml version="1.0" encoding="us-ascii" standalone="no"?><svg xmlns="http://www.w3.org/2000/svg" xmlns:xlink="http://www.w3.org/1999/xlink" contentStyleType="text/css" height="1641px" preserveAspectRatio="none" style="width:2865px;height:1641px;background:#FFFFFF;" version="1.1" viewBox="0 0 2865 1641" width="2865px" zoomAndPan="magnify"><defs/><g><!--cluster UI--><g id="cluster_UI"><path d="M2079.5,6 L2095.5,6 A3.75,3.75 0 0 1 2098,8.5 L2105,28.4883 L2855.5,28.4883 A2.5,2.5 0 0 1 2858,30.9883 L2858,168.46 A2.5,2.5 0 0 1 2855.5,170.96 L2079.5,170.96 A2.5,2.5 0 0 1 2077,168.46 L2077,8.5 A2.5,2.5 0 0 1 2079.5,6 " fill="none" style="stroke:#000000;stroke-width:1.5;"/><line style="stroke:#000000;stroke-width:1.5;" x1="2077" x2="2105" y1="28.4883" y2="28.4883"/><text fill="#000000" font-family="sans-serif" font-size="14" font-weight="bold" lengthAdjust="spacing" textLength="15" x="2081" y="21.5352">UI</text></g><!--cluster Controller--><g id="cluster_Controller"><path d="M895.5,203.96 L969.5,203.96 A3.75,3.75 0 0 1 972,206.46 L979,226.4483 L1394.5,226.4483 A2.5,2.5 0 0 1 1397,228.9483 L1397,366.41 A2.5,2.5 0 0 1 1394.5,368.91 L895.5,368.91 A2.5,2.5 0 0 1 893,366.41 L893,206.46 A2.5,2.5 0 0 1 895.5,203.96 " fill="none" style="stroke:#000000;stroke-width:1.5;"/><line style="stroke:#000000;stroke-width:1.5;" x1="893" x2="979" y1="226.4483" y2="226.4483"/><text fill="#000000" font-family="sans-serif" font-size="14" font-weight="bold" lengthAdjust="spacing" textLength="73" x="897" y="219.4952">Controller</text></g><!--cluster Service--><g id="cluster_Service"><path d="M1184.5,401.91 L1235.5,401.91 A3.75,3.75 0 0 1 1238,404.41 L1245,424.3983 L1815.5,424.3983 A2.5,2.5 0 0 1 1818,426.8983 L1818,547.87 A2.5,2.5 0 0 1 1815.5,550.37 L1184.5,550.37 A2.5,2.5 0 0 1 1182,547.87 L1182,404.41 A2.5,2.5 0 0 1 1184.5,401.91 " fill="none" style="stroke:#000000;stroke-width:1.5;"/><line style="stroke:#000000;stroke-width:1.5;" x1="1182" x2="1245" y1="424.3983" y2="424.3983"/><text fill="#000000" font-family="sans-serif" font-size="14" font-weight="bold" lengthAdjust="spacing" textLength="50" x="1186" y="417.4452">Service</text></g><!--cluster Repository--><g id="cluster_Repository"><path d="M8.5,418.4 L87.5,418.4 A3.75,3.75 0 0 1 90,420.9 L97,440.8883 L1105.5,440.8883 A2.5,2.5 0 0 1 1108,443.3883 L1108,531.38 A2.5,2.5 0 0 1 1105.5,533.88 L8.5,533.88 A2.5,2.5 0 0 1 6,531.38 L6,420.9 A2.5,2.5 0 0 1 8.5,418.4 " fill="none" style="stroke:#000000;stroke-width:1.5;"/><line style="stroke:#000000;stroke-width:1.5;" x1="6" x2="97" y1="440.8883" y2="440.8883"/><text fill="#000000" font-family="sans-serif" font-size="14" font-weight="bold" lengthAdjust="spacing" textLength="78" x="10" y="433.9352">Repository</text></g><!--cluster Model--><g id="cluster_Model"><path d="M1047.5,583.37 L1092.5,583.37 A3.75,3.75 0 0 1 1095,585.87 L1102,605.8583 L2538.5,605.8583 A2.5,2.5 0 0 1 2541,608.3583 L2541,1632.08 A2.5,2.5 0 0 1 2538.5,1634.58 L1047.5,1634.58 A2.5,2.5 0 0 1 1045,1632.08 L1045,585.87 A2.5,2.5 0 0 1 1047.5,583.37 " fill="none" style="stroke:#000000;stroke-width:1.5;"/><line style="stroke:#000000;stroke-width:1.5;" x1="1045" x2="1102" y1="605.8583" y2="605.8583"/><text fill="#000000" font-family="sans-serif" font-size="14" font-weight="bold" lengthAdjust="spacing" textLength="44" x="1049" y="598.9052">Model</text></g><!--cluster CandidateAgg--><g id="cluster_CandidateAgg"><path d="M1647.5,855.3 L1748.5,855.3 A3.75,3.75 0 0 1 1751,857.8 L1758,877.7883 L2011.5,877.7883 A2.5,2.5 0 0 1 2014,880.2883 L2014,1184.46 A2.5,2.5 0 0 1 2011.5,1186.96 L1647.5,1186.96 A2.5,2.5 0 0 1 1645,1184.46 L1645,857.8 A2.5,2.5 0 0 1 1647.5,855.3 " fill="none" style="stroke:#000000;stroke-width:1.5;"/><line style="stroke:#000000;stroke-width:1.5;" x1="1645" x2="1758" y1="877.7883" y2="877.7883"/><text fill="#000000" font-family="sans-serif" font-size="14" font-weight="bold" lengthAdjust="spacing" textLength="100" x="1649" y="870.8352">CandidateAgg</text></g><!--cluster JobOpeningAgg--><g id="cluster_JobOpeningAgg"><path d="M1071.5,855.3 L1185.5,855.3 A3.75,3.75 0 0 1 1188,857.8 L1195,877.7883 L1618.5,877.7883 A2.5,2.5 0 0 1 1621,880.2883 L1621,1608.08 A2.5,2.5 0 0 1 1618.5,1610.58 L1071.5,1610.58 A2.5,2.5 0 0 1 1069,1608.08 L1069,857.8 A2.5,2.5 0 0 1 1071.5,855.3 " fill="none" style="stroke:#000000;stroke-width:1.5;"/><line style="stroke:#000000;stroke-width:1.5;" x1="1069" x2="1195" y1="877.7883" y2="877.7883"/><text fill="#000000" font-family="sans-serif" font-size="14" font-weight="bold" lengthAdjust="spacing" textLength="113" x="1073" y="870.8352">JobOpeningAgg</text></g><!--cluster ApplicationAgg--><g id="cluster_ApplicationAgg"><path d="M2040.5,626.37 L2151.5,626.37 A3.75,3.75 0 0 1 2154,628.87 L2161,648.8583 L2396.5,648.8583 A2.5,2.5 0 0 1 2399,651.3583 L2399,1184.46 A2.5,2.5 0 0 1 2396.5,1186.96 L2040.5,1186.96 A2.5,2.5 0 0 1 2038,1184.46 L2038,628.87 A2.5,2.5 0 0 1 2040.5,626.37 " fill="none" style="stroke:#000000;stroke-width:1.5;"/><line style="stroke:#000000;stroke-width:1.5;" x1="2038" x2="2161" y1="648.8583" y2="648.8583"/><text fill="#000000" font-family="sans-serif" font-size="14" font-weight="bold" lengthAdjust="spacing" textLength="110" x="2042" y="641.9052">ApplicationAgg</text></g><!--class ListOrderedApplicationsUI--><g id="elem_ListOrderedApplicationsUI"><rect codeLine="3" fill="#F1F1F1" height="113.9531" id="ListOrderedApplicationsUI" rx="2.5" ry="2.5" style="stroke:#181818;stroke-width:0.5;" width="336" x="2093" y="41"/><ellipse cx="2167.25" cy="57" fill="#ADD1B2" rx="11" ry="11" style="stroke:#181818;stroke-width:1.0;"/><path d="M2169.7231,63.1431 Q2169.1421,63.4419 2168.5029,63.5913 Q2167.8638,63.7407 2167.1582,63.7407 Q2164.6514,63.7407 2163.3315,62.0889 Q2162.0117,60.437 2162.0117,57.3159 Q2162.0117,54.1865 2163.3315,52.5347 Q2164.6514,50.8828 2167.1582,50.8828 Q2167.8638,50.8828 2168.5112,51.0322 Q2169.1587,51.1816 2169.7231,51.4805 L2169.7231,54.2031 Q2169.0923,53.6221 2168.4988,53.3523 Q2167.9053,53.0825 2167.2744,53.0825 Q2165.9297,53.0825 2165.2449,54.1492 Q2164.5601,55.2158 2164.5601,57.3159 Q2164.5601,59.4077 2165.2449,60.4744 Q2165.9297,61.541 2167.2744,61.541 Q2167.9053,61.541 2168.4988,61.2712 Q2169.0923,61.0015 2169.7231,60.4204 Z " fill="#000000"/><text fill="#000000" font-family="sans-serif" font-size="14" lengthAdjust="spacing" textLength="179" x="2187.75" y="62.291">ListOrderedApplicationsUI</text><line style="stroke:#181818;stroke-width:0.5;" x1="2094" x2="2428" y1="73" y2="73"/><rect fill="none" height="6" style="stroke:#C82930;stroke-width:1.0;" width="6" x="2101" y="83.7441"/><text fill="#000000" font-family="sans-serif" font-size="14" lengthAdjust="spacing" textLength="310" x="2113" y="90.5352">controller: ListOrderedApplicationsController</text><line style="stroke:#181818;stroke-width:0.5;" x1="2094" x2="2428" y1="97.4883" y2="97.4883"/><ellipse cx="2104" cy="111.2324" fill="#84BE84" rx="3" ry="3" style="stroke:#038048;stroke-width:1.0;"/><text fill="#000000" font-family="sans-serif" font-size="14" lengthAdjust="spacing" textLength="129" x="2113" y="115.0234">doShow(): boolean</text><ellipse cx="2104" cy="127.7207" fill="#84BE84" rx="3" ry="3" style="stroke:#038048;stroke-width:1.0;"/><text fill="#000000" font-family="sans-serif" font-size="14" lengthAdjust="spacing" textLength="118" x="2113" y="131.5117">headline(): String</text><ellipse cx="2104" cy="144.209" fill="#84BE84" rx="3" ry="3" style="stroke:#038048;stroke-width:1.0;"/><text fill="#000000" font-family="sans-serif" font-size="14" lengthAdjust="spacing" textLength="195" x="2113" y="148">askForJobReference(): String</text></g><!--class ApplicationByGradePrinter--><g id="elem_ApplicationByGradePrinter"><rect codeLine="9" fill="#F1F1F1" height="113.9531" id="ApplicationByGradePrinter" rx="2.5" ry="2.5" style="stroke:#181818;stroke-width:0.5;" width="378" x="2464" y="41"/><ellipse cx="2558.75" cy="57" fill="#ADD1B2" rx="11" ry="11" style="stroke:#181818;stroke-width:1.0;"/><path d="M2561.2231,63.1431 Q2560.6421,63.4419 2560.0029,63.5913 Q2559.3638,63.7407 2558.6582,63.7407 Q2556.1514,63.7407 2554.8315,62.0889 Q2553.5117,60.437 2553.5117,57.3159 Q2553.5117,54.1865 2554.8315,52.5347 Q2556.1514,50.8828 2558.6582,50.8828 Q2559.3638,50.8828 2560.0112,51.0322 Q2560.6587,51.1816 2561.2231,51.4805 L2561.2231,54.2031 Q2560.5923,53.6221 2559.9988,53.3523 Q2559.4053,53.0825 2558.7744,53.0825 Q2557.4297,53.0825 2556.7449,54.1492 Q2556.0601,55.2158 2556.0601,57.3159 Q2556.0601,59.4077 2556.7449,60.4744 Q2557.4297,61.541 2558.7744,61.541 Q2559.4053,61.541 2559.9988,61.2712 Q2560.5923,61.0015 2561.2231,60.4204 Z " fill="#000000"/><text fill="#000000" font-family="sans-serif" font-size="14" lengthAdjust="spacing" textLength="180" x="2579.25" y="62.291">ApplicationByGradePrinter</text><line style="stroke:#181818;stroke-width:0.5;" x1="2465" x2="2841" y1="73" y2="73"/><line style="stroke:#181818;stroke-width:0.5;" x1="2465" x2="2841" y1="81" y2="81"/><ellipse cx="2475" cy="94.7441" fill="#84BE84" rx="3" ry="3" style="stroke:#038048;stroke-width:1.0;"/><text fill="#000000" font-family="sans-serif" font-size="14" lengthAdjust="spacing" textLength="225" x="2484" y="98.5352">visit(visitee: jobApplication): void</text><ellipse cx="2475" cy="111.2324" fill="#84BE84" rx="3" ry="3" style="stroke:#038048;stroke-width:1.0;"/><text fill="#000000" font-family="sans-serif" font-size="14" lengthAdjust="spacing" textLength="129" x="2484" y="115.0234">printHeader(): void</text><ellipse cx="2475" cy="127.7207" fill="#84BE84" rx="3" ry="3" style="stroke:#038048;stroke-width:1.0;"/><text fill="#000000" font-family="sans-serif" font-size="14" lengthAdjust="spacing" textLength="352" x="2484" y="131.5117">printRows(applications: List&lt;jobApplication&gt;): void</text><ellipse cx="2475" cy="144.209" fill="#84BE84" rx="3" ry="3" style="stroke:#038048;stroke-width:1.0;"/><text fill="#000000" font-family="sans-serif" font-size="14" lengthAdjust="spacing" textLength="125" x="2484" y="148">printFooter(): void</text></g><!--class ListOrderedApplicationsController--><g id="elem_ListOrderedApplicationsController"><rect codeLine="18" fill="#F1F1F1" height="113.9531" id="ListOrderedApplicationsController" rx="2.5" ry="2.5" style="stroke:#181818;stroke-width:0.5;" width="471" x="909.5" y="238.96"/><ellipse cx="1023.25" cy="254.96" fill="#ADD1B2" rx="11" ry="11" style="stroke:#181818;stroke-width:1.0;"/><path d="M1025.7231,261.1031 Q1025.1421,261.4019 1024.5029,261.5513 Q1023.8638,261.7007 1023.1582,261.7007 Q1020.6514,261.7007 1019.3315,260.0489 Q1018.0117,258.397 1018.0117,255.2759 Q1018.0117,252.1465 1019.3315,250.4947 Q1020.6514,248.8428 1023.1582,248.8428 Q1023.8638,248.8428 1024.5112,248.9922 Q1025.1587,249.1416 1025.7231,249.4405 L1025.7231,252.1631 Q1025.0923,251.5821 1024.4988,251.3123 Q1023.9053,251.0425 1023.2744,251.0425 Q1021.9297,251.0425 1021.2449,252.1092 Q1020.5601,253.1758 1020.5601,255.2759 Q1020.5601,257.3677 1021.2449,258.4344 Q1021.9297,259.501 1023.2744,259.501 Q1023.9053,259.501 1024.4988,259.2312 Q1025.0923,258.9615 1025.7231,258.3804 Z " fill="#000000"/><text fill="#000000" font-family="sans-serif" font-size="14" lengthAdjust="spacing" textLength="235" x="1043.75" y="260.251">ListOrderedApplicationsController</text><line style="stroke:#181818;stroke-width:0.5;" x1="910.5" x2="1379.5" y1="270.96" y2="270.96"/><rect fill="none" height="6" style="stroke:#C82930;stroke-width:1.0;" width="6" x="917.5" y="281.7041"/><text fill="#000000" font-family="sans-serif" font-size="14" lengthAdjust="spacing" textLength="316" x="929.5" y="288.4952">jobOpeningRepository: JobOpeningRepository</text><rect fill="none" height="6" style="stroke:#C82930;stroke-width:1.0;" width="6" x="917.5" y="298.1924"/><text fill="#000000" font-family="sans-serif" font-size="14" lengthAdjust="spacing" textLength="308" x="929.5" y="304.9834">applicationRepository: ApplicationRepository</text><rect fill="none" height="6" style="stroke:#C82930;stroke-width:1.0;" width="6" x="917.5" y="314.6807"/><text fill="#000000" font-family="sans-serif" font-size="14" lengthAdjust="spacing" textLength="352" x="929.5" y="321.4717">orderApplicationsService: OrderApplicationsService</text><line style="stroke:#181818;stroke-width:0.5;" x1="910.5" x2="1379.5" y1="328.4248" y2="328.4248"/><ellipse cx="920.5" cy="342.169" fill="#84BE84" rx="3" ry="3" style="stroke:#038048;stroke-width:1.0;"/><text fill="#000000" font-family="sans-serif" font-size="14" lengthAdjust="spacing" textLength="445" x="929.5" y="345.96">validateJobReference(jobReference: String): List&lt;jobApplication&gt;</text></g><!--class OrderApplicationsService--><g id="elem_OrderApplicationsService"><rect codeLine="27" fill="#F1F1F1" height="97.4648" id="OrderApplicationsService" rx="2.5" ry="2.5" style="stroke:#181818;stroke-width:0.5;" width="604" x="1198" y="436.91"/><ellipse cx="1409.25" cy="452.91" fill="#ADD1B2" rx="11" ry="11" style="stroke:#181818;stroke-width:1.0;"/><path d="M1411.7231,459.0531 Q1411.1421,459.3519 1410.5029,459.5013 Q1409.8638,459.6507 1409.1582,459.6507 Q1406.6514,459.6507 1405.3315,457.9989 Q1404.0117,456.347 1404.0117,453.2259 Q1404.0117,450.0965 1405.3315,448.4447 Q1406.6514,446.7928 1409.1582,446.7928 Q1409.8638,446.7928 1410.5112,446.9422 Q1411.1587,447.0916 1411.7231,447.3905 L1411.7231,450.1131 Q1411.0923,449.5321 1410.4988,449.2623 Q1409.9053,448.9925 1409.2744,448.9925 Q1407.9297,448.9925 1407.2449,450.0592 Q1406.5601,451.1258 1406.5601,453.2259 Q1406.5601,455.3177 1407.2449,456.3844 Q1407.9297,457.451 1409.2744,457.451 Q1409.9053,457.451 1410.4988,457.1812 Q1411.0923,456.9115 1411.7231,456.3304 Z " fill="#000000"/><text fill="#000000" font-family="sans-serif" font-size="14" lengthAdjust="spacing" textLength="173" x="1429.75" y="458.201">OrderApplicationsService</text><line style="stroke:#181818;stroke-width:0.5;" x1="1199" x2="1801" y1="468.91" y2="468.91"/><rect fill="none" height="6" style="stroke:#C82930;stroke-width:1.0;" width="6" x="1206" y="479.6541"/><text fill="#000000" font-family="sans-serif" font-size="14" lengthAdjust="spacing" textLength="275" x="1218" y="486.4452">recruitmentProcess: RecruitmentProcess</text><line style="stroke:#181818;stroke-width:0.5;" x1="1199" x2="1801" y1="493.3983" y2="493.3983"/><ellipse cx="1209" cy="507.1424" fill="#84BE84" rx="3" ry="3" style="stroke:#038048;stroke-width:1.0;"/><text fill="#000000" font-family="sans-serif" font-size="14" lengthAdjust="spacing" textLength="578" x="1218" y="510.9334">orderedListOfApplications(applications: List&lt;jobApplication&gt;): List&lt;jobApplication&gt;</text><rect fill="#F24D5C" height="6" style="stroke:#C82930;stroke-width:1.0;" width="6" x="1206" y="520.6307"/><text fill="#000000" font-family="sans-serif" font-size="14" lengthAdjust="spacing" textLength="220" x="1218" y="527.4217">validateCurrentPhase(): boolean</text></g><!--class JobOpeningRepository--><g id="elem_JobOpeningRepository"><rect codeLine="35" fill="#F1F1F1" height="64.4883" id="JobOpeningRepository" rx="2.5" ry="2.5" style="stroke:#181818;stroke-width:0.5;" width="526" x="566" y="453.4"/><ellipse cx="747.75" cy="469.4" fill="#ADD1B2" rx="11" ry="11" style="stroke:#181818;stroke-width:1.0;"/><path d="M750.2231,475.5431 Q749.6421,475.8419 749.0029,475.9913 Q748.3638,476.1407 747.6582,476.1407 Q745.1514,476.1407 743.8315,474.4889 Q742.5117,472.837 742.5117,469.7159 Q742.5117,466.5865 743.8315,464.9347 Q745.1514,463.2828 747.6582,463.2828 Q748.3638,463.2828 749.0112,463.4322 Q749.6587,463.5816 750.2231,463.8805 L750.2231,466.6031 Q749.5923,466.0221 748.9988,465.7523 Q748.4053,465.4825 747.7744,465.4825 Q746.4297,465.4825 745.7449,466.5492 Q745.0601,467.6158 745.0601,469.7159 Q745.0601,471.8077 745.7449,472.8744 Q746.4297,473.941 747.7744,473.941 Q748.4053,473.941 748.9988,473.6712 Q749.5923,473.4015 750.2231,472.8204 Z " fill="#000000"/><text fill="#000000" font-family="sans-serif" font-size="14" lengthAdjust="spacing" textLength="154" x="768.25" y="474.691">JobOpeningRepository</text><line style="stroke:#181818;stroke-width:0.5;" x1="567" x2="1091" y1="485.4" y2="485.4"/><line style="stroke:#181818;stroke-width:0.5;" x1="567" x2="1091" y1="493.4" y2="493.4"/><ellipse cx="577" cy="507.1441" fill="#84BE84" rx="3" ry="3" style="stroke:#038048;stroke-width:1.0;"/><text fill="#000000" font-family="sans-serif" font-size="14" lengthAdjust="spacing" textLength="500" x="586" y="510.9352">findByJobReference(jobReference: JobReference): Optional&lt;JobOpening&gt;</text></g><!--class ApplicationRepository--><g id="elem_ApplicationRepository"><rect codeLine="38" fill="#F1F1F1" height="64.4883" id="ApplicationRepository" rx="2.5" ry="2.5" style="stroke:#181818;stroke-width:0.5;" width="509" x="21.5" y="453.4"/><ellipse cx="196.25" cy="469.4" fill="#ADD1B2" rx="11" ry="11" style="stroke:#181818;stroke-width:1.0;"/><path d="M198.7231,475.5431 Q198.1421,475.8419 197.5029,475.9913 Q196.8638,476.1407 196.1582,476.1407 Q193.6514,476.1407 192.3315,474.4889 Q191.0117,472.837 191.0117,469.7159 Q191.0117,466.5865 192.3315,464.9347 Q193.6514,463.2828 196.1582,463.2828 Q196.8638,463.2828 197.5112,463.4322 Q198.1587,463.5816 198.7231,463.8805 L198.7231,466.6031 Q198.0923,466.0221 197.4988,465.7523 Q196.9053,465.4825 196.2744,465.4825 Q194.9297,465.4825 194.2449,466.5492 Q193.5601,467.6158 193.5601,469.7159 Q193.5601,471.8077 194.2449,472.8744 Q194.9297,473.941 196.2744,473.941 Q196.9053,473.941 197.4988,473.6712 Q198.0923,473.4015 198.7231,472.8204 Z " fill="#000000"/><text fill="#000000" font-family="sans-serif" font-size="14" lengthAdjust="spacing" textLength="151" x="216.75" y="474.691">ApplicationRepository</text><line style="stroke:#181818;stroke-width:0.5;" x1="22.5" x2="529.5" y1="485.4" y2="485.4"/><line style="stroke:#181818;stroke-width:0.5;" x1="22.5" x2="529.5" y1="493.4" y2="493.4"/><ellipse cx="32.5" cy="507.1441" fill="#84BE84" rx="3" ry="3" style="stroke:#038048;stroke-width:1.0;"/><text fill="#000000" font-family="sans-serif" font-size="14" lengthAdjust="spacing" textLength="483" x="41.5" y="510.9352">findByJobReference(jobReference: JobReference): List&lt;jobApplication&gt;</text></g><!--class Application--><g id="elem_Application"><rect fill="#F1F1F1" height="48" id="Application" rx="2.5" ry="2.5" style="stroke:#181818;stroke-width:0.5;" width="110" x="2415" y="710.84"/><ellipse cx="2430" cy="726.84" fill="#ADD1B2" rx="11" ry="11" style="stroke:#181818;stroke-width:1.0;"/><path d="M2432.4731,732.9831 Q2431.8921,733.2819 2431.2529,733.4313 Q2430.6138,733.5807 2429.9082,733.5807 Q2427.4014,733.5807 2426.0815,731.9289 Q2424.7617,730.277 2424.7617,727.1559 Q2424.7617,724.0265 2426.0815,722.3747 Q2427.4014,720.7228 2429.9082,720.7228 Q2430.6138,720.7228 2431.2612,720.8722 Q2431.9087,721.0216 2432.4731,721.3205 L2432.4731,724.0431 Q2431.8423,723.4621 2431.2488,723.1923 Q2430.6553,722.9225 2430.0244,722.9225 Q2428.6797,722.9225 2427.9949,723.9892 Q2427.3101,725.0558 2427.3101,727.1559 Q2427.3101,729.2477 2427.9949,730.3144 Q2428.6797,731.381 2430.0244,731.381 Q2430.6553,731.381 2431.2488,731.1112 Q2431.8423,730.8415 2432.4731,730.2604 Z " fill="#000000"/><text fill="#000000" font-family="sans-serif" font-size="14" lengthAdjust="spacing" textLength="78" x="2444" y="732.131">Application</text><line style="stroke:#181818;stroke-width:0.5;" x1="2416" x2="2524" y1="742.84" y2="742.84"/><line style="stroke:#181818;stroke-width:0.5;" x1="2416" x2="2524" y1="750.84" y2="750.84"/></g><!--class Candidate--><g id="elem_Candidate"><rect codeLine="46" fill="#F1F1F1" height="113.9531" id="Candidate" rx="2.5" ry="2.5" style="stroke:#181818;stroke-width:0.5;" width="242" x="1756" y="890.3"/><ellipse cx="1837.75" cy="906.3" fill="#ADD1B2" rx="11" ry="11" style="stroke:#181818;stroke-width:1.0;"/><path d="M1840.2231,912.4431 Q1839.6421,912.7419 1839.0029,912.8913 Q1838.3638,913.0407 1837.6582,913.0407 Q1835.1514,913.0407 1833.8315,911.3889 Q1832.5117,909.737 1832.5117,906.6159 Q1832.5117,903.4865 1833.8315,901.8347 Q1835.1514,900.1828 1837.6582,900.1828 Q1838.3638,900.1828 1839.0112,900.3322 Q1839.6587,900.4816 1840.2231,900.7805 L1840.2231,903.5031 Q1839.5923,902.9221 1838.9988,902.6523 Q1838.4053,902.3825 1837.7744,902.3825 Q1836.4297,902.3825 1835.7449,903.4492 Q1835.0601,904.5158 1835.0601,906.6159 Q1835.0601,908.7077 1835.7449,909.7744 Q1836.4297,910.841 1837.7744,910.841 Q1838.4053,910.841 1838.9988,910.5712 Q1839.5923,910.3015 1840.2231,909.7204 Z " fill="#000000"/><text fill="#000000" font-family="sans-serif" font-size="14" lengthAdjust="spacing" textLength="70" x="1858.25" y="911.591">Candidate</text><line style="stroke:#181818;stroke-width:0.5;" x1="1757" x2="1997" y1="922.3" y2="922.3"/><ellipse cx="1767" cy="936.0441" fill="none" rx="3" ry="3" style="stroke:#038048;stroke-width:1.0;"/><text fill="#000000" font-family="sans-serif" font-size="14" lengthAdjust="spacing" textLength="205" x="1776" y="939.8352">candidateEmail: EmailAddress</text><ellipse cx="1767" cy="952.5324" fill="none" rx="3" ry="3" style="stroke:#038048;stroke-width:1.0;"/><text fill="#000000" font-family="sans-serif" font-size="14" lengthAdjust="spacing" textLength="153" x="1776" y="956.3234">candidateName: Name</text><ellipse cx="1767" cy="969.0207" fill="none" rx="3" ry="3" style="stroke:#038048;stroke-width:1.0;"/><text fill="#000000" font-family="sans-serif" font-size="14" lengthAdjust="spacing" textLength="216" x="1776" y="972.8117">candidatePhone: PhoneNumber</text><ellipse cx="1767" cy="985.509" fill="none" rx="3" ry="3" style="stroke:#038048;stroke-width:1.0;"/><text fill="#000000" font-family="sans-serif" font-size="14" lengthAdjust="spacing" textLength="145" x="1776" y="989.3">state: CandidateState</text><line style="stroke:#181818;stroke-width:0.5;" x1="1757" x2="1997" y1="996.2531" y2="996.2531"/></g><!--class Name--><g id="elem_Name"><rect codeLine="53" fill="#F1F1F1" height="64.4883" id="Name" rx="2.5" ry="2.5" style="stroke:#181818;stroke-width:0.5;" width="178" x="1661" y="1106.48"/><ellipse cx="1726.25" cy="1122.48" fill="#ADD1B2" rx="11" ry="11" style="stroke:#181818;stroke-width:1.0;"/><path d="M1728.7231,1128.6231 Q1728.1421,1128.9219 1727.5029,1129.0713 Q1726.8638,1129.2207 1726.1582,1129.2207 Q1723.6514,1129.2207 1722.3315,1127.5689 Q1721.0117,1125.917 1721.0117,1122.7959 Q1721.0117,1119.6665 1722.3315,1118.0147 Q1723.6514,1116.3628 1726.1582,1116.3628 Q1726.8638,1116.3628 1727.5112,1116.5122 Q1728.1587,1116.6616 1728.7231,1116.9605 L1728.7231,1119.6831 Q1728.0923,1119.1021 1727.4988,1118.8323 Q1726.9053,1118.5625 1726.2744,1118.5625 Q1724.9297,1118.5625 1724.2449,1119.6292 Q1723.5601,1120.6958 1723.5601,1122.7959 Q1723.5601,1124.8877 1724.2449,1125.9544 Q1724.9297,1127.021 1726.2744,1127.021 Q1726.9053,1127.021 1727.4988,1126.7512 Q1728.0923,1126.4815 1728.7231,1125.9004 Z " fill="#000000"/><text fill="#000000" font-family="sans-serif" font-size="14" lengthAdjust="spacing" textLength="39" x="1746.75" y="1127.771">Name</text><line style="stroke:#181818;stroke-width:0.5;" x1="1662" x2="1838" y1="1138.48" y2="1138.48"/><ellipse cx="1672" cy="1152.2241" fill="none" rx="3" ry="3" style="stroke:#038048;stroke-width:1.0;"/><text fill="#000000" font-family="sans-serif" font-size="14" lengthAdjust="spacing" textLength="152" x="1681" y="1156.0152">customerName: String</text><line style="stroke:#181818;stroke-width:0.5;" x1="1662" x2="1838" y1="1162.9683" y2="1162.9683"/></g><!--class EmailAddress--><g id="elem_EmailAddress"><rect codeLine="56" fill="#F1F1F1" height="64.4883" id="EmailAddress" rx="2.5" ry="2.5" style="stroke:#181818;stroke-width:0.5;" width="125" x="1873.5" y="1106.48"/><ellipse cx="1888.5" cy="1122.48" fill="#ADD1B2" rx="11" ry="11" style="stroke:#181818;stroke-width:1.0;"/><path d="M1890.9731,1128.6231 Q1890.3921,1128.9219 1889.7529,1129.0713 Q1889.1138,1129.2207 1888.4082,1129.2207 Q1885.9014,1129.2207 1884.5815,1127.5689 Q1883.2617,1125.917 1883.2617,1122.7959 Q1883.2617,1119.6665 1884.5815,1118.0147 Q1885.9014,1116.3628 1888.4082,1116.3628 Q1889.1138,1116.3628 1889.7612,1116.5122 Q1890.4087,1116.6616 1890.9731,1116.9605 L1890.9731,1119.6831 Q1890.3423,1119.1021 1889.7488,1118.8323 Q1889.1553,1118.5625 1888.5244,1118.5625 Q1887.1797,1118.5625 1886.4949,1119.6292 Q1885.8101,1120.6958 1885.8101,1122.7959 Q1885.8101,1124.8877 1886.4949,1125.9544 Q1887.1797,1127.021 1888.5244,1127.021 Q1889.1553,1127.021 1889.7488,1126.7512 Q1890.3423,1126.4815 1890.9731,1125.9004 Z " fill="#000000"/><text fill="#000000" font-family="sans-serif" font-size="14" lengthAdjust="spacing" textLength="93" x="1902.5" y="1127.771">EmailAddress</text><line style="stroke:#181818;stroke-width:0.5;" x1="1874.5" x2="1997.5" y1="1138.48" y2="1138.48"/><ellipse cx="1884.5" cy="1152.2241" fill="none" rx="3" ry="3" style="stroke:#038048;stroke-width:1.0;"/><text fill="#000000" font-family="sans-serif" font-size="14" lengthAdjust="spacing" textLength="86" x="1893.5" y="1156.0152">email: String</text><line style="stroke:#181818;stroke-width:0.5;" x1="1874.5" x2="1997.5" y1="1162.9683" y2="1162.9683"/></g><!--class JobReference--><g id="elem_JobReference"><rect codeLine="62" fill="#F1F1F1" height="80.9766" id="JobReference" rx="2.5" ry="2.5" style="stroke:#181818;stroke-width:0.5;" width="175" x="1092.5" y="1098.23"/><ellipse cx="1131.35" cy="1114.23" fill="#ADD1B2" rx="11" ry="11" style="stroke:#181818;stroke-width:1.0;"/><path d="M1133.8231,1120.3731 Q1133.2421,1120.6719 1132.6029,1120.8213 Q1131.9638,1120.9707 1131.2582,1120.9707 Q1128.7514,1120.9707 1127.4315,1119.3189 Q1126.1117,1117.667 1126.1117,1114.5459 Q1126.1117,1111.4165 1127.4315,1109.7647 Q1128.7514,1108.1128 1131.2582,1108.1128 Q1131.9638,1108.1128 1132.6112,1108.2622 Q1133.2587,1108.4116 1133.8231,1108.7105 L1133.8231,1111.4331 Q1133.1923,1110.8521 1132.5988,1110.5823 Q1132.0053,1110.3125 1131.3744,1110.3125 Q1130.0297,1110.3125 1129.3449,1111.3792 Q1128.6601,1112.4458 1128.6601,1114.5459 Q1128.6601,1116.6377 1129.3449,1117.7044 Q1130.0297,1118.771 1131.3744,1118.771 Q1132.0053,1118.771 1132.5988,1118.5012 Q1133.1923,1118.2315 1133.8231,1117.6504 Z " fill="#000000"/><text fill="#000000" font-family="sans-serif" font-size="14" lengthAdjust="spacing" textLength="90" x="1150.65" y="1119.521">JobReference</text><line style="stroke:#181818;stroke-width:0.5;" x1="1093.5" x2="1266.5" y1="1130.23" y2="1130.23"/><ellipse cx="1103.5" cy="1143.9741" fill="none" rx="3" ry="3" style="stroke:#038048;stroke-width:1.0;"/><text fill="#000000" font-family="sans-serif" font-size="14" lengthAdjust="spacing" textLength="149" x="1112.5" y="1147.7652">customerCode: String</text><ellipse cx="1103.5" cy="1160.4624" fill="none" rx="3" ry="3" style="stroke:#038048;stroke-width:1.0;"/><text fill="#000000" font-family="sans-serif" font-size="14" lengthAdjust="spacing" textLength="103" x="1112.5" y="1164.2534">jobNumber: int</text><line style="stroke:#181818;stroke-width:0.5;" x1="1093.5" x2="1266.5" y1="1171.2066" y2="1171.2066"/></g><!--class JobOpening--><g id="elem_JobOpening"><rect codeLine="67" fill="#F1F1F1" height="113.9531" id="JobOpening" rx="2.5" ry="2.5" style="stroke:#181818;stroke-width:0.5;" width="336" x="1269" y="890.3"/><ellipse cx="1392.25" cy="906.3" fill="#ADD1B2" rx="11" ry="11" style="stroke:#181818;stroke-width:1.0;"/><path d="M1394.7231,912.4431 Q1394.1421,912.7419 1393.5029,912.8913 Q1392.8638,913.0407 1392.1582,913.0407 Q1389.6514,913.0407 1388.3315,911.3889 Q1387.0117,909.737 1387.0117,906.6159 Q1387.0117,903.4865 1388.3315,901.8347 Q1389.6514,900.1828 1392.1582,900.1828 Q1392.8638,900.1828 1393.5112,900.3322 Q1394.1587,900.4816 1394.7231,900.7805 L1394.7231,903.5031 Q1394.0923,902.9221 1393.4988,902.6523 Q1392.9053,902.3825 1392.2744,902.3825 Q1390.9297,902.3825 1390.2449,903.4492 Q1389.5601,904.5158 1389.5601,906.6159 Q1389.5601,908.7077 1390.2449,909.7744 Q1390.9297,910.841 1392.2744,910.841 Q1392.9053,910.841 1393.4988,910.5712 Q1394.0923,910.3015 1394.7231,909.7204 Z " fill="#000000"/><text fill="#000000" font-family="sans-serif" font-size="14" lengthAdjust="spacing" textLength="81" x="1412.75" y="911.591">JobOpening</text><line style="stroke:#181818;stroke-width:0.5;" x1="1270" x2="1604" y1="922.3" y2="922.3"/><ellipse cx="1280" cy="936.0441" fill="none" rx="3" ry="3" style="stroke:#038048;stroke-width:1.0;"/><text fill="#000000" font-family="sans-serif" font-size="14" lengthAdjust="spacing" textLength="188" x="1289" y="939.8352">jobReference: JobReference</text><ellipse cx="1280" cy="952.5324" fill="none" rx="3" ry="3" style="stroke:#038048;stroke-width:1.0;"/><text fill="#000000" font-family="sans-serif" font-size="14" lengthAdjust="spacing" textLength="275" x="1289" y="956.3234">recruitmentProcess: RecruitmentProcess</text><line style="stroke:#181818;stroke-width:0.5;" x1="1270" x2="1604" y1="963.2766" y2="963.2766"/><ellipse cx="1280" cy="977.0207" fill="#84BE84" rx="3" ry="3" style="stroke:#038048;stroke-width:1.0;"/><text fill="#000000" font-family="sans-serif" font-size="14" lengthAdjust="spacing" textLength="220" x="1289" y="980.8117">getJobReference(): JobReference</text><ellipse cx="1280" cy="993.509" fill="#84BE84" rx="3" ry="3" style="stroke:#038048;stroke-width:1.0;"/><text fill="#000000" font-family="sans-serif" font-size="14" lengthAdjust="spacing" textLength="310" x="1289" y="997.3">getRecruitmentProcess(): RecruitmentProcess</text></g><!--class RecruitmentProcess--><g id="elem_RecruitmentProcess"><rect codeLine="74" fill="#F1F1F1" height="146.9297" id="RecruitmentProcess" rx="2.5" ry="2.5" style="stroke:#181818;stroke-width:0.5;" width="252" x="1307" y="1065.26"/><ellipse cx="1361.25" cy="1081.26" fill="#ADD1B2" rx="11" ry="11" style="stroke:#181818;stroke-width:1.0;"/><path d="M1363.7231,1087.4031 Q1363.1421,1087.7019 1362.5029,1087.8513 Q1361.8638,1088.0007 1361.1582,1088.0007 Q1358.6514,1088.0007 1357.3315,1086.3489 Q1356.0117,1084.697 1356.0117,1081.5759 Q1356.0117,1078.4465 1357.3315,1076.7947 Q1358.6514,1075.1428 1361.1582,1075.1428 Q1361.8638,1075.1428 1362.5112,1075.2922 Q1363.1587,1075.4416 1363.7231,1075.7405 L1363.7231,1078.4631 Q1363.0923,1077.8821 1362.4988,1077.6123 Q1361.9053,1077.3425 1361.2744,1077.3425 Q1359.9297,1077.3425 1359.2449,1078.4092 Q1358.5601,1079.4758 1358.5601,1081.5759 Q1358.5601,1083.6677 1359.2449,1084.7344 Q1359.9297,1085.801 1361.2744,1085.801 Q1361.9053,1085.801 1362.4988,1085.5312 Q1363.0923,1085.2615 1363.7231,1084.6804 Z " fill="#000000"/><text fill="#000000" font-family="sans-serif" font-size="14" lengthAdjust="spacing" textLength="135" x="1381.75" y="1086.551">RecruitmentProcess</text><line style="stroke:#181818;stroke-width:0.5;" x1="1308" x2="1558" y1="1097.26" y2="1097.26"/><ellipse cx="1318" cy="1111.0041" fill="none" rx="3" ry="3" style="stroke:#038048;stroke-width:1.0;"/><text fill="#000000" font-family="sans-serif" font-size="14" lengthAdjust="spacing" textLength="39" x="1327" y="1114.7952">id: int</text><ellipse cx="1318" cy="1127.4924" fill="none" rx="3" ry="3" style="stroke:#038048;stroke-width:1.0;"/><text fill="#000000" font-family="sans-serif" font-size="14" lengthAdjust="spacing" textLength="226" x="1327" y="1131.2834">status: RecruitmentProcessStatus</text><ellipse cx="1318" cy="1143.9807" fill="none" rx="3" ry="3" style="stroke:#038048;stroke-width:1.0;"/><text fill="#000000" font-family="sans-serif" font-size="14" lengthAdjust="spacing" textLength="141" x="1327" y="1147.7717">phases: List&lt;Phase&gt;</text><line style="stroke:#181818;stroke-width:0.5;" x1="1308" x2="1558" y1="1154.7248" y2="1154.7248"/><ellipse cx="1318" cy="1168.469" fill="#84BE84" rx="3" ry="3" style="stroke:#038048;stroke-width:1.0;"/><text fill="#000000" font-family="sans-serif" font-size="14" lengthAdjust="spacing" textLength="148" x="1327" y="1172.26">currentPhase(): Phase</text><ellipse cx="1318" cy="1184.9573" fill="#84BE84" rx="3" ry="3" style="stroke:#038048;stroke-width:1.0;"/><text fill="#000000" font-family="sans-serif" font-size="14" lengthAdjust="spacing" textLength="118" x="1327" y="1188.7483">nextPhase(): void</text><ellipse cx="1318" cy="1201.4455" fill="#84BE84" rx="3" ry="3" style="stroke:#038048;stroke-width:1.0;"/><text fill="#000000" font-family="sans-serif" font-size="14" lengthAdjust="spacing" textLength="146" x="1327" y="1205.2366">previousPhase(): void</text></g><!--class Phase--><g id="elem_Phase"><rect codeLine="83" fill="#F1F1F1" height="113.9531" id="Phase" rx="2.5" ry="2.5" style="stroke:#181818;stroke-width:0.5;" width="159" x="1200.5" y="1289.19"/><ellipse cx="1255.75" cy="1305.19" fill="#ADD1B2" rx="11" ry="11" style="stroke:#181818;stroke-width:1.0;"/><path d="M1258.2231,1311.3331 Q1257.6421,1311.6319 1257.0029,1311.7813 Q1256.3638,1311.9307 1255.6582,1311.9307 Q1253.1514,1311.9307 1251.8315,1310.2789 Q1250.5117,1308.627 1250.5117,1305.5059 Q1250.5117,1302.3765 1251.8315,1300.7247 Q1253.1514,1299.0728 1255.6582,1299.0728 Q1256.3638,1299.0728 1257.0112,1299.2222 Q1257.6587,1299.3716 1258.2231,1299.6705 L1258.2231,1302.3931 Q1257.5923,1301.8121 1256.9988,1301.5423 Q1256.4053,1301.2725 1255.7744,1301.2725 Q1254.4297,1301.2725 1253.7449,1302.3392 Q1253.0601,1303.4058 1253.0601,1305.5059 Q1253.0601,1307.5977 1253.7449,1308.6644 Q1254.4297,1309.731 1255.7744,1309.731 Q1256.4053,1309.731 1256.9988,1309.4612 Q1257.5923,1309.1915 1258.2231,1308.6104 Z " fill="#000000"/><text fill="#000000" font-family="sans-serif" font-size="14" lengthAdjust="spacing" textLength="40" x="1276.25" y="1310.481">Phase</text><line style="stroke:#181818;stroke-width:0.5;" x1="1201.5" x2="1358.5" y1="1321.19" y2="1321.19"/><ellipse cx="1211.5" cy="1334.9341" fill="none" rx="3" ry="3" style="stroke:#038048;stroke-width:1.0;"/><text fill="#000000" font-family="sans-serif" font-size="14" lengthAdjust="spacing" textLength="125" x="1220.5" y="1338.7252">name: PhaseName</text><ellipse cx="1211.5" cy="1351.4224" fill="none" rx="3" ry="3" style="stroke:#038048;stroke-width:1.0;"/><text fill="#000000" font-family="sans-serif" font-size="14" lengthAdjust="spacing" textLength="133" x="1220.5" y="1355.2134">startDate: StartDate</text><ellipse cx="1211.5" cy="1367.9107" fill="none" rx="3" ry="3" style="stroke:#038048;stroke-width:1.0;"/><text fill="#000000" font-family="sans-serif" font-size="14" lengthAdjust="spacing" textLength="122" x="1220.5" y="1371.7017">endDate: EndDate</text><ellipse cx="1211.5" cy="1384.399" fill="none" rx="3" ry="3" style="stroke:#038048;stroke-width:1.0;"/><text fill="#000000" font-family="sans-serif" font-size="14" lengthAdjust="spacing" textLength="131" x="1220.5" y="1388.19">status: PhaseStatus</text><line style="stroke:#181818;stroke-width:0.5;" x1="1201.5" x2="1358.5" y1="1395.1431" y2="1395.1431"/></g><!--class PhaseName--><g id="elem_PhaseName"><rect codeLine="90" fill="#F1F1F1" height="130.4414" id="PhaseName" rx="2.5" ry="2.5" style="stroke:#181818;stroke-width:0.5;" width="111" x="1085.5" y="1464.14"/><ellipse cx="1100.5" cy="1480.14" fill="#EB937F" rx="11" ry="11" style="stroke:#181818;stroke-width:1.0;"/><path d="M1104.1143,1486.64 L1096.3945,1486.64 L1096.3945,1474.2469 L1104.1143,1474.2469 L1104.1143,1476.4051 L1098.8433,1476.4051 L1098.8433,1479.078 L1103.6162,1479.078 L1103.6162,1481.2362 L1098.8433,1481.2362 L1098.8433,1484.4818 L1104.1143,1484.4818 Z " fill="#000000"/><text fill="#000000" font-family="sans-serif" font-size="14" lengthAdjust="spacing" textLength="79" x="1114.5" y="1485.431">PhaseName</text><line style="stroke:#181818;stroke-width:0.5;" x1="1086.5" x2="1195.5" y1="1496.14" y2="1496.14"/><text fill="#000000" font-family="sans-serif" font-size="14" lengthAdjust="spacing" textLength="95" x="1091.5" y="1513.6752">APPLICATION,</text><text fill="#000000" font-family="sans-serif" font-size="14" lengthAdjust="spacing" textLength="81" x="1091.5" y="1530.1634">SCREENING,</text><text fill="#000000" font-family="sans-serif" font-size="14" lengthAdjust="spacing" textLength="85" x="1091.5" y="1546.6517">INTERVIEWS,</text><text fill="#000000" font-family="sans-serif" font-size="14" lengthAdjust="spacing" textLength="70" x="1091.5" y="1563.14">ANALYSIS,</text><text fill="#000000" font-family="sans-serif" font-size="14" lengthAdjust="spacing" textLength="51" x="1091.5" y="1579.6283">RESULT</text><line style="stroke:#181818;stroke-width:0.5;" x1="1086.5" x2="1195.5" y1="1586.5814" y2="1586.5814"/></g><!--class StartDate--><g id="elem_StartDate"><rect codeLine="98" fill="#F1F1F1" height="64.4883" id="StartDate" rx="2.5" ry="2.5" style="stroke:#181818;stroke-width:0.5;" width="95" x="1231.5" y="1497.12"/><ellipse cx="1246.5" cy="1513.12" fill="#ADD1B2" rx="11" ry="11" style="stroke:#181818;stroke-width:1.0;"/><path d="M1248.9731,1519.2631 Q1248.3921,1519.5619 1247.7529,1519.7113 Q1247.1138,1519.8607 1246.4082,1519.8607 Q1243.9014,1519.8607 1242.5815,1518.2089 Q1241.2617,1516.557 1241.2617,1513.4359 Q1241.2617,1510.3065 1242.5815,1508.6547 Q1243.9014,1507.0028 1246.4082,1507.0028 Q1247.1138,1507.0028 1247.7612,1507.1522 Q1248.4087,1507.3016 1248.9731,1507.6005 L1248.9731,1510.3231 Q1248.3423,1509.7421 1247.7488,1509.4723 Q1247.1553,1509.2025 1246.5244,1509.2025 Q1245.1797,1509.2025 1244.4949,1510.2692 Q1243.8101,1511.3358 1243.8101,1513.4359 Q1243.8101,1515.5277 1244.4949,1516.5944 Q1245.1797,1517.661 1246.5244,1517.661 Q1247.1553,1517.661 1247.7488,1517.3912 Q1248.3423,1517.1215 1248.9731,1516.5404 Z " fill="#000000"/><text fill="#000000" font-family="sans-serif" font-size="14" lengthAdjust="spacing" textLength="63" x="1260.5" y="1518.411">StartDate</text><line style="stroke:#181818;stroke-width:0.5;" x1="1232.5" x2="1325.5" y1="1529.12" y2="1529.12"/><ellipse cx="1242.5" cy="1542.8641" fill="none" rx="3" ry="3" style="stroke:#038048;stroke-width:1.0;"/><text fill="#000000" font-family="sans-serif" font-size="14" lengthAdjust="spacing" textLength="69" x="1251.5" y="1546.6552">date: Date</text><line style="stroke:#181818;stroke-width:0.5;" x1="1232.5" x2="1325.5" y1="1553.6083" y2="1553.6083"/></g><!--class EndDate--><g id="elem_EndDate"><rect codeLine="102" fill="#F1F1F1" height="64.4883" id="EndDate" rx="2.5" ry="2.5" style="stroke:#181818;stroke-width:0.5;" width="95" x="1361.5" y="1497.12"/><ellipse cx="1379.2" cy="1513.12" fill="#ADD1B2" rx="11" ry="11" style="stroke:#181818;stroke-width:1.0;"/><path d="M1381.6731,1519.2631 Q1381.0921,1519.5619 1380.4529,1519.7113 Q1379.8138,1519.8607 1379.1082,1519.8607 Q1376.6014,1519.8607 1375.2815,1518.2089 Q1373.9617,1516.557 1373.9617,1513.4359 Q1373.9617,1510.3065 1375.2815,1508.6547 Q1376.6014,1507.0028 1379.1082,1507.0028 Q1379.8138,1507.0028 1380.4612,1507.1522 Q1381.1087,1507.3016 1381.6731,1507.6005 L1381.6731,1510.3231 Q1381.0423,1509.7421 1380.4488,1509.4723 Q1379.8553,1509.2025 1379.2244,1509.2025 Q1377.8797,1509.2025 1377.1949,1510.2692 Q1376.5101,1511.3358 1376.5101,1513.4359 Q1376.5101,1515.5277 1377.1949,1516.5944 Q1377.8797,1517.661 1379.2244,1517.661 Q1379.8553,1517.661 1380.4488,1517.3912 Q1381.0423,1517.1215 1381.6731,1516.5404 Z " fill="#000000"/><text fill="#000000" font-family="sans-serif" font-size="14" lengthAdjust="spacing" textLength="57" x="1393.8" y="1518.411">EndDate</text><line style="stroke:#181818;stroke-width:0.5;" x1="1362.5" x2="1455.5" y1="1529.12" y2="1529.12"/><ellipse cx="1372.5" cy="1542.8641" fill="none" rx="3" ry="3" style="stroke:#038048;stroke-width:1.0;"/><text fill="#000000" font-family="sans-serif" font-size="14" lengthAdjust="spacing" textLength="69" x="1381.5" y="1546.6552">date: Date</text><line style="stroke:#181818;stroke-width:0.5;" x1="1362.5" x2="1455.5" y1="1553.6083" y2="1553.6083"/></g><!--class PhaseStatus--><g id="elem_PhaseStatus"><rect codeLine="106" fill="#F1F1F1" height="80.9766" id="PhaseStatus" rx="2.5" ry="2.5" style="stroke:#181818;stroke-width:0.5;" width="114" x="1491" y="1488.87"/><ellipse cx="1506" cy="1504.87" fill="#EB937F" rx="11" ry="11" style="stroke:#181818;stroke-width:1.0;"/><path d="M1509.6143,1511.37 L1501.8945,1511.37 L1501.8945,1498.9769 L1509.6143,1498.9769 L1509.6143,1501.1351 L1504.3433,1501.1351 L1504.3433,1503.808 L1509.1162,1503.808 L1509.1162,1505.9662 L1504.3433,1505.9662 L1504.3433,1509.2118 L1509.6143,1509.2118 Z " fill="#000000"/><text fill="#000000" font-family="sans-serif" font-size="14" lengthAdjust="spacing" textLength="82" x="1520" y="1510.161">PhaseStatus</text><line style="stroke:#181818;stroke-width:0.5;" x1="1492" x2="1604" y1="1520.87" y2="1520.87"/><text fill="#000000" font-family="sans-serif" font-size="14" lengthAdjust="spacing" textLength="41" x="1497" y="1538.4052">Open,</text><text fill="#000000" font-family="sans-serif" font-size="14" lengthAdjust="spacing" textLength="47" x="1497" y="1554.8934">Closed</text><line style="stroke:#181818;stroke-width:0.5;" x1="1492" x2="1604" y1="1561.8466" y2="1561.8466"/></g><!--class RecruitmentProcessStatus--><g id="elem_RecruitmentProcessStatus"><rect codeLine="111" fill="#F1F1F1" height="97.4648" id="RecruitmentProcessStatus" rx="2.5" ry="2.5" style="stroke:#181818;stroke-width:0.5;" width="209" x="1394.5" y="1297.43"/><ellipse cx="1409.5" cy="1313.43" fill="#EB937F" rx="11" ry="11" style="stroke:#181818;stroke-width:1.0;"/><path d="M1413.1143,1319.93 L1405.3945,1319.93 L1405.3945,1307.5369 L1413.1143,1307.5369 L1413.1143,1309.6951 L1407.8433,1309.6951 L1407.8433,1312.368 L1412.6162,1312.368 L1412.6162,1314.5262 L1407.8433,1314.5262 L1407.8433,1317.7718 L1413.1143,1317.7718 Z " fill="#000000"/><text fill="#000000" font-family="sans-serif" font-size="14" lengthAdjust="spacing" textLength="177" x="1423.5" y="1318.721">RecruitmentProcessStatus</text><line style="stroke:#181818;stroke-width:0.5;" x1="1395.5" x2="1602.5" y1="1329.43" y2="1329.43"/><text fill="#000000" font-family="sans-serif" font-size="14" lengthAdjust="spacing" textLength="79" x="1400.5" y="1346.9652">Uninitiated,</text><text fill="#000000" font-family="sans-serif" font-size="14" lengthAdjust="spacing" textLength="69" x="1400.5" y="1363.4534">InProcess,</text><text fill="#000000" font-family="sans-serif" font-size="14" lengthAdjust="spacing" textLength="58" x="1400.5" y="1379.9417">Finished</text><line style="stroke:#181818;stroke-width:0.5;" x1="1395.5" x2="1602.5" y1="1386.8948" y2="1386.8948"/></g><!--class jobApplication--><g id="elem_jobApplication"><rect codeLine="119" fill="#F1F1F1" height="146.9297" id="jobApplication" rx="2.5" ry="2.5" style="stroke:#181818;stroke-width:0.5;" width="228" x="2054" y="661.37"/><ellipse cx="2113.75" cy="677.37" fill="#ADD1B2" rx="11" ry="11" style="stroke:#181818;stroke-width:1.0;"/><path d="M2116.2231,683.5131 Q2115.6421,683.8119 2115.0029,683.9613 Q2114.3638,684.1107 2113.6582,684.1107 Q2111.1514,684.1107 2109.8315,682.4589 Q2108.5117,680.807 2108.5117,677.6859 Q2108.5117,674.5565 2109.8315,672.9047 Q2111.1514,671.2528 2113.6582,671.2528 Q2114.3638,671.2528 2115.0112,671.4022 Q2115.6587,671.5516 2116.2231,671.8505 L2116.2231,674.5731 Q2115.5923,673.9921 2114.9988,673.7223 Q2114.4053,673.4525 2113.7744,673.4525 Q2112.4297,673.4525 2111.7449,674.5192 Q2111.0601,675.5858 2111.0601,677.6859 Q2111.0601,679.7777 2111.7449,680.8444 Q2112.4297,681.911 2113.7744,681.911 Q2114.4053,681.911 2114.9988,681.6412 Q2115.5923,681.3715 2116.2231,680.7904 Z " fill="#000000"/><text fill="#000000" font-family="sans-serif" font-size="14" lengthAdjust="spacing" textLength="100" x="2134.25" y="682.661">jobApplication</text><line style="stroke:#181818;stroke-width:0.5;" x1="2055" x2="2281" y1="693.37" y2="693.37"/><ellipse cx="2065" cy="707.1141" fill="none" rx="3" ry="3" style="stroke:#038048;stroke-width:1.0;"/><text fill="#000000" font-family="sans-serif" font-size="14" lengthAdjust="spacing" textLength="132" x="2074" y="710.9052">interview: Interview</text><ellipse cx="2065" cy="723.6024" fill="none" rx="3" ry="3" style="stroke:#038048;stroke-width:1.0;"/><text fill="#000000" font-family="sans-serif" font-size="14" lengthAdjust="spacing" textLength="145" x="2074" y="727.3934">candidate: Candidate</text><ellipse cx="2065" cy="740.0907" fill="none" rx="3" ry="3" style="stroke:#038048;stroke-width:1.0;"/><text fill="#000000" font-family="sans-serif" font-size="14" lengthAdjust="spacing" textLength="170" x="2074" y="743.8817">jobOpening: JobOpening</text><line style="stroke:#181818;stroke-width:0.5;" x1="2055" x2="2281" y1="750.8348" y2="750.8348"/><ellipse cx="2065" cy="764.579" fill="#84BE84" rx="3" ry="3" style="stroke:#038048;stroke-width:1.0;"/><text fill="#000000" font-family="sans-serif" font-size="14" lengthAdjust="spacing" textLength="164" x="2074" y="768.37">getInterview(): Interview</text><ellipse cx="2065" cy="781.0673" fill="#84BE84" rx="3" ry="3" style="stroke:#038048;stroke-width:1.0;"/><text fill="#000000" font-family="sans-serif" font-size="14" lengthAdjust="spacing" textLength="180" x="2074" y="784.8583">getCandidate(): Candidate</text><ellipse cx="2065" cy="797.5555" fill="#84BE84" rx="3" ry="3" style="stroke:#038048;stroke-width:1.0;"/><text fill="#000000" font-family="sans-serif" font-size="14" lengthAdjust="spacing" textLength="202" x="2074" y="801.3466">getJobOpening(): JobOpening</text></g><!--class Interview--><g id="elem_Interview"><rect codeLine="128" fill="#F1F1F1" height="80.9766" id="Interview" rx="2.5" ry="2.5" style="stroke:#181818;stroke-width:0.5;" width="225" x="2105.5" y="906.79"/><ellipse cx="2182.75" cy="922.79" fill="#ADD1B2" rx="11" ry="11" style="stroke:#181818;stroke-width:1.0;"/><path d="M2185.2231,928.9331 Q2184.6421,929.2319 2184.0029,929.3813 Q2183.3638,929.5307 2182.6582,929.5307 Q2180.1514,929.5307 2178.8315,927.8789 Q2177.5117,926.227 2177.5117,923.1059 Q2177.5117,919.9765 2178.8315,918.3247 Q2180.1514,916.6728 2182.6582,916.6728 Q2183.3638,916.6728 2184.0112,916.8222 Q2184.6587,916.9716 2185.2231,917.2705 L2185.2231,919.9931 Q2184.5923,919.4121 2183.9988,919.1423 Q2183.4053,918.8725 2182.7744,918.8725 Q2181.4297,918.8725 2180.7449,919.9392 Q2180.0601,921.0058 2180.0601,923.1059 Q2180.0601,925.1977 2180.7449,926.2644 Q2181.4297,927.331 2182.7744,927.331 Q2183.4053,927.331 2183.9988,927.0612 Q2184.5923,926.7915 2185.2231,926.2104 Z " fill="#000000"/><text fill="#000000" font-family="sans-serif" font-size="14" lengthAdjust="spacing" textLength="62" x="2203.25" y="928.081">Interview</text><line style="stroke:#181818;stroke-width:0.5;" x1="2106.5" x2="2329.5" y1="938.79" y2="938.79"/><ellipse cx="2116.5" cy="952.5341" fill="none" rx="3" ry="3" style="stroke:#038048;stroke-width:1.0;"/><text fill="#000000" font-family="sans-serif" font-size="14" lengthAdjust="spacing" textLength="199" x="2125.5" y="956.3252">dateTime: InterviewDateTime</text><ellipse cx="2116.5" cy="969.0224" fill="none" rx="3" ry="3" style="stroke:#038048;stroke-width:1.0;"/><text fill="#000000" font-family="sans-serif" font-size="14" lengthAdjust="spacing" textLength="151" x="2125.5" y="972.8134">grade: InterviewGrade</text><line style="stroke:#181818;stroke-width:0.5;" x1="2106.5" x2="2329.5" y1="979.7666" y2="979.7666"/></g><!--class InterviewDateTime--><g id="elem_InterviewDateTime"><rect codeLine="133" fill="#F1F1F1" height="64.4883" id="InterviewDateTime" rx="2.5" ry="2.5" style="stroke:#181818;stroke-width:0.5;" width="159" x="2053.5" y="1106.48"/><ellipse cx="2068.5" cy="1122.48" fill="#ADD1B2" rx="11" ry="11" style="stroke:#181818;stroke-width:1.0;"/><path d="M2070.9731,1128.6231 Q2070.3921,1128.9219 2069.7529,1129.0713 Q2069.1138,1129.2207 2068.4082,1129.2207 Q2065.9014,1129.2207 2064.5815,1127.5689 Q2063.2617,1125.917 2063.2617,1122.7959 Q2063.2617,1119.6665 2064.5815,1118.0147 Q2065.9014,1116.3628 2068.4082,1116.3628 Q2069.1138,1116.3628 2069.7612,1116.5122 Q2070.4087,1116.6616 2070.9731,1116.9605 L2070.9731,1119.6831 Q2070.3423,1119.1021 2069.7488,1118.8323 Q2069.1553,1118.5625 2068.5244,1118.5625 Q2067.1797,1118.5625 2066.4949,1119.6292 Q2065.8101,1120.6958 2065.8101,1122.7959 Q2065.8101,1124.8877 2066.4949,1125.9544 Q2067.1797,1127.021 2068.5244,1127.021 Q2069.1553,1127.021 2069.7488,1126.7512 Q2070.3423,1126.4815 2070.9731,1125.9004 Z " fill="#000000"/><text fill="#000000" font-family="sans-serif" font-size="14" lengthAdjust="spacing" textLength="127" x="2082.5" y="1127.771">InterviewDateTime</text><line style="stroke:#181818;stroke-width:0.5;" x1="2054.5" x2="2211.5" y1="1138.48" y2="1138.48"/><ellipse cx="2064.5" cy="1152.2241" fill="none" rx="3" ry="3" style="stroke:#038048;stroke-width:1.0;"/><text fill="#000000" font-family="sans-serif" font-size="14" lengthAdjust="spacing" textLength="69" x="2073.5" y="1156.0152">date: Date</text><line style="stroke:#181818;stroke-width:0.5;" x1="2054.5" x2="2211.5" y1="1162.9683" y2="1162.9683"/></g><!--class InterviewGrade--><g id="elem_InterviewGrade"><rect codeLine="137" fill="#F1F1F1" height="64.4883" id="InterviewGrade" rx="2.5" ry="2.5" style="stroke:#181818;stroke-width:0.5;" width="135" x="2247.5" y="1106.48"/><ellipse cx="2262.5" cy="1122.48" fill="#ADD1B2" rx="11" ry="11" style="stroke:#181818;stroke-width:1.0;"/><path d="M2264.9731,1128.6231 Q2264.3921,1128.9219 2263.7529,1129.0713 Q2263.1138,1129.2207 2262.4082,1129.2207 Q2259.9014,1129.2207 2258.5815,1127.5689 Q2257.2617,1125.917 2257.2617,1122.7959 Q2257.2617,1119.6665 2258.5815,1118.0147 Q2259.9014,1116.3628 2262.4082,1116.3628 Q2263.1138,1116.3628 2263.7612,1116.5122 Q2264.4087,1116.6616 2264.9731,1116.9605 L2264.9731,1119.6831 Q2264.3423,1119.1021 2263.7488,1118.8323 Q2263.1553,1118.5625 2262.5244,1118.5625 Q2261.1797,1118.5625 2260.4949,1119.6292 Q2259.8101,1120.6958 2259.8101,1122.7959 Q2259.8101,1124.8877 2260.4949,1125.9544 Q2261.1797,1127.021 2262.5244,1127.021 Q2263.1553,1127.021 2263.7488,1126.7512 Q2264.3423,1126.4815 2264.9731,1125.9004 Z " fill="#000000"/><text fill="#000000" font-family="sans-serif" font-size="14" lengthAdjust="spacing" textLength="103" x="2276.5" y="1127.771">InterviewGrade</text><line style="stroke:#181818;stroke-width:0.5;" x1="2248.5" x2="2381.5" y1="1138.48" y2="1138.48"/><ellipse cx="2258.5" cy="1152.2241" fill="none" rx="3" ry="3" style="stroke:#038048;stroke-width:1.0;"/><text fill="#000000" font-family="sans-serif" font-size="14" lengthAdjust="spacing" textLength="66" x="2267.5" y="1156.0152">grade: int</text><line style="stroke:#181818;stroke-width:0.5;" x1="2248.5" x2="2381.5" y1="1162.9683" y2="1162.9683"/></g><!--link Candidate to Name--><g id="link_Candidate_Name"><path codeLine="142" d="M1839.24,1004.61 C1817.01,1037.76 1793.0611,1073.4863 1774.5511,1101.0963 " fill="none" id="Candidate-to-Name" style="stroke:#181818;stroke-width:1.0;"/><polygon fill="#181818" points="1771.21,1106.08,1779.5441,1100.8319,1773.9943,1101.9269,1772.8992,1096.3771,1771.21,1106.08" style="stroke:#181818;stroke-width:1.0;"/></g><!--link Candidate to EmailAddress--><g id="link_Candidate_EmailAddress"><path codeLine="143" d="M1894.54,1004.61 C1904.87,1037.76 1915.7657,1072.7415 1924.3657,1100.3515 " fill="none" id="Candidate-to-EmailAddress" style="stroke:#181818;stroke-width:1.0;"/><polygon fill="#181818" points="1926.15,1106.08,1927.2925,1096.2976,1924.6631,1101.3062,1919.6545,1098.6767,1926.15,1106.08" style="stroke:#181818;stroke-width:1.0;"/></g><!--link RecruitmentProcess to Phase--><g id="link_RecruitmentProcess_Phase"><path codeLine="144" d="M1378.84,1212.44 C1360.19,1237.49 1343.174,1260.338 1325.634,1283.888 " fill="none" id="RecruitmentProcess-to-Phase" style="stroke:#181818;stroke-width:1.0;"/><polygon fill="#181818" points="1322.05,1288.7,1330.6339,1283.8713,1325.0366,1284.69,1324.2179,1279.0927,1322.05,1288.7" style="stroke:#181818;stroke-width:1.0;"/><text fill="#000000" font-family="sans-serif" font-size="13" lengthAdjust="spacing" textLength="22" x="1357" y="1255.7584">has</text></g><!--link Phase to PhaseName--><g id="link_Phase_PhaseName"><path codeLine="145" d="M1236.78,1403.5 C1222.12,1422.62 1209.2716,1439.3591 1194.1616,1459.0591 " fill="none" id="Phase-to-PhaseName" style="stroke:#181818;stroke-width:1.0;"/><polygon fill="#181818" points="1190.51,1463.82,1199.1613,1459.1131,1193.553,1459.8526,1192.8135,1454.2443,1190.51,1463.82" style="stroke:#181818;stroke-width:1.0;"/></g><!--link Phase to StartDate--><g id="link_Phase_StartDate"><path codeLine="146" d="M1279.69,1403.5 C1279.52,1434.25 1279.355,1465.1801 1279.205,1490.8601 " fill="none" id="Phase-to-StartDate" style="stroke:#181818;stroke-width:1.0;"/><polygon fill="#181818" points="1279.17,1496.86,1283.2225,1487.8835,1279.1992,1491.8601,1275.2226,1487.8368,1279.17,1496.86" style="stroke:#181818;stroke-width:1.0;"/></g><!--link Phase to EndDate--><g id="link_Phase_EndDate"><path codeLine="147" d="M1320.11,1403.5 C1342,1434.25 1364.8092,1466.2928 1383.0992,1491.9728 " fill="none" id="Phase-to-EndDate" style="stroke:#181818;stroke-width:1.0;"/><polygon fill="#181818" points="1386.58,1496.86,1384.617,1487.2088,1383.6794,1492.7874,1378.1007,1491.8498,1386.58,1496.86" style="stroke:#181818;stroke-width:1.0;"/></g><!--link Phase to PhaseStatus--><g id="link_Phase_PhaseStatus"><path codeLine="148" d="M1359.95,1393.5 C1403.81,1419.29 1453.36,1449.13 1474,1464.14 C1484.32,1471.64 1490.3799,1476.3606 1500.2499,1484.8006 " fill="none" id="Phase-to-PhaseStatus" style="stroke:#181818;stroke-width:1.0;"/><polygon fill="#181818" points="1504.81,1488.7,1500.5695,1479.8108,1501.0099,1485.4505,1495.3702,1485.8909,1504.81,1488.7" style="stroke:#181818;stroke-width:1.0;"/></g><!--link RecruitmentProcess to RecruitmentProcessStatus--><g id="link_RecruitmentProcess_RecruitmentProcessStatus"><path codeLine="149" d="M1456.36,1212.44 C1465.37,1240.49 1473.594,1266.0978 1481.684,1291.2678 " fill="none" id="RecruitmentProcess-to-RecruitmentProcessStatus" style="stroke:#181818;stroke-width:1.0;"/><polygon fill="#181818" points="1483.52,1296.98,1484.5742,1287.1877,1481.99,1292.2198,1476.9579,1289.6357,1483.52,1296.98" style="stroke:#181818;stroke-width:1.0;"/></g><!--link Application to Interview--><g id="link_Application_Interview"><path codeLine="150" d="M2448.74,759.21 C2435.04,773.84 2416.56,792.8 2399,808.3 C2359.17,843.48 2316.0841,876.2533 2279.5541,902.7933 " fill="none" id="Application-to-Interview" style="stroke:#181818;stroke-width:1.0;"/><polygon fill="#181818" points="2274.7,906.32,2284.3323,904.2661,2278.7451,903.3811,2279.6301,897.7939,2274.7,906.32" style="stroke:#181818;stroke-width:1.0;"/></g><!--link Interview to InterviewDateTime--><g id="link_Interview_InterviewDateTime"><path codeLine="151" d="M2200.18,987.99 C2184.41,1023.15 2164.1575,1068.2964 2149.5975,1100.7264 " fill="none" id="Interview-to-InterviewDateTime" style="stroke:#181818;stroke-width:1.0;"/><polygon fill="#181818" points="2147.14,1106.2,2154.4753,1099.6279,2149.1879,1101.6386,2147.1771,1096.3512,2147.14,1106.2" style="stroke:#181818;stroke-width:1.0;"/></g><!--link Interview to InterviewGrade--><g id="link_Interview_InterviewGrade"><path codeLine="152" d="M2238.33,987.99 C2256.33,1023.15 2279.5148,1068.4297 2296.1248,1100.8597 " fill="none" id="Interview-to-InterviewGrade" style="stroke:#181818;stroke-width:1.0;"/><polygon fill="#181818" points="2298.86,1106.2,2298.3174,1096.3661,2296.5807,1101.7498,2291.197,1100.013,2298.86,1106.2" style="stroke:#181818;stroke-width:1.0;"/></g><!--link JobOpening to JobReference--><g id="link_JobOpening_JobReference"><path codeLine="153" d="M1360.59,1004.61 C1319.9,1034.6 1275.6495,1067.2097 1238.9295,1094.2797 " fill="none" id="JobOpening-to-JobReference" style="stroke:#181818;stroke-width:1.0;"/><polygon fill="#181818" points="1234.1,1097.84,1243.7178,1095.7192,1238.1246,1094.8731,1238.9707,1089.2799,1234.1,1097.84" style="stroke:#181818;stroke-width:1.0;"/></g><!--link JobOpening to RecruitmentProcess--><g id="link_JobOpening_RecruitmentProcess"><path codeLine="154" d="M1435.81,1004.61 C1435.41,1023.58 1435.0886,1039.0414 1434.6586,1059.0914 " fill="none" id="JobOpening-to-RecruitmentProcess" style="stroke:#181818;stroke-width:1.0;"/><polygon fill="#181818" points="1434.53,1065.09,1438.7221,1056.1778,1434.6372,1060.0911,1430.7239,1056.0063,1434.53,1065.09" style="stroke:#181818;stroke-width:1.0;"/></g><!--link jobApplication to Interview--><g id="link_jobApplication_Interview"><path codeLine="155" d="M2185.28,808.55 C2193.07,841.34 2200.5831,872.9625 2207.1331,900.5325 " fill="none" id="jobApplication-to-Interview" style="stroke:#181818;stroke-width:1.0;"/><polygon fill="#181818" points="2208.52,906.37,2210.3314,896.6891,2207.3643,901.5054,2202.548,898.5383,2208.52,906.37" style="stroke:#181818;stroke-width:1.0;"/></g><!--link jobApplication to Candidate--><g id="link_jobApplication_Candidate"><path codeLine="156" d="M2067.45,808.55 C2030.65,835.17 1994.4623,861.3345 1959.9123,886.3145 " fill="none" id="jobApplication-to-Candidate" style="stroke:#181818;stroke-width:1.0;"/><polygon fill="#181818" points="1955.05,889.83,1964.687,887.7983,1959.1019,886.9004,1959.9997,881.3153,1955.05,889.83" style="stroke:#181818;stroke-width:1.0;"/></g><!--link jobApplication to JobOpening--><g id="link_jobApplication_JobOpening"><path codeLine="157" d="M2053.72,752.28 C1946.36,769.56 1782.15,800.78 1645,847.3 C1611.01,858.83 1580.6971,871.8393 1548.6371,887.2593 " fill="none" id="jobApplication-to-JobOpening" style="stroke:#181818;stroke-width:1.0;"/><polygon fill="#181818" points="1543.23,889.86,1553.0744,889.5637,1547.7359,887.6928,1549.6069,882.3543,1543.23,889.86" style="stroke:#181818;stroke-width:1.0;"/></g><!--link ListOrderedApplicationsUI to ListOrderedApplicationsController--><g id="link_ListOrderedApplicationsUI_ListOrderedApplicationsController"><path codeLine="160" d="M2092.72,128.53 C1903.34,161.78 1600.2696,214.9925 1386.8496,252.4625 " fill="none" id="ListOrderedApplicationsUI-to-ListOrderedApplicationsController" style="stroke:#181818;stroke-width:1.0;"/><polygon fill="#181818" points="1380.94,253.5,1390.4961,255.8834,1385.8647,252.6354,1389.1127,248.0039,1380.94,253.5" style="stroke:#181818;stroke-width:1.0;"/></g><!--link ListOrderedApplicationsController to OrderApplicationsService--><g id="link_ListOrderedApplicationsController_OrderApplicationsService"><path codeLine="161" d="M1251.51,353.25 C1301.65,379.76 1355.5356,408.2559 1403.5656,433.6459 " fill="none" id="ListOrderedApplicationsController-to-OrderApplicationsService" style="stroke:#181818;stroke-width:1.0;"/><polygon fill="#181818" points="1408.87,436.45,1402.7827,428.7076,1404.4496,434.1133,1399.0439,435.7802,1408.87,436.45" style="stroke:#181818;stroke-width:1.0;"/></g><!--link OrderApplicationsService to RecruitmentProcess--><g id="link_OrderApplicationsService_RecruitmentProcess"><path codeLine="162" d="M1452.11,534.76 C1391.56,599.36 1290.45,720.72 1251,847.3 C1230.24,913.9 1219.47,942.03 1251,1004.26 C1263.93,1029.77 1279.61,1047.8229 1302.11,1065.9729 " fill="none" id="OrderApplicationsService-to-RecruitmentProcess" style="stroke:#181818;stroke-width:1.0;stroke-dasharray:7.0,7.0;"/><polygon fill="#181818" points="1306.78,1069.74,1302.2864,1060.976,1302.8883,1066.6007,1297.2636,1067.2026,1306.78,1069.74" style="stroke:#181818;stroke-width:1.0;"/></g><!--link ListOrderedApplicationsUI to Candidate--><g id="link_ListOrderedApplicationsUI_Candidate"><path codeLine="163" d="M2397.28,155.32 C2483.19,195.28 2578,249.64 2578,294.93 C2578,294.93 2578,294.93 2578,735.84 C2578,772 2571.09,788.24 2541,808.3 C2447.72,870.5 2144.62,812.64 2038,847.3 C2008.04,857.04 1982.9719,870.153 1957.0019,886.793 " fill="none" id="ListOrderedApplicationsUI-to-Candidate" style="stroke:#181818;stroke-width:1.0;stroke-dasharray:7.0,7.0;"/><polygon fill="#181818" points="1951.95,890.03,1961.6859,888.5425,1956.1599,887.3325,1957.3699,881.8066,1951.95,890.03" style="stroke:#181818;stroke-width:1.0;"/></g><!--link ListOrderedApplicationsController to JobReference--><g id="link_ListOrderedApplicationsController_JobReference"><path codeLine="164" d="M1145,353.2 C1145,390.48 1145,440.48 1145,484.64 C1145,484.64 1145,484.64 1145,948.28 C1145,1000.62 1156.5311,1053.9734 1166.7011,1092.0334 " fill="none" id="ListOrderedApplicationsController-to-JobReference" style="stroke:#181818;stroke-width:1.0;stroke-dasharray:7.0,7.0;"/><polygon fill="#181818" points="1168.25,1097.83,1169.791,1088.1025,1166.9592,1092.9995,1162.0622,1090.1677,1168.25,1097.83" style="stroke:#181818;stroke-width:1.0;"/></g><!--link ListOrderedApplicationsController to JobOpeningRepository--><g id="link_ListOrderedApplicationsController_JobOpeningRepository"><path codeLine="165" d="M1050.19,353.25 C995.29,385.86 933.3588,422.6562 887.5588,449.8562 " fill="none" id="ListOrderedApplicationsController-to-JobOpeningRepository" style="stroke:#181818;stroke-width:1.0;"/><polygon fill="#181818" points="882.4,452.92,892.1807,451.7636,886.699,450.3669,888.0957,444.8852,882.4,452.92" style="stroke:#181818;stroke-width:1.0;"/></g><!--link ListOrderedApplicationsController to ApplicationRepository--><g id="link_ListOrderedApplicationsController_ApplicationRepository"><path codeLine="166" d="M909.33,326.29 C798.78,342.33 665.76,364.9 548,393.91 C483.71,409.74 418.4519,431.5681 365.1519,450.8581 " fill="none" id="ListOrderedApplicationsController-to-ApplicationRepository" style="stroke:#181818;stroke-width:1.0;"/><polygon fill="#181818" points="359.51,452.9,369.3341,453.5984,364.2116,451.1984,366.6116,446.0759,359.51,452.9" style="stroke:#181818;stroke-width:1.0;"/></g><!--link OrderApplicationsService to jobApplication--><g id="link_OrderApplicationsService_jobApplication"><path codeLine="167" d="M1629.99,534.74 C1753.05,580.29 1930.403,645.9074 2048.043,689.4474 " fill="none" id="OrderApplicationsService-to-jobApplication" style="stroke:#181818;stroke-width:1.0;stroke-dasharray:7.0,7.0;"/><polygon fill="#181818" points="2053.67,691.53,2046.618,684.6548,2048.9809,689.7945,2043.8411,692.1574,2053.67,691.53" style="stroke:#181818;stroke-width:1.0;"/></g><!--SRC=[hLTRRzem57xdLqHxekhQ7n1LI2cb7HK3HEYcFORO1RSXZfn0Lqtyz_aIukCRfTDuWE3p-PplNErKMVwQhN7qD8x-z2B-oOkihgC9gPiPGvXXb5HLGVAi8RIiEvJuN4KvBHj6YmApEBHZs46wVPSHekc6llKlucX5QO6p4iWsE4C5AR6GfWqZvHe8i_hrdh97kbhWPswfp6tO0VW0QDo-Fx0CuJd7DPW17owZFQb9qvVV6CVH2rs1VLpvdX84u9LGyOrpnAmVa2xeMztFG0nKS6vCrOF0xdjA6qlteNVezQesKJgWvoJCGQl4SIgp2fSyQWjSKUuwPUznzEXP1Pk0It1Nubi6swXW1JcbcEr9pcCz2qXWThA2eAp1HifVm9zZzY_yGNRZrzemWXSYOiICuPpjIBF5PJDdDCSrp-l2MGFSgKg7pCmpr7vUSGJTKNIEaHdk61FcDrcDxOuo7DV9CNpt9Trea6TIejlt4mc08avWLWcgMN6ZDGzEzUP_CdjUzhzJX0jkHqgwbifA96EPhDU0WsBQ2O54CSoFaj4s8qKSoPy48GRBm89EiosdBhv3YFc6bXmYVwQxxGeCJeMi6uwADQzK_EymXvx5NzXogU_gXcunKtIiCNkmD42_74rO-UvLSJ33hEl15sUOpY3V8K-VOqn1UEfLkEA8Jz5mF3GBnqgulYpW9qU1shJ6ZNrmdJ31qQv6iUU47STN5-luJ90PBrrZEwzJgPHOy4eCd-CaavDeu2JGd5BomSAK-BS664VZyNZ4Uq9tjH_ZE2zXZh-bh7WfytGXzvirTxA_qkEZNV0bKe2HUWX4JbgmWWKeudAtrImibibyFXaFa-LuDlrg2DBXOZIQZgSFvl9ukXmjVen7FrDpFPacar_fs5fTZDAdoJ8Sjyvn9tP8-drtSjoqKVdaNXqE5J9hksXOqubXGMkCWgf2TMlfVU9ZW3I4aq9MHCjscxbyp-7rnh3hcNFW1F8DElECSXjIt53t1B_5d4Nx63ehm2dWZh9soi5hdJjZEXEYdqBsEAwp8t0Xesh2jRRQ-MPRTWgcC-ejcIKHxTfXxjebsx2ut0EOlEoVOVAexfygtRJcg6WvcMSHKAJl5LTN0tqZC9UTAuLdeWkSR9qu-i9_laYS6dwTg5ElrytvfjVXMBEqW74Mu77ol81LBy1ckUawC6H6nWCOdMvmk0k4SxvQyi1PQdMeozK3C7l20m2zm2iW_7uji1-_It_ykYVq15-mWYyyrzVUg8JfYWtQzuzf2RoHblCyyRwQdhVL_tvwCW9c-lu2]--></g></svg>