<?xml version="1.0" encoding="us-ascii" standalone="no"?><svg xmlns="http://www.w3.org/2000/svg" xmlns:xlink="http://www.w3.org/1999/xlink" contentStyleType="text/css" height="737px" preserveAspectRatio="none" style="width:1555px;height:737px;background:#FFFFFF;" version="1.1" viewBox="0 0 1555 737" width="1555px" zoomAndPan="magnify"><defs/><g><rect fill="#FFFFFF" height="525.6582" style="stroke:#181818;stroke-width:1.0;" width="10" x="275.5" y="112.7988"/><rect fill="#FFFFFF" height="408.416" style="stroke:#181818;stroke-width:1.0;" width="10" x="523.5" y="200.7305"/><rect fill="#FFFFFF" height="29.3105" style="stroke:#181818;stroke-width:1.0;" width="10" x="855.5" y="288.6621"/><rect fill="#FFFFFF" height="173.9316" style="stroke:#181818;stroke-width:1.0;" width="10" x="855.5" y="405.9043"/><rect fill="#FFFFFF" height="28" style="stroke:#181818;stroke-width:1.0;" width="10" x="860.5" y="443.2148"/><rect fill="#FFFFFF" height="28" style="stroke:#181818;stroke-width:1.0;" width="10" x="860.5" y="515.5254"/><rect fill="#FFFFFF" height="29.3105" style="stroke:#181818;stroke-width:1.0;" width="10" x="1035" y="230.041"/><rect fill="#FFFFFF" height="29.3105" style="stroke:#181818;stroke-width:1.0;" width="10" x="1203.5" y="347.2832"/><line style="stroke:#181818;stroke-width:0.5;stroke-dasharray:5.0,5.0;" x1="71" x2="71" y1="81.4883" y2="656.457"/><line style="stroke:#181818;stroke-width:0.5;stroke-dasharray:5.0,5.0;" x1="280" x2="280" y1="81.4883" y2="656.457"/><line style="stroke:#181818;stroke-width:0.5;stroke-dasharray:5.0,5.0;" x1="528" x2="528" y1="81.4883" y2="656.457"/><line style="stroke:#181818;stroke-width:0.5;stroke-dasharray:5.0,5.0;" x1="860" x2="860" y1="81.4883" y2="656.457"/><line style="stroke:#181818;stroke-width:0.5;stroke-dasharray:5.0,5.0;" x1="1040" x2="1040" y1="81.4883" y2="656.457"/><line style="stroke:#181818;stroke-width:0.5;stroke-dasharray:5.0,5.0;" x1="1208" x2="1208" y1="81.4883" y2="656.457"/><line style="stroke:#181818;stroke-width:0.5;stroke-dasharray:5.0,5.0;" x1="1367" x2="1367" y1="81.4883" y2="656.457"/><line style="stroke:#181818;stroke-width:0.5;stroke-dasharray:5.0,5.0;" x1="1501" x2="1501" y1="81.4883" y2="656.457"/><text fill="#000000" font-family="sans-serif" font-size="14" lengthAdjust="spacing" textLength="127" x="5" y="78.5352">CustomerManager</text><ellipse cx="71.5" cy="13.5" fill="#E2E2F0" rx="8" ry="8" style="stroke:#181818;stroke-width:0.5;"/><path d="M71.5,21.5 L71.5,48.5 M58.5,29.5 L84.5,29.5 M71.5,48.5 L58.5,63.5 M71.5,48.5 L84.5,63.5 " fill="none" style="stroke:#181818;stroke-width:0.5;"/><text fill="#000000" font-family="sans-serif" font-size="14" lengthAdjust="spacing" textLength="127" x="5" y="668.9922">CustomerManager</text><ellipse cx="71.5" cy="680.4453" fill="#E2E2F0" rx="8" ry="8" style="stroke:#181818;stroke-width:0.5;"/><path d="M71.5,688.4453 L71.5,715.4453 M58.5,696.4453 L84.5,696.4453 M71.5,715.4453 L58.5,730.4453 M71.5,715.4453 L84.5,730.4453 " fill="none" style="stroke:#181818;stroke-width:0.5;"/><text fill="#000000" font-family="sans-serif" font-size="14" lengthAdjust="spacing" textLength="179" x="188" y="78.5352">ListOrderedApplicationsUI</text><path d="M260,37 L260,61 M260,49 L277,49 " fill="none" style="stroke:#181818;stroke-width:0.5;"/><ellipse cx="289" cy="49" fill="#E2E2F0" rx="12" ry="12" style="stroke:#181818;stroke-width:0.5;"/><text fill="#000000" font-family="sans-serif" font-size="14" lengthAdjust="spacing" textLength="179" x="188" y="668.9922">ListOrderedApplicationsUI</text><path d="M260,675.9453 L260,699.9453 M260,687.9453 L277,687.9453 " fill="none" style="stroke:#181818;stroke-width:0.5;"/><ellipse cx="289" cy="687.9453" fill="#E2E2F0" rx="12" ry="12" style="stroke:#181818;stroke-width:0.5;"/><text fill="#000000" font-family="sans-serif" font-size="14" lengthAdjust="spacing" textLength="235" x="408" y="78.5352">ListOrderedApplicationsController</text><ellipse cx="528.5" cy="49" fill="#E2E2F0" rx="12" ry="12" style="stroke:#181818;stroke-width:0.5;"/><polygon fill="#181818" points="524.5,37,530.5,32,528.5,37,530.5,42,524.5,37" style="stroke:#181818;stroke-width:1.0;"/><text fill="#000000" font-family="sans-serif" font-size="14" lengthAdjust="spacing" textLength="235" x="408" y="668.9922">ListOrderedApplicationsController</text><ellipse cx="528.5" cy="687.9453" fill="#E2E2F0" rx="12" ry="12" style="stroke:#181818;stroke-width:0.5;"/><polygon fill="#181818" points="524.5,675.9453,530.5,670.9453,528.5,675.9453,530.5,680.9453,524.5,675.9453" style="stroke:#181818;stroke-width:1.0;"/><text fill="#000000" font-family="sans-serif" font-size="14" lengthAdjust="spacing" textLength="173" x="771" y="78.5352">OrderApplicationsService</text><ellipse cx="860.5" cy="49" fill="#E2E2F0" rx="12" ry="12" style="stroke:#181818;stroke-width:0.5;"/><polygon fill="#181818" points="856.5,37,862.5,32,860.5,37,862.5,42,856.5,37" style="stroke:#181818;stroke-width:1.0;"/><text fill="#000000" font-family="sans-serif" font-size="14" lengthAdjust="spacing" textLength="173" x="771" y="668.9922">OrderApplicationsService</text><ellipse cx="860.5" cy="687.9453" fill="#E2E2F0" rx="12" ry="12" style="stroke:#181818;stroke-width:0.5;"/><polygon fill="#181818" points="856.5,675.9453,862.5,670.9453,860.5,675.9453,862.5,680.9453,856.5,675.9453" style="stroke:#181818;stroke-width:1.0;"/><text fill="#000000" font-family="sans-serif" font-size="14" lengthAdjust="spacing" textLength="154" x="960" y="78.5352">JobOpeningRepository</text><ellipse cx="1040" cy="49" fill="#E2E2F0" rx="12" ry="12" style="stroke:#181818;stroke-width:0.5;"/><line style="stroke:#181818;stroke-width:0.5;" x1="1028" x2="1052" y1="63" y2="63"/><text fill="#000000" font-family="sans-serif" font-size="14" lengthAdjust="spacing" textLength="154" x="960" y="668.9922">JobOpeningRepository</text><ellipse cx="1040" cy="687.9453" fill="#E2E2F0" rx="12" ry="12" style="stroke:#181818;stroke-width:0.5;"/><line style="stroke:#181818;stroke-width:0.5;" x1="1028" x2="1052" y1="701.9453" y2="701.9453"/><text fill="#000000" font-family="sans-serif" font-size="14" lengthAdjust="spacing" textLength="151" x="1130" y="78.5352">ApplicationRepository</text><ellipse cx="1208.5" cy="49" fill="#E2E2F0" rx="12" ry="12" style="stroke:#181818;stroke-width:0.5;"/><line style="stroke:#181818;stroke-width:0.5;" x1="1196.5" x2="1220.5" y1="63" y2="63"/><text fill="#000000" font-family="sans-serif" font-size="14" lengthAdjust="spacing" textLength="151" x="1130" y="668.9922">ApplicationRepository</text><ellipse cx="1208.5" cy="687.9453" fill="#E2E2F0" rx="12" ry="12" style="stroke:#181818;stroke-width:0.5;"/><line style="stroke:#181818;stroke-width:0.5;" x1="1196.5" x2="1220.5" y1="701.9453" y2="701.9453"/><text fill="#000000" font-family="sans-serif" font-size="14" lengthAdjust="spacing" textLength="135" x="1297" y="78.5352">RecruitmentProcess</text><ellipse cx="1367.5" cy="49" fill="#E2E2F0" rx="12" ry="12" style="stroke:#181818;stroke-width:0.5;"/><line style="stroke:#181818;stroke-width:0.5;" x1="1355.5" x2="1379.5" y1="63" y2="63"/><text fill="#000000" font-family="sans-serif" font-size="14" lengthAdjust="spacing" textLength="135" x="1297" y="668.9922">RecruitmentProcess</text><ellipse cx="1367.5" cy="687.9453" fill="#E2E2F0" rx="12" ry="12" style="stroke:#181818;stroke-width:0.5;"/><line style="stroke:#181818;stroke-width:0.5;" x1="1355.5" x2="1379.5" y1="701.9453" y2="701.9453"/><text fill="#000000" font-family="sans-serif" font-size="14" lengthAdjust="spacing" textLength="100" x="1448" y="78.5352">jobApplication</text><ellipse cx="1501" cy="49" fill="#E2E2F0" rx="12" ry="12" style="stroke:#181818;stroke-width:0.5;"/><line style="stroke:#181818;stroke-width:0.5;" x1="1489" x2="1513" y1="63" y2="63"/><text fill="#000000" font-family="sans-serif" font-size="14" lengthAdjust="spacing" textLength="100" x="1448" y="668.9922">jobApplication</text><ellipse cx="1501" cy="687.9453" fill="#E2E2F0" rx="12" ry="12" style="stroke:#181818;stroke-width:0.5;"/><line style="stroke:#181818;stroke-width:0.5;" x1="1489" x2="1513" y1="701.9453" y2="701.9453"/><rect fill="#FFFFFF" height="525.6582" style="stroke:#181818;stroke-width:1.0;" width="10" x="275.5" y="112.7988"/><rect fill="#FFFFFF" height="408.416" style="stroke:#181818;stroke-width:1.0;" width="10" x="523.5" y="200.7305"/><rect fill="#FFFFFF" height="29.3105" style="stroke:#181818;stroke-width:1.0;" width="10" x="855.5" y="288.6621"/><rect fill="#FFFFFF" height="173.9316" style="stroke:#181818;stroke-width:1.0;" width="10" x="855.5" y="405.9043"/><rect fill="#FFFFFF" height="28" style="stroke:#181818;stroke-width:1.0;" width="10" x="860.5" y="443.2148"/><rect fill="#FFFFFF" height="28" style="stroke:#181818;stroke-width:1.0;" width="10" x="860.5" y="515.5254"/><rect fill="#FFFFFF" height="29.3105" style="stroke:#181818;stroke-width:1.0;" width="10" x="1035" y="230.041"/><rect fill="#FFFFFF" height="29.3105" style="stroke:#181818;stroke-width:1.0;" width="10" x="1203.5" y="347.2832"/><polygon fill="#181818" points="263.5,108.7988,273.5,112.7988,263.5,116.7988,267.5,112.7988" style="stroke:#181818;stroke-width:1.0;"/><line style="stroke:#181818;stroke-width:1.0;" x1="71.5" x2="269.5" y1="112.7988" y2="112.7988"/><text fill="#000000" font-family="sans-serif" font-size="13" lengthAdjust="spacing" textLength="57" x="78.5" y="108.0566">doShow()</text><polygon fill="#181818" points="82.5,138.1094,72.5,142.1094,82.5,146.1094,78.5,142.1094" style="stroke:#181818;stroke-width:1.0;"/><line style="stroke:#181818;stroke-width:1.0;" x1="76.5" x2="274.5" y1="142.1094" y2="142.1094"/><text fill="#000000" font-family="sans-serif" font-size="13" lengthAdjust="spacing" textLength="131" x="88.5" y="137.3672">askForJobReference()</text><polygon fill="#181818" points="263.5,167.4199,273.5,171.4199,263.5,175.4199,267.5,171.4199" style="stroke:#181818;stroke-width:1.0;"/><line style="stroke:#181818;stroke-width:1.0;" x1="71.5" x2="269.5" y1="171.4199" y2="171.4199"/><text fill="#000000" font-family="sans-serif" font-size="13" lengthAdjust="spacing" textLength="119" x="78.5" y="166.6777">Input job reference</text><polygon fill="#181818" points="511.5,196.7305,521.5,200.7305,511.5,204.7305,515.5,200.7305" style="stroke:#181818;stroke-width:1.0;"/><line style="stroke:#181818;stroke-width:1.0;" x1="285.5" x2="517.5" y1="200.7305" y2="200.7305"/><text fill="#000000" font-family="sans-serif" font-size="13" lengthAdjust="spacing" textLength="219" x="292.5" y="195.9883">validateJobReference(jobReference)</text><polygon fill="#181818" points="1023,226.041,1033,230.041,1023,234.041,1027,230.041" style="stroke:#181818;stroke-width:1.0;"/><line style="stroke:#181818;stroke-width:1.0;" x1="533.5" x2="1029" y1="230.041" y2="230.041"/><text fill="#000000" font-family="sans-serif" font-size="13" lengthAdjust="spacing" textLength="209" x="540.5" y="225.2988">findByJobReference(jobReference)</text><polygon fill="#181818" points="544.5,255.3516,534.5,259.3516,544.5,263.3516,540.5,259.3516" style="stroke:#181818;stroke-width:1.0;"/><line style="stroke:#181818;stroke-width:1.0;stroke-dasharray:2.0,2.0;" x1="538.5" x2="1039" y1="259.3516" y2="259.3516"/><text fill="#000000" font-family="sans-serif" font-size="13" lengthAdjust="spacing" textLength="73" x="550.5" y="254.6094">JobOpening</text><polygon fill="#181818" points="843.5,284.6621,853.5,288.6621,843.5,292.6621,847.5,288.6621" style="stroke:#181818;stroke-width:1.0;"/><line style="stroke:#181818;stroke-width:1.0;" x1="533.5" x2="849.5" y1="288.6621" y2="288.6621"/><text fill="#000000" font-family="sans-serif" font-size="13" lengthAdjust="spacing" textLength="303" x="540.5" y="283.9199">create(recruitmentProcess : RecruitmentProcess)</text><polygon fill="#181818" points="544.5,313.9727,534.5,317.9727,544.5,321.9727,540.5,317.9727" style="stroke:#181818;stroke-width:1.0;"/><line style="stroke:#181818;stroke-width:1.0;stroke-dasharray:2.0,2.0;" x1="538.5" x2="859.5" y1="317.9727" y2="317.9727"/><text fill="#000000" font-family="sans-serif" font-size="13" lengthAdjust="spacing" textLength="156" x="550.5" y="313.2305">orderApplicationsService</text><polygon fill="#181818" points="1191.5,343.2832,1201.5,347.2832,1191.5,351.2832,1195.5,347.2832" style="stroke:#181818;stroke-width:1.0;"/><line style="stroke:#181818;stroke-width:1.0;" x1="533.5" x2="1197.5" y1="347.2832" y2="347.2832"/><text fill="#000000" font-family="sans-serif" font-size="13" lengthAdjust="spacing" textLength="209" x="540.5" y="342.541">findByJobReference(jobReference)</text><polygon fill="#181818" points="544.5,372.5938,534.5,376.5938,544.5,380.5938,540.5,376.5938" style="stroke:#181818;stroke-width:1.0;"/><line style="stroke:#181818;stroke-width:1.0;stroke-dasharray:2.0,2.0;" x1="538.5" x2="1207.5" y1="376.5938" y2="376.5938"/><text fill="#000000" font-family="sans-serif" font-size="13" lengthAdjust="spacing" textLength="135" x="550.5" y="371.8516">List&lt;jobApplication&gt;</text><polygon fill="#181818" points="843.5,401.9043,853.5,405.9043,843.5,409.9043,847.5,405.9043" style="stroke:#181818;stroke-width:1.0;"/><line style="stroke:#181818;stroke-width:1.0;" x1="533.5" x2="849.5" y1="405.9043" y2="405.9043"/><text fill="#000000" font-family="sans-serif" font-size="13" lengthAdjust="spacing" textLength="250" x="540.5" y="401.1621">orderedListOfApplications(applications)</text><line style="stroke:#181818;stroke-width:1.0;" x1="870.5" x2="912.5" y1="435.2148" y2="435.2148"/><line style="stroke:#181818;stroke-width:1.0;" x1="912.5" x2="912.5" y1="435.2148" y2="448.2148"/><line style="stroke:#181818;stroke-width:1.0;" x1="871.5" x2="912.5" y1="448.2148" y2="448.2148"/><polygon fill="#181818" points="881.5,444.2148,871.5,448.2148,881.5,452.2148,877.5,448.2148" style="stroke:#181818;stroke-width:1.0;"/><text fill="#000000" font-family="sans-serif" font-size="13" lengthAdjust="spacing" textLength="140" x="877.5" y="430.4727">validateCurrentPhase()</text><line style="stroke:#181818;stroke-width:1.0;" x1="870.5" x2="912.5" y1="507.5254" y2="507.5254"/><line style="stroke:#181818;stroke-width:1.0;" x1="912.5" x2="912.5" y1="507.5254" y2="520.5254"/><line style="stroke:#181818;stroke-width:1.0;" x1="871.5" x2="912.5" y1="520.5254" y2="520.5254"/><polygon fill="#181818" points="881.5,516.5254,871.5,520.5254,881.5,524.5254,877.5,520.5254" style="stroke:#181818;stroke-width:1.0;"/><text fill="#000000" font-family="sans-serif" font-size="13" lengthAdjust="spacing" textLength="110" x="877.5" y="502.7832">sort(applications)</text><polygon fill="#181818" points="544.5,575.8359,534.5,579.8359,544.5,583.8359,540.5,579.8359" style="stroke:#181818;stroke-width:1.0;"/><line style="stroke:#181818;stroke-width:1.0;stroke-dasharray:2.0,2.0;" x1="538.5" x2="859.5" y1="579.8359" y2="579.8359"/><text fill="#000000" font-family="sans-serif" font-size="13" lengthAdjust="spacing" textLength="135" x="550.5" y="575.0938">List&lt;jobApplication&gt;</text><polygon fill="#181818" points="296.5,605.1465,286.5,609.1465,296.5,613.1465,292.5,609.1465" style="stroke:#181818;stroke-width:1.0;"/><line style="stroke:#181818;stroke-width:1.0;stroke-dasharray:2.0,2.0;" x1="290.5" x2="527.5" y1="609.1465" y2="609.1465"/><text fill="#000000" font-family="sans-serif" font-size="13" lengthAdjust="spacing" textLength="135" x="302.5" y="604.4043">List&lt;jobApplication&gt;</text><polygon fill="#181818" points="82.5,634.457,72.5,638.457,82.5,642.457,78.5,638.457" style="stroke:#181818;stroke-width:1.0;"/><line style="stroke:#181818;stroke-width:1.0;" x1="76.5" x2="279.5" y1="638.457" y2="638.457"/><text fill="#000000" font-family="sans-serif" font-size="13" lengthAdjust="spacing" textLength="180" x="88.5" y="633.7148">Display ordered applications</text><!--SRC=[hLLBRi8m4Dtx55xI1HU8AgIMgX9LAoeG1p3E0AR14uqTgjo-3YYg0JjnIfVEVDvxyukG5ebFAsFn0FGXjDW2iJLMEXTKytTbx9no8CYVoh9GKbY5sgncJAAsX4NCOtes5ovPwtdoydsMG4SbWO6sojRy3TVp4hJIsmMKQ9GZLhSsB-pMk019bR87z_mab61CQzdZsejax4ed7q_Y2ZEUutA7twC79gHLHs6XenmiQcf0hd0pBipNAv9Jl82D2z4I7CmmTZDTLhPHoAdDqSEYjrKPFuf2vKxf1REzz-WlXjTvrklIq0hrFUCRfVFdEeL7S6v27_auhGY_iIo7RfX4YR7HpxWaSCb7T3F2F0lCjQSwkaqnGwfwZ2NsQX45Joj7S9k7j3ny3e9VKsKtBe-NzsBYImv3tjj-F8UUicnyZv7m7YbjPnsDxsBGRloq8ce6RISCZ580KyRXRvGCaXsi_puw_pCZTwr5zxNlWquunWD_KI_Ab8Mesn7bVaCIa5Up7m00]--></g></svg>