<?xml version="1.0" encoding="us-ascii" standalone="no"?><svg xmlns="http://www.w3.org/2000/svg" xmlns:xlink="http://www.w3.org/1999/xlink" contentStyleType="text/css" height="564.6px" preserveAspectRatio="none" style="width:1014px;height:564px;background:#FFFFFF;" version="1.1" viewBox="0 0 1014 564" width="1014.6px" zoomAndPan="magnify"><defs/><g><!--cluster InterviewsModelAgg--><g id="cluster_InterviewsModelAgg"><path d="M739.5,234.3082 L827.1,234.3082 A2.25,2.25 0 0 1 828.6,235.8082 L832.8,249.0809 L1008.9,249.0809 A1.5,1.5 0 0 1 1010.4,250.5809 L1010.4,426.9082 A1.5,1.5 0 0 1 1008.9,428.4082 L739.5,428.4082 A1.5,1.5 0 0 1 738,426.9082 L738,235.8082 A1.5,1.5 0 0 1 739.5,234.3082 " fill="none" style="stroke:#000000;stroke-width:0.8999999999999999;"/><line style="stroke:#000000;stroke-width:0.8999999999999999;" x1="738" x2="832.8" y1="249.0809" y2="249.0809"/><text fill="#000000" font-family="sans-serif" font-size="8.4" font-weight="bold" lengthAdjust="spacing" textLength="87" x="740.4" y="244.5727">InterviewsModelAgg</text></g><!--cluster JobApplicationAgg--><g id="cluster_JobApplicationAgg"><path d="M5.1,3.6082 L84.3,3.6082 A2.25,2.25 0 0 1 85.8,5.1082 L90,18.3809 L456.3,18.3809 A1.5,1.5 0 0 1 457.8,19.8809 L457.8,327.0082 A1.5,1.5 0 0 1 456.3,328.5082 L5.1,328.5082 A1.5,1.5 0 0 1 3.6,327.0082 L3.6,5.1082 A1.5,1.5 0 0 1 5.1,3.6082 " fill="none" style="stroke:#000000;stroke-width:0.8999999999999999;"/><line style="stroke:#000000;stroke-width:0.8999999999999999;" x1="3.6" x2="90" y1="18.3809" y2="18.3809"/><text fill="#000000" font-family="sans-serif" font-size="8.4" font-weight="bold" lengthAdjust="spacing" textLength="78.6" x="6" y="13.8727">JobApplicationAgg</text></g><!--cluster JobOpeningAgg--><g id="cluster_JobOpeningAgg"><path d="M473.7,127.2082 L542.1,127.2082 A2.25,2.25 0 0 1 543.6,128.7082 L547.8,141.9809 L722.1,141.9809 A1.5,1.5 0 0 1 723.6,143.4809 L723.6,559.2082 A1.5,1.5 0 0 1 722.1,560.7082 L473.7,560.7082 A1.5,1.5 0 0 1 472.2,559.2082 L472.2,128.7082 A1.5,1.5 0 0 1 473.7,127.2082 " fill="none" style="stroke:#000000;stroke-width:0.8999999999999999;"/><line style="stroke:#000000;stroke-width:0.8999999999999999;" x1="472.2" x2="547.8" y1="141.9809" y2="141.9809"/><text fill="#000000" font-family="sans-serif" font-size="8.4" font-weight="bold" lengthAdjust="spacing" textLength="67.8" x="474.6" y="137.4727">JobOpeningAgg</text></g><!--class InterviewsModel--><g id="elem_InterviewsModel"><rect codeLine="3" fill="#F1F1F1" height="62.318" id="InterviewsModel" rx="1.5" ry="1.5" style="stroke:#181818;stroke-width:0.3;" width="104.4" x="784.8" y="256.5082"/><ellipse cx="805.14" cy="266.1082" fill="#ADD1B2" rx="6.6" ry="6.6" style="stroke:#181818;stroke-width:0.6;"/><path d="M806.7994,263.6332 Q806.8931,263.502 807.0056,263.4363 Q807.1181,263.3707 807.2494,263.3707 Q807.4744,263.3707 807.615,263.5301 Q807.7556,263.6801 807.7556,264.0457 L807.7556,264.9176 Q807.7556,265.2832 807.615,265.4426 Q807.4744,265.602 807.2494,265.602 Q807.0431,265.602 806.9213,265.4801 Q806.7994,265.3676 806.7338,265.0582 Q806.7056,264.8426 806.5931,264.7301 Q806.3963,264.5051 806.0306,264.3738 Q805.665,264.2426 805.29,264.2426 Q804.8306,264.2426 804.4463,264.4395 Q804.0713,264.6363 803.7713,265.0863 Q803.4806,265.5363 803.4806,266.1551 L803.4806,266.8113 Q803.4806,267.552 804.015,268.0488 Q804.5494,268.5363 805.5056,268.5363 Q806.0681,268.5363 806.4619,268.3863 Q806.6963,268.2926 806.9494,268.0301 Q807.1088,267.8707 807.1931,267.8238 Q807.2869,267.777 807.4088,267.777 Q807.6056,267.777 807.7556,267.9363 Q807.915,268.0863 807.915,268.2926 Q807.915,268.4988 807.7088,268.7426 Q807.4088,269.0895 806.9306,269.2863 Q806.2838,269.5582 805.5056,269.5582 Q804.5963,269.5582 803.8744,269.1832 Q803.2838,268.8832 802.8713,268.2457 Q802.4588,267.5988 802.4588,266.8301 L802.4588,266.1363 Q802.4588,265.3395 802.8244,264.6551 Q803.1994,263.9613 803.8556,263.5957 Q804.5119,263.2207 805.2525,263.2207 Q805.6931,263.2207 806.0775,263.3238 Q806.4713,263.4176 806.7994,263.6332 Z " fill="#000000"/><text fill="#000000" font-family="sans-serif" font-size="8.4" lengthAdjust="spacing" textLength="60" x="816.06" y="269.5863">InterviewsModel</text><line style="stroke:#181818;stroke-width:0.3;" x1="785.4" x2="888.6" y1="275.7082" y2="275.7082"/><ellipse cx="791.4" cy="284.5945" fill="none" rx="1.8" ry="1.8" style="stroke:#038048;stroke-width:0.6;"/><text fill="#000000" font-family="sans-serif" font-size="8.4" lengthAdjust="spacing" textLength="52.2" x="796.8" y="287.1727">id: SpecName</text><ellipse cx="791.4" cy="295.7672" fill="none" rx="1.8" ry="1.8" style="stroke:#038048;stroke-width:0.6;"/><text fill="#000000" font-family="sans-serif" font-size="8.4" lengthAdjust="spacing" textLength="88.8" x="796.8" y="298.3453">description: Description</text><ellipse cx="791.4" cy="306.9398" fill="none" rx="1.8" ry="1.8" style="stroke:#038048;stroke-width:0.6;"/><text fill="#000000" font-family="sans-serif" font-size="8.4" lengthAdjust="spacing" textLength="53.4" x="796.8" y="309.518">jarFile: JarFile</text><line style="stroke:#181818;stroke-width:0.3;" x1="785.4" x2="888.6" y1="314.0262" y2="314.0262"/></g><!--class Description--><g id="elem_Description"><rect codeLine="9" fill="#F1F1F1" height="39.9727" id="Description" rx="1.5" ry="1.5" style="stroke:#181818;stroke-width:0.3;" width="63.6" x="747.6" y="378.6082"/><ellipse cx="757.41" cy="388.2082" fill="#ADD1B2" rx="6.6" ry="6.6" style="stroke:#181818;stroke-width:0.6;"/><path d="M759.0694,385.7332 Q759.1631,385.602 759.2756,385.5363 Q759.3881,385.4707 759.5194,385.4707 Q759.7444,385.4707 759.885,385.6301 Q760.0256,385.7801 760.0256,386.1457 L760.0256,387.0176 Q760.0256,387.3832 759.885,387.5426 Q759.7444,387.702 759.5194,387.702 Q759.3131,387.702 759.1913,387.5801 Q759.0694,387.4676 759.0038,387.1582 Q758.9756,386.9426 758.8631,386.8301 Q758.6662,386.6051 758.3006,386.4738 Q757.935,386.3426 757.56,386.3426 Q757.1006,386.3426 756.7163,386.5395 Q756.3413,386.7363 756.0412,387.1863 Q755.7506,387.6363 755.7506,388.2551 L755.7506,388.9113 Q755.7506,389.652 756.285,390.1488 Q756.8194,390.6363 757.7756,390.6363 Q758.3381,390.6363 758.7319,390.4863 Q758.9663,390.3926 759.2194,390.1301 Q759.3788,389.9707 759.4631,389.9238 Q759.5569,389.877 759.6787,389.877 Q759.8756,389.877 760.0256,390.0363 Q760.185,390.1863 760.185,390.3926 Q760.185,390.5988 759.9787,390.8426 Q759.6787,391.1895 759.2006,391.3863 Q758.5537,391.6582 757.7756,391.6582 Q756.8662,391.6582 756.1444,391.2832 Q755.5537,390.9832 755.1412,390.3457 Q754.7287,389.6988 754.7287,388.9301 L754.7287,388.2363 Q754.7287,387.4395 755.0944,386.7551 Q755.4694,386.0613 756.1256,385.6957 Q756.7819,385.3207 757.5225,385.3207 Q757.9631,385.3207 758.3475,385.4238 Q758.7412,385.5176 759.0694,385.7332 Z " fill="#000000"/><text fill="#000000" font-family="sans-serif" font-size="8.4" lengthAdjust="spacing" textLength="42.6" x="765.99" y="391.6863">Description</text><line style="stroke:#181818;stroke-width:0.3;" x1="748.2" x2="810.6" y1="397.8082" y2="397.8082"/><ellipse cx="754.2" cy="406.6945" fill="none" rx="1.8" ry="1.8" style="stroke:#038048;stroke-width:0.6;"/><text fill="#000000" font-family="sans-serif" font-size="8.4" lengthAdjust="spacing" textLength="48" x="759.6" y="409.2727">name: String</text><line style="stroke:#181818;stroke-width:0.3;" x1="748.2" x2="810.6" y1="413.7809" y2="413.7809"/></g><!--class JarFile--><g id="elem_JarFile"><rect codeLine="13" fill="#F1F1F1" height="39.9727" id="JarFile" rx="1.5" ry="1.5" style="stroke:#181818;stroke-width:0.3;" width="83.4" x="832.5" y="378.6082"/><ellipse cx="859.05" cy="388.2082" fill="#ADD1B2" rx="6.6" ry="6.6" style="stroke:#181818;stroke-width:0.6;"/><path d="M860.7094,385.7332 Q860.8031,385.602 860.9156,385.5363 Q861.0281,385.4707 861.1594,385.4707 Q861.3844,385.4707 861.525,385.6301 Q861.6656,385.7801 861.6656,386.1457 L861.6656,387.0176 Q861.6656,387.3832 861.525,387.5426 Q861.3844,387.702 861.1594,387.702 Q860.9531,387.702 860.8313,387.5801 Q860.7094,387.4676 860.6438,387.1582 Q860.6156,386.9426 860.5031,386.8301 Q860.3063,386.6051 859.9406,386.4738 Q859.575,386.3426 859.2,386.3426 Q858.7406,386.3426 858.3562,386.5395 Q857.9812,386.7363 857.6813,387.1863 Q857.3906,387.6363 857.3906,388.2551 L857.3906,388.9113 Q857.3906,389.652 857.925,390.1488 Q858.4594,390.6363 859.4156,390.6363 Q859.9781,390.6363 860.3719,390.4863 Q860.6062,390.3926 860.8594,390.1301 Q861.0188,389.9707 861.1031,389.9238 Q861.1969,389.877 861.3188,389.877 Q861.5156,389.877 861.6656,390.0363 Q861.825,390.1863 861.825,390.3926 Q861.825,390.5988 861.6188,390.8426 Q861.3188,391.1895 860.8406,391.3863 Q860.1938,391.6582 859.4156,391.6582 Q858.5063,391.6582 857.7844,391.2832 Q857.1938,390.9832 856.7813,390.3457 Q856.3688,389.6988 856.3688,388.9301 L856.3688,388.2363 Q856.3688,387.4395 856.7344,386.7551 Q857.1094,386.0613 857.7656,385.6957 Q858.4219,385.3207 859.1625,385.3207 Q859.6031,385.3207 859.9875,385.4238 Q860.3813,385.5176 860.7094,385.7332 Z " fill="#000000"/><text fill="#000000" font-family="sans-serif" font-size="8.4" lengthAdjust="spacing" textLength="25.2" x="871.35" y="391.6863">JarFile</text><line style="stroke:#181818;stroke-width:0.3;" x1="833.1" x2="915.3" y1="397.8082" y2="397.8082"/><ellipse cx="839.1" cy="406.6945" fill="none" rx="1.8" ry="1.8" style="stroke:#038048;stroke-width:0.6;"/><text fill="#000000" font-family="sans-serif" font-size="8.4" lengthAdjust="spacing" textLength="67.8" x="844.5" y="409.2727">jarFilePath: String</text><line style="stroke:#181818;stroke-width:0.3;" x1="833.1" x2="915.3" y1="413.7809" y2="413.7809"/></g><!--class SpecName--><g id="elem_SpecName"><rect codeLine="16" fill="#F1F1F1" height="39.9727" id="SpecName" rx="1.5" ry="1.5" style="stroke:#181818;stroke-width:0.3;" width="63.6" x="937.2" y="378.6082"/><ellipse cx="947.82" cy="388.2082" fill="#ADD1B2" rx="6.6" ry="6.6" style="stroke:#181818;stroke-width:0.6;"/><path d="M949.4794,385.7332 Q949.5731,385.602 949.6856,385.5363 Q949.7981,385.4707 949.9294,385.4707 Q950.1544,385.4707 950.295,385.6301 Q950.4356,385.7801 950.4356,386.1457 L950.4356,387.0176 Q950.4356,387.3832 950.295,387.5426 Q950.1544,387.702 949.9294,387.702 Q949.7231,387.702 949.6012,387.5801 Q949.4794,387.4676 949.4137,387.1582 Q949.3856,386.9426 949.2731,386.8301 Q949.0763,386.6051 948.7106,386.4738 Q948.345,386.3426 947.97,386.3426 Q947.5106,386.3426 947.1263,386.5395 Q946.7513,386.7363 946.4513,387.1863 Q946.1606,387.6363 946.1606,388.2551 L946.1606,388.9113 Q946.1606,389.652 946.695,390.1488 Q947.2294,390.6363 948.1856,390.6363 Q948.7481,390.6363 949.1419,390.4863 Q949.3763,390.3926 949.6294,390.1301 Q949.7887,389.9707 949.8731,389.9238 Q949.9669,389.877 950.0888,389.877 Q950.2856,389.877 950.4356,390.0363 Q950.595,390.1863 950.595,390.3926 Q950.595,390.5988 950.3888,390.8426 Q950.0888,391.1895 949.6106,391.3863 Q948.9638,391.6582 948.1856,391.6582 Q947.2763,391.6582 946.5544,391.2832 Q945.9638,390.9832 945.5513,390.3457 Q945.1388,389.6988 945.1388,388.9301 L945.1388,388.2363 Q945.1388,387.4395 945.5044,386.7551 Q945.8794,386.0613 946.5356,385.6957 Q947.1919,385.3207 947.9325,385.3207 Q948.3731,385.3207 948.7575,385.4238 Q949.1513,385.5176 949.4794,385.7332 Z " fill="#000000"/><text fill="#000000" font-family="sans-serif" font-size="8.4" lengthAdjust="spacing" textLength="40.8" x="956.58" y="391.6863">SpecName</text><line style="stroke:#181818;stroke-width:0.3;" x1="937.8" x2="1000.2" y1="397.8082" y2="397.8082"/><ellipse cx="943.8" cy="406.6945" fill="none" rx="1.8" ry="1.8" style="stroke:#038048;stroke-width:0.6;"/><text fill="#000000" font-family="sans-serif" font-size="8.4" lengthAdjust="spacing" textLength="48" x="949.2" y="409.2727">name: String</text><line style="stroke:#181818;stroke-width:0.3;" x1="937.8" x2="1000.2" y1="413.7809" y2="413.7809"/></g><!--class JobApplication--><g id="elem_JobApplication"><rect codeLine="26" fill="#F1F1F1" height="62.318" id="JobApplication" rx="1.5" ry="1.5" style="stroke:#181818;stroke-width:0.3;" width="174" x="196.2" y="25.8082"/><ellipse cx="253.35" cy="35.4082" fill="#ADD1B2" rx="6.6" ry="6.6" style="stroke:#181818;stroke-width:0.6;"/><path d="M255.0094,32.9332 Q255.1031,32.802 255.2156,32.7363 Q255.3281,32.6707 255.4594,32.6707 Q255.6844,32.6707 255.825,32.8301 Q255.9656,32.9801 255.9656,33.3457 L255.9656,34.2176 Q255.9656,34.5832 255.825,34.7426 Q255.6844,34.902 255.4594,34.902 Q255.2531,34.902 255.1313,34.7801 Q255.0094,34.6676 254.9438,34.3582 Q254.9156,34.1426 254.8031,34.0301 Q254.6063,33.8051 254.2406,33.6738 Q253.875,33.5426 253.5,33.5426 Q253.0406,33.5426 252.6563,33.7395 Q252.2813,33.9363 251.9813,34.3863 Q251.6906,34.8363 251.6906,35.4551 L251.6906,36.1113 Q251.6906,36.852 252.225,37.3488 Q252.7594,37.8363 253.7156,37.8363 Q254.2781,37.8363 254.6719,37.6863 Q254.9063,37.5926 255.1594,37.3301 Q255.3188,37.1707 255.4031,37.1238 Q255.4969,37.077 255.6187,37.077 Q255.8156,37.077 255.9656,37.2363 Q256.125,37.3863 256.125,37.5926 Q256.125,37.7988 255.9188,38.0426 Q255.6187,38.3895 255.1406,38.5863 Q254.4937,38.8582 253.7156,38.8582 Q252.8062,38.8582 252.0844,38.4832 Q251.4937,38.1832 251.0812,37.5457 Q250.6688,36.8988 250.6688,36.1301 L250.6688,35.4363 Q250.6688,34.6395 251.0344,33.9551 Q251.4094,33.2613 252.0656,32.8957 Q252.7219,32.5207 253.4625,32.5207 Q253.9031,32.5207 254.2875,32.6238 Q254.6812,32.7176 255.0094,32.9332 Z " fill="#000000"/><text fill="#000000" font-family="sans-serif" font-size="8.4" lengthAdjust="spacing" textLength="54.6" x="265.65" y="38.8863">JobApplication</text><line style="stroke:#181818;stroke-width:0.3;" x1="196.8" x2="369.6" y1="45.0082" y2="45.0082"/><ellipse cx="202.8" cy="53.8945" fill="none" rx="1.8" ry="1.8" style="stroke:#038048;stroke-width:0.6;"/><text fill="#000000" font-family="sans-serif" font-size="8.4" lengthAdjust="spacing" textLength="30.6" x="208.2" y="56.4727">id: Long</text><ellipse cx="202.8" cy="65.0672" fill="none" rx="1.8" ry="1.8" style="stroke:#038048;stroke-width:0.6;"/><text fill="#000000" font-family="sans-serif" font-size="8.4" lengthAdjust="spacing" textLength="158.4" x="208.2" y="67.6453">interviewsEvaluation: InterviewsEvaluation</text><ellipse cx="202.8" cy="76.2398" fill="none" rx="1.8" ry="1.8" style="stroke:#038048;stroke-width:0.6;"/><text fill="#000000" font-family="sans-serif" font-size="8.4" lengthAdjust="spacing" textLength="56.4" x="208.2" y="78.818">files: List&lt;File&gt;</text><line style="stroke:#181818;stroke-width:0.3;" x1="196.8" x2="369.6" y1="83.3262" y2="83.3262"/></g><!--class File--><g id="elem_File"><rect codeLine="32" fill="#F1F1F1" height="62.318" id="File" rx="1.5" ry="1.5" style="stroke:#181818;stroke-width:0.3;" width="72" x="115.8" y="143.7082"/><ellipse cx="142.35" cy="153.3082" fill="#ADD1B2" rx="6.6" ry="6.6" style="stroke:#181818;stroke-width:0.6;"/><path d="M144.0094,150.8332 Q144.1031,150.702 144.2156,150.6363 Q144.3281,150.5707 144.4594,150.5707 Q144.6844,150.5707 144.825,150.7301 Q144.9656,150.8801 144.9656,151.2457 L144.9656,152.1176 Q144.9656,152.4832 144.825,152.6426 Q144.6844,152.802 144.4594,152.802 Q144.2531,152.802 144.1313,152.6801 Q144.0094,152.5676 143.9438,152.2582 Q143.9156,152.0426 143.8031,151.9301 Q143.6063,151.7051 143.2406,151.5738 Q142.875,151.4426 142.5,151.4426 Q142.0406,151.4426 141.6563,151.6395 Q141.2813,151.8363 140.9813,152.2863 Q140.6906,152.7363 140.6906,153.3551 L140.6906,154.0113 Q140.6906,154.752 141.225,155.2488 Q141.7594,155.7363 142.7156,155.7363 Q143.2781,155.7363 143.6719,155.5863 Q143.9063,155.4926 144.1594,155.2301 Q144.3188,155.0707 144.4031,155.0238 Q144.4969,154.977 144.6188,154.977 Q144.8156,154.977 144.9656,155.1363 Q145.125,155.2863 145.125,155.4926 Q145.125,155.6988 144.9188,155.9426 Q144.6188,156.2895 144.1406,156.4863 Q143.4938,156.7582 142.7156,156.7582 Q141.8063,156.7582 141.0844,156.3832 Q140.4938,156.0832 140.0812,155.4457 Q139.6688,154.7988 139.6688,154.0301 L139.6688,153.3363 Q139.6688,152.5395 140.0344,151.8551 Q140.4094,151.1613 141.0656,150.7957 Q141.7219,150.4207 142.4625,150.4207 Q142.9031,150.4207 143.2875,150.5238 Q143.6813,150.6176 144.0094,150.8332 Z " fill="#000000"/><text fill="#000000" font-family="sans-serif" font-size="8.4" lengthAdjust="spacing" textLength="13.8" x="154.65" y="156.7863">File</text><line style="stroke:#181818;stroke-width:0.3;" x1="116.4" x2="187.2" y1="162.9082" y2="162.9082"/><ellipse cx="122.4" cy="171.7945" fill="none" rx="1.8" ry="1.8" style="stroke:#038048;stroke-width:0.6;"/><text fill="#000000" font-family="sans-serif" font-size="8.4" lengthAdjust="spacing" textLength="30" x="127.8" y="174.3727">id : long</text><ellipse cx="122.4" cy="182.9672" fill="none" rx="1.8" ry="1.8" style="stroke:#038048;stroke-width:0.6;"/><text fill="#000000" font-family="sans-serif" font-size="8.4" lengthAdjust="spacing" textLength="55.2" x="127.8" y="185.5453">path : FilePath</text><ellipse cx="122.4" cy="194.1398" fill="none" rx="1.8" ry="1.8" style="stroke:#038048;stroke-width:0.6;"/><text fill="#000000" font-family="sans-serif" font-size="8.4" lengthAdjust="spacing" textLength="56.4" x="127.8" y="196.718">type : FileType</text><line style="stroke:#181818;stroke-width:0.3;" x1="116.4" x2="187.2" y1="201.2262" y2="201.2262"/></g><!--class FilePath--><g id="elem_FilePath"><rect codeLine="39" fill="#F1F1F1" height="39.9727" id="FilePath" rx="1.5" ry="1.5" style="stroke:#181818;stroke-width:0.3;" width="59.4" x="13.5" y="267.6082"/><ellipse cx="26.55" cy="277.2082" fill="#ADD1B2" rx="6.6" ry="6.6" style="stroke:#181818;stroke-width:0.6;"/><path d="M28.2094,274.7332 Q28.3031,274.602 28.4156,274.5363 Q28.5281,274.4707 28.6594,274.4707 Q28.8844,274.4707 29.025,274.6301 Q29.1656,274.7801 29.1656,275.1457 L29.1656,276.0176 Q29.1656,276.3832 29.025,276.5426 Q28.8844,276.702 28.6594,276.702 Q28.4531,276.702 28.3313,276.5801 Q28.2094,276.4676 28.1438,276.1582 Q28.1156,275.9426 28.0031,275.8301 Q27.8063,275.6051 27.4406,275.4738 Q27.075,275.3426 26.7,275.3426 Q26.2406,275.3426 25.8563,275.5395 Q25.4813,275.7363 25.1813,276.1863 Q24.8906,276.6363 24.8906,277.2551 L24.8906,277.9113 Q24.8906,278.652 25.425,279.1488 Q25.9594,279.6363 26.9156,279.6363 Q27.4781,279.6363 27.8719,279.4863 Q28.1063,279.3926 28.3594,279.1301 Q28.5188,278.9707 28.6031,278.9238 Q28.6969,278.877 28.8187,278.877 Q29.0156,278.877 29.1656,279.0363 Q29.325,279.1863 29.325,279.3926 Q29.325,279.5988 29.1188,279.8426 Q28.8187,280.1895 28.3406,280.3863 Q27.6937,280.6582 26.9156,280.6582 Q26.0062,280.6582 25.2844,280.2832 Q24.6937,279.9832 24.2813,279.3457 Q23.8688,278.6988 23.8688,277.9301 L23.8688,277.2363 Q23.8688,276.4395 24.2344,275.7551 Q24.6094,275.0613 25.2656,274.6957 Q25.9219,274.3207 26.6625,274.3207 Q27.1031,274.3207 27.4875,274.4238 Q27.8812,274.5176 28.2094,274.7332 Z " fill="#000000"/><text fill="#000000" font-family="sans-serif" font-size="8.4" lengthAdjust="spacing" textLength="31.2" x="35.85" y="280.6863">FilePath</text><line style="stroke:#181818;stroke-width:0.3;" x1="14.1" x2="72.3" y1="286.8082" y2="286.8082"/><ellipse cx="20.1" cy="295.6945" fill="none" rx="1.8" ry="1.8" style="stroke:#038048;stroke-width:0.6;"/><text fill="#000000" font-family="sans-serif" font-size="8.4" lengthAdjust="spacing" textLength="43.8" x="25.5" y="298.2727">path: String</text><line style="stroke:#181818;stroke-width:0.3;" x1="14.1" x2="72.3" y1="302.7809" y2="302.7809"/></g><!--class FileType--><g id="elem_FileType"><rect codeLine="43" fill="#F1F1F1" height="51.1453" id="FileType" rx="1.5" ry="1.5" style="stroke:#181818;stroke-width:0.3;" width="115.2" x="94.2" y="262.2082"/><ellipse cx="132.75" cy="271.8082" fill="#EB937F" rx="6.6" ry="6.6" style="stroke:#181818;stroke-width:0.6;"/><path d="M132.0656,272.2863 L132.0656,273.7863 L134.6625,273.7863 L134.6625,273.2332 Q134.6625,272.8676 134.8031,272.7082 Q134.9531,272.5488 135.1781,272.5488 Q135.4031,272.5488 135.5438,272.7082 Q135.6844,272.8676 135.6844,273.2332 L135.6844,274.8082 L130.8844,274.8082 Q130.5094,274.8082 130.35,274.6676 Q130.2,274.527 130.2,274.2926 Q130.2,274.0676 130.3594,273.927 Q130.5187,273.7863 130.8844,273.7863 L131.0438,273.7863 L131.0438,269.7926 L130.8844,269.7926 Q130.5094,269.7926 130.35,269.652 Q130.2,269.5113 130.2,269.277 Q130.2,269.052 130.35,268.9113 Q130.5094,268.7707 130.8844,268.7707 L135.4594,268.7707 L135.4594,270.327 Q135.4594,270.6926 135.3188,270.852 Q135.1875,271.002 134.9531,271.002 Q134.7281,271.002 134.5875,270.852 Q134.4469,270.6926 134.4469,270.327 L134.4469,269.7926 L132.0656,269.7926 L132.0656,271.2645 L132.9562,271.2645 Q132.9562,270.8707 133.0313,270.7582 Q133.1906,270.5145 133.4719,270.5145 Q133.6969,270.5145 133.8375,270.6738 Q133.9781,270.8238 133.9781,271.1895 L133.9781,272.3707 Q133.9781,272.6988 133.9031,272.8113 Q133.7438,273.0457 133.4719,273.0457 Q133.1906,273.0457 133.0313,272.802 Q132.9562,272.6895 132.9562,272.2863 L132.0656,272.2863 Z " fill="#000000"/><text fill="#000000" font-family="sans-serif" font-size="8.4" lengthAdjust="spacing" textLength="33" x="145.05" y="275.2863">FileType</text><line style="stroke:#181818;stroke-width:0.3;" x1="94.8" x2="208.8" y1="281.4082" y2="281.4082"/><text fill="#000000" font-family="sans-serif" font-size="8.4" lengthAdjust="spacing" textLength="108" x="97.8" y="292.8727">CandidateInterviewsAnswers</text><text fill="#000000" font-family="sans-serif" font-size="8.4" lengthAdjust="spacing" textLength="103.8" x="97.8" y="304.0453">CandidateInterviewAnswers</text><line style="stroke:#181818;stroke-width:0.3;" x1="94.8" x2="208.8" y1="308.5535" y2="308.5535"/></g><!--class Interviews--><g id="elem_Interviews"><rect codeLine="49" fill="#F1F1F1" height="51.1453" id="Interviews" rx="1.5" ry="1.5" style="stroke:#181818;stroke-width:0.3;" width="145.8" x="210.3" y="149.4082"/><ellipse cx="262.05" cy="159.0082" fill="#ADD1B2" rx="6.6" ry="6.6" style="stroke:#181818;stroke-width:0.6;"/><path d="M263.7094,156.5332 Q263.8031,156.402 263.9156,156.3363 Q264.0281,156.2707 264.1594,156.2707 Q264.3844,156.2707 264.525,156.4301 Q264.6656,156.5801 264.6656,156.9457 L264.6656,157.8176 Q264.6656,158.1832 264.525,158.3426 Q264.3844,158.502 264.1594,158.502 Q263.9531,158.502 263.8313,158.3801 Q263.7094,158.2676 263.6438,157.9582 Q263.6156,157.7426 263.5031,157.6301 Q263.3063,157.4051 262.9406,157.2738 Q262.575,157.1426 262.2,157.1426 Q261.7406,157.1426 261.3563,157.3395 Q260.9813,157.5363 260.6813,157.9863 Q260.3906,158.4363 260.3906,159.0551 L260.3906,159.7113 Q260.3906,160.452 260.925,160.9488 Q261.4594,161.4363 262.4156,161.4363 Q262.9781,161.4363 263.3719,161.2863 Q263.6063,161.1926 263.8594,160.9301 Q264.0188,160.7707 264.1031,160.7238 Q264.1969,160.677 264.3187,160.677 Q264.5156,160.677 264.6656,160.8363 Q264.825,160.9863 264.825,161.1926 Q264.825,161.3988 264.6188,161.6426 Q264.3187,161.9895 263.8406,162.1863 Q263.1937,162.4582 262.4156,162.4582 Q261.5062,162.4582 260.7844,162.0832 Q260.1937,161.7832 259.7813,161.1457 Q259.3688,160.4988 259.3688,159.7301 L259.3688,159.0363 Q259.3688,158.2395 259.7344,157.5551 Q260.1094,156.8613 260.7656,156.4957 Q261.4219,156.1207 262.1625,156.1207 Q262.6031,156.1207 262.9875,156.2238 Q263.3812,156.3176 263.7094,156.5332 Z " fill="#000000"/><text fill="#000000" font-family="sans-serif" font-size="8.4" lengthAdjust="spacing" textLength="37.2" x="274.35" y="162.4863">Interviews</text><line style="stroke:#181818;stroke-width:0.3;" x1="210.9" x2="355.5" y1="168.6082" y2="168.6082"/><ellipse cx="216.9" cy="177.4945" fill="none" rx="1.8" ry="1.8" style="stroke:#038048;stroke-width:0.6;"/><text fill="#000000" font-family="sans-serif" font-size="8.4" lengthAdjust="spacing" textLength="130.2" x="222.3" y="180.0727">justification : InterviewsJustification</text><ellipse cx="216.9" cy="188.6672" fill="none" rx="1.8" ry="1.8" style="stroke:#038048;stroke-width:0.6;"/><text fill="#000000" font-family="sans-serif" font-size="8.4" lengthAdjust="spacing" textLength="123" x="222.3" y="191.2453">evaluation : InterviewsEvaluation</text><line style="stroke:#181818;stroke-width:0.3;" x1="210.9" x2="355.5" y1="195.7535" y2="195.7535"/></g><!--class InterviewsJustification--><g id="elem_InterviewsJustification"><rect codeLine="55" fill="#F1F1F1" height="39.9727" id="InterviewsJustification" rx="1.5" ry="1.5" style="stroke:#181818;stroke-width:0.3;" width="100.2" x="230.7" y="267.6082"/><ellipse cx="239.7" cy="277.2082" fill="#ADD1B2" rx="6.6" ry="6.6" style="stroke:#181818;stroke-width:0.6;"/><path d="M241.3594,274.7332 Q241.4531,274.602 241.5656,274.5363 Q241.6781,274.4707 241.8094,274.4707 Q242.0344,274.4707 242.175,274.6301 Q242.3156,274.7801 242.3156,275.1457 L242.3156,276.0176 Q242.3156,276.3832 242.175,276.5426 Q242.0344,276.702 241.8094,276.702 Q241.6031,276.702 241.4813,276.5801 Q241.3594,276.4676 241.2938,276.1582 Q241.2656,275.9426 241.1531,275.8301 Q240.9562,275.6051 240.5906,275.4738 Q240.225,275.3426 239.85,275.3426 Q239.3906,275.3426 239.0063,275.5395 Q238.6313,275.7363 238.3312,276.1863 Q238.0406,276.6363 238.0406,277.2551 L238.0406,277.9113 Q238.0406,278.652 238.575,279.1488 Q239.1094,279.6363 240.0656,279.6363 Q240.6281,279.6363 241.0219,279.4863 Q241.2563,279.3926 241.5094,279.1301 Q241.6688,278.9707 241.7531,278.9238 Q241.8469,278.877 241.9688,278.877 Q242.1656,278.877 242.3156,279.0363 Q242.475,279.1863 242.475,279.3926 Q242.475,279.5988 242.2687,279.8426 Q241.9688,280.1895 241.4906,280.3863 Q240.8438,280.6582 240.0656,280.6582 Q239.1563,280.6582 238.4344,280.2832 Q237.8438,279.9832 237.4312,279.3457 Q237.0187,278.6988 237.0187,277.9301 L237.0187,277.2363 Q237.0187,276.4395 237.3844,275.7551 Q237.7594,275.0613 238.4156,274.6957 Q239.0719,274.3207 239.8125,274.3207 Q240.2531,274.3207 240.6375,274.4238 Q241.0313,274.5176 241.3594,274.7332 Z " fill="#000000"/><text fill="#000000" font-family="sans-serif" font-size="8.4" lengthAdjust="spacing" textLength="81" x="248.1" y="280.6863">InterviewsJustification</text><line style="stroke:#181818;stroke-width:0.3;" x1="231.3" x2="330.3" y1="286.8082" y2="286.8082"/><ellipse cx="237.3" cy="295.6945" fill="none" rx="1.8" ry="1.8" style="stroke:#038048;stroke-width:0.6;"/><text fill="#000000" font-family="sans-serif" font-size="8.4" lengthAdjust="spacing" textLength="71.4" x="242.7" y="298.2727">justification : String</text><line style="stroke:#181818;stroke-width:0.3;" x1="231.3" x2="330.3" y1="302.7809" y2="302.7809"/></g><!--class InterviewsEvaluation--><g id="elem_InterviewsEvaluation"><rect codeLine="60" fill="#F1F1F1" height="62.318" id="InterviewsEvaluation" rx="1.5" ry="1.5" style="stroke:#181818;stroke-width:0.3;" width="96" x="352.2" y="256.5082"/><ellipse cx="361.2" cy="266.1082" fill="#EB937F" rx="6.6" ry="6.6" style="stroke:#181818;stroke-width:0.6;"/><path d="M360.5156,266.5863 L360.5156,268.0863 L363.1125,268.0863 L363.1125,267.5332 Q363.1125,267.1676 363.2531,267.0082 Q363.4031,266.8488 363.6281,266.8488 Q363.8531,266.8488 363.9938,267.0082 Q364.1344,267.1676 364.1344,267.5332 L364.1344,269.1082 L359.3344,269.1082 Q358.9594,269.1082 358.8,268.9676 Q358.65,268.827 358.65,268.5926 Q358.65,268.3676 358.8094,268.227 Q358.9688,268.0863 359.3344,268.0863 L359.4938,268.0863 L359.4938,264.0926 L359.3344,264.0926 Q358.9594,264.0926 358.8,263.952 Q358.65,263.8113 358.65,263.577 Q358.65,263.352 358.8,263.2113 Q358.9594,263.0707 359.3344,263.0707 L363.9094,263.0707 L363.9094,264.627 Q363.9094,264.9926 363.7688,265.152 Q363.6375,265.302 363.4031,265.302 Q363.1781,265.302 363.0375,265.152 Q362.8969,264.9926 362.8969,264.627 L362.8969,264.0926 L360.5156,264.0926 L360.5156,265.5645 L361.4063,265.5645 Q361.4063,265.1707 361.4813,265.0582 Q361.6406,264.8145 361.9219,264.8145 Q362.1469,264.8145 362.2875,264.9738 Q362.4281,265.1238 362.4281,265.4895 L362.4281,266.6707 Q362.4281,266.9988 362.3531,267.1113 Q362.1937,267.3457 361.9219,267.3457 Q361.6406,267.3457 361.4813,267.102 Q361.4063,266.9895 361.4063,266.5863 L360.5156,266.5863 Z " fill="#000000"/><text fill="#000000" font-family="sans-serif" font-size="8.4" lengthAdjust="spacing" textLength="76.8" x="369.6" y="269.5863">InterviewsEvaluation</text><line style="stroke:#181818;stroke-width:0.3;" x1="352.8" x2="447.6" y1="275.7082" y2="275.7082"/><text fill="#000000" font-family="sans-serif" font-size="8.4" lengthAdjust="spacing" textLength="31.2" x="355.8" y="287.1727">Pending</text><text fill="#000000" font-family="sans-serif" font-size="8.4" lengthAdjust="spacing" textLength="35.4" x="355.8" y="298.3453">Accepted</text><text fill="#000000" font-family="sans-serif" font-size="8.4" lengthAdjust="spacing" textLength="33.6" x="355.8" y="309.518">Rejected</text><line style="stroke:#181818;stroke-width:0.3;" x1="352.8" x2="447.6" y1="314.0262" y2="314.0262"/></g><!--class JobOpening--><g id="elem_JobOpening"><rect codeLine="76" fill="#F1F1F1" height="51.1453" id="JobOpening" rx="1.5" ry="1.5" style="stroke:#181818;stroke-width:0.3;" width="169.8" x="493.5" y="149.4082"/><ellipse cx="553.05" cy="159.0082" fill="#ADD1B2" rx="6.6" ry="6.6" style="stroke:#181818;stroke-width:0.6;"/><path d="M554.7094,156.5332 Q554.8031,156.402 554.9156,156.3363 Q555.0281,156.2707 555.1594,156.2707 Q555.3844,156.2707 555.525,156.4301 Q555.6656,156.5801 555.6656,156.9457 L555.6656,157.8176 Q555.6656,158.1832 555.525,158.3426 Q555.3844,158.502 555.1594,158.502 Q554.9531,158.502 554.8313,158.3801 Q554.7094,158.2676 554.6438,157.9582 Q554.6156,157.7426 554.5031,157.6301 Q554.3063,157.4051 553.9406,157.2738 Q553.575,157.1426 553.2,157.1426 Q552.7406,157.1426 552.3562,157.3395 Q551.9812,157.5363 551.6813,157.9863 Q551.3906,158.4363 551.3906,159.0551 L551.3906,159.7113 Q551.3906,160.452 551.925,160.9488 Q552.4594,161.4363 553.4156,161.4363 Q553.9781,161.4363 554.3719,161.2863 Q554.6062,161.1926 554.8594,160.9301 Q555.0188,160.7707 555.1031,160.7238 Q555.1969,160.677 555.3188,160.677 Q555.5156,160.677 555.6656,160.8363 Q555.825,160.9863 555.825,161.1926 Q555.825,161.3988 555.6188,161.6426 Q555.3188,161.9895 554.8406,162.1863 Q554.1938,162.4582 553.4156,162.4582 Q552.5063,162.4582 551.7844,162.0832 Q551.1938,161.7832 550.7813,161.1457 Q550.3688,160.4988 550.3688,159.7301 L550.3688,159.0363 Q550.3688,158.2395 550.7344,157.5551 Q551.1094,156.8613 551.7656,156.4957 Q552.4219,156.1207 553.1625,156.1207 Q553.6031,156.1207 553.9875,156.2238 Q554.3813,156.3176 554.7094,156.5332 Z " fill="#000000"/><text fill="#000000" font-family="sans-serif" font-size="8.4" lengthAdjust="spacing" textLength="45.6" x="565.35" y="162.4863">JobOpening</text><line style="stroke:#181818;stroke-width:0.3;" x1="494.1" x2="662.7" y1="168.6082" y2="168.6082"/><ellipse cx="500.1" cy="177.4945" fill="none" rx="1.8" ry="1.8" style="stroke:#038048;stroke-width:0.6;"/><text fill="#000000" font-family="sans-serif" font-size="8.4" lengthAdjust="spacing" textLength="64.2" x="505.5" y="180.0727">id: JobReference</text><ellipse cx="500.1" cy="188.6672" fill="none" rx="1.8" ry="1.8" style="stroke:#038048;stroke-width:0.6;"/><text fill="#000000" font-family="sans-serif" font-size="8.4" lengthAdjust="spacing" textLength="154.2" x="505.5" y="191.2453">recruitmentProcess: RecruitmentProcess</text><line style="stroke:#181818;stroke-width:0.3;" x1="494.1" x2="662.7" y1="195.7535" y2="195.7535"/></g><!--class RecruitmentProcess--><g id="elem_RecruitmentProcess"><rect codeLine="80" fill="#F1F1F1" height="62.318" id="RecruitmentProcess" rx="1.5" ry="1.5" style="stroke:#181818;stroke-width:0.3;" width="143.4" x="506.7" y="256.5082"/><ellipse cx="537.75" cy="266.1082" fill="#ADD1B2" rx="6.6" ry="6.6" style="stroke:#181818;stroke-width:0.6;"/><path d="M539.4094,263.6332 Q539.5031,263.502 539.6156,263.4363 Q539.7281,263.3707 539.8594,263.3707 Q540.0844,263.3707 540.225,263.5301 Q540.3656,263.6801 540.3656,264.0457 L540.3656,264.9176 Q540.3656,265.2832 540.225,265.4426 Q540.0844,265.602 539.8594,265.602 Q539.6531,265.602 539.5313,265.4801 Q539.4094,265.3676 539.3438,265.0582 Q539.3156,264.8426 539.2031,264.7301 Q539.0063,264.5051 538.6406,264.3738 Q538.275,264.2426 537.9,264.2426 Q537.4406,264.2426 537.0563,264.4395 Q536.6813,264.6363 536.3813,265.0863 Q536.0906,265.5363 536.0906,266.1551 L536.0906,266.8113 Q536.0906,267.552 536.625,268.0488 Q537.1594,268.5363 538.1156,268.5363 Q538.6781,268.5363 539.0719,268.3863 Q539.3063,268.2926 539.5594,268.0301 Q539.7188,267.8707 539.8031,267.8238 Q539.8969,267.777 540.0188,267.777 Q540.2156,267.777 540.3656,267.9363 Q540.525,268.0863 540.525,268.2926 Q540.525,268.4988 540.3188,268.7426 Q540.0188,269.0895 539.5406,269.2863 Q538.8938,269.5582 538.1156,269.5582 Q537.2063,269.5582 536.4844,269.1832 Q535.8938,268.8832 535.4812,268.2457 Q535.0688,267.5988 535.0688,266.8301 L535.0688,266.1363 Q535.0688,265.3395 535.4344,264.6551 Q535.8094,263.9613 536.4656,263.5957 Q537.1219,263.2207 537.8625,263.2207 Q538.3031,263.2207 538.6875,263.3238 Q539.0813,263.4176 539.4094,263.6332 Z " fill="#000000"/><text fill="#000000" font-family="sans-serif" font-size="8.4" lengthAdjust="spacing" textLength="76.2" x="550.05" y="269.5863">RecruitmentProcess</text><line style="stroke:#181818;stroke-width:0.3;" x1="507.3" x2="649.5" y1="275.7082" y2="275.7082"/><ellipse cx="513.3" cy="284.5945" fill="none" rx="1.8" ry="1.8" style="stroke:#038048;stroke-width:0.6;"/><text fill="#000000" font-family="sans-serif" font-size="8.4" lengthAdjust="spacing" textLength="20.4" x="518.7" y="287.1727">id: int</text><ellipse cx="513.3" cy="295.7672" fill="none" rx="1.8" ry="1.8" style="stroke:#038048;stroke-width:0.6;"/><text fill="#000000" font-family="sans-serif" font-size="8.4" lengthAdjust="spacing" textLength="127.8" x="518.7" y="298.3453">status: RecruitmentProcessStatus</text><ellipse cx="513.3" cy="306.9398" fill="none" rx="1.8" ry="1.8" style="stroke:#038048;stroke-width:0.6;"/><text fill="#000000" font-family="sans-serif" font-size="8.4" lengthAdjust="spacing" textLength="79.2" x="518.7" y="309.518">phases: List&lt;Phase&gt;</text><line style="stroke:#181818;stroke-width:0.3;" x1="507.3" x2="649.5" y1="314.0262" y2="314.0262"/></g><!--class Phase--><g id="elem_Phase"><rect codeLine="86" fill="#F1F1F1" height="62.318" id="Phase" rx="1.5" ry="1.5" style="stroke:#181818;stroke-width:0.3;" width="91.2" x="481.8" y="367.5082"/><ellipse cx="512.85" cy="377.1082" fill="#ADD1B2" rx="6.6" ry="6.6" style="stroke:#181818;stroke-width:0.6;"/><path d="M514.5094,374.6332 Q514.6031,374.502 514.7156,374.4363 Q514.8281,374.3707 514.9594,374.3707 Q515.1844,374.3707 515.325,374.5301 Q515.4656,374.6801 515.4656,375.0457 L515.4656,375.9176 Q515.4656,376.2832 515.325,376.4426 Q515.1844,376.602 514.9594,376.602 Q514.7531,376.602 514.6313,376.4801 Q514.5094,376.3676 514.4438,376.0582 Q514.4156,375.8426 514.3031,375.7301 Q514.1062,375.5051 513.7406,375.3738 Q513.375,375.2426 513,375.2426 Q512.5406,375.2426 512.1563,375.4395 Q511.7813,375.6363 511.4813,376.0863 Q511.1906,376.5363 511.1906,377.1551 L511.1906,377.8113 Q511.1906,378.552 511.725,379.0488 Q512.2594,379.5363 513.2156,379.5363 Q513.7781,379.5363 514.1719,379.3863 Q514.4063,379.2926 514.6594,379.0301 Q514.8188,378.8707 514.9031,378.8238 Q514.9969,378.777 515.1188,378.777 Q515.3156,378.777 515.4656,378.9363 Q515.625,379.0863 515.625,379.2926 Q515.625,379.4988 515.4187,379.7426 Q515.1188,380.0895 514.6406,380.2863 Q513.9938,380.5582 513.2156,380.5582 Q512.3063,380.5582 511.5844,380.1832 Q510.9938,379.8832 510.5812,379.2457 Q510.1688,378.5988 510.1688,377.8301 L510.1688,377.1363 Q510.1688,376.3395 510.5344,375.6551 Q510.9094,374.9613 511.5656,374.5957 Q512.2219,374.2207 512.9625,374.2207 Q513.4031,374.2207 513.7875,374.3238 Q514.1813,374.4176 514.5094,374.6332 Z " fill="#000000"/><text fill="#000000" font-family="sans-serif" font-size="8.4" lengthAdjust="spacing" textLength="24" x="525.15" y="380.5863">Phase</text><line style="stroke:#181818;stroke-width:0.3;" x1="482.4" x2="572.4" y1="386.7082" y2="386.7082"/><ellipse cx="488.4" cy="395.5945" fill="none" rx="1.8" ry="1.8" style="stroke:#038048;stroke-width:0.6;"/><text fill="#000000" font-family="sans-serif" font-size="8.4" lengthAdjust="spacing" textLength="30.6" x="493.8" y="398.1727">id: Long</text><ellipse cx="488.4" cy="406.7672" fill="none" rx="1.8" ry="1.8" style="stroke:#038048;stroke-width:0.6;"/><text fill="#000000" font-family="sans-serif" font-size="8.4" lengthAdjust="spacing" textLength="71.4" x="493.8" y="409.3453">name: PhaseName</text><ellipse cx="488.4" cy="417.9398" fill="none" rx="1.8" ry="1.8" style="stroke:#038048;stroke-width:0.6;"/><text fill="#000000" font-family="sans-serif" font-size="8.4" lengthAdjust="spacing" textLength="75.6" x="493.8" y="420.518">status: PhaseStatus</text><line style="stroke:#181818;stroke-width:0.3;" x1="482.4" x2="572.4" y1="425.0262" y2="425.0262"/></g><!--class PhaseName--><g id="elem_PhaseName"><rect codeLine="92" fill="#F1F1F1" height="84.6633" id="PhaseName" rx="1.5" ry="1.5" style="stroke:#181818;stroke-width:0.3;" width="64.8" x="486" y="466.5082"/><ellipse cx="495" cy="476.1082" fill="#EB937F" rx="6.6" ry="6.6" style="stroke:#181818;stroke-width:0.6;"/><path d="M494.3156,476.5863 L494.3156,478.0863 L496.9125,478.0863 L496.9125,477.5332 Q496.9125,477.1676 497.0531,477.0082 Q497.2031,476.8488 497.4281,476.8488 Q497.6531,476.8488 497.7938,477.0082 Q497.9344,477.1676 497.9344,477.5332 L497.9344,479.1082 L493.1344,479.1082 Q492.7594,479.1082 492.6,478.9676 Q492.45,478.827 492.45,478.5926 Q492.45,478.3676 492.6094,478.227 Q492.7687,478.0863 493.1344,478.0863 L493.2938,478.0863 L493.2938,474.0926 L493.1344,474.0926 Q492.7594,474.0926 492.6,473.952 Q492.45,473.8113 492.45,473.577 Q492.45,473.352 492.6,473.2113 Q492.7594,473.0707 493.1344,473.0707 L497.7094,473.0707 L497.7094,474.627 Q497.7094,474.9926 497.5687,475.152 Q497.4375,475.302 497.2031,475.302 Q496.9781,475.302 496.8375,475.152 Q496.6969,474.9926 496.6969,474.627 L496.6969,474.0926 L494.3156,474.0926 L494.3156,475.5645 L495.2062,475.5645 Q495.2062,475.1707 495.2813,475.0582 Q495.4406,474.8145 495.7219,474.8145 Q495.9469,474.8145 496.0875,474.9738 Q496.2281,475.1238 496.2281,475.4895 L496.2281,476.6707 Q496.2281,476.9988 496.1531,477.1113 Q495.9938,477.3457 495.7219,477.3457 Q495.4406,477.3457 495.2813,477.102 Q495.2062,476.9895 495.2062,476.5863 L494.3156,476.5863 Z " fill="#000000"/><text fill="#000000" font-family="sans-serif" font-size="8.4" lengthAdjust="spacing" textLength="45.6" x="503.4" y="479.5863">PhaseName</text><line style="stroke:#181818;stroke-width:0.3;" x1="486.6" x2="550.2" y1="485.7082" y2="485.7082"/><text fill="#000000" font-family="sans-serif" font-size="8.4" lengthAdjust="spacing" textLength="55.8" x="489.6" y="497.1727">APPLICATION,</text><text fill="#000000" font-family="sans-serif" font-size="8.4" lengthAdjust="spacing" textLength="49.8" x="489.6" y="508.3453">SCREENING,</text><text fill="#000000" font-family="sans-serif" font-size="8.4" lengthAdjust="spacing" textLength="52.2" x="489.6" y="519.518">INTERVIEWS,</text><text fill="#000000" font-family="sans-serif" font-size="8.4" lengthAdjust="spacing" textLength="41.4" x="489.6" y="530.6906">ANALYSIS,</text><text fill="#000000" font-family="sans-serif" font-size="8.4" lengthAdjust="spacing" textLength="32.4" x="489.6" y="541.8633">RESULT</text><line style="stroke:#181818;stroke-width:0.3;" x1="486.6" x2="550.2" y1="546.3715" y2="546.3715"/></g><!--class PhaseStatus--><g id="elem_PhaseStatus"><rect codeLine="100" fill="#F1F1F1" height="51.1453" id="PhaseStatus" rx="1.5" ry="1.5" style="stroke:#181818;stroke-width:0.3;" width="67.2" x="571.8" y="483.3082"/><ellipse cx="580.8" cy="492.9082" fill="#EB937F" rx="6.6" ry="6.6" style="stroke:#181818;stroke-width:0.6;"/><path d="M580.1156,493.3863 L580.1156,494.8863 L582.7125,494.8863 L582.7125,494.3332 Q582.7125,493.9676 582.8531,493.8082 Q583.0031,493.6488 583.2281,493.6488 Q583.4531,493.6488 583.5938,493.8082 Q583.7344,493.9676 583.7344,494.3332 L583.7344,495.9082 L578.9344,495.9082 Q578.5594,495.9082 578.4,495.7676 Q578.25,495.627 578.25,495.3926 Q578.25,495.1676 578.4094,495.027 Q578.5688,494.8863 578.9344,494.8863 L579.0938,494.8863 L579.0938,490.8926 L578.9344,490.8926 Q578.5594,490.8926 578.4,490.752 Q578.25,490.6113 578.25,490.377 Q578.25,490.152 578.4,490.0113 Q578.5594,489.8707 578.9344,489.8707 L583.5094,489.8707 L583.5094,491.427 Q583.5094,491.7926 583.3688,491.952 Q583.2375,492.102 583.0031,492.102 Q582.7781,492.102 582.6375,491.952 Q582.4969,491.7926 582.4969,491.427 L582.4969,490.8926 L580.1156,490.8926 L580.1156,492.3645 L581.0063,492.3645 Q581.0063,491.9707 581.0813,491.8582 Q581.2406,491.6145 581.5219,491.6145 Q581.7469,491.6145 581.8875,491.7738 Q582.0281,491.9238 582.0281,492.2895 L582.0281,493.4707 Q582.0281,493.7988 581.9531,493.9113 Q581.7937,494.1457 581.5219,494.1457 Q581.2406,494.1457 581.0813,493.902 Q581.0063,493.7895 581.0063,493.3863 L580.1156,493.3863 Z " fill="#000000"/><text fill="#000000" font-family="sans-serif" font-size="8.4" lengthAdjust="spacing" textLength="48" x="589.2" y="496.3863">PhaseStatus</text><line style="stroke:#181818;stroke-width:0.3;" x1="572.4" x2="638.4" y1="502.5082" y2="502.5082"/><text fill="#000000" font-family="sans-serif" font-size="8.4" lengthAdjust="spacing" textLength="21" x="575.4" y="513.9727">Open</text><text fill="#000000" font-family="sans-serif" font-size="8.4" lengthAdjust="spacing" textLength="26.4" x="575.4" y="525.1453">Closed</text><line style="stroke:#181818;stroke-width:0.3;" x1="572.4" x2="638.4" y1="529.6535" y2="529.6535"/></g><!--class RecruitmentProcessStatus--><g id="elem_RecruitmentProcessStatus"><rect codeLine="105" fill="#F1F1F1" height="62.318" id="RecruitmentProcessStatus" rx="1.5" ry="1.5" style="stroke:#181818;stroke-width:0.3;" width="119.4" x="594.3" y="367.5082"/><ellipse cx="603.3" cy="377.1082" fill="#EB937F" rx="6.6" ry="6.6" style="stroke:#181818;stroke-width:0.6;"/><path d="M602.6156,377.5863 L602.6156,379.0863 L605.2125,379.0863 L605.2125,378.5332 Q605.2125,378.1676 605.3531,378.0082 Q605.5031,377.8488 605.7281,377.8488 Q605.9531,377.8488 606.0938,378.0082 Q606.2344,378.1676 606.2344,378.5332 L606.2344,380.1082 L601.4344,380.1082 Q601.0594,380.1082 600.9,379.9676 Q600.75,379.827 600.75,379.5926 Q600.75,379.3676 600.9094,379.227 Q601.0688,379.0863 601.4344,379.0863 L601.5938,379.0863 L601.5938,375.0926 L601.4344,375.0926 Q601.0594,375.0926 600.9,374.952 Q600.75,374.8113 600.75,374.577 Q600.75,374.352 600.9,374.2113 Q601.0594,374.0707 601.4344,374.0707 L606.0094,374.0707 L606.0094,375.627 Q606.0094,375.9926 605.8688,376.152 Q605.7375,376.302 605.5031,376.302 Q605.2781,376.302 605.1375,376.152 Q604.9969,375.9926 604.9969,375.627 L604.9969,375.0926 L602.6156,375.0926 L602.6156,376.5645 L603.5063,376.5645 Q603.5063,376.1707 603.5813,376.0582 Q603.7406,375.8145 604.0219,375.8145 Q604.2469,375.8145 604.3875,375.9738 Q604.5281,376.1238 604.5281,376.4895 L604.5281,377.6707 Q604.5281,377.9988 604.4531,378.1113 Q604.2937,378.3457 604.0219,378.3457 Q603.7406,378.3457 603.5813,378.102 Q603.5063,377.9895 603.5063,377.5863 L602.6156,377.5863 Z " fill="#000000"/><text fill="#000000" font-family="sans-serif" font-size="8.4" lengthAdjust="spacing" textLength="100.2" x="611.7" y="380.5863">RecruitmentProcessStatus</text><line style="stroke:#181818;stroke-width:0.3;" x1="594.9" x2="713.1" y1="386.7082" y2="386.7082"/><text fill="#000000" font-family="sans-serif" font-size="8.4" lengthAdjust="spacing" textLength="39.6" x="597.9" y="398.1727">Uninitiated</text><text fill="#000000" font-family="sans-serif" font-size="8.4" lengthAdjust="spacing" textLength="39.6" x="597.9" y="409.3453">In Process</text><text fill="#000000" font-family="sans-serif" font-size="8.4" lengthAdjust="spacing" textLength="32.4" x="597.9" y="420.518">Finished</text><line style="stroke:#181818;stroke-width:0.3;" x1="594.9" x2="713.1" y1="425.0262" y2="425.0262"/></g><!--link InterviewsModel to Description--><g id="link_InterviewsModel_Description"><path codeLine="20" d="M820.8,319.1842 C810.822,338.2162 799.9969,358.8545 791.3569,375.3185 " fill="none" id="InterviewsModel-to-Description" style="stroke:#181818;stroke-width:0.6;"/><polygon fill="#181818" points="789.684,378.5062,794.3184,374.8399,791.078,375.8498,790.0681,372.6094,789.684,378.5062" style="stroke:#181818;stroke-width:0.6;"/></g><!--link InterviewsModel to JarFile--><g id="link_InterviewsModel_JarFile"><path codeLine="21" d="M847.464,319.1842 C853.908,338.2162 860.8224,358.6327 866.4024,375.0967 " fill="none" id="InterviewsModel-to-JarFile" style="stroke:#181818;stroke-width:0.6;"/><polygon fill="#181818" points="867.558,378.5062,868.0977,372.6216,866.595,375.665,863.5517,374.1623,867.558,378.5062" style="stroke:#181818;stroke-width:0.6;"/></g><!--link InterviewsModel to SpecName--><g id="link_InterviewsModel_SpecName"><path codeLine="22" d="M873.942,319.0402 C896.826,338.0722 922.7628,359.6434 942.6048,376.1554 " fill="none" id="InterviewsModel-to-SpecName" style="stroke:#181818;stroke-width:0.6;"/><polygon fill="#181818" points="945.372,378.4582,942.7564,373.1593,943.066,376.5392,939.6861,376.8488,945.372,378.4582" style="stroke:#181818;stroke-width:0.6;"/></g><!--link JobApplication to Interviews--><g id="link_JobApplication_Interviews"><path codeLine="65" d="M283.2,88.2682 C283.2,107.3122 283.2,127.8802 283.2,145.7482 " fill="none" id="JobApplication-to-Interviews" style="stroke:#181818;stroke-width:0.6;"/><polygon fill="#181818" points="283.2,149.3482,285.6,143.9482,283.2,146.3482,280.8,143.9482,283.2,149.3482" style="stroke:#181818;stroke-width:0.6;"/></g><!--link JobApplication to File--><g id="link_JobApplication_File"><path codeLine="66" d="M240.96,88.2862 C227.43,98.6722 212.634,110.6302 199.8,122.4082 C192.654,128.9662 187.808,133.786 181.118,140.956 " fill="none" id="JobApplication-to-File" style="stroke:#181818;stroke-width:0.6;"/><polygon fill="#181818" points="178.662,143.5882,184.1007,141.2773,180.7086,141.3947,180.5912,138.0027,178.662,143.5882" style="stroke:#181818;stroke-width:0.6;"/></g><!--link Interviews to InterviewsJustification--><g id="link_Interviews_InterviewsJustification"><path codeLine="68" d="M282.66,200.5522 C282.228,220.7962 281.6997,245.295 281.2977,263.919 " fill="none" id="Interviews-to-InterviewsJustification" style="stroke:#181818;stroke-width:0.6;"/><polygon fill="#181818" points="281.22,267.5182,283.736,262.1713,281.2847,264.5189,278.9371,262.0677,281.22,267.5182" style="stroke:#181818;stroke-width:0.6;"/></g><!--link Interviews to InterviewsEvaluation--><g id="link_Interviews_InterviewsEvaluation"><path codeLine="69" d="M310.584,200.6302 C320.358,209.6782 331.422,219.9982 341.4,229.5082 C350.502,238.1842 357.7226,245.1867 366.6566,253.9407 " fill="none" id="Interviews-to-InterviewsEvaluation" style="stroke:#181818;stroke-width:0.6;"/><polygon fill="#181818" points="369.228,256.4602,367.0507,250.9666,367.0852,254.3606,363.6913,254.3951,369.228,256.4602" style="stroke:#181818;stroke-width:0.6;"/></g><!--link File to FilePath--><g id="link_File_FilePath"><path codeLine="71" d="M115.686,201.2122 C104.94,209.6422 93.51,219.4462 84,229.5082 C73.056,241.0882 64.6625,252.7363 57.1265,264.3763 " fill="none" id="File-to-FilePath" style="stroke:#181818;stroke-width:0.6;"/><polygon fill="#181818" points="55.17,267.3982,60.1194,264.1696,56.8004,264.8799,56.0901,261.561,55.17,267.3982" style="stroke:#181818;stroke-width:0.6;"/></g><!--link File to FileType--><g id="link_File_FileType"><path codeLine="72" d="M151.8,206.3002 C151.8,223.8502 151.8,241.9582 151.8,258.4522 " fill="none" id="File-to-FileType" style="stroke:#181818;stroke-width:0.6;"/><polygon fill="#181818" points="151.8,262.0522,154.2,256.6522,151.8,259.0522,149.4,256.6522,151.8,262.0522" style="stroke:#181818;stroke-width:0.6;"/></g><!--link JobOpening to RecruitmentProcess--><g id="link_JobOpening_RecruitmentProcess"><path codeLine="111" d="M578.4,200.5522 C578.4,217.0702 578.4,235.2142 578.4,252.7762 " fill="none" id="JobOpening-to-RecruitmentProcess" style="stroke:#181818;stroke-width:0.6;"/><polygon fill="#181818" points="578.4,256.3762,580.8,250.9762,578.4,253.3762,576,250.9762,578.4,256.3762" style="stroke:#181818;stroke-width:0.6;"/></g><!--link RecruitmentProcess to RecruitmentProcessStatus--><g id="link_RecruitmentProcess_RecruitmentProcessStatus"><path codeLine="112" d="M603.762,318.9082 C608.64,325.1482 613.596,331.7542 618,338.1082 C624.438,347.3962 629.1075,354.7542 634.7895,364.3062 " fill="none" id="RecruitmentProcess-to-RecruitmentProcessStatus" style="stroke:#181818;stroke-width:0.6;"/><polygon fill="#181818" points="636.63,367.4002,635.932,361.5323,635.0963,364.8219,631.8067,363.9862,636.63,367.4002" style="stroke:#181818;stroke-width:0.6;"/></g><!--link RecruitmentProcess to Phase--><g id="link_RecruitmentProcess_Phase"><path codeLine="113" d="M564.06,319.1842 C557.046,334.2802 550.1513,349.1296 543.1493,364.1956 " fill="none" id="RecruitmentProcess-to-Phase" style="stroke:#181818;stroke-width:0.6;"/><polygon fill="#181818" points="541.632,367.4602,546.0843,363.5747,542.8964,364.7397,541.7315,361.5517,541.632,367.4602" style="stroke:#181818;stroke-width:0.6;"/><text fill="#000000" font-family="sans-serif" font-size="7.8" lengthAdjust="spacing" textLength="57.6" x="555" y="347.1252">Is separated into</text></g><!--link Phase to PhaseName--><g id="link_Phase_PhaseName"><path codeLine="114" d="M524.868,429.9322 C523.932,441.2542 523.1558,450.7045 522.1478,462.8485 " fill="none" id="Phase-to-PhaseName" style="stroke:#181818;stroke-width:0.6;"/><polygon fill="#181818" points="521.85,466.4362,524.6885,461.2532,522.0982,463.4465,519.9049,460.8562,521.85,466.4362" style="stroke:#181818;stroke-width:0.6;"/></g><!--link Phase to PhaseStatus--><g id="link_Phase_PhaseStatus"><path codeLine="115" d="M549.336,429.9322 C561.408,446.7922 574.1078,464.5235 585.4658,480.3815 " fill="none" id="Phase-to-PhaseStatus" style="stroke:#181818;stroke-width:0.6;"/><polygon fill="#181818" points="587.562,483.3082,586.3688,477.5206,585.8151,480.8692,582.4665,480.3156,587.562,483.3082" style="stroke:#181818;stroke-width:0.6;"/></g><!--link JobOpening to InterviewsModel--><g id="link_JobOpening_InterviewsModel"><path codeLine="118" d="M650.316,200.4142 C673.896,209.0662 700.074,219.2002 723.6,229.5082 C743.826,238.3702 762.3526,247.4479 781.3246,257.2339 " fill="none" id="JobOpening-to-InterviewsModel" style="stroke:#181818;stroke-width:0.6;"/><polygon fill="#181818" points="784.524,258.8842,780.825,254.2758,781.8578,257.5089,778.6246,258.5417,784.524,258.8842" style="stroke:#181818;stroke-width:0.6;"/></g><!--link JobApplication to JobOpening--><g id="link_JobApplication_JobOpening"><path codeLine="119" d="M368.346,88.2202 C396.9,98.7502 428.832,110.8102 457.8,122.4082 C478.908,130.8622 498.5731,139.1742 518.7511,147.9222 " fill="none" id="JobApplication-to-JobOpening" style="stroke:#181818;stroke-width:0.6;"/><polygon fill="#181818" points="522.054,149.3542,518.0542,145.0043,519.3015,148.1609,516.1449,149.4082,522.054,149.3542" style="stroke:#181818;stroke-width:0.6;"/><text fill="#000000" font-family="sans-serif" font-size="7.8" lengthAdjust="spacing" textLength="33" x="444" y="115.2252">Refers To</text></g><!--SRC=[ZLNRZfim47tFLrZxsjqVYAgLK4ehefH5a6tLHzTC4cU9iR2pgwhAlzUOYmTZelAICBSpbpE3fEoD7e4aGaFppk53VQzBgABZaVnThOXvM4MLylL6IVhd4o_Nf930Kde19or1iOPBpMkn9b_SYxCuq-Ohhs1DjjqVgxbXKEI60OK1Cf2wuU8uT-gZOGVIGsLKdpn7vpUKy3z8VZUUdfvdDOPiSAKX_TZ6rMqb-ybiwz-Hb1Ldj0tT3GPLEz7wOzdLVTwTP4ICtsbrfTriae3K-HnCkie4uaf_RbD_dZTyh6W2JjQacg1BqtmZ7ERW5FgFX5wnDt_30AqB1f3pKTeV4DVBD9Hpsb1Hyf9gS2L7Gdr0e-wOO8jRU2FyuizNfVbX60dky1Phd0ECZITtvh60Fezv9vM5XeKmKPWCJ5VGB2F6G6eeHq4EPs23e5igZvWjkxsE1ImibRpjy5pdvIwQelvPGtiM1fYHWnEfPSrazrua25Fxx20wbRzqHfF30HeG3Dt31bXpvVe2GcTDpK2PhSfdijbLcfluS6QhdK1fgg_1o8NLe0KwKJLkTjQ-15RRokyVbUv4MiFf1s18nQeGEkRTw8OmBC6oR9TiedtoaZvE5CKcZ-CqIRzDnKcwZ_CVIVopcCgZDDhzAX9FciV5wsuVJgPB5ANJ3jcTXwfM8ykTvrAtKPXNmnIkESLRamY2nzwHKN1rca8WfhKqNI1DW2XXQpIA1Pzkwcloa2YYGDAcpRhbMVrWtJhzQ3cEtPFtGAOAhmBloxSA70BaqPBPR9CY-_eV]--></g></svg>