<?xml version="1.0" encoding="us-ascii" standalone="no"?><svg xmlns="http://www.w3.org/2000/svg" xmlns:xlink="http://www.w3.org/1999/xlink" contentStyleType="text/css" height="591px" preserveAspectRatio="none" style="width:739px;height:591px;background:#FFFFFF;" version="1.1" viewBox="0 0 739 591" width="739px" zoomAndPan="magnify"><defs/><g><text fill="#000000" font-family="sans-serif" font-size="14" font-weight="bold" lengthAdjust="spacing" textLength="613" x="62.75" y="30.1074">US1018 - Execute the Process that Evaluates (Grades) the Interviews for a Job Opening</text><line style="stroke:#181818;stroke-width:0.5;stroke-dasharray:5.0,5.0;" x1="68" x2="68" y1="123.2422" y2="508.1523"/><line style="stroke:#181818;stroke-width:0.5;stroke-dasharray:5.0,5.0;" x1="524.5" x2="524.5" y1="123.2422" y2="508.1523"/><text fill="#000000" font-family="sans-serif" font-size="14" lengthAdjust="spacing" textLength="121" x="5" y="119.7285">Customer Manager</text><ellipse cx="68.5" cy="53.1211" fill="#E2E2F0" rx="8" ry="8" style="stroke:#181818;stroke-width:0.5;"/><path d="M68.5,61.1211 L68.5,88.1211 M55.5,69.1211 L81.5,69.1211 M68.5,88.1211 L55.5,103.1211 M68.5,88.1211 L81.5,103.1211 " fill="none" style="stroke:#181818;stroke-width:0.5;"/><text fill="#000000" font-family="sans-serif" font-size="14" lengthAdjust="spacing" textLength="121" x="5" y="522.2598">Customer Manager</text><ellipse cx="68.5" cy="534.2734" fill="#E2E2F0" rx="8" ry="8" style="stroke:#181818;stroke-width:0.5;"/><path d="M68.5,542.2734 L68.5,569.2734 M55.5,550.2734 L81.5,550.2734 M68.5,569.2734 L55.5,584.2734 M68.5,569.2734 L81.5,584.2734 " fill="none" style="stroke:#181818;stroke-width:0.5;"/><rect fill="#E2E2F0" height="32.6211" rx="2.5" ry="2.5" style="stroke:#181818;stroke-width:0.5;" width="64" x="492.5" y="89.6211"/><text fill="#000000" font-family="sans-serif" font-size="14" lengthAdjust="spacing" textLength="50" x="499.5" y="111.7285">:System</text><rect fill="#E2E2F0" height="32.6211" rx="2.5" ry="2.5" style="stroke:#181818;stroke-width:0.5;" width="64" x="492.5" y="507.1523"/><text fill="#000000" font-family="sans-serif" font-size="14" lengthAdjust="spacing" textLength="50" x="499.5" y="529.2598">:System</text><polygon fill="#181818" points="512.5,152.5332,522.5,156.5332,512.5,160.5332,516.5,156.5332" style="stroke:#181818;stroke-width:1.0;"/><line style="stroke:#181818;stroke-width:1.0;" x1="68.5" x2="518.5" y1="156.5332" y2="156.5332"/><text fill="#000000" font-family="sans-serif" font-size="13" lengthAdjust="spacing" textLength="432" x="75.5" y="151.2705">Asks to execute the process that evaluates the interviews for a job opening</text><line style="stroke:#181818;stroke-width:1.0;" x1="524.5" x2="566.5" y1="187.8242" y2="187.8242"/><line style="stroke:#181818;stroke-width:1.0;" x1="566.5" x2="566.5" y1="187.8242" y2="200.8242"/><line style="stroke:#181818;stroke-width:1.0;" x1="525.5" x2="566.5" y1="200.8242" y2="200.8242"/><polygon fill="#181818" points="535.5,196.8242,525.5,200.8242,535.5,204.8242,531.5,200.8242" style="stroke:#181818;stroke-width:1.0;"/><text fill="#000000" font-family="sans-serif" font-size="13" lengthAdjust="spacing" textLength="141" x="531.5" y="182.5615">Log Verification Process</text><polygon fill="#181818" points="79.5,228.1152,69.5,232.1152,79.5,236.1152,75.5,232.1152" style="stroke:#181818;stroke-width:1.0;"/><line style="stroke:#181818;stroke-width:1.0;stroke-dasharray:2.0,2.0;" x1="73.5" x2="523.5" y1="232.1152" y2="232.1152"/><text fill="#000000" font-family="sans-serif" font-size="13" lengthAdjust="spacing" textLength="77" x="85.5" y="226.8525">Request data</text><polygon fill="#181818" points="512.5,259.4063,522.5,263.4063,512.5,267.4063,516.5,263.4063" style="stroke:#181818;stroke-width:1.0;"/><line style="stroke:#181818;stroke-width:1.0;" x1="68.5" x2="518.5" y1="263.4063" y2="263.4063"/><text fill="#000000" font-family="sans-serif" font-size="13" lengthAdjust="spacing" textLength="304" x="75.5" y="258.1436">Submits Job Reference and candidate Interviews File</text><line style="stroke:#181818;stroke-width:1.0;" x1="524.5" x2="566.5" y1="294.6973" y2="294.6973"/><line style="stroke:#181818;stroke-width:1.0;" x1="566.5" x2="566.5" y1="294.6973" y2="307.6973"/><line style="stroke:#181818;stroke-width:1.0;" x1="525.5" x2="566.5" y1="307.6973" y2="307.6973"/><polygon fill="#181818" points="535.5,303.6973,525.5,307.6973,535.5,311.6973,531.5,307.6973" style="stroke:#181818;stroke-width:1.0;"/><text fill="#000000" font-family="sans-serif" font-size="13" lengthAdjust="spacing" textLength="133" x="531.5" y="289.4346">Validate Job Reference</text><line style="stroke:#181818;stroke-width:1.0;" x1="524.5" x2="566.5" y1="338.9883" y2="338.9883"/><line style="stroke:#181818;stroke-width:1.0;" x1="566.5" x2="566.5" y1="338.9883" y2="351.9883"/><line style="stroke:#181818;stroke-width:1.0;" x1="525.5" x2="566.5" y1="351.9883" y2="351.9883"/><polygon fill="#181818" points="535.5,347.9883,525.5,351.9883,535.5,355.9883,531.5,351.9883" style="stroke:#181818;stroke-width:1.0;"/><text fill="#000000" font-family="sans-serif" font-size="13" lengthAdjust="spacing" textLength="201" x="531.5" y="333.7256">Validate Candidate Interviews Files</text><line style="stroke:#181818;stroke-width:1.0;" x1="524.5" x2="566.5" y1="383.2793" y2="383.2793"/><line style="stroke:#181818;stroke-width:1.0;" x1="566.5" x2="566.5" y1="383.2793" y2="396.2793"/><line style="stroke:#181818;stroke-width:1.0;" x1="525.5" x2="566.5" y1="396.2793" y2="396.2793"/><polygon fill="#181818" points="535.5,392.2793,525.5,396.2793,535.5,400.2793,531.5,396.2793" style="stroke:#181818;stroke-width:1.0;"/><text fill="#000000" font-family="sans-serif" font-size="13" lengthAdjust="spacing" textLength="171" x="531.5" y="378.0166">Evaluate Candidate Interviews</text><polygon fill="#181818" points="79.5,423.5703,69.5,427.5703,79.5,431.5703,75.5,427.5703" style="stroke:#181818;stroke-width:1.0;"/><line style="stroke:#181818;stroke-width:1.0;stroke-dasharray:2.0,2.0;" x1="73.5" x2="523.5" y1="427.5703" y2="427.5703"/><text fill="#000000" font-family="sans-serif" font-size="13" lengthAdjust="spacing" textLength="365" x="85.5" y="422.3076">Return validation results indicating a numeric grade for interview</text><polygon fill="#181818" points="512.5,454.8613,522.5,458.8613,512.5,462.8613,516.5,458.8613" style="stroke:#181818;stroke-width:1.0;"/><line style="stroke:#181818;stroke-width:1.0;" x1="68.5" x2="518.5" y1="458.8613" y2="458.8613"/><text fill="#000000" font-family="sans-serif" font-size="13" lengthAdjust="spacing" textLength="151" x="75.5" y="453.5986">Confirms validation results</text><polygon fill="#181818" points="79.5,486.1523,69.5,490.1523,79.5,494.1523,75.5,490.1523" style="stroke:#181818;stroke-width:1.0;"/><line style="stroke:#181818;stroke-width:1.0;stroke-dasharray:2.0,2.0;" x1="73.5" x2="523.5" y1="490.1523" y2="490.1523"/><text fill="#000000" font-family="sans-serif" font-size="13" lengthAdjust="spacing" textLength="347" x="85.5" y="484.8896">Updates candidate grade and verification process completed</text><!--SRC=[TL5DJyCm3BttLrWxmM4Ikw4Ta50r48W9j6gxUwbR36rIOgV0loTjwTQXSOcY-ENvVIXhHR3D5bUBQvZ3wejCK09z9NZnpf18lAF2giKge9B0nRt7dEIonpnO9TyoVGeKpWF2ezl3SqEMRPaaQ3G-pj8Wwchoi4QB9VaPe42wJXhqoeORj0gpPVOjIdK_ov8aNSFy1Z9OmgsyHmqEQ2AjcKgZWxHkn7yLlKL5xbTHDf8-kH9svBbWWyhEZcOxH8J4xKlOq4SWKSXHSQ8d2_kQLNgd6oh8apK4Q7CmyU28FedbZYiwxjrXDI1EVf-Pf_znoH4yTd8MVEf4WxVG3kITNKyIgcY2uySk0Ll6f6o89R61iYkuJ-yGvhIGrDc2VIrd-APBjqtUbt9CPU3jacgdqOzb6bSt5IdboGy0]--></g></svg>