<?xml version="1.0" encoding="us-ascii" standalone="no"?><svg xmlns="http://www.w3.org/2000/svg" xmlns:xlink="http://www.w3.org/1999/xlink" contentStyleType="text/css" height="936px" preserveAspectRatio="none" style="width:2407px;height:936px;background:#FFFFFF;" version="1.1" viewBox="0 0 2407 936" width="2407.2px" zoomAndPan="magnify"><defs/><g><!--cluster UI--><g id="cluster_UI"><path d="M786.8,4.8109 L798.8,4.8109 A3,3 0 0 1 800.8,6.8109 L806.4,24.5078 L1099.6,24.5078 A2,2 0 0 1 1101.6,26.5078 L1101.6,142.8109 A2,2 0 0 1 1099.6,144.8109 L786.8,144.8109 A2,2 0 0 1 784.8,142.8109 L784.8,6.8109 A2,2 0 0 1 786.8,4.8109 " fill="none" style="stroke:#000000;stroke-width:1.2000000000000002;"/><line style="stroke:#000000;stroke-width:1.2000000000000002;" x1="784.8" x2="806.4" y1="24.5078" y2="24.5078"/><text fill="#000000" font-family="sans-serif" font-size="11.2" font-weight="bold" lengthAdjust="spacing" textLength="11.2" x="788" y="18.4969">UI</text></g><!--cluster Controller--><g id="cluster_Controller"><path d="M602.8,164.0109 L660.4,164.0109 A3,3 0 0 1 662.4,166.0109 L668,183.7078 L1468.4,183.7078 A2,2 0 0 1 1470.4,185.7078 L1470.4,362.0109 A2,2 0 0 1 1468.4,364.0109 L602.8,364.0109 A2,2 0 0 1 600.8,362.0109 L600.8,166.0109 A2,2 0 0 1 602.8,164.0109 " fill="none" style="stroke:#000000;stroke-width:1.2000000000000002;"/><line style="stroke:#000000;stroke-width:1.2000000000000002;" x1="600.8" x2="668" y1="183.7078" y2="183.7078"/><text fill="#000000" font-family="sans-serif" font-size="11.2" font-weight="bold" lengthAdjust="spacing" textLength="56.8" x="604" y="177.6969">Controller</text></g><!--cluster Repository--><g id="cluster_Repository"><path d="M6.8,383.2109 L68.4,383.2109 A3,3 0 0 1 70.4,385.2109 L76,402.9078 L750.8,402.9078 A2,2 0 0 1 752.8,404.9078 L752.8,491.6109 A2,2 0 0 1 750.8,493.6109 L6.8,493.6109 A2,2 0 0 1 4.8,491.6109 L4.8,385.2109 A2,2 0 0 1 6.8,383.2109 " fill="none" style="stroke:#000000;stroke-width:1.2000000000000002;"/><line style="stroke:#000000;stroke-width:1.2000000000000002;" x1="4.8" x2="76" y1="402.9078" y2="402.9078"/><text fill="#000000" font-family="sans-serif" font-size="11.2" font-weight="bold" lengthAdjust="spacing" textLength="60.8" x="8" y="396.8969">Repository</text></g><!--cluster ANTLR--><g id="cluster_ANTLR"><path d="M774,383.2109 L810.8,383.2109 A3,3 0 0 1 812.8,385.2109 L818.4,402.9078 L2361.2,402.9078 A2,2 0 0 1 2363.2,404.9078 L2363.2,491.6109 A2,2 0 0 1 2361.2,493.6109 L774,493.6109 A2,2 0 0 1 772,491.6109 L772,385.2109 A2,2 0 0 1 774,383.2109 " fill="none" style="stroke:#000000;stroke-width:1.2000000000000002;"/><line style="stroke:#000000;stroke-width:1.2000000000000002;" x1="772" x2="818.4" y1="402.9078" y2="402.9078"/><text fill="#000000" font-family="sans-serif" font-size="11.2" font-weight="bold" lengthAdjust="spacing" textLength="36" x="775.2" y="396.8969">ANTLR</text></g><!--cluster Model--><g id="cluster_Model"><path d="M903.6,512.8109 L939.6,512.8109 A3,3 0 0 1 941.6,514.8109 L947.2,532.5078 L1701.2,532.5078 A2,2 0 0 1 1703.2,534.5078 L1703.2,928.4109 A2,2 0 0 1 1701.2,930.4109 L903.6,930.4109 A2,2 0 0 1 901.6,928.4109 L901.6,514.8109 A2,2 0 0 1 903.6,512.8109 " fill="none" style="stroke:#000000;stroke-width:1.2000000000000002;"/><line style="stroke:#000000;stroke-width:1.2000000000000002;" x1="901.6" x2="947.2" y1="532.5078" y2="532.5078"/><text fill="#000000" font-family="sans-serif" font-size="11.2" font-weight="bold" lengthAdjust="spacing" textLength="35.2" x="904.8" y="526.4969">Model</text></g><!--class VerifyInterviewsUI--><g id="elem_VerifyInterviewsUI"><rect codeLine="3" fill="#F1F1F1" height="97.9875" id="VerifyInterviewsUI" rx="2" ry="2" style="stroke:#181818;stroke-width:0.4000000000000001;" width="290.4" x="798" y="34.4109"/><ellipse cx="895.8" cy="47.2109" fill="#ADD1B2" rx="8.8" ry="8.8" style="stroke:#181818;stroke-width:0.8000000000000002;"/><path d="M898.0125,43.9109 Q898.1375,43.7359 898.2875,43.6484 Q898.4375,43.5609 898.6125,43.5609 Q898.9125,43.5609 899.1,43.7734 Q899.2875,43.9734 899.2875,44.4609 L899.2875,45.6234 Q899.2875,46.1109 899.1,46.3234 Q898.9125,46.5359 898.6125,46.5359 Q898.3375,46.5359 898.175,46.3734 Q898.0125,46.2234 897.925,45.8109 Q897.8875,45.5234 897.7375,45.3734 Q897.475,45.0734 896.9875,44.8984 Q896.5,44.7234 896,44.7234 Q895.3875,44.7234 894.875,44.9859 Q894.375,45.2484 893.975,45.8484 Q893.5875,46.4484 893.5875,47.2734 L893.5875,48.1484 Q893.5875,49.1359 894.3,49.7984 Q895.0125,50.4484 896.2875,50.4484 Q897.0375,50.4484 897.5625,50.2484 Q897.875,50.1234 898.2125,49.7734 Q898.425,49.5609 898.5375,49.4984 Q898.6625,49.4359 898.825,49.4359 Q899.0875,49.4359 899.2875,49.6484 Q899.5,49.8484 899.5,50.1234 Q899.5,50.3984 899.225,50.7234 Q898.825,51.1859 898.1875,51.4484 Q897.325,51.8109 896.2875,51.8109 Q895.075,51.8109 894.1125,51.3109 Q893.325,50.9109 892.775,50.0609 Q892.225,49.1984 892.225,48.1734 L892.225,47.2484 Q892.225,46.1859 892.7125,45.2734 Q893.2125,44.3484 894.0875,43.8609 Q894.9625,43.3609 895.95,43.3609 Q896.5375,43.3609 897.05,43.4984 Q897.575,43.6234 898.0125,43.9109 Z " fill="#000000"/><text fill="#000000" font-family="sans-serif" font-size="11.2" lengthAdjust="spacing" textLength="88" x="912.2" y="51.8484">VerifyInterviewsUI</text><line style="stroke:#181818;stroke-width:0.4000000000000001;" x1="798.8" x2="1087.6" y1="60.0109" y2="60.0109"/><rect fill="none" height="4.8" style="stroke:#C82930;stroke-width:0.8000000000000002;" width="4.8" x="804.4" y="69.4594"/><text fill="#000000" font-family="sans-serif" font-size="11.2" lengthAdjust="spacing" textLength="269.6" x="814" y="75.2969">listJobOpeningsController: ListJobOpeningsController</text><rect fill="none" height="4.8" style="stroke:#C82930;stroke-width:0.8000000000000002;" width="4.8" x="804.4" y="84.3563"/><text fill="#000000" font-family="sans-serif" font-size="11.2" lengthAdjust="spacing" textLength="200" x="814" y="90.1938">theController: VerifyInterviewsController</text><line style="stroke:#181818;stroke-width:0.4000000000000001;" x1="798.8" x2="1087.6" y1="96.2047" y2="96.2047"/><ellipse cx="806.8" cy="108.0531" fill="#84BE84" rx="2.4" ry="2.4" style="stroke:#038048;stroke-width:0.8000000000000002;"/><text fill="#000000" font-family="sans-serif" font-size="11.2" lengthAdjust="spacing" textLength="95.2" x="814" y="111.4906">doShow(): boolean</text><ellipse cx="806.8" cy="122.95" fill="#84BE84" rx="2.4" ry="2.4" style="stroke:#038048;stroke-width:0.8000000000000002;"/><text fill="#000000" font-family="sans-serif" font-size="11.2" lengthAdjust="spacing" textLength="87.2" x="814" y="126.3875">headline(): String</text></g><!--class ListJobOpeningsController--><g id="elem_ListJobOpeningsController"><rect codeLine="12" fill="#F1F1F1" height="53.2969" id="ListJobOpeningsController" rx="2" ry="2" style="stroke:#181818;stroke-width:0.4000000000000001;" width="223.2" x="614" y="245.6109"/><ellipse cx="655.4" cy="258.4109" fill="#ADD1B2" rx="8.8" ry="8.8" style="stroke:#181818;stroke-width:0.8000000000000002;"/><path d="M657.6125,255.1109 Q657.7375,254.9359 657.8875,254.8484 Q658.0375,254.7609 658.2125,254.7609 Q658.5125,254.7609 658.7,254.9734 Q658.8875,255.1734 658.8875,255.6609 L658.8875,256.8234 Q658.8875,257.3109 658.7,257.5234 Q658.5125,257.7359 658.2125,257.7359 Q657.9375,257.7359 657.775,257.5734 Q657.6125,257.4234 657.525,257.0109 Q657.4875,256.7234 657.3375,256.5734 Q657.075,256.2734 656.5875,256.0984 Q656.1,255.9234 655.6,255.9234 Q654.9875,255.9234 654.475,256.1859 Q653.975,256.4484 653.575,257.0484 Q653.1875,257.6484 653.1875,258.4734 L653.1875,259.3484 Q653.1875,260.3359 653.9,260.9984 Q654.6125,261.6484 655.8875,261.6484 Q656.6375,261.6484 657.1625,261.4484 Q657.475,261.3234 657.8125,260.9734 Q658.025,260.7609 658.1375,260.6984 Q658.2625,260.6359 658.425,260.6359 Q658.6875,260.6359 658.8875,260.8484 Q659.1,261.0484 659.1,261.3234 Q659.1,261.5984 658.825,261.9234 Q658.425,262.3859 657.7875,262.6484 Q656.925,263.0109 655.8875,263.0109 Q654.675,263.0109 653.7125,262.5109 Q652.925,262.1109 652.375,261.2609 Q651.825,260.3984 651.825,259.3734 L651.825,258.4484 Q651.825,257.3859 652.3125,256.4734 Q652.8125,255.5484 653.6875,255.0609 Q654.5625,254.5609 655.55,254.5609 Q656.1375,254.5609 656.65,254.6984 Q657.175,254.8234 657.6125,255.1109 Z " fill="#000000"/><text fill="#000000" font-family="sans-serif" font-size="11.2" lengthAdjust="spacing" textLength="133.6" x="671.8" y="263.0484">ListJobOpeningsController</text><line style="stroke:#181818;stroke-width:0.4000000000000001;" x1="614.8" x2="836.4" y1="271.2109" y2="271.2109"/><line style="stroke:#181818;stroke-width:0.4000000000000001;" x1="614.8" x2="836.4" y1="277.6109" y2="277.6109"/><ellipse cx="622.8" cy="289.4594" fill="#84BE84" rx="2.4" ry="2.4" style="stroke:#038048;stroke-width:0.8000000000000002;"/><text fill="#000000" font-family="sans-serif" font-size="11.2" lengthAdjust="spacing" textLength="202.4" x="630" y="292.8969">allJobReferences(): List&lt;JobReference&gt;</text></g><!--class VerifyInterviewsController--><g id="elem_VerifyInterviewsController"><rect codeLine="16" fill="#F1F1F1" height="157.575" id="VerifyInterviewsController" rx="2" ry="2" style="stroke:#181818;stroke-width:0.4000000000000001;" width="592" x="865.6" y="193.6109"/><ellipse cx="1094.2" cy="206.4109" fill="#ADD1B2" rx="8.8" ry="8.8" style="stroke:#181818;stroke-width:0.8000000000000002;"/><path d="M1096.4125,203.1109 Q1096.5375,202.9359 1096.6875,202.8484 Q1096.8375,202.7609 1097.0125,202.7609 Q1097.3125,202.7609 1097.5,202.9734 Q1097.6875,203.1734 1097.6875,203.6609 L1097.6875,204.8234 Q1097.6875,205.3109 1097.5,205.5234 Q1097.3125,205.7359 1097.0125,205.7359 Q1096.7375,205.7359 1096.575,205.5734 Q1096.4125,205.4234 1096.325,205.0109 Q1096.2875,204.7234 1096.1375,204.5734 Q1095.875,204.2734 1095.3875,204.0984 Q1094.9,203.9234 1094.4,203.9234 Q1093.7875,203.9234 1093.275,204.1859 Q1092.775,204.4484 1092.375,205.0484 Q1091.9875,205.6484 1091.9875,206.4734 L1091.9875,207.3484 Q1091.9875,208.3359 1092.7,208.9984 Q1093.4125,209.6484 1094.6875,209.6484 Q1095.4375,209.6484 1095.9625,209.4484 Q1096.275,209.3234 1096.6125,208.9734 Q1096.825,208.7609 1096.9375,208.6984 Q1097.0625,208.6359 1097.225,208.6359 Q1097.4875,208.6359 1097.6875,208.8484 Q1097.9,209.0484 1097.9,209.3234 Q1097.9,209.5984 1097.625,209.9234 Q1097.225,210.3859 1096.5875,210.6484 Q1095.725,211.0109 1094.6875,211.0109 Q1093.475,211.0109 1092.5125,210.5109 Q1091.725,210.1109 1091.175,209.2609 Q1090.625,208.3984 1090.625,207.3734 L1090.625,206.4484 Q1090.625,205.3859 1091.1125,204.4734 Q1091.6125,203.5484 1092.4875,203.0609 Q1093.3625,202.5609 1094.35,202.5609 Q1094.9375,202.5609 1095.45,202.6984 Q1095.975,202.8234 1096.4125,203.1109 Z " fill="#000000"/><text fill="#000000" font-family="sans-serif" font-size="11.2" lengthAdjust="spacing" textLength="128" x="1110.6" y="211.0484">VerifyInterviewsController</text><line style="stroke:#181818;stroke-width:0.4000000000000001;" x1="866.4" x2="1456.8" y1="219.2109" y2="219.2109"/><rect fill="none" height="4.8" style="stroke:#C82930;stroke-width:0.8000000000000002;" width="4.8" x="872" y="228.6594"/><text fill="#000000" font-family="sans-serif" font-size="11.2" lengthAdjust="spacing" textLength="234.4" x="881.6" y="234.4969">jobOpeningRepository: JobOpeningRepository</text><rect fill="none" height="4.8" style="stroke:#C82930;stroke-width:0.8000000000000002;" width="4.8" x="872" y="243.5563"/><text fill="#000000" font-family="sans-serif" font-size="11.2" lengthAdjust="spacing" textLength="224.8" x="881.6" y="249.3938">applicationRepository: ApplicationRepository</text><line style="stroke:#181818;stroke-width:0.4000000000000001;" x1="866.4" x2="1456.8" y1="255.4047" y2="255.4047"/><ellipse cx="874.4" cy="267.2531" fill="#84BE84" rx="2.4" ry="2.4" style="stroke:#038048;stroke-width:0.8000000000000002;"/><text fill="#000000" font-family="sans-serif" font-size="11.2" lengthAdjust="spacing" textLength="290.4" x="881.6" y="270.6906">getInterviewFilePath(jobReference: JobReference): String</text><ellipse cx="874.4" cy="282.15" fill="#84BE84" rx="2.4" ry="2.4" style="stroke:#038048;stroke-width:0.8000000000000002;"/><text fill="#000000" font-family="sans-serif" font-size="11.2" lengthAdjust="spacing" textLength="336.8" x="881.6" y="285.5875">getApplications(jobReference: JobReference): List&lt;jobApplication&gt;</text><ellipse cx="874.4" cy="297.0469" fill="#84BE84" rx="2.4" ry="2.4" style="stroke:#038048;stroke-width:0.8000000000000002;"/><text fill="#000000" font-family="sans-serif" font-size="11.2" lengthAdjust="spacing" textLength="356.8" x="881.6" y="300.4844">getCandidatesFilePath(applications: List&lt;jobApplication&gt;): List&lt;String&gt;</text><ellipse cx="874.4" cy="311.9438" fill="#84BE84" rx="2.4" ry="2.4" style="stroke:#038048;stroke-width:0.8000000000000002;"/><text fill="#000000" font-family="sans-serif" font-size="11.2" lengthAdjust="spacing" textLength="338.4" x="881.6" y="315.3813">getInterviewsFromFilePath(filePath: String): List&lt;InterviewAnswers&gt;</text><ellipse cx="874.4" cy="326.8406" fill="#84BE84" rx="2.4" ry="2.4" style="stroke:#038048;stroke-width:0.8000000000000002;"/><text fill="#000000" font-family="sans-serif" font-size="11.2" lengthAdjust="spacing" textLength="571.2" x="881.6" y="330.2781">checkInterviews(correctInterviews: List&lt;InterviewAnswers&gt;, candidateInterviews: List&lt;InterviewAnswers&gt;): boolean</text><ellipse cx="874.4" cy="341.7375" fill="#84BE84" rx="2.4" ry="2.4" style="stroke:#038048;stroke-width:0.8000000000000002;"/><text fill="#000000" font-family="sans-serif" font-size="11.2" lengthAdjust="spacing" textLength="469.6" x="881.6" y="345.175">saveEvaluationToJobApplication(application: jobApplication, passedInterviews: boolean): void</text></g><!--class JobOpeningRepository--><g id="elem_JobOpeningRepository"><rect codeLine="29" fill="#F1F1F1" height="68.1938" id="JobOpeningRepository" rx="2" ry="2" style="stroke:#181818;stroke-width:0.4000000000000001;" width="311.2" x="18" y="412.8109"/><ellipse cx="112.6" cy="425.6109" fill="#ADD1B2" rx="8.8" ry="8.8" style="stroke:#181818;stroke-width:0.8000000000000002;"/><path d="M114.8125,422.3109 Q114.9375,422.1359 115.0875,422.0484 Q115.2375,421.9609 115.4125,421.9609 Q115.7125,421.9609 115.9,422.1734 Q116.0875,422.3734 116.0875,422.8609 L116.0875,424.0234 Q116.0875,424.5109 115.9,424.7234 Q115.7125,424.9359 115.4125,424.9359 Q115.1375,424.9359 114.975,424.7734 Q114.8125,424.6234 114.725,424.2109 Q114.6875,423.9234 114.5375,423.7734 Q114.275,423.4734 113.7875,423.2984 Q113.3,423.1234 112.8,423.1234 Q112.1875,423.1234 111.675,423.3859 Q111.175,423.6484 110.775,424.2484 Q110.3875,424.8484 110.3875,425.6734 L110.3875,426.5484 Q110.3875,427.5359 111.1,428.1984 Q111.8125,428.8484 113.0875,428.8484 Q113.8375,428.8484 114.3625,428.6484 Q114.675,428.5234 115.0125,428.1734 Q115.225,427.9609 115.3375,427.8984 Q115.4625,427.8359 115.625,427.8359 Q115.8875,427.8359 116.0875,428.0484 Q116.3,428.2484 116.3,428.5234 Q116.3,428.7984 116.025,429.1234 Q115.625,429.5859 114.9875,429.8484 Q114.125,430.2109 113.0875,430.2109 Q111.875,430.2109 110.9125,429.7109 Q110.125,429.3109 109.575,428.4609 Q109.025,427.5984 109.025,426.5734 L109.025,425.6484 Q109.025,424.5859 109.5125,423.6734 Q110.0125,422.7484 110.8875,422.2609 Q111.7625,421.7609 112.75,421.7609 Q113.3375,421.7609 113.85,421.8984 Q114.375,422.0234 114.8125,422.3109 Z " fill="#000000"/><text fill="#000000" font-family="sans-serif" font-size="11.2" lengthAdjust="spacing" textLength="115.2" x="129" y="430.2484">JobOpeningRepository</text><line style="stroke:#181818;stroke-width:0.4000000000000001;" x1="18.8" x2="328.4" y1="438.4109" y2="438.4109"/><line style="stroke:#181818;stroke-width:0.4000000000000001;" x1="18.8" x2="328.4" y1="444.8109" y2="444.8109"/><ellipse cx="26.8" cy="456.6594" fill="#84BE84" rx="2.4" ry="2.4" style="stroke:#038048;stroke-width:0.8000000000000002;"/><text fill="#000000" font-family="sans-serif" font-size="11.2" lengthAdjust="spacing" textLength="290.4" x="34" y="460.0969">getInterviewFilePath(jobReference: JobReference): String</text><ellipse cx="26.8" cy="471.5563" fill="#84BE84" rx="2.4" ry="2.4" style="stroke:#038048;stroke-width:0.8000000000000002;"/><text fill="#000000" font-family="sans-serif" font-size="11.2" lengthAdjust="spacing" textLength="221.6" x="34" y="474.9938">findAllJobReferences(): List&lt;JobReference&gt;</text></g><!--class ApplicationRepository--><g id="elem_ApplicationRepository"><rect codeLine="34" fill="#F1F1F1" height="68.1938" id="ApplicationRepository" rx="2" ry="2" style="stroke:#181818;stroke-width:0.4000000000000001;" width="382.4" x="357.6" y="412.8109"/><ellipse cx="490.6" cy="425.6109" fill="#ADD1B2" rx="8.8" ry="8.8" style="stroke:#181818;stroke-width:0.8000000000000002;"/><path d="M492.8125,422.3109 Q492.9375,422.1359 493.0875,422.0484 Q493.2375,421.9609 493.4125,421.9609 Q493.7125,421.9609 493.9,422.1734 Q494.0875,422.3734 494.0875,422.8609 L494.0875,424.0234 Q494.0875,424.5109 493.9,424.7234 Q493.7125,424.9359 493.4125,424.9359 Q493.1375,424.9359 492.975,424.7734 Q492.8125,424.6234 492.725,424.2109 Q492.6875,423.9234 492.5375,423.7734 Q492.275,423.4734 491.7875,423.2984 Q491.3,423.1234 490.8,423.1234 Q490.1875,423.1234 489.675,423.3859 Q489.175,423.6484 488.775,424.2484 Q488.3875,424.8484 488.3875,425.6734 L488.3875,426.5484 Q488.3875,427.5359 489.1,428.1984 Q489.8125,428.8484 491.0875,428.8484 Q491.8375,428.8484 492.3625,428.6484 Q492.675,428.5234 493.0125,428.1734 Q493.225,427.9609 493.3375,427.8984 Q493.4625,427.8359 493.625,427.8359 Q493.8875,427.8359 494.0875,428.0484 Q494.3,428.2484 494.3,428.5234 Q494.3,428.7984 494.025,429.1234 Q493.625,429.5859 492.9875,429.8484 Q492.125,430.2109 491.0875,430.2109 Q489.875,430.2109 488.9125,429.7109 Q488.125,429.3109 487.575,428.4609 Q487.025,427.5984 487.025,426.5734 L487.025,425.6484 Q487.025,424.5859 487.5125,423.6734 Q488.0125,422.7484 488.8875,422.2609 Q489.7625,421.7609 490.75,421.7609 Q491.3375,421.7609 491.85,421.8984 Q492.375,422.0234 492.8125,422.3109 Z " fill="#000000"/><text fill="#000000" font-family="sans-serif" font-size="11.2" lengthAdjust="spacing" textLength="109.6" x="507" y="430.2484">ApplicationRepository</text><line style="stroke:#181818;stroke-width:0.4000000000000001;" x1="358.4" x2="739.2" y1="438.4109" y2="438.4109"/><line style="stroke:#181818;stroke-width:0.4000000000000001;" x1="358.4" x2="739.2" y1="444.8109" y2="444.8109"/><ellipse cx="366.4" cy="456.6594" fill="#84BE84" rx="2.4" ry="2.4" style="stroke:#038048;stroke-width:0.8000000000000002;"/><text fill="#000000" font-family="sans-serif" font-size="11.2" lengthAdjust="spacing" textLength="361.6" x="373.6" y="460.0969">findByJobReference(jobReference: JobReference): List&lt;jobApplication&gt;</text><ellipse cx="366.4" cy="471.5563" fill="#84BE84" rx="2.4" ry="2.4" style="stroke:#038048;stroke-width:0.8000000000000002;"/><text fill="#000000" font-family="sans-serif" font-size="11.2" lengthAdjust="spacing" textLength="190.4" x="373.6" y="474.9938">save(application: jobApplication): void</text></g><!--class CostumerInterviewsLexer--><g id="elem_CostumerInterviewsLexer"><rect codeLine="41" fill="#F1F1F1" height="53.2969" id="CostumerInterviewsLexer" rx="2" ry="2" style="stroke:#181818;stroke-width:0.4000000000000001;" width="280.8" x="1203.6" y="420.0109"/><ellipse cx="1277.4" cy="432.8109" fill="#ADD1B2" rx="8.8" ry="8.8" style="stroke:#181818;stroke-width:0.8000000000000002;"/><path d="M1279.6125,429.5109 Q1279.7375,429.3359 1279.8875,429.2484 Q1280.0375,429.1609 1280.2125,429.1609 Q1280.5125,429.1609 1280.7,429.3734 Q1280.8875,429.5734 1280.8875,430.0609 L1280.8875,431.2234 Q1280.8875,431.7109 1280.7,431.9234 Q1280.5125,432.1359 1280.2125,432.1359 Q1279.9375,432.1359 1279.775,431.9734 Q1279.6125,431.8234 1279.525,431.4109 Q1279.4875,431.1234 1279.3375,430.9734 Q1279.075,430.6734 1278.5875,430.4984 Q1278.1,430.3234 1277.6,430.3234 Q1276.9875,430.3234 1276.475,430.5859 Q1275.975,430.8484 1275.575,431.4484 Q1275.1875,432.0484 1275.1875,432.8734 L1275.1875,433.7484 Q1275.1875,434.7359 1275.9,435.3984 Q1276.6125,436.0484 1277.8875,436.0484 Q1278.6375,436.0484 1279.1625,435.8484 Q1279.475,435.7234 1279.8125,435.3734 Q1280.025,435.1609 1280.1375,435.0984 Q1280.2625,435.0359 1280.425,435.0359 Q1280.6875,435.0359 1280.8875,435.2484 Q1281.1,435.4484 1281.1,435.7234 Q1281.1,435.9984 1280.825,436.3234 Q1280.425,436.7859 1279.7875,437.0484 Q1278.925,437.4109 1277.8875,437.4109 Q1276.675,437.4109 1275.7125,436.9109 Q1274.925,436.5109 1274.375,435.6609 Q1273.825,434.7984 1273.825,433.7734 L1273.825,432.8484 Q1273.825,431.7859 1274.3125,430.8734 Q1274.8125,429.9484 1275.6875,429.4609 Q1276.5625,428.9609 1277.55,428.9609 Q1278.1375,428.9609 1278.65,429.0984 Q1279.175,429.2234 1279.6125,429.5109 Z " fill="#000000"/><text fill="#000000" font-family="sans-serif" font-size="11.2" lengthAdjust="spacing" textLength="126.4" x="1293.8" y="437.4484">CostumerInterviewsLexer</text><line style="stroke:#181818;stroke-width:0.4000000000000001;" x1="1204.4" x2="1483.6" y1="445.6109" y2="445.6109"/><line style="stroke:#181818;stroke-width:0.4000000000000001;" x1="1204.4" x2="1483.6" y1="452.0109" y2="452.0109"/><ellipse cx="1212.4" cy="463.8594" fill="#84BE84" rx="2.4" ry="2.4" style="stroke:#038048;stroke-width:0.8000000000000002;"/><text fill="#000000" font-family="sans-serif" font-size="11.2" lengthAdjust="spacing" textLength="260" x="1219.6" y="467.2969">CostumerInterviewsLexer(charStream: CharStream)</text></g><!--class CostumerInterviewsParser--><g id="elem_CostumerInterviewsParser"><rect codeLine="45" fill="#F1F1F1" height="68.1938" id="CostumerInterviewsParser" rx="2" ry="2" style="stroke:#181818;stroke-width:0.4000000000000001;" width="390.4" x="784.8" y="412.8109"/><ellipse cx="910.6" cy="425.6109" fill="#ADD1B2" rx="8.8" ry="8.8" style="stroke:#181818;stroke-width:0.8000000000000002;"/><path d="M912.8125,422.3109 Q912.9375,422.1359 913.0875,422.0484 Q913.2375,421.9609 913.4125,421.9609 Q913.7125,421.9609 913.9,422.1734 Q914.0875,422.3734 914.0875,422.8609 L914.0875,424.0234 Q914.0875,424.5109 913.9,424.7234 Q913.7125,424.9359 913.4125,424.9359 Q913.1375,424.9359 912.975,424.7734 Q912.8125,424.6234 912.725,424.2109 Q912.6875,423.9234 912.5375,423.7734 Q912.275,423.4734 911.7875,423.2984 Q911.3,423.1234 910.8,423.1234 Q910.1875,423.1234 909.675,423.3859 Q909.175,423.6484 908.775,424.2484 Q908.3875,424.8484 908.3875,425.6734 L908.3875,426.5484 Q908.3875,427.5359 909.1,428.1984 Q909.8125,428.8484 911.0875,428.8484 Q911.8375,428.8484 912.3625,428.6484 Q912.675,428.5234 913.0125,428.1734 Q913.225,427.9609 913.3375,427.8984 Q913.4625,427.8359 913.625,427.8359 Q913.8875,427.8359 914.0875,428.0484 Q914.3,428.2484 914.3,428.5234 Q914.3,428.7984 914.025,429.1234 Q913.625,429.5859 912.9875,429.8484 Q912.125,430.2109 911.0875,430.2109 Q909.875,430.2109 908.9125,429.7109 Q908.125,429.3109 907.575,428.4609 Q907.025,427.5984 907.025,426.5734 L907.025,425.6484 Q907.025,424.5859 907.5125,423.6734 Q908.0125,422.7484 908.8875,422.2609 Q909.7625,421.7609 910.75,421.7609 Q911.3375,421.7609 911.85,421.8984 Q912.375,422.0234 912.8125,422.3109 Z " fill="#000000"/><text fill="#000000" font-family="sans-serif" font-size="11.2" lengthAdjust="spacing" textLength="132" x="927" y="430.2484">CostumerInterviewsParser</text><line style="stroke:#181818;stroke-width:0.4000000000000001;" x1="785.6" x2="1174.4" y1="438.4109" y2="438.4109"/><line style="stroke:#181818;stroke-width:0.4000000000000001;" x1="785.6" x2="1174.4" y1="444.8109" y2="444.8109"/><ellipse cx="793.6" cy="456.6594" fill="#84BE84" rx="2.4" ry="2.4" style="stroke:#038048;stroke-width:0.8000000000000002;"/><text fill="#000000" font-family="sans-serif" font-size="11.2" lengthAdjust="spacing" textLength="369.6" x="800.8" y="460.0969">CostumerInterviewsParser(commonTokenStream: CommonTokenStream)</text><ellipse cx="793.6" cy="471.5563" fill="#84BE84" rx="2.4" ry="2.4" style="stroke:#038048;stroke-width:0.8000000000000002;"/><text fill="#000000" font-family="sans-serif" font-size="11.2" lengthAdjust="spacing" textLength="99.2" x="800.8" y="474.9938">start(): StartContext</text></g><!--class InterviewsVisitor--><g id="elem_InterviewsVisitor"><rect codeLine="50" fill="#F1F1F1" height="68.1938" id="InterviewsVisitor" rx="2" ry="2" style="stroke:#181818;stroke-width:0.4000000000000001;" width="217.6" x="2132.8" y="412.8109"/><ellipse cx="2197.8" cy="425.6109" fill="#ADD1B2" rx="8.8" ry="8.8" style="stroke:#181818;stroke-width:0.8000000000000002;"/><path d="M2200.0125,422.3109 Q2200.1375,422.1359 2200.2875,422.0484 Q2200.4375,421.9609 2200.6125,421.9609 Q2200.9125,421.9609 2201.1,422.1734 Q2201.2875,422.3734 2201.2875,422.8609 L2201.2875,424.0234 Q2201.2875,424.5109 2201.1,424.7234 Q2200.9125,424.9359 2200.6125,424.9359 Q2200.3375,424.9359 2200.175,424.7734 Q2200.0125,424.6234 2199.925,424.2109 Q2199.8875,423.9234 2199.7375,423.7734 Q2199.475,423.4734 2198.9875,423.2984 Q2198.5,423.1234 2198,423.1234 Q2197.3875,423.1234 2196.875,423.3859 Q2196.375,423.6484 2195.975,424.2484 Q2195.5875,424.8484 2195.5875,425.6734 L2195.5875,426.5484 Q2195.5875,427.5359 2196.3,428.1984 Q2197.0125,428.8484 2198.2875,428.8484 Q2199.0375,428.8484 2199.5625,428.6484 Q2199.875,428.5234 2200.2125,428.1734 Q2200.425,427.9609 2200.5375,427.8984 Q2200.6625,427.8359 2200.825,427.8359 Q2201.0875,427.8359 2201.2875,428.0484 Q2201.5,428.2484 2201.5,428.5234 Q2201.5,428.7984 2201.225,429.1234 Q2200.825,429.5859 2200.1875,429.8484 Q2199.325,430.2109 2198.2875,430.2109 Q2197.075,430.2109 2196.1125,429.7109 Q2195.325,429.3109 2194.775,428.4609 Q2194.225,427.5984 2194.225,426.5734 L2194.225,425.6484 Q2194.225,424.5859 2194.7125,423.6734 Q2195.2125,422.7484 2196.0875,422.2609 Q2196.9625,421.7609 2197.95,421.7609 Q2198.5375,421.7609 2199.05,421.8984 Q2199.575,422.0234 2200.0125,422.3109 Z " fill="#000000"/><text fill="#000000" font-family="sans-serif" font-size="11.2" lengthAdjust="spacing" textLength="80.8" x="2214.2" y="430.2484">InterviewsVisitor</text><line style="stroke:#181818;stroke-width:0.4000000000000001;" x1="2133.6" x2="2349.6" y1="438.4109" y2="438.4109"/><line style="stroke:#181818;stroke-width:0.4000000000000001;" x1="2133.6" x2="2349.6" y1="444.8109" y2="444.8109"/><ellipse cx="2141.6" cy="456.6594" fill="#84BE84" rx="2.4" ry="2.4" style="stroke:#038048;stroke-width:0.8000000000000002;"/><text fill="#000000" font-family="sans-serif" font-size="11.2" lengthAdjust="spacing" textLength="184" x="2148.8" y="460.0969">visit(startContext: StartContext): void</text><ellipse cx="2141.6" cy="471.5563" fill="#84BE84" rx="2.4" ry="2.4" style="stroke:#038048;stroke-width:0.8000000000000002;"/><text fill="#000000" font-family="sans-serif" font-size="11.2" lengthAdjust="spacing" textLength="196.8" x="2148.8" y="474.9938">getInterviews(): List&lt;InterviewAnswers&gt;</text></g><!--class InterviewsChecker--><g id="elem_InterviewsChecker"><rect codeLine="55" fill="#F1F1F1" height="53.2969" id="InterviewsChecker" rx="2" ry="2" style="stroke:#181818;stroke-width:0.4000000000000001;" width="592" x="1512.8" y="420.0109"/><ellipse cx="1759.4" cy="432.8109" fill="#ADD1B2" rx="8.8" ry="8.8" style="stroke:#181818;stroke-width:0.8000000000000002;"/><path d="M1761.6125,429.5109 Q1761.7375,429.3359 1761.8875,429.2484 Q1762.0375,429.1609 1762.2125,429.1609 Q1762.5125,429.1609 1762.7,429.3734 Q1762.8875,429.5734 1762.8875,430.0609 L1762.8875,431.2234 Q1762.8875,431.7109 1762.7,431.9234 Q1762.5125,432.1359 1762.2125,432.1359 Q1761.9375,432.1359 1761.775,431.9734 Q1761.6125,431.8234 1761.525,431.4109 Q1761.4875,431.1234 1761.3375,430.9734 Q1761.075,430.6734 1760.5875,430.4984 Q1760.1,430.3234 1759.6,430.3234 Q1758.9875,430.3234 1758.475,430.5859 Q1757.975,430.8484 1757.575,431.4484 Q1757.1875,432.0484 1757.1875,432.8734 L1757.1875,433.7484 Q1757.1875,434.7359 1757.9,435.3984 Q1758.6125,436.0484 1759.8875,436.0484 Q1760.6375,436.0484 1761.1625,435.8484 Q1761.475,435.7234 1761.8125,435.3734 Q1762.025,435.1609 1762.1375,435.0984 Q1762.2625,435.0359 1762.425,435.0359 Q1762.6875,435.0359 1762.8875,435.2484 Q1763.1,435.4484 1763.1,435.7234 Q1763.1,435.9984 1762.825,436.3234 Q1762.425,436.7859 1761.7875,437.0484 Q1760.925,437.4109 1759.8875,437.4109 Q1758.675,437.4109 1757.7125,436.9109 Q1756.925,436.5109 1756.375,435.6609 Q1755.825,434.7984 1755.825,433.7734 L1755.825,432.8484 Q1755.825,431.7859 1756.3125,430.8734 Q1756.8125,429.9484 1757.6875,429.4609 Q1758.5625,428.9609 1759.55,428.9609 Q1760.1375,428.9609 1760.65,429.0984 Q1761.175,429.2234 1761.6125,429.5109 Z " fill="#000000"/><text fill="#000000" font-family="sans-serif" font-size="11.2" lengthAdjust="spacing" textLength="92" x="1775.8" y="437.4484">InterviewsChecker</text><line style="stroke:#181818;stroke-width:0.4000000000000001;" x1="1513.6" x2="2104" y1="445.6109" y2="445.6109"/><line style="stroke:#181818;stroke-width:0.4000000000000001;" x1="1513.6" x2="2104" y1="452.0109" y2="452.0109"/><ellipse cx="1521.6" cy="463.8594" fill="#84BE84" rx="2.4" ry="2.4" style="stroke:#038048;stroke-width:0.8000000000000002;"/><text fill="#000000" font-family="sans-serif" font-size="11.2" lengthAdjust="spacing" textLength="571.2" x="1528.8" y="467.2969">checkInterviews(correctInterviews: List&lt;InterviewAnswers&gt;, candidateInterviews: List&lt;InterviewAnswers&gt;): boolean</text></g><!--class jobApplication--><g id="elem_jobApplication"><rect codeLine="61" fill="#F1F1F1" height="97.9875" id="jobApplication" rx="2" ry="2" style="stroke:#181818;stroke-width:0.4000000000000001;" width="270.4" x="1073.6" y="564.8109"/><ellipse cx="1170.2" cy="577.6109" fill="#ADD1B2" rx="8.8" ry="8.8" style="stroke:#181818;stroke-width:0.8000000000000002;"/><path d="M1172.4125,574.3109 Q1172.5375,574.1359 1172.6875,574.0484 Q1172.8375,573.9609 1173.0125,573.9609 Q1173.3125,573.9609 1173.5,574.1734 Q1173.6875,574.3734 1173.6875,574.8609 L1173.6875,576.0234 Q1173.6875,576.5109 1173.5,576.7234 Q1173.3125,576.9359 1173.0125,576.9359 Q1172.7375,576.9359 1172.575,576.7734 Q1172.4125,576.6234 1172.325,576.2109 Q1172.2875,575.9234 1172.1375,575.7734 Q1171.875,575.4734 1171.3875,575.2984 Q1170.9,575.1234 1170.4,575.1234 Q1169.7875,575.1234 1169.275,575.3859 Q1168.775,575.6484 1168.375,576.2484 Q1167.9875,576.8484 1167.9875,577.6734 L1167.9875,578.5484 Q1167.9875,579.5359 1168.7,580.1984 Q1169.4125,580.8484 1170.6875,580.8484 Q1171.4375,580.8484 1171.9625,580.6484 Q1172.275,580.5234 1172.6125,580.1734 Q1172.825,579.9609 1172.9375,579.8984 Q1173.0625,579.8359 1173.225,579.8359 Q1173.4875,579.8359 1173.6875,580.0484 Q1173.9,580.2484 1173.9,580.5234 Q1173.9,580.7984 1173.625,581.1234 Q1173.225,581.5859 1172.5875,581.8484 Q1171.725,582.2109 1170.6875,582.2109 Q1169.475,582.2109 1168.5125,581.7109 Q1167.725,581.3109 1167.175,580.4609 Q1166.625,579.5984 1166.625,578.5734 L1166.625,577.6484 Q1166.625,576.5859 1167.1125,575.6734 Q1167.6125,574.7484 1168.4875,574.2609 Q1169.3625,573.7609 1170.35,573.7609 Q1170.9375,573.7609 1171.45,573.8984 Q1171.975,574.0234 1172.4125,574.3109 Z " fill="#000000"/><text fill="#000000" font-family="sans-serif" font-size="11.2" lengthAdjust="spacing" textLength="70.4" x="1186.6" y="582.2484">jobApplication</text><line style="stroke:#181818;stroke-width:0.4000000000000001;" x1="1074.4" x2="1343.2" y1="590.4109" y2="590.4109"/><rect fill="none" height="4.8" style="stroke:#C82930;stroke-width:0.8000000000000002;" width="4.8" x="1080" y="599.8594"/><text fill="#000000" font-family="sans-serif" font-size="11.2" lengthAdjust="spacing" textLength="225.6" x="1089.6" y="605.6969">interviewAnswersPath: InterviewAnswersPath</text><line style="stroke:#181818;stroke-width:0.4000000000000001;" x1="1074.4" x2="1343.2" y1="611.7078" y2="611.7078"/><ellipse cx="1082.4" cy="623.5563" fill="#84BE84" rx="2.4" ry="2.4" style="stroke:#038048;stroke-width:0.8000000000000002;"/><text fill="#000000" font-family="sans-serif" font-size="11.2" lengthAdjust="spacing" textLength="249.6" x="1089.6" y="626.9938">getInterviewAnswersPath(): InterviewAnswersPath</text><ellipse cx="1082.4" cy="638.4531" fill="#84BE84" rx="2.4" ry="2.4" style="stroke:#038048;stroke-width:0.8000000000000002;"/><text fill="#000000" font-family="sans-serif" font-size="11.2" lengthAdjust="spacing" textLength="205.6" x="1089.6" y="641.8906">setInterviews(interviews: Interviews): void</text><ellipse cx="1082.4" cy="653.35" fill="#84BE84" rx="2.4" ry="2.4" style="stroke:#038048;stroke-width:0.8000000000000002;"/><text fill="#000000" font-family="sans-serif" font-size="11.2" lengthAdjust="spacing" textLength="63.2" x="1089.6" y="656.7875">reject(): void</text></g><!--class InterviewAnswers--><g id="elem_InterviewAnswers"><rect codeLine="68" fill="#F1F1F1" height="142.6781" id="InterviewAnswers" rx="2" ry="2" style="stroke:#181818;stroke-width:0.4000000000000001;" width="318.4" x="1372" y="542.4109"/><ellipse cx="1484.6" cy="555.2109" fill="#ADD1B2" rx="8.8" ry="8.8" style="stroke:#181818;stroke-width:0.8000000000000002;"/><path d="M1486.8125,551.9109 Q1486.9375,551.7359 1487.0875,551.6484 Q1487.2375,551.5609 1487.4125,551.5609 Q1487.7125,551.5609 1487.9,551.7734 Q1488.0875,551.9734 1488.0875,552.4609 L1488.0875,553.6234 Q1488.0875,554.1109 1487.9,554.3234 Q1487.7125,554.5359 1487.4125,554.5359 Q1487.1375,554.5359 1486.975,554.3734 Q1486.8125,554.2234 1486.725,553.8109 Q1486.6875,553.5234 1486.5375,553.3734 Q1486.275,553.0734 1485.7875,552.8984 Q1485.3,552.7234 1484.8,552.7234 Q1484.1875,552.7234 1483.675,552.9859 Q1483.175,553.2484 1482.775,553.8484 Q1482.3875,554.4484 1482.3875,555.2734 L1482.3875,556.1484 Q1482.3875,557.1359 1483.1,557.7984 Q1483.8125,558.4484 1485.0875,558.4484 Q1485.8375,558.4484 1486.3625,558.2484 Q1486.675,558.1234 1487.0125,557.7734 Q1487.225,557.5609 1487.3375,557.4984 Q1487.4625,557.4359 1487.625,557.4359 Q1487.8875,557.4359 1488.0875,557.6484 Q1488.3,557.8484 1488.3,558.1234 Q1488.3,558.3984 1488.025,558.7234 Q1487.625,559.1859 1486.9875,559.4484 Q1486.125,559.8109 1485.0875,559.8109 Q1483.875,559.8109 1482.9125,559.3109 Q1482.125,558.9109 1481.575,558.0609 Q1481.025,557.1984 1481.025,556.1734 L1481.025,555.2484 Q1481.025,554.1859 1481.5125,553.2734 Q1482.0125,552.3484 1482.8875,551.8609 Q1483.7625,551.3609 1484.75,551.3609 Q1485.3375,551.3609 1485.85,551.4984 Q1486.375,551.6234 1486.8125,551.9109 Z " fill="#000000"/><text fill="#000000" font-family="sans-serif" font-size="11.2" lengthAdjust="spacing" textLength="86.4" x="1501" y="559.8484">InterviewAnswers</text><line style="stroke:#181818;stroke-width:0.4000000000000001;" x1="1372.8" x2="1689.6" y1="568.0109" y2="568.0109"/><rect fill="none" height="4.8" style="stroke:#C82930;stroke-width:0.8000000000000002;" width="4.8" x="1378.4" y="577.4594"/><text fill="#000000" font-family="sans-serif" font-size="11.2" lengthAdjust="spacing" textLength="44.8" x="1388" y="583.2969">id: String</text><rect fill="none" height="4.8" style="stroke:#C82930;stroke-width:0.8000000000000002;" width="4.8" x="1378.4" y="592.3563"/><text fill="#000000" font-family="sans-serif" font-size="11.2" lengthAdjust="spacing" textLength="73.6" x="1388" y="598.1938">content: String</text><rect fill="none" height="4.8" style="stroke:#C82930;stroke-width:0.8000000000000002;" width="4.8" x="1378.4" y="607.2531"/><text fill="#000000" font-family="sans-serif" font-size="11.2" lengthAdjust="spacing" textLength="72" x="1388" y="613.0906">answer: String</text><line style="stroke:#181818;stroke-width:0.4000000000000001;" x1="1372.8" x2="1689.6" y1="619.1016" y2="619.1016"/><ellipse cx="1380.8" cy="630.95" fill="#84BE84" rx="2.4" ry="2.4" style="stroke:#038048;stroke-width:0.8000000000000002;"/><text fill="#000000" font-family="sans-serif" font-size="11.2" lengthAdjust="spacing" textLength="297.6" x="1388" y="634.3875">InterviewAnswers(id: String, content: String, answer: String)</text><ellipse cx="1380.8" cy="645.8469" fill="#84BE84" rx="2.4" ry="2.4" style="stroke:#038048;stroke-width:0.8000000000000002;"/><text fill="#000000" font-family="sans-serif" font-size="11.2" lengthAdjust="spacing" textLength="68.8" x="1388" y="649.2844">getId(): String</text><ellipse cx="1380.8" cy="660.7438" fill="#84BE84" rx="2.4" ry="2.4" style="stroke:#038048;stroke-width:0.8000000000000002;"/><text fill="#000000" font-family="sans-serif" font-size="11.2" lengthAdjust="spacing" textLength="100" x="1388" y="664.1813">getContent(): String</text><ellipse cx="1380.8" cy="675.6406" fill="#84BE84" rx="2.4" ry="2.4" style="stroke:#038048;stroke-width:0.8000000000000002;"/><text fill="#000000" font-family="sans-serif" font-size="11.2" lengthAdjust="spacing" textLength="96.8" x="1388" y="679.0781">getAnswer(): String</text></g><!--class JobReference--><g id="elem_JobReference"><rect codeLine="78" fill="#F1F1F1" height="68.1938" id="JobReference" rx="2" ry="2" style="stroke:#181818;stroke-width:0.4000000000000001;" width="130.4" x="914.8" y="579.6109"/><ellipse cx="942.28" cy="592.4109" fill="#ADD1B2" rx="8.8" ry="8.8" style="stroke:#181818;stroke-width:0.8000000000000002;"/><path d="M944.4925,589.1109 Q944.6175,588.9359 944.7675,588.8484 Q944.9175,588.7609 945.0925,588.7609 Q945.3925,588.7609 945.58,588.9734 Q945.7675,589.1734 945.7675,589.6609 L945.7675,590.8234 Q945.7675,591.3109 945.58,591.5234 Q945.3925,591.7359 945.0925,591.7359 Q944.8175,591.7359 944.655,591.5734 Q944.4925,591.4234 944.405,591.0109 Q944.3675,590.7234 944.2175,590.5734 Q943.955,590.2734 943.4675,590.0984 Q942.98,589.9234 942.48,589.9234 Q941.8675,589.9234 941.355,590.1859 Q940.855,590.4484 940.455,591.0484 Q940.0675,591.6484 940.0675,592.4734 L940.0675,593.3484 Q940.0675,594.3359 940.78,594.9984 Q941.4925,595.6484 942.7675,595.6484 Q943.5175,595.6484 944.0425,595.4484 Q944.355,595.3234 944.6925,594.9734 Q944.905,594.7609 945.0175,594.6984 Q945.1425,594.6359 945.305,594.6359 Q945.5675,594.6359 945.7675,594.8484 Q945.98,595.0484 945.98,595.3234 Q945.98,595.5984 945.705,595.9234 Q945.305,596.3859 944.6675,596.6484 Q943.805,597.0109 942.7675,597.0109 Q941.555,597.0109 940.5925,596.5109 Q939.805,596.1109 939.255,595.2609 Q938.705,594.3984 938.705,593.3734 L938.705,592.4484 Q938.705,591.3859 939.1925,590.4734 Q939.6925,589.5484 940.5675,589.0609 Q941.4425,588.5609 942.43,588.5609 Q943.0175,588.5609 943.53,588.6984 Q944.055,588.8234 944.4925,589.1109 Z " fill="#000000"/><text fill="#000000" font-family="sans-serif" font-size="11.2" lengthAdjust="spacing" textLength="70.4" x="956.92" y="597.0484">JobReference</text><line style="stroke:#181818;stroke-width:0.4000000000000001;" x1="915.6" x2="1044.4" y1="605.2109" y2="605.2109"/><rect fill="none" height="4.8" style="stroke:#C82930;stroke-width:0.8000000000000002;" width="4.8" x="921.2" y="614.6594"/><text fill="#000000" font-family="sans-serif" font-size="11.2" lengthAdjust="spacing" textLength="109.6" x="930.8" y="620.4969">customerCode: String</text><rect fill="none" height="4.8" style="stroke:#C82930;stroke-width:0.8000000000000002;" width="4.8" x="921.2" y="629.5563"/><text fill="#000000" font-family="sans-serif" font-size="11.2" lengthAdjust="spacing" textLength="72" x="930.8" y="635.3938">jobNumver: int</text><line style="stroke:#181818;stroke-width:0.4000000000000001;" x1="915.6" x2="1044.4" y1="641.4047" y2="641.4047"/></g><!--class InterviewAnswersPath--><g id="elem_InterviewAnswersPath"><rect codeLine="83" fill="#F1F1F1" height="53.2969" id="InterviewAnswersPath" rx="2" ry="2" style="stroke:#181818;stroke-width:0.4000000000000001;" width="135.2" x="974.8" y="732.8109"/><ellipse cx="986.8" cy="745.6109" fill="#ADD1B2" rx="8.8" ry="8.8" style="stroke:#181818;stroke-width:0.8000000000000002;"/><path d="M989.0125,742.3109 Q989.1375,742.1359 989.2875,742.0484 Q989.4375,741.9609 989.6125,741.9609 Q989.9125,741.9609 990.1,742.1734 Q990.2875,742.3734 990.2875,742.8609 L990.2875,744.0234 Q990.2875,744.5109 990.1,744.7234 Q989.9125,744.9359 989.6125,744.9359 Q989.3375,744.9359 989.175,744.7734 Q989.0125,744.6234 988.925,744.2109 Q988.8875,743.9234 988.7375,743.7734 Q988.475,743.4734 987.9875,743.2984 Q987.5,743.1234 987,743.1234 Q986.3875,743.1234 985.875,743.3859 Q985.375,743.6484 984.975,744.2484 Q984.5875,744.8484 984.5875,745.6734 L984.5875,746.5484 Q984.5875,747.5359 985.3,748.1984 Q986.0125,748.8484 987.2875,748.8484 Q988.0375,748.8484 988.5625,748.6484 Q988.875,748.5234 989.2125,748.1734 Q989.425,747.9609 989.5375,747.8984 Q989.6625,747.8359 989.825,747.8359 Q990.0875,747.8359 990.2875,748.0484 Q990.5,748.2484 990.5,748.5234 Q990.5,748.7984 990.225,749.1234 Q989.825,749.5859 989.1875,749.8484 Q988.325,750.2109 987.2875,750.2109 Q986.075,750.2109 985.1125,749.7109 Q984.325,749.3109 983.775,748.4609 Q983.225,747.5984 983.225,746.5734 L983.225,745.6484 Q983.225,744.5859 983.7125,743.6734 Q984.2125,742.7484 985.0875,742.2609 Q985.9625,741.7609 986.95,741.7609 Q987.5375,741.7609 988.05,741.8984 Q988.575,742.0234 989.0125,742.3109 Z " fill="#000000"/><text fill="#000000" font-family="sans-serif" font-size="11.2" lengthAdjust="spacing" textLength="109.6" x="998" y="750.2484">InterviewAnswersPath</text><line style="stroke:#181818;stroke-width:0.4000000000000001;" x1="975.6" x2="1109.2" y1="758.4109" y2="758.4109"/><line style="stroke:#181818;stroke-width:0.4000000000000001;" x1="975.6" x2="1109.2" y1="764.8109" y2="764.8109"/><ellipse cx="983.6" cy="776.6594" fill="#84BE84" rx="2.4" ry="2.4" style="stroke:#038048;stroke-width:0.8000000000000002;"/><text fill="#000000" font-family="sans-serif" font-size="11.2" lengthAdjust="spacing" textLength="101.6" x="990.8" y="780.0969">getFilePath(): String</text></g><!--class Interviews--><g id="elem_Interviews"><rect codeLine="87" fill="#F1F1F1" height="53.2969" id="Interviews" rx="2" ry="2" style="stroke:#181818;stroke-width:0.4000000000000001;" width="491.2" x="1138.4" y="732.8109"/><ellipse cx="1355.8" cy="745.6109" fill="#ADD1B2" rx="8.8" ry="8.8" style="stroke:#181818;stroke-width:0.8000000000000002;"/><path d="M1358.0125,742.3109 Q1358.1375,742.1359 1358.2875,742.0484 Q1358.4375,741.9609 1358.6125,741.9609 Q1358.9125,741.9609 1359.1,742.1734 Q1359.2875,742.3734 1359.2875,742.8609 L1359.2875,744.0234 Q1359.2875,744.5109 1359.1,744.7234 Q1358.9125,744.9359 1358.6125,744.9359 Q1358.3375,744.9359 1358.175,744.7734 Q1358.0125,744.6234 1357.925,744.2109 Q1357.8875,743.9234 1357.7375,743.7734 Q1357.475,743.4734 1356.9875,743.2984 Q1356.5,743.1234 1356,743.1234 Q1355.3875,743.1234 1354.875,743.3859 Q1354.375,743.6484 1353.975,744.2484 Q1353.5875,744.8484 1353.5875,745.6734 L1353.5875,746.5484 Q1353.5875,747.5359 1354.3,748.1984 Q1355.0125,748.8484 1356.2875,748.8484 Q1357.0375,748.8484 1357.5625,748.6484 Q1357.875,748.5234 1358.2125,748.1734 Q1358.425,747.9609 1358.5375,747.8984 Q1358.6625,747.8359 1358.825,747.8359 Q1359.0875,747.8359 1359.2875,748.0484 Q1359.5,748.2484 1359.5,748.5234 Q1359.5,748.7984 1359.225,749.1234 Q1358.825,749.5859 1358.1875,749.8484 Q1357.325,750.2109 1356.2875,750.2109 Q1355.075,750.2109 1354.1125,749.7109 Q1353.325,749.3109 1352.775,748.4609 Q1352.225,747.5984 1352.225,746.5734 L1352.225,745.6484 Q1352.225,744.5859 1352.7125,743.6734 Q1353.2125,742.7484 1354.0875,742.2609 Q1354.9625,741.7609 1355.95,741.7609 Q1356.5375,741.7609 1357.05,741.8984 Q1357.575,742.0234 1358.0125,742.3109 Z " fill="#000000"/><text fill="#000000" font-family="sans-serif" font-size="11.2" lengthAdjust="spacing" textLength="49.6" x="1372.2" y="750.2484">Interviews</text><line style="stroke:#181818;stroke-width:0.4000000000000001;" x1="1139.2" x2="1628.8" y1="758.4109" y2="758.4109"/><line style="stroke:#181818;stroke-width:0.4000000000000001;" x1="1139.2" x2="1628.8" y1="764.8109" y2="764.8109"/><ellipse cx="1147.2" cy="776.6594" fill="#84BE84" rx="2.4" ry="2.4" style="stroke:#038048;stroke-width:0.8000000000000002;"/><text fill="#000000" font-family="sans-serif" font-size="11.2" lengthAdjust="spacing" textLength="470.4" x="1154.4" y="780.0969">static valueOf(evaluation: InterviewsEvaluation, justification: InterviewsJustification): Interviews</text></g><!--class InterviewsEvaluation--><g id="elem_InterviewsEvaluation"><rect codeLine="91" fill="#F1F1F1" height="83.0906" id="InterviewsEvaluation" rx="2" ry="2" style="stroke:#181818;stroke-width:0.4000000000000001;" width="128" x="1152.8" y="834.4109"/><ellipse cx="1164.8" cy="847.2109" fill="#ADD1B2" rx="8.8" ry="8.8" style="stroke:#181818;stroke-width:0.8000000000000002;"/><path d="M1167.0125,843.9109 Q1167.1375,843.7359 1167.2875,843.6484 Q1167.4375,843.5609 1167.6125,843.5609 Q1167.9125,843.5609 1168.1,843.7734 Q1168.2875,843.9734 1168.2875,844.4609 L1168.2875,845.6234 Q1168.2875,846.1109 1168.1,846.3234 Q1167.9125,846.5359 1167.6125,846.5359 Q1167.3375,846.5359 1167.175,846.3734 Q1167.0125,846.2234 1166.925,845.8109 Q1166.8875,845.5234 1166.7375,845.3734 Q1166.475,845.0734 1165.9875,844.8984 Q1165.5,844.7234 1165,844.7234 Q1164.3875,844.7234 1163.875,844.9859 Q1163.375,845.2484 1162.975,845.8484 Q1162.5875,846.4484 1162.5875,847.2734 L1162.5875,848.1484 Q1162.5875,849.1359 1163.3,849.7984 Q1164.0125,850.4484 1165.2875,850.4484 Q1166.0375,850.4484 1166.5625,850.2484 Q1166.875,850.1234 1167.2125,849.7734 Q1167.425,849.5609 1167.5375,849.4984 Q1167.6625,849.4359 1167.825,849.4359 Q1168.0875,849.4359 1168.2875,849.6484 Q1168.5,849.8484 1168.5,850.1234 Q1168.5,850.3984 1168.225,850.7234 Q1167.825,851.1859 1167.1875,851.4484 Q1166.325,851.8109 1165.2875,851.8109 Q1164.075,851.8109 1163.1125,851.3109 Q1162.325,850.9109 1161.775,850.0609 Q1161.225,849.1984 1161.225,848.1734 L1161.225,847.2484 Q1161.225,846.1859 1161.7125,845.2734 Q1162.2125,844.3484 1163.0875,843.8609 Q1163.9625,843.3609 1164.95,843.3609 Q1165.5375,843.3609 1166.05,843.4984 Q1166.575,843.6234 1167.0125,843.9109 Z " fill="#000000"/><text fill="#000000" font-family="sans-serif" font-size="11.2" lengthAdjust="spacing" textLength="102.4" x="1176" y="851.8484">InterviewsEvaluation</text><line style="stroke:#181818;stroke-width:0.4000000000000001;" x1="1153.6" x2="1280" y1="860.0109" y2="860.0109"/><text fill="#000000" font-family="sans-serif" font-size="11.2" lengthAdjust="spacing" textLength="76" x="1157.6" y="875.2969">&#171;enumeration&#187;</text><text fill="#000000" font-family="sans-serif" font-size="11.2" lengthAdjust="spacing" textLength="60" x="1157.6" y="890.1938">ACCEPTED</text><text fill="#000000" font-family="sans-serif" font-size="11.2" lengthAdjust="spacing" textLength="57.6" x="1157.6" y="905.0906">REJECTED</text><line style="stroke:#181818;stroke-width:0.4000000000000001;" x1="1153.6" x2="1280" y1="911.1016" y2="911.1016"/></g><!--class InterviewsJustification--><g id="elem_InterviewsJustification"><rect codeLine="97" fill="#F1F1F1" height="53.2969" id="InterviewsJustification" rx="2" ry="2" style="stroke:#181818;stroke-width:0.4000000000000001;" width="304" x="1308.8" y="849.2109"/><ellipse cx="1403.4" cy="862.0109" fill="#ADD1B2" rx="8.8" ry="8.8" style="stroke:#181818;stroke-width:0.8000000000000002;"/><path d="M1405.6125,858.7109 Q1405.7375,858.5359 1405.8875,858.4484 Q1406.0375,858.3609 1406.2125,858.3609 Q1406.5125,858.3609 1406.7,858.5734 Q1406.8875,858.7734 1406.8875,859.2609 L1406.8875,860.4234 Q1406.8875,860.9109 1406.7,861.1234 Q1406.5125,861.3359 1406.2125,861.3359 Q1405.9375,861.3359 1405.775,861.1734 Q1405.6125,861.0234 1405.525,860.6109 Q1405.4875,860.3234 1405.3375,860.1734 Q1405.075,859.8734 1404.5875,859.6984 Q1404.1,859.5234 1403.6,859.5234 Q1402.9875,859.5234 1402.475,859.7859 Q1401.975,860.0484 1401.575,860.6484 Q1401.1875,861.2484 1401.1875,862.0734 L1401.1875,862.9484 Q1401.1875,863.9359 1401.9,864.5984 Q1402.6125,865.2484 1403.8875,865.2484 Q1404.6375,865.2484 1405.1625,865.0484 Q1405.475,864.9234 1405.8125,864.5734 Q1406.025,864.3609 1406.1375,864.2984 Q1406.2625,864.2359 1406.425,864.2359 Q1406.6875,864.2359 1406.8875,864.4484 Q1407.1,864.6484 1407.1,864.9234 Q1407.1,865.1984 1406.825,865.5234 Q1406.425,865.9859 1405.7875,866.2484 Q1404.925,866.6109 1403.8875,866.6109 Q1402.675,866.6109 1401.7125,866.1109 Q1400.925,865.7109 1400.375,864.8609 Q1399.825,863.9984 1399.825,862.9734 L1399.825,862.0484 Q1399.825,860.9859 1400.3125,860.0734 Q1400.8125,859.1484 1401.6875,858.6609 Q1402.5625,858.1609 1403.55,858.1609 Q1404.1375,858.1609 1404.65,858.2984 Q1405.175,858.4234 1405.6125,858.7109 Z " fill="#000000"/><text fill="#000000" font-family="sans-serif" font-size="11.2" lengthAdjust="spacing" textLength="108" x="1419.8" y="866.6484">InterviewsJustification</text><line style="stroke:#181818;stroke-width:0.4000000000000001;" x1="1309.6" x2="1612" y1="874.8109" y2="874.8109"/><line style="stroke:#181818;stroke-width:0.4000000000000001;" x1="1309.6" x2="1612" y1="881.2109" y2="881.2109"/><ellipse cx="1317.6" cy="893.0594" fill="#84BE84" rx="2.4" ry="2.4" style="stroke:#038048;stroke-width:0.8000000000000002;"/><text fill="#000000" font-family="sans-serif" font-size="11.2" lengthAdjust="spacing" textLength="283.2" x="1324.8" y="896.4969">static valueOf(justification: String): InterviewsJustification</text></g><!--link VerifyInterviewsUI to ListJobOpeningsController--><g id="link_VerifyInterviewsUI_ListJobOpeningsController"><path codeLine="102" d="M882.72,132.0429 C872.392,140.4669 861.824,149.2269 852,157.6109 C817.496,187.0589 782.4557,218.9239 757.0957,242.3239 " fill="none" id="VerifyInterviewsUI-to-ListJobOpeningsController" style="stroke:#181818;stroke-width:0.8000000000000002;"/><polygon fill="#181818" points="753.568,245.5789,761.0296,243.0482,756.5077,242.8664,756.6895,238.3446,753.568,245.5789" style="stroke:#181818;stroke-width:0.8000000000000002;"/></g><!--link VerifyInterviewsUI to VerifyInterviewsController--><g id="link_VerifyInterviewsUI_VerifyInterviewsController"><path codeLine="103" d="M999.16,132.0829 C1020.896,150.7549 1042.7185,169.4998 1066.9585,190.3158 " fill="none" id="VerifyInterviewsUI-to-VerifyInterviewsController" style="stroke:#181818;stroke-width:0.8000000000000002;"/><polygon fill="#181818" points="1070.6,193.4429,1067.2225,186.3245,1067.5654,190.837,1063.0529,191.1799,1070.6,193.4429" style="stroke:#181818;stroke-width:0.8000000000000002;"/></g><!--link ListJobOpeningsController to JobOpeningRepository--><g id="link_ListJobOpeningsController_JobOpeningRepository"><path codeLine="104" d="M615.992,299.2349 C539.144,318.3789 434.416,346.3069 344,376.8109 C312.76,387.3549 283.441,398.8021 254.273,410.9141 " fill="none" id="ListJobOpeningsController-to-JobOpeningRepository" style="stroke:#181818;stroke-width:0.8000000000000002;"/><polygon fill="#181818" points="249.84,412.7549,257.7167,412.9491,253.5342,411.2209,255.2623,407.0384,249.84,412.7549" style="stroke:#181818;stroke-width:0.8000000000000002;"/></g><!--link VerifyInterviewsController to JobOpeningRepository--><g id="link_VerifyInterviewsController_JobOpeningRepository"><path codeLine="105" d="M939.448,351.2589 C910.08,359.0669 880.128,365.8029 851.2,370.4109 C795.544,379.2829 399.248,365.6589 344,376.8109 C308.008,384.0749 274.3428,396.8038 243.3508,410.7958 " fill="none" id="VerifyInterviewsController-to-JobOpeningRepository" style="stroke:#181818;stroke-width:0.8000000000000002;"/><polygon fill="#181818" points="238.976,412.7709,246.855,412.7248,242.6217,411.125,244.2215,406.8917,238.976,412.7709" style="stroke:#181818;stroke-width:0.8000000000000002;"/></g><!--link VerifyInterviewsController to ApplicationRepository--><g id="link_VerifyInterviewsController_ApplicationRepository"><path codeLine="106" d="M932.328,351.2509 C905.208,358.6189 877.736,365.2509 851.2,370.4109 C816.536,377.1549 806.672,370.1229 772,376.8109 C727.784,385.3469 684.5073,397.97 644.4993,411.258 " fill="none" id="VerifyInterviewsController-to-ApplicationRepository" style="stroke:#181818;stroke-width:0.8000000000000002;"/><polygon fill="#181818" points="639.944,412.7709,647.7856,413.5384,643.7401,411.5101,645.7683,407.4646,639.944,412.7709" style="stroke:#181818;stroke-width:0.8000000000000002;"/></g><!--link VerifyInterviewsController to CostumerInterviewsLexer--><g id="link_VerifyInterviewsController_CostumerInterviewsLexer"><path codeLine="107" d="M1243.992,351.2669 C1270.048,375.9549 1293.5958,398.2534 1312.9718,416.6134 " fill="none" id="VerifyInterviewsController-to-CostumerInterviewsLexer" style="stroke:#181818;stroke-width:0.8000000000000002;"/><polygon fill="#181818" points="1316.456,419.9149,1313.4307,412.6398,1313.5525,417.1637,1309.0286,417.2855,1316.456,419.9149" style="stroke:#181818;stroke-width:0.8000000000000002;"/></g><!--link VerifyInterviewsController to CostumerInterviewsParser--><g id="link_VerifyInterviewsController_CostumerInterviewsParser"><path codeLine="108" d="M1079.568,351.2669 C1056.912,372.8269 1037.0057,391.7665 1018.5897,409.2865 " fill="none" id="VerifyInterviewsController-to-CostumerInterviewsParser" style="stroke:#181818;stroke-width:0.8000000000000002;"/><polygon fill="#181818" points="1015.112,412.5949,1022.5341,409.9507,1018.01,409.8379,1018.1228,405.3138,1015.112,412.5949" style="stroke:#181818;stroke-width:0.8000000000000002;"/></g><!--link VerifyInterviewsController to InterviewsVisitor--><g id="link_VerifyInterviewsController_InterviewsVisitor"><path codeLine="109" d="M1457.648,292.1069 C1692.336,309.5149 1999.96,338.4589 2119.2,376.8109 C2145.112,385.1469 2167.5845,396.8306 2189.3125,410.2066 " fill="none" id="VerifyInterviewsController-to-InterviewsVisitor" style="stroke:#181818;stroke-width:0.8000000000000002;"/><polygon fill="#181818" points="2193.4,412.7229,2188.9462,406.2234,2189.9937,410.626,2185.5911,411.6735,2193.4,412.7229" style="stroke:#181818;stroke-width:0.8000000000000002;"/></g><!--link VerifyInterviewsController to InterviewsChecker--><g id="link_VerifyInterviewsController_InterviewsChecker"><path codeLine="110" d="M1453.96,351.2669 C1546.416,375.9549 1637.6665,400.3165 1706.4185,418.6765 " fill="none" id="VerifyInterviewsController-to-InterviewsChecker" style="stroke:#181818;stroke-width:0.8000000000000002;"/><polygon fill="#181818" points="1711.056,419.9149,1704.9254,414.9656,1707.1914,418.8829,1703.2741,421.149,1711.056,419.9149" style="stroke:#181818;stroke-width:0.8000000000000002;"/></g><!--link VerifyInterviewsController to jobApplication--><g id="link_VerifyInterviewsController_jobApplication"><path codeLine="111" d="M1457.68,278.2509 C1793.648,287.1069 2303.08,311.2909 2363.2,376.8109 C2400.216,417.1549 2401.792,461.1709 2363.2,500.0109 C2353.36,509.9069 1371.68,502.1229 1358.4,506.4109 C1322.008,518.1629 1290.5606,539.2228 1263.4886,561.5268 " fill="none" id="VerifyInterviewsController-to-jobApplication" style="stroke:#181818;stroke-width:0.8000000000000002;"/><polygon fill="#181818" points="1259.784,564.5789,1267.3757,562.4704,1262.8712,562.0355,1263.3062,557.5309,1259.784,564.5789" style="stroke:#181818;stroke-width:0.8000000000000002;"/></g><!--link JobOpeningRepository to JobReference--><g id="link_JobOpeningRepository_JobReference"><path codeLine="112" d="M274.4,480.8429 C297.144,487.7149 321.288,494.5229 344,500.0109 C550.16,549.7949 794.0711,586.9164 909.9271,603.2604 " fill="none" id="JobOpeningRepository-to-JobReference" style="stroke:#181818;stroke-width:0.8000000000000002;"/><polygon fill="#181818" points="914.68,603.9309,907.9976,599.7566,910.7192,603.3722,907.1036,606.0938,914.68,603.9309" style="stroke:#181818;stroke-width:0.8000000000000002;"/></g><!--link ApplicationRepository to jobApplication--><g id="link_ApplicationRepository_jobApplication"><path codeLine="113" d="M669.888,480.8749 C702.768,488.5789 738.536,495.7549 772,500.0109 C803.664,504.0349 1028.904,496.3629 1059.2,506.4109 C1095.352,518.4029 1126.64,539.3357 1153.68,561.5037 " fill="none" id="ApplicationRepository-to-jobApplication" style="stroke:#181818;stroke-width:0.8000000000000002;"/><polygon fill="#181818" points="1157.392,564.5469,1153.8528,557.5075,1154.2987,562.0109,1149.7952,562.4568,1157.392,564.5469" style="stroke:#181818;stroke-width:0.8000000000000002;"/></g><!--link jobApplication to InterviewAnswersPath--><g id="link_jobApplication_InterviewAnswersPath"><path codeLine="114" d="M1153.392,662.4909 C1126.352,685.9549 1098.5127,710.1123 1076.0087,729.6483 " fill="none" id="jobApplication-to-InterviewAnswersPath" style="stroke:#181818;stroke-width:0.8000000000000002;"/><polygon fill="#181818" points="1072.384,732.7949,1079.9188,730.4914,1075.4046,730.1727,1075.7233,725.6585,1072.384,732.7949" style="stroke:#181818;stroke-width:0.8000000000000002;"/></g><!--link jobApplication to Interviews--><g id="link_jobApplication_Interviews"><path codeLine="115" d="M1267.136,662.4909 C1295.608,685.9549 1325.0324,710.2055 1348.7284,729.7415 " fill="none" id="jobApplication-to-Interviews" style="stroke:#181818;stroke-width:0.8000000000000002;"/><polygon fill="#181818" points="1352.432,732.7949,1348.9122,725.7458,1349.3457,730.2504,1344.841,730.6839,1352.432,732.7949" style="stroke:#181818;stroke-width:0.8000000000000002;"/></g><!--link Interviews to InterviewsEvaluation--><g id="link_Interviews_InterviewsEvaluation"><path codeLine="116" d="M1346.056,786.4589 C1325.44,800.6189 1303.4368,815.7256 1280.1968,831.6856 " fill="none" id="Interviews-to-InterviewsEvaluation" style="stroke:#181818;stroke-width:0.8000000000000002;"/><polygon fill="#181818" points="1276.24,834.4029,1283.9867,832.9648,1279.5373,832.1385,1280.3636,827.6891,1276.24,834.4029" style="stroke:#181818;stroke-width:0.8000000000000002;"/></g><!--link Interviews to InterviewsJustification--><g id="link_Interviews_InterviewsJustification"><path codeLine="117" d="M1401.424,786.4589 C1413.904,805.1149 1427.9784,826.1578 1440.5064,844.8778 " fill="none" id="Interviews-to-InterviewsJustification" style="stroke:#181818;stroke-width:0.8000000000000002;"/><polygon fill="#181818" points="1443.176,848.8669,1441.831,841.1035,1440.9513,845.5427,1436.5121,844.663,1443.176,848.8669" style="stroke:#181818;stroke-width:0.8000000000000002;"/></g><!--link InterviewsVisitor to InterviewAnswers--><g id="link_InterviewsVisitor_InterviewAnswers"><path codeLine="118" d="M2171.048,480.8669 C2154.304,487.8989 2136.328,494.7709 2119.2,500.0109 C1977.064,543.5149 1814.994,572.8927 1695.426,590.9887 " fill="none" id="InterviewsVisitor-to-InterviewAnswers" style="stroke:#181818;stroke-width:0.8000000000000002;"/><polygon fill="#181818" points="1690.68,591.7069,1698.2778,593.7935,1694.635,591.1084,1697.3201,587.4656,1690.68,591.7069" style="stroke:#181818;stroke-width:0.8000000000000002;"/></g><!--SRC=[nLRDJkCm4BxdANnCHVi25QhKpHQ9YWLKMEuccROkQHpPRW6jUFUrczGP9tR2iYjj3oZOCz_CV9w_agOlT0FavpNv5H7zItCg9Na2mTRlruK2SMJmAksr-Kr8pgHQykUx4WfMR6J22oLudeEOaflG5L9NMy0gRMCUdGkIyOSjVur7K_BCUGwqG7TRe5dE2Z2t3qfekwVBZ-WZYiewm0RK2JJeBehtWj0yrq8hM8E08WLf31dDItmwgutsqEY5dv2TTM059PTCSV4-9KlFALAYPPcpb2h62wmrznsZK3QWh3zNB8TxghRn3eLnCcp_Sncr4CYAxDS-qQGbaCRCnKfeaR6CAf3M7nIRz4ESaIldPe40vPNWUukwhZ_E8PqnhFYyaAyW94PBjv2-D7XnoeM055a8OOn9UevhMDYRrP8UON6a-U4KyIDVEWnWZgR4PMTCIfrza673DRwsTEGiwzP7aonEVVYIq2cDVv1FQrPayozMc3VT7GSD-hTt3FDN2MjUfO_x8C7psyURbSDjmgKwx44qptG3RwtE4v29qoqLcaYW-ob9xFUeIr0Nu9uAEMYb4jBflj-Rt7k1mbfh7uqmEueALRLX_M7Q7RofhbEDdITsUZB7cwCvYoL2SF4mnPwQZ_lhEk18OWgzHSj_ANudQNxm378dQTniSyO8Qo5NlUxQSngW3aaO4WSqfKCwGt4snzsd4h3J5CPkcPY_lbUf3RjHPfqMCY6foOn2UMxe2SBJTTf6uWPutCORjs16BGApE30damedT5sPxgmjBJfmWtAeI0zISLssYSwIRkWwKsuF-wFnMZ_EvvWsJznkxxQh3xZPlBg3eEjOiPIOGGPtwnZiHCDvqiovCTdfgDZQjjT6Q8alS7xA8OSQUEJQvIKKfkbLBRxfyVCaMTm_BhxRWzLYkKZE1prM7F_wE6X5QBUH05JJ5Znh-MGowzcv0mez6tTu8JQAtfsqPylzgev_YnrG2ipAFrUhXj-GNcU8VLwX7ZP32cwlZxoxMCsmRH2HVoFomBKcYUCXxlXzSZ92LU_UD3KNbd7JlBiL-7oAVWC0]--></g></svg>