<?xml version="1.0" encoding="us-ascii" standalone="no"?><svg xmlns="http://www.w3.org/2000/svg" xmlns:xlink="http://www.w3.org/1999/xlink" contentStyleType="text/css" height="1359px" preserveAspectRatio="none" style="width:2045px;height:1359px;background:#FFFFFF;" version="1.1" viewBox="0 0 2045 1359" width="2045px" zoomAndPan="magnify"><defs/><g><rect fill="#FFFFFF" height="1141.4766" style="stroke:#181818;stroke-width:1.0;" width="10" x="337.5" y="116.9121"/><rect fill="#FFFFFF" height="93.873" style="stroke:#181818;stroke-width:1.0;" width="10" x="691.5" y="335.9492"/><rect fill="#FFFFFF" height="93.873" style="stroke:#181818;stroke-width:1.0;" width="10" x="691.5" y="461.1133"/><rect fill="#FFFFFF" height="106.873" style="stroke:#181818;stroke-width:1.0;" width="10" x="691.5" y="586.2773"/><rect fill="#FFFFFF" height="250.3281" style="stroke:#181818;stroke-width:1.0;" width="10" x="691.5" y="750.7324"/><rect fill="#FFFFFF" height="93.873" style="stroke:#181818;stroke-width:1.0;" width="10" x="691.5" y="1032.3516"/><rect fill="#FFFFFF" height="62.582" style="stroke:#181818;stroke-width:1.0;" width="10" x="691.5" y="1157.5156"/><rect fill="#FFFFFF" height="93.873" style="stroke:#181818;stroke-width:1.0;" width="10" x="909.5" y="148.2031"/><rect fill="#FFFFFF" height="31.291" style="stroke:#181818;stroke-width:1.0;" width="10" x="1081" y="179.4941"/><rect fill="#FFFFFF" height="31.291" style="stroke:#181818;stroke-width:1.0;" width="10" x="1081" y="367.2402"/><rect fill="#FFFFFF" height="31.291" style="stroke:#181818;stroke-width:1.0;" width="10" x="1237.5" y="492.4043"/><rect fill="#FFFFFF" height="31.291" style="stroke:#181818;stroke-width:1.0;" width="10" x="1505" y="782.0234"/><rect fill="#FFFFFF" height="31.291" style="stroke:#181818;stroke-width:1.0;" width="10" x="1682.5" y="844.6055"/><rect fill="#FFFFFF" height="62.582" style="stroke:#181818;stroke-width:1.0;" width="10" x="1682.5" y="907.1875"/><rect fill="#FFFFFF" height="31.291" style="stroke:#181818;stroke-width:1.0;" width="10" x="1831.5" y="938.4785"/><rect fill="none" height="519.9473" style="stroke:#000000;stroke-width:1.5;" width="1764.5" x="274.5" y="708.1504"/><line style="stroke:#181818;stroke-width:0.5;stroke-dasharray:5.0,5.0;" x1="66" x2="66" y1="83.6211" y2="1276.3887"/><line style="stroke:#181818;stroke-width:0.5;stroke-dasharray:5.0,5.0;" x1="342.5" x2="342.5" y1="83.6211" y2="1276.3887"/><line style="stroke:#181818;stroke-width:0.5;stroke-dasharray:5.0,5.0;" x1="696.5" x2="696.5" y1="83.6211" y2="1276.3887"/><line style="stroke:#181818;stroke-width:0.5;stroke-dasharray:5.0,5.0;" x1="914" x2="914" y1="83.6211" y2="1276.3887"/><line style="stroke:#181818;stroke-width:0.5;stroke-dasharray:5.0,5.0;" x1="1086" x2="1086" y1="83.6211" y2="1276.3887"/><line style="stroke:#181818;stroke-width:0.5;stroke-dasharray:5.0,5.0;" x1="1242" x2="1242" y1="83.6211" y2="1276.3887"/><line style="stroke:#181818;stroke-width:0.5;stroke-dasharray:5.0,5.0;" x1="1371" x2="1371" y1="83.6211" y2="1276.3887"/><line style="stroke:#181818;stroke-width:0.5;stroke-dasharray:5.0,5.0;" x1="1510" x2="1510" y1="83.6211" y2="1276.3887"/><line style="stroke:#181818;stroke-width:0.5;stroke-dasharray:5.0,5.0;" x1="1687" x2="1687" y1="83.6211" y2="1276.3887"/><line style="stroke:#181818;stroke-width:0.5;stroke-dasharray:5.0,5.0;" x1="1836" x2="1836" y1="83.6211" y2="1276.3887"/><line style="stroke:#181818;stroke-width:0.5;stroke-dasharray:5.0,5.0;" x1="1964" x2="1964" y1="83.6211" y2="1276.3887"/><text fill="#000000" font-family="sans-serif" font-size="14" lengthAdjust="spacing" textLength="117" x="5" y="80.1074">CustomerManager</text><ellipse cx="66.5" cy="13.5" fill="#E2E2F0" rx="8" ry="8" style="stroke:#181818;stroke-width:0.5;"/><path d="M66.5,21.5 L66.5,48.5 M53.5,29.5 L79.5,29.5 M66.5,48.5 L53.5,63.5 M66.5,48.5 L79.5,63.5 " fill="none" style="stroke:#181818;stroke-width:0.5;"/><text fill="#000000" font-family="sans-serif" font-size="14" lengthAdjust="spacing" textLength="117" x="5" y="1290.4961">CustomerManager</text><ellipse cx="66.5" cy="1302.5098" fill="#E2E2F0" rx="8" ry="8" style="stroke:#181818;stroke-width:0.5;"/><path d="M66.5,1310.5098 L66.5,1337.5098 M53.5,1318.5098 L79.5,1318.5098 M66.5,1337.5098 L53.5,1352.5098 M66.5,1337.5098 L79.5,1352.5098 " fill="none" style="stroke:#181818;stroke-width:0.5;"/><text fill="#000000" font-family="sans-serif" font-size="14" lengthAdjust="spacing" textLength="110" x="284.5" y="80.1074">VerifyInterviewsUI</text><path d="M322,37 L322,61 M322,49 L339,49 " fill="none" style="stroke:#181818;stroke-width:0.5;"/><ellipse cx="351" cy="49" fill="#E2E2F0" rx="12" ry="12" style="stroke:#181818;stroke-width:0.5;"/><text fill="#000000" font-family="sans-serif" font-size="14" lengthAdjust="spacing" textLength="110" x="284.5" y="1290.4961">VerifyInterviewsUI</text><path d="M322,1298.0098 L322,1322.0098 M322,1310.0098 L339,1310.0098 " fill="none" style="stroke:#181818;stroke-width:0.5;"/><ellipse cx="351" cy="1310.0098" fill="#E2E2F0" rx="12" ry="12" style="stroke:#181818;stroke-width:0.5;"/><text fill="#000000" font-family="sans-serif" font-size="14" lengthAdjust="spacing" textLength="160" x="613.5" y="80.1074">VerifyInterviewsController</text><ellipse cx="696.5" cy="49" fill="#E2E2F0" rx="12" ry="12" style="stroke:#181818;stroke-width:0.5;"/><polygon fill="#181818" points="692.5,37,698.5,32,696.5,37,698.5,42,692.5,37" style="stroke:#181818;stroke-width:1.0;"/><text fill="#000000" font-family="sans-serif" font-size="14" lengthAdjust="spacing" textLength="160" x="613.5" y="1290.4961">VerifyInterviewsController</text><ellipse cx="696.5" cy="1310.0098" fill="#E2E2F0" rx="12" ry="12" style="stroke:#181818;stroke-width:0.5;"/><polygon fill="#181818" points="692.5,1298.0098,698.5,1293.0098,696.5,1298.0098,698.5,1303.0098,692.5,1298.0098" style="stroke:#181818;stroke-width:1.0;"/><text fill="#000000" font-family="sans-serif" font-size="14" lengthAdjust="spacing" textLength="167" x="828" y="80.1074">ListJobOpeningsController</text><ellipse cx="914.5" cy="49" fill="#E2E2F0" rx="12" ry="12" style="stroke:#181818;stroke-width:0.5;"/><polygon fill="#181818" points="910.5,37,916.5,32,914.5,37,916.5,42,910.5,37" style="stroke:#181818;stroke-width:1.0;"/><text fill="#000000" font-family="sans-serif" font-size="14" lengthAdjust="spacing" textLength="167" x="828" y="1290.4961">ListJobOpeningsController</text><ellipse cx="914.5" cy="1310.0098" fill="#E2E2F0" rx="12" ry="12" style="stroke:#181818;stroke-width:0.5;"/><polygon fill="#181818" points="910.5,1298.0098,916.5,1293.0098,914.5,1298.0098,916.5,1303.0098,910.5,1298.0098" style="stroke:#181818;stroke-width:1.0;"/><text fill="#000000" font-family="sans-serif" font-size="14" lengthAdjust="spacing" textLength="144" x="1011" y="80.1074">JobOpeningRepository</text><ellipse cx="1086" cy="49" fill="#E2E2F0" rx="12" ry="12" style="stroke:#181818;stroke-width:0.5;"/><line style="stroke:#181818;stroke-width:0.5;" x1="1074" x2="1098" y1="63" y2="63"/><text fill="#000000" font-family="sans-serif" font-size="14" lengthAdjust="spacing" textLength="144" x="1011" y="1290.4961">JobOpeningRepository</text><ellipse cx="1086" cy="1310.0098" fill="#E2E2F0" rx="12" ry="12" style="stroke:#181818;stroke-width:0.5;"/><line style="stroke:#181818;stroke-width:0.5;" x1="1074" x2="1098" y1="1324.0098" y2="1324.0098"/><text fill="#000000" font-family="sans-serif" font-size="14" lengthAdjust="spacing" textLength="137" x="1171" y="80.1074">ApplicationRepository</text><ellipse cx="1242.5" cy="49" fill="#E2E2F0" rx="12" ry="12" style="stroke:#181818;stroke-width:0.5;"/><line style="stroke:#181818;stroke-width:0.5;" x1="1230.5" x2="1254.5" y1="63" y2="63"/><text fill="#000000" font-family="sans-serif" font-size="14" lengthAdjust="spacing" textLength="137" x="1171" y="1290.4961">ApplicationRepository</text><ellipse cx="1242.5" cy="1310.0098" fill="#E2E2F0" rx="12" ry="12" style="stroke:#181818;stroke-width:0.5;"/><line style="stroke:#181818;stroke-width:0.5;" x1="1230.5" x2="1254.5" y1="1324.0098" y2="1324.0098"/><text fill="#000000" font-family="sans-serif" font-size="14" lengthAdjust="spacing" textLength="88" x="1324" y="80.1074">jobApplication</text><ellipse cx="1371" cy="49" fill="#E2E2F0" rx="12" ry="12" style="stroke:#181818;stroke-width:0.5;"/><line style="stroke:#181818;stroke-width:0.5;" x1="1359" x2="1383" y1="63" y2="63"/><text fill="#000000" font-family="sans-serif" font-size="14" lengthAdjust="spacing" textLength="88" x="1324" y="1290.4961">jobApplication</text><ellipse cx="1371" cy="1310.0098" fill="#E2E2F0" rx="12" ry="12" style="stroke:#181818;stroke-width:0.5;"/><line style="stroke:#181818;stroke-width:0.5;" x1="1359" x2="1383" y1="1324.0098" y2="1324.0098"/><text fill="#000000" font-family="sans-serif" font-size="14" lengthAdjust="spacing" textLength="158" x="1428" y="80.1074">CostumerInterviewsLexer</text><ellipse cx="1510" cy="49" fill="#E2E2F0" rx="12" ry="12" style="stroke:#181818;stroke-width:0.5;"/><line style="stroke:#181818;stroke-width:0.5;" x1="1498" x2="1522" y1="63" y2="63"/><text fill="#000000" font-family="sans-serif" font-size="14" lengthAdjust="spacing" textLength="158" x="1428" y="1290.4961">CostumerInterviewsLexer</text><ellipse cx="1510" cy="1310.0098" fill="#E2E2F0" rx="12" ry="12" style="stroke:#181818;stroke-width:0.5;"/><line style="stroke:#181818;stroke-width:0.5;" x1="1498" x2="1522" y1="1324.0098" y2="1324.0098"/><text fill="#000000" font-family="sans-serif" font-size="14" lengthAdjust="spacing" textLength="165" x="1602" y="80.1074">CostumerInterviewsParser</text><ellipse cx="1687.5" cy="49" fill="#E2E2F0" rx="12" ry="12" style="stroke:#181818;stroke-width:0.5;"/><line style="stroke:#181818;stroke-width:0.5;" x1="1675.5" x2="1699.5" y1="63" y2="63"/><text fill="#000000" font-family="sans-serif" font-size="14" lengthAdjust="spacing" textLength="165" x="1602" y="1290.4961">CostumerInterviewsParser</text><ellipse cx="1687.5" cy="1310.0098" fill="#E2E2F0" rx="12" ry="12" style="stroke:#181818;stroke-width:0.5;"/><line style="stroke:#181818;stroke-width:0.5;" x1="1675.5" x2="1699.5" y1="1324.0098" y2="1324.0098"/><text fill="#000000" font-family="sans-serif" font-size="14" lengthAdjust="spacing" textLength="101" x="1783" y="80.1074">InterviewsVisitor</text><ellipse cx="1836.5" cy="49" fill="#E2E2F0" rx="12" ry="12" style="stroke:#181818;stroke-width:0.5;"/><line style="stroke:#181818;stroke-width:0.5;" x1="1824.5" x2="1848.5" y1="63" y2="63"/><text fill="#000000" font-family="sans-serif" font-size="14" lengthAdjust="spacing" textLength="101" x="1783" y="1290.4961">InterviewsVisitor</text><ellipse cx="1836.5" cy="1310.0098" fill="#E2E2F0" rx="12" ry="12" style="stroke:#181818;stroke-width:0.5;"/><line style="stroke:#181818;stroke-width:0.5;" x1="1824.5" x2="1848.5" y1="1324.0098" y2="1324.0098"/><rect fill="#E2E2F0" height="32.6211" rx="2.5" ry="2.5" style="stroke:#181818;stroke-width:0.5;" width="129" x="1900" y="50"/><text fill="#000000" font-family="sans-serif" font-size="14" lengthAdjust="spacing" textLength="115" x="1907" y="72.1074">InterviewsChecker</text><rect fill="#E2E2F0" height="32.6211" rx="2.5" ry="2.5" style="stroke:#181818;stroke-width:0.5;" width="129" x="1900" y="1275.3887"/><text fill="#000000" font-family="sans-serif" font-size="14" lengthAdjust="spacing" textLength="115" x="1907" y="1297.4961">InterviewsChecker</text><rect fill="#FFFFFF" height="1141.4766" style="stroke:#181818;stroke-width:1.0;" width="10" x="337.5" y="116.9121"/><rect fill="#FFFFFF" height="93.873" style="stroke:#181818;stroke-width:1.0;" width="10" x="691.5" y="335.9492"/><rect fill="#FFFFFF" height="93.873" style="stroke:#181818;stroke-width:1.0;" width="10" x="691.5" y="461.1133"/><rect fill="#FFFFFF" height="106.873" style="stroke:#181818;stroke-width:1.0;" width="10" x="691.5" y="586.2773"/><rect fill="#FFFFFF" height="250.3281" style="stroke:#181818;stroke-width:1.0;" width="10" x="691.5" y="750.7324"/><rect fill="#FFFFFF" height="93.873" style="stroke:#181818;stroke-width:1.0;" width="10" x="691.5" y="1032.3516"/><rect fill="#FFFFFF" height="62.582" style="stroke:#181818;stroke-width:1.0;" width="10" x="691.5" y="1157.5156"/><rect fill="#FFFFFF" height="93.873" style="stroke:#181818;stroke-width:1.0;" width="10" x="909.5" y="148.2031"/><rect fill="#FFFFFF" height="31.291" style="stroke:#181818;stroke-width:1.0;" width="10" x="1081" y="179.4941"/><rect fill="#FFFFFF" height="31.291" style="stroke:#181818;stroke-width:1.0;" width="10" x="1081" y="367.2402"/><rect fill="#FFFFFF" height="31.291" style="stroke:#181818;stroke-width:1.0;" width="10" x="1237.5" y="492.4043"/><rect fill="#FFFFFF" height="31.291" style="stroke:#181818;stroke-width:1.0;" width="10" x="1505" y="782.0234"/><rect fill="#FFFFFF" height="31.291" style="stroke:#181818;stroke-width:1.0;" width="10" x="1682.5" y="844.6055"/><rect fill="#FFFFFF" height="62.582" style="stroke:#181818;stroke-width:1.0;" width="10" x="1682.5" y="907.1875"/><rect fill="#FFFFFF" height="31.291" style="stroke:#181818;stroke-width:1.0;" width="10" x="1831.5" y="938.4785"/><polygon fill="#181818" points="325.5,112.9121,335.5,116.9121,325.5,120.9121,329.5,116.9121" style="stroke:#181818;stroke-width:1.0;"/><line style="stroke:#181818;stroke-width:1.0;" x1="66.5" x2="331.5" y1="116.9121" y2="116.9121"/><text fill="#000000" font-family="sans-serif" font-size="13" lengthAdjust="spacing" textLength="190" x="73.5" y="111.6494">Requests to verify candidate files</text><polygon fill="#181818" points="897.5,144.2031,907.5,148.2031,897.5,152.2031,901.5,148.2031" style="stroke:#181818;stroke-width:1.0;"/><line style="stroke:#181818;stroke-width:1.0;" x1="347.5" x2="903.5" y1="148.2031" y2="148.2031"/><text fill="#000000" font-family="sans-serif" font-size="13" lengthAdjust="spacing" textLength="106" x="354.5" y="142.9404">allJobReferences()</text><polygon fill="#181818" points="1069,175.4941,1079,179.4941,1069,183.4941,1073,179.4941" style="stroke:#181818;stroke-width:1.0;"/><line style="stroke:#181818;stroke-width:1.0;" x1="919.5" x2="1075" y1="179.4941" y2="179.4941"/><text fill="#000000" font-family="sans-serif" font-size="13" lengthAdjust="spacing" textLength="128" x="926.5" y="174.2314">findAllJobReferences()</text><polygon fill="#181818" points="930.5,206.7852,920.5,210.7852,930.5,214.7852,926.5,210.7852" style="stroke:#181818;stroke-width:1.0;"/><line style="stroke:#181818;stroke-width:1.0;stroke-dasharray:2.0,2.0;" x1="924.5" x2="1085" y1="210.7852" y2="210.7852"/><text fill="#000000" font-family="sans-serif" font-size="13" lengthAdjust="spacing" textLength="115" x="936.5" y="205.5225">List&lt;JobReference&gt;</text><polygon fill="#181818" points="358.5,238.0762,348.5,242.0762,358.5,246.0762,354.5,242.0762" style="stroke:#181818;stroke-width:1.0;"/><line style="stroke:#181818;stroke-width:1.0;stroke-dasharray:2.0,2.0;" x1="352.5" x2="913.5" y1="242.0762" y2="242.0762"/><text fill="#000000" font-family="sans-serif" font-size="13" lengthAdjust="spacing" textLength="115" x="364.5" y="236.8135">List&lt;JobReference&gt;</text><polygon fill="#181818" points="77.5,269.3672,67.5,273.3672,77.5,277.3672,73.5,273.3672" style="stroke:#181818;stroke-width:1.0;"/><line style="stroke:#181818;stroke-width:1.0;" x1="71.5" x2="336.5" y1="273.3672" y2="273.3672"/><text fill="#000000" font-family="sans-serif" font-size="13" lengthAdjust="spacing" textLength="247" x="83.5" y="268.1045">Display job references and prompt for input</text><polygon fill="#181818" points="325.5,300.6582,335.5,304.6582,325.5,308.6582,329.5,304.6582" style="stroke:#181818;stroke-width:1.0;"/><line style="stroke:#181818;stroke-width:1.0;" x1="66.5" x2="331.5" y1="304.6582" y2="304.6582"/><text fill="#000000" font-family="sans-serif" font-size="13" lengthAdjust="spacing" textLength="106" x="73.5" y="299.3955">Input job reference</text><polygon fill="#181818" points="679.5,331.9492,689.5,335.9492,679.5,339.9492,683.5,335.9492" style="stroke:#181818;stroke-width:1.0;"/><line style="stroke:#181818;stroke-width:1.0;" x1="347.5" x2="685.5" y1="335.9492" y2="335.9492"/><text fill="#000000" font-family="sans-serif" font-size="13" lengthAdjust="spacing" textLength="198" x="354.5" y="330.6865">getInterviewFilePath(jobReference)</text><polygon fill="#181818" points="1069,363.2402,1079,367.2402,1069,371.2402,1073,367.2402" style="stroke:#181818;stroke-width:1.0;"/><line style="stroke:#181818;stroke-width:1.0;" x1="701.5" x2="1075" y1="367.2402" y2="367.2402"/><text fill="#000000" font-family="sans-serif" font-size="13" lengthAdjust="spacing" textLength="198" x="708.5" y="361.9775">getInterviewFilePath(jobReference)</text><polygon fill="#181818" points="712.5,394.5313,702.5,398.5313,712.5,402.5313,708.5,398.5313" style="stroke:#181818;stroke-width:1.0;"/><line style="stroke:#181818;stroke-width:1.0;stroke-dasharray:2.0,2.0;" x1="706.5" x2="1085" y1="398.5313" y2="398.5313"/><text fill="#000000" font-family="sans-serif" font-size="13" lengthAdjust="spacing" textLength="43" x="718.5" y="393.2686">filePath</text><polygon fill="#181818" points="358.5,425.8223,348.5,429.8223,358.5,433.8223,354.5,429.8223" style="stroke:#181818;stroke-width:1.0;"/><line style="stroke:#181818;stroke-width:1.0;stroke-dasharray:2.0,2.0;" x1="352.5" x2="695.5" y1="429.8223" y2="429.8223"/><text fill="#000000" font-family="sans-serif" font-size="13" lengthAdjust="spacing" textLength="43" x="364.5" y="424.5596">filePath</text><polygon fill="#181818" points="679.5,457.1133,689.5,461.1133,679.5,465.1133,683.5,461.1133" style="stroke:#181818;stroke-width:1.0;"/><line style="stroke:#181818;stroke-width:1.0;" x1="347.5" x2="685.5" y1="461.1133" y2="461.1133"/><text fill="#000000" font-family="sans-serif" font-size="13" lengthAdjust="spacing" textLength="172" x="354.5" y="455.8506">getApplications(jobReference)</text><polygon fill="#181818" points="1225.5,488.4043,1235.5,492.4043,1225.5,496.4043,1229.5,492.4043" style="stroke:#181818;stroke-width:1.0;"/><line style="stroke:#181818;stroke-width:1.0;" x1="701.5" x2="1231.5" y1="492.4043" y2="492.4043"/><text fill="#000000" font-family="sans-serif" font-size="13" lengthAdjust="spacing" textLength="197" x="708.5" y="487.1416">findByJobReference(jobReference)</text><polygon fill="#181818" points="712.5,519.6953,702.5,523.6953,712.5,527.6953,708.5,523.6953" style="stroke:#181818;stroke-width:1.0;"/><line style="stroke:#181818;stroke-width:1.0;stroke-dasharray:2.0,2.0;" x1="706.5" x2="1241.5" y1="523.6953" y2="523.6953"/><text fill="#000000" font-family="sans-serif" font-size="13" lengthAdjust="spacing" textLength="118" x="718.5" y="518.4326">List&lt;jobApplication&gt;</text><polygon fill="#181818" points="358.5,550.9863,348.5,554.9863,358.5,558.9863,354.5,554.9863" style="stroke:#181818;stroke-width:1.0;"/><line style="stroke:#181818;stroke-width:1.0;stroke-dasharray:2.0,2.0;" x1="352.5" x2="695.5" y1="554.9863" y2="554.9863"/><text fill="#000000" font-family="sans-serif" font-size="13" lengthAdjust="spacing" textLength="118" x="364.5" y="549.7236">List&lt;jobApplication&gt;</text><polygon fill="#181818" points="679.5,582.2773,689.5,586.2773,679.5,590.2773,683.5,586.2773" style="stroke:#181818;stroke-width:1.0;"/><line style="stroke:#181818;stroke-width:1.0;" x1="347.5" x2="685.5" y1="586.2773" y2="586.2773"/><text fill="#000000" font-family="sans-serif" font-size="13" lengthAdjust="spacing" textLength="208" x="354.5" y="581.0146">getCandidatesFilePath(applications)</text><polygon fill="#181818" points="1359,613.5684,1369,617.5684,1359,621.5684,1363,617.5684" style="stroke:#181818;stroke-width:1.0;"/><line style="stroke:#181818;stroke-width:1.0;" x1="701.5" x2="1365" y1="617.5684" y2="617.5684"/><text fill="#000000" font-family="sans-serif" font-size="13" lengthAdjust="spacing" textLength="304" x="708.5" y="612.3057">getInterviewAnswersPath() (loop for each application)</text><line style="stroke:#181818;stroke-width:1.0;stroke-dasharray:2.0,2.0;" x1="701.5" x2="743.5" y1="648.8594" y2="648.8594"/><line style="stroke:#181818;stroke-width:1.0;stroke-dasharray:2.0,2.0;" x1="743.5" x2="743.5" y1="648.8594" y2="661.8594"/><line style="stroke:#181818;stroke-width:1.0;stroke-dasharray:2.0,2.0;" x1="702.5" x2="743.5" y1="661.8594" y2="661.8594"/><polygon fill="#181818" points="712.5,657.8594,702.5,661.8594,712.5,665.8594,708.5,661.8594" style="stroke:#181818;stroke-width:1.0;"/><text fill="#000000" font-family="sans-serif" font-size="13" lengthAdjust="spacing" textLength="194" x="708.5" y="643.5967">List&lt;String&gt; (candidatesFilePath)</text><polygon fill="#181818" points="358.5,689.1504,348.5,693.1504,358.5,697.1504,354.5,693.1504" style="stroke:#181818;stroke-width:1.0;"/><line style="stroke:#181818;stroke-width:1.0;stroke-dasharray:2.0,2.0;" x1="352.5" x2="695.5" y1="693.1504" y2="693.1504"/><text fill="#000000" font-family="sans-serif" font-size="13" lengthAdjust="spacing" textLength="194" x="364.5" y="687.8877">List&lt;String&gt; (candidatesFilePath)</text><path d="M274.5,708.1504 L347.5,708.1504 L347.5,717.4414 L337.5,727.4414 L274.5,727.4414 L274.5,708.1504 " fill="#EEEEEE" style="stroke:#000000;stroke-width:1.5;"/><rect fill="none" height="519.9473" style="stroke:#000000;stroke-width:1.5;" width="1764.5" x="274.5" y="708.1504"/><text fill="#000000" font-family="sans-serif" font-size="13" font-weight="bold" lengthAdjust="spacing" textLength="28" x="289.5" y="723.1787">loop</text><text fill="#000000" font-family="sans-serif" font-size="11" font-weight="bold" lengthAdjust="spacing" textLength="97" x="362.5" y="722.0205">[for each filePath]</text><polygon fill="#181818" points="679.5,746.7324,689.5,750.7324,679.5,754.7324,683.5,750.7324" style="stroke:#181818;stroke-width:1.0;"/><line style="stroke:#181818;stroke-width:1.0;" x1="347.5" x2="685.5" y1="750.7324" y2="750.7324"/><text fill="#000000" font-family="sans-serif" font-size="13" lengthAdjust="spacing" textLength="203" x="354.5" y="745.4697">getInterviewsFromFilePath(filePath)</text><polygon fill="#181818" points="1493,778.0234,1503,782.0234,1493,786.0234,1497,782.0234" style="stroke:#181818;stroke-width:1.0;"/><line style="stroke:#181818;stroke-width:1.0;" x1="701.5" x2="1499" y1="782.0234" y2="782.0234"/><text fill="#000000" font-family="sans-serif" font-size="13" lengthAdjust="spacing" textLength="100" x="708.5" y="776.7607">new(CharStream)</text><polygon fill="#181818" points="712.5,809.3145,702.5,813.3145,712.5,817.3145,708.5,813.3145" style="stroke:#181818;stroke-width:1.0;"/><line style="stroke:#181818;stroke-width:1.0;stroke-dasharray:2.0,2.0;" x1="706.5" x2="1509" y1="813.3145" y2="813.3145"/><text fill="#000000" font-family="sans-serif" font-size="13" lengthAdjust="spacing" textLength="28" x="718.5" y="808.0518">lexer</text><polygon fill="#181818" points="1670.5,840.6055,1680.5,844.6055,1670.5,848.6055,1674.5,844.6055" style="stroke:#181818;stroke-width:1.0;"/><line style="stroke:#181818;stroke-width:1.0;" x1="701.5" x2="1676.5" y1="844.6055" y2="844.6055"/><text fill="#000000" font-family="sans-serif" font-size="13" lengthAdjust="spacing" textLength="160" x="708.5" y="839.3428">new(CommonTokenStream)</text><polygon fill="#181818" points="712.5,871.8965,702.5,875.8965,712.5,879.8965,708.5,875.8965" style="stroke:#181818;stroke-width:1.0;"/><line style="stroke:#181818;stroke-width:1.0;stroke-dasharray:2.0,2.0;" x1="706.5" x2="1686.5" y1="875.8965" y2="875.8965"/><text fill="#000000" font-family="sans-serif" font-size="13" lengthAdjust="spacing" textLength="36" x="718.5" y="870.6338">parser</text><polygon fill="#181818" points="1670.5,903.1875,1680.5,907.1875,1670.5,911.1875,1674.5,907.1875" style="stroke:#181818;stroke-width:1.0;"/><line style="stroke:#181818;stroke-width:1.0;" x1="701.5" x2="1676.5" y1="907.1875" y2="907.1875"/><text fill="#000000" font-family="sans-serif" font-size="13" lengthAdjust="spacing" textLength="34" x="708.5" y="901.9248">start()</text><polygon fill="#181818" points="1819.5,934.4785,1829.5,938.4785,1819.5,942.4785,1823.5,938.4785" style="stroke:#181818;stroke-width:1.0;"/><line style="stroke:#181818;stroke-width:1.0;" x1="1692.5" x2="1825.5" y1="938.4785" y2="938.4785"/><text fill="#000000" font-family="sans-serif" font-size="13" lengthAdjust="spacing" textLength="101" x="1699.5" y="933.2158">visit(startContext)</text><polygon fill="#181818" points="712.5,965.7695,702.5,969.7695,712.5,973.7695,708.5,969.7695" style="stroke:#181818;stroke-width:1.0;"/><line style="stroke:#181818;stroke-width:1.0;stroke-dasharray:2.0,2.0;" x1="706.5" x2="1835.5" y1="969.7695" y2="969.7695"/><text fill="#000000" font-family="sans-serif" font-size="13" lengthAdjust="spacing" textLength="260" x="718.5" y="964.5068">List&lt;InterviewAnswers&gt; (candidateInterviews)</text><polygon fill="#181818" points="358.5,997.0605,348.5,1001.0605,358.5,1005.0605,354.5,1001.0605" style="stroke:#181818;stroke-width:1.0;"/><line style="stroke:#181818;stroke-width:1.0;stroke-dasharray:2.0,2.0;" x1="352.5" x2="695.5" y1="1001.0605" y2="1001.0605"/><text fill="#000000" font-family="sans-serif" font-size="13" lengthAdjust="spacing" textLength="260" x="364.5" y="995.7979">List&lt;InterviewAnswers&gt; (candidateInterviews)</text><polygon fill="#181818" points="679.5,1028.3516,689.5,1032.3516,679.5,1036.3516,683.5,1032.3516" style="stroke:#181818;stroke-width:1.0;"/><line style="stroke:#181818;stroke-width:1.0;" x1="347.5" x2="685.5" y1="1032.3516" y2="1032.3516"/><text fill="#000000" font-family="sans-serif" font-size="13" lengthAdjust="spacing" textLength="315" x="354.5" y="1027.0889">checkInterviews(correctInterviews, candidateInterviews)</text><polygon fill="#181818" points="1952.5,1059.6426,1962.5,1063.6426,1952.5,1067.6426,1956.5,1063.6426" style="stroke:#181818;stroke-width:1.0;"/><line style="stroke:#181818;stroke-width:1.0;" x1="701.5" x2="1958.5" y1="1063.6426" y2="1063.6426"/><text fill="#000000" font-family="sans-serif" font-size="13" lengthAdjust="spacing" textLength="315" x="708.5" y="1058.3799">checkInterviews(correctInterviews, candidateInterviews)</text><polygon fill="#181818" points="712.5,1090.9336,702.5,1094.9336,712.5,1098.9336,708.5,1094.9336" style="stroke:#181818;stroke-width:1.0;"/><line style="stroke:#181818;stroke-width:1.0;" x1="706.5" x2="1963.5" y1="1094.9336" y2="1094.9336"/><text fill="#000000" font-family="sans-serif" font-size="13" lengthAdjust="spacing" textLength="86" x="718.5" y="1089.6709">interviewPoints</text><polygon fill="#181818" points="358.5,1122.2246,348.5,1126.2246,358.5,1130.2246,354.5,1126.2246" style="stroke:#181818;stroke-width:1.0;"/><line style="stroke:#181818;stroke-width:1.0;stroke-dasharray:2.0,2.0;" x1="352.5" x2="695.5" y1="1126.2246" y2="1126.2246"/><text fill="#000000" font-family="sans-serif" font-size="13" lengthAdjust="spacing" textLength="112" x="364.5" y="1120.9619">int (interviewPoints)</text><polygon fill="#181818" points="679.5,1153.5156,689.5,1157.5156,679.5,1161.5156,683.5,1157.5156" style="stroke:#181818;stroke-width:1.0;"/><line style="stroke:#181818;stroke-width:1.0;" x1="347.5" x2="685.5" y1="1157.5156" y2="1157.5156"/><text fill="#000000" font-family="sans-serif" font-size="13" lengthAdjust="spacing" textLength="325" x="354.5" y="1152.2529">savePointsToJobApplication(application, interviewPoints)</text><polygon fill="#181818" points="1359,1184.8066,1369,1188.8066,1359,1192.8066,1363,1188.8066" style="stroke:#181818;stroke-width:1.0;"/><line style="stroke:#181818;stroke-width:1.0;" x1="701.5" x2="1365" y1="1188.8066" y2="1188.8066"/><text fill="#000000" font-family="sans-serif" font-size="13" lengthAdjust="spacing" textLength="138" x="708.5" y="1183.5439">setInterviews(interviews)</text><polygon fill="#181818" points="1230.5,1216.0977,1240.5,1220.0977,1230.5,1224.0977,1234.5,1220.0977" style="stroke:#181818;stroke-width:1.0;"/><line style="stroke:#181818;stroke-width:1.0;" x1="696.5" x2="1236.5" y1="1220.0977" y2="1220.0977"/><text fill="#000000" font-family="sans-serif" font-size="13" lengthAdjust="spacing" textLength="96" x="703.5" y="1214.835">save(application)</text><polygon fill="#181818" points="77.5,1254.3887,67.5,1258.3887,77.5,1262.3887,73.5,1258.3887" style="stroke:#181818;stroke-width:1.0;"/><line style="stroke:#181818;stroke-width:1.0;stroke-dasharray:2.0,2.0;" x1="71.5" x2="341.5" y1="1258.3887" y2="1258.3887"/><text fill="#000000" font-family="sans-serif" font-size="13" lengthAdjust="spacing" textLength="79" x="83.5" y="1253.126">Display result</text><!--SRC=[lLV1Rk8m4BtdA-QOIEqFH2iabbKbgguMiTtUJHZ0RR2pjWFbxzS9a3Y9RK8QBIUOIVpcpPiP3oHHNC0ibuhlKVmaZ6nH12kUipKH9tX3GJUdELCe3XIFyiyyI3XJWgSTr-niJ_NhrqTUg5JFVFKhGqRPrdm2cQBg1BLpYHcNLCToklgcMPRIX2ZAMTVvpbU6_sgTSQboJQCEwWK_QxIkUq64hFsr_OsMS47GIWmyJYmfYM69VtEKIeBYS2Zza12sfckY43OqHHcGHD53yTEIqg1hAv2SwOk1fAdsB7630bc2Ceng07VMdPu2pQP5h8Ddwwa7pAgWpGYFVaQ5wvi9CmdMw8Vnq77ev0Tn9yuXKAiwOlX1PPQIiZn1LFa2NGgG2RxF56nqjr6MvQflQSsBXvi7ki9nTsGCMrILuqaNv8AeNVXkP29oLwYH2BVBNKBtGDzNJZx2cmlIpIhoKN9eOZlRaxHXSXdpJOwkb7Mudhlz-ybi41UoVJfRhJUbAhkoET4RVMd76g3RBQ3HDPnTBm5P5JunP1r3oIQTPhTDcJoYa2Lk167AULOE8Cru1qOWqRt9xAZtMmdTLHC8amxZQB1ItaDxojRaN3KkwC_NXgXyqWEzKdLJnLMSt2SoMmHDPHtRJ0mCZ-5iHuJE3v9z2zAr0nKFENmt9Kwh4uoi-u3k9NRUmoxC-7xFsIl_GDQJu6MBipCyEszIpEepl1mDhA4afI92XUEmcdINrXWEnPUmX2bYma_L0kikkeMxO-tN-krfO_Ph_LhKJgqzXZ5oxnif0uFrJPXXeoJPOV9HkyA42u69CLuUm1dOEEF5i1UnV3Mepd6tCa2lrWNNN-LGMVMx4BRE-W_wINB0CzWhVsvSmUOD_m3MoCOHi7tpI_DsgbDomHoq3nOimyQYq3-noDRshSdtnqcWp5Fbkzprt-L_]--></g></svg>