<?xml version="1.0" encoding="us-ascii" standalone="no"?><svg xmlns="http://www.w3.org/2000/svg" xmlns:xlink="http://www.w3.org/1999/xlink" contentStyleType="text/css" height="796.8px" preserveAspectRatio="none" style="width:1247px;height:796px;background:#FFFFFF;" version="1.1" viewBox="0 0 1247 796" width="1247.4px" zoomAndPan="magnify"><defs/><g><rect fill="#FFFFFF" height="666.1113" style="stroke:#181818;stroke-width:0.6;" width="6" x="202.5" y="70.1473"/><rect fill="#FFFFFF" height="56.3238" style="stroke:#181818;stroke-width:0.6;" width="6" x="435.3" y="201.5695"/><rect fill="#FFFFFF" height="56.3238" style="stroke:#181818;stroke-width:0.6;" width="6" x="435.3" y="276.668"/><rect fill="#FFFFFF" height="41.1492" style="stroke:#181818;stroke-width:0.6;" width="6" x="435.3" y="351.7664"/><rect fill="#FFFFFF" height="150.1969" style="stroke:#181818;stroke-width:0.6;" width="6" x="435.3" y="450.4395"/><rect fill="#FFFFFF" height="37.5492" style="stroke:#181818;stroke-width:0.6;" width="6" x="435.3" y="619.4109"/><rect fill="#FFFFFF" height="37.5492" style="stroke:#181818;stroke-width:0.6;" width="6" x="435.3" y="675.7348"/><rect fill="#FFFFFF" height="56.3238" style="stroke:#181818;stroke-width:0.6;" width="6" x="566.1" y="88.9219"/><rect fill="#FFFFFF" height="18.7746" style="stroke:#181818;stroke-width:0.6;" width="6" x="669" y="107.6965"/><rect fill="#FFFFFF" height="18.7746" style="stroke:#181818;stroke-width:0.6;" width="6" x="669" y="220.3441"/><rect fill="#FFFFFF" height="18.7746" style="stroke:#181818;stroke-width:0.6;" width="6" x="762.9" y="295.4426"/><rect fill="#FFFFFF" height="18.7746" style="stroke:#181818;stroke-width:0.6;" width="6" x="923.4" y="469.2141"/><rect fill="#FFFFFF" height="18.7746" style="stroke:#181818;stroke-width:0.6;" width="6" x="1029.9" y="506.7633"/><rect fill="#FFFFFF" height="37.5492" style="stroke:#181818;stroke-width:0.6;" width="6" x="1029.9" y="544.3125"/><rect fill="#FFFFFF" height="18.7746" style="stroke:#181818;stroke-width:0.6;" width="6" x="1119.3" y="563.0871"/><rect fill="none" height="293.1937" style="stroke:#000000;stroke-width:0.8999999999999999;" width="1079.1" x="164.7" y="424.8902"/><line style="stroke:#181818;stroke-width:0.3;stroke-dasharray:5.0,5.0;" x1="39.6" x2="39.6" y1="50.1727" y2="747.0586"/><line style="stroke:#181818;stroke-width:0.3;stroke-dasharray:5.0,5.0;" x1="205.5" x2="205.5" y1="50.1727" y2="747.0586"/><line style="stroke:#181818;stroke-width:0.3;stroke-dasharray:5.0,5.0;" x1="438.3" x2="438.3" y1="50.1727" y2="747.0586"/><line style="stroke:#181818;stroke-width:0.3;stroke-dasharray:5.0,5.0;" x1="568.8" x2="568.8" y1="50.1727" y2="747.0586"/><line style="stroke:#181818;stroke-width:0.3;stroke-dasharray:5.0,5.0;" x1="672" x2="672" y1="50.1727" y2="747.0586"/><line style="stroke:#181818;stroke-width:0.3;stroke-dasharray:5.0,5.0;" x1="765.6" x2="765.6" y1="50.1727" y2="747.0586"/><line style="stroke:#181818;stroke-width:0.3;stroke-dasharray:5.0,5.0;" x1="843" x2="843" y1="50.1727" y2="747.0586"/><line style="stroke:#181818;stroke-width:0.3;stroke-dasharray:5.0,5.0;" x1="926.4" x2="926.4" y1="50.1727" y2="747.0586"/><line style="stroke:#181818;stroke-width:0.3;stroke-dasharray:5.0,5.0;" x1="1032.6" x2="1032.6" y1="50.1727" y2="747.0586"/><line style="stroke:#181818;stroke-width:0.3;stroke-dasharray:5.0,5.0;" x1="1122" x2="1122" y1="50.1727" y2="747.0586"/><line style="stroke:#181818;stroke-width:0.3;stroke-dasharray:5.0,5.0;" x1="1198.8" x2="1198.8" y1="50.1727" y2="747.0586"/><text fill="#000000" font-family="sans-serif" font-size="8.4" lengthAdjust="spacing" textLength="70.2" x="3" y="48.0645">CustomerManager</text><ellipse cx="39.9" cy="8.1" fill="#E2E2F0" rx="4.8" ry="4.8" style="stroke:#181818;stroke-width:0.3;"/><path d="M39.9,12.9 L39.9,29.1 M32.1,17.7 L47.7,17.7 M39.9,29.1 L32.1,38.1 M39.9,29.1 L47.7,38.1 " fill="none" style="stroke:#181818;stroke-width:0.3;"/><text fill="#000000" font-family="sans-serif" font-size="8.4" lengthAdjust="spacing" textLength="70.2" x="3" y="755.523">CustomerManager</text><ellipse cx="39.9" cy="762.7312" fill="#E2E2F0" rx="4.8" ry="4.8" style="stroke:#181818;stroke-width:0.3;"/><path d="M39.9,767.5313 L39.9,783.7312 M32.1,772.3313 L47.7,772.3313 M39.9,783.7312 L32.1,792.7312 M39.9,783.7312 L47.7,792.7312 " fill="none" style="stroke:#181818;stroke-width:0.3;"/><text fill="#000000" font-family="sans-serif" font-size="8.4" lengthAdjust="spacing" textLength="66" x="170.7" y="48.0645">VerifyInterviewsUI</text><path d="M193.2,22.2 L193.2,36.6 M193.2,29.4 L203.4,29.4 " fill="none" style="stroke:#181818;stroke-width:0.3;"/><ellipse cx="210.6" cy="29.4" fill="#E2E2F0" rx="7.2" ry="7.2" style="stroke:#181818;stroke-width:0.3;"/><text fill="#000000" font-family="sans-serif" font-size="8.4" lengthAdjust="spacing" textLength="66" x="170.7" y="755.523">VerifyInterviewsUI</text><path d="M193.2,760.0313 L193.2,774.4313 M193.2,767.2312 L203.4,767.2312 " fill="none" style="stroke:#181818;stroke-width:0.3;"/><ellipse cx="210.6" cy="767.2312" fill="#E2E2F0" rx="7.2" ry="7.2" style="stroke:#181818;stroke-width:0.3;"/><text fill="#000000" font-family="sans-serif" font-size="8.4" lengthAdjust="spacing" textLength="96" x="388.5" y="48.0645">VerifyInterviewsController</text><ellipse cx="438.3" cy="29.4" fill="#E2E2F0" rx="7.2" ry="7.2" style="stroke:#181818;stroke-width:0.3;"/><polygon fill="#181818" points="435.9,22.2,439.5,19.2,438.3,22.2,439.5,25.2,435.9,22.2" style="stroke:#181818;stroke-width:0.6;"/><text fill="#000000" font-family="sans-serif" font-size="8.4" lengthAdjust="spacing" textLength="96" x="388.5" y="755.523">VerifyInterviewsController</text><ellipse cx="438.3" cy="767.2312" fill="#E2E2F0" rx="7.2" ry="7.2" style="stroke:#181818;stroke-width:0.3;"/><polygon fill="#181818" points="435.9,760.0313,439.5,757.0313,438.3,760.0313,439.5,763.0313,435.9,760.0313" style="stroke:#181818;stroke-width:0.6;"/><text fill="#000000" font-family="sans-serif" font-size="8.4" lengthAdjust="spacing" textLength="100.2" x="517.2" y="48.0645">ListJobOpeningsController</text><ellipse cx="569.1" cy="29.4" fill="#E2E2F0" rx="7.2" ry="7.2" style="stroke:#181818;stroke-width:0.3;"/><polygon fill="#181818" points="566.7,22.2,570.3,19.2,569.1,22.2,570.3,25.2,566.7,22.2" style="stroke:#181818;stroke-width:0.6;"/><text fill="#000000" font-family="sans-serif" font-size="8.4" lengthAdjust="spacing" textLength="100.2" x="517.2" y="755.523">ListJobOpeningsController</text><ellipse cx="569.1" cy="767.2312" fill="#E2E2F0" rx="7.2" ry="7.2" style="stroke:#181818;stroke-width:0.3;"/><polygon fill="#181818" points="566.7,760.0313,570.3,757.0313,569.1,760.0313,570.3,763.0313,566.7,760.0313" style="stroke:#181818;stroke-width:0.6;"/><text fill="#000000" font-family="sans-serif" font-size="8.4" lengthAdjust="spacing" textLength="86.4" x="627" y="48.0645">JobOpeningRepository</text><ellipse cx="672" cy="29.4" fill="#E2E2F0" rx="7.2" ry="7.2" style="stroke:#181818;stroke-width:0.3;"/><line style="stroke:#181818;stroke-width:0.3;" x1="664.8" x2="679.2" y1="37.8" y2="37.8"/><text fill="#000000" font-family="sans-serif" font-size="8.4" lengthAdjust="spacing" textLength="86.4" x="627" y="755.523">JobOpeningRepository</text><ellipse cx="672" cy="767.2312" fill="#E2E2F0" rx="7.2" ry="7.2" style="stroke:#181818;stroke-width:0.3;"/><line style="stroke:#181818;stroke-width:0.3;" x1="664.8" x2="679.2" y1="775.6313" y2="775.6313"/><text fill="#000000" font-family="sans-serif" font-size="8.4" lengthAdjust="spacing" textLength="82.2" x="723" y="48.0645">ApplicationRepository</text><ellipse cx="765.9" cy="29.4" fill="#E2E2F0" rx="7.2" ry="7.2" style="stroke:#181818;stroke-width:0.3;"/><line style="stroke:#181818;stroke-width:0.3;" x1="758.7" x2="773.1" y1="37.8" y2="37.8"/><text fill="#000000" font-family="sans-serif" font-size="8.4" lengthAdjust="spacing" textLength="82.2" x="723" y="755.523">ApplicationRepository</text><ellipse cx="765.9" cy="767.2312" fill="#E2E2F0" rx="7.2" ry="7.2" style="stroke:#181818;stroke-width:0.3;"/><line style="stroke:#181818;stroke-width:0.3;" x1="758.7" x2="773.1" y1="775.6313" y2="775.6313"/><text fill="#000000" font-family="sans-serif" font-size="8.4" lengthAdjust="spacing" textLength="52.8" x="814.8" y="48.0645">jobApplication</text><ellipse cx="843" cy="29.4" fill="#E2E2F0" rx="7.2" ry="7.2" style="stroke:#181818;stroke-width:0.3;"/><line style="stroke:#181818;stroke-width:0.3;" x1="835.8" x2="850.2" y1="37.8" y2="37.8"/><text fill="#000000" font-family="sans-serif" font-size="8.4" lengthAdjust="spacing" textLength="52.8" x="814.8" y="755.523">jobApplication</text><ellipse cx="843" cy="767.2312" fill="#E2E2F0" rx="7.2" ry="7.2" style="stroke:#181818;stroke-width:0.3;"/><line style="stroke:#181818;stroke-width:0.3;" x1="835.8" x2="850.2" y1="775.6313" y2="775.6313"/><text fill="#000000" font-family="sans-serif" font-size="8.4" lengthAdjust="spacing" textLength="94.8" x="877.2" y="48.0645">CostumerInterviewsLexer</text><ellipse cx="926.4" cy="29.4" fill="#E2E2F0" rx="7.2" ry="7.2" style="stroke:#181818;stroke-width:0.3;"/><line style="stroke:#181818;stroke-width:0.3;" x1="919.2" x2="933.6" y1="37.8" y2="37.8"/><text fill="#000000" font-family="sans-serif" font-size="8.4" lengthAdjust="spacing" textLength="94.8" x="877.2" y="755.523">CostumerInterviewsLexer</text><ellipse cx="926.4" cy="767.2312" fill="#E2E2F0" rx="7.2" ry="7.2" style="stroke:#181818;stroke-width:0.3;"/><line style="stroke:#181818;stroke-width:0.3;" x1="919.2" x2="933.6" y1="775.6313" y2="775.6313"/><text fill="#000000" font-family="sans-serif" font-size="8.4" lengthAdjust="spacing" textLength="99" x="981.6" y="48.0645">CostumerInterviewsParser</text><ellipse cx="1032.9" cy="29.4" fill="#E2E2F0" rx="7.2" ry="7.2" style="stroke:#181818;stroke-width:0.3;"/><line style="stroke:#181818;stroke-width:0.3;" x1="1025.7" x2="1040.1" y1="37.8" y2="37.8"/><text fill="#000000" font-family="sans-serif" font-size="8.4" lengthAdjust="spacing" textLength="99" x="981.6" y="755.523">CostumerInterviewsParser</text><ellipse cx="1032.9" cy="767.2312" fill="#E2E2F0" rx="7.2" ry="7.2" style="stroke:#181818;stroke-width:0.3;"/><line style="stroke:#181818;stroke-width:0.3;" x1="1025.7" x2="1040.1" y1="775.6313" y2="775.6313"/><text fill="#000000" font-family="sans-serif" font-size="8.4" lengthAdjust="spacing" textLength="60.6" x="1090.2" y="48.0645">InterviewsVisitor</text><ellipse cx="1122.3" cy="29.4" fill="#E2E2F0" rx="7.2" ry="7.2" style="stroke:#181818;stroke-width:0.3;"/><line style="stroke:#181818;stroke-width:0.3;" x1="1115.1" x2="1129.5" y1="37.8" y2="37.8"/><text fill="#000000" font-family="sans-serif" font-size="8.4" lengthAdjust="spacing" textLength="60.6" x="1090.2" y="755.523">InterviewsVisitor</text><ellipse cx="1122.3" cy="767.2312" fill="#E2E2F0" rx="7.2" ry="7.2" style="stroke:#181818;stroke-width:0.3;"/><line style="stroke:#181818;stroke-width:0.3;" x1="1115.1" x2="1129.5" y1="775.6313" y2="775.6313"/><rect fill="#E2E2F0" height="19.5727" rx="1.5" ry="1.5" style="stroke:#181818;stroke-width:0.3;" width="77.4" x="1160.4" y="30"/><text fill="#000000" font-family="sans-serif" font-size="8.4" lengthAdjust="spacing" textLength="69" x="1164.6" y="43.2645">InterviewsChecker</text><rect fill="#E2E2F0" height="19.5727" rx="1.5" ry="1.5" style="stroke:#181818;stroke-width:0.3;" width="77.4" x="1160.4" y="746.4586"/><text fill="#000000" font-family="sans-serif" font-size="8.4" lengthAdjust="spacing" textLength="69" x="1164.6" y="759.723">InterviewsChecker</text><rect fill="#FFFFFF" height="666.1113" style="stroke:#181818;stroke-width:0.6;" width="6" x="202.5" y="70.1473"/><rect fill="#FFFFFF" height="56.3238" style="stroke:#181818;stroke-width:0.6;" width="6" x="435.3" y="201.5695"/><rect fill="#FFFFFF" height="56.3238" style="stroke:#181818;stroke-width:0.6;" width="6" x="435.3" y="276.668"/><rect fill="#FFFFFF" height="41.1492" style="stroke:#181818;stroke-width:0.6;" width="6" x="435.3" y="351.7664"/><rect fill="#FFFFFF" height="150.1969" style="stroke:#181818;stroke-width:0.6;" width="6" x="435.3" y="450.4395"/><rect fill="#FFFFFF" height="37.5492" style="stroke:#181818;stroke-width:0.6;" width="6" x="435.3" y="619.4109"/><rect fill="#FFFFFF" height="37.5492" style="stroke:#181818;stroke-width:0.6;" width="6" x="435.3" y="675.7348"/><rect fill="#FFFFFF" height="56.3238" style="stroke:#181818;stroke-width:0.6;" width="6" x="566.1" y="88.9219"/><rect fill="#FFFFFF" height="18.7746" style="stroke:#181818;stroke-width:0.6;" width="6" x="669" y="107.6965"/><rect fill="#FFFFFF" height="18.7746" style="stroke:#181818;stroke-width:0.6;" width="6" x="669" y="220.3441"/><rect fill="#FFFFFF" height="18.7746" style="stroke:#181818;stroke-width:0.6;" width="6" x="762.9" y="295.4426"/><rect fill="#FFFFFF" height="18.7746" style="stroke:#181818;stroke-width:0.6;" width="6" x="923.4" y="469.2141"/><rect fill="#FFFFFF" height="18.7746" style="stroke:#181818;stroke-width:0.6;" width="6" x="1029.9" y="506.7633"/><rect fill="#FFFFFF" height="37.5492" style="stroke:#181818;stroke-width:0.6;" width="6" x="1029.9" y="544.3125"/><rect fill="#FFFFFF" height="18.7746" style="stroke:#181818;stroke-width:0.6;" width="6" x="1119.3" y="563.0871"/><polygon fill="#181818" points="195.3,67.7473,201.3,70.1473,195.3,72.5473,197.7,70.1473" style="stroke:#181818;stroke-width:0.6;"/><line style="stroke:#181818;stroke-width:0.6;" x1="39.9" x2="198.9" y1="70.1473" y2="70.1473"/><text fill="#000000" font-family="sans-serif" font-size="7.8" lengthAdjust="spacing" textLength="114" x="44.1" y="66.9896">Requests to verify candidate files</text><polygon fill="#181818" points="558.9,86.5219,564.9,88.9219,558.9,91.3219,561.3,88.9219" style="stroke:#181818;stroke-width:0.6;"/><line style="stroke:#181818;stroke-width:0.6;" x1="208.5" x2="562.5" y1="88.9219" y2="88.9219"/><text fill="#000000" font-family="sans-serif" font-size="7.8" lengthAdjust="spacing" textLength="63.6" x="212.7" y="85.7643">allJobReferences()</text><polygon fill="#181818" points="661.8,105.2965,667.8,107.6965,661.8,110.0965,664.2,107.6965" style="stroke:#181818;stroke-width:0.6;"/><line style="stroke:#181818;stroke-width:0.6;" x1="572.1" x2="665.4" y1="107.6965" y2="107.6965"/><text fill="#000000" font-family="sans-serif" font-size="7.8" lengthAdjust="spacing" textLength="76.8" x="576.3" y="104.5389">findAllJobReferences()</text><polygon fill="#181818" points="578.7,124.0711,572.7,126.4711,578.7,128.8711,576.3,126.4711" style="stroke:#181818;stroke-width:0.6;"/><line style="stroke:#181818;stroke-width:0.6;stroke-dasharray:2.0,2.0;" x1="575.1" x2="671.4" y1="126.4711" y2="126.4711"/><text fill="#000000" font-family="sans-serif" font-size="7.8" lengthAdjust="spacing" textLength="69" x="582.3" y="123.3135">List&lt;JobReference&gt;</text><polygon fill="#181818" points="215.1,142.8457,209.1,145.2457,215.1,147.6457,212.7,145.2457" style="stroke:#181818;stroke-width:0.6;"/><line style="stroke:#181818;stroke-width:0.6;stroke-dasharray:2.0,2.0;" x1="211.5" x2="568.5" y1="145.2457" y2="145.2457"/><text fill="#000000" font-family="sans-serif" font-size="7.8" lengthAdjust="spacing" textLength="69" x="218.7" y="142.0881">List&lt;JobReference&gt;</text><polygon fill="#181818" points="46.5,161.6203,40.5,164.0203,46.5,166.4203,44.1,164.0203" style="stroke:#181818;stroke-width:0.6;"/><line style="stroke:#181818;stroke-width:0.6;" x1="42.9" x2="201.9" y1="164.0203" y2="164.0203"/><text fill="#000000" font-family="sans-serif" font-size="7.8" lengthAdjust="spacing" textLength="148.2" x="50.1" y="160.8627">Display job references and prompt for input</text><polygon fill="#181818" points="195.3,180.3949,201.3,182.7949,195.3,185.1949,197.7,182.7949" style="stroke:#181818;stroke-width:0.6;"/><line style="stroke:#181818;stroke-width:0.6;" x1="39.9" x2="198.9" y1="182.7949" y2="182.7949"/><text fill="#000000" font-family="sans-serif" font-size="7.8" lengthAdjust="spacing" textLength="63.6" x="44.1" y="179.6373">Input job reference</text><polygon fill="#181818" points="428.1,199.1695,434.1,201.5695,428.1,203.9695,430.5,201.5695" style="stroke:#181818;stroke-width:0.6;"/><line style="stroke:#181818;stroke-width:0.6;" x1="208.5" x2="431.7" y1="201.5695" y2="201.5695"/><text fill="#000000" font-family="sans-serif" font-size="7.8" lengthAdjust="spacing" textLength="118.8" x="212.7" y="198.4119">getInterviewFilePath(jobReference)</text><polygon fill="#181818" points="661.8,217.9441,667.8,220.3441,661.8,222.7441,664.2,220.3441" style="stroke:#181818;stroke-width:0.6;"/><line style="stroke:#181818;stroke-width:0.6;" x1="441.3" x2="665.4" y1="220.3441" y2="220.3441"/><text fill="#000000" font-family="sans-serif" font-size="7.8" lengthAdjust="spacing" textLength="118.8" x="445.5" y="217.1865">getInterviewFilePath(jobReference)</text><polygon fill="#181818" points="447.9,236.7188,441.9,239.1187,447.9,241.5187,445.5,239.1187" style="stroke:#181818;stroke-width:0.6;"/><line style="stroke:#181818;stroke-width:0.6;stroke-dasharray:2.0,2.0;" x1="444.3" x2="671.4" y1="239.1187" y2="239.1187"/><text fill="#000000" font-family="sans-serif" font-size="7.8" lengthAdjust="spacing" textLength="25.8" x="451.5" y="235.9611">filePath</text><polygon fill="#181818" points="215.1,255.4934,209.1,257.8934,215.1,260.2934,212.7,257.8934" style="stroke:#181818;stroke-width:0.6;"/><line style="stroke:#181818;stroke-width:0.6;stroke-dasharray:2.0,2.0;" x1="211.5" x2="437.7" y1="257.8934" y2="257.8934"/><text fill="#000000" font-family="sans-serif" font-size="7.8" lengthAdjust="spacing" textLength="25.8" x="218.7" y="254.7357">filePath</text><polygon fill="#181818" points="428.1,274.268,434.1,276.668,428.1,279.068,430.5,276.668" style="stroke:#181818;stroke-width:0.6;"/><line style="stroke:#181818;stroke-width:0.6;" x1="208.5" x2="431.7" y1="276.668" y2="276.668"/><text fill="#000000" font-family="sans-serif" font-size="7.8" lengthAdjust="spacing" textLength="103.2" x="212.7" y="273.5104">getApplications(jobReference)</text><polygon fill="#181818" points="755.7,293.0426,761.7,295.4426,755.7,297.8426,758.1,295.4426" style="stroke:#181818;stroke-width:0.6;"/><line style="stroke:#181818;stroke-width:0.6;" x1="441.3" x2="759.3" y1="295.4426" y2="295.4426"/><text fill="#000000" font-family="sans-serif" font-size="7.8" lengthAdjust="spacing" textLength="118.2" x="445.5" y="292.285">findByJobReference(jobReference)</text><polygon fill="#181818" points="447.9,311.8172,441.9,314.2172,447.9,316.6172,445.5,314.2172" style="stroke:#181818;stroke-width:0.6;"/><line style="stroke:#181818;stroke-width:0.6;stroke-dasharray:2.0,2.0;" x1="444.3" x2="765.3" y1="314.2172" y2="314.2172"/><text fill="#000000" font-family="sans-serif" font-size="7.8" lengthAdjust="spacing" textLength="70.8" x="451.5" y="311.0596">List&lt;jobApplication&gt;</text><polygon fill="#181818" points="215.1,330.5918,209.1,332.9918,215.1,335.3918,212.7,332.9918" style="stroke:#181818;stroke-width:0.6;"/><line style="stroke:#181818;stroke-width:0.6;stroke-dasharray:2.0,2.0;" x1="211.5" x2="437.7" y1="332.9918" y2="332.9918"/><text fill="#000000" font-family="sans-serif" font-size="7.8" lengthAdjust="spacing" textLength="70.8" x="218.7" y="329.8342">List&lt;jobApplication&gt;</text><polygon fill="#181818" points="428.1,349.3664,434.1,351.7664,428.1,354.1664,430.5,351.7664" style="stroke:#181818;stroke-width:0.6;"/><line style="stroke:#181818;stroke-width:0.6;" x1="208.5" x2="431.7" y1="351.7664" y2="351.7664"/><text fill="#000000" font-family="sans-serif" font-size="7.8" lengthAdjust="spacing" textLength="124.8" x="212.7" y="348.6088">getCandidatesFilePath(applications)</text><polygon fill="#181818" points="835.8,368.141,841.8,370.541,835.8,372.941,838.2,370.541" style="stroke:#181818;stroke-width:0.6;"/><line style="stroke:#181818;stroke-width:0.6;" x1="441.3" x2="839.4" y1="370.541" y2="370.541"/><text fill="#000000" font-family="sans-serif" font-size="7.8" lengthAdjust="spacing" textLength="182.4" x="445.5" y="367.3834">getInterviewAnswersPath() (loop for each application)</text><line style="stroke:#181818;stroke-width:0.6;stroke-dasharray:2.0,2.0;" x1="441.3" x2="466.5" y1="392.3156" y2="392.3156"/><line style="stroke:#181818;stroke-width:0.6;stroke-dasharray:2.0,2.0;" x1="466.5" x2="466.5" y1="392.3156" y2="400.1156"/><line style="stroke:#181818;stroke-width:0.6;stroke-dasharray:2.0,2.0;" x1="438.3" x2="466.5" y1="400.1156" y2="400.1156"/><polygon fill="#181818" points="444.3,397.7156,438.3,400.1156,444.3,402.5156,441.9,400.1156" style="stroke:#181818;stroke-width:0.6;"/><text fill="#000000" font-family="sans-serif" font-size="7.8" lengthAdjust="spacing" textLength="116.4" x="445.5" y="389.158">List&lt;String&gt; (candidatesFilePath)</text><polygon fill="#181818" points="215.1,413.4902,209.1,415.8902,215.1,418.2902,212.7,415.8902" style="stroke:#181818;stroke-width:0.6;"/><line style="stroke:#181818;stroke-width:0.6;stroke-dasharray:2.0,2.0;" x1="211.5" x2="437.7" y1="415.8902" y2="415.8902"/><text fill="#000000" font-family="sans-serif" font-size="7.8" lengthAdjust="spacing" textLength="116.4" x="218.7" y="412.7326">List&lt;String&gt; (candidatesFilePath)</text><path d="M164.7,424.8902 L208.5,424.8902 L208.5,430.4648 L202.5,436.4648 L164.7,436.4648 L164.7,424.8902 " fill="#EEEEEE" style="stroke:#000000;stroke-width:0.8999999999999999;"/><rect fill="none" height="293.1937" style="stroke:#000000;stroke-width:0.8999999999999999;" width="1079.1" x="164.7" y="424.8902"/><text fill="#000000" font-family="sans-serif" font-size="7.8" font-weight="bold" lengthAdjust="spacing" textLength="16.8" x="173.7" y="433.9072">loop</text><text fill="#000000" font-family="sans-serif" font-size="6.6" font-weight="bold" lengthAdjust="spacing" textLength="58.2" x="217.5" y="433.2123">[for each filePath]</text><polygon fill="#181818" points="428.1,448.0395,434.1,450.4395,428.1,452.8395,430.5,450.4395" style="stroke:#181818;stroke-width:0.6;"/><line style="stroke:#181818;stroke-width:0.6;" x1="208.5" x2="431.7" y1="450.4395" y2="450.4395"/><text fill="#000000" font-family="sans-serif" font-size="7.8" lengthAdjust="spacing" textLength="121.8" x="212.7" y="447.2818">getInterviewsFromFilePath(filePath)</text><polygon fill="#181818" points="916.2,466.8141,922.2,469.2141,916.2,471.6141,918.6,469.2141" style="stroke:#181818;stroke-width:0.6;"/><line style="stroke:#181818;stroke-width:0.6;" x1="441.3" x2="919.8" y1="469.2141" y2="469.2141"/><text fill="#000000" font-family="sans-serif" font-size="7.8" lengthAdjust="spacing" textLength="60" x="445.5" y="466.0564">new(CharStream)</text><polygon fill="#181818" points="447.9,485.5887,441.9,487.9887,447.9,490.3887,445.5,487.9887" style="stroke:#181818;stroke-width:0.6;"/><line style="stroke:#181818;stroke-width:0.6;stroke-dasharray:2.0,2.0;" x1="444.3" x2="925.8" y1="487.9887" y2="487.9887"/><text fill="#000000" font-family="sans-serif" font-size="7.8" lengthAdjust="spacing" textLength="16.8" x="451.5" y="484.8311">lexer</text><polygon fill="#181818" points="1022.7,504.3633,1028.7,506.7633,1022.7,509.1633,1025.1,506.7633" style="stroke:#181818;stroke-width:0.6;"/><line style="stroke:#181818;stroke-width:0.6;" x1="441.3" x2="1026.3" y1="506.7633" y2="506.7633"/><text fill="#000000" font-family="sans-serif" font-size="7.8" lengthAdjust="spacing" textLength="96" x="445.5" y="503.6057">new(CommonTokenStream)</text><polygon fill="#181818" points="447.9,523.1379,441.9,525.5379,447.9,527.9379,445.5,525.5379" style="stroke:#181818;stroke-width:0.6;"/><line style="stroke:#181818;stroke-width:0.6;stroke-dasharray:2.0,2.0;" x1="444.3" x2="1032.3" y1="525.5379" y2="525.5379"/><text fill="#000000" font-family="sans-serif" font-size="7.8" lengthAdjust="spacing" textLength="21.6" x="451.5" y="522.3803">parser</text><polygon fill="#181818" points="1022.7,541.9125,1028.7,544.3125,1022.7,546.7125,1025.1,544.3125" style="stroke:#181818;stroke-width:0.6;"/><line style="stroke:#181818;stroke-width:0.6;" x1="441.3" x2="1026.3" y1="544.3125" y2="544.3125"/><text fill="#000000" font-family="sans-serif" font-size="7.8" lengthAdjust="spacing" textLength="20.4" x="445.5" y="541.1549">start()</text><polygon fill="#181818" points="1112.1,560.6871,1118.1,563.0871,1112.1,565.4871,1114.5,563.0871" style="stroke:#181818;stroke-width:0.6;"/><line style="stroke:#181818;stroke-width:0.6;" x1="1035.9" x2="1115.7" y1="563.0871" y2="563.0871"/><text fill="#000000" font-family="sans-serif" font-size="7.8" lengthAdjust="spacing" textLength="60.6" x="1040.1" y="559.9295">visit(startContext)</text><polygon fill="#181818" points="447.9,579.4617,441.9,581.8617,447.9,584.2617,445.5,581.8617" style="stroke:#181818;stroke-width:0.6;"/><line style="stroke:#181818;stroke-width:0.6;stroke-dasharray:2.0,2.0;" x1="444.3" x2="1121.7" y1="581.8617" y2="581.8617"/><text fill="#000000" font-family="sans-serif" font-size="7.8" lengthAdjust="spacing" textLength="156" x="451.5" y="578.7041">List&lt;InterviewAnswers&gt; (candidateInterviews)</text><polygon fill="#181818" points="215.1,598.2363,209.1,600.6363,215.1,603.0363,212.7,600.6363" style="stroke:#181818;stroke-width:0.6;"/><line style="stroke:#181818;stroke-width:0.6;stroke-dasharray:2.0,2.0;" x1="211.5" x2="437.7" y1="600.6363" y2="600.6363"/><text fill="#000000" font-family="sans-serif" font-size="7.8" lengthAdjust="spacing" textLength="156" x="218.7" y="597.4787">List&lt;InterviewAnswers&gt; (candidateInterviews)</text><polygon fill="#181818" points="428.1,617.0109,434.1,619.4109,428.1,621.8109,430.5,619.4109" style="stroke:#181818;stroke-width:0.6;"/><line style="stroke:#181818;stroke-width:0.6;" x1="208.5" x2="431.7" y1="619.4109" y2="619.4109"/><text fill="#000000" font-family="sans-serif" font-size="7.8" lengthAdjust="spacing" textLength="189" x="212.7" y="616.2533">checkInterviews(correctInterviews, candidateInterviews)</text><polygon fill="#181818" points="1191.9,635.7855,1197.9,638.1855,1191.9,640.5855,1194.3,638.1855" style="stroke:#181818;stroke-width:0.6;"/><line style="stroke:#181818;stroke-width:0.6;" x1="441.3" x2="1195.5" y1="638.1855" y2="638.1855"/><text fill="#000000" font-family="sans-serif" font-size="7.8" lengthAdjust="spacing" textLength="189" x="445.5" y="635.0279">checkInterviews(correctInterviews, candidateInterviews)</text><polygon fill="#181818" points="215.1,654.5602,209.1,656.9602,215.1,659.3602,212.7,656.9602" style="stroke:#181818;stroke-width:0.6;"/><line style="stroke:#181818;stroke-width:0.6;stroke-dasharray:2.0,2.0;" x1="211.5" x2="437.7" y1="656.9602" y2="656.9602"/><text fill="#000000" font-family="sans-serif" font-size="7.8" lengthAdjust="spacing" textLength="93" x="218.7" y="653.8025">boolean (passedInterviews)</text><polygon fill="#181818" points="428.1,673.3348,434.1,675.7348,428.1,678.1348,430.5,675.7348" style="stroke:#181818;stroke-width:0.6;"/><line style="stroke:#181818;stroke-width:0.6;" x1="208.5" x2="431.7" y1="675.7348" y2="675.7348"/><text fill="#000000" font-family="sans-serif" font-size="7.8" lengthAdjust="spacing" textLength="215.4" x="212.7" y="672.5771">saveEvaluationToJobApplication(application, passedInterviews)</text><polygon fill="#181818" points="835.8,692.1094,841.8,694.5094,835.8,696.9094,838.2,694.5094" style="stroke:#181818;stroke-width:0.6;"/><line style="stroke:#181818;stroke-width:0.6;" x1="441.3" x2="839.4" y1="694.5094" y2="694.5094"/><text fill="#000000" font-family="sans-serif" font-size="7.8" lengthAdjust="spacing" textLength="82.8" x="445.5" y="691.3518">setInterviews(interviews)</text><polygon fill="#181818" points="758.7,710.884,764.7,713.284,758.7,715.684,761.1,713.284" style="stroke:#181818;stroke-width:0.6;"/><line style="stroke:#181818;stroke-width:0.6;" x1="438.3" x2="762.3" y1="713.284" y2="713.284"/><text fill="#000000" font-family="sans-serif" font-size="7.8" lengthAdjust="spacing" textLength="57.6" x="442.5" y="710.1264">save(application)</text><polygon fill="#181818" points="46.5,733.8586,40.5,736.2586,46.5,738.6586,44.1,736.2586" style="stroke:#181818;stroke-width:0.6;"/><line style="stroke:#181818;stroke-width:0.6;stroke-dasharray:2.0,2.0;" x1="42.9" x2="204.9" y1="736.2586" y2="736.2586"/><text fill="#000000" font-family="sans-serif" font-size="7.8" lengthAdjust="spacing" textLength="47.4" x="50.1" y="733.101">Display result</text><!--SRC=[lLVRRk8m47tFLynZaDeVY2eabjrAL5rjnNRxRf89k0rsrdQW_Fqw0H8diGsaqV84Cy5dpfovE2HMNC2ya8flKVmaZAnH12jUi8I80xoXeEbXmHIA7SMz_BC8OiwKu5dFDJ_QC_ttyoFFLAedllgL8wDiRJw1J55rWCQvn9nBgcCvd7spFCzeJ1JbhEzyvol3VxREkLI5fj44zOoV3LhV_KA4RFoD_OrMS47GIGpSJoqfYM29VmkKIeBYiAly41EMq8GeX9HcA0CIAxehVrfI6lHj9P8pVH6GBDEU9QOeaCKemqa3uCwwqrEYsRI8TF0icNd0h0hQZ73lPrIw7aoOQP2W7yP3nw6J7yITE8T0dUg8u3kLUKQgyWHHvmjqAK0k-3PNaEfkeomlrBMbjIWVRX_e2iVTaH6iKTMEHrsGBqHjmdSZ4nDtXHg9SBlS9NGBz6tbv2ESdf0kLf6FaaCJszcUf0sJovXlSdIbhCFrsEtV3cQ3k93jqzbglIXLrPNjYTxgIplM0Dqk0OskuVoy16HT-CIGTGmbstJQtJPZSez2LhWJ23FEyse0QSORC0APt9hCddg_bT1TDOKmxZ6UN9dXeNfweOCsvxfnGN- -DaJbenxejQffZLYUV0rTMmHjPHstcGWOxiFvXWZD7Ccs0-cw0vKFENmN9Sxg4mmfVK2t4ZlUmqxC-7RBsIl_G7ObmTCjpixmwBn8CM_Ey78qi8QIb8e85Ox3Qjg_j4QmAx-45KmP4twg3bZ_ebkwUzRhMhyxRSnERFuswQRM7iCOkVSDYu71-XR3i54IRp3-Q5nXp8N0s1WlT-0CR9pnOjZBMBuQr015LfndI1Y4EP4Ia_-QVqbs-6D7ig9QWA_ygRL6pIrz1_Rmnb6XkxwbkM92UaEIdPUwachOslRNPnTPOh_w-Dv-1CeYKxwrhzzv_m40]--></g></svg>