<?xml version="1.0" encoding="us-ascii" standalone="no"?><svg xmlns="http://www.w3.org/2000/svg" xmlns:xlink="http://www.w3.org/1999/xlink" contentStyleType="text/css" height="1069px" preserveAspectRatio="none" style="width:1539px;height:1069px;background:#FFFFFF;" version="1.1" viewBox="0 0 1539 1069" width="1539px" zoomAndPan="magnify"><defs/><g><!--cluster JobOpeningAgg--><g id="cluster_JobOpeningAgg"><path d="M489.5,201.46 L603.5,201.46 A3.75,3.75 0 0 1 606,203.96 L613,223.9483 L1036.5,223.9483 A2.5,2.5 0 0 1 1039,226.4483 L1039,933.04 A2.5,2.5 0 0 1 1036.5,935.54 L489.5,935.54 A2.5,2.5 0 0 1 487,933.04 L487,203.96 A2.5,2.5 0 0 1 489.5,201.46 " fill="none" style="stroke:#000000;stroke-width:1.5;"/><line style="stroke:#000000;stroke-width:1.5;" x1="487" x2="613" y1="223.9483" y2="223.9483"/><text fill="#000000" font-family="sans-serif" font-size="14" font-weight="bold" lengthAdjust="spacing" textLength="113" x="491" y="216.9952">JobOpeningAgg</text></g><!--cluster JobApplicationAgg--><g id="cluster_JobApplicationAgg"><path d="M8.5,6 L143.5,6 A3.75,3.75 0 0 1 146,8.5 L153,28.4883 L460.5,28.4883 A2.5,2.5 0 0 1 463,30.9883 L463,518.16 A2.5,2.5 0 0 1 460.5,520.66 L8.5,520.66 A2.5,2.5 0 0 1 6,518.16 L6,8.5 A2.5,2.5 0 0 1 8.5,6 " fill="none" style="stroke:#000000;stroke-width:1.5;"/><line style="stroke:#000000;stroke-width:1.5;" x1="6" x2="153" y1="28.4883" y2="28.4883"/><text fill="#000000" font-family="sans-serif" font-size="14" font-weight="bold" lengthAdjust="spacing" textLength="134" x="10" y="21.5352">JobApplicationAgg</text></g><!--cluster RankAgg--><g id="cluster_RankAgg"><path d="M1065.5,388.68 L1130.5,388.68 A3.75,3.75 0 0 1 1133,391.18 L1140,411.1683 L1472.5,411.1683 A2.5,2.5 0 0 1 1475,413.6683 L1475,709.11 A2.5,2.5 0 0 1 1472.5,711.61 L1065.5,711.61 A2.5,2.5 0 0 1 1063,709.11 L1063,391.18 A2.5,2.5 0 0 1 1065.5,388.68 " fill="none" style="stroke:#000000;stroke-width:1.5;"/><line style="stroke:#000000;stroke-width:1.5;" x1="1063" x2="1140" y1="411.1683" y2="411.1683"/><text fill="#000000" font-family="sans-serif" font-size="14" font-weight="bold" lengthAdjust="spacing" textLength="64" x="1067" y="404.2152">RankAgg</text></g><!--cluster CandidateAgg--><g id="cluster_CandidateAgg"><path d="M1266.5,787.08 L1367.5,787.08 A3.75,3.75 0 0 1 1370,789.58 L1377,809.5683 L1529.5,809.5683 A2.5,2.5 0 0 1 1532,812.0683 L1532,1059.53 A2.5,2.5 0 0 1 1529.5,1062.03 L1266.5,1062.03 A2.5,2.5 0 0 1 1264,1059.53 L1264,789.58 A2.5,2.5 0 0 1 1266.5,787.08 " fill="none" style="stroke:#000000;stroke-width:1.5;"/><line style="stroke:#000000;stroke-width:1.5;" x1="1264" x2="1377" y1="809.5683" y2="809.5683"/><text fill="#000000" font-family="sans-serif" font-size="14" font-weight="bold" lengthAdjust="spacing" textLength="100" x="1268" y="802.6152">CandidateAgg</text></g><!--class JobOpening--><g id="elem_JobOpening"><rect codeLine="3" fill="#F1F1F1" height="80.9766" id="JobOpening" rx="2.5" ry="2.5" style="stroke:#181818;stroke-width:0.5;" width="301" x="652.5" y="236.46"/><ellipse cx="758.25" cy="252.46" fill="#ADD1B2" rx="11" ry="11" style="stroke:#181818;stroke-width:1.0;"/><path d="M761.2231,258.1031 Q760.6421,258.4019 760.0029,258.5513 Q759.3638,258.7007 758.6582,258.7007 Q756.1514,258.7007 754.8315,257.0489 Q753.5117,255.397 753.5117,252.2759 Q753.5117,249.1465 754.8315,247.4947 Q756.1514,245.8428 758.6582,245.8428 Q759.3638,245.8428 760.0112,245.9922 Q760.6587,246.1416 761.2231,246.4405 L761.2231,249.1631 Q760.5923,248.5821 759.9988,248.3123 Q759.4053,248.0425 758.7744,248.0425 Q757.4297,248.0425 756.7449,249.1092 Q756.0601,250.1758 756.0601,252.2759 Q756.0601,254.3677 756.7449,255.4344 Q757.4297,256.501 758.7744,256.501 Q759.4053,256.501 759.9988,256.2312 Q760.5923,255.9615 761.2231,255.3804 Z " fill="#000000"/><text fill="#000000" font-family="sans-serif" font-size="14" lengthAdjust="spacing" textLength="81" x="778.75" y="257.751">JobOpening</text><line style="stroke:#181818;stroke-width:0.5;" x1="653.5" x2="952.5" y1="268.46" y2="268.46"/><ellipse cx="663.5" cy="282.2041" fill="none" rx="3" ry="3" style="stroke:#038048;stroke-width:1.0;"/><text fill="#000000" font-family="sans-serif" font-size="14" lengthAdjust="spacing" textLength="111" x="672.5" y="285.9952">id: JobReference</text><ellipse cx="663.5" cy="298.6924" fill="none" rx="3" ry="3" style="stroke:#038048;stroke-width:1.0;"/><text fill="#000000" font-family="sans-serif" font-size="14" lengthAdjust="spacing" textLength="275" x="672.5" y="302.4834">recruitmentProcess: RecruitmentProcess</text><line style="stroke:#181818;stroke-width:0.5;" x1="653.5" x2="952.5" y1="309.4366" y2="309.4366"/></g><!--class RecruitmentProcess--><g id="elem_RecruitmentProcess"><rect codeLine="7" fill="#F1F1F1" height="97.4648" id="RecruitmentProcess" rx="2.5" ry="2.5" style="stroke:#181818;stroke-width:0.5;" width="252" x="677" y="423.68"/><ellipse cx="731.25" cy="439.68" fill="#ADD1B2" rx="11" ry="11" style="stroke:#181818;stroke-width:1.0;"/><path d="M734.2231,445.3231 Q733.6421,445.6219 733.0029,445.7713 Q732.3638,445.9207 731.6582,445.9207 Q729.1514,445.9207 727.8315,444.2689 Q726.5117,442.617 726.5117,439.4959 Q726.5117,436.3665 727.8315,434.7147 Q729.1514,433.0628 731.6582,433.0628 Q732.3638,433.0628 733.0112,433.2122 Q733.6587,433.3616 734.2231,433.6605 L734.2231,436.3831 Q733.5923,435.8021 732.9988,435.5323 Q732.4053,435.2625 731.7744,435.2625 Q730.4297,435.2625 729.7449,436.3292 Q729.0601,437.3958 729.0601,439.4959 Q729.0601,441.5877 729.7449,442.6544 Q730.4297,443.721 731.7744,443.721 Q732.4053,443.721 732.9988,443.4512 Q733.5923,443.1815 734.2231,442.6004 Z " fill="#000000"/><text fill="#000000" font-family="sans-serif" font-size="14" lengthAdjust="spacing" textLength="135" x="751.75" y="444.971">RecruitmentProcess</text><line style="stroke:#181818;stroke-width:0.5;" x1="678" x2="928" y1="455.68" y2="455.68"/><ellipse cx="688" cy="469.4241" fill="none" rx="3" ry="3" style="stroke:#038048;stroke-width:1.0;"/><text fill="#000000" font-family="sans-serif" font-size="14" lengthAdjust="spacing" textLength="39" x="697" y="473.2152">id: int</text><ellipse cx="688" cy="485.9124" fill="none" rx="3" ry="3" style="stroke:#038048;stroke-width:1.0;"/><text fill="#000000" font-family="sans-serif" font-size="14" lengthAdjust="spacing" textLength="226" x="697" y="489.7034">status: RecruitmentProcessStatus</text><ellipse cx="688" cy="502.4007" fill="none" rx="3" ry="3" style="stroke:#038048;stroke-width:1.0;"/><text fill="#000000" font-family="sans-serif" font-size="14" lengthAdjust="spacing" textLength="141" x="697" y="506.1917">phases: List&lt;Phase&gt;</text><line style="stroke:#181818;stroke-width:0.5;" x1="678" x2="928" y1="513.1448" y2="513.1448"/></g><!--class Phase--><g id="elem_Phase"><rect codeLine="13" fill="#F1F1F1" height="113.9531" id="Phase" rx="2.5" ry="2.5" style="stroke:#181818;stroke-width:0.5;" width="159" x="618.5" y="598.15"/><ellipse cx="673.75" cy="614.15" fill="#ADD1B2" rx="11" ry="11" style="stroke:#181818;stroke-width:1.0;"/><path d="M676.7231,619.7931 Q676.1421,620.0919 675.5029,620.2413 Q674.8638,620.3907 674.1582,620.3907 Q671.6514,620.3907 670.3315,618.7389 Q669.0117,617.087 669.0117,613.9659 Q669.0117,610.8365 670.3315,609.1847 Q671.6514,607.5328 674.1582,607.5328 Q674.8638,607.5328 675.5112,607.6822 Q676.1587,607.8316 676.7231,608.1305 L676.7231,610.8531 Q676.0923,610.2721 675.4988,610.0023 Q674.9053,609.7325 674.2744,609.7325 Q672.9297,609.7325 672.2449,610.7992 Q671.5601,611.8658 671.5601,613.9659 Q671.5601,616.0577 672.2449,617.1244 Q672.9297,618.191 674.2744,618.191 Q674.9053,618.191 675.4988,617.9212 Q676.0923,617.6515 676.7231,617.0704 Z " fill="#000000"/><text fill="#000000" font-family="sans-serif" font-size="14" lengthAdjust="spacing" textLength="40" x="694.25" y="619.441">Phase</text><line style="stroke:#181818;stroke-width:0.5;" x1="619.5" x2="776.5" y1="630.15" y2="630.15"/><ellipse cx="629.5" cy="643.8941" fill="none" rx="3" ry="3" style="stroke:#038048;stroke-width:1.0;"/><text fill="#000000" font-family="sans-serif" font-size="14" lengthAdjust="spacing" textLength="100" x="638.5" y="647.6852">id: PhaseName</text><ellipse cx="629.5" cy="660.3824" fill="none" rx="3" ry="3" style="stroke:#038048;stroke-width:1.0;"/><text fill="#000000" font-family="sans-serif" font-size="14" lengthAdjust="spacing" textLength="133" x="638.5" y="664.1734">startDate: StartDate</text><ellipse cx="629.5" cy="676.8707" fill="none" rx="3" ry="3" style="stroke:#038048;stroke-width:1.0;"/><text fill="#000000" font-family="sans-serif" font-size="14" lengthAdjust="spacing" textLength="122" x="638.5" y="680.6617">endDate: EndDate</text><ellipse cx="629.5" cy="693.359" fill="none" rx="3" ry="3" style="stroke:#038048;stroke-width:1.0;"/><text fill="#000000" font-family="sans-serif" font-size="14" lengthAdjust="spacing" textLength="131" x="638.5" y="697.15">status: PhaseStatus</text><line style="stroke:#181818;stroke-width:0.5;" x1="619.5" x2="776.5" y1="704.1031" y2="704.1031"/></g><!--class PhaseName--><g id="elem_PhaseName"><rect codeLine="20" fill="#F1F1F1" height="130.4414" id="PhaseName" rx="2.5" ry="2.5" style="stroke:#181818;stroke-width:0.5;" width="111" x="503.5" y="789.1"/><ellipse cx="518.5" cy="805.1" fill="#EB937F" rx="11" ry="11" style="stroke:#181818;stroke-width:1.0;"/><path d="M522.6143,811.1 L514.8945,811.1 L514.8945,798.7069 L522.6143,798.7069 L522.6143,800.8651 L517.3433,800.8651 L517.3433,803.538 L522.1162,803.538 L522.1162,805.6962 L517.3433,805.6962 L517.3433,808.9418 L522.6143,808.9418 Z " fill="#000000"/><text fill="#000000" font-family="sans-serif" font-size="14" lengthAdjust="spacing" textLength="79" x="532.5" y="810.391">PhaseName</text><line style="stroke:#181818;stroke-width:0.5;" x1="504.5" x2="613.5" y1="821.1" y2="821.1"/><text fill="#000000" font-family="sans-serif" font-size="14" lengthAdjust="spacing" textLength="95" x="509.5" y="838.6352">APPLICATION,</text><text fill="#000000" font-family="sans-serif" font-size="14" lengthAdjust="spacing" textLength="81" x="509.5" y="855.1234">SCREENING,</text><text fill="#000000" font-family="sans-serif" font-size="14" lengthAdjust="spacing" textLength="85" x="509.5" y="871.6117">INTERVIEWS,</text><text fill="#000000" font-family="sans-serif" font-size="14" lengthAdjust="spacing" textLength="70" x="509.5" y="888.1">ANALYSIS,</text><text fill="#000000" font-family="sans-serif" font-size="14" lengthAdjust="spacing" textLength="51" x="509.5" y="904.5883">RESULT</text><line style="stroke:#181818;stroke-width:0.5;" x1="504.5" x2="613.5" y1="911.5414" y2="911.5414"/></g><!--class StartDate--><g id="elem_StartDate"><rect codeLine="28" fill="#F1F1F1" height="64.4883" id="StartDate" rx="2.5" ry="2.5" style="stroke:#181818;stroke-width:0.5;" width="95" x="649.5" y="822.08"/><ellipse cx="664.5" cy="838.08" fill="#ADD1B2" rx="11" ry="11" style="stroke:#181818;stroke-width:1.0;"/><path d="M667.4731,843.7231 Q666.8921,844.0219 666.2529,844.1713 Q665.6138,844.3207 664.9082,844.3207 Q662.4014,844.3207 661.0815,842.6689 Q659.7617,841.017 659.7617,837.8959 Q659.7617,834.7665 661.0815,833.1147 Q662.4014,831.4628 664.9082,831.4628 Q665.6138,831.4628 666.2612,831.6122 Q666.9087,831.7616 667.4731,832.0605 L667.4731,834.7831 Q666.8423,834.2021 666.2488,833.9323 Q665.6553,833.6625 665.0244,833.6625 Q663.6797,833.6625 662.9949,834.7292 Q662.3101,835.7958 662.3101,837.8959 Q662.3101,839.9877 662.9949,841.0544 Q663.6797,842.121 665.0244,842.121 Q665.6553,842.121 666.2488,841.8512 Q666.8423,841.5815 667.4731,841.0004 Z " fill="#000000"/><text fill="#000000" font-family="sans-serif" font-size="14" lengthAdjust="spacing" textLength="63" x="678.5" y="843.371">StartDate</text><line style="stroke:#181818;stroke-width:0.5;" x1="650.5" x2="743.5" y1="854.08" y2="854.08"/><ellipse cx="660.5" cy="867.8241" fill="none" rx="3" ry="3" style="stroke:#038048;stroke-width:1.0;"/><text fill="#000000" font-family="sans-serif" font-size="14" lengthAdjust="spacing" textLength="69" x="669.5" y="871.6152">date: Date</text><line style="stroke:#181818;stroke-width:0.5;" x1="650.5" x2="743.5" y1="878.5683" y2="878.5683"/></g><!--class EndDate--><g id="elem_EndDate"><rect codeLine="32" fill="#F1F1F1" height="64.4883" id="EndDate" rx="2.5" ry="2.5" style="stroke:#181818;stroke-width:0.5;" width="95" x="779.5" y="822.08"/><ellipse cx="797.2" cy="838.08" fill="#ADD1B2" rx="11" ry="11" style="stroke:#181818;stroke-width:1.0;"/><path d="M800.1731,843.7231 Q799.5921,844.0219 798.9529,844.1713 Q798.3138,844.3207 797.6082,844.3207 Q795.1014,844.3207 793.7815,842.6689 Q792.4617,841.017 792.4617,837.8959 Q792.4617,834.7665 793.7815,833.1147 Q795.1014,831.4628 797.6082,831.4628 Q798.3138,831.4628 798.9612,831.6122 Q799.6087,831.7616 800.1731,832.0605 L800.1731,834.7831 Q799.5423,834.2021 798.9488,833.9323 Q798.3553,833.6625 797.7244,833.6625 Q796.3797,833.6625 795.6949,834.7292 Q795.0101,835.7958 795.0101,837.8959 Q795.0101,839.9877 795.6949,841.0544 Q796.3797,842.121 797.7244,842.121 Q798.3553,842.121 798.9488,841.8512 Q799.5423,841.5815 800.1731,841.0004 Z " fill="#000000"/><text fill="#000000" font-family="sans-serif" font-size="14" lengthAdjust="spacing" textLength="57" x="811.8" y="843.371">EndDate</text><line style="stroke:#181818;stroke-width:0.5;" x1="780.5" x2="873.5" y1="854.08" y2="854.08"/><ellipse cx="790.5" cy="867.8241" fill="none" rx="3" ry="3" style="stroke:#038048;stroke-width:1.0;"/><text fill="#000000" font-family="sans-serif" font-size="14" lengthAdjust="spacing" textLength="69" x="799.5" y="871.6152">date: Date</text><line style="stroke:#181818;stroke-width:0.5;" x1="780.5" x2="873.5" y1="878.5683" y2="878.5683"/></g><!--class PhaseStatus--><g id="elem_PhaseStatus"><rect codeLine="36" fill="#F1F1F1" height="80.9766" id="PhaseStatus" rx="2.5" ry="2.5" style="stroke:#181818;stroke-width:0.5;" width="114" x="909" y="813.83"/><ellipse cx="924" cy="829.83" fill="#EB937F" rx="11" ry="11" style="stroke:#181818;stroke-width:1.0;"/><path d="M928.1143,835.83 L920.3945,835.83 L920.3945,823.4369 L928.1143,823.4369 L928.1143,825.5951 L922.8433,825.5951 L922.8433,828.268 L927.6162,828.268 L927.6162,830.4262 L922.8433,830.4262 L922.8433,833.6718 L928.1143,833.6718 Z " fill="#000000"/><text fill="#000000" font-family="sans-serif" font-size="14" lengthAdjust="spacing" textLength="82" x="938" y="835.121">PhaseStatus</text><line style="stroke:#181818;stroke-width:0.5;" x1="910" x2="1022" y1="845.83" y2="845.83"/><text fill="#000000" font-family="sans-serif" font-size="14" lengthAdjust="spacing" textLength="37" x="915" y="863.3652">Open</text><text fill="#000000" font-family="sans-serif" font-size="14" lengthAdjust="spacing" textLength="47" x="915" y="879.8534">Closed</text><line style="stroke:#181818;stroke-width:0.5;" x1="910" x2="1022" y1="886.8066" y2="886.8066"/></g><!--class RecruitmentProcessStatus--><g id="elem_RecruitmentProcessStatus"><rect codeLine="41" fill="#F1F1F1" height="97.4648" id="RecruitmentProcessStatus" rx="2.5" ry="2.5" style="stroke:#181818;stroke-width:0.5;" width="209" x="812.5" y="606.39"/><ellipse cx="827.5" cy="622.39" fill="#EB937F" rx="11" ry="11" style="stroke:#181818;stroke-width:1.0;"/><path d="M831.6143,628.39 L823.8945,628.39 L823.8945,615.9969 L831.6143,615.9969 L831.6143,618.1551 L826.3433,618.1551 L826.3433,620.828 L831.1162,620.828 L831.1162,622.9862 L826.3433,622.9862 L826.3433,626.2318 L831.6143,626.2318 Z " fill="#000000"/><text fill="#000000" font-family="sans-serif" font-size="14" lengthAdjust="spacing" textLength="177" x="841.5" y="627.681">RecruitmentProcessStatus</text><line style="stroke:#181818;stroke-width:0.5;" x1="813.5" x2="1020.5" y1="638.39" y2="638.39"/><text fill="#000000" font-family="sans-serif" font-size="14" lengthAdjust="spacing" textLength="75" x="818.5" y="655.9252">Uninitiated</text><text fill="#000000" font-family="sans-serif" font-size="14" lengthAdjust="spacing" textLength="69" x="818.5" y="672.4134">In Process</text><text fill="#000000" font-family="sans-serif" font-size="14" lengthAdjust="spacing" textLength="58" x="818.5" y="688.9017">Finished</text><line style="stroke:#181818;stroke-width:0.5;" x1="813.5" x2="1020.5" y1="695.8548" y2="695.8548"/></g><!--class JobApplication--><g id="elem_JobApplication"><rect codeLine="57" fill="#F1F1F1" height="97.4648" id="JobApplication" rx="2.5" ry="2.5" style="stroke:#181818;stroke-width:0.5;" width="366" x="81" y="41"/><ellipse cx="209.75" cy="57" fill="#ADD1B2" rx="11" ry="11" style="stroke:#181818;stroke-width:1.0;"/><path d="M212.7231,62.6431 Q212.1421,62.9419 211.5029,63.0913 Q210.8638,63.2407 210.1582,63.2407 Q207.6514,63.2407 206.3315,61.5889 Q205.0117,59.937 205.0117,56.8159 Q205.0117,53.6865 206.3315,52.0347 Q207.6514,50.3828 210.1582,50.3828 Q210.8638,50.3828 211.5112,50.5322 Q212.1587,50.6816 212.7231,50.9805 L212.7231,53.7031 Q212.0923,53.1221 211.4988,52.8523 Q210.9053,52.5825 210.2744,52.5825 Q208.9297,52.5825 208.2449,53.6492 Q207.5601,54.7158 207.5601,56.8159 Q207.5601,58.9077 208.2449,59.9744 Q208.9297,61.041 210.2744,61.041 Q210.9053,61.041 211.4988,60.7712 Q212.0923,60.5015 212.7231,59.9204 Z " fill="#000000"/><text fill="#000000" font-family="sans-serif" font-size="14" lengthAdjust="spacing" textLength="100" x="230.25" y="62.291">JobApplication</text><line style="stroke:#181818;stroke-width:0.5;" x1="82" x2="446" y1="73" y2="73"/><ellipse cx="92" cy="86.7441" fill="none" rx="3" ry="3" style="stroke:#038048;stroke-width:1.0;"/><text fill="#000000" font-family="sans-serif" font-size="14" lengthAdjust="spacing" textLength="113" x="101" y="90.5352">id: ApplicationID</text><ellipse cx="92" cy="103.2324" fill="none" rx="3" ry="3" style="stroke:#038048;stroke-width:1.0;"/><text fill="#000000" font-family="sans-serif" font-size="14" lengthAdjust="spacing" textLength="340" x="101" y="107.0234">RequirementsEvaluation: RequirementsEvaluation</text><ellipse cx="92" cy="119.7207" fill="none" rx="3" ry="3" style="stroke:#038048;stroke-width:1.0;"/><text fill="#000000" font-family="sans-serif" font-size="14" lengthAdjust="spacing" textLength="132" x="101" y="123.5117">Interview: Interview</text><line style="stroke:#181818;stroke-width:0.5;" x1="82" x2="446" y1="130.4648" y2="130.4648"/></g><!--class RequirementsEvaluation--><g id="elem_RequirementsEvaluation"><rect codeLine="63" fill="#F1F1F1" height="97.4648" id="RequirementsEvaluation" rx="2.5" ry="2.5" style="stroke:#181818;stroke-width:0.5;" width="198" x="22" y="228.22"/><ellipse cx="37" cy="244.22" fill="#EB937F" rx="11" ry="11" style="stroke:#181818;stroke-width:1.0;"/><path d="M41.1143,250.22 L33.3945,250.22 L33.3945,237.8269 L41.1143,237.8269 L41.1143,239.9851 L35.8433,239.9851 L35.8433,242.658 L40.6162,242.658 L40.6162,244.8162 L35.8433,244.8162 L35.8433,248.0618 L41.1143,248.0618 Z " fill="#000000"/><text fill="#000000" font-family="sans-serif" font-size="14" lengthAdjust="spacing" textLength="166" x="51" y="249.511">RequirementsEvaluation</text><line style="stroke:#181818;stroke-width:0.5;" x1="23" x2="219" y1="260.22" y2="260.22"/><text fill="#000000" font-family="sans-serif" font-size="14" lengthAdjust="spacing" textLength="56" x="28" y="277.7552">Pending</text><text fill="#000000" font-family="sans-serif" font-size="14" lengthAdjust="spacing" textLength="63" x="28" y="294.2434">Accepted</text><text fill="#000000" font-family="sans-serif" font-size="14" lengthAdjust="spacing" textLength="58" x="28" y="310.7317">Rejected</text><line style="stroke:#181818;stroke-width:0.5;" x1="23" x2="219" y1="317.6848" y2="317.6848"/></g><!--class Interview--><g id="elem_Interview"><rect codeLine="69" fill="#F1F1F1" height="80.9766" id="Interview" rx="2.5" ry="2.5" style="stroke:#181818;stroke-width:0.5;" width="192" x="255" y="236.46"/><ellipse cx="315.75" cy="252.46" fill="#ADD1B2" rx="11" ry="11" style="stroke:#181818;stroke-width:1.0;"/><path d="M318.7231,258.1031 Q318.1421,258.4019 317.5029,258.5513 Q316.8638,258.7007 316.1582,258.7007 Q313.6514,258.7007 312.3315,257.0489 Q311.0117,255.397 311.0117,252.2759 Q311.0117,249.1465 312.3315,247.4947 Q313.6514,245.8428 316.1582,245.8428 Q316.8638,245.8428 317.5112,245.9922 Q318.1587,246.1416 318.7231,246.4405 L318.7231,249.1631 Q318.0923,248.5821 317.4988,248.3123 Q316.9053,248.0425 316.2744,248.0425 Q314.9297,248.0425 314.2449,249.1092 Q313.5601,250.1758 313.5601,252.2759 Q313.5601,254.3677 314.2449,255.4344 Q314.9297,256.501 316.2744,256.501 Q316.9053,256.501 317.4988,256.2312 Q318.0923,255.9615 318.7231,255.3804 Z " fill="#000000"/><text fill="#000000" font-family="sans-serif" font-size="14" lengthAdjust="spacing" textLength="62" x="336.25" y="257.751">Interview</text><line style="stroke:#181818;stroke-width:0.5;" x1="256" x2="446" y1="268.46" y2="268.46"/><ellipse cx="266" cy="282.2041" fill="none" rx="3" ry="3" style="stroke:#038048;stroke-width:1.0;"/><text fill="#000000" font-family="sans-serif" font-size="14" lengthAdjust="spacing" textLength="166" x="275" y="285.9952">InterviewDateTime: Date</text><ellipse cx="266" cy="298.6924" fill="none" rx="3" ry="3" style="stroke:#038048;stroke-width:1.0;"/><text fill="#000000" font-family="sans-serif" font-size="14" lengthAdjust="spacing" textLength="129" x="275" y="302.4834">InterviewGrade: int</text><line style="stroke:#181818;stroke-width:0.5;" x1="256" x2="446" y1="309.4366" y2="309.4366"/></g><!--class InterviewDateTime--><g id="elem_InterviewDateTime"><rect codeLine="74" fill="#F1F1F1" height="64.4883" id="InterviewDateTime" rx="2.5" ry="2.5" style="stroke:#181818;stroke-width:0.5;" width="159" x="110.5" y="440.17"/><ellipse cx="125.5" cy="456.17" fill="#ADD1B2" rx="11" ry="11" style="stroke:#181818;stroke-width:1.0;"/><path d="M128.4731,461.8131 Q127.8921,462.1119 127.2529,462.2613 Q126.6138,462.4107 125.9082,462.4107 Q123.4014,462.4107 122.0815,460.7589 Q120.7617,459.107 120.7617,455.9859 Q120.7617,452.8565 122.0815,451.2047 Q123.4014,449.5528 125.9082,449.5528 Q126.6138,449.5528 127.2612,449.7022 Q127.9087,449.8516 128.4731,450.1505 L128.4731,452.8731 Q127.8423,452.2921 127.2488,452.0223 Q126.6553,451.7525 126.0244,451.7525 Q124.6797,451.7525 123.9949,452.8192 Q123.3101,453.8858 123.3101,455.9859 Q123.3101,458.0777 123.9949,459.1444 Q124.6797,460.211 126.0244,460.211 Q126.6553,460.211 127.2488,459.9412 Q127.8423,459.6715 128.4731,459.0904 Z " fill="#000000"/><text fill="#000000" font-family="sans-serif" font-size="14" lengthAdjust="spacing" textLength="127" x="139.5" y="461.461">InterviewDateTime</text><line style="stroke:#181818;stroke-width:0.5;" x1="111.5" x2="268.5" y1="472.17" y2="472.17"/><ellipse cx="121.5" cy="485.9141" fill="none" rx="3" ry="3" style="stroke:#038048;stroke-width:1.0;"/><text fill="#000000" font-family="sans-serif" font-size="14" lengthAdjust="spacing" textLength="69" x="130.5" y="489.7052">date: Date</text><line style="stroke:#181818;stroke-width:0.5;" x1="111.5" x2="268.5" y1="496.6583" y2="496.6583"/></g><!--class InterviewGrade--><g id="elem_InterviewGrade"><rect codeLine="78" fill="#F1F1F1" height="64.4883" id="InterviewGrade" rx="2.5" ry="2.5" style="stroke:#181818;stroke-width:0.5;" width="135" x="304.5" y="440.17"/><ellipse cx="319.5" cy="456.17" fill="#ADD1B2" rx="11" ry="11" style="stroke:#181818;stroke-width:1.0;"/><path d="M322.4731,461.8131 Q321.8921,462.1119 321.2529,462.2613 Q320.6138,462.4107 319.9082,462.4107 Q317.4014,462.4107 316.0815,460.7589 Q314.7617,459.107 314.7617,455.9859 Q314.7617,452.8565 316.0815,451.2047 Q317.4014,449.5528 319.9082,449.5528 Q320.6138,449.5528 321.2612,449.7022 Q321.9087,449.8516 322.4731,450.1505 L322.4731,452.8731 Q321.8423,452.2921 321.2488,452.0223 Q320.6553,451.7525 320.0244,451.7525 Q318.6797,451.7525 317.9949,452.8192 Q317.3101,453.8858 317.3101,455.9859 Q317.3101,458.0777 317.9949,459.1444 Q318.6797,460.211 320.0244,460.211 Q320.6553,460.211 321.2488,459.9412 Q321.8423,459.6715 322.4731,459.0904 Z " fill="#000000"/><text fill="#000000" font-family="sans-serif" font-size="14" lengthAdjust="spacing" textLength="103" x="333.5" y="461.461">InterviewGrade</text><line style="stroke:#181818;stroke-width:0.5;" x1="305.5" x2="438.5" y1="472.17" y2="472.17"/><ellipse cx="315.5" cy="485.9141" fill="none" rx="3" ry="3" style="stroke:#038048;stroke-width:1.0;"/><text fill="#000000" font-family="sans-serif" font-size="14" lengthAdjust="spacing" textLength="66" x="324.5" y="489.7052">grade: int</text><line style="stroke:#181818;stroke-width:0.5;" x1="305.5" x2="438.5" y1="496.6583" y2="496.6583"/></g><!--class Rank--><g id="elem_Rank"><rect codeLine="90" fill="#F1F1F1" height="97.4648" id="Rank" rx="2.5" ry="2.5" style="stroke:#181818;stroke-width:0.5;" width="209" x="1118.5" y="423.68"/><ellipse cx="1201.75" cy="439.68" fill="#ADD1B2" rx="11" ry="11" style="stroke:#181818;stroke-width:1.0;"/><path d="M1204.7231,445.3231 Q1204.1421,445.6219 1203.5029,445.7713 Q1202.8638,445.9207 1202.1582,445.9207 Q1199.6514,445.9207 1198.3315,444.2689 Q1197.0117,442.617 1197.0117,439.4959 Q1197.0117,436.3665 1198.3315,434.7147 Q1199.6514,433.0628 1202.1582,433.0628 Q1202.8638,433.0628 1203.5112,433.2122 Q1204.1587,433.3616 1204.7231,433.6605 L1204.7231,436.3831 Q1204.0923,435.8021 1203.4988,435.5323 Q1202.9053,435.2625 1202.2744,435.2625 Q1200.9297,435.2625 1200.2449,436.3292 Q1199.5601,437.3958 1199.5601,439.4959 Q1199.5601,441.5877 1200.2449,442.6544 Q1200.9297,443.721 1202.2744,443.721 Q1202.9053,443.721 1203.4988,443.4512 Q1204.0923,443.1815 1204.7231,442.6004 Z " fill="#000000"/><text fill="#000000" font-family="sans-serif" font-size="14" lengthAdjust="spacing" textLength="34" x="1222.25" y="444.971">Rank</text><line style="stroke:#181818;stroke-width:0.5;" x1="1119.5" x2="1326.5" y1="455.68" y2="455.68"/><ellipse cx="1129.5" cy="469.4241" fill="none" rx="3" ry="3" style="stroke:#038048;stroke-width:1.0;"/><text fill="#000000" font-family="sans-serif" font-size="14" lengthAdjust="spacing" textLength="69" x="1138.5" y="473.2152">id: RankID</text><ellipse cx="1129.5" cy="485.9124" fill="none" rx="3" ry="3" style="stroke:#038048;stroke-width:1.0;"/><text fill="#000000" font-family="sans-serif" font-size="14" lengthAdjust="spacing" textLength="183" x="1138.5" y="489.7034">rankPosition: RankPosition</text><ellipse cx="1129.5" cy="502.4007" fill="none" rx="3" ry="3" style="stroke:#038048;stroke-width:1.0;"/><text fill="#000000" font-family="sans-serif" font-size="14" lengthAdjust="spacing" textLength="157" x="1138.5" y="506.1917">rankStatus: RankStatus</text><line style="stroke:#181818;stroke-width:0.5;" x1="1119.5" x2="1326.5" y1="513.1448" y2="513.1448"/></g><!--class RankStatus--><g id="elem_RankStatus"><rect codeLine="96" fill="#F1F1F1" height="80.9766" id="RankStatus" rx="2.5" ry="2.5" style="stroke:#181818;stroke-width:0.5;" width="108" x="1079" y="614.64"/><ellipse cx="1094" cy="630.64" fill="#EB937F" rx="11" ry="11" style="stroke:#181818;stroke-width:1.0;"/><path d="M1098.1143,636.64 L1090.3945,636.64 L1090.3945,624.2469 L1098.1143,624.2469 L1098.1143,626.4051 L1092.8433,626.4051 L1092.8433,629.078 L1097.6162,629.078 L1097.6162,631.2362 L1092.8433,631.2362 L1092.8433,634.4818 L1098.1143,634.4818 Z " fill="#000000"/><text fill="#000000" font-family="sans-serif" font-size="14" lengthAdjust="spacing" textLength="76" x="1108" y="635.931">RankStatus</text><line style="stroke:#181818;stroke-width:0.5;" x1="1080" x2="1186" y1="646.64" y2="646.64"/><text fill="#000000" font-family="sans-serif" font-size="14" lengthAdjust="spacing" textLength="49" x="1085" y="664.1752">Started</text><text fill="#000000" font-family="sans-serif" font-size="14" lengthAdjust="spacing" textLength="58" x="1085" y="680.6634">Finished</text><line style="stroke:#181818;stroke-width:0.5;" x1="1080" x2="1186" y1="687.6166" y2="687.6166"/></g><!--class RankID--><g id="elem_RankID"><rect codeLine="101" fill="#F1F1F1" height="64.4883" id="RankID" rx="2.5" ry="2.5" style="stroke:#181818;stroke-width:0.5;" width="80" x="1222" y="622.88"/><ellipse cx="1237" cy="638.88" fill="#ADD1B2" rx="11" ry="11" style="stroke:#181818;stroke-width:1.0;"/><path d="M1239.9731,644.5231 Q1239.3921,644.8219 1238.7529,644.9713 Q1238.1138,645.1207 1237.4082,645.1207 Q1234.9014,645.1207 1233.5815,643.4689 Q1232.2617,641.817 1232.2617,638.6959 Q1232.2617,635.5665 1233.5815,633.9147 Q1234.9014,632.2628 1237.4082,632.2628 Q1238.1138,632.2628 1238.7612,632.4122 Q1239.4087,632.5616 1239.9731,632.8605 L1239.9731,635.5831 Q1239.3423,635.0021 1238.7488,634.7323 Q1238.1553,634.4625 1237.5244,634.4625 Q1236.1797,634.4625 1235.4949,635.5292 Q1234.8101,636.5958 1234.8101,638.6959 Q1234.8101,640.7877 1235.4949,641.8544 Q1236.1797,642.921 1237.5244,642.921 Q1238.1553,642.921 1238.7488,642.6512 Q1239.3423,642.3815 1239.9731,641.8004 Z " fill="#000000"/><text fill="#000000" font-family="sans-serif" font-size="14" lengthAdjust="spacing" textLength="48" x="1251" y="644.171">RankID</text><line style="stroke:#181818;stroke-width:0.5;" x1="1223" x2="1301" y1="654.88" y2="654.88"/><ellipse cx="1233" cy="668.6241" fill="none" rx="3" ry="3" style="stroke:#038048;stroke-width:1.0;"/><text fill="#000000" font-family="sans-serif" font-size="14" lengthAdjust="spacing" textLength="39" x="1242" y="672.4152">id: int</text><line style="stroke:#181818;stroke-width:0.5;" x1="1223" x2="1301" y1="679.3683" y2="679.3683"/></g><!--class RankPosition--><g id="elem_RankPosition"><rect codeLine="105" fill="#F1F1F1" height="64.4883" id="RankPosition" rx="2.5" ry="2.5" style="stroke:#181818;stroke-width:0.5;" width="121" x="1337.5" y="622.88"/><ellipse cx="1352.5" cy="638.88" fill="#ADD1B2" rx="11" ry="11" style="stroke:#181818;stroke-width:1.0;"/><path d="M1355.4731,644.5231 Q1354.8921,644.8219 1354.2529,644.9713 Q1353.6138,645.1207 1352.9082,645.1207 Q1350.4014,645.1207 1349.0815,643.4689 Q1347.7617,641.817 1347.7617,638.6959 Q1347.7617,635.5665 1349.0815,633.9147 Q1350.4014,632.2628 1352.9082,632.2628 Q1353.6138,632.2628 1354.2612,632.4122 Q1354.9087,632.5616 1355.4731,632.8605 L1355.4731,635.5831 Q1354.8423,635.0021 1354.2488,634.7323 Q1353.6553,634.4625 1353.0244,634.4625 Q1351.6797,634.4625 1350.9949,635.5292 Q1350.3101,636.5958 1350.3101,638.6959 Q1350.3101,640.7877 1350.9949,641.8544 Q1351.6797,642.921 1353.0244,642.921 Q1353.6553,642.921 1354.2488,642.6512 Q1354.8423,642.3815 1355.4731,641.8004 Z " fill="#000000"/><text fill="#000000" font-family="sans-serif" font-size="14" lengthAdjust="spacing" textLength="89" x="1366.5" y="644.171">RankPosition</text><line style="stroke:#181818;stroke-width:0.5;" x1="1338.5" x2="1457.5" y1="654.88" y2="654.88"/><ellipse cx="1348.5" cy="668.6241" fill="none" rx="3" ry="3" style="stroke:#038048;stroke-width:1.0;"/><text fill="#000000" font-family="sans-serif" font-size="14" lengthAdjust="spacing" textLength="62" x="1357.5" y="672.4152">value: int</text><line style="stroke:#181818;stroke-width:0.5;" x1="1338.5" x2="1457.5" y1="679.3683" y2="679.3683"/></g><!--class Candidate--><g id="elem_Candidate"><rect codeLine="116" fill="#F1F1F1" height="64.4883" id="Candidate" rx="2.5" ry="2.5" style="stroke:#181818;stroke-width:0.5;" width="235" x="1280.5" y="822.08"/><ellipse cx="1358.75" cy="838.08" fill="#ADD1B2" rx="11" ry="11" style="stroke:#181818;stroke-width:1.0;"/><path d="M1361.7231,843.7231 Q1361.1421,844.0219 1360.5029,844.1713 Q1359.8638,844.3207 1359.1582,844.3207 Q1356.6514,844.3207 1355.3315,842.6689 Q1354.0117,841.017 1354.0117,837.8959 Q1354.0117,834.7665 1355.3315,833.1147 Q1356.6514,831.4628 1359.1582,831.4628 Q1359.8638,831.4628 1360.5112,831.6122 Q1361.1587,831.7616 1361.7231,832.0605 L1361.7231,834.7831 Q1361.0923,834.2021 1360.4988,833.9323 Q1359.9053,833.6625 1359.2744,833.6625 Q1357.9297,833.6625 1357.2449,834.7292 Q1356.5601,835.7958 1356.5601,837.8959 Q1356.5601,839.9877 1357.2449,841.0544 Q1357.9297,842.121 1359.2744,842.121 Q1359.9053,842.121 1360.4988,841.8512 Q1361.0923,841.5815 1361.7231,841.0004 Z " fill="#000000"/><text fill="#000000" font-family="sans-serif" font-size="14" lengthAdjust="spacing" textLength="70" x="1379.25" y="843.371">Candidate</text><line style="stroke:#181818;stroke-width:0.5;" x1="1281.5" x2="1514.5" y1="854.08" y2="854.08"/><ellipse cx="1291.5" cy="867.8241" fill="none" rx="3" ry="3" style="stroke:#038048;stroke-width:1.0;"/><text fill="#000000" font-family="sans-serif" font-size="14" lengthAdjust="spacing" textLength="209" x="1300.5" y="871.6152">candidateEmail : EmailAddress</text><line style="stroke:#181818;stroke-width:0.5;" x1="1281.5" x2="1514.5" y1="878.5683" y2="878.5683"/></g><!--class EmailAddress--><g id="elem_EmailAddress"><rect codeLine="120" fill="#F1F1F1" height="64.4883" id="EmailAddress" rx="2.5" ry="2.5" style="stroke:#181818;stroke-width:0.5;" width="125" x="1335.5" y="981.54"/><ellipse cx="1350.5" cy="997.54" fill="#ADD1B2" rx="11" ry="11" style="stroke:#181818;stroke-width:1.0;"/><path d="M1353.4731,1003.1831 Q1352.8921,1003.4819 1352.2529,1003.6313 Q1351.6138,1003.7807 1350.9082,1003.7807 Q1348.4014,1003.7807 1347.0815,1002.1289 Q1345.7617,1000.477 1345.7617,997.3559 Q1345.7617,994.2265 1347.0815,992.5747 Q1348.4014,990.9228 1350.9082,990.9228 Q1351.6138,990.9228 1352.2612,991.0722 Q1352.9087,991.2216 1353.4731,991.5205 L1353.4731,994.2431 Q1352.8423,993.6621 1352.2488,993.3923 Q1351.6553,993.1225 1351.0244,993.1225 Q1349.6797,993.1225 1348.9949,994.1892 Q1348.3101,995.2558 1348.3101,997.3559 Q1348.3101,999.4477 1348.9949,1000.5144 Q1349.6797,1001.581 1351.0244,1001.581 Q1351.6553,1001.581 1352.2488,1001.3112 Q1352.8423,1001.0415 1353.4731,1000.4604 Z " fill="#000000"/><text fill="#000000" font-family="sans-serif" font-size="14" lengthAdjust="spacing" textLength="93" x="1364.5" y="1002.831">EmailAddress</text><line style="stroke:#181818;stroke-width:0.5;" x1="1336.5" x2="1459.5" y1="1013.54" y2="1013.54"/><ellipse cx="1346.5" cy="1027.2841" fill="none" rx="3" ry="3" style="stroke:#038048;stroke-width:1.0;"/><text fill="#000000" font-family="sans-serif" font-size="14" lengthAdjust="spacing" textLength="90" x="1355.5" y="1031.0752">email : String</text><line style="stroke:#181818;stroke-width:0.5;" x1="1336.5" x2="1459.5" y1="1038.0283" y2="1038.0283"/></g><!--link JobOpening to RecruitmentProcess--><g id="link_JobOpening_RecruitmentProcess"><path codeLine="47" d="M803,317.57 C803,348.19 803,384.71 803,417.29 " fill="none" id="JobOpening-to-RecruitmentProcess" style="stroke:#181818;stroke-width:1.0;"/><polygon fill="#181818" points="803,423.29,807,414.29,803,418.29,799,414.29,803,423.29" style="stroke:#181818;stroke-width:1.0;"/></g><!--link RecruitmentProcess to RecruitmentProcessStatus--><g id="link_RecruitmentProcess_RecruitmentProcessStatus"><path codeLine="48" d="M839.55,521.26 C846.56,531 853.69,541.28 860,551.15 C871.18,568.62 879.5832,583.1492 889.1232,600.6892 " fill="none" id="RecruitmentProcess-to-RecruitmentProcessStatus" style="stroke:#181818;stroke-width:1.0;"/><polygon fill="#181818" points="891.99,605.96,891.2037,596.1426,889.601,601.5677,884.1759,599.965,891.99,605.96" style="stroke:#181818;stroke-width:1.0;"/></g><!--link RecruitmentProcess to Phase--><g id="link_RecruitmentProcess_Phase"><path codeLine="49" d="M767.88,521.62 C761.35,531.24 754.77,541.38 749,551.15 C740.27,565.92 734.3209,577.0123 726.7209,592.3723 " fill="none" id="RecruitmentProcess-to-Phase" style="stroke:#181818;stroke-width:1.0;"/><polygon fill="#181818" points="724.06,597.75,731.6364,591.4573,726.2774,593.2686,724.4661,587.9095,724.06,597.75" style="stroke:#181818;stroke-width:1.0;"/><text fill="#000000" font-family="sans-serif" font-size="13" lengthAdjust="spacing" textLength="105" x="750" y="564.7184">Is separated into</text></g><!--link Phase to PhaseName--><g id="link_Phase_PhaseName"><path codeLine="50" d="M658.35,712.37 C641.58,736.16 625.408,759.1167 608.038,783.7467 " fill="none" id="Phase-to-PhaseName" style="stroke:#181818;stroke-width:1.0;"/><polygon fill="#181818" points="604.58,788.65,613.0358,783.6004,607.4617,784.5639,606.4981,778.9897,604.58,788.65" style="stroke:#181818;stroke-width:1.0;"/></g><!--link Phase to StartDate--><g id="link_Phase_StartDate"><path codeLine="51" d="M697.71,712.37 C697.53,747.89 697.3406,786.4601 697.1906,815.8601 " fill="none" id="Phase-to-StartDate" style="stroke:#181818;stroke-width:1.0;"/><polygon fill="#181818" points="697.16,821.86,701.2059,812.8805,697.1855,816.8601,693.206,812.8397,697.16,821.86" style="stroke:#181818;stroke-width:1.0;"/></g><!--link Phase to EndDate--><g id="link_Phase_EndDate"><path codeLine="52" d="M734.79,712.37 C758.03,747.89 783.9057,787.4387 803.1357,816.8387 " fill="none" id="Phase-to-EndDate" style="stroke:#181818;stroke-width:1.0;"/><polygon fill="#181818" points="806.42,821.86,804.841,812.1385,803.6831,817.6756,798.146,816.5176,806.42,821.86" style="stroke:#181818;stroke-width:1.0;"/></g><!--link Phase to PhaseStatus--><g id="link_Phase_PhaseStatus"><path codeLine="53" d="M777.81,708.63 C783.61,712.36 789.39,716.06 795,719.61 C837.72,746.68 852.32,747.73 892,779.08 C905,789.34 913.8849,797.42 925.3849,809.07 " fill="none" id="Phase-to-PhaseStatus" style="stroke:#181818;stroke-width:1.0;"/><polygon fill="#181818" points="929.6,813.34,926.1241,804.1249,926.0874,809.7816,920.4307,809.745,929.6,813.34" style="stroke:#181818;stroke-width:1.0;"/></g><!--link JobApplication to RequirementsEvaluation--><g id="link_JobApplication_RequirementsEvaluation"><path codeLine="82" d="M226.8,138.91 C205.62,166.35 182.8373,195.8612 161.6773,223.2612 " fill="none" id="JobApplication-to-RequirementsEvaluation" style="stroke:#181818;stroke-width:1.0;"/><polygon fill="#181818" points="158.01,228.01,166.6768,223.3317,161.0661,224.0527,160.3451,218.442,158.01,228.01" style="stroke:#181818;stroke-width:1.0;"/></g><!--link JobApplication to Interview--><g id="link_JobApplication_Interview"><path codeLine="83" d="M286.63,138.91 C300.83,169.14 316.3579,202.2098 329.7479,230.6998 " fill="none" id="JobApplication-to-Interview" style="stroke:#181818;stroke-width:1.0;"/><polygon fill="#181818" points="332.3,236.13,332.0919,226.2833,330.1732,231.6049,324.8517,229.6862,332.3,236.13" style="stroke:#181818;stroke-width:1.0;"/></g><!--link JobApplication to JobOpening--><g id="link_JobApplication_JobOpening"><path codeLine="84" d="M404.21,138.91 C492.01,169.08 598.1457,205.5499 681.0157,234.0299 " fill="none" id="JobApplication-to-JobOpening" style="stroke:#181818;stroke-width:1.0;"/><polygon fill="#181818" points="686.69,235.98,679.4787,229.272,681.9615,234.3549,676.8786,236.8377,686.69,235.98" style="stroke:#181818;stroke-width:1.0;"/><text fill="#000000" font-family="sans-serif" font-size="13" lengthAdjust="spacing" textLength="56" x="534" y="182.0284">Refers to</text></g><!--link Interview to InterviewDateTime--><g id="link_Interview_InterviewDateTime"><path codeLine="85" d="M318.03,317.57 C287.95,353.72 247.9089,401.8389 220.1189,435.2189 " fill="none" id="Interview-to-InterviewDateTime" style="stroke:#181818;stroke-width:1.0;"/><polygon fill="#181818" points="216.28,439.83,225.1125,435.4726,219.4791,435.9874,218.9643,430.354,216.28,439.83" style="stroke:#181818;stroke-width:1.0;"/></g><!--link Interview to InterviewGrade--><g id="link_Interview_InterviewGrade"><path codeLine="86" d="M355.3,317.57 C359.22,353.72 364.3031,400.485 367.9231,433.865 " fill="none" id="Interview-to-InterviewGrade" style="stroke:#181818;stroke-width:1.0;"/><polygon fill="#181818" points="368.57,439.83,371.5763,430.4512,368.0309,434.8591,363.623,431.3137,368.57,439.83" style="stroke:#181818;stroke-width:1.0;"/></g><!--link Rank to RankID--><g id="link_Rank_RankID"><path codeLine="109" d="M1233.35,521.37 C1240.25,553.36 1247.8747,588.6649 1253.9047,616.6149 " fill="none" id="Rank-to-RankID" style="stroke:#181818;stroke-width:1.0;"/><polygon fill="#181818" points="1255.17,622.48,1257.182,612.8389,1254.1155,617.5925,1249.3619,614.526,1255.17,622.48" style="stroke:#181818;stroke-width:1.0;"/></g><!--link Rank to RankPosition--><g id="link_Rank_RankPosition"><path codeLine="110" d="M1269.44,521.37 C1300.42,553.36 1336.1158,590.2201 1363.1858,618.1701 " fill="none" id="Rank-to-RankPosition" style="stroke:#181818;stroke-width:1.0;"/><polygon fill="#181818" points="1367.36,622.48,1363.9719,613.2322,1363.8815,618.8884,1358.2253,618.7979,1367.36,622.48" style="stroke:#181818;stroke-width:1.0;"/></g><!--link Rank to RankStatus--><g id="link_Rank_RankStatus"><path codeLine="111" d="M1199.12,521.37 C1184.69,550.33 1169.1947,581.4391 1155.5547,608.8291 " fill="none" id="Rank-to-RankStatus" style="stroke:#181818;stroke-width:1.0;"/><polygon fill="#181818" points="1152.88,614.2,1160.4726,607.9268,1155.1089,609.7243,1153.3114,604.3606,1152.88,614.2" style="stroke:#181818;stroke-width:1.0;"/></g><!--link JobOpening to Rank--><g id="link_JobOpening_Rank"><path codeLine="112" d="M897.63,317.92 C940.93,336.53 992.79,359.25 1039,380.68 C1067.92,394.1 1093.7206,406.5626 1122.0606,420.5626 " fill="none" id="JobOpening-to-Rank" style="stroke:#181818;stroke-width:1.0;"/><polygon fill="#181818" points="1127.44,423.22,1121.1425,415.6476,1122.9572,421.0055,1117.5993,422.8201,1127.44,423.22" style="stroke:#181818;stroke-width:1.0;"/><text fill="#000000" font-family="sans-serif" font-size="13" lengthAdjust="spacing" textLength="22" x="1021" y="369.2484">has</text></g><!--link Candidate to EmailAddress--><g id="link_Candidate_EmailAddress"><path codeLine="124" d="M1398,886.81 C1398,914.18 1398,947.65 1398,975.08 " fill="none" id="Candidate-to-EmailAddress" style="stroke:#181818;stroke-width:1.0;"/><polygon fill="#181818" points="1398,981.08,1402,972.08,1398,976.08,1394,972.08,1398,981.08" style="stroke:#181818;stroke-width:1.0;"/></g><!--link RankPosition to Candidate--><g id="link_RankPosition_Candidate"><path codeLine="125" d="M1398,687.81 C1398,724.61 1398,778.95 1398,815.72 " fill="none" id="RankPosition-to-Candidate" style="stroke:#181818;stroke-width:1.0;"/><polygon fill="#181818" points="1398,821.72,1402,812.72,1398,816.72,1394,812.72,1398,821.72" style="stroke:#181818;stroke-width:1.0;"/><text fill="#000000" font-family="sans-serif" font-size="13" lengthAdjust="spacing" textLength="77" x="1399" y="755.6684">Is ranked by</text></g><!--SRC=[ZLNTRjiW5BxFKw3STds1QAfa9Lx55BcMdMxQ9RLFKzh4ze1qcgQz-m3RSC1a6pSsv__dEuU1DM_i2EHp__GmGCUxOtOyab-h5T6dEJ4f4KlJoNHkUBind0gUGK3NWES8QCI5gpDqgXHz0r9kIBMWMVdVoCrI97R7E-K9KZ5rILgkBSTB3YzCWfRSSwa-bkPoDpb7tYqzTcY91Jj3u5Qe7LEm8VNywxdGjICl7t-MuLgJAC8f2EWkP-yEnM5ELfPxkiqEzA7u433gRPNd1ItkGp8j3ddrXUPVwv2U5Td-MqqZQfNNZ_l3iY8kFLoLrcRdKWiKffp_BUwJ7Gk1D0pGt6LxwYMq2yrh7KTc7ZLQkUBQR-jej2COUkPyqbBo9NI1q7vxUtSDk0cmfgLHgw_eZCZRa3MLHCB0X8dQOBrVMxMHxoGT73qz1AAdOn16LgQmTCw3Nm3PC9numnJlkt4913i0SUCvGIowywmAlb-u09EmpD_PwM8bpCYcw5wFTWh4EuSV6-9-4oX86K6HbNeOTHVTFMiQ630WAdY5HeNT7xDrNd6YZcXgUk1d3EnGu5wm5lowIfkUhVplT8NMiTOnwIxgs8ZEgtLFI8UbJmYWIJ4zrU-09AfVZRCs5p2mDEVyDncR7WPcnRgt68w65eFGq33wXBwNlUGJvj0jbAddXyJzBx7cMCYfdJe4fzGoyT7ItRNNR24wXuaLJBUMFRPbi9trkGUq8EE0WpADDvuHq-j8huarxiEMwNao28sRuHWuODBCrFpC-4aRjD-iROL__F7ZWRZO34pQjHBpC4zwtgtTTR7re996mikFkzRqNY_Qfvywopy0]--></g></svg>