<?xml version="1.0" encoding="us-ascii" standalone="no"?><svg xmlns="http://www.w3.org/2000/svg" xmlns:xlink="http://www.w3.org/1999/xlink" contentStyleType="text/css" height="1060px" preserveAspectRatio="none" style="width:1396px;height:1060px;background:#FFFFFF;" version="1.1" viewBox="0 0 1396 1060" width="1396px" zoomAndPan="magnify"><defs/><g><!--cluster JobOpeningAgg--><g id="cluster_JobOpeningAgg"><path d="M489.5,201.47 L603.5,201.47 A3.75,3.75 0 0 1 606,203.97 L613,223.9583 L1036.5,223.9583 A2.5,2.5 0 0 1 1039,226.4583 L1039,924.8 A2.5,2.5 0 0 1 1036.5,927.3 L489.5,927.3 A2.5,2.5 0 0 1 487,924.8 L487,203.97 A2.5,2.5 0 0 1 489.5,201.47 " fill="none" style="stroke:#000000;stroke-width:1.5;"/><line style="stroke:#000000;stroke-width:1.5;" x1="487" x2="613" y1="223.9583" y2="223.9583"/><text fill="#000000" font-family="sans-serif" font-size="14" font-weight="bold" lengthAdjust="spacing" textLength="113" x="491" y="217.0052">JobOpeningAgg</text></g><!--cluster JobApplicationAgg--><g id="cluster_JobApplicationAgg"><path d="M8.5,6 L143.5,6 A3.75,3.75 0 0 1 146,8.5 L153,28.4883 L460.5,28.4883 A2.5,2.5 0 0 1 463,30.9883 L463,509.92 A2.5,2.5 0 0 1 460.5,512.42 L8.5,512.42 A2.5,2.5 0 0 1 6,509.92 L6,8.5 A2.5,2.5 0 0 1 8.5,6 " fill="none" style="stroke:#000000;stroke-width:1.5;"/><line style="stroke:#000000;stroke-width:1.5;" x1="6" x2="153" y1="28.4883" y2="28.4883"/><text fill="#000000" font-family="sans-serif" font-size="14" font-weight="bold" lengthAdjust="spacing" textLength="134" x="10" y="21.5352">JobApplicationAgg</text></g><!--cluster RankAgg--><g id="cluster_RankAgg"><path d="M1065.5,388.69 L1130.5,388.69 A3.75,3.75 0 0 1 1133,391.19 L1140,411.1783 L1329.5,411.1783 A2.5,2.5 0 0 1 1332,413.6783 L1332,692.63 A2.5,2.5 0 0 1 1329.5,695.13 L1065.5,695.13 A2.5,2.5 0 0 1 1063,692.63 L1063,391.19 A2.5,2.5 0 0 1 1065.5,388.69 " fill="none" style="stroke:#000000;stroke-width:1.5;"/><line style="stroke:#000000;stroke-width:1.5;" x1="1063" x2="1140" y1="411.1783" y2="411.1783"/><text fill="#000000" font-family="sans-serif" font-size="14" font-weight="bold" lengthAdjust="spacing" textLength="64" x="1067" y="404.2252">RankAgg</text></g><!--cluster CandidateAgg--><g id="cluster_CandidateAgg"><path d="M1123.5,778.84 L1224.5,778.84 A3.75,3.75 0 0 1 1227,781.34 L1234,801.3283 L1386.5,801.3283 A2.5,2.5 0 0 1 1389,803.8283 L1389,1051.29 A2.5,2.5 0 0 1 1386.5,1053.79 L1123.5,1053.79 A2.5,2.5 0 0 1 1121,1051.29 L1121,781.34 A2.5,2.5 0 0 1 1123.5,778.84 " fill="none" style="stroke:#000000;stroke-width:1.5;"/><line style="stroke:#000000;stroke-width:1.5;" x1="1121" x2="1234" y1="801.3283" y2="801.3283"/><text fill="#000000" font-family="sans-serif" font-size="14" font-weight="bold" lengthAdjust="spacing" textLength="100" x="1125" y="794.3752">CandidateAgg</text></g><!--class JobOpening--><g id="elem_JobOpening"><rect codeLine="3" fill="#F1F1F1" height="80.9766" id="JobOpening" rx="2.5" ry="2.5" style="stroke:#181818;stroke-width:0.5;" width="301" x="652.5" y="236.47"/><ellipse cx="758.25" cy="252.47" fill="#ADD1B2" rx="11" ry="11" style="stroke:#181818;stroke-width:1.0;"/><path d="M761.2231,258.1131 Q760.6421,258.4119 760.0029,258.5613 Q759.3638,258.7107 758.6582,258.7107 Q756.1514,258.7107 754.8315,257.0589 Q753.5117,255.407 753.5117,252.2859 Q753.5117,249.1565 754.8315,247.5047 Q756.1514,245.8528 758.6582,245.8528 Q759.3638,245.8528 760.0112,246.0022 Q760.6587,246.1516 761.2231,246.4505 L761.2231,249.1731 Q760.5923,248.5921 759.9988,248.3223 Q759.4053,248.0525 758.7744,248.0525 Q757.4297,248.0525 756.7449,249.1192 Q756.0601,250.1858 756.0601,252.2859 Q756.0601,254.3777 756.7449,255.4444 Q757.4297,256.511 758.7744,256.511 Q759.4053,256.511 759.9988,256.2412 Q760.5923,255.9715 761.2231,255.3904 Z " fill="#000000"/><text fill="#000000" font-family="sans-serif" font-size="14" lengthAdjust="spacing" textLength="81" x="778.75" y="257.761">JobOpening</text><line style="stroke:#181818;stroke-width:0.5;" x1="653.5" x2="952.5" y1="268.47" y2="268.47"/><ellipse cx="663.5" cy="282.2141" fill="none" rx="3" ry="3" style="stroke:#038048;stroke-width:1.0;"/><text fill="#000000" font-family="sans-serif" font-size="14" lengthAdjust="spacing" textLength="111" x="672.5" y="286.0052">id: JobReference</text><ellipse cx="663.5" cy="298.7024" fill="none" rx="3" ry="3" style="stroke:#038048;stroke-width:1.0;"/><text fill="#000000" font-family="sans-serif" font-size="14" lengthAdjust="spacing" textLength="275" x="672.5" y="302.4934">recruitmentProcess: RecruitmentProcess</text><line style="stroke:#181818;stroke-width:0.5;" x1="653.5" x2="952.5" y1="309.4466" y2="309.4466"/></g><!--class RecruitmentProcess--><g id="elem_RecruitmentProcess"><rect codeLine="7" fill="#F1F1F1" height="97.4648" id="RecruitmentProcess" rx="2.5" ry="2.5" style="stroke:#181818;stroke-width:0.5;" width="252" x="677" y="415.44"/><ellipse cx="731.25" cy="431.44" fill="#ADD1B2" rx="11" ry="11" style="stroke:#181818;stroke-width:1.0;"/><path d="M734.2231,437.0831 Q733.6421,437.3819 733.0029,437.5313 Q732.3638,437.6807 731.6582,437.6807 Q729.1514,437.6807 727.8315,436.0289 Q726.5117,434.377 726.5117,431.2559 Q726.5117,428.1265 727.8315,426.4747 Q729.1514,424.8228 731.6582,424.8228 Q732.3638,424.8228 733.0112,424.9722 Q733.6587,425.1216 734.2231,425.4205 L734.2231,428.1431 Q733.5923,427.5621 732.9988,427.2923 Q732.4053,427.0225 731.7744,427.0225 Q730.4297,427.0225 729.7449,428.0892 Q729.0601,429.1558 729.0601,431.2559 Q729.0601,433.3477 729.7449,434.4144 Q730.4297,435.481 731.7744,435.481 Q732.4053,435.481 732.9988,435.2112 Q733.5923,434.9415 734.2231,434.3604 Z " fill="#000000"/><text fill="#000000" font-family="sans-serif" font-size="14" lengthAdjust="spacing" textLength="135" x="751.75" y="436.731">RecruitmentProcess</text><line style="stroke:#181818;stroke-width:0.5;" x1="678" x2="928" y1="447.44" y2="447.44"/><ellipse cx="688" cy="461.1841" fill="none" rx="3" ry="3" style="stroke:#038048;stroke-width:1.0;"/><text fill="#000000" font-family="sans-serif" font-size="14" lengthAdjust="spacing" textLength="39" x="697" y="464.9752">id: int</text><ellipse cx="688" cy="477.6724" fill="none" rx="3" ry="3" style="stroke:#038048;stroke-width:1.0;"/><text fill="#000000" font-family="sans-serif" font-size="14" lengthAdjust="spacing" textLength="226" x="697" y="481.4634">status: RecruitmentProcessStatus</text><ellipse cx="688" cy="494.1607" fill="none" rx="3" ry="3" style="stroke:#038048;stroke-width:1.0;"/><text fill="#000000" font-family="sans-serif" font-size="14" lengthAdjust="spacing" textLength="141" x="697" y="497.9517">phases: List&lt;Phase&gt;</text><line style="stroke:#181818;stroke-width:0.5;" x1="678" x2="928" y1="504.9048" y2="504.9048"/></g><!--class Phase--><g id="elem_Phase"><rect codeLine="13" fill="#F1F1F1" height="113.9531" id="Phase" rx="2.5" ry="2.5" style="stroke:#181818;stroke-width:0.5;" width="159" x="618.5" y="589.91"/><ellipse cx="673.75" cy="605.91" fill="#ADD1B2" rx="11" ry="11" style="stroke:#181818;stroke-width:1.0;"/><path d="M676.7231,611.5531 Q676.1421,611.8519 675.5029,612.0013 Q674.8638,612.1507 674.1582,612.1507 Q671.6514,612.1507 670.3315,610.4989 Q669.0117,608.847 669.0117,605.7259 Q669.0117,602.5965 670.3315,600.9447 Q671.6514,599.2928 674.1582,599.2928 Q674.8638,599.2928 675.5112,599.4422 Q676.1587,599.5916 676.7231,599.8905 L676.7231,602.6131 Q676.0923,602.0321 675.4988,601.7623 Q674.9053,601.4925 674.2744,601.4925 Q672.9297,601.4925 672.2449,602.5592 Q671.5601,603.6258 671.5601,605.7259 Q671.5601,607.8177 672.2449,608.8844 Q672.9297,609.951 674.2744,609.951 Q674.9053,609.951 675.4988,609.6812 Q676.0923,609.4115 676.7231,608.8304 Z " fill="#000000"/><text fill="#000000" font-family="sans-serif" font-size="14" lengthAdjust="spacing" textLength="40" x="694.25" y="611.201">Phase</text><line style="stroke:#181818;stroke-width:0.5;" x1="619.5" x2="776.5" y1="621.91" y2="621.91"/><ellipse cx="629.5" cy="635.6541" fill="none" rx="3" ry="3" style="stroke:#038048;stroke-width:1.0;"/><text fill="#000000" font-family="sans-serif" font-size="14" lengthAdjust="spacing" textLength="100" x="638.5" y="639.4452">id: PhaseName</text><ellipse cx="629.5" cy="652.1424" fill="none" rx="3" ry="3" style="stroke:#038048;stroke-width:1.0;"/><text fill="#000000" font-family="sans-serif" font-size="14" lengthAdjust="spacing" textLength="133" x="638.5" y="655.9334">startDate: StartDate</text><ellipse cx="629.5" cy="668.6307" fill="none" rx="3" ry="3" style="stroke:#038048;stroke-width:1.0;"/><text fill="#000000" font-family="sans-serif" font-size="14" lengthAdjust="spacing" textLength="122" x="638.5" y="672.4217">endDate: EndDate</text><ellipse cx="629.5" cy="685.119" fill="none" rx="3" ry="3" style="stroke:#038048;stroke-width:1.0;"/><text fill="#000000" font-family="sans-serif" font-size="14" lengthAdjust="spacing" textLength="131" x="638.5" y="688.91">status: PhaseStatus</text><line style="stroke:#181818;stroke-width:0.5;" x1="619.5" x2="776.5" y1="695.8631" y2="695.8631"/></g><!--class PhaseName--><g id="elem_PhaseName"><rect codeLine="20" fill="#F1F1F1" height="130.4414" id="PhaseName" rx="2.5" ry="2.5" style="stroke:#181818;stroke-width:0.5;" width="111" x="503.5" y="780.86"/><ellipse cx="518.5" cy="796.86" fill="#EB937F" rx="11" ry="11" style="stroke:#181818;stroke-width:1.0;"/><path d="M522.6143,802.86 L514.8945,802.86 L514.8945,790.4669 L522.6143,790.4669 L522.6143,792.6251 L517.3433,792.6251 L517.3433,795.298 L522.1162,795.298 L522.1162,797.4562 L517.3433,797.4562 L517.3433,800.7018 L522.6143,800.7018 Z " fill="#000000"/><text fill="#000000" font-family="sans-serif" font-size="14" lengthAdjust="spacing" textLength="79" x="532.5" y="802.151">PhaseName</text><line style="stroke:#181818;stroke-width:0.5;" x1="504.5" x2="613.5" y1="812.86" y2="812.86"/><text fill="#000000" font-family="sans-serif" font-size="14" lengthAdjust="spacing" textLength="95" x="509.5" y="830.3952">APPLICATION,</text><text fill="#000000" font-family="sans-serif" font-size="14" lengthAdjust="spacing" textLength="81" x="509.5" y="846.8834">SCREENING,</text><text fill="#000000" font-family="sans-serif" font-size="14" lengthAdjust="spacing" textLength="85" x="509.5" y="863.3717">INTERVIEWS,</text><text fill="#000000" font-family="sans-serif" font-size="14" lengthAdjust="spacing" textLength="70" x="509.5" y="879.86">ANALYSIS,</text><text fill="#000000" font-family="sans-serif" font-size="14" lengthAdjust="spacing" textLength="51" x="509.5" y="896.3483">RESULT</text><line style="stroke:#181818;stroke-width:0.5;" x1="504.5" x2="613.5" y1="903.3014" y2="903.3014"/></g><!--class StartDate--><g id="elem_StartDate"><rect codeLine="28" fill="#F1F1F1" height="64.4883" id="StartDate" rx="2.5" ry="2.5" style="stroke:#181818;stroke-width:0.5;" width="95" x="649.5" y="813.84"/><ellipse cx="664.5" cy="829.84" fill="#ADD1B2" rx="11" ry="11" style="stroke:#181818;stroke-width:1.0;"/><path d="M667.4731,835.4831 Q666.8921,835.7819 666.2529,835.9313 Q665.6138,836.0807 664.9082,836.0807 Q662.4014,836.0807 661.0815,834.4289 Q659.7617,832.777 659.7617,829.6559 Q659.7617,826.5265 661.0815,824.8747 Q662.4014,823.2228 664.9082,823.2228 Q665.6138,823.2228 666.2612,823.3722 Q666.9087,823.5216 667.4731,823.8205 L667.4731,826.5431 Q666.8423,825.9621 666.2488,825.6923 Q665.6553,825.4225 665.0244,825.4225 Q663.6797,825.4225 662.9949,826.4892 Q662.3101,827.5558 662.3101,829.6559 Q662.3101,831.7477 662.9949,832.8144 Q663.6797,833.881 665.0244,833.881 Q665.6553,833.881 666.2488,833.6112 Q666.8423,833.3415 667.4731,832.7604 Z " fill="#000000"/><text fill="#000000" font-family="sans-serif" font-size="14" lengthAdjust="spacing" textLength="63" x="678.5" y="835.131">StartDate</text><line style="stroke:#181818;stroke-width:0.5;" x1="650.5" x2="743.5" y1="845.84" y2="845.84"/><ellipse cx="660.5" cy="859.5841" fill="none" rx="3" ry="3" style="stroke:#038048;stroke-width:1.0;"/><text fill="#000000" font-family="sans-serif" font-size="14" lengthAdjust="spacing" textLength="69" x="669.5" y="863.3752">date: Date</text><line style="stroke:#181818;stroke-width:0.5;" x1="650.5" x2="743.5" y1="870.3283" y2="870.3283"/></g><!--class EndDate--><g id="elem_EndDate"><rect codeLine="32" fill="#F1F1F1" height="64.4883" id="EndDate" rx="2.5" ry="2.5" style="stroke:#181818;stroke-width:0.5;" width="95" x="779.5" y="813.84"/><ellipse cx="797.2" cy="829.84" fill="#ADD1B2" rx="11" ry="11" style="stroke:#181818;stroke-width:1.0;"/><path d="M800.1731,835.4831 Q799.5921,835.7819 798.9529,835.9313 Q798.3138,836.0807 797.6082,836.0807 Q795.1014,836.0807 793.7815,834.4289 Q792.4617,832.777 792.4617,829.6559 Q792.4617,826.5265 793.7815,824.8747 Q795.1014,823.2228 797.6082,823.2228 Q798.3138,823.2228 798.9612,823.3722 Q799.6087,823.5216 800.1731,823.8205 L800.1731,826.5431 Q799.5423,825.9621 798.9488,825.6923 Q798.3553,825.4225 797.7244,825.4225 Q796.3797,825.4225 795.6949,826.4892 Q795.0101,827.5558 795.0101,829.6559 Q795.0101,831.7477 795.6949,832.8144 Q796.3797,833.881 797.7244,833.881 Q798.3553,833.881 798.9488,833.6112 Q799.5423,833.3415 800.1731,832.7604 Z " fill="#000000"/><text fill="#000000" font-family="sans-serif" font-size="14" lengthAdjust="spacing" textLength="57" x="811.8" y="835.131">EndDate</text><line style="stroke:#181818;stroke-width:0.5;" x1="780.5" x2="873.5" y1="845.84" y2="845.84"/><ellipse cx="790.5" cy="859.5841" fill="none" rx="3" ry="3" style="stroke:#038048;stroke-width:1.0;"/><text fill="#000000" font-family="sans-serif" font-size="14" lengthAdjust="spacing" textLength="69" x="799.5" y="863.3752">date: Date</text><line style="stroke:#181818;stroke-width:0.5;" x1="780.5" x2="873.5" y1="870.3283" y2="870.3283"/></g><!--class PhaseStatus--><g id="elem_PhaseStatus"><rect codeLine="36" fill="#F1F1F1" height="80.9766" id="PhaseStatus" rx="2.5" ry="2.5" style="stroke:#181818;stroke-width:0.5;" width="114" x="909" y="805.59"/><ellipse cx="924" cy="821.59" fill="#EB937F" rx="11" ry="11" style="stroke:#181818;stroke-width:1.0;"/><path d="M928.1143,827.59 L920.3945,827.59 L920.3945,815.1969 L928.1143,815.1969 L928.1143,817.3551 L922.8433,817.3551 L922.8433,820.028 L927.6162,820.028 L927.6162,822.1862 L922.8433,822.1862 L922.8433,825.4318 L928.1143,825.4318 Z " fill="#000000"/><text fill="#000000" font-family="sans-serif" font-size="14" lengthAdjust="spacing" textLength="82" x="938" y="826.881">PhaseStatus</text><line style="stroke:#181818;stroke-width:0.5;" x1="910" x2="1022" y1="837.59" y2="837.59"/><text fill="#000000" font-family="sans-serif" font-size="14" lengthAdjust="spacing" textLength="37" x="915" y="855.1252">Open</text><text fill="#000000" font-family="sans-serif" font-size="14" lengthAdjust="spacing" textLength="47" x="915" y="871.6134">Closed</text><line style="stroke:#181818;stroke-width:0.5;" x1="910" x2="1022" y1="878.5666" y2="878.5666"/></g><!--class RecruitmentProcessStatus--><g id="elem_RecruitmentProcessStatus"><rect codeLine="41" fill="#F1F1F1" height="97.4648" id="RecruitmentProcessStatus" rx="2.5" ry="2.5" style="stroke:#181818;stroke-width:0.5;" width="209" x="812.5" y="598.15"/><ellipse cx="827.5" cy="614.15" fill="#EB937F" rx="11" ry="11" style="stroke:#181818;stroke-width:1.0;"/><path d="M831.6143,620.15 L823.8945,620.15 L823.8945,607.7569 L831.6143,607.7569 L831.6143,609.9151 L826.3433,609.9151 L826.3433,612.588 L831.1162,612.588 L831.1162,614.7462 L826.3433,614.7462 L826.3433,617.9918 L831.6143,617.9918 Z " fill="#000000"/><text fill="#000000" font-family="sans-serif" font-size="14" lengthAdjust="spacing" textLength="177" x="841.5" y="619.441">RecruitmentProcessStatus</text><line style="stroke:#181818;stroke-width:0.5;" x1="813.5" x2="1020.5" y1="630.15" y2="630.15"/><text fill="#000000" font-family="sans-serif" font-size="14" lengthAdjust="spacing" textLength="75" x="818.5" y="647.6852">Uninitiated</text><text fill="#000000" font-family="sans-serif" font-size="14" lengthAdjust="spacing" textLength="69" x="818.5" y="664.1734">In Process</text><text fill="#000000" font-family="sans-serif" font-size="14" lengthAdjust="spacing" textLength="58" x="818.5" y="680.6617">Finished</text><line style="stroke:#181818;stroke-width:0.5;" x1="813.5" x2="1020.5" y1="687.6148" y2="687.6148"/></g><!--class JobApplication--><g id="elem_JobApplication"><rect codeLine="57" fill="#F1F1F1" height="97.4648" id="JobApplication" rx="2.5" ry="2.5" style="stroke:#181818;stroke-width:0.5;" width="366" x="81" y="41"/><ellipse cx="209.75" cy="57" fill="#ADD1B2" rx="11" ry="11" style="stroke:#181818;stroke-width:1.0;"/><path d="M212.7231,62.6431 Q212.1421,62.9419 211.5029,63.0913 Q210.8638,63.2407 210.1582,63.2407 Q207.6514,63.2407 206.3315,61.5889 Q205.0117,59.937 205.0117,56.8159 Q205.0117,53.6865 206.3315,52.0347 Q207.6514,50.3828 210.1582,50.3828 Q210.8638,50.3828 211.5112,50.5322 Q212.1587,50.6816 212.7231,50.9805 L212.7231,53.7031 Q212.0923,53.1221 211.4988,52.8523 Q210.9053,52.5825 210.2744,52.5825 Q208.9297,52.5825 208.2449,53.6492 Q207.5601,54.7158 207.5601,56.8159 Q207.5601,58.9077 208.2449,59.9744 Q208.9297,61.041 210.2744,61.041 Q210.9053,61.041 211.4988,60.7712 Q212.0923,60.5015 212.7231,59.9204 Z " fill="#000000"/><text fill="#000000" font-family="sans-serif" font-size="14" lengthAdjust="spacing" textLength="100" x="230.25" y="62.291">JobApplication</text><line style="stroke:#181818;stroke-width:0.5;" x1="82" x2="446" y1="73" y2="73"/><ellipse cx="92" cy="86.7441" fill="none" rx="3" ry="3" style="stroke:#038048;stroke-width:1.0;"/><text fill="#000000" font-family="sans-serif" font-size="14" lengthAdjust="spacing" textLength="113" x="101" y="90.5352">id: ApplicationID</text><ellipse cx="92" cy="103.2324" fill="none" rx="3" ry="3" style="stroke:#038048;stroke-width:1.0;"/><text fill="#000000" font-family="sans-serif" font-size="14" lengthAdjust="spacing" textLength="340" x="101" y="107.0234">RequirementsEvaluation: RequirementsEvaluation</text><ellipse cx="92" cy="119.7207" fill="none" rx="3" ry="3" style="stroke:#038048;stroke-width:1.0;"/><text fill="#000000" font-family="sans-serif" font-size="14" lengthAdjust="spacing" textLength="132" x="101" y="123.5117">Interview: Interview</text><line style="stroke:#181818;stroke-width:0.5;" x1="82" x2="446" y1="130.4648" y2="130.4648"/></g><!--class RequirementsEvaluation--><g id="elem_RequirementsEvaluation"><rect codeLine="63" fill="#F1F1F1" height="97.4648" id="RequirementsEvaluation" rx="2.5" ry="2.5" style="stroke:#181818;stroke-width:0.5;" width="198" x="22" y="228.22"/><ellipse cx="37" cy="244.22" fill="#EB937F" rx="11" ry="11" style="stroke:#181818;stroke-width:1.0;"/><path d="M41.1143,250.22 L33.3945,250.22 L33.3945,237.8269 L41.1143,237.8269 L41.1143,239.9851 L35.8433,239.9851 L35.8433,242.658 L40.6162,242.658 L40.6162,244.8162 L35.8433,244.8162 L35.8433,248.0618 L41.1143,248.0618 Z " fill="#000000"/><text fill="#000000" font-family="sans-serif" font-size="14" lengthAdjust="spacing" textLength="166" x="51" y="249.511">RequirementsEvaluation</text><line style="stroke:#181818;stroke-width:0.5;" x1="23" x2="219" y1="260.22" y2="260.22"/><text fill="#000000" font-family="sans-serif" font-size="14" lengthAdjust="spacing" textLength="56" x="28" y="277.7552">Pending</text><text fill="#000000" font-family="sans-serif" font-size="14" lengthAdjust="spacing" textLength="63" x="28" y="294.2434">Accepted</text><text fill="#000000" font-family="sans-serif" font-size="14" lengthAdjust="spacing" textLength="58" x="28" y="310.7317">Rejected</text><line style="stroke:#181818;stroke-width:0.5;" x1="23" x2="219" y1="317.6848" y2="317.6848"/></g><!--class Interview--><g id="elem_Interview"><rect codeLine="69" fill="#F1F1F1" height="80.9766" id="Interview" rx="2.5" ry="2.5" style="stroke:#181818;stroke-width:0.5;" width="192" x="255" y="236.47"/><ellipse cx="315.75" cy="252.47" fill="#ADD1B2" rx="11" ry="11" style="stroke:#181818;stroke-width:1.0;"/><path d="M318.7231,258.1131 Q318.1421,258.4119 317.5029,258.5613 Q316.8638,258.7107 316.1582,258.7107 Q313.6514,258.7107 312.3315,257.0589 Q311.0117,255.407 311.0117,252.2859 Q311.0117,249.1565 312.3315,247.5047 Q313.6514,245.8528 316.1582,245.8528 Q316.8638,245.8528 317.5112,246.0022 Q318.1587,246.1516 318.7231,246.4505 L318.7231,249.1731 Q318.0923,248.5921 317.4988,248.3223 Q316.9053,248.0525 316.2744,248.0525 Q314.9297,248.0525 314.2449,249.1192 Q313.5601,250.1858 313.5601,252.2859 Q313.5601,254.3777 314.2449,255.4444 Q314.9297,256.511 316.2744,256.511 Q316.9053,256.511 317.4988,256.2412 Q318.0923,255.9715 318.7231,255.3904 Z " fill="#000000"/><text fill="#000000" font-family="sans-serif" font-size="14" lengthAdjust="spacing" textLength="62" x="336.25" y="257.761">Interview</text><line style="stroke:#181818;stroke-width:0.5;" x1="256" x2="446" y1="268.47" y2="268.47"/><ellipse cx="266" cy="282.2141" fill="none" rx="3" ry="3" style="stroke:#038048;stroke-width:1.0;"/><text fill="#000000" font-family="sans-serif" font-size="14" lengthAdjust="spacing" textLength="166" x="275" y="286.0052">InterviewDateTime: Date</text><ellipse cx="266" cy="298.7024" fill="none" rx="3" ry="3" style="stroke:#038048;stroke-width:1.0;"/><text fill="#000000" font-family="sans-serif" font-size="14" lengthAdjust="spacing" textLength="129" x="275" y="302.4934">InterviewGrade: int</text><line style="stroke:#181818;stroke-width:0.5;" x1="256" x2="446" y1="309.4466" y2="309.4466"/></g><!--class InterviewDateTime--><g id="elem_InterviewDateTime"><rect codeLine="74" fill="#F1F1F1" height="64.4883" id="InterviewDateTime" rx="2.5" ry="2.5" style="stroke:#181818;stroke-width:0.5;" width="159" x="110.5" y="431.93"/><ellipse cx="125.5" cy="447.93" fill="#ADD1B2" rx="11" ry="11" style="stroke:#181818;stroke-width:1.0;"/><path d="M128.4731,453.5731 Q127.8921,453.8719 127.2529,454.0213 Q126.6138,454.1707 125.9082,454.1707 Q123.4014,454.1707 122.0815,452.5189 Q120.7617,450.867 120.7617,447.7459 Q120.7617,444.6165 122.0815,442.9647 Q123.4014,441.3128 125.9082,441.3128 Q126.6138,441.3128 127.2612,441.4622 Q127.9087,441.6116 128.4731,441.9105 L128.4731,444.6331 Q127.8423,444.0521 127.2488,443.7823 Q126.6553,443.5125 126.0244,443.5125 Q124.6797,443.5125 123.9949,444.5792 Q123.3101,445.6458 123.3101,447.7459 Q123.3101,449.8377 123.9949,450.9044 Q124.6797,451.971 126.0244,451.971 Q126.6553,451.971 127.2488,451.7012 Q127.8423,451.4315 128.4731,450.8504 Z " fill="#000000"/><text fill="#000000" font-family="sans-serif" font-size="14" lengthAdjust="spacing" textLength="127" x="139.5" y="453.221">InterviewDateTime</text><line style="stroke:#181818;stroke-width:0.5;" x1="111.5" x2="268.5" y1="463.93" y2="463.93"/><ellipse cx="121.5" cy="477.6741" fill="none" rx="3" ry="3" style="stroke:#038048;stroke-width:1.0;"/><text fill="#000000" font-family="sans-serif" font-size="14" lengthAdjust="spacing" textLength="69" x="130.5" y="481.4652">date: Date</text><line style="stroke:#181818;stroke-width:0.5;" x1="111.5" x2="268.5" y1="488.4183" y2="488.4183"/></g><!--class InterviewGrade--><g id="elem_InterviewGrade"><rect codeLine="78" fill="#F1F1F1" height="64.4883" id="InterviewGrade" rx="2.5" ry="2.5" style="stroke:#181818;stroke-width:0.5;" width="135" x="304.5" y="431.93"/><ellipse cx="319.5" cy="447.93" fill="#ADD1B2" rx="11" ry="11" style="stroke:#181818;stroke-width:1.0;"/><path d="M322.4731,453.5731 Q321.8921,453.8719 321.2529,454.0213 Q320.6138,454.1707 319.9082,454.1707 Q317.4014,454.1707 316.0815,452.5189 Q314.7617,450.867 314.7617,447.7459 Q314.7617,444.6165 316.0815,442.9647 Q317.4014,441.3128 319.9082,441.3128 Q320.6138,441.3128 321.2612,441.4622 Q321.9087,441.6116 322.4731,441.9105 L322.4731,444.6331 Q321.8423,444.0521 321.2488,443.7823 Q320.6553,443.5125 320.0244,443.5125 Q318.6797,443.5125 317.9949,444.5792 Q317.3101,445.6458 317.3101,447.7459 Q317.3101,449.8377 317.9949,450.9044 Q318.6797,451.971 320.0244,451.971 Q320.6553,451.971 321.2488,451.7012 Q321.8423,451.4315 322.4731,450.8504 Z " fill="#000000"/><text fill="#000000" font-family="sans-serif" font-size="14" lengthAdjust="spacing" textLength="103" x="333.5" y="453.221">InterviewGrade</text><line style="stroke:#181818;stroke-width:0.5;" x1="305.5" x2="438.5" y1="463.93" y2="463.93"/><ellipse cx="315.5" cy="477.6741" fill="none" rx="3" ry="3" style="stroke:#038048;stroke-width:1.0;"/><text fill="#000000" font-family="sans-serif" font-size="14" lengthAdjust="spacing" textLength="66" x="324.5" y="481.4652">grade: int</text><line style="stroke:#181818;stroke-width:0.5;" x1="305.5" x2="438.5" y1="488.4183" y2="488.4183"/></g><!--class Rank--><g id="elem_Rank"><rect codeLine="90" fill="#F1F1F1" height="80.9766" id="Rank" rx="2.5" ry="2.5" style="stroke:#181818;stroke-width:0.5;" width="209" x="1079.5" y="423.69"/><ellipse cx="1162.75" cy="439.69" fill="#ADD1B2" rx="11" ry="11" style="stroke:#181818;stroke-width:1.0;"/><path d="M1165.7231,445.3331 Q1165.1421,445.6319 1164.5029,445.7813 Q1163.8638,445.9307 1163.1582,445.9307 Q1160.6514,445.9307 1159.3315,444.2789 Q1158.0117,442.627 1158.0117,439.5059 Q1158.0117,436.3765 1159.3315,434.7247 Q1160.6514,433.0728 1163.1582,433.0728 Q1163.8638,433.0728 1164.5112,433.2222 Q1165.1587,433.3716 1165.7231,433.6705 L1165.7231,436.3931 Q1165.0923,435.8121 1164.4988,435.5423 Q1163.9053,435.2725 1163.2744,435.2725 Q1161.9297,435.2725 1161.2449,436.3392 Q1160.5601,437.4058 1160.5601,439.5059 Q1160.5601,441.5977 1161.2449,442.6644 Q1161.9297,443.731 1163.2744,443.731 Q1163.9053,443.731 1164.4988,443.4612 Q1165.0923,443.1915 1165.7231,442.6104 Z " fill="#000000"/><text fill="#000000" font-family="sans-serif" font-size="14" lengthAdjust="spacing" textLength="34" x="1183.25" y="444.981">Rank</text><line style="stroke:#181818;stroke-width:0.5;" x1="1080.5" x2="1287.5" y1="455.69" y2="455.69"/><ellipse cx="1090.5" cy="469.4341" fill="none" rx="3" ry="3" style="stroke:#038048;stroke-width:1.0;"/><text fill="#000000" font-family="sans-serif" font-size="14" lengthAdjust="spacing" textLength="69" x="1099.5" y="473.2252">id: RankID</text><ellipse cx="1090.5" cy="485.9224" fill="none" rx="3" ry="3" style="stroke:#038048;stroke-width:1.0;"/><text fill="#000000" font-family="sans-serif" font-size="14" lengthAdjust="spacing" textLength="183" x="1099.5" y="489.7134">rankPosition: RankPosition</text><line style="stroke:#181818;stroke-width:0.5;" x1="1080.5" x2="1287.5" y1="496.6666" y2="496.6666"/></g><!--class RankID--><g id="elem_RankID"><rect codeLine="95" fill="#F1F1F1" height="64.4883" id="RankID" rx="2.5" ry="2.5" style="stroke:#181818;stroke-width:0.5;" width="80" x="1079" y="614.64"/><ellipse cx="1094" cy="630.64" fill="#ADD1B2" rx="11" ry="11" style="stroke:#181818;stroke-width:1.0;"/><path d="M1096.9731,636.2831 Q1096.3921,636.5819 1095.7529,636.7313 Q1095.1138,636.8807 1094.4082,636.8807 Q1091.9014,636.8807 1090.5815,635.2289 Q1089.2617,633.577 1089.2617,630.4559 Q1089.2617,627.3265 1090.5815,625.6747 Q1091.9014,624.0228 1094.4082,624.0228 Q1095.1138,624.0228 1095.7612,624.1722 Q1096.4087,624.3216 1096.9731,624.6205 L1096.9731,627.3431 Q1096.3423,626.7621 1095.7488,626.4923 Q1095.1553,626.2225 1094.5244,626.2225 Q1093.1797,626.2225 1092.4949,627.2892 Q1091.8101,628.3558 1091.8101,630.4559 Q1091.8101,632.5477 1092.4949,633.6144 Q1093.1797,634.681 1094.5244,634.681 Q1095.1553,634.681 1095.7488,634.4112 Q1096.3423,634.1415 1096.9731,633.5604 Z " fill="#000000"/><text fill="#000000" font-family="sans-serif" font-size="14" lengthAdjust="spacing" textLength="48" x="1108" y="635.931">RankID</text><line style="stroke:#181818;stroke-width:0.5;" x1="1080" x2="1158" y1="646.64" y2="646.64"/><ellipse cx="1090" cy="660.3841" fill="none" rx="3" ry="3" style="stroke:#038048;stroke-width:1.0;"/><text fill="#000000" font-family="sans-serif" font-size="14" lengthAdjust="spacing" textLength="39" x="1099" y="664.1752">id: int</text><line style="stroke:#181818;stroke-width:0.5;" x1="1080" x2="1158" y1="671.1283" y2="671.1283"/></g><!--class RankPosition--><g id="elem_RankPosition"><rect codeLine="99" fill="#F1F1F1" height="64.4883" id="RankPosition" rx="2.5" ry="2.5" style="stroke:#181818;stroke-width:0.5;" width="121" x="1194.5" y="614.64"/><ellipse cx="1209.5" cy="630.64" fill="#ADD1B2" rx="11" ry="11" style="stroke:#181818;stroke-width:1.0;"/><path d="M1212.4731,636.2831 Q1211.8921,636.5819 1211.2529,636.7313 Q1210.6138,636.8807 1209.9082,636.8807 Q1207.4014,636.8807 1206.0815,635.2289 Q1204.7617,633.577 1204.7617,630.4559 Q1204.7617,627.3265 1206.0815,625.6747 Q1207.4014,624.0228 1209.9082,624.0228 Q1210.6138,624.0228 1211.2612,624.1722 Q1211.9087,624.3216 1212.4731,624.6205 L1212.4731,627.3431 Q1211.8423,626.7621 1211.2488,626.4923 Q1210.6553,626.2225 1210.0244,626.2225 Q1208.6797,626.2225 1207.9949,627.2892 Q1207.3101,628.3558 1207.3101,630.4559 Q1207.3101,632.5477 1207.9949,633.6144 Q1208.6797,634.681 1210.0244,634.681 Q1210.6553,634.681 1211.2488,634.4112 Q1211.8423,634.1415 1212.4731,633.5604 Z " fill="#000000"/><text fill="#000000" font-family="sans-serif" font-size="14" lengthAdjust="spacing" textLength="89" x="1223.5" y="635.931">RankPosition</text><line style="stroke:#181818;stroke-width:0.5;" x1="1195.5" x2="1314.5" y1="646.64" y2="646.64"/><ellipse cx="1205.5" cy="660.3841" fill="none" rx="3" ry="3" style="stroke:#038048;stroke-width:1.0;"/><text fill="#000000" font-family="sans-serif" font-size="14" lengthAdjust="spacing" textLength="62" x="1214.5" y="664.1752">value: int</text><line style="stroke:#181818;stroke-width:0.5;" x1="1195.5" x2="1314.5" y1="671.1283" y2="671.1283"/></g><!--class Candidate--><g id="elem_Candidate"><rect codeLine="109" fill="#F1F1F1" height="64.4883" id="Candidate" rx="2.5" ry="2.5" style="stroke:#181818;stroke-width:0.5;" width="235" x="1137.5" y="813.84"/><ellipse cx="1215.75" cy="829.84" fill="#ADD1B2" rx="11" ry="11" style="stroke:#181818;stroke-width:1.0;"/><path d="M1218.7231,835.4831 Q1218.1421,835.7819 1217.5029,835.9313 Q1216.8638,836.0807 1216.1582,836.0807 Q1213.6514,836.0807 1212.3315,834.4289 Q1211.0117,832.777 1211.0117,829.6559 Q1211.0117,826.5265 1212.3315,824.8747 Q1213.6514,823.2228 1216.1582,823.2228 Q1216.8638,823.2228 1217.5112,823.3722 Q1218.1587,823.5216 1218.7231,823.8205 L1218.7231,826.5431 Q1218.0923,825.9621 1217.4988,825.6923 Q1216.9053,825.4225 1216.2744,825.4225 Q1214.9297,825.4225 1214.2449,826.4892 Q1213.5601,827.5558 1213.5601,829.6559 Q1213.5601,831.7477 1214.2449,832.8144 Q1214.9297,833.881 1216.2744,833.881 Q1216.9053,833.881 1217.4988,833.6112 Q1218.0923,833.3415 1218.7231,832.7604 Z " fill="#000000"/><text fill="#000000" font-family="sans-serif" font-size="14" lengthAdjust="spacing" textLength="70" x="1236.25" y="835.131">Candidate</text><line style="stroke:#181818;stroke-width:0.5;" x1="1138.5" x2="1371.5" y1="845.84" y2="845.84"/><ellipse cx="1148.5" cy="859.5841" fill="none" rx="3" ry="3" style="stroke:#038048;stroke-width:1.0;"/><text fill="#000000" font-family="sans-serif" font-size="14" lengthAdjust="spacing" textLength="209" x="1157.5" y="863.3752">candidateEmail : EmailAddress</text><line style="stroke:#181818;stroke-width:0.5;" x1="1138.5" x2="1371.5" y1="870.3283" y2="870.3283"/></g><!--class EmailAddress--><g id="elem_EmailAddress"><rect codeLine="113" fill="#F1F1F1" height="64.4883" id="EmailAddress" rx="2.5" ry="2.5" style="stroke:#181818;stroke-width:0.5;" width="125" x="1192.5" y="973.3"/><ellipse cx="1207.5" cy="989.3" fill="#ADD1B2" rx="11" ry="11" style="stroke:#181818;stroke-width:1.0;"/><path d="M1210.4731,994.9431 Q1209.8921,995.2419 1209.2529,995.3913 Q1208.6138,995.5407 1207.9082,995.5407 Q1205.4014,995.5407 1204.0815,993.8889 Q1202.7617,992.237 1202.7617,989.1159 Q1202.7617,985.9865 1204.0815,984.3347 Q1205.4014,982.6828 1207.9082,982.6828 Q1208.6138,982.6828 1209.2612,982.8322 Q1209.9087,982.9816 1210.4731,983.2805 L1210.4731,986.0031 Q1209.8423,985.4221 1209.2488,985.1523 Q1208.6553,984.8825 1208.0244,984.8825 Q1206.6797,984.8825 1205.9949,985.9492 Q1205.3101,987.0158 1205.3101,989.1159 Q1205.3101,991.2077 1205.9949,992.2744 Q1206.6797,993.341 1208.0244,993.341 Q1208.6553,993.341 1209.2488,993.0712 Q1209.8423,992.8015 1210.4731,992.2204 Z " fill="#000000"/><text fill="#000000" font-family="sans-serif" font-size="14" lengthAdjust="spacing" textLength="93" x="1221.5" y="994.591">EmailAddress</text><line style="stroke:#181818;stroke-width:0.5;" x1="1193.5" x2="1316.5" y1="1005.3" y2="1005.3"/><ellipse cx="1203.5" cy="1019.0441" fill="none" rx="3" ry="3" style="stroke:#038048;stroke-width:1.0;"/><text fill="#000000" font-family="sans-serif" font-size="14" lengthAdjust="spacing" textLength="90" x="1212.5" y="1022.8352">email : String</text><line style="stroke:#181818;stroke-width:0.5;" x1="1193.5" x2="1316.5" y1="1029.7883" y2="1029.7883"/></g><!--link JobOpening to RecruitmentProcess--><g id="link_JobOpening_RecruitmentProcess"><path codeLine="47" d="M803,317.69 C803,346.18 803,378.7 803,408.95 " fill="none" id="JobOpening-to-RecruitmentProcess" style="stroke:#181818;stroke-width:1.0;"/><polygon fill="#181818" points="803,414.95,807,405.95,803,409.95,799,405.95,803,414.95" style="stroke:#181818;stroke-width:1.0;"/></g><!--link RecruitmentProcess to RecruitmentProcessStatus--><g id="link_RecruitmentProcess_RecruitmentProcessStatus"><path codeLine="48" d="M839.55,513.02 C846.56,522.76 853.69,533.04 860,542.91 C871.18,560.38 879.5832,574.9092 889.1232,592.4492 " fill="none" id="RecruitmentProcess-to-RecruitmentProcessStatus" style="stroke:#181818;stroke-width:1.0;"/><polygon fill="#181818" points="891.99,597.72,891.2037,587.9026,889.601,593.3277,884.1759,591.725,891.99,597.72" style="stroke:#181818;stroke-width:1.0;"/></g><!--link RecruitmentProcess to Phase--><g id="link_RecruitmentProcess_Phase"><path codeLine="49" d="M767.88,513.38 C761.35,523 754.77,533.14 749,542.91 C740.27,557.68 734.3209,568.7723 726.7209,584.1323 " fill="none" id="RecruitmentProcess-to-Phase" style="stroke:#181818;stroke-width:1.0;"/><polygon fill="#181818" points="724.06,589.51,731.6364,583.2173,726.2774,585.0286,724.4661,579.6695,724.06,589.51" style="stroke:#181818;stroke-width:1.0;"/><text fill="#000000" font-family="sans-serif" font-size="13" lengthAdjust="spacing" textLength="105" x="750" y="556.4784">Is separated into</text></g><!--link Phase to PhaseName--><g id="link_Phase_PhaseName"><path codeLine="50" d="M658.35,704.13 C641.58,727.92 625.408,750.8767 608.038,775.5067 " fill="none" id="Phase-to-PhaseName" style="stroke:#181818;stroke-width:1.0;"/><polygon fill="#181818" points="604.58,780.41,613.0358,775.3604,607.4617,776.3239,606.4981,770.7497,604.58,780.41" style="stroke:#181818;stroke-width:1.0;"/></g><!--link Phase to StartDate--><g id="link_Phase_StartDate"><path codeLine="51" d="M697.71,704.13 C697.53,739.65 697.3406,778.2201 697.1906,807.6201 " fill="none" id="Phase-to-StartDate" style="stroke:#181818;stroke-width:1.0;"/><polygon fill="#181818" points="697.16,813.62,701.2059,804.6405,697.1855,808.6201,693.206,804.5997,697.16,813.62" style="stroke:#181818;stroke-width:1.0;"/></g><!--link Phase to EndDate--><g id="link_Phase_EndDate"><path codeLine="52" d="M734.79,704.13 C758.03,739.65 783.9057,779.1987 803.1357,808.5987 " fill="none" id="Phase-to-EndDate" style="stroke:#181818;stroke-width:1.0;"/><polygon fill="#181818" points="806.42,813.62,804.841,803.8985,803.6831,809.4356,798.146,808.2776,806.42,813.62" style="stroke:#181818;stroke-width:1.0;"/></g><!--link Phase to PhaseStatus--><g id="link_Phase_PhaseStatus"><path codeLine="53" d="M777.78,695.98 C821.88,723.05 871.74,754.59 892,770.84 C904.92,781.2 913.7849,789.3 925.2849,800.95 " fill="none" id="Phase-to-PhaseStatus" style="stroke:#181818;stroke-width:1.0;"/><polygon fill="#181818" points="929.5,805.22,926.0241,796.0049,925.9874,801.6616,920.3307,801.625,929.5,805.22" style="stroke:#181818;stroke-width:1.0;"/></g><!--link JobApplication to RequirementsEvaluation--><g id="link_JobApplication_RequirementsEvaluation"><path codeLine="82" d="M226.8,138.91 C205.62,166.35 182.8373,195.8612 161.6773,223.2612 " fill="none" id="JobApplication-to-RequirementsEvaluation" style="stroke:#181818;stroke-width:1.0;"/><polygon fill="#181818" points="158.01,228.01,166.6768,223.3317,161.0661,224.0527,160.3451,218.442,158.01,228.01" style="stroke:#181818;stroke-width:1.0;"/></g><!--link JobApplication to Interview--><g id="link_JobApplication_Interview"><path codeLine="83" d="M286.63,138.91 C300.83,169.14 316.3586,202.2095 329.7486,230.7095 " fill="none" id="JobApplication-to-Interview" style="stroke:#181818;stroke-width:1.0;"/><polygon fill="#181818" points="332.3,236.14,332.0933,226.2933,330.1738,231.6146,324.8526,229.6952,332.3,236.14" style="stroke:#181818;stroke-width:1.0;"/></g><!--link JobApplication to JobOpening--><g id="link_JobApplication_JobOpening"><path codeLine="84" d="M404.21,138.91 C492.01,169.09 598.1455,205.5605 681.0155,234.0305 " fill="none" id="JobApplication-to-JobOpening" style="stroke:#181818;stroke-width:1.0;"/><polygon fill="#181818" points="686.69,235.98,679.4779,229.2728,681.9613,234.3554,676.8787,236.8388,686.69,235.98" style="stroke:#181818;stroke-width:1.0;"/><text fill="#000000" font-family="sans-serif" font-size="13" lengthAdjust="spacing" textLength="56" x="534" y="182.0384">Refers to</text></g><!--link Interview to InterviewDateTime--><g id="link_Interview_InterviewDateTime"><path codeLine="85" d="M316.46,317.69 C286.89,351.7 248.8265,395.5019 221.4765,426.9619 " fill="none" id="Interview-to-InterviewDateTime" style="stroke:#181818;stroke-width:1.0;"/><polygon fill="#181818" points="217.54,431.49,226.4635,427.3222,220.8204,427.7166,220.4261,422.0735,217.54,431.49" style="stroke:#181818;stroke-width:1.0;"/></g><!--link Interview to InterviewGrade--><g id="link_Interview_InterviewGrade"><path codeLine="86" d="M355.51,317.69 C359.36,351.7 364.1635,394.0683 367.7335,425.5283 " fill="none" id="Interview-to-InterviewGrade" style="stroke:#181818;stroke-width:1.0;"/><polygon fill="#181818" points="368.41,431.49,371.3697,422.0964,367.8462,426.5219,363.4207,422.9984,368.41,431.49" style="stroke:#181818;stroke-width:1.0;"/></g><!--link Rank to RankID--><g id="link_Rank_RankID"><path codeLine="103" d="M1169.74,504.83 C1157.89,537.77 1143.2899,578.3438 1132.3499,608.7738 " fill="none" id="Rank-to-RankID" style="stroke:#181818;stroke-width:1.0;"/><polygon fill="#181818" points="1130.32,614.42,1137.129,607.304,1132.0116,609.7148,1129.6007,604.5974,1130.32,614.42" style="stroke:#181818;stroke-width:1.0;"/></g><!--link Rank to RankPosition--><g id="link_Rank_RankPosition"><path codeLine="104" d="M1199.58,504.83 C1212.52,537.77 1228.4852,578.4058 1240.4452,608.8358 " fill="none" id="Rank-to-RankPosition" style="stroke:#181818;stroke-width:1.0;"/><polygon fill="#181818" points="1242.64,614.42,1243.0706,604.5806,1240.811,609.7665,1235.6251,607.5069,1242.64,614.42" style="stroke:#181818;stroke-width:1.0;"/></g><!--link JobOpening to Rank--><g id="link_JobOpening_Rank"><path codeLine="105" d="M901.1,317.89 C943.93,336.03 994.44,358.39 1039,380.69 C1065.03,393.71 1087.7727,406.222 1112.1127,420.262 " fill="none" id="JobOpening-to-Rank" style="stroke:#181818;stroke-width:1.0;"/><polygon fill="#181818" points="1117.31,423.26,1111.5127,415.2982,1112.9789,420.7617,1107.5154,422.2279,1117.31,423.26" style="stroke:#181818;stroke-width:1.0;"/><text fill="#000000" font-family="sans-serif" font-size="13" lengthAdjust="spacing" textLength="22" x="1021" y="369.2584">has</text></g><!--link Candidate to EmailAddress--><g id="link_Candidate_EmailAddress"><path codeLine="117" d="M1255,878.57 C1255,905.94 1255,939.41 1255,966.84 " fill="none" id="Candidate-to-EmailAddress" style="stroke:#181818;stroke-width:1.0;"/><polygon fill="#181818" points="1255,972.84,1259,963.84,1255,967.84,1251,963.84,1255,972.84" style="stroke:#181818;stroke-width:1.0;"/></g><!--link RankPosition to Candidate--><g id="link_RankPosition_Candidate"><path codeLine="118" d="M1255,679.57 C1255,716.37 1255,770.71 1255,807.48 " fill="none" id="RankPosition-to-Candidate" style="stroke:#181818;stroke-width:1.0;"/><polygon fill="#181818" points="1255,813.48,1259,804.48,1255,808.48,1251,804.48,1255,813.48" style="stroke:#181818;stroke-width:1.0;"/><text fill="#000000" font-family="sans-serif" font-size="13" lengthAdjust="spacing" textLength="77" x="1256" y="747.4284">Is ranked by</text></g><!--SRC=[ZLNRRfmm47tVhx3sjSqFhAf8Q4CZgXL1i6dLHmSc6pUieROtLLNrt-iBs6F3jkK5F7FcwZF3IDjNUWBoQNXw684pVifE9_9hio7wQNig9L9fEPcUTwpR6KqDpo20jn0q0bfnOUeCN5LYQ47A7QaNCel_ZS8i8MaunbKGI4NLPTLpOpK1ERvG2HfvO59zgCpXTWgEebjv6j0AItg6AAnGTrJ1ZZJpPz02xvmkTn_BTArBbE6K1F3BEOH3UPWdgwf3iS-EnKFvFb8q-phFowAyZyL5USphpqN-fOdbMPaTlZP58gtpvl5mN7R4buUxqjdgV6cHmLJpl-6XMDS8P668vW_xVf3GBIoltJXoywZPoXJJSJilApZ1r3FFHusIBt48nFQRczjhn5qXwpeQNVKL6yUy7TaMaaWOgJ1P6wuFMslcz1xfwHZaCH6379CmyJAbfMiUmmB8nh5dBLLiu6u9H3i0QTCvGQhYBgXg-7vX0ap1Cd-Z_SKYpCYkoODTmHM8DmO_TiH_hh1WpGdAhDB3g6_HdxEsXH4JeePlqAhuzbsrFYekr0jDJu_iZ8aT0-u5xI2igtNNivV_dQxOExOwhOPBRionyshVLz1nwrS0Q5BCdUh_W2HgsBXPcniOUPfh_Xl6beU9MLF-cjBHo58I6Xbcdz3dQf1iuXmwBPlhRA_zRnRGsH4sCFrSte9DrFO-P1V9efpItME0UZ7eWTtYZkofPhRXIjeMhy29aNQMvcVAUktGlhEk4-4tZDSuqc8tC5atIinZDTc5i7RhfDwZZXb4mBkjPsvAhxoddxhAFm00]--></g></svg>