<?xml version="1.0" encoding="us-ascii" standalone="no"?><svg xmlns="http://www.w3.org/2000/svg" xmlns:xlink="http://www.w3.org/1999/xlink" contentStyleType="text/css" height="917px" preserveAspectRatio="none" style="width:1250px;height:917px;background:#FFFFFF;" version="1.1" viewBox="0 0 1250 917" width="1250px" zoomAndPan="magnify"><defs/><g><!--cluster JobOpeningAgg--><g id="cluster_JobOpeningAgg"><path d="M453.5,201.46 L567.5,201.46 A3.75,3.75 0 0 1 570,203.96 L577,223.9483 L1000.5,223.9483 A2.5,2.5 0 0 1 1003,226.4483 L1003,907.8 A2.5,2.5 0 0 1 1000.5,910.3 L453.5,910.3 A2.5,2.5 0 0 1 451,907.8 L451,203.96 A2.5,2.5 0 0 1 453.5,201.46 " fill="none" style="stroke:#000000;stroke-width:1.5;"/><line style="stroke:#000000;stroke-width:1.5;" x1="451" x2="577" y1="223.9483" y2="223.9483"/><text fill="#000000" font-family="sans-serif" font-size="14" font-weight="bold" lengthAdjust="spacing" textLength="113" x="455" y="216.9952">JobOpeningAgg</text></g><!--cluster JobApplicationAgg--><g id="cluster_JobApplicationAgg"><path d="M8.5,6 L143.5,6 A3.75,3.75 0 0 1 146,8.5 L153,28.4883 L424.5,28.4883 A2.5,2.5 0 0 1 427,30.9883 L427,509.92 A2.5,2.5 0 0 1 424.5,512.42 L8.5,512.42 A2.5,2.5 0 0 1 6,509.92 L6,8.5 A2.5,2.5 0 0 1 8.5,6 " fill="none" style="stroke:#000000;stroke-width:1.5;"/><line style="stroke:#000000;stroke-width:1.5;" x1="6" x2="153" y1="28.4883" y2="28.4883"/><text fill="#000000" font-family="sans-serif" font-size="14" font-weight="bold" lengthAdjust="spacing" textLength="134" x="10" y="21.5352">JobApplicationAgg</text></g><!--cluster RankAgg--><g id="cluster_RankAgg"><path d="M1029.5,388.68 L1094.5,388.68 A3.75,3.75 0 0 1 1097,391.18 L1104,411.1683 L1240.5,411.1683 A2.5,2.5 0 0 1 1243,413.6683 L1243,700.87 A2.5,2.5 0 0 1 1240.5,703.37 L1029.5,703.37 A2.5,2.5 0 0 1 1027,700.87 L1027,391.18 A2.5,2.5 0 0 1 1029.5,388.68 " fill="none" style="stroke:#000000;stroke-width:1.5;"/><line style="stroke:#000000;stroke-width:1.5;" x1="1027" x2="1104" y1="411.1683" y2="411.1683"/><text fill="#000000" font-family="sans-serif" font-size="14" font-weight="bold" lengthAdjust="spacing" textLength="64" x="1031" y="404.2152">RankAgg</text></g><!--class JobOpening--><g id="elem_JobOpening"><rect codeLine="3" fill="#F1F1F1" height="80.9766" id="JobOpening" rx="2.5" ry="2.5" style="stroke:#181818;stroke-width:0.5;" width="301" x="562.5" y="236.46"/><ellipse cx="668.25" cy="252.46" fill="#ADD1B2" rx="11" ry="11" style="stroke:#181818;stroke-width:1.0;"/><path d="M671.2231,258.1031 Q670.6421,258.4019 670.0029,258.5513 Q669.3638,258.7007 668.6582,258.7007 Q666.1514,258.7007 664.8315,257.0489 Q663.5117,255.397 663.5117,252.2759 Q663.5117,249.1465 664.8315,247.4947 Q666.1514,245.8428 668.6582,245.8428 Q669.3638,245.8428 670.0112,245.9922 Q670.6587,246.1416 671.2231,246.4405 L671.2231,249.1631 Q670.5923,248.5821 669.9988,248.3123 Q669.4053,248.0425 668.7744,248.0425 Q667.4297,248.0425 666.7449,249.1092 Q666.0601,250.1758 666.0601,252.2759 Q666.0601,254.3677 666.7449,255.4344 Q667.4297,256.501 668.7744,256.501 Q669.4053,256.501 669.9988,256.2312 Q670.5923,255.9615 671.2231,255.3804 Z " fill="#000000"/><text fill="#000000" font-family="sans-serif" font-size="14" lengthAdjust="spacing" textLength="81" x="688.75" y="257.751">JobOpening</text><line style="stroke:#181818;stroke-width:0.5;" x1="563.5" x2="862.5" y1="268.46" y2="268.46"/><ellipse cx="573.5" cy="282.2041" fill="none" rx="3" ry="3" style="stroke:#038048;stroke-width:1.0;"/><text fill="#000000" font-family="sans-serif" font-size="14" lengthAdjust="spacing" textLength="111" x="582.5" y="285.9952">id: JobReference</text><ellipse cx="573.5" cy="298.6924" fill="none" rx="3" ry="3" style="stroke:#038048;stroke-width:1.0;"/><text fill="#000000" font-family="sans-serif" font-size="14" lengthAdjust="spacing" textLength="275" x="582.5" y="302.4834">recruitmentProcess: RecruitmentProcess</text><line style="stroke:#181818;stroke-width:0.5;" x1="563.5" x2="862.5" y1="309.4366" y2="309.4366"/></g><!--class JobReference--><g id="elem_JobReference"><rect codeLine="8" fill="#F1F1F1" height="80.9766" id="JobReference" rx="2.5" ry="2.5" style="stroke:#181818;stroke-width:0.5;" width="175" x="489.5" y="423.68"/><ellipse cx="528.35" cy="439.68" fill="#ADD1B2" rx="11" ry="11" style="stroke:#181818;stroke-width:1.0;"/><path d="M531.3231,445.3231 Q530.7421,445.6219 530.1029,445.7713 Q529.4638,445.9207 528.7582,445.9207 Q526.2514,445.9207 524.9315,444.2689 Q523.6117,442.617 523.6117,439.4959 Q523.6117,436.3665 524.9315,434.7147 Q526.2514,433.0628 528.7582,433.0628 Q529.4638,433.0628 530.1112,433.2122 Q530.7587,433.3616 531.3231,433.6605 L531.3231,436.3831 Q530.6923,435.8021 530.0988,435.5323 Q529.5053,435.2625 528.8744,435.2625 Q527.5297,435.2625 526.8449,436.3292 Q526.1601,437.3958 526.1601,439.4959 Q526.1601,441.5877 526.8449,442.6544 Q527.5297,443.721 528.8744,443.721 Q529.5053,443.721 530.0988,443.4512 Q530.6923,443.1815 531.3231,442.6004 Z " fill="#000000"/><text fill="#000000" font-family="sans-serif" font-size="14" lengthAdjust="spacing" textLength="90" x="547.65" y="444.971">JobReference</text><line style="stroke:#181818;stroke-width:0.5;" x1="490.5" x2="663.5" y1="455.68" y2="455.68"/><ellipse cx="500.5" cy="469.4241" fill="none" rx="3" ry="3" style="stroke:#038048;stroke-width:1.0;"/><text fill="#000000" font-family="sans-serif" font-size="14" lengthAdjust="spacing" textLength="149" x="509.5" y="473.2152">customerCode: String</text><ellipse cx="500.5" cy="485.9124" fill="none" rx="3" ry="3" style="stroke:#038048;stroke-width:1.0;"/><text fill="#000000" font-family="sans-serif" font-size="14" lengthAdjust="spacing" textLength="103" x="509.5" y="489.7034">jobNumber: int</text><line style="stroke:#181818;stroke-width:0.5;" x1="490.5" x2="663.5" y1="496.6566" y2="496.6566"/></g><!--class RecruitmentProcess--><g id="elem_RecruitmentProcess"><rect codeLine="13" fill="#F1F1F1" height="97.4648" id="RecruitmentProcess" rx="2.5" ry="2.5" style="stroke:#181818;stroke-width:0.5;" width="252" x="700" y="415.44"/><ellipse cx="754.25" cy="431.44" fill="#ADD1B2" rx="11" ry="11" style="stroke:#181818;stroke-width:1.0;"/><path d="M757.2231,437.0831 Q756.6421,437.3819 756.0029,437.5313 Q755.3638,437.6807 754.6582,437.6807 Q752.1514,437.6807 750.8315,436.0289 Q749.5117,434.377 749.5117,431.2559 Q749.5117,428.1265 750.8315,426.4747 Q752.1514,424.8228 754.6582,424.8228 Q755.3638,424.8228 756.0112,424.9722 Q756.6587,425.1216 757.2231,425.4205 L757.2231,428.1431 Q756.5923,427.5621 755.9988,427.2923 Q755.4053,427.0225 754.7744,427.0225 Q753.4297,427.0225 752.7449,428.0892 Q752.0601,429.1558 752.0601,431.2559 Q752.0601,433.3477 752.7449,434.4144 Q753.4297,435.481 754.7744,435.481 Q755.4053,435.481 755.9988,435.2112 Q756.5923,434.9415 757.2231,434.3604 Z " fill="#000000"/><text fill="#000000" font-family="sans-serif" font-size="14" lengthAdjust="spacing" textLength="135" x="774.75" y="436.731">RecruitmentProcess</text><line style="stroke:#181818;stroke-width:0.5;" x1="701" x2="951" y1="447.44" y2="447.44"/><ellipse cx="711" cy="461.1841" fill="none" rx="3" ry="3" style="stroke:#038048;stroke-width:1.0;"/><text fill="#000000" font-family="sans-serif" font-size="14" lengthAdjust="spacing" textLength="39" x="720" y="464.9752">id: int</text><ellipse cx="711" cy="477.6724" fill="none" rx="3" ry="3" style="stroke:#038048;stroke-width:1.0;"/><text fill="#000000" font-family="sans-serif" font-size="14" lengthAdjust="spacing" textLength="226" x="720" y="481.4634">status: RecruitmentProcessStatus</text><ellipse cx="711" cy="494.1607" fill="none" rx="3" ry="3" style="stroke:#038048;stroke-width:1.0;"/><text fill="#000000" font-family="sans-serif" font-size="14" lengthAdjust="spacing" textLength="141" x="720" y="497.9517">phases: List&lt;Phase&gt;</text><line style="stroke:#181818;stroke-width:0.5;" x1="701" x2="951" y1="504.9048" y2="504.9048"/></g><!--class Phase--><g id="elem_Phase"><rect codeLine="19" fill="#F1F1F1" height="113.9531" id="Phase" rx="2.5" ry="2.5" style="stroke:#181818;stroke-width:0.5;" width="159" x="582.5" y="589.91"/><ellipse cx="637.75" cy="605.91" fill="#ADD1B2" rx="11" ry="11" style="stroke:#181818;stroke-width:1.0;"/><path d="M640.7231,611.5531 Q640.1421,611.8519 639.5029,612.0013 Q638.8638,612.1507 638.1582,612.1507 Q635.6514,612.1507 634.3315,610.4989 Q633.0117,608.847 633.0117,605.7259 Q633.0117,602.5965 634.3315,600.9447 Q635.6514,599.2928 638.1582,599.2928 Q638.8638,599.2928 639.5112,599.4422 Q640.1587,599.5916 640.7231,599.8905 L640.7231,602.6131 Q640.0923,602.0321 639.4988,601.7623 Q638.9053,601.4925 638.2744,601.4925 Q636.9297,601.4925 636.2449,602.5592 Q635.5601,603.6258 635.5601,605.7259 Q635.5601,607.8177 636.2449,608.8844 Q636.9297,609.951 638.2744,609.951 Q638.9053,609.951 639.4988,609.6812 Q640.0923,609.4115 640.7231,608.8304 Z " fill="#000000"/><text fill="#000000" font-family="sans-serif" font-size="14" lengthAdjust="spacing" textLength="40" x="658.25" y="611.201">Phase</text><line style="stroke:#181818;stroke-width:0.5;" x1="583.5" x2="740.5" y1="621.91" y2="621.91"/><ellipse cx="593.5" cy="635.6541" fill="none" rx="3" ry="3" style="stroke:#038048;stroke-width:1.0;"/><text fill="#000000" font-family="sans-serif" font-size="14" lengthAdjust="spacing" textLength="100" x="602.5" y="639.4452">id: PhaseName</text><ellipse cx="593.5" cy="652.1424" fill="none" rx="3" ry="3" style="stroke:#038048;stroke-width:1.0;"/><text fill="#000000" font-family="sans-serif" font-size="14" lengthAdjust="spacing" textLength="133" x="602.5" y="655.9334">startDate: StartDate</text><ellipse cx="593.5" cy="668.6307" fill="none" rx="3" ry="3" style="stroke:#038048;stroke-width:1.0;"/><text fill="#000000" font-family="sans-serif" font-size="14" lengthAdjust="spacing" textLength="122" x="602.5" y="672.4217">endDate: EndDate</text><ellipse cx="593.5" cy="685.119" fill="none" rx="3" ry="3" style="stroke:#038048;stroke-width:1.0;"/><text fill="#000000" font-family="sans-serif" font-size="14" lengthAdjust="spacing" textLength="131" x="602.5" y="688.91">status: PhaseStatus</text><line style="stroke:#181818;stroke-width:0.5;" x1="583.5" x2="740.5" y1="695.8631" y2="695.8631"/></g><!--class PhaseName--><g id="elem_PhaseName"><rect codeLine="26" fill="#F1F1F1" height="130.4414" id="PhaseName" rx="2.5" ry="2.5" style="stroke:#181818;stroke-width:0.5;" width="111" x="467.5" y="763.86"/><ellipse cx="482.5" cy="779.86" fill="#EB937F" rx="11" ry="11" style="stroke:#181818;stroke-width:1.0;"/><path d="M486.6143,785.86 L478.8945,785.86 L478.8945,773.4669 L486.6143,773.4669 L486.6143,775.6251 L481.3433,775.6251 L481.3433,778.298 L486.1162,778.298 L486.1162,780.4562 L481.3433,780.4562 L481.3433,783.7018 L486.6143,783.7018 Z " fill="#000000"/><text fill="#000000" font-family="sans-serif" font-size="14" lengthAdjust="spacing" textLength="79" x="496.5" y="785.151">PhaseName</text><line style="stroke:#181818;stroke-width:0.5;" x1="468.5" x2="577.5" y1="795.86" y2="795.86"/><text fill="#000000" font-family="sans-serif" font-size="14" lengthAdjust="spacing" textLength="95" x="473.5" y="813.3952">APPLICATION,</text><text fill="#000000" font-family="sans-serif" font-size="14" lengthAdjust="spacing" textLength="81" x="473.5" y="829.8834">SCREENING,</text><text fill="#000000" font-family="sans-serif" font-size="14" lengthAdjust="spacing" textLength="85" x="473.5" y="846.3717">INTERVIEWS,</text><text fill="#000000" font-family="sans-serif" font-size="14" lengthAdjust="spacing" textLength="70" x="473.5" y="862.86">ANALYSIS,</text><text fill="#000000" font-family="sans-serif" font-size="14" lengthAdjust="spacing" textLength="51" x="473.5" y="879.3483">RESULT</text><line style="stroke:#181818;stroke-width:0.5;" x1="468.5" x2="577.5" y1="886.3014" y2="886.3014"/></g><!--class StartDate--><g id="elem_StartDate"><rect codeLine="34" fill="#F1F1F1" height="64.4883" id="StartDate" rx="2.5" ry="2.5" style="stroke:#181818;stroke-width:0.5;" width="95" x="613.5" y="796.84"/><ellipse cx="628.5" cy="812.84" fill="#ADD1B2" rx="11" ry="11" style="stroke:#181818;stroke-width:1.0;"/><path d="M631.4731,818.4831 Q630.8921,818.7819 630.2529,818.9313 Q629.6138,819.0807 628.9082,819.0807 Q626.4014,819.0807 625.0815,817.4289 Q623.7617,815.777 623.7617,812.6559 Q623.7617,809.5265 625.0815,807.8747 Q626.4014,806.2228 628.9082,806.2228 Q629.6138,806.2228 630.2612,806.3722 Q630.9087,806.5216 631.4731,806.8205 L631.4731,809.5431 Q630.8423,808.9621 630.2488,808.6923 Q629.6553,808.4225 629.0244,808.4225 Q627.6797,808.4225 626.9949,809.4892 Q626.3101,810.5558 626.3101,812.6559 Q626.3101,814.7477 626.9949,815.8144 Q627.6797,816.881 629.0244,816.881 Q629.6553,816.881 630.2488,816.6112 Q630.8423,816.3415 631.4731,815.7604 Z " fill="#000000"/><text fill="#000000" font-family="sans-serif" font-size="14" lengthAdjust="spacing" textLength="63" x="642.5" y="818.131">StartDate</text><line style="stroke:#181818;stroke-width:0.5;" x1="614.5" x2="707.5" y1="828.84" y2="828.84"/><ellipse cx="624.5" cy="842.5841" fill="none" rx="3" ry="3" style="stroke:#038048;stroke-width:1.0;"/><text fill="#000000" font-family="sans-serif" font-size="14" lengthAdjust="spacing" textLength="69" x="633.5" y="846.3752">date: Date</text><line style="stroke:#181818;stroke-width:0.5;" x1="614.5" x2="707.5" y1="853.3283" y2="853.3283"/></g><!--class EndDate--><g id="elem_EndDate"><rect codeLine="38" fill="#F1F1F1" height="64.4883" id="EndDate" rx="2.5" ry="2.5" style="stroke:#181818;stroke-width:0.5;" width="95" x="743.5" y="796.84"/><ellipse cx="761.2" cy="812.84" fill="#ADD1B2" rx="11" ry="11" style="stroke:#181818;stroke-width:1.0;"/><path d="M764.1731,818.4831 Q763.5921,818.7819 762.9529,818.9313 Q762.3138,819.0807 761.6082,819.0807 Q759.1014,819.0807 757.7815,817.4289 Q756.4617,815.777 756.4617,812.6559 Q756.4617,809.5265 757.7815,807.8747 Q759.1014,806.2228 761.6082,806.2228 Q762.3138,806.2228 762.9612,806.3722 Q763.6087,806.5216 764.1731,806.8205 L764.1731,809.5431 Q763.5423,808.9621 762.9488,808.6923 Q762.3553,808.4225 761.7244,808.4225 Q760.3797,808.4225 759.6949,809.4892 Q759.0101,810.5558 759.0101,812.6559 Q759.0101,814.7477 759.6949,815.8144 Q760.3797,816.881 761.7244,816.881 Q762.3553,816.881 762.9488,816.6112 Q763.5423,816.3415 764.1731,815.7604 Z " fill="#000000"/><text fill="#000000" font-family="sans-serif" font-size="14" lengthAdjust="spacing" textLength="57" x="775.8" y="818.131">EndDate</text><line style="stroke:#181818;stroke-width:0.5;" x1="744.5" x2="837.5" y1="828.84" y2="828.84"/><ellipse cx="754.5" cy="842.5841" fill="none" rx="3" ry="3" style="stroke:#038048;stroke-width:1.0;"/><text fill="#000000" font-family="sans-serif" font-size="14" lengthAdjust="spacing" textLength="69" x="763.5" y="846.3752">date: Date</text><line style="stroke:#181818;stroke-width:0.5;" x1="744.5" x2="837.5" y1="853.3283" y2="853.3283"/></g><!--class PhaseStatus--><g id="elem_PhaseStatus"><rect codeLine="42" fill="#F1F1F1" height="80.9766" id="PhaseStatus" rx="2.5" ry="2.5" style="stroke:#181818;stroke-width:0.5;" width="114" x="873" y="788.59"/><ellipse cx="888" cy="804.59" fill="#EB937F" rx="11" ry="11" style="stroke:#181818;stroke-width:1.0;"/><path d="M892.1143,810.59 L884.3945,810.59 L884.3945,798.1969 L892.1143,798.1969 L892.1143,800.3551 L886.8433,800.3551 L886.8433,803.028 L891.6162,803.028 L891.6162,805.1862 L886.8433,805.1862 L886.8433,808.4318 L892.1143,808.4318 Z " fill="#000000"/><text fill="#000000" font-family="sans-serif" font-size="14" lengthAdjust="spacing" textLength="82" x="902" y="809.881">PhaseStatus</text><line style="stroke:#181818;stroke-width:0.5;" x1="874" x2="986" y1="820.59" y2="820.59"/><text fill="#000000" font-family="sans-serif" font-size="14" lengthAdjust="spacing" textLength="37" x="879" y="838.1252">Open</text><text fill="#000000" font-family="sans-serif" font-size="14" lengthAdjust="spacing" textLength="47" x="879" y="854.6134">Closed</text><line style="stroke:#181818;stroke-width:0.5;" x1="874" x2="986" y1="861.5666" y2="861.5666"/></g><!--class RecruitmentProcessStatus--><g id="elem_RecruitmentProcessStatus"><rect codeLine="47" fill="#F1F1F1" height="97.4648" id="RecruitmentProcessStatus" rx="2.5" ry="2.5" style="stroke:#181818;stroke-width:0.5;" width="209" x="776.5" y="598.15"/><ellipse cx="791.5" cy="614.15" fill="#EB937F" rx="11" ry="11" style="stroke:#181818;stroke-width:1.0;"/><path d="M795.6143,620.15 L787.8945,620.15 L787.8945,607.7569 L795.6143,607.7569 L795.6143,609.9151 L790.3433,609.9151 L790.3433,612.588 L795.1162,612.588 L795.1162,614.7462 L790.3433,614.7462 L790.3433,617.9918 L795.6143,617.9918 Z " fill="#000000"/><text fill="#000000" font-family="sans-serif" font-size="14" lengthAdjust="spacing" textLength="177" x="805.5" y="619.441">RecruitmentProcessStatus</text><line style="stroke:#181818;stroke-width:0.5;" x1="777.5" x2="984.5" y1="630.15" y2="630.15"/><text fill="#000000" font-family="sans-serif" font-size="14" lengthAdjust="spacing" textLength="75" x="782.5" y="647.6852">Uninitiated</text><text fill="#000000" font-family="sans-serif" font-size="14" lengthAdjust="spacing" textLength="69" x="782.5" y="664.1734">In Process</text><text fill="#000000" font-family="sans-serif" font-size="14" lengthAdjust="spacing" textLength="58" x="782.5" y="680.6617">Finished</text><line style="stroke:#181818;stroke-width:0.5;" x1="777.5" x2="984.5" y1="687.6148" y2="687.6148"/></g><!--class JobApplication--><g id="elem_JobApplication"><rect codeLine="64" fill="#F1F1F1" height="97.4648" id="JobApplication" rx="2.5" ry="2.5" style="stroke:#181818;stroke-width:0.5;" width="366" x="45" y="41"/><ellipse cx="173.75" cy="57" fill="#ADD1B2" rx="11" ry="11" style="stroke:#181818;stroke-width:1.0;"/><path d="M176.7231,62.6431 Q176.1421,62.9419 175.5029,63.0913 Q174.8638,63.2407 174.1582,63.2407 Q171.6514,63.2407 170.3315,61.5889 Q169.0117,59.937 169.0117,56.8159 Q169.0117,53.6865 170.3315,52.0347 Q171.6514,50.3828 174.1582,50.3828 Q174.8638,50.3828 175.5112,50.5322 Q176.1587,50.6816 176.7231,50.9805 L176.7231,53.7031 Q176.0923,53.1221 175.4988,52.8523 Q174.9053,52.5825 174.2744,52.5825 Q172.9297,52.5825 172.2449,53.6492 Q171.5601,54.7158 171.5601,56.8159 Q171.5601,58.9077 172.2449,59.9744 Q172.9297,61.041 174.2744,61.041 Q174.9053,61.041 175.4988,60.7712 Q176.0923,60.5015 176.7231,59.9204 Z " fill="#000000"/><text fill="#000000" font-family="sans-serif" font-size="14" lengthAdjust="spacing" textLength="100" x="194.25" y="62.291">JobApplication</text><line style="stroke:#181818;stroke-width:0.5;" x1="46" x2="410" y1="73" y2="73"/><ellipse cx="56" cy="86.7441" fill="none" rx="3" ry="3" style="stroke:#038048;stroke-width:1.0;"/><text fill="#000000" font-family="sans-serif" font-size="14" lengthAdjust="spacing" textLength="113" x="65" y="90.5352">id: ApplicationID</text><ellipse cx="56" cy="103.2324" fill="none" rx="3" ry="3" style="stroke:#038048;stroke-width:1.0;"/><text fill="#000000" font-family="sans-serif" font-size="14" lengthAdjust="spacing" textLength="340" x="65" y="107.0234">RequirementsEvaluation: RequirementsEvaluation</text><ellipse cx="56" cy="119.7207" fill="none" rx="3" ry="3" style="stroke:#038048;stroke-width:1.0;"/><text fill="#000000" font-family="sans-serif" font-size="14" lengthAdjust="spacing" textLength="132" x="65" y="123.5117">Interview: Interview</text><line style="stroke:#181818;stroke-width:0.5;" x1="46" x2="410" y1="130.4648" y2="130.4648"/></g><!--class RequirementsEvaluation--><g id="elem_RequirementsEvaluation"><rect codeLine="70" fill="#F1F1F1" height="97.4648" id="RequirementsEvaluation" rx="2.5" ry="2.5" style="stroke:#181818;stroke-width:0.5;" width="198" x="22" y="228.22"/><ellipse cx="37" cy="244.22" fill="#EB937F" rx="11" ry="11" style="stroke:#181818;stroke-width:1.0;"/><path d="M41.1143,250.22 L33.3945,250.22 L33.3945,237.8269 L41.1143,237.8269 L41.1143,239.9851 L35.8433,239.9851 L35.8433,242.658 L40.6162,242.658 L40.6162,244.8162 L35.8433,244.8162 L35.8433,248.0618 L41.1143,248.0618 Z " fill="#000000"/><text fill="#000000" font-family="sans-serif" font-size="14" lengthAdjust="spacing" textLength="166" x="51" y="249.511">RequirementsEvaluation</text><line style="stroke:#181818;stroke-width:0.5;" x1="23" x2="219" y1="260.22" y2="260.22"/><text fill="#000000" font-family="sans-serif" font-size="14" lengthAdjust="spacing" textLength="56" x="28" y="277.7552">Pending</text><text fill="#000000" font-family="sans-serif" font-size="14" lengthAdjust="spacing" textLength="63" x="28" y="294.2434">Accepted</text><text fill="#000000" font-family="sans-serif" font-size="14" lengthAdjust="spacing" textLength="58" x="28" y="310.7317">Rejected</text><line style="stroke:#181818;stroke-width:0.5;" x1="23" x2="219" y1="317.6848" y2="317.6848"/></g><!--class Interview--><g id="elem_Interview"><rect codeLine="76" fill="#F1F1F1" height="64.4883" id="Interview" rx="2.5" ry="2.5" style="stroke:#181818;stroke-width:0.5;" width="155" x="255.5" y="244.71"/><ellipse cx="297.95" cy="260.71" fill="#ADD1B2" rx="11" ry="11" style="stroke:#181818;stroke-width:1.0;"/><path d="M300.9231,266.3531 Q300.3421,266.6519 299.7029,266.8013 Q299.0638,266.9507 298.3582,266.9507 Q295.8514,266.9507 294.5315,265.2989 Q293.2117,263.647 293.2117,260.5259 Q293.2117,257.3965 294.5315,255.7447 Q295.8514,254.0928 298.3582,254.0928 Q299.0638,254.0928 299.7112,254.2422 Q300.3587,254.3916 300.9231,254.6905 L300.9231,257.4131 Q300.2923,256.8321 299.6988,256.5623 Q299.1053,256.2925 298.4744,256.2925 Q297.1297,256.2925 296.4449,257.3592 Q295.7601,258.4258 295.7601,260.5259 Q295.7601,262.6177 296.4449,263.6844 Q297.1297,264.751 298.4744,264.751 Q299.1053,264.751 299.6988,264.4812 Q300.2923,264.2115 300.9231,263.6304 Z " fill="#000000"/><text fill="#000000" font-family="sans-serif" font-size="14" lengthAdjust="spacing" textLength="62" x="318.05" y="266.001">Interview</text><line style="stroke:#181818;stroke-width:0.5;" x1="256.5" x2="409.5" y1="276.71" y2="276.71"/><ellipse cx="266.5" cy="290.4541" fill="none" rx="3" ry="3" style="stroke:#038048;stroke-width:1.0;"/><text fill="#000000" font-family="sans-serif" font-size="14" lengthAdjust="spacing" textLength="129" x="275.5" y="294.2452">InterviewGrade: int</text><line style="stroke:#181818;stroke-width:0.5;" x1="256.5" x2="409.5" y1="301.1983" y2="301.1983"/></g><!--class InterviewGrade--><g id="elem_InterviewGrade"><rect codeLine="80" fill="#F1F1F1" height="64.4883" id="InterviewGrade" rx="2.5" ry="2.5" style="stroke:#181818;stroke-width:0.5;" width="135" x="265.5" y="431.93"/><ellipse cx="280.5" cy="447.93" fill="#ADD1B2" rx="11" ry="11" style="stroke:#181818;stroke-width:1.0;"/><path d="M283.4731,453.5731 Q282.8921,453.8719 282.2529,454.0213 Q281.6138,454.1707 280.9082,454.1707 Q278.4014,454.1707 277.0815,452.5189 Q275.7617,450.867 275.7617,447.7459 Q275.7617,444.6165 277.0815,442.9647 Q278.4014,441.3128 280.9082,441.3128 Q281.6138,441.3128 282.2612,441.4622 Q282.9087,441.6116 283.4731,441.9105 L283.4731,444.6331 Q282.8423,444.0521 282.2488,443.7823 Q281.6553,443.5125 281.0244,443.5125 Q279.6797,443.5125 278.9949,444.5792 Q278.3101,445.6458 278.3101,447.7459 Q278.3101,449.8377 278.9949,450.9044 Q279.6797,451.971 281.0244,451.971 Q281.6553,451.971 282.2488,451.7012 Q282.8423,451.4315 283.4731,450.8504 Z " fill="#000000"/><text fill="#000000" font-family="sans-serif" font-size="14" lengthAdjust="spacing" textLength="103" x="294.5" y="453.221">InterviewGrade</text><line style="stroke:#181818;stroke-width:0.5;" x1="266.5" x2="399.5" y1="463.93" y2="463.93"/><ellipse cx="276.5" cy="477.6741" fill="none" rx="3" ry="3" style="stroke:#038048;stroke-width:1.0;"/><text fill="#000000" font-family="sans-serif" font-size="14" lengthAdjust="spacing" textLength="66" x="285.5" y="481.4652">grade: int</text><line style="stroke:#181818;stroke-width:0.5;" x1="266.5" x2="399.5" y1="488.4183" y2="488.4183"/></g><!--class Rank--><g id="elem_Rank"><rect codeLine="91" fill="#F1F1F1" height="80.9766" id="Rank" rx="2.5" ry="2.5" style="stroke:#181818;stroke-width:0.5;" width="183" x="1043.5" y="423.68"/><ellipse cx="1113.75" cy="439.68" fill="#ADD1B2" rx="11" ry="11" style="stroke:#181818;stroke-width:1.0;"/><path d="M1116.7231,445.3231 Q1116.1421,445.6219 1115.5029,445.7713 Q1114.8638,445.9207 1114.1582,445.9207 Q1111.6514,445.9207 1110.3315,444.2689 Q1109.0117,442.617 1109.0117,439.4959 Q1109.0117,436.3665 1110.3315,434.7147 Q1111.6514,433.0628 1114.1582,433.0628 Q1114.8638,433.0628 1115.5112,433.2122 Q1116.1587,433.3616 1116.7231,433.6605 L1116.7231,436.3831 Q1116.0923,435.8021 1115.4988,435.5323 Q1114.9053,435.2625 1114.2744,435.2625 Q1112.9297,435.2625 1112.2449,436.3292 Q1111.5601,437.3958 1111.5601,439.4959 Q1111.5601,441.5877 1112.2449,442.6544 Q1112.9297,443.721 1114.2744,443.721 Q1114.9053,443.721 1115.4988,443.4512 Q1116.0923,443.1815 1116.7231,442.6004 Z " fill="#000000"/><text fill="#000000" font-family="sans-serif" font-size="14" lengthAdjust="spacing" textLength="34" x="1134.25" y="444.971">Rank</text><line style="stroke:#181818;stroke-width:0.5;" x1="1044.5" x2="1225.5" y1="455.68" y2="455.68"/><ellipse cx="1054.5" cy="469.4241" fill="none" rx="3" ry="3" style="stroke:#038048;stroke-width:1.0;"/><text fill="#000000" font-family="sans-serif" font-size="14" lengthAdjust="spacing" textLength="55" x="1063.5" y="473.2152">id: Long</text><ellipse cx="1054.5" cy="485.9124" fill="none" rx="3" ry="3" style="stroke:#038048;stroke-width:1.0;"/><text fill="#000000" font-family="sans-serif" font-size="14" lengthAdjust="spacing" textLength="157" x="1063.5" y="489.7034">rankStatus: RankStatus</text><line style="stroke:#181818;stroke-width:0.5;" x1="1044.5" x2="1225.5" y1="496.6566" y2="496.6566"/></g><!--class RankStatus--><g id="elem_RankStatus"><rect codeLine="96" fill="#F1F1F1" height="80.9766" id="RankStatus" rx="2.5" ry="2.5" style="stroke:#181818;stroke-width:0.5;" width="108" x="1081" y="606.39"/><ellipse cx="1096" cy="622.39" fill="#EB937F" rx="11" ry="11" style="stroke:#181818;stroke-width:1.0;"/><path d="M1100.1143,628.39 L1092.3945,628.39 L1092.3945,615.9969 L1100.1143,615.9969 L1100.1143,618.1551 L1094.8433,618.1551 L1094.8433,620.828 L1099.6162,620.828 L1099.6162,622.9862 L1094.8433,622.9862 L1094.8433,626.2318 L1100.1143,626.2318 Z " fill="#000000"/><text fill="#000000" font-family="sans-serif" font-size="14" lengthAdjust="spacing" textLength="76" x="1110" y="627.681">RankStatus</text><line style="stroke:#181818;stroke-width:0.5;" x1="1082" x2="1188" y1="638.39" y2="638.39"/><text fill="#000000" font-family="sans-serif" font-size="14" lengthAdjust="spacing" textLength="49" x="1087" y="655.9252">Started</text><text fill="#000000" font-family="sans-serif" font-size="14" lengthAdjust="spacing" textLength="58" x="1087" y="672.4134">Finished</text><line style="stroke:#181818;stroke-width:0.5;" x1="1082" x2="1188" y1="679.3666" y2="679.3666"/></g><!--link JobOpening to RecruitmentProcess--><g id="link_JobOpening_RecruitmentProcess"><path codeLine="53" d="M737.24,317.69 C754.62,346.17 775.0058,379.5776 793.4558,409.8276 " fill="none" id="JobOpening-to-RecruitmentProcess" style="stroke:#181818;stroke-width:1.0;"/><polygon fill="#181818" points="796.58,414.95,795.3086,405.1836,793.9765,410.6813,788.4787,409.3492,796.58,414.95" style="stroke:#181818;stroke-width:1.0;"/></g><!--link JobOpening to JobReference--><g id="link_JobOpening_JobReference"><path codeLine="54" d="M683.82,317.69 C660.96,348.83 632.8315,387.144 609.9115,418.354 " fill="none" id="JobOpening-to-JobReference" style="stroke:#181818;stroke-width:1.0;"/><polygon fill="#181818" points="606.36,423.19,614.9112,418.3036,609.3196,419.16,608.4632,413.5683,606.36,423.19" style="stroke:#181818;stroke-width:1.0;"/></g><!--link RecruitmentProcess to RecruitmentProcessStatus--><g id="link_RecruitmentProcess_RecruitmentProcessStatus"><path codeLine="55" d="M840.59,513.13 C848.55,539.27 856.6226,565.7901 864.5926,591.9701 " fill="none" id="RecruitmentProcess-to-RecruitmentProcessStatus" style="stroke:#181818;stroke-width:1.0;"/><polygon fill="#181818" points="866.34,597.71,867.5455,587.9352,864.8838,592.9267,859.8923,590.2651,866.34,597.71" style="stroke:#181818;stroke-width:1.0;"/></g><!--link RecruitmentProcess to Phase--><g id="link_RecruitmentProcess_Phase"><path codeLine="56" d="M765.31,513.34 C754.78,522.71 744.25,532.78 735,542.91 C721.99,557.14 712.7563,568.8555 701.7063,584.5355 " fill="none" id="RecruitmentProcess-to-Phase" style="stroke:#181818;stroke-width:1.0;"/><polygon fill="#181818" points="698.25,589.44,706.7041,584.3875,701.1302,585.3529,700.1648,579.7791,698.25,589.44" style="stroke:#181818;stroke-width:1.0;"/><text fill="#000000" font-family="sans-serif" font-size="13" lengthAdjust="spacing" textLength="105" x="736" y="556.4784">Is separated into</text></g><!--link Phase to PhaseName--><g id="link_Phase_PhaseName"><path codeLine="57" d="M618.78,703.91 C604.2,722.82 591.4647,739.3192 576.4147,758.8292 " fill="none" id="Phase-to-PhaseName" style="stroke:#181818;stroke-width:1.0;"/><polygon fill="#181818" points="572.75,763.58,581.4143,758.897,575.8039,759.621,575.0799,754.0107,572.75,763.58" style="stroke:#181818;stroke-width:1.0;"/></g><!--link Phase to StartDate--><g id="link_Phase_StartDate"><path codeLine="58" d="M661.69,703.91 C661.52,734.39 661.3529,764.9701 661.2129,790.5001 " fill="none" id="Phase-to-StartDate" style="stroke:#181818;stroke-width:1.0;"/><polygon fill="#181818" points="661.18,796.5,665.2293,787.5221,661.2074,791.5001,657.2294,787.4782,661.18,796.5" style="stroke:#181818;stroke-width:1.0;"/></g><!--link Phase to EndDate--><g id="link_Phase_EndDate"><path codeLine="59" d="M702.11,703.91 C723.93,734.39 746.617,766.0916 764.897,791.6216 " fill="none" id="Phase-to-EndDate" style="stroke:#181818;stroke-width:1.0;"/><polygon fill="#181818" points="768.39,796.5,766.4027,786.8537,765.4791,792.4347,759.8982,791.5111,768.39,796.5" style="stroke:#181818;stroke-width:1.0;"/></g><!--link Phase to PhaseStatus--><g id="link_Phase_PhaseStatus"><path codeLine="60" d="M741.86,700.9 C747.63,704.5 753.38,708.02 759,711.37 C801.1,736.48 815.69,735.96 856,763.86 C866.63,771.22 872.9071,775.9639 882.8971,784.4939 " fill="none" id="Phase-to-PhaseStatus" style="stroke:#181818;stroke-width:1.0;"/><polygon fill="#181818" points="887.46,788.39,883.213,779.5039,883.6575,785.1433,878.0182,785.5878,887.46,788.39" style="stroke:#181818;stroke-width:1.0;"/></g><!--link JobApplication to RequirementsEvaluation--><g id="link_JobApplication_RequirementsEvaluation"><path codeLine="84" d="M200.17,138.91 C184.31,166.35 167.5215,195.4147 151.6915,222.8147 " fill="none" id="JobApplication-to-RequirementsEvaluation" style="stroke:#181818;stroke-width:1.0;"/><polygon fill="#181818" points="148.69,228.01,156.6558,222.2181,151.1913,223.6806,149.7287,218.2161,148.69,228.01" style="stroke:#181818;stroke-width:1.0;"/></g><!--link JobApplication to Interview--><g id="link_JobApplication_Interview"><path codeLine="85" d="M255.31,138.91 C274.15,172.14 295.7018,210.1499 312.1018,239.0899 " fill="none" id="JobApplication-to-Interview" style="stroke:#181818;stroke-width:1.0;"/><polygon fill="#181818" points="315.06,244.31,314.1028,234.5078,312.5949,239.9599,307.1427,238.452,315.06,244.31" style="stroke:#181818;stroke-width:1.0;"/></g><!--link JobApplication to JobOpening--><g id="link_JobApplication_JobOpening"><path codeLine="86" d="M354.16,138.91 C433.17,169.09 528.1646,205.3699 602.7346,233.8399 " fill="none" id="JobApplication-to-JobOpening" style="stroke:#181818;stroke-width:1.0;"/><polygon fill="#181818" points="608.34,235.98,601.3587,229.033,603.6689,234.1966,598.5052,236.5068,608.34,235.98" style="stroke:#181818;stroke-width:1.0;"/><text fill="#000000" font-family="sans-serif" font-size="13" lengthAdjust="spacing" textLength="56" x="471" y="182.0284">Refers to</text></g><!--link Interview to InterviewGrade--><g id="link_Interview_InterviewGrade"><path codeLine="87" d="M333,309.37 C333,343.43 333,391.48 333,425.6 " fill="none" id="Interview-to-InterviewGrade" style="stroke:#181818;stroke-width:1.0;"/><polygon fill="#181818" points="333,431.6,337,422.6,333,426.6,329,422.6,333,431.6" style="stroke:#181818;stroke-width:1.0;"/></g><!--link Rank to RankStatus--><g id="link_Rank_RankStatus"><path codeLine="101" d="M1135,504.83 C1135,534.86 1135,569.93 1135,600.01 " fill="none" id="Rank-to-RankStatus" style="stroke:#181818;stroke-width:1.0;"/><polygon fill="#181818" points="1135,606.01,1139,597.01,1135,601.01,1131,597.01,1135,606.01" style="stroke:#181818;stroke-width:1.0;"/></g><!--link JobOpening to Rank--><g id="link_JobOpening_Rank"><path codeLine="102" d="M844.66,317.82 C895.18,334.86 952.73,356.43 1003,380.68 C1028.31,392.9 1049.7988,405.5463 1072.3888,420.1263 " fill="none" id="JobOpening-to-Rank" style="stroke:#181818;stroke-width:1.0;"/><polygon fill="#181818" points="1077.43,423.38,1072.0373,415.1387,1073.229,420.6686,1067.6991,421.8603,1077.43,423.38" style="stroke:#181818;stroke-width:1.0;"/><text fill="#000000" font-family="sans-serif" font-size="13" lengthAdjust="spacing" textLength="22" x="981" y="369.2484">has</text></g><!--SRC=[XLNDRfmm4BxlKrXxRVC2g8g4DZIYGWJ1fbMFNfWG9ukXjaaFLT-zjjarO-DLVJBV_8-_6IRQljCUoBVnz3G1PxnF-vxysUs8FksPIeb46YUNyubrYP7Ky082U0khH40hPgO6uAeIOmjI9gJUO5R_Rn37USEHI3jBDGuW3cC72McKqAaWyTjuAkVX128XZAkjtstii8whcGMaecgEfjnOoQevlL89MhDWKdsfpCVzDhh5mu0MBEa0NbYX7gYo5LwkgnHujyYovR9Drxf46LwI03uFQpYKXpbfLHNv8JtcJ-LdJz0SwYmhy_BHX_FocDNVy-n7u-DfcHO_cpn0wwnvBexRZhZoS5SwMvqhpJEurFn_zRNOfH78mZ3OVHpEeuHkOtdhnP6RPpq6J34TjtDOpWdcj3bVjPPyzKEWCRgxkxyr4O7MPi8YP8vxGrIuORCmCo7xN1894nMcAZCBuzwQBNAdwUYwuZvHLnoJDF1oIKltP5etJpfDPzPInKQ-R1zlAI1fE4T8b3-ieXf-pKo0ALXc7_GyMmqpqZ5yjSkv0l71u7T2t3N2afWJb5cbXnLlgBHjOSA4gU4DMkMpOwdMHSM5El1HKBC0eqlELyBcVTGgwEl2ePlTYMZx3Oee82QRpciIIwB6tJ8nrp8zJpPrJ8sQylUG40OBQL2C-8SWj4PpNUBkldr79qBkBAFHKyK6sMPW6-Ox3mVSgEdfqgpVwwB-0G00]--></g></svg>