<?xml version="1.0" encoding="us-ascii" standalone="no"?><svg xmlns="http://www.w3.org/2000/svg" xmlns:xlink="http://www.w3.org/1999/xlink" contentStyleType="text/css" height="385px" preserveAspectRatio="none" style="width:564px;height:385px;background:#FFFFFF;" version="1.1" viewBox="0 0 564 385" width="564px" zoomAndPan="magnify"><defs/><g><!--cluster JobOpeningAgg--><g id="cluster_JobOpeningAgg"><path d="M8.5,6 L122.5,6 A3.75,3.75 0 0 1 125,8.5 L132,28.4883 L554.5,28.4883 A2.5,2.5 0 0 1 557,30.9883 L557,375.5 A2.5,2.5 0 0 1 554.5,378 L8.5,378 A2.5,2.5 0 0 1 6,375.5 L6,8.5 A2.5,2.5 0 0 1 8.5,6 " fill="#BBAABB" style="stroke:#000000;stroke-width:1.5;"/><line style="stroke:#000000;stroke-width:1.5;" x1="6" x2="132" y1="28.4883" y2="28.4883"/><text fill="#000000" font-family="sans-serif" font-size="14" font-weight="bold" lengthAdjust="spacing" textLength="113" x="10" y="21.5352">JobOpeningAgg</text></g><!--class RecruitmentProcess--><g id="elem_RecruitmentProcess"><rect codeLine="2" fill="#F1F1F1" height="56.6211" id="RecruitmentProcess" rx="2.5" ry="2.5" style="stroke:#181818;stroke-width:0.5;" width="167" x="216.5" y="41"/><ellipse cx="231.5" cy="61.3105" fill="#ADD1B2" rx="11" ry="11" style="stroke:#181818;stroke-width:1.0;"/><path d="M234.4731,66.9536 Q233.8921,67.2524 233.2529,67.4019 Q232.6138,67.5513 231.9082,67.5513 Q229.4014,67.5513 228.0815,65.8994 Q226.7617,64.2476 226.7617,61.1265 Q226.7617,57.9971 228.0815,56.3452 Q229.4014,54.6934 231.9082,54.6934 Q232.6138,54.6934 233.2612,54.8428 Q233.9087,54.9922 234.4731,55.291 L234.4731,58.0137 Q233.8423,57.4326 233.2488,57.1628 Q232.6553,56.8931 232.0244,56.8931 Q230.6797,56.8931 229.9949,57.9597 Q229.3101,59.0264 229.3101,61.1265 Q229.3101,63.2183 229.9949,64.2849 Q230.6797,65.3516 232.0244,65.3516 Q232.6553,65.3516 233.2488,65.0818 Q233.8423,64.812 234.4731,64.231 Z " fill="#000000"/><text fill="#000000" font-family="sans-serif" font-size="12" font-style="italic" lengthAdjust="spacing" textLength="43" x="291.5" y="57.6016">&#171;Entity&#187;</text><text fill="#000000" font-family="sans-serif" font-size="14" lengthAdjust="spacing" textLength="135" x="245.5" y="73.668">RecruitmentProcess</text><line style="stroke:#181818;stroke-width:0.5;" x1="217.5" x2="382.5" y1="81.6211" y2="81.6211"/><line style="stroke:#181818;stroke-width:0.5;" x1="217.5" x2="382.5" y1="89.6211" y2="89.6211"/></g><!--class Phase--><g id="elem_Phase"><rect codeLine="3" fill="#F1F1F1" height="56.6211" id="Phase" rx="2.5" ry="2.5" style="stroke:#181818;stroke-width:0.5;" width="72" x="264" y="174.63"/><ellipse cx="279" cy="194.9405" fill="#ADD1B2" rx="11" ry="11" style="stroke:#181818;stroke-width:1.0;"/><path d="M281.9731,200.5836 Q281.3921,200.8824 280.7529,201.0319 Q280.1138,201.1813 279.4082,201.1813 Q276.9014,201.1813 275.5815,199.5294 Q274.2617,197.8776 274.2617,194.7565 Q274.2617,191.6271 275.5815,189.9752 Q276.9014,188.3234 279.4082,188.3234 Q280.1138,188.3234 280.7612,188.4728 Q281.4087,188.6222 281.9731,188.921 L281.9731,191.6437 Q281.3423,191.0626 280.7488,190.7928 Q280.1553,190.5231 279.5244,190.5231 Q278.1797,190.5231 277.4949,191.5897 Q276.8101,192.6564 276.8101,194.7565 Q276.8101,196.8483 277.4949,197.9149 Q278.1797,198.9816 279.5244,198.9816 Q280.1553,198.9816 280.7488,198.7118 Q281.3423,198.442 281.9731,197.861 Z " fill="#000000"/><text fill="#000000" font-family="sans-serif" font-size="12" font-style="italic" lengthAdjust="spacing" textLength="43" x="291.5" y="191.2316">&#171;Entity&#187;</text><text fill="#000000" font-family="sans-serif" font-size="14" lengthAdjust="spacing" textLength="40" x="293" y="207.298">Phase</text><line style="stroke:#181818;stroke-width:0.5;" x1="265" x2="335" y1="215.2511" y2="215.2511"/><line style="stroke:#181818;stroke-width:0.5;" x1="265" x2="335" y1="223.2511" y2="223.2511"/></g><!--class PhaseName--><g id="elem_PhaseName"><rect codeLine="4" fill="#F1F1F1" height="70.7539" id="PhaseName" rx="2.5" ry="2.5" style="stroke:#181818;stroke-width:0.5;" width="111" x="22.5" y="291.25"/><ellipse cx="37.5" cy="318.627" fill="#ADD1B2" rx="11" ry="11" style="stroke:#181818;stroke-width:1.0;"/><path d="M40.4731,324.27 Q39.8921,324.5688 39.2529,324.7183 Q38.6138,324.8677 37.9082,324.8677 Q35.4014,324.8677 34.0815,323.2158 Q32.7617,321.564 32.7617,318.4429 Q32.7617,315.3135 34.0815,313.6616 Q35.4014,312.0098 37.9082,312.0098 Q38.6138,312.0098 39.2612,312.1592 Q39.9087,312.3086 40.4731,312.6074 L40.4731,315.3301 Q39.8423,314.749 39.2488,314.4792 Q38.6553,314.2095 38.0244,314.2095 Q36.6797,314.2095 35.9949,315.2761 Q35.3101,316.3428 35.3101,318.4429 Q35.3101,320.5347 35.9949,321.6013 Q36.6797,322.668 38.0244,322.668 Q38.6553,322.668 39.2488,322.3982 Q39.8423,322.1284 40.4731,321.5474 Z " fill="#000000"/><text fill="#000000" font-family="sans-serif" font-size="12" font-style="italic" lengthAdjust="spacing" textLength="44" x="69" y="307.8516">&#171;Enum&#187;</text><text fill="#000000" font-family="sans-serif" font-size="12" font-style="italic" lengthAdjust="spacing" textLength="23" x="79.5" y="321.9844">&#171;Id&#187;</text><text fill="#000000" font-family="sans-serif" font-size="14" lengthAdjust="spacing" textLength="79" x="51.5" y="338.0508">PhaseName</text><line style="stroke:#181818;stroke-width:0.5;" x1="23.5" x2="132.5" y1="346.0039" y2="346.0039"/><line style="stroke:#181818;stroke-width:0.5;" x1="23.5" x2="132.5" y1="354.0039" y2="354.0039"/></g><!--class StartDate--><g id="elem_StartDate"><rect codeLine="5" fill="#F1F1F1" height="56.6211" id="StartDate" rx="2.5" ry="2.5" style="stroke:#181818;stroke-width:0.5;" width="114" x="169" y="298.31"/><ellipse cx="184" cy="318.6205" fill="#ADD1B2" rx="11" ry="11" style="stroke:#181818;stroke-width:1.0;"/><path d="M186.9731,324.2636 Q186.3921,324.5624 185.7529,324.7119 Q185.1138,324.8613 184.4082,324.8613 Q181.9014,324.8613 180.5815,323.2094 Q179.2617,321.5576 179.2617,318.4365 Q179.2617,315.3071 180.5815,313.6552 Q181.9014,312.0034 184.4082,312.0034 Q185.1138,312.0034 185.7612,312.1528 Q186.4087,312.3022 186.9731,312.601 L186.9731,315.3237 Q186.3423,314.7426 185.7488,314.4728 Q185.1553,314.2031 184.5244,314.2031 Q183.1797,314.2031 182.4949,315.2697 Q181.8101,316.3364 181.8101,318.4365 Q181.8101,320.5283 182.4949,321.5949 Q183.1797,322.6616 184.5244,322.6616 Q185.1553,322.6616 185.7488,322.3918 Q186.3423,322.122 186.9731,321.541 Z " fill="#000000"/><text fill="#000000" font-family="sans-serif" font-size="12" font-style="italic" lengthAdjust="spacing" textLength="86" x="196" y="314.9116">&#171;Value Object&#187;</text><text fill="#000000" font-family="sans-serif" font-size="14" lengthAdjust="spacing" textLength="63" x="207.5" y="330.978">StartDate</text><line style="stroke:#181818;stroke-width:0.5;" x1="170" x2="282" y1="338.9311" y2="338.9311"/><line style="stroke:#181818;stroke-width:0.5;" x1="170" x2="282" y1="346.9311" y2="346.9311"/></g><!--class EndDate--><g id="elem_EndDate"><rect codeLine="6" fill="#F1F1F1" height="56.6211" id="EndDate" rx="2.5" ry="2.5" style="stroke:#181818;stroke-width:0.5;" width="114" x="318" y="298.31"/><ellipse cx="333" cy="318.6205" fill="#ADD1B2" rx="11" ry="11" style="stroke:#181818;stroke-width:1.0;"/><path d="M335.9731,324.2636 Q335.3921,324.5624 334.7529,324.7119 Q334.1138,324.8613 333.4082,324.8613 Q330.9014,324.8613 329.5815,323.2094 Q328.2617,321.5576 328.2617,318.4365 Q328.2617,315.3071 329.5815,313.6552 Q330.9014,312.0034 333.4082,312.0034 Q334.1138,312.0034 334.7612,312.1528 Q335.4087,312.3022 335.9731,312.601 L335.9731,315.3237 Q335.3423,314.7426 334.7488,314.4728 Q334.1553,314.2031 333.5244,314.2031 Q332.1797,314.2031 331.4949,315.2697 Q330.8101,316.3364 330.8101,318.4365 Q330.8101,320.5283 331.4949,321.5949 Q332.1797,322.6616 333.5244,322.6616 Q334.1553,322.6616 334.7488,322.3918 Q335.3423,322.122 335.9731,321.541 Z " fill="#000000"/><text fill="#000000" font-family="sans-serif" font-size="12" font-style="italic" lengthAdjust="spacing" textLength="86" x="345" y="314.9116">&#171;Value Object&#187;</text><text fill="#000000" font-family="sans-serif" font-size="14" lengthAdjust="spacing" textLength="57" x="359.5" y="330.978">EndDate</text><line style="stroke:#181818;stroke-width:0.5;" x1="319" x2="431" y1="338.9311" y2="338.9311"/><line style="stroke:#181818;stroke-width:0.5;" x1="319" x2="431" y1="346.9311" y2="346.9311"/></g><!--class Status--><g id="elem_Status"><rect codeLine="7" fill="#F1F1F1" height="56.6211" id="Status" rx="2.5" ry="2.5" style="stroke:#181818;stroke-width:0.5;" width="74" x="467" y="298.31"/><ellipse cx="482" cy="318.6205" fill="#ADD1B2" rx="11" ry="11" style="stroke:#181818;stroke-width:1.0;"/><path d="M484.9731,324.2636 Q484.3921,324.5624 483.7529,324.7119 Q483.1138,324.8613 482.4082,324.8613 Q479.9014,324.8613 478.5815,323.2094 Q477.2617,321.5576 477.2617,318.4365 Q477.2617,315.3071 478.5815,313.6552 Q479.9014,312.0034 482.4082,312.0034 Q483.1138,312.0034 483.7612,312.1528 Q484.4087,312.3022 484.9731,312.601 L484.9731,315.3237 Q484.3423,314.7426 483.7488,314.4728 Q483.1553,314.2031 482.5244,314.2031 Q481.1797,314.2031 480.4949,315.2697 Q479.8101,316.3364 479.8101,318.4365 Q479.8101,320.5283 480.4949,321.5949 Q481.1797,322.6616 482.5244,322.6616 Q483.1553,322.6616 483.7488,322.3918 Q484.3423,322.122 484.9731,321.541 Z " fill="#000000"/><text fill="#000000" font-family="sans-serif" font-size="12" font-style="italic" lengthAdjust="spacing" textLength="44" x="495" y="314.9116">&#171;Enum&#187;</text><text fill="#000000" font-family="sans-serif" font-size="14" lengthAdjust="spacing" textLength="42" x="496" y="330.978">Status</text><line style="stroke:#181818;stroke-width:0.5;" x1="468" x2="540" y1="338.9311" y2="338.9311"/><line style="stroke:#181818;stroke-width:0.5;" x1="468" x2="540" y1="346.9311" y2="346.9311"/></g><!--link RecruitmentProcess to Phase--><g id="link_RecruitmentProcess_Phase"><path codeLine="9" d="M300,97.91 C300,120.37 300,145.93 300,168.38 " fill="none" id="RecruitmentProcess-to-Phase" style="stroke:#181818;stroke-width:1.0;"/><polygon fill="#181818" points="300,174.38,304,165.38,300,169.38,296,165.38,300,174.38" style="stroke:#181818;stroke-width:1.0;"/><text fill="#000000" font-family="sans-serif" font-size="13" lengthAdjust="spacing" textLength="105" x="301" y="141.1984">Is separated into</text><text fill="#000000" font-family="sans-serif" font-size="13" lengthAdjust="spacing" textLength="8" x="291.125" y="118.4091">1</text><text fill="#000000" font-family="sans-serif" font-size="13" lengthAdjust="spacing" textLength="24" x="273.375" y="164.0941">4..5</text></g><!--link Phase to PhaseName--><g id="link_Phase_PhaseName"><path codeLine="10" d="M263.84,223.76 C228.58,243.09 179.7115,269.8662 138.9515,292.2062 " fill="none" id="Phase-to-PhaseName" style="stroke:#181818;stroke-width:1.0;"/><polygon fill="#181818" points="133.69,295.09,143.5048,294.272,138.0746,292.6869,139.6598,287.2566,133.69,295.09" style="stroke:#181818;stroke-width:1.0;"/><text fill="#000000" font-family="sans-serif" font-size="13" lengthAdjust="spacing" textLength="8" x="247.9335" y="223.9812">1</text><text fill="#000000" font-family="sans-serif" font-size="13" lengthAdjust="spacing" textLength="8" x="141.3378" y="287.6766">1</text></g><!--link Phase to StartDate--><g id="link_Phase_StartDate"><path codeLine="11" d="M283.21,231.55 C271.1,251.46 257.9365,273.1029 245.8465,292.9929 " fill="none" id="Phase-to-StartDate" style="stroke:#181818;stroke-width:1.0;"/><polygon fill="#181818" points="242.73,298.12,250.8228,292.507,245.3271,293.8474,243.9866,288.3516,242.73,298.12" style="stroke:#181818;stroke-width:1.0;"/><text fill="#000000" font-family="sans-serif" font-size="13" lengthAdjust="spacing" textLength="8" x="270.9221" y="251.598">1</text><text fill="#000000" font-family="sans-serif" font-size="13" lengthAdjust="spacing" textLength="8" x="237.6738" y="287.3991">1</text></g><!--link Phase to EndDate--><g id="link_Phase_EndDate"><path codeLine="12" d="M317.02,231.55 C329.29,251.46 342.6417,273.1223 354.9017,293.0123 " fill="none" id="Phase-to-EndDate" style="stroke:#181818;stroke-width:1.0;"/><polygon fill="#181818" points="358.05,298.12,356.7326,288.3596,355.4264,293.8636,349.9224,292.5574,358.05,298.12" style="stroke:#181818;stroke-width:1.0;"/><text fill="#000000" font-family="sans-serif" font-size="13" lengthAdjust="spacing" textLength="8" x="311.7054" y="251.598">1</text><text fill="#000000" font-family="sans-serif" font-size="13" lengthAdjust="spacing" textLength="8" x="345.2053" y="287.3991">1</text></g><!--link Phase to Status--><g id="link_Phase_Status"><path codeLine="13" d="M336.3,224.82 C366.58,242.33 410.78,268.11 449,291.25 C454.68,294.69 455.5703,295.2089 461.4103,298.8289 " fill="none" id="Phase-to-Status" style="stroke:#181818;stroke-width:1.0;"/><polygon fill="#181818" points="466.51,301.99,460.9678,293.8485,462.2602,299.3557,456.753,300.6481,466.51,301.99" style="stroke:#181818;stroke-width:1.0;"/><text fill="#000000" font-family="sans-serif" font-size="13" lengthAdjust="spacing" textLength="8" x="343.9822" y="225.159">1</text><text fill="#000000" font-family="sans-serif" font-size="13" lengthAdjust="spacing" textLength="8" x="451.1196" y="293.8628">1</text></g><!--SRC=[XOzD2u9048Rl_efXEoi8TGbP2F9WXvA2xhFhO5QkuiuU8lhlBVOf8StrUTwPULlK9om9LetQj6GgKoxA4YPA8Ie5rm3yw3DQ2rlIdQku9iDvrsYoDabImnLVfFpIyWDQ6YThh7lgQYcJ92i6newnuoMoD_PuTWGRTIJD0oSrnH_3Rs5duNKbwD7lzo1Y0M4eGKoZQ2OUxy4SCWkMMkpyaG8gmqsVVz1t91QVEYFyNMQ4FukCfts9u7O7]--></g></svg>