<?xml version="1.0" encoding="us-ascii" standalone="no"?><svg xmlns="http://www.w3.org/2000/svg" xmlns:xlink="http://www.w3.org/1999/xlink" contentStyleType="text/css" height="887px" preserveAspectRatio="none" style="width:1531px;height:887px;background:#FFFFFF;" version="1.1" viewBox="0 0 1531 887" width="1531px" zoomAndPan="magnify"><defs/><g><!--cluster JobOpeningAgg--><g id="cluster_JobOpeningAgg"><path d="M489.5,201.46 L603.5,201.46 A3.75,3.75 0 0 1 606,203.96 L613,223.9483 L1036.5,223.9483 A2.5,2.5 0 0 1 1039,226.4483 L1039,878.04 A2.5,2.5 0 0 1 1036.5,880.54 L489.5,880.54 A2.5,2.5 0 0 1 487,878.04 L487,203.96 A2.5,2.5 0 0 1 489.5,201.46 " fill="none" style="stroke:#000000;stroke-width:1.5;"/><line style="stroke:#000000;stroke-width:1.5;" x1="487" x2="613" y1="223.9483" y2="223.9483"/><text fill="#000000" font-family="sans-serif" font-size="14" font-weight="bold" lengthAdjust="spacing" textLength="113" x="491" y="216.9952">JobOpeningAgg</text></g><!--cluster JobApplicationAgg--><g id="cluster_JobApplicationAgg"><path d="M8.5,6 L143.5,6 A3.75,3.75 0 0 1 146,8.5 L153,28.4883 L460.5,28.4883 A2.5,2.5 0 0 1 463,30.9883 L463,480.16 A2.5,2.5 0 0 1 460.5,482.66 L8.5,482.66 A2.5,2.5 0 0 1 6,480.16 L6,8.5 A2.5,2.5 0 0 1 8.5,6 " fill="none" style="stroke:#000000;stroke-width:1.5;"/><line style="stroke:#000000;stroke-width:1.5;" x1="6" x2="153" y1="28.4883" y2="28.4883"/><text fill="#000000" font-family="sans-serif" font-size="14" font-weight="bold" lengthAdjust="spacing" textLength="134" x="10" y="21.5352">JobApplicationAgg</text></g><!--cluster RankAgg--><g id="cluster_RankAgg"><path d="M1065.5,14.24 L1130.5,14.24 A3.75,3.75 0 0 1 1133,16.74 L1140,36.7283 L1311.5,36.7283 A2.5,2.5 0 0 1 1314,39.2283 L1314,322.69 A2.5,2.5 0 0 1 1311.5,325.19 L1065.5,325.19 A2.5,2.5 0 0 1 1063,322.69 L1063,16.74 A2.5,2.5 0 0 1 1065.5,14.24 " fill="none" style="stroke:#000000;stroke-width:1.5;"/><line style="stroke:#000000;stroke-width:1.5;" x1="1063" x2="1140" y1="36.7283" y2="36.7283"/><text fill="#000000" font-family="sans-serif" font-size="14" font-weight="bold" lengthAdjust="spacing" textLength="64" x="1067" y="29.7752">RankAgg</text></g><!--cluster CandidateAgg--><g id="cluster_CandidateAgg"><path d="M1340.5,209.7 L1441.5,209.7 A3.75,3.75 0 0 1 1444,212.2 L1451,232.1883 L1521.5,232.1883 A2.5,2.5 0 0 1 1524,234.6883 L1524,322.69 A2.5,2.5 0 0 1 1521.5,325.19 L1340.5,325.19 A2.5,2.5 0 0 1 1338,322.69 L1338,212.2 A2.5,2.5 0 0 1 1340.5,209.7 " fill="none" style="stroke:#000000;stroke-width:1.5;"/><line style="stroke:#000000;stroke-width:1.5;" x1="1338" x2="1451" y1="232.1883" y2="232.1883"/><text fill="#000000" font-family="sans-serif" font-size="14" font-weight="bold" lengthAdjust="spacing" textLength="100" x="1342" y="225.2352">CandidateAgg</text></g><!--class JobOpening--><g id="elem_JobOpening"><rect codeLine="3" fill="#F1F1F1" height="80.9766" id="JobOpening" rx="2.5" ry="2.5" style="stroke:#181818;stroke-width:0.5;" width="301" x="652.5" y="236.46"/><ellipse cx="758.25" cy="252.46" fill="#ADD1B2" rx="11" ry="11" style="stroke:#181818;stroke-width:1.0;"/><path d="M761.2231,258.1031 Q760.6421,258.4019 760.0029,258.5513 Q759.3638,258.7007 758.6582,258.7007 Q756.1514,258.7007 754.8315,257.0489 Q753.5117,255.397 753.5117,252.2759 Q753.5117,249.1465 754.8315,247.4947 Q756.1514,245.8428 758.6582,245.8428 Q759.3638,245.8428 760.0112,245.9922 Q760.6587,246.1416 761.2231,246.4405 L761.2231,249.1631 Q760.5923,248.5821 759.9988,248.3123 Q759.4053,248.0425 758.7744,248.0425 Q757.4297,248.0425 756.7449,249.1092 Q756.0601,250.1758 756.0601,252.2759 Q756.0601,254.3677 756.7449,255.4344 Q757.4297,256.501 758.7744,256.501 Q759.4053,256.501 759.9988,256.2312 Q760.5923,255.9615 761.2231,255.3804 Z " fill="#000000"/><text fill="#000000" font-family="sans-serif" font-size="14" lengthAdjust="spacing" textLength="81" x="778.75" y="257.751">JobOpening</text><line style="stroke:#181818;stroke-width:0.5;" x1="653.5" x2="952.5" y1="268.46" y2="268.46"/><ellipse cx="663.5" cy="282.2041" fill="none" rx="3" ry="3" style="stroke:#038048;stroke-width:1.0;"/><text fill="#000000" font-family="sans-serif" font-size="14" lengthAdjust="spacing" textLength="111" x="672.5" y="285.9952">id: JobReference</text><ellipse cx="663.5" cy="298.6924" fill="none" rx="3" ry="3" style="stroke:#038048;stroke-width:1.0;"/><text fill="#000000" font-family="sans-serif" font-size="14" lengthAdjust="spacing" textLength="275" x="672.5" y="302.4834">recruitmentProcess: RecruitmentProcess</text><line style="stroke:#181818;stroke-width:0.5;" x1="653.5" x2="952.5" y1="309.4366" y2="309.4366"/></g><!--class RecruitmentProcess--><g id="elem_RecruitmentProcess"><rect codeLine="7" fill="#F1F1F1" height="97.4648" id="RecruitmentProcess" rx="2.5" ry="2.5" style="stroke:#181818;stroke-width:0.5;" width="252" x="677" y="385.68"/><ellipse cx="731.25" cy="401.68" fill="#ADD1B2" rx="11" ry="11" style="stroke:#181818;stroke-width:1.0;"/><path d="M734.2231,407.3231 Q733.6421,407.6219 733.0029,407.7713 Q732.3638,407.9207 731.6582,407.9207 Q729.1514,407.9207 727.8315,406.2689 Q726.5117,404.617 726.5117,401.4959 Q726.5117,398.3665 727.8315,396.7147 Q729.1514,395.0628 731.6582,395.0628 Q732.3638,395.0628 733.0112,395.2122 Q733.6587,395.3616 734.2231,395.6605 L734.2231,398.3831 Q733.5923,397.8021 732.9988,397.5323 Q732.4053,397.2625 731.7744,397.2625 Q730.4297,397.2625 729.7449,398.3292 Q729.0601,399.3958 729.0601,401.4959 Q729.0601,403.5877 729.7449,404.6544 Q730.4297,405.721 731.7744,405.721 Q732.4053,405.721 732.9988,405.4512 Q733.5923,405.1815 734.2231,404.6004 Z " fill="#000000"/><text fill="#000000" font-family="sans-serif" font-size="14" lengthAdjust="spacing" textLength="135" x="751.75" y="406.971">RecruitmentProcess</text><line style="stroke:#181818;stroke-width:0.5;" x1="678" x2="928" y1="417.68" y2="417.68"/><ellipse cx="688" cy="431.4241" fill="none" rx="3" ry="3" style="stroke:#038048;stroke-width:1.0;"/><text fill="#000000" font-family="sans-serif" font-size="14" lengthAdjust="spacing" textLength="39" x="697" y="435.2152">id: int</text><ellipse cx="688" cy="447.9124" fill="none" rx="3" ry="3" style="stroke:#038048;stroke-width:1.0;"/><text fill="#000000" font-family="sans-serif" font-size="14" lengthAdjust="spacing" textLength="226" x="697" y="451.7034">status: RecruitmentProcessStatus</text><ellipse cx="688" cy="464.4007" fill="none" rx="3" ry="3" style="stroke:#038048;stroke-width:1.0;"/><text fill="#000000" font-family="sans-serif" font-size="14" lengthAdjust="spacing" textLength="141" x="697" y="468.1917">phases: List&lt;Phase&gt;</text><line style="stroke:#181818;stroke-width:0.5;" x1="678" x2="928" y1="475.1448" y2="475.1448"/></g><!--class Phase--><g id="elem_Phase"><rect codeLine="13" fill="#F1F1F1" height="113.9531" id="Phase" rx="2.5" ry="2.5" style="stroke:#181818;stroke-width:0.5;" width="159" x="618.5" y="560.15"/><ellipse cx="673.75" cy="576.15" fill="#ADD1B2" rx="11" ry="11" style="stroke:#181818;stroke-width:1.0;"/><path d="M676.7231,581.7931 Q676.1421,582.0919 675.5029,582.2413 Q674.8638,582.3907 674.1582,582.3907 Q671.6514,582.3907 670.3315,580.7389 Q669.0117,579.087 669.0117,575.9659 Q669.0117,572.8365 670.3315,571.1847 Q671.6514,569.5328 674.1582,569.5328 Q674.8638,569.5328 675.5112,569.6822 Q676.1587,569.8316 676.7231,570.1305 L676.7231,572.8531 Q676.0923,572.2721 675.4988,572.0023 Q674.9053,571.7325 674.2744,571.7325 Q672.9297,571.7325 672.2449,572.7992 Q671.5601,573.8658 671.5601,575.9659 Q671.5601,578.0577 672.2449,579.1244 Q672.9297,580.191 674.2744,580.191 Q674.9053,580.191 675.4988,579.9212 Q676.0923,579.6515 676.7231,579.0704 Z " fill="#000000"/><text fill="#000000" font-family="sans-serif" font-size="14" lengthAdjust="spacing" textLength="40" x="694.25" y="581.441">Phase</text><line style="stroke:#181818;stroke-width:0.5;" x1="619.5" x2="776.5" y1="592.15" y2="592.15"/><ellipse cx="629.5" cy="605.8941" fill="none" rx="3" ry="3" style="stroke:#038048;stroke-width:1.0;"/><text fill="#000000" font-family="sans-serif" font-size="14" lengthAdjust="spacing" textLength="100" x="638.5" y="609.6852">id: PhaseName</text><ellipse cx="629.5" cy="622.3824" fill="none" rx="3" ry="3" style="stroke:#038048;stroke-width:1.0;"/><text fill="#000000" font-family="sans-serif" font-size="14" lengthAdjust="spacing" textLength="133" x="638.5" y="626.1734">startDate: StartDate</text><ellipse cx="629.5" cy="638.8707" fill="none" rx="3" ry="3" style="stroke:#038048;stroke-width:1.0;"/><text fill="#000000" font-family="sans-serif" font-size="14" lengthAdjust="spacing" textLength="122" x="638.5" y="642.6617">endDate: EndDate</text><ellipse cx="629.5" cy="655.359" fill="none" rx="3" ry="3" style="stroke:#038048;stroke-width:1.0;"/><text fill="#000000" font-family="sans-serif" font-size="14" lengthAdjust="spacing" textLength="131" x="638.5" y="659.15">status: PhaseStatus</text><line style="stroke:#181818;stroke-width:0.5;" x1="619.5" x2="776.5" y1="666.1031" y2="666.1031"/></g><!--class PhaseName--><g id="elem_PhaseName"><rect codeLine="20" fill="#F1F1F1" height="130.4414" id="PhaseName" rx="2.5" ry="2.5" style="stroke:#181818;stroke-width:0.5;" width="111" x="503.5" y="734.1"/><ellipse cx="518.5" cy="750.1" fill="#EB937F" rx="11" ry="11" style="stroke:#181818;stroke-width:1.0;"/><path d="M522.6143,756.1 L514.8945,756.1 L514.8945,743.7069 L522.6143,743.7069 L522.6143,745.8651 L517.3433,745.8651 L517.3433,748.538 L522.1162,748.538 L522.1162,750.6962 L517.3433,750.6962 L517.3433,753.9418 L522.6143,753.9418 Z " fill="#000000"/><text fill="#000000" font-family="sans-serif" font-size="14" lengthAdjust="spacing" textLength="79" x="532.5" y="755.391">PhaseName</text><line style="stroke:#181818;stroke-width:0.5;" x1="504.5" x2="613.5" y1="766.1" y2="766.1"/><text fill="#000000" font-family="sans-serif" font-size="14" lengthAdjust="spacing" textLength="95" x="509.5" y="783.6352">APPLICATION,</text><text fill="#000000" font-family="sans-serif" font-size="14" lengthAdjust="spacing" textLength="81" x="509.5" y="800.1234">SCREENING,</text><text fill="#000000" font-family="sans-serif" font-size="14" lengthAdjust="spacing" textLength="85" x="509.5" y="816.6117">INTERVIEWS,</text><text fill="#000000" font-family="sans-serif" font-size="14" lengthAdjust="spacing" textLength="70" x="509.5" y="833.1">ANALYSIS,</text><text fill="#000000" font-family="sans-serif" font-size="14" lengthAdjust="spacing" textLength="51" x="509.5" y="849.5883">RESULT</text><line style="stroke:#181818;stroke-width:0.5;" x1="504.5" x2="613.5" y1="856.5414" y2="856.5414"/></g><!--class StartDate--><g id="elem_StartDate"><rect codeLine="28" fill="#F1F1F1" height="64.4883" id="StartDate" rx="2.5" ry="2.5" style="stroke:#181818;stroke-width:0.5;" width="95" x="649.5" y="767.08"/><ellipse cx="664.5" cy="783.08" fill="#ADD1B2" rx="11" ry="11" style="stroke:#181818;stroke-width:1.0;"/><path d="M667.4731,788.7231 Q666.8921,789.0219 666.2529,789.1713 Q665.6138,789.3207 664.9082,789.3207 Q662.4014,789.3207 661.0815,787.6689 Q659.7617,786.017 659.7617,782.8959 Q659.7617,779.7665 661.0815,778.1147 Q662.4014,776.4628 664.9082,776.4628 Q665.6138,776.4628 666.2612,776.6122 Q666.9087,776.7616 667.4731,777.0605 L667.4731,779.7831 Q666.8423,779.2021 666.2488,778.9323 Q665.6553,778.6625 665.0244,778.6625 Q663.6797,778.6625 662.9949,779.7292 Q662.3101,780.7958 662.3101,782.8959 Q662.3101,784.9877 662.9949,786.0544 Q663.6797,787.121 665.0244,787.121 Q665.6553,787.121 666.2488,786.8512 Q666.8423,786.5815 667.4731,786.0004 Z " fill="#000000"/><text fill="#000000" font-family="sans-serif" font-size="14" lengthAdjust="spacing" textLength="63" x="678.5" y="788.371">StartDate</text><line style="stroke:#181818;stroke-width:0.5;" x1="650.5" x2="743.5" y1="799.08" y2="799.08"/><ellipse cx="660.5" cy="812.8241" fill="none" rx="3" ry="3" style="stroke:#038048;stroke-width:1.0;"/><text fill="#000000" font-family="sans-serif" font-size="14" lengthAdjust="spacing" textLength="69" x="669.5" y="816.6152">date: Date</text><line style="stroke:#181818;stroke-width:0.5;" x1="650.5" x2="743.5" y1="823.5683" y2="823.5683"/></g><!--class EndDate--><g id="elem_EndDate"><rect codeLine="32" fill="#F1F1F1" height="64.4883" id="EndDate" rx="2.5" ry="2.5" style="stroke:#181818;stroke-width:0.5;" width="95" x="779.5" y="767.08"/><ellipse cx="797.2" cy="783.08" fill="#ADD1B2" rx="11" ry="11" style="stroke:#181818;stroke-width:1.0;"/><path d="M800.1731,788.7231 Q799.5921,789.0219 798.9529,789.1713 Q798.3138,789.3207 797.6082,789.3207 Q795.1014,789.3207 793.7815,787.6689 Q792.4617,786.017 792.4617,782.8959 Q792.4617,779.7665 793.7815,778.1147 Q795.1014,776.4628 797.6082,776.4628 Q798.3138,776.4628 798.9612,776.6122 Q799.6087,776.7616 800.1731,777.0605 L800.1731,779.7831 Q799.5423,779.2021 798.9488,778.9323 Q798.3553,778.6625 797.7244,778.6625 Q796.3797,778.6625 795.6949,779.7292 Q795.0101,780.7958 795.0101,782.8959 Q795.0101,784.9877 795.6949,786.0544 Q796.3797,787.121 797.7244,787.121 Q798.3553,787.121 798.9488,786.8512 Q799.5423,786.5815 800.1731,786.0004 Z " fill="#000000"/><text fill="#000000" font-family="sans-serif" font-size="14" lengthAdjust="spacing" textLength="57" x="811.8" y="788.371">EndDate</text><line style="stroke:#181818;stroke-width:0.5;" x1="780.5" x2="873.5" y1="799.08" y2="799.08"/><ellipse cx="790.5" cy="812.8241" fill="none" rx="3" ry="3" style="stroke:#038048;stroke-width:1.0;"/><text fill="#000000" font-family="sans-serif" font-size="14" lengthAdjust="spacing" textLength="69" x="799.5" y="816.6152">date: Date</text><line style="stroke:#181818;stroke-width:0.5;" x1="780.5" x2="873.5" y1="823.5683" y2="823.5683"/></g><!--class PhaseStatus--><g id="elem_PhaseStatus"><rect codeLine="36" fill="#F1F1F1" height="80.9766" id="PhaseStatus" rx="2.5" ry="2.5" style="stroke:#181818;stroke-width:0.5;" width="114" x="909" y="758.83"/><ellipse cx="924" cy="774.83" fill="#EB937F" rx="11" ry="11" style="stroke:#181818;stroke-width:1.0;"/><path d="M928.1143,780.83 L920.3945,780.83 L920.3945,768.4369 L928.1143,768.4369 L928.1143,770.5951 L922.8433,770.5951 L922.8433,773.268 L927.6162,773.268 L927.6162,775.4262 L922.8433,775.4262 L922.8433,778.6718 L928.1143,778.6718 Z " fill="#000000"/><text fill="#000000" font-family="sans-serif" font-size="14" lengthAdjust="spacing" textLength="82" x="938" y="780.121">PhaseStatus</text><line style="stroke:#181818;stroke-width:0.5;" x1="910" x2="1022" y1="790.83" y2="790.83"/><text fill="#000000" font-family="sans-serif" font-size="14" lengthAdjust="spacing" textLength="37" x="915" y="808.3652">Open</text><text fill="#000000" font-family="sans-serif" font-size="14" lengthAdjust="spacing" textLength="47" x="915" y="824.8534">Closed</text><line style="stroke:#181818;stroke-width:0.5;" x1="910" x2="1022" y1="831.8066" y2="831.8066"/></g><!--class RecruitmentProcessStatus--><g id="elem_RecruitmentProcessStatus"><rect codeLine="41" fill="#F1F1F1" height="97.4648" id="RecruitmentProcessStatus" rx="2.5" ry="2.5" style="stroke:#181818;stroke-width:0.5;" width="209" x="812.5" y="568.39"/><ellipse cx="827.5" cy="584.39" fill="#EB937F" rx="11" ry="11" style="stroke:#181818;stroke-width:1.0;"/><path d="M831.6143,590.39 L823.8945,590.39 L823.8945,577.9969 L831.6143,577.9969 L831.6143,580.1551 L826.3433,580.1551 L826.3433,582.828 L831.1162,582.828 L831.1162,584.9862 L826.3433,584.9862 L826.3433,588.2318 L831.6143,588.2318 Z " fill="#000000"/><text fill="#000000" font-family="sans-serif" font-size="14" lengthAdjust="spacing" textLength="177" x="841.5" y="589.681">RecruitmentProcessStatus</text><line style="stroke:#181818;stroke-width:0.5;" x1="813.5" x2="1020.5" y1="600.39" y2="600.39"/><text fill="#000000" font-family="sans-serif" font-size="14" lengthAdjust="spacing" textLength="75" x="818.5" y="617.9252">Uninitiated</text><text fill="#000000" font-family="sans-serif" font-size="14" lengthAdjust="spacing" textLength="69" x="818.5" y="634.4134">In Process</text><text fill="#000000" font-family="sans-serif" font-size="14" lengthAdjust="spacing" textLength="58" x="818.5" y="650.9017">Finished</text><line style="stroke:#181818;stroke-width:0.5;" x1="813.5" x2="1020.5" y1="657.8548" y2="657.8548"/></g><!--class JobApplication--><g id="elem_JobApplication"><rect codeLine="57" fill="#F1F1F1" height="97.4648" id="JobApplication" rx="2.5" ry="2.5" style="stroke:#181818;stroke-width:0.5;" width="366" x="81" y="41"/><ellipse cx="209.75" cy="57" fill="#ADD1B2" rx="11" ry="11" style="stroke:#181818;stroke-width:1.0;"/><path d="M212.7231,62.6431 Q212.1421,62.9419 211.5029,63.0913 Q210.8638,63.2407 210.1582,63.2407 Q207.6514,63.2407 206.3315,61.5889 Q205.0117,59.937 205.0117,56.8159 Q205.0117,53.6865 206.3315,52.0347 Q207.6514,50.3828 210.1582,50.3828 Q210.8638,50.3828 211.5112,50.5322 Q212.1587,50.6816 212.7231,50.9805 L212.7231,53.7031 Q212.0923,53.1221 211.4988,52.8523 Q210.9053,52.5825 210.2744,52.5825 Q208.9297,52.5825 208.2449,53.6492 Q207.5601,54.7158 207.5601,56.8159 Q207.5601,58.9077 208.2449,59.9744 Q208.9297,61.041 210.2744,61.041 Q210.9053,61.041 211.4988,60.7712 Q212.0923,60.5015 212.7231,59.9204 Z " fill="#000000"/><text fill="#000000" font-family="sans-serif" font-size="14" lengthAdjust="spacing" textLength="100" x="230.25" y="62.291">JobApplication</text><line style="stroke:#181818;stroke-width:0.5;" x1="82" x2="446" y1="73" y2="73"/><ellipse cx="92" cy="86.7441" fill="none" rx="3" ry="3" style="stroke:#038048;stroke-width:1.0;"/><text fill="#000000" font-family="sans-serif" font-size="14" lengthAdjust="spacing" textLength="113" x="101" y="90.5352">id: ApplicationID</text><ellipse cx="92" cy="103.2324" fill="none" rx="3" ry="3" style="stroke:#038048;stroke-width:1.0;"/><text fill="#000000" font-family="sans-serif" font-size="14" lengthAdjust="spacing" textLength="340" x="101" y="107.0234">RequirementsEvaluation: RequirementsEvaluation</text><ellipse cx="92" cy="119.7207" fill="none" rx="3" ry="3" style="stroke:#038048;stroke-width:1.0;"/><text fill="#000000" font-family="sans-serif" font-size="14" lengthAdjust="spacing" textLength="132" x="101" y="123.5117">Interview: Interview</text><line style="stroke:#181818;stroke-width:0.5;" x1="82" x2="446" y1="130.4648" y2="130.4648"/></g><!--class RequirementsEvaluation--><g id="elem_RequirementsEvaluation"><rect codeLine="63" fill="#F1F1F1" height="97.4648" id="RequirementsEvaluation" rx="2.5" ry="2.5" style="stroke:#181818;stroke-width:0.5;" width="198" x="22" y="228.22"/><ellipse cx="37" cy="244.22" fill="#EB937F" rx="11" ry="11" style="stroke:#181818;stroke-width:1.0;"/><path d="M41.1143,250.22 L33.3945,250.22 L33.3945,237.8269 L41.1143,237.8269 L41.1143,239.9851 L35.8433,239.9851 L35.8433,242.658 L40.6162,242.658 L40.6162,244.8162 L35.8433,244.8162 L35.8433,248.0618 L41.1143,248.0618 Z " fill="#000000"/><text fill="#000000" font-family="sans-serif" font-size="14" lengthAdjust="spacing" textLength="166" x="51" y="249.511">RequirementsEvaluation</text><line style="stroke:#181818;stroke-width:0.5;" x1="23" x2="219" y1="260.22" y2="260.22"/><text fill="#000000" font-family="sans-serif" font-size="14" lengthAdjust="spacing" textLength="56" x="28" y="277.7552">Pending</text><text fill="#000000" font-family="sans-serif" font-size="14" lengthAdjust="spacing" textLength="63" x="28" y="294.2434">Accepted</text><text fill="#000000" font-family="sans-serif" font-size="14" lengthAdjust="spacing" textLength="58" x="28" y="310.7317">Rejected</text><line style="stroke:#181818;stroke-width:0.5;" x1="23" x2="219" y1="317.6848" y2="317.6848"/></g><!--class Interview--><g id="elem_Interview"><rect codeLine="69" fill="#F1F1F1" height="80.9766" id="Interview" rx="2.5" ry="2.5" style="stroke:#181818;stroke-width:0.5;" width="192" x="255" y="236.46"/><ellipse cx="315.75" cy="252.46" fill="#ADD1B2" rx="11" ry="11" style="stroke:#181818;stroke-width:1.0;"/><path d="M318.7231,258.1031 Q318.1421,258.4019 317.5029,258.5513 Q316.8638,258.7007 316.1582,258.7007 Q313.6514,258.7007 312.3315,257.0489 Q311.0117,255.397 311.0117,252.2759 Q311.0117,249.1465 312.3315,247.4947 Q313.6514,245.8428 316.1582,245.8428 Q316.8638,245.8428 317.5112,245.9922 Q318.1587,246.1416 318.7231,246.4405 L318.7231,249.1631 Q318.0923,248.5821 317.4988,248.3123 Q316.9053,248.0425 316.2744,248.0425 Q314.9297,248.0425 314.2449,249.1092 Q313.5601,250.1758 313.5601,252.2759 Q313.5601,254.3677 314.2449,255.4344 Q314.9297,256.501 316.2744,256.501 Q316.9053,256.501 317.4988,256.2312 Q318.0923,255.9615 318.7231,255.3804 Z " fill="#000000"/><text fill="#000000" font-family="sans-serif" font-size="14" lengthAdjust="spacing" textLength="62" x="336.25" y="257.751">Interview</text><line style="stroke:#181818;stroke-width:0.5;" x1="256" x2="446" y1="268.46" y2="268.46"/><ellipse cx="266" cy="282.2041" fill="none" rx="3" ry="3" style="stroke:#038048;stroke-width:1.0;"/><text fill="#000000" font-family="sans-serif" font-size="14" lengthAdjust="spacing" textLength="166" x="275" y="285.9952">InterviewDateTime: Date</text><ellipse cx="266" cy="298.6924" fill="none" rx="3" ry="3" style="stroke:#038048;stroke-width:1.0;"/><text fill="#000000" font-family="sans-serif" font-size="14" lengthAdjust="spacing" textLength="129" x="275" y="302.4834">InterviewGrade: int</text><line style="stroke:#181818;stroke-width:0.5;" x1="256" x2="446" y1="309.4366" y2="309.4366"/></g><!--class InterviewDateTime--><g id="elem_InterviewDateTime"><rect codeLine="74" fill="#F1F1F1" height="64.4883" id="InterviewDateTime" rx="2.5" ry="2.5" style="stroke:#181818;stroke-width:0.5;" width="159" x="110.5" y="402.17"/><ellipse cx="125.5" cy="418.17" fill="#ADD1B2" rx="11" ry="11" style="stroke:#181818;stroke-width:1.0;"/><path d="M128.4731,423.8131 Q127.8921,424.1119 127.2529,424.2613 Q126.6138,424.4107 125.9082,424.4107 Q123.4014,424.4107 122.0815,422.7589 Q120.7617,421.107 120.7617,417.9859 Q120.7617,414.8565 122.0815,413.2047 Q123.4014,411.5528 125.9082,411.5528 Q126.6138,411.5528 127.2612,411.7022 Q127.9087,411.8516 128.4731,412.1505 L128.4731,414.8731 Q127.8423,414.2921 127.2488,414.0223 Q126.6553,413.7525 126.0244,413.7525 Q124.6797,413.7525 123.9949,414.8192 Q123.3101,415.8858 123.3101,417.9859 Q123.3101,420.0777 123.9949,421.1444 Q124.6797,422.211 126.0244,422.211 Q126.6553,422.211 127.2488,421.9412 Q127.8423,421.6715 128.4731,421.0904 Z " fill="#000000"/><text fill="#000000" font-family="sans-serif" font-size="14" lengthAdjust="spacing" textLength="127" x="139.5" y="423.461">InterviewDateTime</text><line style="stroke:#181818;stroke-width:0.5;" x1="111.5" x2="268.5" y1="434.17" y2="434.17"/><ellipse cx="121.5" cy="447.9141" fill="none" rx="3" ry="3" style="stroke:#038048;stroke-width:1.0;"/><text fill="#000000" font-family="sans-serif" font-size="14" lengthAdjust="spacing" textLength="69" x="130.5" y="451.7052">date: Date</text><line style="stroke:#181818;stroke-width:0.5;" x1="111.5" x2="268.5" y1="458.6583" y2="458.6583"/></g><!--class InterviewGrade--><g id="elem_InterviewGrade"><rect codeLine="78" fill="#F1F1F1" height="64.4883" id="InterviewGrade" rx="2.5" ry="2.5" style="stroke:#181818;stroke-width:0.5;" width="135" x="304.5" y="402.17"/><ellipse cx="319.5" cy="418.17" fill="#ADD1B2" rx="11" ry="11" style="stroke:#181818;stroke-width:1.0;"/><path d="M322.4731,423.8131 Q321.8921,424.1119 321.2529,424.2613 Q320.6138,424.4107 319.9082,424.4107 Q317.4014,424.4107 316.0815,422.7589 Q314.7617,421.107 314.7617,417.9859 Q314.7617,414.8565 316.0815,413.2047 Q317.4014,411.5528 319.9082,411.5528 Q320.6138,411.5528 321.2612,411.7022 Q321.9087,411.8516 322.4731,412.1505 L322.4731,414.8731 Q321.8423,414.2921 321.2488,414.0223 Q320.6553,413.7525 320.0244,413.7525 Q318.6797,413.7525 317.9949,414.8192 Q317.3101,415.8858 317.3101,417.9859 Q317.3101,420.0777 317.9949,421.1444 Q318.6797,422.211 320.0244,422.211 Q320.6553,422.211 321.2488,421.9412 Q321.8423,421.6715 322.4731,421.0904 Z " fill="#000000"/><text fill="#000000" font-family="sans-serif" font-size="14" lengthAdjust="spacing" textLength="103" x="333.5" y="423.461">InterviewGrade</text><line style="stroke:#181818;stroke-width:0.5;" x1="305.5" x2="438.5" y1="434.17" y2="434.17"/><ellipse cx="315.5" cy="447.9141" fill="none" rx="3" ry="3" style="stroke:#038048;stroke-width:1.0;"/><text fill="#000000" font-family="sans-serif" font-size="14" lengthAdjust="spacing" textLength="66" x="324.5" y="451.7052">grade: int</text><line style="stroke:#181818;stroke-width:0.5;" x1="305.5" x2="438.5" y1="458.6583" y2="458.6583"/></g><!--class Rank--><g id="elem_Rank"><rect codeLine="90" fill="#F1F1F1" height="80.9766" id="Rank" rx="2.5" ry="2.5" style="stroke:#181818;stroke-width:0.5;" width="175" x="1100.5" y="49.24"/><ellipse cx="1166.75" cy="65.24" fill="#ADD1B2" rx="11" ry="11" style="stroke:#181818;stroke-width:1.0;"/><path d="M1169.7231,70.8831 Q1169.1421,71.1819 1168.5029,71.3313 Q1167.8638,71.4807 1167.1582,71.4807 Q1164.6514,71.4807 1163.3315,69.8289 Q1162.0117,68.177 1162.0117,65.0559 Q1162.0117,61.9265 1163.3315,60.2747 Q1164.6514,58.6228 1167.1582,58.6228 Q1167.8638,58.6228 1168.5112,58.7722 Q1169.1587,58.9216 1169.7231,59.2205 L1169.7231,61.9431 Q1169.0923,61.3621 1168.4988,61.0923 Q1167.9053,60.8225 1167.2744,60.8225 Q1165.9297,60.8225 1165.2449,61.8892 Q1164.5601,62.9558 1164.5601,65.0559 Q1164.5601,67.1477 1165.2449,68.2144 Q1165.9297,69.281 1167.2744,69.281 Q1167.9053,69.281 1168.4988,69.0112 Q1169.0923,68.7415 1169.7231,68.1604 Z " fill="#000000"/><text fill="#000000" font-family="sans-serif" font-size="14" lengthAdjust="spacing" textLength="34" x="1187.25" y="70.531">Rank</text><line style="stroke:#181818;stroke-width:0.5;" x1="1101.5" x2="1274.5" y1="81.24" y2="81.24"/><ellipse cx="1111.5" cy="94.9841" fill="none" rx="3" ry="3" style="stroke:#038048;stroke-width:1.0;"/><text fill="#000000" font-family="sans-serif" font-size="14" lengthAdjust="spacing" textLength="69" x="1120.5" y="98.7752">id: RankID</text><ellipse cx="1111.5" cy="111.4724" fill="none" rx="3" ry="3" style="stroke:#038048;stroke-width:1.0;"/><text fill="#000000" font-family="sans-serif" font-size="14" lengthAdjust="spacing" textLength="149" x="1120.5" y="115.2634">rankValue: RankValue</text><line style="stroke:#181818;stroke-width:0.5;" x1="1101.5" x2="1274.5" y1="122.2166" y2="122.2166"/></g><!--class RankID--><g id="elem_RankID"><rect codeLine="95" fill="#F1F1F1" height="64.4883" id="RankID" rx="2.5" ry="2.5" style="stroke:#181818;stroke-width:0.5;" width="80" x="1079" y="244.7"/><ellipse cx="1094" cy="260.7" fill="#ADD1B2" rx="11" ry="11" style="stroke:#181818;stroke-width:1.0;"/><path d="M1096.9731,266.3431 Q1096.3921,266.6419 1095.7529,266.7913 Q1095.1138,266.9407 1094.4082,266.9407 Q1091.9014,266.9407 1090.5815,265.2889 Q1089.2617,263.637 1089.2617,260.5159 Q1089.2617,257.3865 1090.5815,255.7347 Q1091.9014,254.0828 1094.4082,254.0828 Q1095.1138,254.0828 1095.7612,254.2322 Q1096.4087,254.3816 1096.9731,254.6805 L1096.9731,257.4031 Q1096.3423,256.8221 1095.7488,256.5523 Q1095.1553,256.2825 1094.5244,256.2825 Q1093.1797,256.2825 1092.4949,257.3492 Q1091.8101,258.4158 1091.8101,260.5159 Q1091.8101,262.6077 1092.4949,263.6744 Q1093.1797,264.741 1094.5244,264.741 Q1095.1553,264.741 1095.7488,264.4712 Q1096.3423,264.2015 1096.9731,263.6204 Z " fill="#000000"/><text fill="#000000" font-family="sans-serif" font-size="14" lengthAdjust="spacing" textLength="48" x="1108" y="265.991">RankID</text><line style="stroke:#181818;stroke-width:0.5;" x1="1080" x2="1158" y1="276.7" y2="276.7"/><ellipse cx="1090" cy="290.4441" fill="none" rx="3" ry="3" style="stroke:#038048;stroke-width:1.0;"/><text fill="#000000" font-family="sans-serif" font-size="14" lengthAdjust="spacing" textLength="39" x="1099" y="294.2352">id: int</text><line style="stroke:#181818;stroke-width:0.5;" x1="1080" x2="1158" y1="301.1883" y2="301.1883"/></g><!--class RankValue--><g id="elem_RankValue"><rect codeLine="99" fill="#F1F1F1" height="64.4883" id="RankValue" rx="2.5" ry="2.5" style="stroke:#181818;stroke-width:0.5;" width="104" x="1194" y="244.7"/><ellipse cx="1209" cy="260.7" fill="#ADD1B2" rx="11" ry="11" style="stroke:#181818;stroke-width:1.0;"/><path d="M1211.9731,266.3431 Q1211.3921,266.6419 1210.7529,266.7913 Q1210.1138,266.9407 1209.4082,266.9407 Q1206.9014,266.9407 1205.5815,265.2889 Q1204.2617,263.637 1204.2617,260.5159 Q1204.2617,257.3865 1205.5815,255.7347 Q1206.9014,254.0828 1209.4082,254.0828 Q1210.1138,254.0828 1210.7612,254.2322 Q1211.4087,254.3816 1211.9731,254.6805 L1211.9731,257.4031 Q1211.3423,256.8221 1210.7488,256.5523 Q1210.1553,256.2825 1209.5244,256.2825 Q1208.1797,256.2825 1207.4949,257.3492 Q1206.8101,258.4158 1206.8101,260.5159 Q1206.8101,262.6077 1207.4949,263.6744 Q1208.1797,264.741 1209.5244,264.741 Q1210.1553,264.741 1210.7488,264.4712 Q1211.3423,264.2015 1211.9731,263.6204 Z " fill="#000000"/><text fill="#000000" font-family="sans-serif" font-size="14" lengthAdjust="spacing" textLength="72" x="1223" y="265.991">RankValue</text><line style="stroke:#181818;stroke-width:0.5;" x1="1195" x2="1297" y1="276.7" y2="276.7"/><ellipse cx="1205" cy="290.4441" fill="none" rx="3" ry="3" style="stroke:#038048;stroke-width:1.0;"/><text fill="#000000" font-family="sans-serif" font-size="14" lengthAdjust="spacing" textLength="62" x="1214" y="294.2352">value: int</text><line style="stroke:#181818;stroke-width:0.5;" x1="1195" x2="1297" y1="301.1883" y2="301.1883"/></g><!--class Candidate--><g id="elem_Candidate"><rect codeLine="109" fill="#F1F1F1" height="64.4883" id="Candidate" rx="2.5" ry="2.5" style="stroke:#181818;stroke-width:0.5;" width="154" x="1354" y="244.7"/><ellipse cx="1392.4" cy="260.7" fill="#ADD1B2" rx="11" ry="11" style="stroke:#181818;stroke-width:1.0;"/><path d="M1395.3731,266.3431 Q1394.7921,266.6419 1394.1529,266.7913 Q1393.5138,266.9407 1392.8082,266.9407 Q1390.3014,266.9407 1388.9815,265.2889 Q1387.6617,263.637 1387.6617,260.5159 Q1387.6617,257.3865 1388.9815,255.7347 Q1390.3014,254.0828 1392.8082,254.0828 Q1393.5138,254.0828 1394.1612,254.2322 Q1394.8087,254.3816 1395.3731,254.6805 L1395.3731,257.4031 Q1394.7423,256.8221 1394.1488,256.5523 Q1393.5553,256.2825 1392.9244,256.2825 Q1391.5797,256.2825 1390.8949,257.3492 Q1390.2101,258.4158 1390.2101,260.5159 Q1390.2101,262.6077 1390.8949,263.6744 Q1391.5797,264.741 1392.9244,264.741 Q1393.5553,264.741 1394.1488,264.4712 Q1394.7423,264.2015 1395.3731,263.6204 Z " fill="#000000"/><text fill="#000000" font-family="sans-serif" font-size="14" lengthAdjust="spacing" textLength="70" x="1411.6" y="265.991">Candidate</text><line style="stroke:#181818;stroke-width:0.5;" x1="1355" x2="1507" y1="276.7" y2="276.7"/><ellipse cx="1365" cy="290.4441" fill="none" rx="3" ry="3" style="stroke:#038048;stroke-width:1.0;"/><text fill="#000000" font-family="sans-serif" font-size="14" lengthAdjust="spacing" textLength="128" x="1374" y="294.2352">id: CandidateEmail</text><line style="stroke:#181818;stroke-width:0.5;" x1="1355" x2="1507" y1="301.1883" y2="301.1883"/></g><!--link JobOpening to RecruitmentProcess--><g id="link_JobOpening_RecruitmentProcess"><path codeLine="47" d="M803,317.58 C803,338.18 803,357.53 803,379.25 " fill="none" id="JobOpening-to-RecruitmentProcess" style="stroke:#181818;stroke-width:1.0;"/><polygon fill="#181818" points="803,385.25,807,376.25,803,380.25,799,376.25,803,385.25" style="stroke:#181818;stroke-width:1.0;"/></g><!--link RecruitmentProcess to RecruitmentProcessStatus--><g id="link_RecruitmentProcess_RecruitmentProcessStatus"><path codeLine="48" d="M839.55,483.26 C846.56,492.99 853.69,503.28 860,513.15 C871.18,530.62 879.5832,545.1492 889.1232,562.6892 " fill="none" id="RecruitmentProcess-to-RecruitmentProcessStatus" style="stroke:#181818;stroke-width:1.0;"/><polygon fill="#181818" points="891.99,567.96,891.2037,558.1426,889.601,563.5677,884.1759,561.965,891.99,567.96" style="stroke:#181818;stroke-width:1.0;"/></g><!--link RecruitmentProcess to Phase--><g id="link_RecruitmentProcess_Phase"><path codeLine="49" d="M767.88,483.62 C761.35,493.24 754.77,503.38 749,513.15 C740.27,527.92 734.3209,539.0123 726.7209,554.3723 " fill="none" id="RecruitmentProcess-to-Phase" style="stroke:#181818;stroke-width:1.0;"/><polygon fill="#181818" points="724.06,559.75,731.6364,553.4573,726.2774,555.2686,724.4661,549.9095,724.06,559.75" style="stroke:#181818;stroke-width:1.0;"/><text fill="#000000" font-family="sans-serif" font-size="13" lengthAdjust="spacing" textLength="105" x="750" y="526.7184">Is separated into</text></g><!--link Phase to PhaseName--><g id="link_Phase_PhaseName"><path codeLine="50" d="M654.78,674.15 C640.2,693.06 627.4647,709.5592 612.4147,729.0692 " fill="none" id="Phase-to-PhaseName" style="stroke:#181818;stroke-width:1.0;"/><polygon fill="#181818" points="608.75,733.82,617.4143,729.137,611.8039,729.861,611.0799,724.2507,608.75,733.82" style="stroke:#181818;stroke-width:1.0;"/></g><!--link Phase to StartDate--><g id="link_Phase_StartDate"><path codeLine="51" d="M697.69,674.15 C697.52,704.63 697.3529,735.2101 697.2129,760.7401 " fill="none" id="Phase-to-StartDate" style="stroke:#181818;stroke-width:1.0;"/><polygon fill="#181818" points="697.18,766.74,701.2293,757.7621,697.2074,761.7401,693.2294,757.7182,697.18,766.74" style="stroke:#181818;stroke-width:1.0;"/></g><!--link Phase to EndDate--><g id="link_Phase_EndDate"><path codeLine="52" d="M738.11,674.15 C759.93,704.63 782.617,736.3316 800.897,761.8616 " fill="none" id="Phase-to-EndDate" style="stroke:#181818;stroke-width:1.0;"/><polygon fill="#181818" points="804.39,766.74,802.4027,757.0937,801.4791,762.6747,795.8982,761.7511,804.39,766.74" style="stroke:#181818;stroke-width:1.0;"/></g><!--link Phase to PhaseStatus--><g id="link_Phase_PhaseStatus"><path codeLine="53" d="M778,665.05 C826.52,693.67 881.13,726.23 892,734.1 C902.33,741.58 908.3999,746.2906 918.2699,754.7306 " fill="none" id="Phase-to-PhaseStatus" style="stroke:#181818;stroke-width:1.0;"/><polygon fill="#181818" points="922.83,758.63,918.5895,749.7408,919.0299,755.3805,913.3902,755.8209,922.83,758.63" style="stroke:#181818;stroke-width:1.0;"/></g><!--link JobApplication to RequirementsEvaluation--><g id="link_JobApplication_RequirementsEvaluation"><path codeLine="82" d="M226.8,138.91 C205.62,166.35 182.8373,195.8612 161.6773,223.2612 " fill="none" id="JobApplication-to-RequirementsEvaluation" style="stroke:#181818;stroke-width:1.0;"/><polygon fill="#181818" points="158.01,228.01,166.6768,223.3317,161.0661,224.0527,160.3451,218.442,158.01,228.01" style="stroke:#181818;stroke-width:1.0;"/></g><!--link JobApplication to Interview--><g id="link_JobApplication_Interview"><path codeLine="83" d="M286.63,138.91 C300.83,169.14 316.3579,202.2098 329.7479,230.6998 " fill="none" id="JobApplication-to-Interview" style="stroke:#181818;stroke-width:1.0;"/><polygon fill="#181818" points="332.3,236.13,332.0919,226.2833,330.1732,231.6049,324.8517,229.6862,332.3,236.13" style="stroke:#181818;stroke-width:1.0;"/></g><!--link JobApplication to JobOpening--><g id="link_JobApplication_JobOpening"><path codeLine="84" d="M404.21,138.91 C492.01,169.08 598.1457,205.5499 681.0157,234.0299 " fill="none" id="JobApplication-to-JobOpening" style="stroke:#181818;stroke-width:1.0;"/><polygon fill="#181818" points="686.69,235.98,679.4787,229.272,681.9615,234.3549,676.8786,236.8377,686.69,235.98" style="stroke:#181818;stroke-width:1.0;"/><text fill="#000000" font-family="sans-serif" font-size="13" lengthAdjust="spacing" textLength="56" x="534" y="182.0284">Refers to</text></g><!--link Interview to InterviewDateTime--><g id="link_Interview_InterviewDateTime"><path codeLine="85" d="M309.96,317.58 C282.94,343.67 252.3566,373.2026 227.1766,397.5126 " fill="none" id="Interview-to-InterviewDateTime" style="stroke:#181818;stroke-width:1.0;"/><polygon fill="#181818" points="222.86,401.68,232.1131,398.3066,226.4571,398.2072,226.5566,392.5512,222.86,401.68" style="stroke:#181818;stroke-width:1.0;"/></g><!--link Interview to InterviewGrade--><g id="link_Interview_InterviewGrade"><path codeLine="86" d="M356.35,317.58 C359.88,343.67 363.6277,371.4239 366.9077,395.7339 " fill="none" id="Interview-to-InterviewGrade" style="stroke:#181818;stroke-width:1.0;"/><polygon fill="#181818" points="367.71,401.68,370.4707,392.226,367.0414,396.7249,362.5425,393.2957,367.71,401.68" style="stroke:#181818;stroke-width:1.0;"/></g><!--link Rank to RankID--><g id="link_Rank_RankID"><path codeLine="103" d="M1173.2,130.46 C1160.53,164.48 1144.614,207.1773 1132.894,238.6473 " fill="none" id="Rank-to-RankID" style="stroke:#181818;stroke-width:1.0;"/><polygon fill="#181818" points="1130.8,244.27,1137.6895,237.2319,1132.545,239.5844,1130.1925,234.4399,1130.8,244.27" style="stroke:#181818;stroke-width:1.0;"/></g><!--link Rank to RankValue--><g id="link_Rank_RankValue"><path codeLine="104" d="M1200.44,130.46 C1211.09,164.48 1224.4378,207.0739 1234.2878,238.5439 " fill="none" id="Rank-to-RankValue" style="stroke:#181818;stroke-width:1.0;"/><polygon fill="#181818" points="1236.08,244.27,1237.209,234.4861,1234.5865,239.4983,1229.5743,236.8757,1236.08,244.27" style="stroke:#181818;stroke-width:1.0;"/></g><!--link Rank to JobOpening--><g id="link_Rank_JobOpening"><path codeLine="105" d="M1104.93,130.69 C1040.17,161.85 956.0569,202.3189 891.3269,233.4589 " fill="none" id="Rank-to-JobOpening" style="stroke:#181818;stroke-width:1.0;"/><polygon fill="#181818" points="885.92,236.06,895.7644,235.7629,890.4257,233.8924,892.2962,228.5538,885.92,236.06" style="stroke:#181818;stroke-width:1.0;"/><text fill="#000000" font-family="sans-serif" font-size="13" lengthAdjust="spacing" textLength="88" x="1019" y="182.0284">Is assigned to</text></g><!--link Rank to Candidate--><g id="link_Rank_Candidate"><path codeLine="113" d="M1240.43,130.69 C1285.08,164.72 1343.5882,209.3127 1384.7682,240.7027 " fill="none" id="Rank-to-Candidate" style="stroke:#181818;stroke-width:1.0;"/><polygon fill="#181818" points="1389.54,244.34,1384.8072,235.7028,1385.5635,241.3089,1379.9575,242.0652,1389.54,244.34" style="stroke:#181818;stroke-width:1.0;"/><text fill="#000000" font-family="sans-serif" font-size="13" lengthAdjust="spacing" textLength="77" x="1310" y="182.0284">Is ranked by</text></g><!--SRC=[ZLNRRfmm47tVhx3oskO7LbKajA4HrOeWsAJgemDJucRNK6osggh-UtrXxR7njlMJENCvC-DZCzBsZVP0FWqlZoDmnlkixyclpOQerHwf4CYaSBAiTwpRQaiDNs42teAtJD1ECvCduBAQXXQ4s99wXHd_tuXcxHBJCIuz82ILSp9pOopUStob0fJddWdveT8VTmivOZTuJ6Z0afuWe9taFPMm9Srbwwt0EslBxMPThac9AboA03wVF1sgGw-iglR5BZiKZ-NxmD3iwZmlY_8XX8loaDVFHVwv2V6ipFPVcY92wxnvsX_M4t7juQbqfZlNMX2mzFnlTz-i7GIAq49p7xlZ8A1RHLuxSPJcIQcLIQPuEuSLd63fwVLHUOdNa0Af_VRsxffm4s9DUwEZlX9ZbRSbDuKW0aOwwQgrreSR4sRjpjF9qUEX43sEHHXbMSfIFO_-0SZ6ySXQAjd0xICGl0786jyJP2hklQc6xpERG3SiyZCzpiP3NzaKxkCABc4wC_Yn9MwRK44g2QgiKfTHdQBxpjeMHYo86hv1AyFJjzqwLjoe0_LC3-o4XHqwF4oq0_zSfLDVilplxGgpuwW-IHUTc5NdrRadlCFH9npGJT5dglu3WiXXO-_QPO11falFV_CnxM5XrfI_nNBKM2n2ZM7rJUhxMJK9rcIswx7Qg6j_cfMhoOAzpvOX2Z3rcP7xeWBCL-FWO9pwCL2ShEVgBT0l0Hh8ZYfXQwd4Kt66k1rdo4-K7PE5-bXBhgUdg5z-Ake_]--></g></svg>