<?xml version="1.0" encoding="us-ascii" standalone="no"?><svg xmlns="http://www.w3.org/2000/svg" xmlns:xlink="http://www.w3.org/1999/xlink" contentStyleType="text/css" height="871px" preserveAspectRatio="none" style="width:1531px;height:871px;background:#FFFFFF;" version="1.1" viewBox="0 0 1531 871" width="1531px" zoomAndPan="magnify"><defs/><g><!--cluster JobOpeningAgg--><g id="cluster_JobOpeningAgg"><path d="M489.5,201.47 L603.5,201.47 A3.75,3.75 0 0 1 606,203.97 L613,223.9583 L1036.5,223.9583 A2.5,2.5 0 0 1 1039,226.4583 L1039,861.56 A2.5,2.5 0 0 1 1036.5,864.06 L489.5,864.06 A2.5,2.5 0 0 1 487,861.56 L487,203.97 A2.5,2.5 0 0 1 489.5,201.47 " fill="none" style="stroke:#000000;stroke-width:1.5;"/><line style="stroke:#000000;stroke-width:1.5;" x1="487" x2="613" y1="223.9583" y2="223.9583"/><text fill="#000000" font-family="sans-serif" font-size="14" font-weight="bold" lengthAdjust="spacing" textLength="113" x="491" y="217.0052">JobOpeningAgg</text></g><!--cluster JobApplicationAgg--><g id="cluster_JobApplicationAgg"><path d="M8.5,6 L143.5,6 A3.75,3.75 0 0 1 146,8.5 L153,28.4883 L460.5,28.4883 A2.5,2.5 0 0 1 463,30.9883 L463,471.92 A2.5,2.5 0 0 1 460.5,474.42 L8.5,474.42 A2.5,2.5 0 0 1 6,471.92 L6,8.5 A2.5,2.5 0 0 1 8.5,6 " fill="none" style="stroke:#000000;stroke-width:1.5;"/><line style="stroke:#000000;stroke-width:1.5;" x1="6" x2="153" y1="28.4883" y2="28.4883"/><text fill="#000000" font-family="sans-serif" font-size="14" font-weight="bold" lengthAdjust="spacing" textLength="134" x="10" y="21.5352">JobApplicationAgg</text></g><!--cluster RankAgg--><g id="cluster_RankAgg"><path d="M1065.5,14.25 L1130.5,14.25 A3.75,3.75 0 0 1 1133,16.75 L1140,36.7383 L1311.5,36.7383 A2.5,2.5 0 0 1 1314,39.2383 L1314,322.7 A2.5,2.5 0 0 1 1311.5,325.2 L1065.5,325.2 A2.5,2.5 0 0 1 1063,322.7 L1063,16.75 A2.5,2.5 0 0 1 1065.5,14.25 " fill="none" style="stroke:#000000;stroke-width:1.5;"/><line style="stroke:#000000;stroke-width:1.5;" x1="1063" x2="1140" y1="36.7383" y2="36.7383"/><text fill="#000000" font-family="sans-serif" font-size="14" font-weight="bold" lengthAdjust="spacing" textLength="64" x="1067" y="29.7852">RankAgg</text></g><!--cluster CandidateAgg--><g id="cluster_CandidateAgg"><path d="M1340.5,209.71 L1441.5,209.71 A3.75,3.75 0 0 1 1444,212.21 L1451,232.1983 L1521.5,232.1983 A2.5,2.5 0 0 1 1524,234.6983 L1524,322.7 A2.5,2.5 0 0 1 1521.5,325.2 L1340.5,325.2 A2.5,2.5 0 0 1 1338,322.7 L1338,212.21 A2.5,2.5 0 0 1 1340.5,209.71 " fill="none" style="stroke:#000000;stroke-width:1.5;"/><line style="stroke:#000000;stroke-width:1.5;" x1="1338" x2="1451" y1="232.1983" y2="232.1983"/><text fill="#000000" font-family="sans-serif" font-size="14" font-weight="bold" lengthAdjust="spacing" textLength="100" x="1342" y="225.2452">CandidateAgg</text></g><!--class JobOpening--><g id="elem_JobOpening"><rect codeLine="3" fill="#F1F1F1" height="80.9766" id="JobOpening" rx="2.5" ry="2.5" style="stroke:#181818;stroke-width:0.5;" width="301" x="652.5" y="236.47"/><ellipse cx="758.25" cy="252.47" fill="#ADD1B2" rx="11" ry="11" style="stroke:#181818;stroke-width:1.0;"/><path d="M761.2231,258.1131 Q760.6421,258.4119 760.0029,258.5613 Q759.3638,258.7107 758.6582,258.7107 Q756.1514,258.7107 754.8315,257.0589 Q753.5117,255.407 753.5117,252.2859 Q753.5117,249.1565 754.8315,247.5047 Q756.1514,245.8528 758.6582,245.8528 Q759.3638,245.8528 760.0112,246.0022 Q760.6587,246.1516 761.2231,246.4505 L761.2231,249.1731 Q760.5923,248.5921 759.9988,248.3223 Q759.4053,248.0525 758.7744,248.0525 Q757.4297,248.0525 756.7449,249.1192 Q756.0601,250.1858 756.0601,252.2859 Q756.0601,254.3777 756.7449,255.4444 Q757.4297,256.511 758.7744,256.511 Q759.4053,256.511 759.9988,256.2412 Q760.5923,255.9715 761.2231,255.3904 Z " fill="#000000"/><text fill="#000000" font-family="sans-serif" font-size="14" lengthAdjust="spacing" textLength="81" x="778.75" y="257.761">JobOpening</text><line style="stroke:#181818;stroke-width:0.5;" x1="653.5" x2="952.5" y1="268.47" y2="268.47"/><ellipse cx="663.5" cy="282.2141" fill="none" rx="3" ry="3" style="stroke:#038048;stroke-width:1.0;"/><text fill="#000000" font-family="sans-serif" font-size="14" lengthAdjust="spacing" textLength="111" x="672.5" y="286.0052">id: JobReference</text><ellipse cx="663.5" cy="298.7024" fill="none" rx="3" ry="3" style="stroke:#038048;stroke-width:1.0;"/><text fill="#000000" font-family="sans-serif" font-size="14" lengthAdjust="spacing" textLength="275" x="672.5" y="302.4934">recruitmentProcess: RecruitmentProcess</text><line style="stroke:#181818;stroke-width:0.5;" x1="653.5" x2="952.5" y1="309.4466" y2="309.4466"/></g><!--class RecruitmentProcess--><g id="elem_RecruitmentProcess"><rect codeLine="7" fill="#F1F1F1" height="80.9766" id="RecruitmentProcess" rx="2.5" ry="2.5" style="stroke:#181818;stroke-width:0.5;" width="252" x="677" y="385.69"/><ellipse cx="731.25" cy="401.69" fill="#ADD1B2" rx="11" ry="11" style="stroke:#181818;stroke-width:1.0;"/><path d="M734.2231,407.3331 Q733.6421,407.6319 733.0029,407.7813 Q732.3638,407.9307 731.6582,407.9307 Q729.1514,407.9307 727.8315,406.2789 Q726.5117,404.627 726.5117,401.5059 Q726.5117,398.3765 727.8315,396.7247 Q729.1514,395.0728 731.6582,395.0728 Q732.3638,395.0728 733.0112,395.2222 Q733.6587,395.3716 734.2231,395.6705 L734.2231,398.3931 Q733.5923,397.8121 732.9988,397.5423 Q732.4053,397.2725 731.7744,397.2725 Q730.4297,397.2725 729.7449,398.3392 Q729.0601,399.4058 729.0601,401.5059 Q729.0601,403.5977 729.7449,404.6644 Q730.4297,405.731 731.7744,405.731 Q732.4053,405.731 732.9988,405.4612 Q733.5923,405.1915 734.2231,404.6104 Z " fill="#000000"/><text fill="#000000" font-family="sans-serif" font-size="14" lengthAdjust="spacing" textLength="135" x="751.75" y="406.981">RecruitmentProcess</text><line style="stroke:#181818;stroke-width:0.5;" x1="678" x2="928" y1="417.69" y2="417.69"/><ellipse cx="688" cy="431.4341" fill="none" rx="3" ry="3" style="stroke:#038048;stroke-width:1.0;"/><text fill="#000000" font-family="sans-serif" font-size="14" lengthAdjust="spacing" textLength="39" x="697" y="435.2252">id: int</text><ellipse cx="688" cy="447.9224" fill="none" rx="3" ry="3" style="stroke:#038048;stroke-width:1.0;"/><text fill="#000000" font-family="sans-serif" font-size="14" lengthAdjust="spacing" textLength="226" x="697" y="451.7134">status: RecruitmentProcessStatus</text><line style="stroke:#181818;stroke-width:0.5;" x1="678" x2="928" y1="458.6666" y2="458.6666"/></g><!--class Phase--><g id="elem_Phase"><rect codeLine="12" fill="#F1F1F1" height="113.9531" id="Phase" rx="2.5" ry="2.5" style="stroke:#181818;stroke-width:0.5;" width="159" x="618.5" y="543.67"/><ellipse cx="673.75" cy="559.67" fill="#ADD1B2" rx="11" ry="11" style="stroke:#181818;stroke-width:1.0;"/><path d="M676.7231,565.3131 Q676.1421,565.6119 675.5029,565.7613 Q674.8638,565.9107 674.1582,565.9107 Q671.6514,565.9107 670.3315,564.2589 Q669.0117,562.607 669.0117,559.4859 Q669.0117,556.3565 670.3315,554.7047 Q671.6514,553.0528 674.1582,553.0528 Q674.8638,553.0528 675.5112,553.2022 Q676.1587,553.3516 676.7231,553.6505 L676.7231,556.3731 Q676.0923,555.7921 675.4988,555.5223 Q674.9053,555.2525 674.2744,555.2525 Q672.9297,555.2525 672.2449,556.3192 Q671.5601,557.3858 671.5601,559.4859 Q671.5601,561.5777 672.2449,562.6444 Q672.9297,563.711 674.2744,563.711 Q674.9053,563.711 675.4988,563.4412 Q676.0923,563.1715 676.7231,562.5904 Z " fill="#000000"/><text fill="#000000" font-family="sans-serif" font-size="14" lengthAdjust="spacing" textLength="40" x="694.25" y="564.961">Phase</text><line style="stroke:#181818;stroke-width:0.5;" x1="619.5" x2="776.5" y1="575.67" y2="575.67"/><ellipse cx="629.5" cy="589.4141" fill="none" rx="3" ry="3" style="stroke:#038048;stroke-width:1.0;"/><text fill="#000000" font-family="sans-serif" font-size="14" lengthAdjust="spacing" textLength="100" x="638.5" y="593.2052">id: PhaseName</text><ellipse cx="629.5" cy="605.9024" fill="none" rx="3" ry="3" style="stroke:#038048;stroke-width:1.0;"/><text fill="#000000" font-family="sans-serif" font-size="14" lengthAdjust="spacing" textLength="133" x="638.5" y="609.6934">startDate: StartDate</text><ellipse cx="629.5" cy="622.3907" fill="none" rx="3" ry="3" style="stroke:#038048;stroke-width:1.0;"/><text fill="#000000" font-family="sans-serif" font-size="14" lengthAdjust="spacing" textLength="122" x="638.5" y="626.1817">endDate: EndDate</text><ellipse cx="629.5" cy="638.879" fill="none" rx="3" ry="3" style="stroke:#038048;stroke-width:1.0;"/><text fill="#000000" font-family="sans-serif" font-size="14" lengthAdjust="spacing" textLength="131" x="638.5" y="642.67">status: PhaseStatus</text><line style="stroke:#181818;stroke-width:0.5;" x1="619.5" x2="776.5" y1="649.6231" y2="649.6231"/></g><!--class PhaseName--><g id="elem_PhaseName"><rect codeLine="19" fill="#F1F1F1" height="130.4414" id="PhaseName" rx="2.5" ry="2.5" style="stroke:#181818;stroke-width:0.5;" width="111" x="503.5" y="717.62"/><ellipse cx="518.5" cy="733.62" fill="#EB937F" rx="11" ry="11" style="stroke:#181818;stroke-width:1.0;"/><path d="M522.6143,739.62 L514.8945,739.62 L514.8945,727.2269 L522.6143,727.2269 L522.6143,729.3851 L517.3433,729.3851 L517.3433,732.058 L522.1162,732.058 L522.1162,734.2162 L517.3433,734.2162 L517.3433,737.4618 L522.6143,737.4618 Z " fill="#000000"/><text fill="#000000" font-family="sans-serif" font-size="14" lengthAdjust="spacing" textLength="79" x="532.5" y="738.911">PhaseName</text><line style="stroke:#181818;stroke-width:0.5;" x1="504.5" x2="613.5" y1="749.62" y2="749.62"/><text fill="#000000" font-family="sans-serif" font-size="14" lengthAdjust="spacing" textLength="95" x="509.5" y="767.1552">APPLICATION,</text><text fill="#000000" font-family="sans-serif" font-size="14" lengthAdjust="spacing" textLength="81" x="509.5" y="783.6434">SCREENING,</text><text fill="#000000" font-family="sans-serif" font-size="14" lengthAdjust="spacing" textLength="85" x="509.5" y="800.1317">INTERVIEWS,</text><text fill="#000000" font-family="sans-serif" font-size="14" lengthAdjust="spacing" textLength="70" x="509.5" y="816.62">ANALYSIS,</text><text fill="#000000" font-family="sans-serif" font-size="14" lengthAdjust="spacing" textLength="51" x="509.5" y="833.1083">RESULT</text><line style="stroke:#181818;stroke-width:0.5;" x1="504.5" x2="613.5" y1="840.0614" y2="840.0614"/></g><!--class StartDate--><g id="elem_StartDate"><rect codeLine="27" fill="#F1F1F1" height="64.4883" id="StartDate" rx="2.5" ry="2.5" style="stroke:#181818;stroke-width:0.5;" width="95" x="649.5" y="750.6"/><ellipse cx="664.5" cy="766.6" fill="#ADD1B2" rx="11" ry="11" style="stroke:#181818;stroke-width:1.0;"/><path d="M667.4731,772.2431 Q666.8921,772.5419 666.2529,772.6913 Q665.6138,772.8407 664.9082,772.8407 Q662.4014,772.8407 661.0815,771.1889 Q659.7617,769.537 659.7617,766.4159 Q659.7617,763.2865 661.0815,761.6347 Q662.4014,759.9828 664.9082,759.9828 Q665.6138,759.9828 666.2612,760.1322 Q666.9087,760.2816 667.4731,760.5805 L667.4731,763.3031 Q666.8423,762.7221 666.2488,762.4523 Q665.6553,762.1825 665.0244,762.1825 Q663.6797,762.1825 662.9949,763.2492 Q662.3101,764.3158 662.3101,766.4159 Q662.3101,768.5077 662.9949,769.5744 Q663.6797,770.641 665.0244,770.641 Q665.6553,770.641 666.2488,770.3712 Q666.8423,770.1015 667.4731,769.5204 Z " fill="#000000"/><text fill="#000000" font-family="sans-serif" font-size="14" lengthAdjust="spacing" textLength="63" x="678.5" y="771.891">StartDate</text><line style="stroke:#181818;stroke-width:0.5;" x1="650.5" x2="743.5" y1="782.6" y2="782.6"/><ellipse cx="660.5" cy="796.3441" fill="none" rx="3" ry="3" style="stroke:#038048;stroke-width:1.0;"/><text fill="#000000" font-family="sans-serif" font-size="14" lengthAdjust="spacing" textLength="69" x="669.5" y="800.1352">date: Date</text><line style="stroke:#181818;stroke-width:0.5;" x1="650.5" x2="743.5" y1="807.0883" y2="807.0883"/></g><!--class EndDate--><g id="elem_EndDate"><rect codeLine="31" fill="#F1F1F1" height="64.4883" id="EndDate" rx="2.5" ry="2.5" style="stroke:#181818;stroke-width:0.5;" width="95" x="779.5" y="750.6"/><ellipse cx="797.2" cy="766.6" fill="#ADD1B2" rx="11" ry="11" style="stroke:#181818;stroke-width:1.0;"/><path d="M800.1731,772.2431 Q799.5921,772.5419 798.9529,772.6913 Q798.3138,772.8407 797.6082,772.8407 Q795.1014,772.8407 793.7815,771.1889 Q792.4617,769.537 792.4617,766.4159 Q792.4617,763.2865 793.7815,761.6347 Q795.1014,759.9828 797.6082,759.9828 Q798.3138,759.9828 798.9612,760.1322 Q799.6087,760.2816 800.1731,760.5805 L800.1731,763.3031 Q799.5423,762.7221 798.9488,762.4523 Q798.3553,762.1825 797.7244,762.1825 Q796.3797,762.1825 795.6949,763.2492 Q795.0101,764.3158 795.0101,766.4159 Q795.0101,768.5077 795.6949,769.5744 Q796.3797,770.641 797.7244,770.641 Q798.3553,770.641 798.9488,770.3712 Q799.5423,770.1015 800.1731,769.5204 Z " fill="#000000"/><text fill="#000000" font-family="sans-serif" font-size="14" lengthAdjust="spacing" textLength="57" x="811.8" y="771.891">EndDate</text><line style="stroke:#181818;stroke-width:0.5;" x1="780.5" x2="873.5" y1="782.6" y2="782.6"/><ellipse cx="790.5" cy="796.3441" fill="none" rx="3" ry="3" style="stroke:#038048;stroke-width:1.0;"/><text fill="#000000" font-family="sans-serif" font-size="14" lengthAdjust="spacing" textLength="69" x="799.5" y="800.1352">date: Date</text><line style="stroke:#181818;stroke-width:0.5;" x1="780.5" x2="873.5" y1="807.0883" y2="807.0883"/></g><!--class PhaseStatus--><g id="elem_PhaseStatus"><rect codeLine="35" fill="#F1F1F1" height="80.9766" id="PhaseStatus" rx="2.5" ry="2.5" style="stroke:#181818;stroke-width:0.5;" width="114" x="909" y="742.35"/><ellipse cx="924" cy="758.35" fill="#EB937F" rx="11" ry="11" style="stroke:#181818;stroke-width:1.0;"/><path d="M928.1143,764.35 L920.3945,764.35 L920.3945,751.9569 L928.1143,751.9569 L928.1143,754.1151 L922.8433,754.1151 L922.8433,756.788 L927.6162,756.788 L927.6162,758.9462 L922.8433,758.9462 L922.8433,762.1918 L928.1143,762.1918 Z " fill="#000000"/><text fill="#000000" font-family="sans-serif" font-size="14" lengthAdjust="spacing" textLength="82" x="938" y="763.641">PhaseStatus</text><line style="stroke:#181818;stroke-width:0.5;" x1="910" x2="1022" y1="774.35" y2="774.35"/><text fill="#000000" font-family="sans-serif" font-size="14" lengthAdjust="spacing" textLength="37" x="915" y="791.8852">Open</text><text fill="#000000" font-family="sans-serif" font-size="14" lengthAdjust="spacing" textLength="47" x="915" y="808.3734">Closed</text><line style="stroke:#181818;stroke-width:0.5;" x1="910" x2="1022" y1="815.3266" y2="815.3266"/></g><!--class RecruitmentProcessStatus--><g id="elem_RecruitmentProcessStatus"><rect codeLine="40" fill="#F1F1F1" height="97.4648" id="RecruitmentProcessStatus" rx="2.5" ry="2.5" style="stroke:#181818;stroke-width:0.5;" width="209" x="812.5" y="551.91"/><ellipse cx="827.5" cy="567.91" fill="#EB937F" rx="11" ry="11" style="stroke:#181818;stroke-width:1.0;"/><path d="M831.6143,573.91 L823.8945,573.91 L823.8945,561.5169 L831.6143,561.5169 L831.6143,563.6751 L826.3433,563.6751 L826.3433,566.348 L831.1162,566.348 L831.1162,568.5062 L826.3433,568.5062 L826.3433,571.7518 L831.6143,571.7518 Z " fill="#000000"/><text fill="#000000" font-family="sans-serif" font-size="14" lengthAdjust="spacing" textLength="177" x="841.5" y="573.201">RecruitmentProcessStatus</text><line style="stroke:#181818;stroke-width:0.5;" x1="813.5" x2="1020.5" y1="583.91" y2="583.91"/><text fill="#000000" font-family="sans-serif" font-size="14" lengthAdjust="spacing" textLength="75" x="818.5" y="601.4452">Uninitiated</text><text fill="#000000" font-family="sans-serif" font-size="14" lengthAdjust="spacing" textLength="69" x="818.5" y="617.9334">In Process</text><text fill="#000000" font-family="sans-serif" font-size="14" lengthAdjust="spacing" textLength="58" x="818.5" y="634.4217">Finished</text><line style="stroke:#181818;stroke-width:0.5;" x1="813.5" x2="1020.5" y1="641.3748" y2="641.3748"/></g><!--class JobApplication--><g id="elem_JobApplication"><rect codeLine="56" fill="#F1F1F1" height="97.4648" id="JobApplication" rx="2.5" ry="2.5" style="stroke:#181818;stroke-width:0.5;" width="366" x="81" y="41"/><ellipse cx="209.75" cy="57" fill="#ADD1B2" rx="11" ry="11" style="stroke:#181818;stroke-width:1.0;"/><path d="M212.7231,62.6431 Q212.1421,62.9419 211.5029,63.0913 Q210.8638,63.2407 210.1582,63.2407 Q207.6514,63.2407 206.3315,61.5889 Q205.0117,59.937 205.0117,56.8159 Q205.0117,53.6865 206.3315,52.0347 Q207.6514,50.3828 210.1582,50.3828 Q210.8638,50.3828 211.5112,50.5322 Q212.1587,50.6816 212.7231,50.9805 L212.7231,53.7031 Q212.0923,53.1221 211.4988,52.8523 Q210.9053,52.5825 210.2744,52.5825 Q208.9297,52.5825 208.2449,53.6492 Q207.5601,54.7158 207.5601,56.8159 Q207.5601,58.9077 208.2449,59.9744 Q208.9297,61.041 210.2744,61.041 Q210.9053,61.041 211.4988,60.7712 Q212.0923,60.5015 212.7231,59.9204 Z " fill="#000000"/><text fill="#000000" font-family="sans-serif" font-size="14" lengthAdjust="spacing" textLength="100" x="230.25" y="62.291">JobApplication</text><line style="stroke:#181818;stroke-width:0.5;" x1="82" x2="446" y1="73" y2="73"/><ellipse cx="92" cy="86.7441" fill="none" rx="3" ry="3" style="stroke:#038048;stroke-width:1.0;"/><text fill="#000000" font-family="sans-serif" font-size="14" lengthAdjust="spacing" textLength="113" x="101" y="90.5352">id: ApplicationID</text><ellipse cx="92" cy="103.2324" fill="none" rx="3" ry="3" style="stroke:#038048;stroke-width:1.0;"/><text fill="#000000" font-family="sans-serif" font-size="14" lengthAdjust="spacing" textLength="340" x="101" y="107.0234">RequirementsEvaluation: RequirementsEvaluation</text><ellipse cx="92" cy="119.7207" fill="none" rx="3" ry="3" style="stroke:#038048;stroke-width:1.0;"/><text fill="#000000" font-family="sans-serif" font-size="14" lengthAdjust="spacing" textLength="132" x="101" y="123.5117">Interview: Interview</text><line style="stroke:#181818;stroke-width:0.5;" x1="82" x2="446" y1="130.4648" y2="130.4648"/></g><!--class RequirementsEvaluation--><g id="elem_RequirementsEvaluation"><rect codeLine="62" fill="#F1F1F1" height="97.4648" id="RequirementsEvaluation" rx="2.5" ry="2.5" style="stroke:#181818;stroke-width:0.5;" width="198" x="22" y="228.22"/><ellipse cx="37" cy="244.22" fill="#EB937F" rx="11" ry="11" style="stroke:#181818;stroke-width:1.0;"/><path d="M41.1143,250.22 L33.3945,250.22 L33.3945,237.8269 L41.1143,237.8269 L41.1143,239.9851 L35.8433,239.9851 L35.8433,242.658 L40.6162,242.658 L40.6162,244.8162 L35.8433,244.8162 L35.8433,248.0618 L41.1143,248.0618 Z " fill="#000000"/><text fill="#000000" font-family="sans-serif" font-size="14" lengthAdjust="spacing" textLength="166" x="51" y="249.511">RequirementsEvaluation</text><line style="stroke:#181818;stroke-width:0.5;" x1="23" x2="219" y1="260.22" y2="260.22"/><text fill="#000000" font-family="sans-serif" font-size="14" lengthAdjust="spacing" textLength="56" x="28" y="277.7552">Pending</text><text fill="#000000" font-family="sans-serif" font-size="14" lengthAdjust="spacing" textLength="63" x="28" y="294.2434">Accepted</text><text fill="#000000" font-family="sans-serif" font-size="14" lengthAdjust="spacing" textLength="58" x="28" y="310.7317">Rejected</text><line style="stroke:#181818;stroke-width:0.5;" x1="23" x2="219" y1="317.6848" y2="317.6848"/></g><!--class Interview--><g id="elem_Interview"><rect codeLine="68" fill="#F1F1F1" height="80.9766" id="Interview" rx="2.5" ry="2.5" style="stroke:#181818;stroke-width:0.5;" width="192" x="255" y="236.47"/><ellipse cx="315.75" cy="252.47" fill="#ADD1B2" rx="11" ry="11" style="stroke:#181818;stroke-width:1.0;"/><path d="M318.7231,258.1131 Q318.1421,258.4119 317.5029,258.5613 Q316.8638,258.7107 316.1582,258.7107 Q313.6514,258.7107 312.3315,257.0589 Q311.0117,255.407 311.0117,252.2859 Q311.0117,249.1565 312.3315,247.5047 Q313.6514,245.8528 316.1582,245.8528 Q316.8638,245.8528 317.5112,246.0022 Q318.1587,246.1516 318.7231,246.4505 L318.7231,249.1731 Q318.0923,248.5921 317.4988,248.3223 Q316.9053,248.0525 316.2744,248.0525 Q314.9297,248.0525 314.2449,249.1192 Q313.5601,250.1858 313.5601,252.2859 Q313.5601,254.3777 314.2449,255.4444 Q314.9297,256.511 316.2744,256.511 Q316.9053,256.511 317.4988,256.2412 Q318.0923,255.9715 318.7231,255.3904 Z " fill="#000000"/><text fill="#000000" font-family="sans-serif" font-size="14" lengthAdjust="spacing" textLength="62" x="336.25" y="257.761">Interview</text><line style="stroke:#181818;stroke-width:0.5;" x1="256" x2="446" y1="268.47" y2="268.47"/><ellipse cx="266" cy="282.2141" fill="none" rx="3" ry="3" style="stroke:#038048;stroke-width:1.0;"/><text fill="#000000" font-family="sans-serif" font-size="14" lengthAdjust="spacing" textLength="166" x="275" y="286.0052">InterviewDateTime: Date</text><ellipse cx="266" cy="298.7024" fill="none" rx="3" ry="3" style="stroke:#038048;stroke-width:1.0;"/><text fill="#000000" font-family="sans-serif" font-size="14" lengthAdjust="spacing" textLength="129" x="275" y="302.4934">InterviewGrade: int</text><line style="stroke:#181818;stroke-width:0.5;" x1="256" x2="446" y1="309.4466" y2="309.4466"/></g><!--class InterviewDateTime--><g id="elem_InterviewDateTime"><rect codeLine="73" fill="#F1F1F1" height="64.4883" id="InterviewDateTime" rx="2.5" ry="2.5" style="stroke:#181818;stroke-width:0.5;" width="159" x="110.5" y="393.93"/><ellipse cx="125.5" cy="409.93" fill="#ADD1B2" rx="11" ry="11" style="stroke:#181818;stroke-width:1.0;"/><path d="M128.4731,415.5731 Q127.8921,415.8719 127.2529,416.0213 Q126.6138,416.1707 125.9082,416.1707 Q123.4014,416.1707 122.0815,414.5189 Q120.7617,412.867 120.7617,409.7459 Q120.7617,406.6165 122.0815,404.9647 Q123.4014,403.3128 125.9082,403.3128 Q126.6138,403.3128 127.2612,403.4622 Q127.9087,403.6116 128.4731,403.9105 L128.4731,406.6331 Q127.8423,406.0521 127.2488,405.7823 Q126.6553,405.5125 126.0244,405.5125 Q124.6797,405.5125 123.9949,406.5792 Q123.3101,407.6458 123.3101,409.7459 Q123.3101,411.8377 123.9949,412.9044 Q124.6797,413.971 126.0244,413.971 Q126.6553,413.971 127.2488,413.7012 Q127.8423,413.4315 128.4731,412.8504 Z " fill="#000000"/><text fill="#000000" font-family="sans-serif" font-size="14" lengthAdjust="spacing" textLength="127" x="139.5" y="415.221">InterviewDateTime</text><line style="stroke:#181818;stroke-width:0.5;" x1="111.5" x2="268.5" y1="425.93" y2="425.93"/><ellipse cx="121.5" cy="439.6741" fill="none" rx="3" ry="3" style="stroke:#038048;stroke-width:1.0;"/><text fill="#000000" font-family="sans-serif" font-size="14" lengthAdjust="spacing" textLength="69" x="130.5" y="443.4652">date: Date</text><line style="stroke:#181818;stroke-width:0.5;" x1="111.5" x2="268.5" y1="450.4183" y2="450.4183"/></g><!--class InterviewGrade--><g id="elem_InterviewGrade"><rect codeLine="77" fill="#F1F1F1" height="64.4883" id="InterviewGrade" rx="2.5" ry="2.5" style="stroke:#181818;stroke-width:0.5;" width="135" x="304.5" y="393.93"/><ellipse cx="319.5" cy="409.93" fill="#ADD1B2" rx="11" ry="11" style="stroke:#181818;stroke-width:1.0;"/><path d="M322.4731,415.5731 Q321.8921,415.8719 321.2529,416.0213 Q320.6138,416.1707 319.9082,416.1707 Q317.4014,416.1707 316.0815,414.5189 Q314.7617,412.867 314.7617,409.7459 Q314.7617,406.6165 316.0815,404.9647 Q317.4014,403.3128 319.9082,403.3128 Q320.6138,403.3128 321.2612,403.4622 Q321.9087,403.6116 322.4731,403.9105 L322.4731,406.6331 Q321.8423,406.0521 321.2488,405.7823 Q320.6553,405.5125 320.0244,405.5125 Q318.6797,405.5125 317.9949,406.5792 Q317.3101,407.6458 317.3101,409.7459 Q317.3101,411.8377 317.9949,412.9044 Q318.6797,413.971 320.0244,413.971 Q320.6553,413.971 321.2488,413.7012 Q321.8423,413.4315 322.4731,412.8504 Z " fill="#000000"/><text fill="#000000" font-family="sans-serif" font-size="14" lengthAdjust="spacing" textLength="103" x="333.5" y="415.221">InterviewGrade</text><line style="stroke:#181818;stroke-width:0.5;" x1="305.5" x2="438.5" y1="425.93" y2="425.93"/><ellipse cx="315.5" cy="439.6741" fill="none" rx="3" ry="3" style="stroke:#038048;stroke-width:1.0;"/><text fill="#000000" font-family="sans-serif" font-size="14" lengthAdjust="spacing" textLength="66" x="324.5" y="443.4652">grade: int</text><line style="stroke:#181818;stroke-width:0.5;" x1="305.5" x2="438.5" y1="450.4183" y2="450.4183"/></g><!--class Rank--><g id="elem_Rank"><rect codeLine="89" fill="#F1F1F1" height="80.9766" id="Rank" rx="2.5" ry="2.5" style="stroke:#181818;stroke-width:0.5;" width="175" x="1100.5" y="49.25"/><ellipse cx="1166.75" cy="65.25" fill="#ADD1B2" rx="11" ry="11" style="stroke:#181818;stroke-width:1.0;"/><path d="M1169.7231,70.8931 Q1169.1421,71.1919 1168.5029,71.3413 Q1167.8638,71.4907 1167.1582,71.4907 Q1164.6514,71.4907 1163.3315,69.8389 Q1162.0117,68.187 1162.0117,65.0659 Q1162.0117,61.9365 1163.3315,60.2847 Q1164.6514,58.6328 1167.1582,58.6328 Q1167.8638,58.6328 1168.5112,58.7822 Q1169.1587,58.9316 1169.7231,59.2305 L1169.7231,61.9531 Q1169.0923,61.3721 1168.4988,61.1023 Q1167.9053,60.8325 1167.2744,60.8325 Q1165.9297,60.8325 1165.2449,61.8992 Q1164.5601,62.9658 1164.5601,65.0659 Q1164.5601,67.1577 1165.2449,68.2244 Q1165.9297,69.291 1167.2744,69.291 Q1167.9053,69.291 1168.4988,69.0212 Q1169.0923,68.7515 1169.7231,68.1704 Z " fill="#000000"/><text fill="#000000" font-family="sans-serif" font-size="14" lengthAdjust="spacing" textLength="34" x="1187.25" y="70.541">Rank</text><line style="stroke:#181818;stroke-width:0.5;" x1="1101.5" x2="1274.5" y1="81.25" y2="81.25"/><ellipse cx="1111.5" cy="94.9941" fill="none" rx="3" ry="3" style="stroke:#038048;stroke-width:1.0;"/><text fill="#000000" font-family="sans-serif" font-size="14" lengthAdjust="spacing" textLength="69" x="1120.5" y="98.7852">id: RankID</text><ellipse cx="1111.5" cy="111.4824" fill="none" rx="3" ry="3" style="stroke:#038048;stroke-width:1.0;"/><text fill="#000000" font-family="sans-serif" font-size="14" lengthAdjust="spacing" textLength="149" x="1120.5" y="115.2734">rankValue: RankValue</text><line style="stroke:#181818;stroke-width:0.5;" x1="1101.5" x2="1274.5" y1="122.2266" y2="122.2266"/></g><!--class RankID--><g id="elem_RankID"><rect codeLine="94" fill="#F1F1F1" height="64.4883" id="RankID" rx="2.5" ry="2.5" style="stroke:#181818;stroke-width:0.5;" width="80" x="1079" y="244.71"/><ellipse cx="1094" cy="260.71" fill="#ADD1B2" rx="11" ry="11" style="stroke:#181818;stroke-width:1.0;"/><path d="M1096.9731,266.3531 Q1096.3921,266.6519 1095.7529,266.8013 Q1095.1138,266.9507 1094.4082,266.9507 Q1091.9014,266.9507 1090.5815,265.2989 Q1089.2617,263.647 1089.2617,260.5259 Q1089.2617,257.3965 1090.5815,255.7447 Q1091.9014,254.0928 1094.4082,254.0928 Q1095.1138,254.0928 1095.7612,254.2422 Q1096.4087,254.3916 1096.9731,254.6905 L1096.9731,257.4131 Q1096.3423,256.8321 1095.7488,256.5623 Q1095.1553,256.2925 1094.5244,256.2925 Q1093.1797,256.2925 1092.4949,257.3592 Q1091.8101,258.4258 1091.8101,260.5259 Q1091.8101,262.6177 1092.4949,263.6844 Q1093.1797,264.751 1094.5244,264.751 Q1095.1553,264.751 1095.7488,264.4812 Q1096.3423,264.2115 1096.9731,263.6304 Z " fill="#000000"/><text fill="#000000" font-family="sans-serif" font-size="14" lengthAdjust="spacing" textLength="48" x="1108" y="266.001">RankID</text><line style="stroke:#181818;stroke-width:0.5;" x1="1080" x2="1158" y1="276.71" y2="276.71"/><ellipse cx="1090" cy="290.4541" fill="none" rx="3" ry="3" style="stroke:#038048;stroke-width:1.0;"/><text fill="#000000" font-family="sans-serif" font-size="14" lengthAdjust="spacing" textLength="39" x="1099" y="294.2452">id: int</text><line style="stroke:#181818;stroke-width:0.5;" x1="1080" x2="1158" y1="301.1983" y2="301.1983"/></g><!--class RankValue--><g id="elem_RankValue"><rect codeLine="98" fill="#F1F1F1" height="64.4883" id="RankValue" rx="2.5" ry="2.5" style="stroke:#181818;stroke-width:0.5;" width="104" x="1194" y="244.71"/><ellipse cx="1209" cy="260.71" fill="#ADD1B2" rx="11" ry="11" style="stroke:#181818;stroke-width:1.0;"/><path d="M1211.9731,266.3531 Q1211.3921,266.6519 1210.7529,266.8013 Q1210.1138,266.9507 1209.4082,266.9507 Q1206.9014,266.9507 1205.5815,265.2989 Q1204.2617,263.647 1204.2617,260.5259 Q1204.2617,257.3965 1205.5815,255.7447 Q1206.9014,254.0928 1209.4082,254.0928 Q1210.1138,254.0928 1210.7612,254.2422 Q1211.4087,254.3916 1211.9731,254.6905 L1211.9731,257.4131 Q1211.3423,256.8321 1210.7488,256.5623 Q1210.1553,256.2925 1209.5244,256.2925 Q1208.1797,256.2925 1207.4949,257.3592 Q1206.8101,258.4258 1206.8101,260.5259 Q1206.8101,262.6177 1207.4949,263.6844 Q1208.1797,264.751 1209.5244,264.751 Q1210.1553,264.751 1210.7488,264.4812 Q1211.3423,264.2115 1211.9731,263.6304 Z " fill="#000000"/><text fill="#000000" font-family="sans-serif" font-size="14" lengthAdjust="spacing" textLength="72" x="1223" y="266.001">RankValue</text><line style="stroke:#181818;stroke-width:0.5;" x1="1195" x2="1297" y1="276.71" y2="276.71"/><ellipse cx="1205" cy="290.4541" fill="none" rx="3" ry="3" style="stroke:#038048;stroke-width:1.0;"/><text fill="#000000" font-family="sans-serif" font-size="14" lengthAdjust="spacing" textLength="62" x="1214" y="294.2452">value: int</text><line style="stroke:#181818;stroke-width:0.5;" x1="1195" x2="1297" y1="301.1983" y2="301.1983"/></g><!--class Candidate--><g id="elem_Candidate"><rect codeLine="108" fill="#F1F1F1" height="64.4883" id="Candidate" rx="2.5" ry="2.5" style="stroke:#181818;stroke-width:0.5;" width="154" x="1354" y="244.71"/><ellipse cx="1392.4" cy="260.71" fill="#ADD1B2" rx="11" ry="11" style="stroke:#181818;stroke-width:1.0;"/><path d="M1395.3731,266.3531 Q1394.7921,266.6519 1394.1529,266.8013 Q1393.5138,266.9507 1392.8082,266.9507 Q1390.3014,266.9507 1388.9815,265.2989 Q1387.6617,263.647 1387.6617,260.5259 Q1387.6617,257.3965 1388.9815,255.7447 Q1390.3014,254.0928 1392.8082,254.0928 Q1393.5138,254.0928 1394.1612,254.2422 Q1394.8087,254.3916 1395.3731,254.6905 L1395.3731,257.4131 Q1394.7423,256.8321 1394.1488,256.5623 Q1393.5553,256.2925 1392.9244,256.2925 Q1391.5797,256.2925 1390.8949,257.3592 Q1390.2101,258.4258 1390.2101,260.5259 Q1390.2101,262.6177 1390.8949,263.6844 Q1391.5797,264.751 1392.9244,264.751 Q1393.5553,264.751 1394.1488,264.4812 Q1394.7423,264.2115 1395.3731,263.6304 Z " fill="#000000"/><text fill="#000000" font-family="sans-serif" font-size="14" lengthAdjust="spacing" textLength="70" x="1411.6" y="266.001">Candidate</text><line style="stroke:#181818;stroke-width:0.5;" x1="1355" x2="1507" y1="276.71" y2="276.71"/><ellipse cx="1365" cy="290.4541" fill="none" rx="3" ry="3" style="stroke:#038048;stroke-width:1.0;"/><text fill="#000000" font-family="sans-serif" font-size="14" lengthAdjust="spacing" textLength="128" x="1374" y="294.2452">id: CandidateEmail</text><line style="stroke:#181818;stroke-width:0.5;" x1="1355" x2="1507" y1="301.1983" y2="301.1983"/></g><!--link JobOpening to RecruitmentProcess--><g id="link_JobOpening_RecruitmentProcess"><path codeLine="46" d="M803,317.8 C803,338.75 803,358.35 803,379.31 " fill="none" id="JobOpening-to-RecruitmentProcess" style="stroke:#181818;stroke-width:1.0;"/><polygon fill="#181818" points="803,385.31,807,376.31,803,380.31,799,376.31,803,385.31" style="stroke:#181818;stroke-width:1.0;"/></g><!--link RecruitmentProcess to RecruitmentProcessStatus--><g id="link_RecruitmentProcess_RecruitmentProcessStatus"><path codeLine="47" d="M837.74,467.01 C845.41,476.48 853.25,486.72 860,496.67 C871.76,514 880.3933,528.6783 889.9333,546.3783 " fill="none" id="RecruitmentProcess-to-RecruitmentProcessStatus" style="stroke:#181818;stroke-width:1.0;"/><polygon fill="#181818" points="892.78,551.66,892.031,541.8397,890.4077,547.2586,884.9888,545.6353,892.78,551.66" style="stroke:#181818;stroke-width:1.0;"/></g><!--link RecruitmentProcess to Phase--><g id="link_RecruitmentProcess_Phase"><path codeLine="48" d="M769.89,466.97 C762.63,476.44 755.25,486.7 749,496.67 C739.83,511.28 733.6854,522.3996 726.0654,537.8396 " fill="none" id="RecruitmentProcess-to-Phase" style="stroke:#181818;stroke-width:1.0;"/><polygon fill="#181818" points="723.41,543.22,730.98,536.9196,725.6228,538.7363,723.8061,533.3791,723.41,543.22" style="stroke:#181818;stroke-width:1.0;"/><text fill="#000000" font-family="sans-serif" font-size="13" lengthAdjust="spacing" textLength="105" x="750" y="510.2384">Is separated into</text></g><!--link Phase to PhaseName--><g id="link_Phase_PhaseName"><path codeLine="49" d="M654.78,657.67 C640.2,676.58 627.4647,693.0792 612.4147,712.5892 " fill="none" id="Phase-to-PhaseName" style="stroke:#181818;stroke-width:1.0;"/><polygon fill="#181818" points="608.75,717.34,617.4143,712.657,611.8039,713.381,611.0799,707.7707,608.75,717.34" style="stroke:#181818;stroke-width:1.0;"/></g><!--link Phase to StartDate--><g id="link_Phase_StartDate"><path codeLine="50" d="M697.69,657.67 C697.52,688.15 697.3529,718.7301 697.2129,744.2601 " fill="none" id="Phase-to-StartDate" style="stroke:#181818;stroke-width:1.0;"/><polygon fill="#181818" points="697.18,750.26,701.2293,741.2821,697.2074,745.2601,693.2294,741.2382,697.18,750.26" style="stroke:#181818;stroke-width:1.0;"/></g><!--link Phase to EndDate--><g id="link_Phase_EndDate"><path codeLine="51" d="M738.11,657.67 C759.93,688.15 782.617,719.8516 800.897,745.3816 " fill="none" id="Phase-to-EndDate" style="stroke:#181818;stroke-width:1.0;"/><polygon fill="#181818" points="804.39,750.26,802.4027,740.6137,801.4791,746.1947,795.8982,745.2711,804.39,750.26" style="stroke:#181818;stroke-width:1.0;"/></g><!--link Phase to PhaseStatus--><g id="link_Phase_PhaseStatus"><path codeLine="52" d="M778,648.57 C826.52,677.19 881.13,709.75 892,717.62 C902.33,725.1 908.3999,729.8106 918.2699,738.2506 " fill="none" id="Phase-to-PhaseStatus" style="stroke:#181818;stroke-width:1.0;"/><polygon fill="#181818" points="922.83,742.15,918.5895,733.2608,919.0299,738.9005,913.3902,739.3409,922.83,742.15" style="stroke:#181818;stroke-width:1.0;"/></g><!--link JobApplication to RequirementsEvaluation--><g id="link_JobApplication_RequirementsEvaluation"><path codeLine="81" d="M226.8,138.92 C205.62,166.36 182.8373,195.8712 161.6773,223.2712 " fill="none" id="JobApplication-to-RequirementsEvaluation" style="stroke:#181818;stroke-width:1.0;"/><polygon fill="#181818" points="158.01,228.02,166.6768,223.3417,161.0661,224.0627,160.3451,218.452,158.01,228.02" style="stroke:#181818;stroke-width:1.0;"/></g><!--link JobApplication to Interview--><g id="link_JobApplication_Interview"><path codeLine="82" d="M286.63,138.92 C300.83,169.14 316.3579,202.2198 329.7479,230.7098 " fill="none" id="JobApplication-to-Interview" style="stroke:#181818;stroke-width:1.0;"/><polygon fill="#181818" points="332.3,236.14,332.0919,226.2933,330.1732,231.6149,324.8517,229.6962,332.3,236.14" style="stroke:#181818;stroke-width:1.0;"/></g><!--link JobApplication to JobOpening--><g id="link_JobApplication_JobOpening"><path codeLine="83" d="M404.21,138.92 C492.01,169.09 598.1457,205.5599 681.0157,234.0399 " fill="none" id="JobApplication-to-JobOpening" style="stroke:#181818;stroke-width:1.0;"/><polygon fill="#181818" points="686.69,235.99,679.4787,229.282,681.9615,234.3649,676.8786,236.8477,686.69,235.99" style="stroke:#181818;stroke-width:1.0;"/><text fill="#000000" font-family="sans-serif" font-size="13" lengthAdjust="spacing" textLength="56" x="534" y="182.0384">Refers to</text></g><!--link Interview to InterviewDateTime--><g id="link_Interview_InterviewDateTime"><path codeLine="84" d="M307.43,317.8 C281.45,341.56 253.3385,367.2617 229.1085,389.4117 " fill="none" id="Interview-to-InterviewDateTime" style="stroke:#181818;stroke-width:1.0;"/><polygon fill="#181818" points="224.68,393.46,234.0216,390.3399,228.3704,390.0864,228.6238,384.4352,224.68,393.46" style="stroke:#181818;stroke-width:1.0;"/></g><!--link Interview to InterviewGrade--><g id="link_Interview_InterviewGrade"><path codeLine="85" d="M356.68,317.8 C360.08,341.64 363.5037,365.58 366.6637,387.76 " fill="none" id="Interview-to-InterviewGrade" style="stroke:#181818;stroke-width:1.0;"/><polygon fill="#181818" points="367.51,393.7,370.2006,384.2258,366.8048,388.75,362.2806,385.3542,367.51,393.7" style="stroke:#181818;stroke-width:1.0;"/></g><!--link Rank to RankID--><g id="link_Rank_RankID"><path codeLine="102" d="M1173.2,130.47 C1160.53,164.49 1144.6146,207.1875 1132.8946,238.6475 " fill="none" id="Rank-to-RankID" style="stroke:#181818;stroke-width:1.0;"/><polygon fill="#181818" points="1130.8,244.27,1137.6902,237.2326,1132.5455,239.5846,1130.1935,234.4398,1130.8,244.27" style="stroke:#181818;stroke-width:1.0;"/></g><!--link Rank to RankValue--><g id="link_Rank_RankValue"><path codeLine="103" d="M1200.44,130.47 C1211.09,164.49 1224.4372,207.0841 1234.2872,238.5441 " fill="none" id="Rank-to-RankValue" style="stroke:#181818;stroke-width:1.0;"/><polygon fill="#181818" points="1236.08,244.27,1237.2081,234.486,1234.586,239.4984,1229.5736,236.8763,1236.08,244.27" style="stroke:#181818;stroke-width:1.0;"/></g><!--link Rank to JobOpening--><g id="link_Rank_JobOpening"><path codeLine="104" d="M1104.93,130.7 C1040.17,161.86 956.0565,202.3182 891.3265,233.4682 " fill="none" id="Rank-to-JobOpening" style="stroke:#181818;stroke-width:1.0;"/><polygon fill="#181818" points="885.92,236.07,895.7643,235.7717,890.4255,233.9018,892.2953,228.563,885.92,236.07" style="stroke:#181818;stroke-width:1.0;"/><text fill="#000000" font-family="sans-serif" font-size="13" lengthAdjust="spacing" textLength="88" x="1019" y="182.0384">Is assigned to</text></g><!--link Rank to Candidate--><g id="link_Rank_Candidate"><path codeLine="112" d="M1240.43,130.7 C1285.08,164.73 1343.5882,209.3227 1384.7682,240.7127 " fill="none" id="Rank-to-Candidate" style="stroke:#181818;stroke-width:1.0;"/><polygon fill="#181818" points="1389.54,244.35,1384.8072,235.7128,1385.5635,241.3189,1379.9575,242.0752,1389.54,244.35" style="stroke:#181818;stroke-width:1.0;"/><text fill="#000000" font-family="sans-serif" font-size="13" lengthAdjust="spacing" textLength="77" x="1310" y="182.0384">Is ranked by</text></g><!--SRC=[ZLNDRfmm4BxlKrYvjdc1FKH26nfHhGY2JQeU7PWIDwoXs6nLLNtt-cVN7Xjl6v_CD_yptvY9jc-q1_9vV7cSW3FUPtrFVcysH9rse48WaSB9-NnWtLPBQlW6C_0Ml6I6TbwOF0ANrJos8CIMr2lCwFz1OTOgSJZ6fGU4f799UcwCvEmV1QXUgO3Ofm5BUeJ0yoplgOGjQIvNBmNUMLbkB-kCZCjr4i2Nem-7yj0dgwfziSiEnMFvCH0qkphFow9y2E6YFEJrSv5_QK8yAxFzrwQ8q3fldlQ7TKTSURWhdQdEbHOOd6l-lxelrZO2MMWkkO_TC0heLfRNXehSF2b2CibKtCvX1IUONVfyKbhYDGo127rxUtUDcma-fhNHgA_OMEPjoKqXY829pZfhJUVnnfXPkTDqTFHuI4IFOn96NivfgPedl-FPD0sifPADtEvviEP86ky94XNtNbJ3ZuNDe0iM-OaEYz7GMvd2lLt19Smd1Z-tn5qJB4WvGPbLQXdL5DrtrhOmOKBKy1rQ6KxVLkkYua8Tg7jwO4TCx53XOQOT-1SfxVhYvRtR5Nh7LdqoN3GnoywhVKzeXwrFAA1DqJDLJxqWSjpONRiqCF1qgVbVEgOyJCoQyhUOZXgBIQWnpBvPVJ-h8i6Ap7NTLcjrxMUoKZLUiFR9HeWCJ7wcvJwf0FFPE3XeftuCL4pMS_KMw9S0DMH75R4rLUAkE45SZXFaHyg6PABUrWRNtLEXNtwfq7y1]--></g></svg>