<?xml version="1.0" encoding="us-ascii" standalone="no"?><svg xmlns="http://www.w3.org/2000/svg" xmlns:xlink="http://www.w3.org/1999/xlink" contentStyleType="text/css" height="813px" preserveAspectRatio="none" style="width:1047px;height:813px;background:#FFFFFF;" version="1.1" viewBox="0 0 1047 813" width="1047px" zoomAndPan="magnify"><defs/><g><!--cluster JobOpeningAgg--><g id="cluster_JobOpeningAgg"><path d="M489.5,201.47 L603.5,201.47 A3.75,3.75 0 0 1 606,203.97 L613,223.9583 L1037.5,223.9583 A2.5,2.5 0 0 1 1040,226.4583 L1040,803.85 A2.5,2.5 0 0 1 1037.5,806.35 L489.5,806.35 A2.5,2.5 0 0 1 487,803.85 L487,203.97 A2.5,2.5 0 0 1 489.5,201.47 " fill="none" style="stroke:#000000;stroke-width:1.5;"/><line style="stroke:#000000;stroke-width:1.5;" x1="487" x2="613" y1="223.9583" y2="223.9583"/><text fill="#000000" font-family="sans-serif" font-size="14" font-weight="bold" lengthAdjust="spacing" textLength="113" x="491" y="217.0052">JobOpeningAgg</text></g><!--cluster JobApplicationAgg--><g id="cluster_JobApplicationAgg"><path d="M8.5,6 L143.5,6 A3.75,3.75 0 0 1 146,8.5 L153,28.4883 L460.5,28.4883 A2.5,2.5 0 0 1 463,30.9883 L463,463.68 A2.5,2.5 0 0 1 460.5,466.18 L8.5,466.18 A2.5,2.5 0 0 1 6,463.68 L6,8.5 A2.5,2.5 0 0 1 8.5,6 " fill="none" style="stroke:#000000;stroke-width:1.5;"/><line style="stroke:#000000;stroke-width:1.5;" x1="6" x2="153" y1="28.4883" y2="28.4883"/><text fill="#000000" font-family="sans-serif" font-size="14" font-weight="bold" lengthAdjust="spacing" textLength="134" x="10" y="21.5352">JobApplicationAgg</text></g><!--class JobOpening--><g id="elem_JobOpening"><rect codeLine="3" fill="#F1F1F1" height="80.9766" id="JobOpening" rx="2.5" ry="2.5" style="stroke:#181818;stroke-width:0.5;" width="301" x="514.5" y="236.47"/><ellipse cx="620.25" cy="252.47" fill="#ADD1B2" rx="11" ry="11" style="stroke:#181818;stroke-width:1.0;"/><path d="M623.2231,258.1131 Q622.6421,258.4119 622.0029,258.5613 Q621.3638,258.7107 620.6582,258.7107 Q618.1514,258.7107 616.8315,257.0589 Q615.5117,255.407 615.5117,252.2859 Q615.5117,249.1565 616.8315,247.5047 Q618.1514,245.8528 620.6582,245.8528 Q621.3638,245.8528 622.0112,246.0022 Q622.6587,246.1516 623.2231,246.4505 L623.2231,249.1731 Q622.5923,248.5921 621.9988,248.3223 Q621.4053,248.0525 620.7744,248.0525 Q619.4297,248.0525 618.7449,249.1192 Q618.0601,250.1858 618.0601,252.2859 Q618.0601,254.3777 618.7449,255.4444 Q619.4297,256.511 620.7744,256.511 Q621.4053,256.511 621.9988,256.2412 Q622.5923,255.9715 623.2231,255.3904 Z " fill="#000000"/><text fill="#000000" font-family="sans-serif" font-size="14" lengthAdjust="spacing" textLength="81" x="640.75" y="257.761">JobOpening</text><line style="stroke:#181818;stroke-width:0.5;" x1="515.5" x2="814.5" y1="268.47" y2="268.47"/><ellipse cx="525.5" cy="282.2141" fill="none" rx="3" ry="3" style="stroke:#038048;stroke-width:1.0;"/><text fill="#000000" font-family="sans-serif" font-size="14" lengthAdjust="spacing" textLength="111" x="534.5" y="286.0052">id: JobReference</text><ellipse cx="525.5" cy="298.7024" fill="none" rx="3" ry="3" style="stroke:#038048;stroke-width:1.0;"/><text fill="#000000" font-family="sans-serif" font-size="14" lengthAdjust="spacing" textLength="275" x="534.5" y="302.4934">recruitmentProcess: RecruitmentProcess</text><line style="stroke:#181818;stroke-width:0.5;" x1="515.5" x2="814.5" y1="309.4466" y2="309.4466"/></g><!--class RecruitmentProcess--><g id="elem_RecruitmentProcess"><rect codeLine="7" fill="#F1F1F1" height="80.9766" id="RecruitmentProcess" rx="2.5" ry="2.5" style="stroke:#181818;stroke-width:0.5;" width="252" x="572" y="377.44"/><ellipse cx="626.25" cy="393.44" fill="#ADD1B2" rx="11" ry="11" style="stroke:#181818;stroke-width:1.0;"/><path d="M629.2231,399.0831 Q628.6421,399.3819 628.0029,399.5313 Q627.3638,399.6807 626.6582,399.6807 Q624.1514,399.6807 622.8315,398.0289 Q621.5117,396.377 621.5117,393.2559 Q621.5117,390.1265 622.8315,388.4747 Q624.1514,386.8228 626.6582,386.8228 Q627.3638,386.8228 628.0112,386.9722 Q628.6587,387.1216 629.2231,387.4205 L629.2231,390.1431 Q628.5923,389.5621 627.9988,389.2923 Q627.4053,389.0225 626.7744,389.0225 Q625.4297,389.0225 624.7449,390.0892 Q624.0601,391.1558 624.0601,393.2559 Q624.0601,395.3477 624.7449,396.4144 Q625.4297,397.481 626.7744,397.481 Q627.4053,397.481 627.9988,397.2112 Q628.5923,396.9415 629.2231,396.3604 Z " fill="#000000"/><text fill="#000000" font-family="sans-serif" font-size="14" lengthAdjust="spacing" textLength="135" x="646.75" y="398.731">RecruitmentProcess</text><line style="stroke:#181818;stroke-width:0.5;" x1="573" x2="823" y1="409.44" y2="409.44"/><ellipse cx="583" cy="423.1841" fill="none" rx="3" ry="3" style="stroke:#038048;stroke-width:1.0;"/><text fill="#000000" font-family="sans-serif" font-size="14" lengthAdjust="spacing" textLength="39" x="592" y="426.9752">id: int</text><ellipse cx="583" cy="439.6724" fill="none" rx="3" ry="3" style="stroke:#038048;stroke-width:1.0;"/><text fill="#000000" font-family="sans-serif" font-size="14" lengthAdjust="spacing" textLength="226" x="592" y="443.4634">status: RecruitmentProcessStatus</text><line style="stroke:#181818;stroke-width:0.5;" x1="573" x2="823" y1="450.4166" y2="450.4166"/></g><!--class Phase--><g id="elem_Phase"><rect codeLine="12" fill="#F1F1F1" height="113.9531" id="Phase" rx="2.5" ry="2.5" style="stroke:#181818;stroke-width:0.5;" width="159" x="618.5" y="535.42"/><ellipse cx="673.75" cy="551.42" fill="#ADD1B2" rx="11" ry="11" style="stroke:#181818;stroke-width:1.0;"/><path d="M676.7231,557.0631 Q676.1421,557.3619 675.5029,557.5113 Q674.8638,557.6607 674.1582,557.6607 Q671.6514,557.6607 670.3315,556.0089 Q669.0117,554.357 669.0117,551.2359 Q669.0117,548.1065 670.3315,546.4547 Q671.6514,544.8028 674.1582,544.8028 Q674.8638,544.8028 675.5112,544.9522 Q676.1587,545.1016 676.7231,545.4005 L676.7231,548.1231 Q676.0923,547.5421 675.4988,547.2723 Q674.9053,547.0025 674.2744,547.0025 Q672.9297,547.0025 672.2449,548.0692 Q671.5601,549.1358 671.5601,551.2359 Q671.5601,553.3277 672.2449,554.3944 Q672.9297,555.461 674.2744,555.461 Q674.9053,555.461 675.4988,555.1912 Q676.0923,554.9215 676.7231,554.3404 Z " fill="#000000"/><text fill="#000000" font-family="sans-serif" font-size="14" lengthAdjust="spacing" textLength="40" x="694.25" y="556.711">Phase</text><line style="stroke:#181818;stroke-width:0.5;" x1="619.5" x2="776.5" y1="567.42" y2="567.42"/><ellipse cx="629.5" cy="581.1641" fill="none" rx="3" ry="3" style="stroke:#038048;stroke-width:1.0;"/><text fill="#000000" font-family="sans-serif" font-size="14" lengthAdjust="spacing" textLength="100" x="638.5" y="584.9552">id: PhaseName</text><ellipse cx="629.5" cy="597.6524" fill="none" rx="3" ry="3" style="stroke:#038048;stroke-width:1.0;"/><text fill="#000000" font-family="sans-serif" font-size="14" lengthAdjust="spacing" textLength="133" x="638.5" y="601.4434">startDate: StartDate</text><ellipse cx="629.5" cy="614.1407" fill="none" rx="3" ry="3" style="stroke:#038048;stroke-width:1.0;"/><text fill="#000000" font-family="sans-serif" font-size="14" lengthAdjust="spacing" textLength="122" x="638.5" y="617.9317">endDate: EndDate</text><ellipse cx="629.5" cy="630.629" fill="none" rx="3" ry="3" style="stroke:#038048;stroke-width:1.0;"/><text fill="#000000" font-family="sans-serif" font-size="14" lengthAdjust="spacing" textLength="131" x="638.5" y="634.42">status: PhaseStatus</text><line style="stroke:#181818;stroke-width:0.5;" x1="619.5" x2="776.5" y1="641.3731" y2="641.3731"/></g><!--class PhaseName--><g id="elem_PhaseName"><rect codeLine="19" fill="#F1F1F1" height="64.4883" id="PhaseName" rx="2.5" ry="2.5" style="stroke:#181818;stroke-width:0.5;" width="113" x="502.5" y="717.62"/><ellipse cx="518.4" cy="733.62" fill="#ADD1B2" rx="11" ry="11" style="stroke:#181818;stroke-width:1.0;"/><path d="M521.3731,739.2631 Q520.7921,739.5619 520.1529,739.7113 Q519.5138,739.8607 518.8082,739.8607 Q516.3014,739.8607 514.9815,738.2089 Q513.6617,736.557 513.6617,733.4359 Q513.6617,730.3065 514.9815,728.6547 Q516.3014,727.0028 518.8082,727.0028 Q519.5138,727.0028 520.1612,727.1522 Q520.8087,727.3016 521.3731,727.6005 L521.3731,730.3231 Q520.7423,729.7421 520.1488,729.4723 Q519.5553,729.2025 518.9244,729.2025 Q517.5797,729.2025 516.8949,730.2692 Q516.2101,731.3358 516.2101,733.4359 Q516.2101,735.5277 516.8949,736.5944 Q517.5797,737.661 518.9244,737.661 Q519.5553,737.661 520.1488,737.3912 Q520.7423,737.1215 521.3731,736.5404 Z " fill="#000000"/><text fill="#000000" font-family="sans-serif" font-size="14" lengthAdjust="spacing" textLength="79" x="532.6" y="738.911">PhaseName</text><line style="stroke:#181818;stroke-width:0.5;" x1="503.5" x2="614.5" y1="749.62" y2="749.62"/><ellipse cx="513.5" cy="763.3641" fill="none" rx="3" ry="3" style="stroke:#038048;stroke-width:1.0;"/><text fill="#000000" font-family="sans-serif" font-size="14" lengthAdjust="spacing" textLength="87" x="522.5" y="767.1552">name: String</text><line style="stroke:#181818;stroke-width:0.5;" x1="503.5" x2="614.5" y1="774.1083" y2="774.1083"/></g><!--class StartDate--><g id="elem_StartDate"><rect codeLine="23" fill="#F1F1F1" height="64.4883" id="StartDate" rx="2.5" ry="2.5" style="stroke:#181818;stroke-width:0.5;" width="95" x="650.5" y="717.62"/><ellipse cx="665.5" cy="733.62" fill="#ADD1B2" rx="11" ry="11" style="stroke:#181818;stroke-width:1.0;"/><path d="M668.4731,739.2631 Q667.8921,739.5619 667.2529,739.7113 Q666.6138,739.8607 665.9082,739.8607 Q663.4014,739.8607 662.0815,738.2089 Q660.7617,736.557 660.7617,733.4359 Q660.7617,730.3065 662.0815,728.6547 Q663.4014,727.0028 665.9082,727.0028 Q666.6138,727.0028 667.2612,727.1522 Q667.9087,727.3016 668.4731,727.6005 L668.4731,730.3231 Q667.8423,729.7421 667.2488,729.4723 Q666.6553,729.2025 666.0244,729.2025 Q664.6797,729.2025 663.9949,730.2692 Q663.3101,731.3358 663.3101,733.4359 Q663.3101,735.5277 663.9949,736.5944 Q664.6797,737.661 666.0244,737.661 Q666.6553,737.661 667.2488,737.3912 Q667.8423,737.1215 668.4731,736.5404 Z " fill="#000000"/><text fill="#000000" font-family="sans-serif" font-size="14" lengthAdjust="spacing" textLength="63" x="679.5" y="738.911">StartDate</text><line style="stroke:#181818;stroke-width:0.5;" x1="651.5" x2="744.5" y1="749.62" y2="749.62"/><ellipse cx="661.5" cy="763.3641" fill="none" rx="3" ry="3" style="stroke:#038048;stroke-width:1.0;"/><text fill="#000000" font-family="sans-serif" font-size="14" lengthAdjust="spacing" textLength="69" x="670.5" y="767.1552">date: Date</text><line style="stroke:#181818;stroke-width:0.5;" x1="651.5" x2="744.5" y1="774.1083" y2="774.1083"/></g><!--class EndDate--><g id="elem_EndDate"><rect codeLine="27" fill="#F1F1F1" height="64.4883" id="EndDate" rx="2.5" ry="2.5" style="stroke:#181818;stroke-width:0.5;" width="95" x="780.5" y="717.62"/><ellipse cx="798.2" cy="733.62" fill="#ADD1B2" rx="11" ry="11" style="stroke:#181818;stroke-width:1.0;"/><path d="M801.1731,739.2631 Q800.5921,739.5619 799.9529,739.7113 Q799.3138,739.8607 798.6082,739.8607 Q796.1014,739.8607 794.7815,738.2089 Q793.4617,736.557 793.4617,733.4359 Q793.4617,730.3065 794.7815,728.6547 Q796.1014,727.0028 798.6082,727.0028 Q799.3138,727.0028 799.9612,727.1522 Q800.6087,727.3016 801.1731,727.6005 L801.1731,730.3231 Q800.5423,729.7421 799.9488,729.4723 Q799.3553,729.2025 798.7244,729.2025 Q797.3797,729.2025 796.6949,730.2692 Q796.0101,731.3358 796.0101,733.4359 Q796.0101,735.5277 796.6949,736.5944 Q797.3797,737.661 798.7244,737.661 Q799.3553,737.661 799.9488,737.3912 Q800.5423,737.1215 801.1731,736.5404 Z " fill="#000000"/><text fill="#000000" font-family="sans-serif" font-size="14" lengthAdjust="spacing" textLength="57" x="812.8" y="738.911">EndDate</text><line style="stroke:#181818;stroke-width:0.5;" x1="781.5" x2="874.5" y1="749.62" y2="749.62"/><ellipse cx="791.5" cy="763.3641" fill="none" rx="3" ry="3" style="stroke:#038048;stroke-width:1.0;"/><text fill="#000000" font-family="sans-serif" font-size="14" lengthAdjust="spacing" textLength="69" x="800.5" y="767.1552">date: Date</text><line style="stroke:#181818;stroke-width:0.5;" x1="781.5" x2="874.5" y1="774.1083" y2="774.1083"/></g><!--class PhaseStatus--><g id="elem_PhaseStatus"><rect codeLine="31" fill="#F1F1F1" height="80.9766" id="PhaseStatus" rx="2.5" ry="2.5" style="stroke:#181818;stroke-width:0.5;" width="114" x="910" y="709.37"/><ellipse cx="925" cy="725.37" fill="#EB937F" rx="11" ry="11" style="stroke:#181818;stroke-width:1.0;"/><path d="M929.1143,731.37 L921.3945,731.37 L921.3945,718.9769 L929.1143,718.9769 L929.1143,721.1351 L923.8433,721.1351 L923.8433,723.808 L928.6162,723.808 L928.6162,725.9662 L923.8433,725.9662 L923.8433,729.2118 L929.1143,729.2118 Z " fill="#000000"/><text fill="#000000" font-family="sans-serif" font-size="14" lengthAdjust="spacing" textLength="82" x="939" y="730.661">PhaseStatus</text><line style="stroke:#181818;stroke-width:0.5;" x1="911" x2="1023" y1="741.37" y2="741.37"/><text fill="#000000" font-family="sans-serif" font-size="14" lengthAdjust="spacing" textLength="37" x="916" y="758.9052">Open</text><text fill="#000000" font-family="sans-serif" font-size="14" lengthAdjust="spacing" textLength="47" x="916" y="775.3934">Closed</text><line style="stroke:#181818;stroke-width:0.5;" x1="911" x2="1023" y1="782.3466" y2="782.3466"/></g><!--class RecruitmentProcessStatus--><g id="elem_RecruitmentProcessStatus"><rect codeLine="36" fill="#F1F1F1" height="97.4648" id="RecruitmentProcessStatus" rx="2.5" ry="2.5" style="stroke:#181818;stroke-width:0.5;" width="209" x="812.5" y="543.66"/><ellipse cx="827.5" cy="559.66" fill="#EB937F" rx="11" ry="11" style="stroke:#181818;stroke-width:1.0;"/><path d="M831.6143,565.66 L823.8945,565.66 L823.8945,553.2669 L831.6143,553.2669 L831.6143,555.4251 L826.3433,555.4251 L826.3433,558.098 L831.1162,558.098 L831.1162,560.2562 L826.3433,560.2562 L826.3433,563.5018 L831.6143,563.5018 Z " fill="#000000"/><text fill="#000000" font-family="sans-serif" font-size="14" lengthAdjust="spacing" textLength="177" x="841.5" y="564.951">RecruitmentProcessStatus</text><line style="stroke:#181818;stroke-width:0.5;" x1="813.5" x2="1020.5" y1="575.66" y2="575.66"/><text fill="#000000" font-family="sans-serif" font-size="14" lengthAdjust="spacing" textLength="75" x="818.5" y="593.1952">Uninitiated</text><text fill="#000000" font-family="sans-serif" font-size="14" lengthAdjust="spacing" textLength="69" x="818.5" y="609.6834">In Process</text><text fill="#000000" font-family="sans-serif" font-size="14" lengthAdjust="spacing" textLength="58" x="818.5" y="626.1717">Finished</text><line style="stroke:#181818;stroke-width:0.5;" x1="813.5" x2="1020.5" y1="633.1248" y2="633.1248"/></g><!--class JobApplication--><g id="elem_JobApplication"><rect codeLine="52" fill="#F1F1F1" height="97.4648" id="JobApplication" rx="2.5" ry="2.5" style="stroke:#181818;stroke-width:0.5;" width="366" x="81" y="41"/><ellipse cx="209.75" cy="57" fill="#ADD1B2" rx="11" ry="11" style="stroke:#181818;stroke-width:1.0;"/><path d="M212.7231,62.6431 Q212.1421,62.9419 211.5029,63.0913 Q210.8638,63.2407 210.1582,63.2407 Q207.6514,63.2407 206.3315,61.5889 Q205.0117,59.937 205.0117,56.8159 Q205.0117,53.6865 206.3315,52.0347 Q207.6514,50.3828 210.1582,50.3828 Q210.8638,50.3828 211.5112,50.5322 Q212.1587,50.6816 212.7231,50.9805 L212.7231,53.7031 Q212.0923,53.1221 211.4988,52.8523 Q210.9053,52.5825 210.2744,52.5825 Q208.9297,52.5825 208.2449,53.6492 Q207.5601,54.7158 207.5601,56.8159 Q207.5601,58.9077 208.2449,59.9744 Q208.9297,61.041 210.2744,61.041 Q210.9053,61.041 211.4988,60.7712 Q212.0923,60.5015 212.7231,59.9204 Z " fill="#000000"/><text fill="#000000" font-family="sans-serif" font-size="14" lengthAdjust="spacing" textLength="100" x="230.25" y="62.291">JobApplication</text><line style="stroke:#181818;stroke-width:0.5;" x1="82" x2="446" y1="73" y2="73"/><ellipse cx="92" cy="86.7441" fill="none" rx="3" ry="3" style="stroke:#038048;stroke-width:1.0;"/><text fill="#000000" font-family="sans-serif" font-size="14" lengthAdjust="spacing" textLength="113" x="101" y="90.5352">id: ApplicationID</text><ellipse cx="92" cy="103.2324" fill="none" rx="3" ry="3" style="stroke:#038048;stroke-width:1.0;"/><text fill="#000000" font-family="sans-serif" font-size="14" lengthAdjust="spacing" textLength="340" x="101" y="107.0234">RequirementsEvaluation: RequirementsEvaluation</text><ellipse cx="92" cy="119.7207" fill="none" rx="3" ry="3" style="stroke:#038048;stroke-width:1.0;"/><text fill="#000000" font-family="sans-serif" font-size="14" lengthAdjust="spacing" textLength="132" x="101" y="123.5117">Interview: Interview</text><line style="stroke:#181818;stroke-width:0.5;" x1="82" x2="446" y1="130.4648" y2="130.4648"/></g><!--class RequirementsEvaluation--><g id="elem_RequirementsEvaluation"><rect codeLine="58" fill="#F1F1F1" height="80.9766" id="RequirementsEvaluation" rx="2.5" ry="2.5" style="stroke:#181818;stroke-width:0.5;" width="198" x="22" y="236.47"/><ellipse cx="37" cy="252.47" fill="#EB937F" rx="11" ry="11" style="stroke:#181818;stroke-width:1.0;"/><path d="M41.1143,258.47 L33.3945,258.47 L33.3945,246.0769 L41.1143,246.0769 L41.1143,248.2351 L35.8433,248.2351 L35.8433,250.908 L40.6162,250.908 L40.6162,253.0662 L35.8433,253.0662 L35.8433,256.3118 L41.1143,256.3118 Z " fill="#000000"/><text fill="#000000" font-family="sans-serif" font-size="14" lengthAdjust="spacing" textLength="166" x="51" y="257.761">RequirementsEvaluation</text><line style="stroke:#181818;stroke-width:0.5;" x1="23" x2="219" y1="268.47" y2="268.47"/><text fill="#000000" font-family="sans-serif" font-size="14" lengthAdjust="spacing" textLength="63" x="28" y="286.0052">Accepted</text><text fill="#000000" font-family="sans-serif" font-size="14" lengthAdjust="spacing" textLength="58" x="28" y="302.4934">Rejected</text><line style="stroke:#181818;stroke-width:0.5;" x1="23" x2="219" y1="309.4466" y2="309.4466"/></g><!--class Interview--><g id="elem_Interview"><rect codeLine="63" fill="#F1F1F1" height="80.9766" id="Interview" rx="2.5" ry="2.5" style="stroke:#181818;stroke-width:0.5;" width="192" x="255" y="236.47"/><ellipse cx="315.75" cy="252.47" fill="#ADD1B2" rx="11" ry="11" style="stroke:#181818;stroke-width:1.0;"/><path d="M318.7231,258.1131 Q318.1421,258.4119 317.5029,258.5613 Q316.8638,258.7107 316.1582,258.7107 Q313.6514,258.7107 312.3315,257.0589 Q311.0117,255.407 311.0117,252.2859 Q311.0117,249.1565 312.3315,247.5047 Q313.6514,245.8528 316.1582,245.8528 Q316.8638,245.8528 317.5112,246.0022 Q318.1587,246.1516 318.7231,246.4505 L318.7231,249.1731 Q318.0923,248.5921 317.4988,248.3223 Q316.9053,248.0525 316.2744,248.0525 Q314.9297,248.0525 314.2449,249.1192 Q313.5601,250.1858 313.5601,252.2859 Q313.5601,254.3777 314.2449,255.4444 Q314.9297,256.511 316.2744,256.511 Q316.9053,256.511 317.4988,256.2412 Q318.0923,255.9715 318.7231,255.3904 Z " fill="#000000"/><text fill="#000000" font-family="sans-serif" font-size="14" lengthAdjust="spacing" textLength="62" x="336.25" y="257.761">Interview</text><line style="stroke:#181818;stroke-width:0.5;" x1="256" x2="446" y1="268.47" y2="268.47"/><ellipse cx="266" cy="282.2141" fill="none" rx="3" ry="3" style="stroke:#038048;stroke-width:1.0;"/><text fill="#000000" font-family="sans-serif" font-size="14" lengthAdjust="spacing" textLength="166" x="275" y="286.0052">InterviewDateTime: Date</text><ellipse cx="266" cy="298.7024" fill="none" rx="3" ry="3" style="stroke:#038048;stroke-width:1.0;"/><text fill="#000000" font-family="sans-serif" font-size="14" lengthAdjust="spacing" textLength="129" x="275" y="302.4934">InterviewGrade: int</text><line style="stroke:#181818;stroke-width:0.5;" x1="256" x2="446" y1="309.4466" y2="309.4466"/></g><!--class InterviewDateTime--><g id="elem_InterviewDateTime"><rect codeLine="68" fill="#F1F1F1" height="64.4883" id="InterviewDateTime" rx="2.5" ry="2.5" style="stroke:#181818;stroke-width:0.5;" width="159" x="110.5" y="385.69"/><ellipse cx="125.5" cy="401.69" fill="#ADD1B2" rx="11" ry="11" style="stroke:#181818;stroke-width:1.0;"/><path d="M128.4731,407.3331 Q127.8921,407.6319 127.2529,407.7813 Q126.6138,407.9307 125.9082,407.9307 Q123.4014,407.9307 122.0815,406.2789 Q120.7617,404.627 120.7617,401.5059 Q120.7617,398.3765 122.0815,396.7247 Q123.4014,395.0728 125.9082,395.0728 Q126.6138,395.0728 127.2612,395.2222 Q127.9087,395.3716 128.4731,395.6705 L128.4731,398.3931 Q127.8423,397.8121 127.2488,397.5423 Q126.6553,397.2725 126.0244,397.2725 Q124.6797,397.2725 123.9949,398.3392 Q123.3101,399.4058 123.3101,401.5059 Q123.3101,403.5977 123.9949,404.6644 Q124.6797,405.731 126.0244,405.731 Q126.6553,405.731 127.2488,405.4612 Q127.8423,405.1915 128.4731,404.6104 Z " fill="#000000"/><text fill="#000000" font-family="sans-serif" font-size="14" lengthAdjust="spacing" textLength="127" x="139.5" y="406.981">InterviewDateTime</text><line style="stroke:#181818;stroke-width:0.5;" x1="111.5" x2="268.5" y1="417.69" y2="417.69"/><ellipse cx="121.5" cy="431.4341" fill="none" rx="3" ry="3" style="stroke:#038048;stroke-width:1.0;"/><text fill="#000000" font-family="sans-serif" font-size="14" lengthAdjust="spacing" textLength="69" x="130.5" y="435.2252">date: Date</text><line style="stroke:#181818;stroke-width:0.5;" x1="111.5" x2="268.5" y1="442.1783" y2="442.1783"/></g><!--class InterviewGrade--><g id="elem_InterviewGrade"><rect codeLine="72" fill="#F1F1F1" height="64.4883" id="InterviewGrade" rx="2.5" ry="2.5" style="stroke:#181818;stroke-width:0.5;" width="135" x="304.5" y="385.69"/><ellipse cx="319.5" cy="401.69" fill="#ADD1B2" rx="11" ry="11" style="stroke:#181818;stroke-width:1.0;"/><path d="M322.4731,407.3331 Q321.8921,407.6319 321.2529,407.7813 Q320.6138,407.9307 319.9082,407.9307 Q317.4014,407.9307 316.0815,406.2789 Q314.7617,404.627 314.7617,401.5059 Q314.7617,398.3765 316.0815,396.7247 Q317.4014,395.0728 319.9082,395.0728 Q320.6138,395.0728 321.2612,395.2222 Q321.9087,395.3716 322.4731,395.6705 L322.4731,398.3931 Q321.8423,397.8121 321.2488,397.5423 Q320.6553,397.2725 320.0244,397.2725 Q318.6797,397.2725 317.9949,398.3392 Q317.3101,399.4058 317.3101,401.5059 Q317.3101,403.5977 317.9949,404.6644 Q318.6797,405.731 320.0244,405.731 Q320.6553,405.731 321.2488,405.4612 Q321.8423,405.1915 322.4731,404.6104 Z " fill="#000000"/><text fill="#000000" font-family="sans-serif" font-size="14" lengthAdjust="spacing" textLength="103" x="333.5" y="406.981">InterviewGrade</text><line style="stroke:#181818;stroke-width:0.5;" x1="305.5" x2="438.5" y1="417.69" y2="417.69"/><ellipse cx="315.5" cy="431.4341" fill="none" rx="3" ry="3" style="stroke:#038048;stroke-width:1.0;"/><text fill="#000000" font-family="sans-serif" font-size="14" lengthAdjust="spacing" textLength="66" x="324.5" y="435.2252">grade: int</text><line style="stroke:#181818;stroke-width:0.5;" x1="305.5" x2="438.5" y1="442.1783" y2="442.1783"/></g><!--link JobOpening to RecruitmentProcess--><g id="link_JobOpening_RecruitmentProcess"><path codeLine="42" d="M674.46,317.78 C678.88,336.39 682.7335,352.6524 687.1535,371.2624 " fill="none" id="JobOpening-to-RecruitmentProcess" style="stroke:#181818;stroke-width:1.0;"/><polygon fill="#181818" points="688.54,377.1,690.352,367.4193,687.3846,372.2353,682.5686,369.2679,688.54,377.1" style="stroke:#181818;stroke-width:1.0;"/></g><!--link RecruitmentProcess to RecruitmentProcessStatus--><g id="link_RecruitmentProcess_RecruitmentProcessStatus"><path codeLine="43" d="M769.99,458.83 C784.65,467.94 799.66,478.02 813,488.42 C834.04,504.82 851.1283,520.797 868.9083,539.007 " fill="none" id="RecruitmentProcess-to-RecruitmentProcessStatus" style="stroke:#181818;stroke-width:1.0;"/><polygon fill="#181818" points="873.1,543.3,869.6745,534.066,869.607,539.7225,863.9505,539.6549,873.1,543.3" style="stroke:#181818;stroke-width:1.0;"/></g><!--link RecruitmentProcess to Phase--><g id="link_RecruitmentProcess_Phase"><path codeLine="44" d="M698,458.5 C698,481.17 698,504.01 698,529.02 " fill="none" id="RecruitmentProcess-to-Phase" style="stroke:#181818;stroke-width:1.0;"/><polygon fill="#181818" points="698,535.02,702,526.02,698,530.02,694,526.02,698,535.02" style="stroke:#181818;stroke-width:1.0;"/><text fill="#000000" font-family="sans-serif" font-size="13" lengthAdjust="spacing" textLength="105" x="699" y="501.9884">Is separated into</text></g><!--link Phase to PhaseName--><g id="link_Phase_PhaseName"><path codeLine="45" d="M647.82,649.52 C627.44,672.31 608.6579,693.316 591.2779,712.766 " fill="none" id="Phase-to-PhaseName" style="stroke:#181818;stroke-width:1.0;"/><polygon fill="#181818" points="587.28,717.24,596.2595,713.1942,590.6116,713.5116,590.2941,707.8637,587.28,717.24" style="stroke:#181818;stroke-width:1.0;"/></g><!--link Phase to StartDate--><g id="link_Phase_StartDate"><path codeLine="46" d="M698,649.52 C698,672.31 698,691.79 698,711.24 " fill="none" id="Phase-to-StartDate" style="stroke:#181818;stroke-width:1.0;"/><polygon fill="#181818" points="698,717.24,702,708.24,698,712.24,694,708.24,698,717.24" style="stroke:#181818;stroke-width:1.0;"/></g><!--link Phase to EndDate--><g id="link_Phase_EndDate"><path codeLine="47" d="M744.93,649.52 C763.99,672.31 781.4403,693.1879 797.7103,712.6379 " fill="none" id="Phase-to-EndDate" style="stroke:#181818;stroke-width:1.0;"/><polygon fill="#181818" points="801.56,717.24,798.8535,707.7703,798.3519,713.4049,792.7173,712.9033,801.56,717.24" style="stroke:#181818;stroke-width:1.0;"/></g><!--link Phase to PhaseStatus--><g id="link_Phase_PhaseStatus"><path codeLine="48" d="M777.98,639.62 C820.26,664.06 865.9953,690.4875 904.3353,712.6475 " fill="none" id="Phase-to-PhaseStatus" style="stroke:#181818;stroke-width:1.0;"/><polygon fill="#181818" points="909.53,715.65,903.7396,707.6831,905.2011,713.1479,899.7363,714.6094,909.53,715.65" style="stroke:#181818;stroke-width:1.0;"/></g><!--link JobApplication to RequirementsEvaluation--><g id="link_JobApplication_RequirementsEvaluation"><path codeLine="76" d="M226.8,138.92 C203.46,169.14 177.4071,202.9011 155.4071,231.3911 " fill="none" id="JobApplication-to-RequirementsEvaluation" style="stroke:#181818;stroke-width:1.0;"/><polygon fill="#181818" points="151.74,236.14,160.4066,231.4614,154.7959,232.1826,154.0747,226.5719,151.74,236.14" style="stroke:#181818;stroke-width:1.0;"/></g><!--link JobApplication to Interview--><g id="link_JobApplication_Interview"><path codeLine="77" d="M286.63,138.92 C300.83,169.14 316.3579,202.2198 329.7479,230.7098 " fill="none" id="JobApplication-to-Interview" style="stroke:#181818;stroke-width:1.0;"/><polygon fill="#181818" points="332.3,236.14,332.0919,226.2933,330.1732,231.6149,324.8517,229.6962,332.3,236.14" style="stroke:#181818;stroke-width:1.0;"/></g><!--link JobApplication to JobOpening--><g id="link_JobApplication_JobOpening"><path codeLine="78" d="M368.31,138.92 C433.64,169.09 511.363,204.9941 573.023,233.4741 " fill="none" id="JobApplication-to-JobOpening" style="stroke:#181818;stroke-width:1.0;"/><polygon fill="#181818" points="578.47,235.99,571.9767,228.5848,573.9308,233.8934,568.6222,235.8475,578.47,235.99" style="stroke:#181818;stroke-width:1.0;"/><text fill="#000000" font-family="sans-serif" font-size="13" lengthAdjust="spacing" textLength="56" x="465" y="182.0384">Refers to</text></g><!--link Interview to InterviewDateTime--><g id="link_Interview_InterviewDateTime"><path codeLine="79" d="M304.86,317.78 C280.05,339.2 254.4217,361.3191 231.2317,381.3391 " fill="none" id="Interview-to-InterviewDateTime" style="stroke:#181818;stroke-width:1.0;"/><polygon fill="#181818" points="226.69,385.26,236.1164,382.4065,230.4747,381.9926,230.8886,376.3509,226.69,385.26" style="stroke:#181818;stroke-width:1.0;"/></g><!--link Interview to InterviewGrade--><g id="link_Interview_InterviewGrade"><path codeLine="80" d="M357.02,317.78 C360.27,339.28 363.3234,359.5074 366.3534,379.5574 " fill="none" id="Interview-to-InterviewGrade" style="stroke:#181818;stroke-width:1.0;"/><polygon fill="#181818" points="367.25,385.49,369.8603,375.9933,366.5029,380.5461,361.9501,377.1887,367.25,385.49" style="stroke:#181818;stroke-width:1.0;"/></g><!--SRC=[ZLHBJiCm4Dtt55Qtg1V80gcY1OK5L2aSm3X3QaYSO3jbWNftx7piSU8Kl79cthpv-4qQoZvf0UInVdjkG71HR8k2_AnMn1nMKgMGozZ9S6vudbXF1kyWGJ3m7WbCjbnN8FH1rWoKIaWsitNu2qepXqpJSQ6zGMcgsoZpiVCC_2Z1uKGLJ3axunEj862MUaSr9EGuNhqNHDxxzlrbNb57URK8cmyN8iotJIRDZESXhWWSadSrk0A2WA6ol-4WsWgNYoBiYxkFkx9MaCyYbqQFQ5wDRBZc9c_kRAaWM0Fst1kKEeKfaEmsczib1KLK4qUZ1rc8wVMHa7MgY8A6Ibkr5Lszxi9wlqCwqNXxA1TlnrAPi0nbcPuRludRfYavevhNej_6O1cHTwfcv4fttfN1Lyibs8RL_apBjaFOtOdPVLmgDCWpX- -4k6j41J4ILDcMCMYm03Bu0AR3r-wxSrbmOyveP_Z2Aopa4F0WQGx-Fn6d7bd-kqqXEuugekacBzIhSN7E4NGuwWW0ROPzG_C3LaJNgtwtnW46J6FFrp1TUwlBBm00]--></g></svg>