<?xml version="1.0" encoding="us-ascii" standalone="no"?><svg xmlns="http://www.w3.org/2000/svg" xmlns:xlink="http://www.w3.org/1999/xlink" contentStyleType="text/css" height="933px" preserveAspectRatio="none" style="width:1522px;height:933px;background:#FFFFFF;" version="1.1" viewBox="0 0 1522 933" width="1522px" zoomAndPan="magnify"><defs/><g><!--cluster JobOpeningAgg--><g id="cluster_JobOpeningAgg"><path d="M725.5,217.95 L839.5,217.95 A3.75,3.75 0 0 1 842,220.45 L849,240.4383 L1272.5,240.4383 A2.5,2.5 0 0 1 1275,242.9383 L1275,924.29 A2.5,2.5 0 0 1 1272.5,926.79 L725.5,926.79 A2.5,2.5 0 0 1 723,924.29 L723,220.45 A2.5,2.5 0 0 1 725.5,217.95 " fill="none" style="stroke:#000000;stroke-width:1.5;"/><line style="stroke:#000000;stroke-width:1.5;" x1="723" x2="849" y1="240.4383" y2="240.4383"/><text fill="#000000" font-family="sans-serif" font-size="14" font-weight="bold" lengthAdjust="spacing" textLength="113" x="727" y="233.4852">JobOpeningAgg</text></g><!--cluster JobApplicationAgg--><g id="cluster_JobApplicationAgg"><path d="M8.5,6 L143.5,6 A3.75,3.75 0 0 1 146,8.5 L153,28.4883 L696.5,28.4883 A2.5,2.5 0 0 1 699,30.9883 L699,526.41 A2.5,2.5 0 0 1 696.5,528.91 L8.5,528.91 A2.5,2.5 0 0 1 6,526.41 L6,8.5 A2.5,2.5 0 0 1 8.5,6 " fill="none" style="stroke:#000000;stroke-width:1.5;"/><line style="stroke:#000000;stroke-width:1.5;" x1="6" x2="153" y1="28.4883" y2="28.4883"/><text fill="#000000" font-family="sans-serif" font-size="14" font-weight="bold" lengthAdjust="spacing" textLength="134" x="10" y="21.5352">JobApplicationAgg</text></g><!--cluster RankAgg--><g id="cluster_RankAgg"><path d="M1301.5,405.17 L1366.5,405.17 A3.75,3.75 0 0 1 1369,407.67 L1376,427.6583 L1512.5,427.6583 A2.5,2.5 0 0 1 1515,430.1583 L1515,725.6 A2.5,2.5 0 0 1 1512.5,728.1 L1301.5,728.1 A2.5,2.5 0 0 1 1299,725.6 L1299,407.67 A2.5,2.5 0 0 1 1301.5,405.17 " fill="none" style="stroke:#000000;stroke-width:1.5;"/><line style="stroke:#000000;stroke-width:1.5;" x1="1299" x2="1376" y1="427.6583" y2="427.6583"/><text fill="#000000" font-family="sans-serif" font-size="14" font-weight="bold" lengthAdjust="spacing" textLength="64" x="1303" y="420.7052">RankAgg</text></g><!--class JobOpening--><g id="elem_JobOpening"><rect codeLine="3" fill="#F1F1F1" height="80.9766" id="JobOpening" rx="2.5" ry="2.5" style="stroke:#181818;stroke-width:0.5;" width="301" x="834.5" y="252.95"/><ellipse cx="940.25" cy="268.95" fill="#ADD1B2" rx="11" ry="11" style="stroke:#181818;stroke-width:1.0;"/><path d="M943.2231,274.5931 Q942.6421,274.8919 942.0029,275.0413 Q941.3638,275.1907 940.6582,275.1907 Q938.1514,275.1907 936.8315,273.5389 Q935.5117,271.887 935.5117,268.7659 Q935.5117,265.6365 936.8315,263.9847 Q938.1514,262.3328 940.6582,262.3328 Q941.3638,262.3328 942.0112,262.4822 Q942.6587,262.6316 943.2231,262.9305 L943.2231,265.6531 Q942.5923,265.0721 941.9988,264.8023 Q941.4053,264.5325 940.7744,264.5325 Q939.4297,264.5325 938.7449,265.5992 Q938.0601,266.6658 938.0601,268.7659 Q938.0601,270.8577 938.7449,271.9244 Q939.4297,272.991 940.7744,272.991 Q941.4053,272.991 941.9988,272.7212 Q942.5923,272.4515 943.2231,271.8704 Z " fill="#000000"/><text fill="#000000" font-family="sans-serif" font-size="14" lengthAdjust="spacing" textLength="81" x="960.75" y="274.241">JobOpening</text><line style="stroke:#181818;stroke-width:0.5;" x1="835.5" x2="1134.5" y1="284.95" y2="284.95"/><ellipse cx="845.5" cy="298.6941" fill="none" rx="3" ry="3" style="stroke:#038048;stroke-width:1.0;"/><text fill="#000000" font-family="sans-serif" font-size="14" lengthAdjust="spacing" textLength="111" x="854.5" y="302.4852">id: JobReference</text><ellipse cx="845.5" cy="315.1824" fill="none" rx="3" ry="3" style="stroke:#038048;stroke-width:1.0;"/><text fill="#000000" font-family="sans-serif" font-size="14" lengthAdjust="spacing" textLength="275" x="854.5" y="318.9734">recruitmentProcess: RecruitmentProcess</text><line style="stroke:#181818;stroke-width:0.5;" x1="835.5" x2="1134.5" y1="325.9266" y2="325.9266"/></g><!--class JobReference--><g id="elem_JobReference"><rect codeLine="8" fill="#F1F1F1" height="80.9766" id="JobReference" rx="2.5" ry="2.5" style="stroke:#181818;stroke-width:0.5;" width="175" x="761.5" y="440.17"/><ellipse cx="800.35" cy="456.17" fill="#ADD1B2" rx="11" ry="11" style="stroke:#181818;stroke-width:1.0;"/><path d="M803.3231,461.8131 Q802.7421,462.1119 802.1029,462.2613 Q801.4638,462.4107 800.7582,462.4107 Q798.2514,462.4107 796.9315,460.7589 Q795.6117,459.107 795.6117,455.9859 Q795.6117,452.8565 796.9315,451.2047 Q798.2514,449.5528 800.7582,449.5528 Q801.4638,449.5528 802.1112,449.7022 Q802.7587,449.8516 803.3231,450.1505 L803.3231,452.8731 Q802.6923,452.2921 802.0988,452.0223 Q801.5053,451.7525 800.8744,451.7525 Q799.5297,451.7525 798.8449,452.8192 Q798.1601,453.8858 798.1601,455.9859 Q798.1601,458.0777 798.8449,459.1444 Q799.5297,460.211 800.8744,460.211 Q801.5053,460.211 802.0988,459.9412 Q802.6923,459.6715 803.3231,459.0904 Z " fill="#000000"/><text fill="#000000" font-family="sans-serif" font-size="14" lengthAdjust="spacing" textLength="90" x="819.65" y="461.461">JobReference</text><line style="stroke:#181818;stroke-width:0.5;" x1="762.5" x2="935.5" y1="472.17" y2="472.17"/><ellipse cx="772.5" cy="485.9141" fill="none" rx="3" ry="3" style="stroke:#038048;stroke-width:1.0;"/><text fill="#000000" font-family="sans-serif" font-size="14" lengthAdjust="spacing" textLength="149" x="781.5" y="489.7052">customerCode: String</text><ellipse cx="772.5" cy="502.4024" fill="none" rx="3" ry="3" style="stroke:#038048;stroke-width:1.0;"/><text fill="#000000" font-family="sans-serif" font-size="14" lengthAdjust="spacing" textLength="103" x="781.5" y="506.1934">jobNumber: int</text><line style="stroke:#181818;stroke-width:0.5;" x1="762.5" x2="935.5" y1="513.1466" y2="513.1466"/></g><!--class RecruitmentProcess--><g id="elem_RecruitmentProcess"><rect codeLine="13" fill="#F1F1F1" height="97.4648" id="RecruitmentProcess" rx="2.5" ry="2.5" style="stroke:#181818;stroke-width:0.5;" width="252" x="972" y="431.93"/><ellipse cx="1026.25" cy="447.93" fill="#ADD1B2" rx="11" ry="11" style="stroke:#181818;stroke-width:1.0;"/><path d="M1029.2231,453.5731 Q1028.6421,453.8719 1028.0029,454.0213 Q1027.3638,454.1707 1026.6582,454.1707 Q1024.1514,454.1707 1022.8315,452.5189 Q1021.5117,450.867 1021.5117,447.7459 Q1021.5117,444.6165 1022.8315,442.9647 Q1024.1514,441.3128 1026.6582,441.3128 Q1027.3638,441.3128 1028.0112,441.4622 Q1028.6587,441.6116 1029.2231,441.9105 L1029.2231,444.6331 Q1028.5923,444.0521 1027.9988,443.7823 Q1027.4053,443.5125 1026.7744,443.5125 Q1025.4297,443.5125 1024.7449,444.5792 Q1024.0601,445.6458 1024.0601,447.7459 Q1024.0601,449.8377 1024.7449,450.9044 Q1025.4297,451.971 1026.7744,451.971 Q1027.4053,451.971 1027.9988,451.7012 Q1028.5923,451.4315 1029.2231,450.8504 Z " fill="#000000"/><text fill="#000000" font-family="sans-serif" font-size="14" lengthAdjust="spacing" textLength="135" x="1046.75" y="453.221">RecruitmentProcess</text><line style="stroke:#181818;stroke-width:0.5;" x1="973" x2="1223" y1="463.93" y2="463.93"/><ellipse cx="983" cy="477.6741" fill="none" rx="3" ry="3" style="stroke:#038048;stroke-width:1.0;"/><text fill="#000000" font-family="sans-serif" font-size="14" lengthAdjust="spacing" textLength="39" x="992" y="481.4652">id: int</text><ellipse cx="983" cy="494.1624" fill="none" rx="3" ry="3" style="stroke:#038048;stroke-width:1.0;"/><text fill="#000000" font-family="sans-serif" font-size="14" lengthAdjust="spacing" textLength="226" x="992" y="497.9534">status: RecruitmentProcessStatus</text><ellipse cx="983" cy="510.6507" fill="none" rx="3" ry="3" style="stroke:#038048;stroke-width:1.0;"/><text fill="#000000" font-family="sans-serif" font-size="14" lengthAdjust="spacing" textLength="141" x="992" y="514.4417">phases: List&lt;Phase&gt;</text><line style="stroke:#181818;stroke-width:0.5;" x1="973" x2="1223" y1="521.3948" y2="521.3948"/></g><!--class Phase--><g id="elem_Phase"><rect codeLine="19" fill="#F1F1F1" height="113.9531" id="Phase" rx="2.5" ry="2.5" style="stroke:#181818;stroke-width:0.5;" width="159" x="854.5" y="606.4"/><ellipse cx="909.75" cy="622.4" fill="#ADD1B2" rx="11" ry="11" style="stroke:#181818;stroke-width:1.0;"/><path d="M912.7231,628.0431 Q912.1421,628.3419 911.5029,628.4913 Q910.8638,628.6407 910.1582,628.6407 Q907.6514,628.6407 906.3315,626.9889 Q905.0117,625.337 905.0117,622.2159 Q905.0117,619.0865 906.3315,617.4347 Q907.6514,615.7828 910.1582,615.7828 Q910.8638,615.7828 911.5112,615.9322 Q912.1587,616.0816 912.7231,616.3805 L912.7231,619.1031 Q912.0923,618.5221 911.4988,618.2523 Q910.9053,617.9825 910.2744,617.9825 Q908.9297,617.9825 908.2449,619.0492 Q907.5601,620.1158 907.5601,622.2159 Q907.5601,624.3077 908.2449,625.3744 Q908.9297,626.441 910.2744,626.441 Q910.9053,626.441 911.4988,626.1712 Q912.0923,625.9015 912.7231,625.3204 Z " fill="#000000"/><text fill="#000000" font-family="sans-serif" font-size="14" lengthAdjust="spacing" textLength="40" x="930.25" y="627.691">Phase</text><line style="stroke:#181818;stroke-width:0.5;" x1="855.5" x2="1012.5" y1="638.4" y2="638.4"/><ellipse cx="865.5" cy="652.1441" fill="none" rx="3" ry="3" style="stroke:#038048;stroke-width:1.0;"/><text fill="#000000" font-family="sans-serif" font-size="14" lengthAdjust="spacing" textLength="100" x="874.5" y="655.9352">id: PhaseName</text><ellipse cx="865.5" cy="668.6324" fill="none" rx="3" ry="3" style="stroke:#038048;stroke-width:1.0;"/><text fill="#000000" font-family="sans-serif" font-size="14" lengthAdjust="spacing" textLength="133" x="874.5" y="672.4234">startDate: StartDate</text><ellipse cx="865.5" cy="685.1207" fill="none" rx="3" ry="3" style="stroke:#038048;stroke-width:1.0;"/><text fill="#000000" font-family="sans-serif" font-size="14" lengthAdjust="spacing" textLength="122" x="874.5" y="688.9117">endDate: EndDate</text><ellipse cx="865.5" cy="701.609" fill="none" rx="3" ry="3" style="stroke:#038048;stroke-width:1.0;"/><text fill="#000000" font-family="sans-serif" font-size="14" lengthAdjust="spacing" textLength="131" x="874.5" y="705.4">status: PhaseStatus</text><line style="stroke:#181818;stroke-width:0.5;" x1="855.5" x2="1012.5" y1="712.3531" y2="712.3531"/></g><!--class PhaseName--><g id="elem_PhaseName"><rect codeLine="26" fill="#F1F1F1" height="130.4414" id="PhaseName" rx="2.5" ry="2.5" style="stroke:#181818;stroke-width:0.5;" width="111" x="739.5" y="780.35"/><ellipse cx="754.5" cy="796.35" fill="#EB937F" rx="11" ry="11" style="stroke:#181818;stroke-width:1.0;"/><path d="M758.6143,802.35 L750.8945,802.35 L750.8945,789.9569 L758.6143,789.9569 L758.6143,792.1151 L753.3433,792.1151 L753.3433,794.788 L758.1162,794.788 L758.1162,796.9462 L753.3433,796.9462 L753.3433,800.1918 L758.6143,800.1918 Z " fill="#000000"/><text fill="#000000" font-family="sans-serif" font-size="14" lengthAdjust="spacing" textLength="79" x="768.5" y="801.641">PhaseName</text><line style="stroke:#181818;stroke-width:0.5;" x1="740.5" x2="849.5" y1="812.35" y2="812.35"/><text fill="#000000" font-family="sans-serif" font-size="14" lengthAdjust="spacing" textLength="95" x="745.5" y="829.8852">APPLICATION,</text><text fill="#000000" font-family="sans-serif" font-size="14" lengthAdjust="spacing" textLength="81" x="745.5" y="846.3734">SCREENING,</text><text fill="#000000" font-family="sans-serif" font-size="14" lengthAdjust="spacing" textLength="85" x="745.5" y="862.8617">INTERVIEWS,</text><text fill="#000000" font-family="sans-serif" font-size="14" lengthAdjust="spacing" textLength="70" x="745.5" y="879.35">ANALYSIS,</text><text fill="#000000" font-family="sans-serif" font-size="14" lengthAdjust="spacing" textLength="51" x="745.5" y="895.8383">RESULT</text><line style="stroke:#181818;stroke-width:0.5;" x1="740.5" x2="849.5" y1="902.7914" y2="902.7914"/></g><!--class StartDate--><g id="elem_StartDate"><rect codeLine="34" fill="#F1F1F1" height="64.4883" id="StartDate" rx="2.5" ry="2.5" style="stroke:#181818;stroke-width:0.5;" width="95" x="885.5" y="813.33"/><ellipse cx="900.5" cy="829.33" fill="#ADD1B2" rx="11" ry="11" style="stroke:#181818;stroke-width:1.0;"/><path d="M903.4731,834.9731 Q902.8921,835.2719 902.2529,835.4213 Q901.6138,835.5707 900.9082,835.5707 Q898.4014,835.5707 897.0815,833.9189 Q895.7617,832.267 895.7617,829.1459 Q895.7617,826.0165 897.0815,824.3647 Q898.4014,822.7128 900.9082,822.7128 Q901.6138,822.7128 902.2612,822.8622 Q902.9087,823.0116 903.4731,823.3105 L903.4731,826.0331 Q902.8423,825.4521 902.2488,825.1823 Q901.6553,824.9125 901.0244,824.9125 Q899.6797,824.9125 898.9949,825.9792 Q898.3101,827.0458 898.3101,829.1459 Q898.3101,831.2377 898.9949,832.3044 Q899.6797,833.371 901.0244,833.371 Q901.6553,833.371 902.2488,833.1012 Q902.8423,832.8315 903.4731,832.2504 Z " fill="#000000"/><text fill="#000000" font-family="sans-serif" font-size="14" lengthAdjust="spacing" textLength="63" x="914.5" y="834.621">StartDate</text><line style="stroke:#181818;stroke-width:0.5;" x1="886.5" x2="979.5" y1="845.33" y2="845.33"/><ellipse cx="896.5" cy="859.0741" fill="none" rx="3" ry="3" style="stroke:#038048;stroke-width:1.0;"/><text fill="#000000" font-family="sans-serif" font-size="14" lengthAdjust="spacing" textLength="69" x="905.5" y="862.8652">date: Date</text><line style="stroke:#181818;stroke-width:0.5;" x1="886.5" x2="979.5" y1="869.8183" y2="869.8183"/></g><!--class EndDate--><g id="elem_EndDate"><rect codeLine="38" fill="#F1F1F1" height="64.4883" id="EndDate" rx="2.5" ry="2.5" style="stroke:#181818;stroke-width:0.5;" width="95" x="1015.5" y="813.33"/><ellipse cx="1033.2" cy="829.33" fill="#ADD1B2" rx="11" ry="11" style="stroke:#181818;stroke-width:1.0;"/><path d="M1036.1731,834.9731 Q1035.5921,835.2719 1034.9529,835.4213 Q1034.3138,835.5707 1033.6082,835.5707 Q1031.1014,835.5707 1029.7815,833.9189 Q1028.4617,832.267 1028.4617,829.1459 Q1028.4617,826.0165 1029.7815,824.3647 Q1031.1014,822.7128 1033.6082,822.7128 Q1034.3138,822.7128 1034.9612,822.8622 Q1035.6087,823.0116 1036.1731,823.3105 L1036.1731,826.0331 Q1035.5423,825.4521 1034.9488,825.1823 Q1034.3553,824.9125 1033.7244,824.9125 Q1032.3797,824.9125 1031.6949,825.9792 Q1031.0101,827.0458 1031.0101,829.1459 Q1031.0101,831.2377 1031.6949,832.3044 Q1032.3797,833.371 1033.7244,833.371 Q1034.3553,833.371 1034.9488,833.1012 Q1035.5423,832.8315 1036.1731,832.2504 Z " fill="#000000"/><text fill="#000000" font-family="sans-serif" font-size="14" lengthAdjust="spacing" textLength="57" x="1047.8" y="834.621">EndDate</text><line style="stroke:#181818;stroke-width:0.5;" x1="1016.5" x2="1109.5" y1="845.33" y2="845.33"/><ellipse cx="1026.5" cy="859.0741" fill="none" rx="3" ry="3" style="stroke:#038048;stroke-width:1.0;"/><text fill="#000000" font-family="sans-serif" font-size="14" lengthAdjust="spacing" textLength="69" x="1035.5" y="862.8652">date: Date</text><line style="stroke:#181818;stroke-width:0.5;" x1="1016.5" x2="1109.5" y1="869.8183" y2="869.8183"/></g><!--class PhaseStatus--><g id="elem_PhaseStatus"><rect codeLine="42" fill="#F1F1F1" height="80.9766" id="PhaseStatus" rx="2.5" ry="2.5" style="stroke:#181818;stroke-width:0.5;" width="114" x="1145" y="805.08"/><ellipse cx="1160" cy="821.08" fill="#EB937F" rx="11" ry="11" style="stroke:#181818;stroke-width:1.0;"/><path d="M1164.1143,827.08 L1156.3945,827.08 L1156.3945,814.6869 L1164.1143,814.6869 L1164.1143,816.8451 L1158.8433,816.8451 L1158.8433,819.518 L1163.6162,819.518 L1163.6162,821.6762 L1158.8433,821.6762 L1158.8433,824.9218 L1164.1143,824.9218 Z " fill="#000000"/><text fill="#000000" font-family="sans-serif" font-size="14" lengthAdjust="spacing" textLength="82" x="1174" y="826.371">PhaseStatus</text><line style="stroke:#181818;stroke-width:0.5;" x1="1146" x2="1258" y1="837.08" y2="837.08"/><text fill="#000000" font-family="sans-serif" font-size="14" lengthAdjust="spacing" textLength="37" x="1151" y="854.6152">OPEN</text><text fill="#000000" font-family="sans-serif" font-size="14" lengthAdjust="spacing" textLength="54" x="1151" y="871.1034">CLOSED</text><line style="stroke:#181818;stroke-width:0.5;" x1="1146" x2="1258" y1="878.0566" y2="878.0566"/></g><!--class RecruitmentProcessStatus--><g id="elem_RecruitmentProcessStatus"><rect codeLine="47" fill="#F1F1F1" height="97.4648" id="RecruitmentProcessStatus" rx="2.5" ry="2.5" style="stroke:#181818;stroke-width:0.5;" width="209" x="1048.5" y="614.64"/><ellipse cx="1063.5" cy="630.64" fill="#EB937F" rx="11" ry="11" style="stroke:#181818;stroke-width:1.0;"/><path d="M1067.6143,636.64 L1059.8945,636.64 L1059.8945,624.2469 L1067.6143,624.2469 L1067.6143,626.4051 L1062.3433,626.4051 L1062.3433,629.078 L1067.1162,629.078 L1067.1162,631.2362 L1062.3433,631.2362 L1062.3433,634.4818 L1067.6143,634.4818 Z " fill="#000000"/><text fill="#000000" font-family="sans-serif" font-size="14" lengthAdjust="spacing" textLength="177" x="1077.5" y="635.931">RecruitmentProcessStatus</text><line style="stroke:#181818;stroke-width:0.5;" x1="1049.5" x2="1256.5" y1="646.64" y2="646.64"/><text fill="#000000" font-family="sans-serif" font-size="14" lengthAdjust="spacing" textLength="98" x="1054.5" y="664.1752">UNINITIALIZED</text><text fill="#000000" font-family="sans-serif" font-size="14" lengthAdjust="spacing" textLength="92" x="1054.5" y="680.6634">IN_PROGRESS</text><text fill="#000000" font-family="sans-serif" font-size="14" lengthAdjust="spacing" textLength="62" x="1054.5" y="697.1517">FINISHED</text><line style="stroke:#181818;stroke-width:0.5;" x1="1049.5" x2="1256.5" y1="704.1048" y2="704.1048"/></g><!--class JobApplication--><g id="elem_JobApplication"><rect codeLine="64" fill="#F1F1F1" height="113.9531" id="JobApplication" rx="2.5" ry="2.5" style="stroke:#181818;stroke-width:0.5;" width="363" x="234.5" y="41"/><ellipse cx="361.75" cy="57" fill="#ADD1B2" rx="11" ry="11" style="stroke:#181818;stroke-width:1.0;"/><path d="M364.7231,62.6431 Q364.1421,62.9419 363.5029,63.0913 Q362.8638,63.2407 362.1582,63.2407 Q359.6514,63.2407 358.3315,61.5889 Q357.0117,59.937 357.0117,56.8159 Q357.0117,53.6865 358.3315,52.0347 Q359.6514,50.3828 362.1582,50.3828 Q362.8638,50.3828 363.5112,50.5322 Q364.1587,50.6816 364.7231,50.9805 L364.7231,53.7031 Q364.0923,53.1221 363.4988,52.8523 Q362.9053,52.5825 362.2744,52.5825 Q360.9297,52.5825 360.2449,53.6492 Q359.5601,54.7158 359.5601,56.8159 Q359.5601,58.9077 360.2449,59.9744 Q360.9297,61.041 362.2744,61.041 Q362.9053,61.041 363.4988,60.7712 Q364.0923,60.5015 364.7231,59.9204 Z " fill="#000000"/><text fill="#000000" font-family="sans-serif" font-size="14" lengthAdjust="spacing" textLength="100" x="382.25" y="62.291">JobApplication</text><line style="stroke:#181818;stroke-width:0.5;" x1="235.5" x2="596.5" y1="73" y2="73"/><ellipse cx="245.5" cy="86.7441" fill="none" rx="3" ry="3" style="stroke:#038048;stroke-width:1.0;"/><text fill="#000000" font-family="sans-serif" font-size="14" lengthAdjust="spacing" textLength="55" x="254.5" y="90.5352">id: Long</text><ellipse cx="245.5" cy="103.2324" fill="none" rx="3" ry="3" style="stroke:#038048;stroke-width:1.0;"/><text fill="#000000" font-family="sans-serif" font-size="14" lengthAdjust="spacing" textLength="337" x="254.5" y="107.0234">requirementsEvaluation: RequirementsEvaluation</text><ellipse cx="245.5" cy="119.7207" fill="none" rx="3" ry="3" style="stroke:#038048;stroke-width:1.0;"/><text fill="#000000" font-family="sans-serif" font-size="14" lengthAdjust="spacing" textLength="253" x="254.5" y="123.5117">notificationStatus : NotificationStatus</text><ellipse cx="245.5" cy="136.209" fill="none" rx="3" ry="3" style="stroke:#038048;stroke-width:1.0;"/><text fill="#000000" font-family="sans-serif" font-size="14" lengthAdjust="spacing" textLength="132" x="254.5" y="140">interview: Interview</text><line style="stroke:#181818;stroke-width:0.5;" x1="235.5" x2="596.5" y1="146.9531" y2="146.9531"/></g><!--class RequirementsEvaluation--><g id="elem_RequirementsEvaluation"><rect codeLine="71" fill="#F1F1F1" height="97.4648" id="RequirementsEvaluation" rx="2.5" ry="2.5" style="stroke:#181818;stroke-width:0.5;" width="198" x="22" y="244.71"/><ellipse cx="37" cy="260.71" fill="#EB937F" rx="11" ry="11" style="stroke:#181818;stroke-width:1.0;"/><path d="M41.1143,266.71 L33.3945,266.71 L33.3945,254.3169 L41.1143,254.3169 L41.1143,256.4751 L35.8433,256.4751 L35.8433,259.148 L40.6162,259.148 L40.6162,261.3062 L35.8433,261.3062 L35.8433,264.5518 L41.1143,264.5518 Z " fill="#000000"/><text fill="#000000" font-family="sans-serif" font-size="14" lengthAdjust="spacing" textLength="166" x="51" y="266.001">RequirementsEvaluation</text><line style="stroke:#181818;stroke-width:0.5;" x1="23" x2="219" y1="276.71" y2="276.71"/><text fill="#000000" font-family="sans-serif" font-size="14" lengthAdjust="spacing" textLength="60" x="28" y="294.2452">PENDING</text><text fill="#000000" font-family="sans-serif" font-size="14" lengthAdjust="spacing" textLength="73" x="28" y="310.7334">ACCEPTED</text><text fill="#000000" font-family="sans-serif" font-size="14" lengthAdjust="spacing" textLength="66" x="28" y="327.2217">REJECTED</text><line style="stroke:#181818;stroke-width:0.5;" x1="23" x2="219" y1="334.1748" y2="334.1748"/></g><!--class NotificationStatus--><g id="elem_NotificationStatus"><rect codeLine="77" fill="#F1F1F1" height="80.9766" id="NotificationStatus" rx="2.5" ry="2.5" style="stroke:#181818;stroke-width:0.5;" width="153" x="255.5" y="252.95"/><ellipse cx="270.5" cy="268.95" fill="#EB937F" rx="11" ry="11" style="stroke:#181818;stroke-width:1.0;"/><path d="M274.6143,274.95 L266.8945,274.95 L266.8945,262.5569 L274.6143,262.5569 L274.6143,264.7151 L269.3433,264.7151 L269.3433,267.388 L274.1162,267.388 L274.1162,269.5462 L269.3433,269.5462 L269.3433,272.7918 L274.6143,272.7918 Z " fill="#000000"/><text fill="#000000" font-family="sans-serif" font-size="14" lengthAdjust="spacing" textLength="121" x="284.5" y="274.241">NotificationStatus</text><line style="stroke:#181818;stroke-width:0.5;" x1="256.5" x2="407.5" y1="284.95" y2="284.95"/><text fill="#000000" font-family="sans-serif" font-size="14" lengthAdjust="spacing" textLength="56" x="261.5" y="302.4852">UNSEND</text><text fill="#000000" font-family="sans-serif" font-size="14" lengthAdjust="spacing" textLength="36" x="261.5" y="318.9734">SEND</text><line style="stroke:#181818;stroke-width:0.5;" x1="256.5" x2="407.5" y1="325.9266" y2="325.9266"/></g><!--class Interview--><g id="elem_Interview"><rect codeLine="82" fill="#F1F1F1" height="64.4883" id="Interview" rx="2.5" ry="2.5" style="stroke:#181818;stroke-width:0.5;" width="240" x="443" y="261.2"/><ellipse cx="527.75" cy="277.2" fill="#ADD1B2" rx="11" ry="11" style="stroke:#181818;stroke-width:1.0;"/><path d="M530.7231,282.8431 Q530.1421,283.1419 529.5029,283.2913 Q528.8638,283.4407 528.1582,283.4407 Q525.6514,283.4407 524.3315,281.7889 Q523.0117,280.137 523.0117,277.0159 Q523.0117,273.8865 524.3315,272.2347 Q525.6514,270.5828 528.1582,270.5828 Q528.8638,270.5828 529.5112,270.7322 Q530.1587,270.8816 530.7231,271.1805 L530.7231,273.9031 Q530.0923,273.3221 529.4988,273.0523 Q528.9053,272.7825 528.2744,272.7825 Q526.9297,272.7825 526.2449,273.8492 Q525.5601,274.9158 525.5601,277.0159 Q525.5601,279.1077 526.2449,280.1744 Q526.9297,281.241 528.2744,281.241 Q528.9053,281.241 529.4988,280.9712 Q530.0923,280.7015 530.7231,280.1204 Z " fill="#000000"/><text fill="#000000" font-family="sans-serif" font-size="14" lengthAdjust="spacing" textLength="62" x="548.25" y="282.491">Interview</text><line style="stroke:#181818;stroke-width:0.5;" x1="444" x2="682" y1="293.2" y2="293.2"/><ellipse cx="454" cy="306.9441" fill="none" rx="3" ry="3" style="stroke:#038048;stroke-width:1.0;"/><text fill="#000000" font-family="sans-serif" font-size="14" lengthAdjust="spacing" textLength="214" x="463" y="310.7352">interviewGrade: InterviewGrade</text><line style="stroke:#181818;stroke-width:0.5;" x1="444" x2="682" y1="317.6883" y2="317.6883"/></g><!--class InterviewGrade--><g id="elem_InterviewGrade"><rect codeLine="86" fill="#F1F1F1" height="64.4883" id="InterviewGrade" rx="2.5" ry="2.5" style="stroke:#181818;stroke-width:0.5;" width="135" x="495.5" y="448.42"/><ellipse cx="510.5" cy="464.42" fill="#ADD1B2" rx="11" ry="11" style="stroke:#181818;stroke-width:1.0;"/><path d="M513.4731,470.0631 Q512.8921,470.3619 512.2529,470.5113 Q511.6138,470.6607 510.9082,470.6607 Q508.4014,470.6607 507.0815,469.0089 Q505.7617,467.357 505.7617,464.2359 Q505.7617,461.1065 507.0815,459.4547 Q508.4014,457.8028 510.9082,457.8028 Q511.6138,457.8028 512.2612,457.9522 Q512.9087,458.1016 513.4731,458.4005 L513.4731,461.1231 Q512.8423,460.5421 512.2488,460.2723 Q511.6553,460.0025 511.0244,460.0025 Q509.6797,460.0025 508.9949,461.0692 Q508.3101,462.1358 508.3101,464.2359 Q508.3101,466.3277 508.9949,467.3944 Q509.6797,468.461 511.0244,468.461 Q511.6553,468.461 512.2488,468.1912 Q512.8423,467.9215 513.4731,467.3404 Z " fill="#000000"/><text fill="#000000" font-family="sans-serif" font-size="14" lengthAdjust="spacing" textLength="103" x="524.5" y="469.711">InterviewGrade</text><line style="stroke:#181818;stroke-width:0.5;" x1="496.5" x2="629.5" y1="480.42" y2="480.42"/><ellipse cx="506.5" cy="494.1641" fill="none" rx="3" ry="3" style="stroke:#038048;stroke-width:1.0;"/><text fill="#000000" font-family="sans-serif" font-size="14" lengthAdjust="spacing" textLength="66" x="515.5" y="497.9552">grade: int</text><line style="stroke:#181818;stroke-width:0.5;" x1="496.5" x2="629.5" y1="504.9083" y2="504.9083"/></g><!--class Rank--><g id="elem_Rank"><rect codeLine="98" fill="#F1F1F1" height="80.9766" id="Rank" rx="2.5" ry="2.5" style="stroke:#181818;stroke-width:0.5;" width="183" x="1315.5" y="440.17"/><ellipse cx="1385.75" cy="456.17" fill="#ADD1B2" rx="11" ry="11" style="stroke:#181818;stroke-width:1.0;"/><path d="M1388.7231,461.8131 Q1388.1421,462.1119 1387.5029,462.2613 Q1386.8638,462.4107 1386.1582,462.4107 Q1383.6514,462.4107 1382.3315,460.7589 Q1381.0117,459.107 1381.0117,455.9859 Q1381.0117,452.8565 1382.3315,451.2047 Q1383.6514,449.5528 1386.1582,449.5528 Q1386.8638,449.5528 1387.5112,449.7022 Q1388.1587,449.8516 1388.7231,450.1505 L1388.7231,452.8731 Q1388.0923,452.2921 1387.4988,452.0223 Q1386.9053,451.7525 1386.2744,451.7525 Q1384.9297,451.7525 1384.2449,452.8192 Q1383.5601,453.8858 1383.5601,455.9859 Q1383.5601,458.0777 1384.2449,459.1444 Q1384.9297,460.211 1386.2744,460.211 Q1386.9053,460.211 1387.4988,459.9412 Q1388.0923,459.6715 1388.7231,459.0904 Z " fill="#000000"/><text fill="#000000" font-family="sans-serif" font-size="14" lengthAdjust="spacing" textLength="34" x="1406.25" y="461.461">Rank</text><line style="stroke:#181818;stroke-width:0.5;" x1="1316.5" x2="1497.5" y1="472.17" y2="472.17"/><ellipse cx="1326.5" cy="485.9141" fill="none" rx="3" ry="3" style="stroke:#038048;stroke-width:1.0;"/><text fill="#000000" font-family="sans-serif" font-size="14" lengthAdjust="spacing" textLength="55" x="1335.5" y="489.7052">id: Long</text><ellipse cx="1326.5" cy="502.4024" fill="none" rx="3" ry="3" style="stroke:#038048;stroke-width:1.0;"/><text fill="#000000" font-family="sans-serif" font-size="14" lengthAdjust="spacing" textLength="157" x="1335.5" y="506.1934">rankStatus: RankStatus</text><line style="stroke:#181818;stroke-width:0.5;" x1="1316.5" x2="1497.5" y1="513.1466" y2="513.1466"/></g><!--class RankStatus--><g id="elem_RankStatus"><rect codeLine="103" fill="#F1F1F1" height="97.4648" id="RankStatus" rx="2.5" ry="2.5" style="stroke:#181818;stroke-width:0.5;" width="108" x="1353" y="614.64"/><ellipse cx="1368" cy="630.64" fill="#EB937F" rx="11" ry="11" style="stroke:#181818;stroke-width:1.0;"/><path d="M1372.1143,636.64 L1364.3945,636.64 L1364.3945,624.2469 L1372.1143,624.2469 L1372.1143,626.4051 L1366.8433,626.4051 L1366.8433,629.078 L1371.6162,629.078 L1371.6162,631.2362 L1366.8433,631.2362 L1366.8433,634.4818 L1372.1143,634.4818 Z " fill="#000000"/><text fill="#000000" font-family="sans-serif" font-size="14" lengthAdjust="spacing" textLength="76" x="1382" y="635.931">RankStatus</text><line style="stroke:#181818;stroke-width:0.5;" x1="1354" x2="1460" y1="646.64" y2="646.64"/><text fill="#000000" font-family="sans-serif" font-size="14" lengthAdjust="spacing" textLength="87" x="1359" y="664.1752">UNSTARTED,</text><text fill="#000000" font-family="sans-serif" font-size="14" lengthAdjust="spacing" textLength="67" x="1359" y="680.6634">STARTED,</text><text fill="#000000" font-family="sans-serif" font-size="14" lengthAdjust="spacing" textLength="62" x="1359" y="697.1517">FINISHED</text><line style="stroke:#181818;stroke-width:0.5;" x1="1354" x2="1460" y1="704.1048" y2="704.1048"/></g><!--link JobOpening to RecruitmentProcess--><g id="link_JobOpening_RecruitmentProcess"><path codeLine="53" d="M1009.24,334.18 C1026.62,362.66 1047.0058,396.0676 1065.4558,426.3176 " fill="none" id="JobOpening-to-RecruitmentProcess" style="stroke:#181818;stroke-width:1.0;"/><polygon fill="#181818" points="1068.58,431.44,1067.3086,421.6736,1065.9765,427.1713,1060.4787,425.8392,1068.58,431.44" style="stroke:#181818;stroke-width:1.0;"/></g><!--link JobOpening to JobReference--><g id="link_JobOpening_JobReference"><path codeLine="54" d="M955.82,334.18 C932.96,365.32 904.8315,403.634 881.9115,434.844 " fill="none" id="JobOpening-to-JobReference" style="stroke:#181818;stroke-width:1.0;"/><polygon fill="#181818" points="878.36,439.68,886.9112,434.7936,881.3196,435.65,880.4632,430.0583,878.36,439.68" style="stroke:#181818;stroke-width:1.0;"/></g><!--link RecruitmentProcess to RecruitmentProcessStatus--><g id="link_RecruitmentProcess_RecruitmentProcessStatus"><path codeLine="55" d="M1112.59,529.62 C1120.55,555.76 1128.6226,582.2801 1136.5926,608.4601 " fill="none" id="RecruitmentProcess-to-RecruitmentProcessStatus" style="stroke:#181818;stroke-width:1.0;"/><polygon fill="#181818" points="1138.34,614.2,1139.5455,604.4252,1136.8838,609.4167,1131.8923,606.7551,1138.34,614.2" style="stroke:#181818;stroke-width:1.0;"/></g><!--link RecruitmentProcess to Phase--><g id="link_RecruitmentProcess_Phase"><path codeLine="56" d="M1037.31,529.83 C1026.78,539.2 1016.25,549.27 1007,559.4 C993.99,573.63 984.7563,585.3455 973.7063,601.0255 " fill="none" id="RecruitmentProcess-to-Phase" style="stroke:#181818;stroke-width:1.0;"/><polygon fill="#181818" points="970.25,605.93,978.7041,600.8775,973.1302,601.8429,972.1648,596.2691,970.25,605.93" style="stroke:#181818;stroke-width:1.0;"/><text fill="#000000" font-family="sans-serif" font-size="13" lengthAdjust="spacing" textLength="105" x="1008" y="572.9684">Is separated into</text></g><!--link Phase to PhaseName--><g id="link_Phase_PhaseName"><path codeLine="57" d="M890.78,720.4 C876.2,739.31 863.4647,755.8092 848.4147,775.3192 " fill="none" id="Phase-to-PhaseName" style="stroke:#181818;stroke-width:1.0;"/><polygon fill="#181818" points="844.75,780.07,853.4143,775.387,847.8039,776.111,847.0799,770.5007,844.75,780.07" style="stroke:#181818;stroke-width:1.0;"/></g><!--link Phase to StartDate--><g id="link_Phase_StartDate"><path codeLine="58" d="M933.69,720.4 C933.52,750.88 933.3529,781.4601 933.2129,806.9901 " fill="none" id="Phase-to-StartDate" style="stroke:#181818;stroke-width:1.0;"/><polygon fill="#181818" points="933.18,812.99,937.2293,804.0121,933.2074,807.9901,929.2294,803.9682,933.18,812.99" style="stroke:#181818;stroke-width:1.0;"/></g><!--link Phase to EndDate--><g id="link_Phase_EndDate"><path codeLine="59" d="M974.11,720.4 C995.93,750.88 1018.617,782.5816 1036.897,808.1116 " fill="none" id="Phase-to-EndDate" style="stroke:#181818;stroke-width:1.0;"/><polygon fill="#181818" points="1040.39,812.99,1038.4027,803.3437,1037.4791,808.9247,1031.8982,808.0011,1040.39,812.99" style="stroke:#181818;stroke-width:1.0;"/></g><!--link Phase to PhaseStatus--><g id="link_Phase_PhaseStatus"><path codeLine="60" d="M1006.78,720.67 C1014.8,726.12 1022.97,731.37 1031,736.1 C1071.83,760.15 1088.14,754.72 1128,780.35 C1139.02,787.43 1145.5301,792.172 1155.6501,800.782 " fill="none" id="Phase-to-PhaseStatus" style="stroke:#181818;stroke-width:1.0;"/><polygon fill="#181818" points="1160.22,804.67,1155.9572,795.7915,1156.4118,801.43,1150.7732,801.8846,1160.22,804.67" style="stroke:#181818;stroke-width:1.0;"/></g><!--link JobApplication to RequirementsEvaluation--><g id="link_JobApplication_RequirementsEvaluation"><path codeLine="90" d="M323.44,155.31 C295.75,172.53 265.46,191.73 238,209.95 C221.64,220.81 209.138,229.3687 192.898,240.7887 " fill="none" id="JobApplication-to-RequirementsEvaluation" style="stroke:#181818;stroke-width:1.0;"/><polygon fill="#181818" points="187.99,244.24,197.6529,242.335,192.08,241.3639,193.0511,235.791,187.99,244.24" style="stroke:#181818;stroke-width:1.0;"/></g><!--link JobApplication to Interview--><g id="link_JobApplication_Interview"><path codeLine="91" d="M458.72,155.2 C484.83,189.56 513.6309,227.462 535.3309,256.032 " fill="none" id="JobApplication-to-Interview" style="stroke:#181818;stroke-width:1.0;"/><polygon fill="#181818" points="538.96,260.81,536.7017,251.2235,535.9357,256.8283,530.331,256.0623,538.96,260.81" style="stroke:#181818;stroke-width:1.0;"/></g><!--link JobApplication to JobOpening--><g id="link_JobApplication_JobOpening"><path codeLine="92" d="M581.73,155.33 C673.42,186.5 779.4994,222.5686 862.0894,250.6486 " fill="none" id="JobApplication-to-JobOpening" style="stroke:#181818;stroke-width:1.0;"/><polygon fill="#181818" points="867.77,252.58,860.5366,245.8958,863.0361,250.9705,857.9614,253.47,867.77,252.58" style="stroke:#181818;stroke-width:1.0;"/><text fill="#000000" font-family="sans-serif" font-size="13" lengthAdjust="spacing" textLength="56" x="718" y="198.5184">Refers to</text></g><!--link JobApplication to NotificationStatus--><g id="link_JobApplication_NotificationStatus"><path codeLine="93" d="M391.59,155.2 C378.03,186.43 363.8706,219.0468 351.6506,247.1768 " fill="none" id="JobApplication-to-NotificationStatus" style="stroke:#181818;stroke-width:1.0;"/><polygon fill="#181818" points="349.26,252.68,356.5147,246.019,351.2522,248.094,349.1772,242.8315,349.26,252.68" style="stroke:#181818;stroke-width:1.0;"/></g><!--link Interview to InterviewGrade--><g id="link_Interview_InterviewGrade"><path codeLine="94" d="M563,325.86 C563,359.92 563,407.97 563,442.09 " fill="none" id="Interview-to-InterviewGrade" style="stroke:#181818;stroke-width:1.0;"/><polygon fill="#181818" points="563,448.09,567,439.09,563,443.09,559,439.09,563,448.09" style="stroke:#181818;stroke-width:1.0;"/></g><!--link Rank to RankStatus--><g id="link_Rank_RankStatus"><path codeLine="109" d="M1407,521.32 C1407,548.75 1407,579.39 1407,608.46 " fill="none" id="Rank-to-RankStatus" style="stroke:#181818;stroke-width:1.0;"/><polygon fill="#181818" points="1407,614.46,1411,605.46,1407,609.46,1403,605.46,1407,614.46" style="stroke:#181818;stroke-width:1.0;"/></g><!--link JobOpening to Rank--><g id="link_JobOpening_Rank"><path codeLine="110" d="M1116.66,334.31 C1167.18,351.35 1224.73,372.92 1275,397.17 C1300.31,409.39 1321.7988,422.0363 1344.3888,436.6163 " fill="none" id="JobOpening-to-Rank" style="stroke:#181818;stroke-width:1.0;"/><polygon fill="#181818" points="1349.43,439.87,1344.0373,431.6287,1345.229,437.1586,1339.6991,438.3503,1349.43,439.87" style="stroke:#181818;stroke-width:1.0;"/><text fill="#000000" font-family="sans-serif" font-size="13" lengthAdjust="spacing" textLength="22" x="1253" y="385.7384">has</text></g><!--SRC=[XLNBZfim5DtFLrZPjlC3g1e94JVr2164cLRjfdB0az993BNDT57rtsiCyHCwhEnptzVdNWRIl90p1O_zwJXGrh5pUZw3FtTtG7tDXGZXY1GEbkzTroQJfABFb5FMK2lXjE5Z9w-KoPBt3HKY0LM4QVs_GHpZpOq4cb78_afvrhSq0LXobOeZ_jcVYl5weZm17PEntpXsMCVDJ0D24Zckfeorn6eEFuYWIZFlXFnGJfU7EBh6mu0QBCYLUc6vt1EfAroELafPEylWV8ZJrIwT39SaA1klDfoJn_IbPPcZBAtHiNZl2N1MGLYWuk33gAXXzHd1BzZ7qoBDls8Ke1N4JtaTTyIKvtQbrTMPqZo3fUQtrMsnSoCSYsC92tF9yYE6-yXowyKTDq-gAQX6QOw-BGxcldmlg-D15OmDzb4fuaz-56UIxkyVjeOYq8g6R8NFwzuSDcpOpEHCm0u98EX0k6feEur3lzDcizne6iPQtEUgnLsU1bwMj5HF1hjyqc6uT0sHNS_c1UJj1KSQZbBUkyk0qrzZn-bKfu2lv39gcscOrt1hnthPFIyHbaTFG161JcWcAN_jwEy4eDjnXL1hKPqA52dtQihCFSqoMDOEiohu2BDwXQjnRXvBiN9ihkRYJPL9s-le3JnmCYrRvDt_uqJBNK_dsK6maOEtd7cx-JGhsdwpLnISwPcUNGsE0BBVqjvuOjiRB-RS18Uu5M4l8Lqdx0sIAWry-ykOSymU8_AVjauhnGYxQoDWRVNeh7Ix_O3XIfhKr3vGSxfJXVu3]--></g></svg>