<?xml version="1.0" encoding="us-ascii" standalone="no"?><svg xmlns="http://www.w3.org/2000/svg" xmlns:xlink="http://www.w3.org/1999/xlink" contentStyleType="text/css" height="437px" preserveAspectRatio="none" style="width:1331px;height:437px;background:#FFFFFF;" version="1.1" viewBox="0 0 1331 437" width="1331px" zoomAndPan="magnify"><defs/><g><!--cluster ApplicationAgg--><g id="cluster_ApplicationAgg"><path d="M8.5,6.0137 L114.5,6.0137 A3.75,3.75 0 0 1 117,8.5137 L124,30.6348 L1321.5,30.6348 A2.5,2.5 0 0 1 1324,33.1348 L1324,427.5137 A2.5,2.5 0 0 1 1321.5,430.0137 L8.5,430.0137 A2.5,2.5 0 0 1 6,427.5137 L6,8.5137 A2.5,2.5 0 0 1 8.5,6.0137 " fill="#AAAABB" style="stroke:#000000;stroke-width:1.5;"/><line style="stroke:#000000;stroke-width:1.5;" x1="6" x2="124" y1="30.6348" y2="30.6348"/><text fill="#000000" font-family="sans-serif" font-size="14" font-weight="bold" lengthAdjust="spacing" textLength="105" x="10" y="23.1211">ApplicationAgg</text></g><!--class Application--><g id="elem_Application"><rect codeLine="4" fill="#F1F1F1" height="76.543" id="Application" rx="2.5" ry="2.5" style="stroke:#181818;stroke-width:0.5;" width="101" x="626.5" y="43.0137"/><ellipse cx="641.5" cy="73.2852" fill="#ADD1B2" rx="11" ry="11" style="stroke:#181818;stroke-width:1.0;"/><path d="M644.2656,69.1602 Q644.4219,68.9414 644.6094,68.832 Q644.7969,68.7227 645.0156,68.7227 Q645.3906,68.7227 645.625,68.9883 Q645.8594,69.2383 645.8594,69.8477 L645.8594,71.3008 Q645.8594,71.9102 645.625,72.1758 Q645.3906,72.4414 645.0156,72.4414 Q644.6719,72.4414 644.4688,72.2383 Q644.2656,72.0508 644.1563,71.5352 Q644.1094,71.1758 643.9219,70.9883 Q643.5938,70.6133 642.9844,70.3945 Q642.375,70.1758 641.75,70.1758 Q640.9844,70.1758 640.3438,70.5039 Q639.7188,70.832 639.2188,71.582 Q638.7344,72.332 638.7344,73.3633 L638.7344,74.457 Q638.7344,75.6914 639.625,76.5195 Q640.5156,77.332 642.1094,77.332 Q643.0469,77.332 643.7031,77.082 Q644.0938,76.9258 644.5156,76.4883 Q644.7813,76.2227 644.9219,76.1445 Q645.0781,76.0664 645.2813,76.0664 Q645.6094,76.0664 645.8594,76.332 Q646.125,76.582 646.125,76.9258 Q646.125,77.2695 645.7813,77.6758 Q645.2813,78.2539 644.4844,78.582 Q643.4063,79.0352 642.1094,79.0352 Q640.5938,79.0352 639.3906,78.4102 Q638.4063,77.9102 637.7188,76.8477 Q637.0313,75.7695 637.0313,74.4883 L637.0313,73.332 Q637.0313,72.0039 637.6406,70.8633 Q638.2656,69.707 639.3594,69.0977 Q640.4531,68.4727 641.6875,68.4727 Q642.4219,68.4727 643.0625,68.6445 Q643.7188,68.8008 644.2656,69.1602 Z " fill="#000000"/><text fill="#000000" font-family="sans-serif" font-size="12" font-style="italic" lengthAdjust="spacing" textLength="40" x="670" y="60.9629">&#171;Root&#187;</text><text fill="#000000" font-family="sans-serif" font-size="12" font-style="italic" lengthAdjust="spacing" textLength="44" x="668" y="76.9238">&#171;Entity&#187;</text><text fill="#000000" font-family="sans-serif" font-size="14" lengthAdjust="spacing" textLength="69" x="655.5" y="95.043">Application</text><line style="stroke:#181818;stroke-width:0.5;" x1="627.5" x2="726.5" y1="103.5566" y2="103.5566"/><line style="stroke:#181818;stroke-width:0.5;" x1="627.5" x2="726.5" y1="111.5566" y2="111.5566"/></g><!--class ApplicationID--><g id="elem_ApplicationID"><rect codeLine="5" fill="#F1F1F1" height="76.543" id="ApplicationID" rx="2.5" ry="2.5" style="stroke:#181818;stroke-width:0.5;" width="114" x="22" y="199.0137"/><ellipse cx="37" cy="229.2852" fill="#ADD1B2" rx="11" ry="11" style="stroke:#181818;stroke-width:1.0;"/><path d="M39.7656,225.1602 Q39.9219,224.9414 40.1094,224.832 Q40.2969,224.7227 40.5156,224.7227 Q40.8906,224.7227 41.125,224.9883 Q41.3594,225.2383 41.3594,225.8477 L41.3594,227.3008 Q41.3594,227.9102 41.125,228.1758 Q40.8906,228.4414 40.5156,228.4414 Q40.1719,228.4414 39.9688,228.2383 Q39.7656,228.0508 39.6563,227.5352 Q39.6094,227.1758 39.4219,226.9883 Q39.0938,226.6133 38.4844,226.3945 Q37.875,226.1758 37.25,226.1758 Q36.4844,226.1758 35.8438,226.5039 Q35.2188,226.832 34.7188,227.582 Q34.2344,228.332 34.2344,229.3633 L34.2344,230.457 Q34.2344,231.6914 35.125,232.5195 Q36.0156,233.332 37.6094,233.332 Q38.5469,233.332 39.2031,233.082 Q39.5938,232.9258 40.0156,232.4883 Q40.2813,232.2227 40.4219,232.1445 Q40.5781,232.0664 40.7813,232.0664 Q41.1094,232.0664 41.3594,232.332 Q41.625,232.582 41.625,232.9258 Q41.625,233.2695 41.2813,233.6758 Q40.7813,234.2539 39.9844,234.582 Q38.9063,235.0352 37.6094,235.0352 Q36.0938,235.0352 34.8906,234.4102 Q33.9063,233.9102 33.2188,232.8477 Q32.5313,231.7695 32.5313,230.4883 L32.5313,229.332 Q32.5313,228.0039 33.1406,226.8633 Q33.7656,225.707 34.8594,225.0977 Q35.9531,224.4727 37.1875,224.4727 Q37.9219,224.4727 38.5625,224.6445 Q39.2188,224.8008 39.7656,225.1602 Z " fill="#000000"/><text fill="#000000" font-family="sans-serif" font-size="12" font-style="italic" lengthAdjust="spacing" textLength="85" x="49.5" y="216.9629">&#171;Value Object&#187;</text><text fill="#000000" font-family="sans-serif" font-size="12" font-style="italic" lengthAdjust="spacing" textLength="25" x="79.5" y="232.9238">&#171;Id&#187;</text><text fill="#000000" font-family="sans-serif" font-size="14" lengthAdjust="spacing" textLength="82" x="51" y="251.043">ApplicationID</text><line style="stroke:#181818;stroke-width:0.5;" x1="23" x2="135" y1="259.5566" y2="259.5566"/><line style="stroke:#181818;stroke-width:0.5;" x1="23" x2="135" y1="267.5566" y2="267.5566"/></g><!--class FilePath--><g id="elem_FilePath"><rect codeLine="7" fill="#F1F1F1" height="60.582" id="FilePath" rx="2.5" ry="2.5" style="stroke:#181818;stroke-width:0.5;" width="113" x="41.5" y="345.0137"/><ellipse cx="56.5" cy="367.3047" fill="#ADD1B2" rx="11" ry="11" style="stroke:#181818;stroke-width:1.0;"/><path d="M59.2656,363.1797 Q59.4219,362.9609 59.6094,362.8516 Q59.7969,362.7422 60.0156,362.7422 Q60.3906,362.7422 60.625,363.0078 Q60.8594,363.2578 60.8594,363.8672 L60.8594,365.3203 Q60.8594,365.9297 60.625,366.1953 Q60.3906,366.4609 60.0156,366.4609 Q59.6719,366.4609 59.4688,366.2578 Q59.2656,366.0703 59.1563,365.5547 Q59.1094,365.1953 58.9219,365.0078 Q58.5938,364.6328 57.9844,364.4141 Q57.375,364.1953 56.75,364.1953 Q55.9844,364.1953 55.3438,364.5234 Q54.7188,364.8516 54.2188,365.6016 Q53.7344,366.3516 53.7344,367.3828 L53.7344,368.4766 Q53.7344,369.7109 54.625,370.5391 Q55.5156,371.3516 57.1094,371.3516 Q58.0469,371.3516 58.7031,371.1016 Q59.0938,370.9453 59.5156,370.5078 Q59.7813,370.2422 59.9219,370.1641 Q60.0781,370.0859 60.2813,370.0859 Q60.6094,370.0859 60.8594,370.3516 Q61.125,370.6016 61.125,370.9453 Q61.125,371.2891 60.7813,371.6953 Q60.2813,372.2734 59.4844,372.6016 Q58.4063,373.0547 57.1094,373.0547 Q55.5938,373.0547 54.3906,372.4297 Q53.4063,371.9297 52.7188,370.8672 Q52.0313,369.7891 52.0313,368.5078 L52.0313,367.3516 Q52.0313,366.0234 52.6406,364.8828 Q53.2656,363.7266 54.3594,363.1172 Q55.4531,362.4922 56.6875,362.4922 Q57.4219,362.4922 58.0625,362.6641 Q58.7188,362.8203 59.2656,363.1797 Z " fill="#000000"/><text fill="#000000" font-family="sans-serif" font-size="12" font-style="italic" lengthAdjust="spacing" textLength="85" x="68.5" y="362.9629">&#171;Value Object&#187;</text><text fill="#000000" font-family="sans-serif" font-size="14" lengthAdjust="spacing" textLength="52" x="85" y="381.082">FilePath</text><line style="stroke:#181818;stroke-width:0.5;" x1="42.5" x2="153.5" y1="389.5957" y2="389.5957"/><line style="stroke:#181818;stroke-width:0.5;" x1="42.5" x2="153.5" y1="397.5957" y2="397.5957"/></g><!--class File--><g id="elem_File"><rect codeLine="8" fill="#F1F1F1" height="60.582" id="File" rx="2.5" ry="2.5" style="stroke:#181818;stroke-width:0.5;" width="113" x="171.5" y="207.0137"/><ellipse cx="186.5" cy="229.3047" fill="#ADD1B2" rx="11" ry="11" style="stroke:#181818;stroke-width:1.0;"/><path d="M189.2656,225.1797 Q189.4219,224.9609 189.6094,224.8516 Q189.7969,224.7422 190.0156,224.7422 Q190.3906,224.7422 190.625,225.0078 Q190.8594,225.2578 190.8594,225.8672 L190.8594,227.3203 Q190.8594,227.9297 190.625,228.1953 Q190.3906,228.4609 190.0156,228.4609 Q189.6719,228.4609 189.4688,228.2578 Q189.2656,228.0703 189.1563,227.5547 Q189.1094,227.1953 188.9219,227.0078 Q188.5938,226.6328 187.9844,226.4141 Q187.375,226.1953 186.75,226.1953 Q185.9844,226.1953 185.3438,226.5234 Q184.7188,226.8516 184.2188,227.6016 Q183.7344,228.3516 183.7344,229.3828 L183.7344,230.4766 Q183.7344,231.7109 184.625,232.5391 Q185.5156,233.3516 187.1094,233.3516 Q188.0469,233.3516 188.7031,233.1016 Q189.0938,232.9453 189.5156,232.5078 Q189.7813,232.2422 189.9219,232.1641 Q190.0781,232.0859 190.2813,232.0859 Q190.6094,232.0859 190.8594,232.3516 Q191.125,232.6016 191.125,232.9453 Q191.125,233.2891 190.7813,233.6953 Q190.2813,234.2734 189.4844,234.6016 Q188.4063,235.0547 187.1094,235.0547 Q185.5938,235.0547 184.3906,234.4297 Q183.4063,233.9297 182.7188,232.8672 Q182.0313,231.7891 182.0313,230.5078 L182.0313,229.3516 Q182.0313,228.0234 182.6406,226.8828 Q183.2656,225.7266 184.3594,225.1172 Q185.4531,224.4922 186.6875,224.4922 Q187.4219,224.4922 188.0625,224.6641 Q188.7188,224.8203 189.2656,225.1797 Z " fill="#000000"/><text fill="#000000" font-family="sans-serif" font-size="12" font-style="italic" lengthAdjust="spacing" textLength="85" x="198.5" y="224.9629">&#171;Value Object&#187;</text><text fill="#000000" font-family="sans-serif" font-size="14" lengthAdjust="spacing" textLength="23" x="229.5" y="243.082">File</text><line style="stroke:#181818;stroke-width:0.5;" x1="172.5" x2="283.5" y1="251.5957" y2="251.5957"/><line style="stroke:#181818;stroke-width:0.5;" x1="172.5" x2="283.5" y1="259.5957" y2="259.5957"/></g><!--class FileType--><g id="elem_FileType"><rect codeLine="9" fill="#F1F1F1" height="60.582" id="FileType" rx="2.5" ry="2.5" style="stroke:#181818;stroke-width:0.5;" width="87" x="189.5" y="345.0137"/><ellipse cx="204.5" cy="367.3047" fill="#ADD1B2" rx="11" ry="11" style="stroke:#181818;stroke-width:1.0;"/><path d="M207.2656,363.1797 Q207.4219,362.9609 207.6094,362.8516 Q207.7969,362.7422 208.0156,362.7422 Q208.3906,362.7422 208.625,363.0078 Q208.8594,363.2578 208.8594,363.8672 L208.8594,365.3203 Q208.8594,365.9297 208.625,366.1953 Q208.3906,366.4609 208.0156,366.4609 Q207.6719,366.4609 207.4688,366.2578 Q207.2656,366.0703 207.1563,365.5547 Q207.1094,365.1953 206.9219,365.0078 Q206.5938,364.6328 205.9844,364.4141 Q205.375,364.1953 204.75,364.1953 Q203.9844,364.1953 203.3438,364.5234 Q202.7188,364.8516 202.2188,365.6016 Q201.7344,366.3516 201.7344,367.3828 L201.7344,368.4766 Q201.7344,369.7109 202.625,370.5391 Q203.5156,371.3516 205.1094,371.3516 Q206.0469,371.3516 206.7031,371.1016 Q207.0938,370.9453 207.5156,370.5078 Q207.7813,370.2422 207.9219,370.1641 Q208.0781,370.0859 208.2813,370.0859 Q208.6094,370.0859 208.8594,370.3516 Q209.125,370.6016 209.125,370.9453 Q209.125,371.2891 208.7813,371.6953 Q208.2813,372.2734 207.4844,372.6016 Q206.4063,373.0547 205.1094,373.0547 Q203.5938,373.0547 202.3906,372.4297 Q201.4063,371.9297 200.7188,370.8672 Q200.0313,369.7891 200.0313,368.5078 L200.0313,367.3516 Q200.0313,366.0234 200.6406,364.8828 Q201.2656,363.7266 202.3594,363.1172 Q203.4531,362.4922 204.6875,362.4922 Q205.4219,362.4922 206.0625,362.6641 Q206.7188,362.8203 207.2656,363.1797 Z " fill="#000000"/><text fill="#000000" font-family="sans-serif" font-size="12" font-style="italic" lengthAdjust="spacing" textLength="47" x="222.5" y="362.9629">&#171;Enum&#187;</text><text fill="#000000" font-family="sans-serif" font-size="14" lengthAdjust="spacing" textLength="55" x="218.5" y="381.082">FileType</text><line style="stroke:#181818;stroke-width:0.5;" x1="190.5" x2="275.5" y1="389.5957" y2="389.5957"/><line style="stroke:#181818;stroke-width:0.5;" x1="190.5" x2="275.5" y1="397.5957" y2="397.5957"/></g><!--class RequirementsAnswers--><g id="elem_RequirementsAnswers"><rect codeLine="10" fill="#F1F1F1" height="60.582" id="RequirementsAnswers" rx="2.5" ry="2.5" style="stroke:#181818;stroke-width:0.5;" width="173" x="319.5" y="207.0137"/><ellipse cx="334.5" cy="229.3047" fill="#ADD1B2" rx="11" ry="11" style="stroke:#181818;stroke-width:1.0;"/><path d="M337.2656,225.1797 Q337.4219,224.9609 337.6094,224.8516 Q337.7969,224.7422 338.0156,224.7422 Q338.3906,224.7422 338.625,225.0078 Q338.8594,225.2578 338.8594,225.8672 L338.8594,227.3203 Q338.8594,227.9297 338.625,228.1953 Q338.3906,228.4609 338.0156,228.4609 Q337.6719,228.4609 337.4688,228.2578 Q337.2656,228.0703 337.1563,227.5547 Q337.1094,227.1953 336.9219,227.0078 Q336.5938,226.6328 335.9844,226.4141 Q335.375,226.1953 334.75,226.1953 Q333.9844,226.1953 333.3438,226.5234 Q332.7188,226.8516 332.2188,227.6016 Q331.7344,228.3516 331.7344,229.3828 L331.7344,230.4766 Q331.7344,231.7109 332.625,232.5391 Q333.5156,233.3516 335.1094,233.3516 Q336.0469,233.3516 336.7031,233.1016 Q337.0938,232.9453 337.5156,232.5078 Q337.7813,232.2422 337.9219,232.1641 Q338.0781,232.0859 338.2813,232.0859 Q338.6094,232.0859 338.8594,232.3516 Q339.125,232.6016 339.125,232.9453 Q339.125,233.2891 338.7813,233.6953 Q338.2813,234.2734 337.4844,234.6016 Q336.4063,235.0547 335.1094,235.0547 Q333.5938,235.0547 332.3906,234.4297 Q331.4063,233.9297 330.7188,232.8672 Q330.0313,231.7891 330.0313,230.5078 L330.0313,229.3516 Q330.0313,228.0234 330.6406,226.8828 Q331.2656,225.7266 332.3594,225.1172 Q333.4531,224.4922 334.6875,224.4922 Q335.4219,224.4922 336.0625,224.6641 Q336.7188,224.8203 337.2656,225.1797 Z " fill="#000000"/><text fill="#000000" font-family="sans-serif" font-size="12" font-style="italic" lengthAdjust="spacing" textLength="85" x="376.5" y="224.9629">&#171;Value Object&#187;</text><text fill="#000000" font-family="sans-serif" font-size="14" lengthAdjust="spacing" textLength="141" x="348.5" y="243.082">RequirementsAnswers</text><line style="stroke:#181818;stroke-width:0.5;" x1="320.5" x2="491.5" y1="251.5957" y2="251.5957"/><line style="stroke:#181818;stroke-width:0.5;" x1="320.5" x2="491.5" y1="259.5957" y2="259.5957"/></g><!--class RejectionJustification--><g id="elem_RejectionJustification"><rect codeLine="12" fill="#F1F1F1" height="60.582" id="RejectionJustification" rx="2.5" ry="2.5" style="stroke:#181818;stroke-width:0.5;" width="164" x="320" y="345.0137"/><ellipse cx="335" cy="367.3047" fill="#ADD1B2" rx="11" ry="11" style="stroke:#181818;stroke-width:1.0;"/><path d="M337.7656,363.1797 Q337.9219,362.9609 338.1094,362.8516 Q338.2969,362.7422 338.5156,362.7422 Q338.8906,362.7422 339.125,363.0078 Q339.3594,363.2578 339.3594,363.8672 L339.3594,365.3203 Q339.3594,365.9297 339.125,366.1953 Q338.8906,366.4609 338.5156,366.4609 Q338.1719,366.4609 337.9688,366.2578 Q337.7656,366.0703 337.6563,365.5547 Q337.6094,365.1953 337.4219,365.0078 Q337.0938,364.6328 336.4844,364.4141 Q335.875,364.1953 335.25,364.1953 Q334.4844,364.1953 333.8438,364.5234 Q333.2188,364.8516 332.7188,365.6016 Q332.2344,366.3516 332.2344,367.3828 L332.2344,368.4766 Q332.2344,369.7109 333.125,370.5391 Q334.0156,371.3516 335.6094,371.3516 Q336.5469,371.3516 337.2031,371.1016 Q337.5938,370.9453 338.0156,370.5078 Q338.2813,370.2422 338.4219,370.1641 Q338.5781,370.0859 338.7813,370.0859 Q339.1094,370.0859 339.3594,370.3516 Q339.625,370.6016 339.625,370.9453 Q339.625,371.2891 339.2813,371.6953 Q338.7813,372.2734 337.9844,372.6016 Q336.9063,373.0547 335.6094,373.0547 Q334.0938,373.0547 332.8906,372.4297 Q331.9063,371.9297 331.2188,370.8672 Q330.5313,369.7891 330.5313,368.5078 L330.5313,367.3516 Q330.5313,366.0234 331.1406,364.8828 Q331.7656,363.7266 332.8594,363.1172 Q333.9531,362.4922 335.1875,362.4922 Q335.9219,362.4922 336.5625,362.6641 Q337.2188,362.8203 337.7656,363.1797 Z " fill="#000000"/><text fill="#000000" font-family="sans-serif" font-size="12" font-style="italic" lengthAdjust="spacing" textLength="85" x="372.5" y="362.9629">&#171;Value Object&#187;</text><text fill="#000000" font-family="sans-serif" font-size="14" lengthAdjust="spacing" textLength="132" x="349" y="381.082">RejectionJustification</text><line style="stroke:#181818;stroke-width:0.5;" x1="321" x2="483" y1="389.5957" y2="389.5957"/><line style="stroke:#181818;stroke-width:0.5;" x1="321" x2="483" y1="397.5957" y2="397.5957"/></g><!--class InterviewDateTime--><g id="elem_InterviewDateTime"><rect codeLine="13" fill="#F1F1F1" height="60.582" id="InterviewDateTime" rx="2.5" ry="2.5" style="stroke:#181818;stroke-width:0.5;" width="148" x="728" y="345.0137"/><ellipse cx="743" cy="367.3047" fill="#ADD1B2" rx="11" ry="11" style="stroke:#181818;stroke-width:1.0;"/><path d="M745.7656,363.1797 Q745.9219,362.9609 746.1094,362.8516 Q746.2969,362.7422 746.5156,362.7422 Q746.8906,362.7422 747.125,363.0078 Q747.3594,363.2578 747.3594,363.8672 L747.3594,365.3203 Q747.3594,365.9297 747.125,366.1953 Q746.8906,366.4609 746.5156,366.4609 Q746.1719,366.4609 745.9688,366.2578 Q745.7656,366.0703 745.6563,365.5547 Q745.6094,365.1953 745.4219,365.0078 Q745.0938,364.6328 744.4844,364.4141 Q743.875,364.1953 743.25,364.1953 Q742.4844,364.1953 741.8438,364.5234 Q741.2188,364.8516 740.7188,365.6016 Q740.2344,366.3516 740.2344,367.3828 L740.2344,368.4766 Q740.2344,369.7109 741.125,370.5391 Q742.0156,371.3516 743.6094,371.3516 Q744.5469,371.3516 745.2031,371.1016 Q745.5938,370.9453 746.0156,370.5078 Q746.2813,370.2422 746.4219,370.1641 Q746.5781,370.0859 746.7813,370.0859 Q747.1094,370.0859 747.3594,370.3516 Q747.625,370.6016 747.625,370.9453 Q747.625,371.2891 747.2813,371.6953 Q746.7813,372.2734 745.9844,372.6016 Q744.9063,373.0547 743.6094,373.0547 Q742.0938,373.0547 740.8906,372.4297 Q739.9063,371.9297 739.2188,370.8672 Q738.5313,369.7891 738.5313,368.5078 L738.5313,367.3516 Q738.5313,366.0234 739.1406,364.8828 Q739.7656,363.7266 740.8594,363.1172 Q741.9531,362.4922 743.1875,362.4922 Q743.9219,362.4922 744.5625,362.6641 Q745.2188,362.8203 745.7656,363.1797 Z " fill="#000000"/><text fill="#000000" font-family="sans-serif" font-size="12" font-style="italic" lengthAdjust="spacing" textLength="85" x="772.5" y="362.9629">&#171;Value Object&#187;</text><text fill="#000000" font-family="sans-serif" font-size="14" lengthAdjust="spacing" textLength="116" x="757" y="381.082">InterviewDateTime</text><line style="stroke:#181818;stroke-width:0.5;" x1="729" x2="875" y1="389.5957" y2="389.5957"/><line style="stroke:#181818;stroke-width:0.5;" x1="729" x2="875" y1="397.5957" y2="397.5957"/></g><!--class ApplicationState--><g id="elem_ApplicationState"><rect codeLine="15" fill="#F1F1F1" height="60.582" id="ApplicationState" rx="2.5" ry="2.5" style="stroke:#181818;stroke-width:0.5;" width="134" x="528" y="207.0137"/><ellipse cx="543" cy="229.3047" fill="#ADD1B2" rx="11" ry="11" style="stroke:#181818;stroke-width:1.0;"/><path d="M545.7656,225.1797 Q545.9219,224.9609 546.1094,224.8516 Q546.2969,224.7422 546.5156,224.7422 Q546.8906,224.7422 547.125,225.0078 Q547.3594,225.2578 547.3594,225.8672 L547.3594,227.3203 Q547.3594,227.9297 547.125,228.1953 Q546.8906,228.4609 546.5156,228.4609 Q546.1719,228.4609 545.9688,228.2578 Q545.7656,228.0703 545.6563,227.5547 Q545.6094,227.1953 545.4219,227.0078 Q545.0938,226.6328 544.4844,226.4141 Q543.875,226.1953 543.25,226.1953 Q542.4844,226.1953 541.8438,226.5234 Q541.2188,226.8516 540.7188,227.6016 Q540.2344,228.3516 540.2344,229.3828 L540.2344,230.4766 Q540.2344,231.7109 541.125,232.5391 Q542.0156,233.3516 543.6094,233.3516 Q544.5469,233.3516 545.2031,233.1016 Q545.5938,232.9453 546.0156,232.5078 Q546.2813,232.2422 546.4219,232.1641 Q546.5781,232.0859 546.7813,232.0859 Q547.1094,232.0859 547.3594,232.3516 Q547.625,232.6016 547.625,232.9453 Q547.625,233.2891 547.2813,233.6953 Q546.7813,234.2734 545.9844,234.6016 Q544.9063,235.0547 543.6094,235.0547 Q542.0938,235.0547 540.8906,234.4297 Q539.9063,233.9297 539.2188,232.8672 Q538.5313,231.7891 538.5313,230.5078 L538.5313,229.3516 Q538.5313,228.0234 539.1406,226.8828 Q539.7656,225.7266 540.8594,225.1172 Q541.9531,224.4922 543.1875,224.4922 Q543.9219,224.4922 544.5625,224.6641 Q545.2188,224.8203 545.7656,225.1797 Z " fill="#000000"/><text fill="#000000" font-family="sans-serif" font-size="12" font-style="italic" lengthAdjust="spacing" textLength="44" x="586" y="224.9629">&#171;Entity&#187;</text><text fill="#000000" font-family="sans-serif" font-size="14" lengthAdjust="spacing" textLength="102" x="557" y="243.082">ApplicationState</text><line style="stroke:#181818;stroke-width:0.5;" x1="529" x2="661" y1="251.5957" y2="251.5957"/><line style="stroke:#181818;stroke-width:0.5;" x1="529" x2="661" y1="259.5957" y2="259.5957"/></g><!--class ApplicationStateName--><g id="elem_ApplicationStateName"><rect codeLine="16" fill="#F1F1F1" height="76.543" id="ApplicationStateName" rx="2.5" ry="2.5" style="stroke:#181818;stroke-width:0.5;" width="170" x="519" y="337.0137"/><ellipse cx="534" cy="367.2852" fill="#ADD1B2" rx="11" ry="11" style="stroke:#181818;stroke-width:1.0;"/><path d="M536.7656,363.1602 Q536.9219,362.9414 537.1094,362.832 Q537.2969,362.7227 537.5156,362.7227 Q537.8906,362.7227 538.125,362.9883 Q538.3594,363.2383 538.3594,363.8477 L538.3594,365.3008 Q538.3594,365.9102 538.125,366.1758 Q537.8906,366.4414 537.5156,366.4414 Q537.1719,366.4414 536.9688,366.2383 Q536.7656,366.0508 536.6563,365.5352 Q536.6094,365.1758 536.4219,364.9883 Q536.0938,364.6133 535.4844,364.3945 Q534.875,364.1758 534.25,364.1758 Q533.4844,364.1758 532.8438,364.5039 Q532.2188,364.832 531.7188,365.582 Q531.2344,366.332 531.2344,367.3633 L531.2344,368.457 Q531.2344,369.6914 532.125,370.5195 Q533.0156,371.332 534.6094,371.332 Q535.5469,371.332 536.2031,371.082 Q536.5938,370.9258 537.0156,370.4883 Q537.2813,370.2227 537.4219,370.1445 Q537.5781,370.0664 537.7813,370.0664 Q538.1094,370.0664 538.3594,370.332 Q538.625,370.582 538.625,370.9258 Q538.625,371.2695 538.2813,371.6758 Q537.7813,372.2539 536.9844,372.582 Q535.9063,373.0352 534.6094,373.0352 Q533.0938,373.0352 531.8906,372.4102 Q530.9063,371.9102 530.2188,370.8477 Q529.5313,369.7695 529.5313,368.4883 L529.5313,367.332 Q529.5313,366.0039 530.1406,364.8633 Q530.7656,363.707 531.8594,363.0977 Q532.9531,362.4727 534.1875,362.4727 Q534.9219,362.4727 535.5625,362.6445 Q536.2188,362.8008 536.7656,363.1602 Z " fill="#000000"/><text fill="#000000" font-family="sans-serif" font-size="12" font-style="italic" lengthAdjust="spacing" textLength="47" x="593.5" y="354.9629">&#171;Enum&#187;</text><text fill="#000000" font-family="sans-serif" font-size="12" font-style="italic" lengthAdjust="spacing" textLength="27" x="603.5" y="370.9238">&#171;ID&#187;</text><text fill="#000000" font-family="sans-serif" font-size="14" lengthAdjust="spacing" textLength="138" x="548" y="389.043">ApplicationStateName</text><line style="stroke:#181818;stroke-width:0.5;" x1="520" x2="688" y1="397.5566" y2="397.5566"/><line style="stroke:#181818;stroke-width:0.5;" x1="520" x2="688" y1="405.5566" y2="405.5566"/></g><!--class RequirementsEvaluation--><g id="elem_RequirementsEvaluation"><rect codeLine="18" fill="#F1F1F1" height="60.582" id="RequirementsEvaluation" rx="2.5" ry="2.5" style="stroke:#181818;stroke-width:0.5;" width="186" x="697" y="207.0137"/><ellipse cx="712" cy="229.3047" fill="#ADD1B2" rx="11" ry="11" style="stroke:#181818;stroke-width:1.0;"/><path d="M714.7656,225.1797 Q714.9219,224.9609 715.1094,224.8516 Q715.2969,224.7422 715.5156,224.7422 Q715.8906,224.7422 716.125,225.0078 Q716.3594,225.2578 716.3594,225.8672 L716.3594,227.3203 Q716.3594,227.9297 716.125,228.1953 Q715.8906,228.4609 715.5156,228.4609 Q715.1719,228.4609 714.9688,228.2578 Q714.7656,228.0703 714.6563,227.5547 Q714.6094,227.1953 714.4219,227.0078 Q714.0938,226.6328 713.4844,226.4141 Q712.875,226.1953 712.25,226.1953 Q711.4844,226.1953 710.8438,226.5234 Q710.2188,226.8516 709.7188,227.6016 Q709.2344,228.3516 709.2344,229.3828 L709.2344,230.4766 Q709.2344,231.7109 710.125,232.5391 Q711.0156,233.3516 712.6094,233.3516 Q713.5469,233.3516 714.2031,233.1016 Q714.5938,232.9453 715.0156,232.5078 Q715.2813,232.2422 715.4219,232.1641 Q715.5781,232.0859 715.7813,232.0859 Q716.1094,232.0859 716.3594,232.3516 Q716.625,232.6016 716.625,232.9453 Q716.625,233.2891 716.2813,233.6953 Q715.7813,234.2734 714.9844,234.6016 Q713.9063,235.0547 712.6094,235.0547 Q711.0938,235.0547 709.8906,234.4297 Q708.9063,233.9297 708.2188,232.8672 Q707.5313,231.7891 707.5313,230.5078 L707.5313,229.3516 Q707.5313,228.0234 708.1406,226.8828 Q708.7656,225.7266 709.8594,225.1172 Q710.9531,224.4922 712.1875,224.4922 Q712.9219,224.4922 713.5625,224.6641 Q714.2188,224.8203 714.7656,225.1797 Z " fill="#000000"/><text fill="#000000" font-family="sans-serif" font-size="12" font-style="italic" lengthAdjust="spacing" textLength="85" x="760.5" y="224.9629">&#171;Value Object&#187;</text><text fill="#000000" font-family="sans-serif" font-size="14" lengthAdjust="spacing" textLength="154" x="726" y="243.082">RequirementsEvaluation</text><line style="stroke:#181818;stroke-width:0.5;" x1="698" x2="882" y1="251.5957" y2="251.5957"/><line style="stroke:#181818;stroke-width:0.5;" x1="698" x2="882" y1="259.5957" y2="259.5957"/></g><!--class Interview--><g id="elem_Interview"><rect codeLine="20" fill="#F1F1F1" height="60.582" id="Interview" rx="2.5" ry="2.5" style="stroke:#181818;stroke-width:0.5;" width="113" x="918.5" y="207.0137"/><ellipse cx="933.5" cy="229.3047" fill="#ADD1B2" rx="11" ry="11" style="stroke:#181818;stroke-width:1.0;"/><path d="M936.2656,225.1797 Q936.4219,224.9609 936.6094,224.8516 Q936.7969,224.7422 937.0156,224.7422 Q937.3906,224.7422 937.625,225.0078 Q937.8594,225.2578 937.8594,225.8672 L937.8594,227.3203 Q937.8594,227.9297 937.625,228.1953 Q937.3906,228.4609 937.0156,228.4609 Q936.6719,228.4609 936.4688,228.2578 Q936.2656,228.0703 936.1563,227.5547 Q936.1094,227.1953 935.9219,227.0078 Q935.5938,226.6328 934.9844,226.4141 Q934.375,226.1953 933.75,226.1953 Q932.9844,226.1953 932.3438,226.5234 Q931.7188,226.8516 931.2188,227.6016 Q930.7344,228.3516 930.7344,229.3828 L930.7344,230.4766 Q930.7344,231.7109 931.625,232.5391 Q932.5156,233.3516 934.1094,233.3516 Q935.0469,233.3516 935.7031,233.1016 Q936.0938,232.9453 936.5156,232.5078 Q936.7813,232.2422 936.9219,232.1641 Q937.0781,232.0859 937.2813,232.0859 Q937.6094,232.0859 937.8594,232.3516 Q938.125,232.6016 938.125,232.9453 Q938.125,233.2891 937.7813,233.6953 Q937.2813,234.2734 936.4844,234.6016 Q935.4063,235.0547 934.1094,235.0547 Q932.5938,235.0547 931.3906,234.4297 Q930.4063,233.9297 929.7188,232.8672 Q929.0313,231.7891 929.0313,230.5078 L929.0313,229.3516 Q929.0313,228.0234 929.6406,226.8828 Q930.2656,225.7266 931.3594,225.1172 Q932.4531,224.4922 933.6875,224.4922 Q934.4219,224.4922 935.0625,224.6641 Q935.7188,224.8203 936.2656,225.1797 Z " fill="#000000"/><text fill="#000000" font-family="sans-serif" font-size="12" font-style="italic" lengthAdjust="spacing" textLength="85" x="945.5" y="224.9629">&#171;Value Object&#187;</text><text fill="#000000" font-family="sans-serif" font-size="14" lengthAdjust="spacing" textLength="55" x="960.5" y="243.082">Interview</text><line style="stroke:#181818;stroke-width:0.5;" x1="919.5" x2="1030.5" y1="251.5957" y2="251.5957"/><line style="stroke:#181818;stroke-width:0.5;" x1="919.5" x2="1030.5" y1="259.5957" y2="259.5957"/></g><!--class InterviewGrade--><g id="elem_InterviewGrade"><rect codeLine="21" fill="#F1F1F1" height="60.582" id="InterviewGrade" rx="2.5" ry="2.5" style="stroke:#181818;stroke-width:0.5;" width="127" x="911.5" y="345.0137"/><ellipse cx="926.5" cy="367.3047" fill="#ADD1B2" rx="11" ry="11" style="stroke:#181818;stroke-width:1.0;"/><path d="M929.2656,363.1797 Q929.4219,362.9609 929.6094,362.8516 Q929.7969,362.7422 930.0156,362.7422 Q930.3906,362.7422 930.625,363.0078 Q930.8594,363.2578 930.8594,363.8672 L930.8594,365.3203 Q930.8594,365.9297 930.625,366.1953 Q930.3906,366.4609 930.0156,366.4609 Q929.6719,366.4609 929.4688,366.2578 Q929.2656,366.0703 929.1563,365.5547 Q929.1094,365.1953 928.9219,365.0078 Q928.5938,364.6328 927.9844,364.4141 Q927.375,364.1953 926.75,364.1953 Q925.9844,364.1953 925.3438,364.5234 Q924.7188,364.8516 924.2188,365.6016 Q923.7344,366.3516 923.7344,367.3828 L923.7344,368.4766 Q923.7344,369.7109 924.625,370.5391 Q925.5156,371.3516 927.1094,371.3516 Q928.0469,371.3516 928.7031,371.1016 Q929.0938,370.9453 929.5156,370.5078 Q929.7813,370.2422 929.9219,370.1641 Q930.0781,370.0859 930.2813,370.0859 Q930.6094,370.0859 930.8594,370.3516 Q931.125,370.6016 931.125,370.9453 Q931.125,371.2891 930.7813,371.6953 Q930.2813,372.2734 929.4844,372.6016 Q928.4063,373.0547 927.1094,373.0547 Q925.5938,373.0547 924.3906,372.4297 Q923.4063,371.9297 922.7188,370.8672 Q922.0313,369.7891 922.0313,368.5078 L922.0313,367.3516 Q922.0313,366.0234 922.6406,364.8828 Q923.2656,363.7266 924.3594,363.1172 Q925.4531,362.4922 926.6875,362.4922 Q927.4219,362.4922 928.0625,362.6641 Q928.7188,362.8203 929.2656,363.1797 Z " fill="#000000"/><text fill="#000000" font-family="sans-serif" font-size="12" font-style="italic" lengthAdjust="spacing" textLength="85" x="945.5" y="362.9629">&#171;Value Object&#187;</text><text fill="#000000" font-family="sans-serif" font-size="14" lengthAdjust="spacing" textLength="95" x="940.5" y="381.082">InterviewGrade</text><line style="stroke:#181818;stroke-width:0.5;" x1="912.5" x2="1037.5" y1="389.5957" y2="389.5957"/><line style="stroke:#181818;stroke-width:0.5;" x1="912.5" x2="1037.5" y1="397.5957" y2="397.5957"/></g><!--class InterviewAnswers--><g id="elem_InterviewAnswers"><rect codeLine="22" fill="#F1F1F1" height="60.582" id="InterviewAnswers" rx="2.5" ry="2.5" style="stroke:#181818;stroke-width:0.5;" width="140" x="1074" y="345.0137"/><ellipse cx="1089" cy="367.3047" fill="#ADD1B2" rx="11" ry="11" style="stroke:#181818;stroke-width:1.0;"/><path d="M1091.7656,363.1797 Q1091.9219,362.9609 1092.1094,362.8516 Q1092.2969,362.7422 1092.5156,362.7422 Q1092.8906,362.7422 1093.125,363.0078 Q1093.3594,363.2578 1093.3594,363.8672 L1093.3594,365.3203 Q1093.3594,365.9297 1093.125,366.1953 Q1092.8906,366.4609 1092.5156,366.4609 Q1092.1719,366.4609 1091.9688,366.2578 Q1091.7656,366.0703 1091.6563,365.5547 Q1091.6094,365.1953 1091.4219,365.0078 Q1091.0938,364.6328 1090.4844,364.4141 Q1089.875,364.1953 1089.25,364.1953 Q1088.4844,364.1953 1087.8438,364.5234 Q1087.2188,364.8516 1086.7188,365.6016 Q1086.2344,366.3516 1086.2344,367.3828 L1086.2344,368.4766 Q1086.2344,369.7109 1087.125,370.5391 Q1088.0156,371.3516 1089.6094,371.3516 Q1090.5469,371.3516 1091.2031,371.1016 Q1091.5938,370.9453 1092.0156,370.5078 Q1092.2813,370.2422 1092.4219,370.1641 Q1092.5781,370.0859 1092.7813,370.0859 Q1093.1094,370.0859 1093.3594,370.3516 Q1093.625,370.6016 1093.625,370.9453 Q1093.625,371.2891 1093.2813,371.6953 Q1092.7813,372.2734 1091.9844,372.6016 Q1090.9063,373.0547 1089.6094,373.0547 Q1088.0938,373.0547 1086.8906,372.4297 Q1085.9063,371.9297 1085.2188,370.8672 Q1084.5313,369.7891 1084.5313,368.5078 L1084.5313,367.3516 Q1084.5313,366.0234 1085.1406,364.8828 Q1085.7656,363.7266 1086.8594,363.1172 Q1087.9531,362.4922 1089.1875,362.4922 Q1089.9219,362.4922 1090.5625,362.6641 Q1091.2188,362.8203 1091.7656,363.1797 Z " fill="#000000"/><text fill="#000000" font-family="sans-serif" font-size="12" font-style="italic" lengthAdjust="spacing" textLength="85" x="1114.5" y="362.9629">&#171;Value Object&#187;</text><text fill="#000000" font-family="sans-serif" font-size="14" lengthAdjust="spacing" textLength="108" x="1103" y="381.082">InterviewAnswers</text><line style="stroke:#181818;stroke-width:0.5;" x1="1075" x2="1213" y1="389.5957" y2="389.5957"/><line style="stroke:#181818;stroke-width:0.5;" x1="1075" x2="1213" y1="397.5957" y2="397.5957"/></g><!--class JobOpening--><g id="elem_JobOpening"><rect fill="#F1F1F1" height="48" id="JobOpening" rx="2.5" ry="2.5" style="stroke:#181818;stroke-width:0.5;" width="108" x="1067" y="213.5137"/><ellipse cx="1082" cy="229.5137" fill="#ADD1B2" rx="11" ry="11" style="stroke:#181818;stroke-width:1.0;"/><path d="M1084.7656,225.3887 Q1084.9219,225.1699 1085.1094,225.0605 Q1085.2969,224.9512 1085.5156,224.9512 Q1085.8906,224.9512 1086.125,225.2168 Q1086.3594,225.4668 1086.3594,226.0762 L1086.3594,227.5293 Q1086.3594,228.1387 1086.125,228.4043 Q1085.8906,228.6699 1085.5156,228.6699 Q1085.1719,228.6699 1084.9688,228.4668 Q1084.7656,228.2793 1084.6563,227.7637 Q1084.6094,227.4043 1084.4219,227.2168 Q1084.0938,226.8418 1083.4844,226.623 Q1082.875,226.4043 1082.25,226.4043 Q1081.4844,226.4043 1080.8438,226.7324 Q1080.2188,227.0605 1079.7188,227.8105 Q1079.2344,228.5605 1079.2344,229.5918 L1079.2344,230.6855 Q1079.2344,231.9199 1080.125,232.748 Q1081.0156,233.5605 1082.6094,233.5605 Q1083.5469,233.5605 1084.2031,233.3105 Q1084.5938,233.1543 1085.0156,232.7168 Q1085.2813,232.4512 1085.4219,232.373 Q1085.5781,232.2949 1085.7813,232.2949 Q1086.1094,232.2949 1086.3594,232.5605 Q1086.625,232.8105 1086.625,233.1543 Q1086.625,233.498 1086.2813,233.9043 Q1085.7813,234.4824 1084.9844,234.8105 Q1083.9063,235.2637 1082.6094,235.2637 Q1081.0938,235.2637 1079.8906,234.6387 Q1078.9063,234.1387 1078.2188,233.0762 Q1077.5313,231.998 1077.5313,230.7168 L1077.5313,229.5605 Q1077.5313,228.2324 1078.1406,227.0918 Q1078.7656,225.9355 1079.8594,225.3262 Q1080.9531,224.7012 1082.1875,224.7012 Q1082.9219,224.7012 1083.5625,224.873 Q1084.2188,225.0293 1084.7656,225.3887 Z " fill="#000000"/><text fill="#000000" font-family="sans-serif" font-size="14" lengthAdjust="spacing" textLength="76" x="1096" y="235.3105">JobOpening</text><line style="stroke:#181818;stroke-width:0.5;" x1="1068" x2="1174" y1="245.5137" y2="245.5137"/><line style="stroke:#181818;stroke-width:0.5;" x1="1068" x2="1174" y1="253.5137" y2="253.5137"/></g><!--class Candidate--><g id="elem_Candidate"><rect fill="#F1F1F1" height="48" id="Candidate" rx="2.5" ry="2.5" style="stroke:#181818;stroke-width:0.5;" width="97" x="1210.5" y="213.5137"/><ellipse cx="1225.5" cy="229.5137" fill="#ADD1B2" rx="11" ry="11" style="stroke:#181818;stroke-width:1.0;"/><path d="M1228.2656,225.3887 Q1228.4219,225.1699 1228.6094,225.0605 Q1228.7969,224.9512 1229.0156,224.9512 Q1229.3906,224.9512 1229.625,225.2168 Q1229.8594,225.4668 1229.8594,226.0762 L1229.8594,227.5293 Q1229.8594,228.1387 1229.625,228.4043 Q1229.3906,228.6699 1229.0156,228.6699 Q1228.6719,228.6699 1228.4688,228.4668 Q1228.2656,228.2793 1228.1563,227.7637 Q1228.1094,227.4043 1227.9219,227.2168 Q1227.5938,226.8418 1226.9844,226.623 Q1226.375,226.4043 1225.75,226.4043 Q1224.9844,226.4043 1224.3438,226.7324 Q1223.7188,227.0605 1223.2188,227.8105 Q1222.7344,228.5605 1222.7344,229.5918 L1222.7344,230.6855 Q1222.7344,231.9199 1223.625,232.748 Q1224.5156,233.5605 1226.1094,233.5605 Q1227.0469,233.5605 1227.7031,233.3105 Q1228.0938,233.1543 1228.5156,232.7168 Q1228.7813,232.4512 1228.9219,232.373 Q1229.0781,232.2949 1229.2813,232.2949 Q1229.6094,232.2949 1229.8594,232.5605 Q1230.125,232.8105 1230.125,233.1543 Q1230.125,233.498 1229.7813,233.9043 Q1229.2813,234.4824 1228.4844,234.8105 Q1227.4063,235.2637 1226.1094,235.2637 Q1224.5938,235.2637 1223.3906,234.6387 Q1222.4063,234.1387 1221.7188,233.0762 Q1221.0313,231.998 1221.0313,230.7168 L1221.0313,229.5605 Q1221.0313,228.2324 1221.6406,227.0918 Q1222.2656,225.9355 1223.3594,225.3262 Q1224.4531,224.7012 1225.6875,224.7012 Q1226.4219,224.7012 1227.0625,224.873 Q1227.7188,225.0293 1228.2656,225.3887 Z " fill="#000000"/><text fill="#000000" font-family="sans-serif" font-size="14" lengthAdjust="spacing" textLength="65" x="1239.5" y="235.3105">Candidate</text><line style="stroke:#181818;stroke-width:0.5;" x1="1211.5" x2="1306.5" y1="245.5137" y2="245.5137"/><line style="stroke:#181818;stroke-width:0.5;" x1="1211.5" x2="1306.5" y1="253.5137" y2="253.5137"/></g><!--link Application to ApplicationID--><g id="link_Application_ApplicationID"><path codeLine="24" d="M626.47,89.5637 C531.79,103.6737 322.08,139.2937 154,199.0137 C148.1,201.1137 147.5627,201.1491 141.6027,203.7691 " fill="none" id="Application-to-ApplicationID" style="stroke:#181818;stroke-width:1.0;"/><polygon fill="#181818" points="136.11,206.1837,145.9588,206.2236,140.6873,204.1715,142.7393,198.9,136.11,206.1837" style="stroke:#181818;stroke-width:1.0;"/><text fill="#000000" font-family="sans-serif" font-size="13" lengthAdjust="spacing" textLength="7" x="611.5343" y="86.5808">1</text><text fill="#000000" font-family="sans-serif" font-size="13" lengthAdjust="spacing" textLength="7" x="143.8757" y="198.1567">1</text></g><!--link Application to ApplicationState--><g id="link_Application_ApplicationState"><path codeLine="25" d="M656.94,120.1837 C642.72,146.9037 626.7205,176.948 613.5705,201.638 " fill="none" id="Application-to-ApplicationState" style="stroke:#181818;stroke-width:1.0;"/><polygon fill="#181818" points="610.75,206.9337,618.5113,200.8704,613.1004,202.5206,611.4503,197.1097,610.75,206.9337" style="stroke:#181818;stroke-width:1.0;"/><text fill="#000000" font-family="sans-serif" font-size="13" lengthAdjust="spacing" textLength="7" x="646.3324" y="141.4922">1</text><text fill="#000000" font-family="sans-serif" font-size="13" lengthAdjust="spacing" textLength="7" x="606.2766" y="195.9749">1</text></g><!--link ApplicationState to ApplicationStateName--><g id="link_ApplicationState_ApplicationStateName"><path codeLine="26" d="M596.95,268.0237 C598.29,288.1837 599.6756,309.0766 601.1056,330.7866 " fill="none" id="ApplicationState-to-ApplicationStateName" style="stroke:#181818;stroke-width:1.0;"/><polygon fill="#181818" points="601.5,336.7737,604.8998,327.5302,601.1714,331.7845,596.9171,328.056,601.5,336.7737" style="stroke:#181818;stroke-width:1.0;"/><text fill="#000000" font-family="sans-serif" font-size="13" lengthAdjust="spacing" textLength="7" x="589.6545" y="289.5558">1</text><text fill="#000000" font-family="sans-serif" font-size="13" lengthAdjust="spacing" textLength="7" x="593.4688" y="325.7469">1</text></g><!--link ApplicationState to RejectionJustification--><g id="link_ApplicationState_RejectionJustification"><path codeLine="27" d="M553.12,268.0237 C520.86,290.7537 481.355,318.598 449.035,341.368 " fill="none" id="ApplicationState-to-RejectionJustification" style="stroke:#181818;stroke-width:1.0;"/><polygon fill="#181818" points="444.13,344.8237,453.7912,342.9102,448.2175,341.944,449.1837,336.3703,444.13,344.8237" style="stroke:#181818;stroke-width:1.0;"/><text fill="#000000" font-family="sans-serif" font-size="13" lengthAdjust="spacing" textLength="7" x="537.4694" y="289.5558">1</text><text fill="#000000" font-family="sans-serif" font-size="13" lengthAdjust="spacing" textLength="22" x="428.5506" y="333.8422">0..1</text></g><!--link Application to Interview--><g id="link_Application_Interview"><path codeLine="28" d="M727.55,108.6337 C780.44,135.9737 857.9493,176.0298 913.0193,204.4798 " fill="none" id="Application-to-Interview" style="stroke:#181818;stroke-width:1.0;"/><polygon fill="#181818" points="918.35,207.2337,912.1899,199.549,913.9078,204.9388,908.5181,206.6566,918.35,207.2337" style="stroke:#181818;stroke-width:1.0;"/><text fill="#000000" font-family="sans-serif" font-size="13" lengthAdjust="spacing" textLength="7" x="735.4886" y="127.9486">1</text><text fill="#000000" font-family="sans-serif" font-size="13" lengthAdjust="spacing" textLength="22" x="888.528" y="199.819">0..1</text></g><!--link Application to RequirementsAnswers--><g id="link_Application_RequirementsAnswers"><path codeLine="29" d="M626.34,111.3037 C578.39,138.5437 511.9363,176.3088 463.4663,203.8588 " fill="none" id="Application-to-RequirementsAnswers" style="stroke:#181818;stroke-width:1.0;"/><polygon fill="#181818" points="458.25,206.8237,468.051,205.8539,462.5969,204.3529,464.0978,198.8988,458.25,206.8237" style="stroke:#181818;stroke-width:1.0;"/><text fill="#000000" font-family="sans-serif" font-size="13" lengthAdjust="spacing" textLength="7" x="611.3853" y="131.0108">1</text><text fill="#000000" font-family="sans-serif" font-size="13" lengthAdjust="spacing" textLength="22" x="444.7578" y="195.8422">0..1</text></g><!--link Application to File--><g id="link_Application_File"><path codeLine="30" d="M626.32,95.3537 C553.37,114.4737 415.09,153.1737 302,199.0137 C296.13,201.3937 295.5273,201.5269 289.5473,204.3169 " fill="none" id="Application-to-File" style="stroke:#181818;stroke-width:1.0;"/><polygon fill="#181818" points="284.11,206.8537,293.9572,206.6733,288.6411,204.7397,290.5748,199.4236,284.11,206.8537" style="stroke:#181818;stroke-width:1.0;"/><text fill="#000000" font-family="sans-serif" font-size="13" lengthAdjust="spacing" textLength="7" x="611.3623" y="112.7181">1</text><text fill="#000000" font-family="sans-serif" font-size="13" lengthAdjust="spacing" textLength="5" x="290.1671" y="195.8784">*</text></g><!--link Application to RequirementsEvaluation--><g id="link_Application_RequirementsEvaluation"><path codeLine="32" d="M704.64,120.1837 C724.24,146.9037 746.63,177.4066 764.75,202.0966 " fill="none" id="Application-to-RequirementsEvaluation" style="stroke:#181818;stroke-width:1.0;"/><polygon fill="#181818" points="768.3,206.9337,766.1998,197.3113,765.3417,202.9027,759.7503,202.0446,768.3,206.9337" style="stroke:#181818;stroke-width:1.0;"/><text fill="#000000" font-family="sans-serif" font-size="13" lengthAdjust="spacing" textLength="7" x="701.3364" y="141.4922">1</text><text fill="#000000" font-family="sans-serif" font-size="13" lengthAdjust="spacing" textLength="7" x="756.1025" y="195.9749">1</text></g><!--link File to FilePath--><g id="link_File_FilePath"><path codeLine="34" d="M199.79,268.0237 C178.14,290.6837 152.5063,317.4968 130.7463,340.2568 " fill="none" id="File-to-FilePath" style="stroke:#181818;stroke-width:1.0;"/><polygon fill="#181818" points="126.6,344.5937,135.7107,340.8526,130.0552,340.9796,129.9282,335.3242,126.6,344.5937" style="stroke:#181818;stroke-width:1.0;"/><text fill="#000000" font-family="sans-serif" font-size="13" lengthAdjust="spacing" textLength="7" x="186.7453" y="289.5558">1</text><text fill="#000000" font-family="sans-serif" font-size="13" lengthAdjust="spacing" textLength="7" x="124.7769" y="333.5647">1</text></g><!--link File to FileType--><g id="link_File_FileType"><path codeLine="35" d="M229.08,268.0237 C229.92,290.6837 230.8387,315.8378 231.6787,338.5978 " fill="none" id="File-to-FileType" style="stroke:#181818;stroke-width:1.0;"/><polygon fill="#181818" points="231.9,344.5937,235.5653,335.4523,231.7156,339.5971,227.5708,335.7473,231.9,344.5937" style="stroke:#181818;stroke-width:1.0;"/><text fill="#000000" font-family="sans-serif" font-size="13" lengthAdjust="spacing" textLength="7" x="221.6187" y="289.5558">1</text><text fill="#000000" font-family="sans-serif" font-size="13" lengthAdjust="spacing" textLength="7" x="223.9513" y="333.5647">1</text></g><!--link Interview to InterviewAnswers--><g id="link_Interview_InterviewAnswers"><path codeLine="39" d="M1011.67,268.0237 C1039.92,290.7537 1074.1246,318.2932 1102.4346,341.0632 " fill="none" id="Interview-to-InterviewAnswers" style="stroke:#181818;stroke-width:1.0;"/><polygon fill="#181818" points="1107.11,344.8237,1102.6039,336.0661,1103.2139,341.69,1097.59,342.2999,1107.11,344.8237" style="stroke:#181818;stroke-width:1.0;"/><text fill="#000000" font-family="sans-serif" font-size="13" lengthAdjust="spacing" textLength="7" x="1010.993" y="289.5558">1</text><text fill="#000000" font-family="sans-serif" font-size="13" lengthAdjust="spacing" textLength="22" x="1075.2327" y="333.8422">0..1</text></g><!--link Interview to InterviewGrade--><g id="link_Interview_InterviewGrade"><path codeLine="40" d="M975,268.0237 C975,290.6837 975,315.8337 975,338.5937 " fill="none" id="Interview-to-InterviewGrade" style="stroke:#181818;stroke-width:1.0;"/><polygon fill="#181818" points="975,344.5937,979,335.5937,975,339.5937,971,335.5937,975,344.5937" style="stroke:#181818;stroke-width:1.0;"/><text fill="#000000" font-family="sans-serif" font-size="13" lengthAdjust="spacing" textLength="7" x="967.3328" y="289.5558">1</text><text fill="#000000" font-family="sans-serif" font-size="13" lengthAdjust="spacing" textLength="22" x="950.7313" y="333.5647">0..1</text></g><!--link Interview to InterviewDateTime--><g id="link_Interview_InterviewDateTime"><path codeLine="41" d="M937.46,268.0237 C908.54,290.7537 873.4579,318.3467 844.4779,341.1167 " fill="none" id="Interview-to-InterviewDateTime" style="stroke:#181818;stroke-width:1.0;"/><polygon fill="#181818" points="839.76,344.8237,849.3082,342.4086,843.6916,341.7346,844.3656,336.118,839.76,344.8237" style="stroke:#181818;stroke-width:1.0;"/><text fill="#000000" font-family="sans-serif" font-size="13" lengthAdjust="spacing" textLength="7" x="922.6368" y="289.5558">1</text><text fill="#000000" font-family="sans-serif" font-size="13" lengthAdjust="spacing" textLength="7" x="839.8261" y="333.8422">1</text></g><!--link Application to JobOpening--><g id="link_Application_JobOpening"><path codeLine="45" d="M727.64,95.3137 C800.16,114.3337 937.2,152.8137 1049,199.0137 C1059.16,203.2137 1064.474,205.5902 1074.374,210.6802 " fill="none" id="Application-to-JobOpening" style="stroke:#181818;stroke-width:1.0;"/><polygon fill="#181818" points="1079.71,213.4237,1073.5349,205.7511,1075.2633,211.1374,1069.877,212.8658,1079.71,213.4237" style="stroke:#181818;stroke-width:1.0;"/><text fill="#000000" font-family="sans-serif" font-size="13" lengthAdjust="spacing" textLength="52" x="970" y="165.042">Refers to</text><text fill="#000000" font-family="sans-serif" font-size="13" lengthAdjust="spacing" textLength="20" x="735.4095" y="93.069">0..*</text><text fill="#000000" font-family="sans-serif" font-size="13" lengthAdjust="spacing" textLength="7" x="1061.2326" y="202.1381">1</text></g><!--link Application to Candidate--><g id="link_Application_Candidate"><path codeLine="46" d="M727.61,87.7237 C822.27,98.8037 1031.16,129.5937 1193,199.0137 C1202.57,203.1137 1207.2872,205.3281 1216.4672,210.4781 " fill="none" id="Application-to-Candidate" style="stroke:#181818;stroke-width:1.0;"/><polygon fill="#181818" points="1221.7,213.4137,1215.8079,205.5217,1217.3393,210.9673,1211.8937,212.4988,1221.7,213.4137" style="stroke:#181818;stroke-width:1.0;"/><text fill="#000000" font-family="sans-serif" font-size="13" lengthAdjust="spacing" textLength="89" x="1113" y="165.042">Is submitted by</text><text fill="#000000" font-family="sans-serif" font-size="13" lengthAdjust="spacing" textLength="20" x="735.3757" y="103.6846">1..*</text><text fill="#000000" font-family="sans-serif" font-size="13" lengthAdjust="spacing" textLength="7" x="1204.245" y="202.1255">1</text></g><!--SRC=[ZLDVJuCm77pVfsZmRSaMVLq82N7Ji0Tdvk9x2xzX5GhI7rk8yRjRYcF0ofy-5DBUjNUNQqhzBne2STCquZv5dWWt3CaTLOCnyZCZQkZ9ZwYKJPnjxvC47SUsDm8v5evZndbhstwdKGvanpx1rmml-4StA4yyWbUA7rrq1pAoVIXIA1NbSMjh3zyvpo06WT8LyWoPl3ce1I_NbFXjBf4VQyUzLti28JjnEAyfme77PfdcWDvGSSPIrA0N6jVcL8ZhhkYhnyr9tMuMRL8znTbpHWEO0XpCjs69M0yMMImS_MqLPYfIXz85wyL1HXdZ2Ej-kLI_vXhqgwjOTH1ZG4Cf-obpI_TxE4Lp1IfEoMw1Bm-kVxTyJ1MvccjdlPQRDiRHkb9zs2RmyggK34C0wjJvbRHDs2u5mKL8LYgGev93C374rc8zKX7meEp0YdYIo9p57142mehPxny0]--></g></svg>