<?xml version="1.0" encoding="us-ascii" standalone="no"?><svg xmlns="http://www.w3.org/2000/svg" xmlns:xlink="http://www.w3.org/1999/xlink" contentStyleType="text/css" height="457.8px" preserveAspectRatio="none" style="width:1316px;height:457px;background:#FFFFFF;" version="1.1" viewBox="0 0 1316 457" width="1316.4px" zoomAndPan="magnify"><defs/><g><text fill="#000000" font-family="sans-serif" font-size="8.4" font-weight="bold" lengthAdjust="spacing" textLength="211.8" x="548.1" y="15.0645">Simplified Domain Model for Upload Requirements</text><!--cluster JobOpeningAgg--><g id="cluster_JobOpeningAgg"><path d="M662.7,224.1809 L731.1,224.1809 A2.25,2.25 0 0 1 732.6,225.6809 L736.8,238.9535 L1031.1,238.9535 A1.5,1.5 0 0 1 1032.6,240.4535 L1032.6,373.2809 A1.5,1.5 0 0 1 1031.1,374.7809 L662.7,374.7809 A1.5,1.5 0 0 1 661.2,373.2809 L661.2,225.6809 A1.5,1.5 0 0 1 662.7,224.1809 " fill="#BBAABB" style="stroke:#000000;stroke-width:0.8999999999999999;"/><line style="stroke:#000000;stroke-width:0.8999999999999999;" x1="661.2" x2="736.8" y1="238.9535" y2="238.9535"/><text fill="#000000" font-family="sans-serif" font-size="8.4" font-weight="bold" lengthAdjust="spacing" textLength="67.8" x="663.6" y="234.4453">JobOpeningAgg</text></g><!--cluster ApplicationAgg--><g id="cluster_ApplicationAgg"><path d="M290.1,125.1809 L353.7,125.1809 A2.25,2.25 0 0 1 355.2,126.6809 L359.4,139.9535 L645.3,139.9535 A1.5,1.5 0 0 1 646.8,141.4535 L646.8,378.0809 A1.5,1.5 0 0 1 645.3,379.5809 L290.1,379.5809 A1.5,1.5 0 0 1 288.6,378.0809 L288.6,126.6809 A1.5,1.5 0 0 1 290.1,125.1809 " fill="#AAAABB" style="stroke:#000000;stroke-width:0.8999999999999999;"/><line style="stroke:#000000;stroke-width:0.8999999999999999;" x1="288.6" x2="359.4" y1="139.9535" y2="139.9535"/><text fill="#000000" font-family="sans-serif" font-size="8.4" font-weight="bold" lengthAdjust="spacing" textLength="63" x="291" y="135.4453">ApplicationAgg</text></g><!--cluster CandidateAgg--><g id="cluster_CandidateAgg"><path d="M5.1,27.3809 L64.5,27.3809 A2.25,2.25 0 0 1 66,28.8809 L70.2,42.1535 L272.7,42.1535 A1.5,1.5 0 0 1 274.2,43.6535 L274.2,192.0809 A1.5,1.5 0 0 1 272.7,193.5809 L5.1,193.5809 A1.5,1.5 0 0 1 3.6,192.0809 L3.6,28.8809 A1.5,1.5 0 0 1 5.1,27.3809 " fill="#AABABB" style="stroke:#000000;stroke-width:0.8999999999999999;"/><line style="stroke:#000000;stroke-width:0.8999999999999999;" x1="3.6" x2="70.2" y1="42.1535" y2="42.1535"/><text fill="#000000" font-family="sans-serif" font-size="8.4" font-weight="bold" lengthAdjust="spacing" textLength="58.8" x="6" y="37.6453">CandidateAgg</text></g><!--cluster RequirementsSpecificationAgg--><g id="cluster_RequirementsSpecificationAgg"><path d="M1048.5,311.1809 L1179.3,311.1809 A2.25,2.25 0 0 1 1180.8,312.6809 L1185,325.9535 L1310.7,325.9535 A1.5,1.5 0 0 1 1312.2,327.4535 L1312.2,452.4809 A1.5,1.5 0 0 1 1310.7,453.9809 L1048.5,453.9809 A1.5,1.5 0 0 1 1047,452.4809 L1047,312.6809 A1.5,1.5 0 0 1 1048.5,311.1809 " fill="#BBBBAA" style="stroke:#000000;stroke-width:0.8999999999999999;"/><line style="stroke:#000000;stroke-width:0.8999999999999999;" x1="1047" x2="1185" y1="325.9535" y2="325.9535"/><text fill="#000000" font-family="sans-serif" font-size="8.4" font-weight="bold" lengthAdjust="spacing" textLength="130.2" x="1049.4" y="321.4453">RequirementsSpecificationAgg</text></g><!--class JobOpening--><g id="elem_JobOpening"><rect codeLine="7" fill="#F1F1F1" height="36.3258" id="JobOpening" rx="1.5" ry="1.5" style="stroke:#181818;stroke-width:0.3;" width="64.8" x="763.8" y="246.3809"/><ellipse cx="772.8" cy="264.5438" fill="#ADD1B2" rx="6.6" ry="6.6" style="stroke:#181818;stroke-width:0.6;"/><path d="M774.4594,262.0687 Q774.5531,261.9375 774.6656,261.8719 Q774.7781,261.8063 774.9094,261.8063 Q775.1344,261.8063 775.275,261.9656 Q775.4156,262.1156 775.4156,262.4813 L775.4156,263.3531 Q775.4156,263.7188 775.275,263.8781 Q775.1344,264.0375 774.9094,264.0375 Q774.7031,264.0375 774.5813,263.9156 Q774.4594,263.8031 774.3938,263.4938 Q774.3656,263.2781 774.2531,263.1656 Q774.0563,262.9406 773.6906,262.8094 Q773.325,262.6781 772.95,262.6781 Q772.4906,262.6781 772.1062,262.875 Q771.7312,263.0719 771.4313,263.5219 Q771.1406,263.9719 771.1406,264.5906 L771.1406,265.2469 Q771.1406,265.9875 771.675,266.4844 Q772.2094,266.9719 773.1656,266.9719 Q773.7281,266.9719 774.1219,266.8219 Q774.3562,266.7281 774.6094,266.4656 Q774.7688,266.3063 774.8531,266.2594 Q774.9469,266.2125 775.0688,266.2125 Q775.2656,266.2125 775.4156,266.3719 Q775.575,266.5219 775.575,266.7281 Q775.575,266.9344 775.3688,267.1781 Q775.0688,267.525 774.5906,267.7219 Q773.9438,267.9938 773.1656,267.9938 Q772.2563,267.9938 771.5344,267.6188 Q770.9438,267.3187 770.5313,266.6813 Q770.1188,266.0344 770.1188,265.2656 L770.1188,264.5719 Q770.1188,263.775 770.4844,263.0906 Q770.8594,262.3969 771.5156,262.0313 Q772.1719,261.6563 772.9125,261.6563 Q773.3531,261.6563 773.7375,261.7594 Q774.1313,261.8531 774.4594,262.0687 Z " fill="#000000"/><text fill="#000000" font-family="sans-serif" font-size="7.2" font-style="italic" lengthAdjust="spacing" textLength="24" x="792" y="257.1504">&#171;Root&#187;</text><text fill="#000000" font-family="sans-serif" font-size="7.2" font-style="italic" lengthAdjust="spacing" textLength="26.4" x="790.8" y="266.727">&#171;Entity&#187;</text><text fill="#000000" font-family="sans-serif" font-size="8.4" lengthAdjust="spacing" textLength="45.6" x="781.2" y="277.5984">JobOpening</text></g><!--class JobReference--><g id="elem_JobReference"><rect codeLine="8" fill="#F1F1F1" height="36.3258" id="JobReference" rx="1.5" ry="1.5" style="stroke:#181818;stroke-width:0.3;" width="72" x="670.8" y="246.3809"/><ellipse cx="679.8" cy="264.5438" fill="#ADD1B2" rx="6.6" ry="6.6" style="stroke:#181818;stroke-width:0.6;"/><path d="M681.4594,262.0687 Q681.5531,261.9375 681.6656,261.8719 Q681.7781,261.8063 681.9094,261.8063 Q682.1344,261.8063 682.275,261.9656 Q682.4156,262.1156 682.4156,262.4813 L682.4156,263.3531 Q682.4156,263.7188 682.275,263.8781 Q682.1344,264.0375 681.9094,264.0375 Q681.7031,264.0375 681.5813,263.9156 Q681.4594,263.8031 681.3938,263.4938 Q681.3656,263.2781 681.2531,263.1656 Q681.0563,262.9406 680.6906,262.8094 Q680.325,262.6781 679.95,262.6781 Q679.4906,262.6781 679.1062,262.875 Q678.7312,263.0719 678.4313,263.5219 Q678.1406,263.9719 678.1406,264.5906 L678.1406,265.2469 Q678.1406,265.9875 678.675,266.4844 Q679.2094,266.9719 680.1656,266.9719 Q680.7281,266.9719 681.1219,266.8219 Q681.3562,266.7281 681.6094,266.4656 Q681.7688,266.3063 681.8531,266.2594 Q681.9469,266.2125 682.0688,266.2125 Q682.2656,266.2125 682.4156,266.3719 Q682.575,266.5219 682.575,266.7281 Q682.575,266.9344 682.3688,267.1781 Q682.0688,267.525 681.5906,267.7219 Q680.9438,267.9938 680.1656,267.9938 Q679.2563,267.9938 678.5344,267.6188 Q677.9438,267.3187 677.5313,266.6813 Q677.1188,266.0344 677.1188,265.2656 L677.1188,264.5719 Q677.1188,263.775 677.4844,263.0906 Q677.8594,262.3969 678.5156,262.0313 Q679.1719,261.6563 679.9125,261.6563 Q680.3531,261.6563 680.7375,261.7594 Q681.1313,261.8531 681.4594,262.0687 Z " fill="#000000"/><text fill="#000000" font-family="sans-serif" font-size="7.2" font-style="italic" lengthAdjust="spacing" textLength="51" x="689.1" y="257.1504">&#171;Value Object&#187;</text><text fill="#000000" font-family="sans-serif" font-size="7.2" font-style="italic" lengthAdjust="spacing" textLength="15" x="707.1" y="266.727">&#171;Id&#187;</text><text fill="#000000" font-family="sans-serif" font-size="8.4" lengthAdjust="spacing" textLength="52.8" x="688.2" y="277.5984">JobReference</text></g><!--class JobOpeningTitle--><g id="elem_JobOpeningTitle"><rect codeLine="9" fill="#F1F1F1" height="26.7492" id="JobOpeningTitle" rx="1.5" ry="1.5" style="stroke:#181818;stroke-width:0.3;" width="81" x="849.9" y="251.1809"/><ellipse cx="858.9" cy="264.5555" fill="#ADD1B2" rx="6.6" ry="6.6" style="stroke:#181818;stroke-width:0.6;"/><path d="M860.5594,262.0805 Q860.6531,261.9492 860.7656,261.8836 Q860.8781,261.818 861.0094,261.818 Q861.2344,261.818 861.375,261.9773 Q861.5156,262.1273 861.5156,262.493 L861.5156,263.3648 Q861.5156,263.7305 861.375,263.8898 Q861.2344,264.0492 861.0094,264.0492 Q860.8031,264.0492 860.6813,263.9273 Q860.5594,263.8148 860.4938,263.5055 Q860.4656,263.2898 860.3531,263.1773 Q860.1563,262.9523 859.7906,262.8211 Q859.425,262.6898 859.05,262.6898 Q858.5906,262.6898 858.2063,262.8867 Q857.8313,263.0836 857.5313,263.5336 Q857.2406,263.9836 857.2406,264.6023 L857.2406,265.2586 Q857.2406,265.9992 857.775,266.4961 Q858.3094,266.9836 859.2656,266.9836 Q859.8281,266.9836 860.2219,266.8336 Q860.4563,266.7398 860.7094,266.4773 Q860.8688,266.318 860.9531,266.2711 Q861.0469,266.2242 861.1687,266.2242 Q861.3656,266.2242 861.5156,266.3836 Q861.675,266.5336 861.675,266.7398 Q861.675,266.9461 861.4688,267.1898 Q861.1687,267.5367 860.6906,267.7336 Q860.0437,268.0055 859.2656,268.0055 Q858.3562,268.0055 857.6344,267.6305 Q857.0437,267.3305 856.6313,266.693 Q856.2188,266.0461 856.2188,265.2773 L856.2188,264.5836 Q856.2188,263.7867 856.5844,263.1023 Q856.9594,262.4086 857.6156,262.043 Q858.2719,261.668 859.0125,261.668 Q859.4531,261.668 859.8375,261.7711 Q860.2312,261.8648 860.5594,262.0805 Z " fill="#000000"/><text fill="#000000" font-family="sans-serif" font-size="7.2" font-style="italic" lengthAdjust="spacing" textLength="51" x="872.7" y="261.9504">&#171;Value Object&#187;</text><text fill="#000000" font-family="sans-serif" font-size="8.4" lengthAdjust="spacing" textLength="61.8" x="867.3" y="272.8219">JobOpeningTitle</text></g><!--class ContractType--><g id="elem_ContractType"><rect codeLine="10" fill="#F1F1F1" height="26.7492" id="ContractType" rx="1.5" ry="1.5" style="stroke:#181818;stroke-width:0.3;" width="70.8" x="952.2" y="251.1809"/><ellipse cx="961.2" cy="264.5555" fill="#ADD1B2" rx="6.6" ry="6.6" style="stroke:#181818;stroke-width:0.6;"/><path d="M962.8594,262.0805 Q962.9531,261.9492 963.0656,261.8836 Q963.1781,261.818 963.3094,261.818 Q963.5344,261.818 963.675,261.9773 Q963.8156,262.1273 963.8156,262.493 L963.8156,263.3648 Q963.8156,263.7305 963.675,263.8898 Q963.5344,264.0492 963.3094,264.0492 Q963.1031,264.0492 962.9812,263.9273 Q962.8594,263.8148 962.7937,263.5055 Q962.7656,263.2898 962.6531,263.1773 Q962.4563,262.9523 962.0906,262.8211 Q961.725,262.6898 961.35,262.6898 Q960.8906,262.6898 960.5062,262.8867 Q960.1312,263.0836 959.8313,263.5336 Q959.5406,263.9836 959.5406,264.6023 L959.5406,265.2586 Q959.5406,265.9992 960.075,266.4961 Q960.6094,266.9836 961.5656,266.9836 Q962.1281,266.9836 962.5219,266.8336 Q962.7562,266.7398 963.0094,266.4773 Q963.1687,266.318 963.2531,266.2711 Q963.3469,266.2242 963.4688,266.2242 Q963.6656,266.2242 963.8156,266.3836 Q963.975,266.5336 963.975,266.7398 Q963.975,266.9461 963.7688,267.1898 Q963.4688,267.5367 962.9906,267.7336 Q962.3438,268.0055 961.5656,268.0055 Q960.6563,268.0055 959.9344,267.6305 Q959.3438,267.3305 958.9313,266.693 Q958.5188,266.0461 958.5188,265.2773 L958.5188,264.5836 Q958.5188,263.7867 958.8844,263.1023 Q959.2594,262.4086 959.9156,262.043 Q960.5719,261.668 961.3125,261.668 Q961.7531,261.668 962.1375,261.7711 Q962.5313,261.8648 962.8594,262.0805 Z " fill="#000000"/><text fill="#000000" font-family="sans-serif" font-size="7.2" font-style="italic" lengthAdjust="spacing" textLength="51" x="969.9" y="261.9504">&#171;Value Object&#187;</text><text fill="#000000" font-family="sans-serif" font-size="8.4" lengthAdjust="spacing" textLength="51.6" x="969.6" y="272.8219">ContractType</text></g><!--class Description--><g id="elem_Description"><rect codeLine="11" fill="#F1F1F1" height="26.7492" id="Description" rx="1.5" ry="1.5" style="stroke:#181818;stroke-width:0.3;" width="67.8" x="672.9" y="338.1809"/><ellipse cx="681.9" cy="351.5555" fill="#ADD1B2" rx="6.6" ry="6.6" style="stroke:#181818;stroke-width:0.6;"/><path d="M683.5594,349.0805 Q683.6531,348.9492 683.7656,348.8836 Q683.8781,348.818 684.0094,348.818 Q684.2344,348.818 684.375,348.9773 Q684.5156,349.1273 684.5156,349.493 L684.5156,350.3648 Q684.5156,350.7305 684.375,350.8898 Q684.2344,351.0492 684.0094,351.0492 Q683.8031,351.0492 683.6813,350.9273 Q683.5594,350.8148 683.4938,350.5055 Q683.4656,350.2898 683.3531,350.1773 Q683.1563,349.9523 682.7906,349.8211 Q682.425,349.6898 682.05,349.6898 Q681.5906,349.6898 681.2063,349.8867 Q680.8313,350.0836 680.5313,350.5336 Q680.2406,350.9836 680.2406,351.6023 L680.2406,352.2586 Q680.2406,352.9992 680.775,353.4961 Q681.3094,353.9836 682.2656,353.9836 Q682.8281,353.9836 683.2219,353.8336 Q683.4563,353.7398 683.7094,353.4773 Q683.8688,353.318 683.9531,353.2711 Q684.0469,353.2242 684.1687,353.2242 Q684.3656,353.2242 684.5156,353.3836 Q684.675,353.5336 684.675,353.7398 Q684.675,353.9461 684.4688,354.1898 Q684.1687,354.5367 683.6906,354.7336 Q683.0437,355.0055 682.2656,355.0055 Q681.3562,355.0055 680.6344,354.6305 Q680.0437,354.3305 679.6313,353.693 Q679.2188,353.0461 679.2188,352.2773 L679.2188,351.5836 Q679.2188,350.7867 679.5844,350.1023 Q679.9594,349.4086 680.6156,349.043 Q681.2719,348.668 682.0125,348.668 Q682.4531,348.668 682.8375,348.7711 Q683.2312,348.8648 683.5594,349.0805 Z " fill="#000000"/><text fill="#000000" font-family="sans-serif" font-size="7.2" font-style="italic" lengthAdjust="spacing" textLength="51" x="689.1" y="348.9504">&#171;Value Object&#187;</text><text fill="#000000" font-family="sans-serif" font-size="8.4" lengthAdjust="spacing" textLength="42.6" x="693.3" y="359.8219">Description</text></g><!--class Address--><g id="elem_Address"><rect codeLine="12" fill="#F1F1F1" height="26.7492" id="Address" rx="1.5" ry="1.5" style="stroke:#181818;stroke-width:0.3;" width="67.8" x="761.7" y="338.1809"/><ellipse cx="770.7" cy="351.5555" fill="#ADD1B2" rx="6.6" ry="6.6" style="stroke:#181818;stroke-width:0.6;"/><path d="M772.3594,349.0805 Q772.4531,348.9492 772.5656,348.8836 Q772.6781,348.818 772.8094,348.818 Q773.0344,348.818 773.175,348.9773 Q773.3156,349.1273 773.3156,349.493 L773.3156,350.3648 Q773.3156,350.7305 773.175,350.8898 Q773.0344,351.0492 772.8094,351.0492 Q772.6031,351.0492 772.4812,350.9273 Q772.3594,350.8148 772.2937,350.5055 Q772.2656,350.2898 772.1531,350.1773 Q771.9563,349.9523 771.5906,349.8211 Q771.225,349.6898 770.85,349.6898 Q770.3906,349.6898 770.0063,349.8867 Q769.6313,350.0836 769.3313,350.5336 Q769.0406,350.9836 769.0406,351.6023 L769.0406,352.2586 Q769.0406,352.9992 769.575,353.4961 Q770.1094,353.9836 771.0656,353.9836 Q771.6281,353.9836 772.0219,353.8336 Q772.2563,353.7398 772.5094,353.4773 Q772.6687,353.318 772.7531,353.2711 Q772.8469,353.2242 772.9688,353.2242 Q773.1656,353.2242 773.3156,353.3836 Q773.475,353.5336 773.475,353.7398 Q773.475,353.9461 773.2688,354.1898 Q772.9688,354.5367 772.4906,354.7336 Q771.8438,355.0055 771.0656,355.0055 Q770.1563,355.0055 769.4344,354.6305 Q768.8438,354.3305 768.4313,353.693 Q768.0188,353.0461 768.0188,352.2773 L768.0188,351.5836 Q768.0188,350.7867 768.3844,350.1023 Q768.7594,349.4086 769.4156,349.043 Q770.0719,348.668 770.8125,348.668 Q771.2531,348.668 771.6375,348.7711 Q772.0313,348.8648 772.3594,349.0805 Z " fill="#000000"/><text fill="#000000" font-family="sans-serif" font-size="7.2" font-style="italic" lengthAdjust="spacing" textLength="51" x="777.9" y="348.9504">&#171;Value Object&#187;</text><text fill="#000000" font-family="sans-serif" font-size="8.4" lengthAdjust="spacing" textLength="31.2" x="787.8" y="359.8219">Address</text></g><!--class JobMode--><g id="elem_JobMode"><rect codeLine="13" fill="#F1F1F1" height="26.7492" id="JobMode" rx="1.5" ry="1.5" style="stroke:#181818;stroke-width:0.3;" width="67.8" x="850.5" y="338.1809"/><ellipse cx="859.5" cy="351.5555" fill="#ADD1B2" rx="6.6" ry="6.6" style="stroke:#181818;stroke-width:0.6;"/><path d="M861.1594,349.0805 Q861.2531,348.9492 861.3656,348.8836 Q861.4781,348.818 861.6094,348.818 Q861.8344,348.818 861.975,348.9773 Q862.1156,349.1273 862.1156,349.493 L862.1156,350.3648 Q862.1156,350.7305 861.975,350.8898 Q861.8344,351.0492 861.6094,351.0492 Q861.4031,351.0492 861.2813,350.9273 Q861.1594,350.8148 861.0938,350.5055 Q861.0656,350.2898 860.9531,350.1773 Q860.7563,349.9523 860.3906,349.8211 Q860.025,349.6898 859.65,349.6898 Q859.1906,349.6898 858.8063,349.8867 Q858.4313,350.0836 858.1313,350.5336 Q857.8406,350.9836 857.8406,351.6023 L857.8406,352.2586 Q857.8406,352.9992 858.375,353.4961 Q858.9094,353.9836 859.8656,353.9836 Q860.4281,353.9836 860.8219,353.8336 Q861.0563,353.7398 861.3094,353.4773 Q861.4688,353.318 861.5531,353.2711 Q861.6469,353.2242 861.7688,353.2242 Q861.9656,353.2242 862.1156,353.3836 Q862.275,353.5336 862.275,353.7398 Q862.275,353.9461 862.0688,354.1898 Q861.7688,354.5367 861.2906,354.7336 Q860.6438,355.0055 859.8656,355.0055 Q858.9563,355.0055 858.2344,354.6305 Q857.6438,354.3305 857.2312,353.693 Q856.8188,353.0461 856.8188,352.2773 L856.8188,351.5836 Q856.8188,350.7867 857.1844,350.1023 Q857.5594,349.4086 858.2156,349.043 Q858.8719,348.668 859.6125,348.668 Q860.0531,348.668 860.4375,348.7711 Q860.8313,348.8648 861.1594,349.0805 Z " fill="#000000"/><text fill="#000000" font-family="sans-serif" font-size="7.2" font-style="italic" lengthAdjust="spacing" textLength="51" x="866.7" y="348.9504">&#171;Value Object&#187;</text><text fill="#000000" font-family="sans-serif" font-size="8.4" lengthAdjust="spacing" textLength="34.2" x="875.1" y="359.8219">JobMode</text></g><!--class Application--><g id="elem_Application"><rect codeLine="17" fill="#F1F1F1" height="36.3258" id="Application" rx="1.5" ry="1.5" style="stroke:#181818;stroke-width:0.3;" width="60.6" x="438.3" y="147.3809"/><ellipse cx="447.3" cy="165.5438" fill="#ADD1B2" rx="6.6" ry="6.6" style="stroke:#181818;stroke-width:0.6;"/><path d="M448.9594,163.0688 Q449.0531,162.9375 449.1656,162.8719 Q449.2781,162.8063 449.4094,162.8063 Q449.6344,162.8063 449.775,162.9656 Q449.9156,163.1156 449.9156,163.4813 L449.9156,164.3531 Q449.9156,164.7188 449.775,164.8781 Q449.6344,165.0375 449.4094,165.0375 Q449.2031,165.0375 449.0813,164.9156 Q448.9594,164.8031 448.8938,164.4938 Q448.8656,164.2781 448.7531,164.1656 Q448.5563,163.9406 448.1906,163.8094 Q447.825,163.6781 447.45,163.6781 Q446.9906,163.6781 446.6063,163.875 Q446.2313,164.0719 445.9313,164.5219 Q445.6406,164.9719 445.6406,165.5906 L445.6406,166.2469 Q445.6406,166.9875 446.175,167.4844 Q446.7094,167.9719 447.6656,167.9719 Q448.2281,167.9719 448.6219,167.8219 Q448.8563,167.7281 449.1094,167.4656 Q449.2688,167.3063 449.3531,167.2594 Q449.4469,167.2125 449.5687,167.2125 Q449.7656,167.2125 449.9156,167.3719 Q450.075,167.5219 450.075,167.7281 Q450.075,167.9344 449.8688,168.1781 Q449.5687,168.525 449.0906,168.7219 Q448.4437,168.9938 447.6656,168.9938 Q446.7562,168.9938 446.0344,168.6188 Q445.4437,168.3188 445.0313,167.6813 Q444.6188,167.0344 444.6188,166.2656 L444.6188,165.5719 Q444.6188,164.775 444.9844,164.0906 Q445.3594,163.3969 446.0156,163.0313 Q446.6719,162.6563 447.4125,162.6563 Q447.8531,162.6563 448.2375,162.7594 Q448.6312,162.8531 448.9594,163.0688 Z " fill="#000000"/><text fill="#000000" font-family="sans-serif" font-size="7.2" font-style="italic" lengthAdjust="spacing" textLength="24" x="464.4" y="158.1504">&#171;Root&#187;</text><text fill="#000000" font-family="sans-serif" font-size="7.2" font-style="italic" lengthAdjust="spacing" textLength="26.4" x="463.2" y="167.727">&#171;Entity&#187;</text><text fill="#000000" font-family="sans-serif" font-size="8.4" lengthAdjust="spacing" textLength="41.4" x="455.7" y="178.5984">Application</text></g><!--class ApplicationID--><g id="elem_ApplicationID"><rect codeLine="18" fill="#F1F1F1" height="36.3258" id="ApplicationID" rx="1.5" ry="1.5" style="stroke:#181818;stroke-width:0.3;" width="68.4" x="298.2" y="246.3809"/><ellipse cx="307.2" cy="264.5438" fill="#ADD1B2" rx="6.6" ry="6.6" style="stroke:#181818;stroke-width:0.6;"/><path d="M308.8594,262.0687 Q308.9531,261.9375 309.0656,261.8719 Q309.1781,261.8063 309.3094,261.8063 Q309.5344,261.8063 309.675,261.9656 Q309.8156,262.1156 309.8156,262.4813 L309.8156,263.3531 Q309.8156,263.7188 309.675,263.8781 Q309.5344,264.0375 309.3094,264.0375 Q309.1031,264.0375 308.9813,263.9156 Q308.8594,263.8031 308.7938,263.4938 Q308.7656,263.2781 308.6531,263.1656 Q308.4563,262.9406 308.0906,262.8094 Q307.725,262.6781 307.35,262.6781 Q306.8906,262.6781 306.5062,262.875 Q306.1312,263.0719 305.8313,263.5219 Q305.5406,263.9719 305.5406,264.5906 L305.5406,265.2469 Q305.5406,265.9875 306.075,266.4844 Q306.6094,266.9719 307.5656,266.9719 Q308.1281,266.9719 308.5219,266.8219 Q308.7562,266.7281 309.0094,266.4656 Q309.1688,266.3063 309.2531,266.2594 Q309.3469,266.2125 309.4688,266.2125 Q309.6656,266.2125 309.8156,266.3719 Q309.975,266.5219 309.975,266.7281 Q309.975,266.9344 309.7688,267.1781 Q309.4688,267.525 308.9906,267.7219 Q308.3438,267.9938 307.5656,267.9938 Q306.6563,267.9938 305.9344,267.6188 Q305.3438,267.3187 304.9313,266.6813 Q304.5188,266.0344 304.5188,265.2656 L304.5188,264.5719 Q304.5188,263.775 304.8844,263.0906 Q305.2594,262.3969 305.9156,262.0313 Q306.5719,261.6563 307.3125,261.6563 Q307.7531,261.6563 308.1375,261.7594 Q308.5313,261.8531 308.8594,262.0687 Z " fill="#000000"/><text fill="#000000" font-family="sans-serif" font-size="7.2" font-style="italic" lengthAdjust="spacing" textLength="51" x="314.7" y="257.1504">&#171;Value Object&#187;</text><text fill="#000000" font-family="sans-serif" font-size="7.2" font-style="italic" lengthAdjust="spacing" textLength="15" x="332.7" y="266.727">&#171;Id&#187;</text><text fill="#000000" font-family="sans-serif" font-size="8.4" lengthAdjust="spacing" textLength="49.2" x="315.6" y="277.5984">ApplicationID</text></g><!--class FilePath--><g id="elem_FilePath"><rect codeLine="19" fill="#F1F1F1" height="26.7492" id="FilePath" rx="1.5" ry="1.5" style="stroke:#181818;stroke-width:0.3;" width="67.8" x="306.9" y="338.1809"/><ellipse cx="315.9" cy="351.5555" fill="#ADD1B2" rx="6.6" ry="6.6" style="stroke:#181818;stroke-width:0.6;"/><path d="M317.5594,349.0805 Q317.6531,348.9492 317.7656,348.8836 Q317.8781,348.818 318.0094,348.818 Q318.2344,348.818 318.375,348.9773 Q318.5156,349.1273 318.5156,349.493 L318.5156,350.3648 Q318.5156,350.7305 318.375,350.8898 Q318.2344,351.0492 318.0094,351.0492 Q317.8031,351.0492 317.6813,350.9273 Q317.5594,350.8148 317.4938,350.5055 Q317.4656,350.2898 317.3531,350.1773 Q317.1563,349.9523 316.7906,349.8211 Q316.425,349.6898 316.05,349.6898 Q315.5906,349.6898 315.2063,349.8867 Q314.8313,350.0836 314.5313,350.5336 Q314.2406,350.9836 314.2406,351.6023 L314.2406,352.2586 Q314.2406,352.9992 314.775,353.4961 Q315.3094,353.9836 316.2656,353.9836 Q316.8281,353.9836 317.2219,353.8336 Q317.4563,353.7398 317.7094,353.4773 Q317.8688,353.318 317.9531,353.2711 Q318.0469,353.2242 318.1688,353.2242 Q318.3656,353.2242 318.5156,353.3836 Q318.675,353.5336 318.675,353.7398 Q318.675,353.9461 318.4688,354.1898 Q318.1688,354.5367 317.6906,354.7336 Q317.0438,355.0055 316.2656,355.0055 Q315.3563,355.0055 314.6344,354.6305 Q314.0438,354.3305 313.6312,353.693 Q313.2188,353.0461 313.2188,352.2773 L313.2188,351.5836 Q313.2188,350.7867 313.5844,350.1023 Q313.9594,349.4086 314.6156,349.043 Q315.2719,348.668 316.0125,348.668 Q316.4531,348.668 316.8375,348.7711 Q317.2313,348.8648 317.5594,349.0805 Z " fill="#000000"/><text fill="#000000" font-family="sans-serif" font-size="7.2" font-style="italic" lengthAdjust="spacing" textLength="51" x="323.1" y="348.9504">&#171;Value Object&#187;</text><text fill="#000000" font-family="sans-serif" font-size="8.4" lengthAdjust="spacing" textLength="31.2" x="333" y="359.8219">FilePath</text></g><!--class File--><g id="elem_File"><rect codeLine="20" fill="#F1F1F1" height="26.7492" id="File" rx="1.5" ry="1.5" style="stroke:#181818;stroke-width:0.3;" width="67.8" x="387.9" y="251.1809"/><ellipse cx="396.9" cy="264.5555" fill="#ADD1B2" rx="6.6" ry="6.6" style="stroke:#181818;stroke-width:0.6;"/><path d="M398.5594,262.0805 Q398.6531,261.9492 398.7656,261.8836 Q398.8781,261.818 399.0094,261.818 Q399.2344,261.818 399.375,261.9773 Q399.5156,262.1273 399.5156,262.493 L399.5156,263.3648 Q399.5156,263.7305 399.375,263.8898 Q399.2344,264.0492 399.0094,264.0492 Q398.8031,264.0492 398.6813,263.9273 Q398.5594,263.8148 398.4938,263.5055 Q398.4656,263.2898 398.3531,263.1773 Q398.1563,262.9523 397.7906,262.8211 Q397.425,262.6898 397.05,262.6898 Q396.5906,262.6898 396.2063,262.8867 Q395.8313,263.0836 395.5313,263.5336 Q395.2406,263.9836 395.2406,264.6023 L395.2406,265.2586 Q395.2406,265.9992 395.775,266.4961 Q396.3094,266.9836 397.2656,266.9836 Q397.8281,266.9836 398.2219,266.8336 Q398.4563,266.7398 398.7094,266.4773 Q398.8688,266.318 398.9531,266.2711 Q399.0469,266.2242 399.1688,266.2242 Q399.3656,266.2242 399.5156,266.3836 Q399.675,266.5336 399.675,266.7398 Q399.675,266.9461 399.4688,267.1898 Q399.1688,267.5367 398.6906,267.7336 Q398.0438,268.0055 397.2656,268.0055 Q396.3563,268.0055 395.6344,267.6305 Q395.0438,267.3305 394.6312,266.693 Q394.2188,266.0461 394.2188,265.2773 L394.2188,264.5836 Q394.2188,263.7867 394.5844,263.1023 Q394.9594,262.4086 395.6156,262.043 Q396.2719,261.668 397.0125,261.668 Q397.4531,261.668 397.8375,261.7711 Q398.2313,261.8648 398.5594,262.0805 Z " fill="#000000"/><text fill="#000000" font-family="sans-serif" font-size="7.2" font-style="italic" lengthAdjust="spacing" textLength="51" x="404.1" y="261.9504">&#171;Value Object&#187;</text><text fill="#000000" font-family="sans-serif" font-size="8.4" lengthAdjust="spacing" textLength="13.8" x="422.7" y="272.8219">File</text></g><!--class FileType--><g id="elem_FileType"><rect codeLine="21" fill="#F1F1F1" height="26.7492" id="FileType" rx="1.5" ry="1.5" style="stroke:#181818;stroke-width:0.3;" width="52.2" x="395.7" y="338.1809"/><ellipse cx="404.7" cy="351.5555" fill="#ADD1B2" rx="6.6" ry="6.6" style="stroke:#181818;stroke-width:0.6;"/><path d="M406.3594,349.0805 Q406.4531,348.9492 406.5656,348.8836 Q406.6781,348.818 406.8094,348.818 Q407.0344,348.818 407.175,348.9773 Q407.3156,349.1273 407.3156,349.493 L407.3156,350.3648 Q407.3156,350.7305 407.175,350.8898 Q407.0344,351.0492 406.8094,351.0492 Q406.6031,351.0492 406.4813,350.9273 Q406.3594,350.8148 406.2938,350.5055 Q406.2656,350.2898 406.1531,350.1773 Q405.9563,349.9523 405.5906,349.8211 Q405.225,349.6898 404.85,349.6898 Q404.3906,349.6898 404.0062,349.8867 Q403.6312,350.0836 403.3313,350.5336 Q403.0406,350.9836 403.0406,351.6023 L403.0406,352.2586 Q403.0406,352.9992 403.575,353.4961 Q404.1094,353.9836 405.0656,353.9836 Q405.6281,353.9836 406.0219,353.8336 Q406.2562,353.7398 406.5094,353.4773 Q406.6688,353.318 406.7531,353.2711 Q406.8469,353.2242 406.9688,353.2242 Q407.1656,353.2242 407.3156,353.3836 Q407.475,353.5336 407.475,353.7398 Q407.475,353.9461 407.2688,354.1898 Q406.9688,354.5367 406.4906,354.7336 Q405.8438,355.0055 405.0656,355.0055 Q404.1563,355.0055 403.4344,354.6305 Q402.8438,354.3305 402.4313,353.693 Q402.0188,353.0461 402.0188,352.2773 L402.0188,351.5836 Q402.0188,350.7867 402.3844,350.1023 Q402.7594,349.4086 403.4156,349.043 Q404.0719,348.668 404.8125,348.668 Q405.2531,348.668 405.6375,348.7711 Q406.0313,348.8648 406.3594,349.0805 Z " fill="#000000"/><text fill="#000000" font-family="sans-serif" font-size="7.2" font-style="italic" lengthAdjust="spacing" textLength="28.2" x="415.5" y="348.9504">&#171;Enum&#187;</text><text fill="#000000" font-family="sans-serif" font-size="8.4" lengthAdjust="spacing" textLength="33" x="413.1" y="359.8219">FileType</text></g><!--class ApplicationState--><g id="elem_ApplicationState"><rect codeLine="23" fill="#F1F1F1" height="26.7492" id="ApplicationState" rx="1.5" ry="1.5" style="stroke:#181818;stroke-width:0.3;" width="80.4" x="477" y="251.1809"/><ellipse cx="486" cy="264.5555" fill="#ADD1B2" rx="6.6" ry="6.6" style="stroke:#181818;stroke-width:0.6;"/><path d="M487.6594,262.0805 Q487.7531,261.9492 487.8656,261.8836 Q487.9781,261.818 488.1094,261.818 Q488.3344,261.818 488.475,261.9773 Q488.6156,262.1273 488.6156,262.493 L488.6156,263.3648 Q488.6156,263.7305 488.475,263.8898 Q488.3344,264.0492 488.1094,264.0492 Q487.9031,264.0492 487.7813,263.9273 Q487.6594,263.8148 487.5938,263.5055 Q487.5656,263.2898 487.4531,263.1773 Q487.2562,262.9523 486.8906,262.8211 Q486.525,262.6898 486.15,262.6898 Q485.6906,262.6898 485.3063,262.8867 Q484.9313,263.0836 484.6312,263.5336 Q484.3406,263.9836 484.3406,264.6023 L484.3406,265.2586 Q484.3406,265.9992 484.875,266.4961 Q485.4094,266.9836 486.3656,266.9836 Q486.9281,266.9836 487.3219,266.8336 Q487.5563,266.7398 487.8094,266.4773 Q487.9688,266.318 488.0531,266.2711 Q488.1469,266.2242 488.2687,266.2242 Q488.4656,266.2242 488.6156,266.3836 Q488.775,266.5336 488.775,266.7398 Q488.775,266.9461 488.5687,267.1898 Q488.2687,267.5367 487.7906,267.7336 Q487.1437,268.0055 486.3656,268.0055 Q485.4562,268.0055 484.7344,267.6305 Q484.1437,267.3305 483.7313,266.693 Q483.3187,266.0461 483.3187,265.2773 L483.3187,264.5836 Q483.3187,263.7867 483.6844,263.1023 Q484.0594,262.4086 484.7156,262.043 Q485.3719,261.668 486.1125,261.668 Q486.5531,261.668 486.9375,261.7711 Q487.3312,261.8648 487.6594,262.0805 Z " fill="#000000"/><text fill="#000000" font-family="sans-serif" font-size="7.2" font-style="italic" lengthAdjust="spacing" textLength="26.4" x="511.8" y="261.9504">&#171;Entity&#187;</text><text fill="#000000" font-family="sans-serif" font-size="8.4" lengthAdjust="spacing" textLength="61.2" x="494.4" y="272.8219">ApplicationState</text></g><!--class ApplicationStateName--><g id="elem_ApplicationStateName"><rect codeLine="24" fill="#F1F1F1" height="36.3258" id="ApplicationStateName" rx="1.5" ry="1.5" style="stroke:#181818;stroke-width:0.3;" width="102" x="469.2" y="333.3809"/><ellipse cx="478.2" cy="351.5438" fill="#ADD1B2" rx="6.6" ry="6.6" style="stroke:#181818;stroke-width:0.6;"/><path d="M479.8594,349.0687 Q479.9531,348.9375 480.0656,348.8719 Q480.1781,348.8063 480.3094,348.8063 Q480.5344,348.8063 480.675,348.9656 Q480.8156,349.1156 480.8156,349.4813 L480.8156,350.3531 Q480.8156,350.7188 480.675,350.8781 Q480.5344,351.0375 480.3094,351.0375 Q480.1031,351.0375 479.9813,350.9156 Q479.8594,350.8031 479.7938,350.4938 Q479.7656,350.2781 479.6531,350.1656 Q479.4562,349.9406 479.0906,349.8094 Q478.725,349.6781 478.35,349.6781 Q477.8906,349.6781 477.5062,349.875 Q477.1312,350.0719 476.8312,350.5219 Q476.5406,350.9719 476.5406,351.5906 L476.5406,352.2469 Q476.5406,352.9875 477.075,353.4844 Q477.6094,353.9719 478.5656,353.9719 Q479.1281,353.9719 479.5219,353.8219 Q479.7562,353.7281 480.0094,353.4656 Q480.1688,353.3063 480.2531,353.2594 Q480.3469,353.2125 480.4688,353.2125 Q480.6656,353.2125 480.8156,353.3719 Q480.975,353.5219 480.975,353.7281 Q480.975,353.9344 480.7687,354.1781 Q480.4688,354.525 479.9906,354.7219 Q479.3438,354.9938 478.5656,354.9938 Q477.6563,354.9938 476.9344,354.6188 Q476.3438,354.3187 475.9313,353.6813 Q475.5187,353.0344 475.5187,352.2656 L475.5187,351.5719 Q475.5187,350.775 475.8844,350.0906 Q476.2594,349.3969 476.9156,349.0313 Q477.5719,348.6563 478.3125,348.6563 Q478.7531,348.6563 479.1375,348.7594 Q479.5313,348.8531 479.8594,349.0687 Z " fill="#000000"/><text fill="#000000" font-family="sans-serif" font-size="7.2" font-style="italic" lengthAdjust="spacing" textLength="28.2" x="513.9" y="344.1504">&#171;Enum&#187;</text><text fill="#000000" font-family="sans-serif" font-size="7.2" font-style="italic" lengthAdjust="spacing" textLength="16.2" x="519.9" y="353.727">&#171;ID&#187;</text><text fill="#000000" font-family="sans-serif" font-size="8.4" lengthAdjust="spacing" textLength="82.8" x="486.6" y="364.5984">ApplicationStateName</text></g><!--class Candidate--><g id="elem_Candidate"><rect fill="#F1F1F1" height="19.2" id="Candidate" rx="1.5" ry="1.5" style="stroke:#181818;stroke-width:0.3;" width="58.2" x="578.7" y="255.0809"/><ellipse cx="587.7" cy="264.6809" fill="#ADD1B2" rx="6.6" ry="6.6" style="stroke:#181818;stroke-width:0.6;"/><path d="M589.3594,262.2059 Q589.4531,262.0746 589.5656,262.009 Q589.6781,261.9434 589.8094,261.9434 Q590.0344,261.9434 590.175,262.1027 Q590.3156,262.2527 590.3156,262.6184 L590.3156,263.4902 Q590.3156,263.8559 590.175,264.0152 Q590.0344,264.1746 589.8094,264.1746 Q589.6031,264.1746 589.4812,264.0527 Q589.3594,263.9402 589.2937,263.6309 Q589.2656,263.4152 589.1531,263.3027 Q588.9563,263.0777 588.5906,262.9465 Q588.225,262.8152 587.85,262.8152 Q587.3906,262.8152 587.0063,263.0121 Q586.6313,263.209 586.3313,263.659 Q586.0406,264.109 586.0406,264.7277 L586.0406,265.384 Q586.0406,266.1246 586.575,266.6215 Q587.1094,267.109 588.0656,267.109 Q588.6281,267.109 589.0219,266.959 Q589.2563,266.8652 589.5094,266.6027 Q589.6687,266.4434 589.7531,266.3965 Q589.8469,266.3496 589.9688,266.3496 Q590.1656,266.3496 590.3156,266.509 Q590.475,266.659 590.475,266.8652 Q590.475,267.0715 590.2688,267.3152 Q589.9688,267.6621 589.4906,267.859 Q588.8438,268.1309 588.0656,268.1309 Q587.1563,268.1309 586.4344,267.7559 Q585.8438,267.4559 585.4313,266.8184 Q585.0188,266.1715 585.0188,265.4027 L585.0188,264.709 Q585.0188,263.9121 585.3844,263.2277 Q585.7594,262.534 586.4156,262.1684 Q587.0719,261.7934 587.8125,261.7934 Q588.2531,261.7934 588.6375,261.8965 Q589.0313,261.9902 589.3594,262.2059 Z " fill="#000000"/><text fill="#000000" font-family="sans-serif" font-size="8.4" lengthAdjust="spacing" textLength="39" x="596.1" y="268.159">Candidate</text></g><!--class Candidate--><g id="elem_Candidate"><rect codeLine="38" fill="#F1F1F1" height="36.3258" id="Candidate" rx="1.5" ry="1.5" style="stroke:#181818;stroke-width:0.3;" width="58.2" x="152.7" y="49.5809"/><ellipse cx="161.7" cy="67.7437" fill="#ADD1B2" rx="6.6" ry="6.6" style="stroke:#181818;stroke-width:0.6;"/><path d="M163.3594,65.2688 Q163.4531,65.1375 163.5656,65.0719 Q163.6781,65.0063 163.8094,65.0063 Q164.0344,65.0063 164.175,65.1656 Q164.3156,65.3156 164.3156,65.6812 L164.3156,66.5531 Q164.3156,66.9188 164.175,67.0781 Q164.0344,67.2375 163.8094,67.2375 Q163.6031,67.2375 163.4813,67.1156 Q163.3594,67.0031 163.2938,66.6938 Q163.2656,66.4781 163.1531,66.3656 Q162.9562,66.1406 162.5906,66.0094 Q162.225,65.8781 161.85,65.8781 Q161.3906,65.8781 161.0063,66.075 Q160.6313,66.2719 160.3312,66.7219 Q160.0406,67.1719 160.0406,67.7906 L160.0406,68.4469 Q160.0406,69.1875 160.575,69.6844 Q161.1094,70.1719 162.0656,70.1719 Q162.6281,70.1719 163.0219,70.0219 Q163.2563,69.9281 163.5094,69.6656 Q163.6688,69.5063 163.7531,69.4594 Q163.8469,69.4125 163.9688,69.4125 Q164.1656,69.4125 164.3156,69.5719 Q164.475,69.7219 164.475,69.9281 Q164.475,70.1344 164.2687,70.3781 Q163.9688,70.725 163.4906,70.9219 Q162.8438,71.1938 162.0656,71.1938 Q161.1563,71.1938 160.4344,70.8188 Q159.8438,70.5188 159.4313,69.8813 Q159.0187,69.2344 159.0187,68.4656 L159.0187,67.7719 Q159.0187,66.975 159.3844,66.2906 Q159.7594,65.5969 160.4156,65.2313 Q161.0719,64.8563 161.8125,64.8563 Q162.2531,64.8563 162.6375,64.9594 Q163.0313,65.0531 163.3594,65.2688 Z " fill="#000000"/><text fill="#000000" font-family="sans-serif" font-size="7.2" font-style="italic" lengthAdjust="spacing" textLength="24" x="177.6" y="60.3504">&#171;Root&#187;</text><text fill="#000000" font-family="sans-serif" font-size="7.2" font-style="italic" lengthAdjust="spacing" textLength="26.4" x="176.4" y="69.927">&#171;Entity&#187;</text><text fill="#000000" font-family="sans-serif" font-size="8.4" lengthAdjust="spacing" textLength="39" x="170.1" y="80.7984">Candidate</text></g><!--class Email--><g id="elem_Email"><rect codeLine="39" fill="#F1F1F1" height="36.3258" id="Email" rx="1.5" ry="1.5" style="stroke:#181818;stroke-width:0.3;" width="67.8" x="13.5" y="147.3809"/><ellipse cx="22.5" cy="165.5438" fill="#ADD1B2" rx="6.6" ry="6.6" style="stroke:#181818;stroke-width:0.6;"/><path d="M24.1594,163.0688 Q24.2531,162.9375 24.3656,162.8719 Q24.4781,162.8063 24.6094,162.8063 Q24.8344,162.8063 24.975,162.9656 Q25.1156,163.1156 25.1156,163.4813 L25.1156,164.3531 Q25.1156,164.7188 24.975,164.8781 Q24.8344,165.0375 24.6094,165.0375 Q24.4031,165.0375 24.2813,164.9156 Q24.1594,164.8031 24.0938,164.4938 Q24.0656,164.2781 23.9531,164.1656 Q23.7562,163.9406 23.3906,163.8094 Q23.025,163.6781 22.65,163.6781 Q22.1906,163.6781 21.8063,163.875 Q21.4313,164.0719 21.1312,164.5219 Q20.8406,164.9719 20.8406,165.5906 L20.8406,166.2469 Q20.8406,166.9875 21.375,167.4844 Q21.9094,167.9719 22.8656,167.9719 Q23.4281,167.9719 23.8219,167.8219 Q24.0563,167.7281 24.3094,167.4656 Q24.4688,167.3063 24.5531,167.2594 Q24.6469,167.2125 24.7688,167.2125 Q24.9656,167.2125 25.1156,167.3719 Q25.275,167.5219 25.275,167.7281 Q25.275,167.9344 25.0687,168.1781 Q24.7688,168.525 24.2906,168.7219 Q23.6438,168.9938 22.8656,168.9938 Q21.9563,168.9938 21.2344,168.6188 Q20.6438,168.3188 20.2313,167.6813 Q19.8187,167.0344 19.8187,166.2656 L19.8187,165.5719 Q19.8187,164.775 20.1844,164.0906 Q20.5594,163.3969 21.2156,163.0313 Q21.8719,162.6563 22.6125,162.6563 Q23.0531,162.6563 23.4375,162.7594 Q23.8313,162.8531 24.1594,163.0688 Z " fill="#000000"/><text fill="#000000" font-family="sans-serif" font-size="7.2" font-style="italic" lengthAdjust="spacing" textLength="51" x="29.7" y="158.1504">&#171;Value Object&#187;</text><text fill="#000000" font-family="sans-serif" font-size="7.2" font-style="italic" lengthAdjust="spacing" textLength="15" x="47.7" y="167.727">&#171;Id&#187;</text><text fill="#000000" font-family="sans-serif" font-size="8.4" lengthAdjust="spacing" textLength="20.4" x="45" y="178.5984">Email</text></g><!--class Name--><g id="elem_Name"><rect codeLine="40" fill="#F1F1F1" height="26.7492" id="Name" rx="1.5" ry="1.5" style="stroke:#181818;stroke-width:0.3;" width="67.8" x="102.3" y="152.1809"/><ellipse cx="111.3" cy="165.5555" fill="#ADD1B2" rx="6.6" ry="6.6" style="stroke:#181818;stroke-width:0.6;"/><path d="M112.9594,163.0805 Q113.0531,162.9492 113.1656,162.8836 Q113.2781,162.818 113.4094,162.818 Q113.6344,162.818 113.775,162.9773 Q113.9156,163.1273 113.9156,163.493 L113.9156,164.3648 Q113.9156,164.7305 113.775,164.8898 Q113.6344,165.0492 113.4094,165.0492 Q113.2031,165.0492 113.0813,164.9273 Q112.9594,164.8148 112.8938,164.5055 Q112.8656,164.2898 112.7531,164.1773 Q112.5562,163.9523 112.1906,163.8211 Q111.825,163.6898 111.45,163.6898 Q110.9906,163.6898 110.6063,163.8867 Q110.2313,164.0836 109.9312,164.5336 Q109.6406,164.9836 109.6406,165.6023 L109.6406,166.2586 Q109.6406,166.9992 110.175,167.4961 Q110.7094,167.9836 111.6656,167.9836 Q112.2281,167.9836 112.6219,167.8336 Q112.8563,167.7398 113.1094,167.4773 Q113.2688,167.318 113.3531,167.2711 Q113.4469,167.2242 113.5688,167.2242 Q113.7656,167.2242 113.9156,167.3836 Q114.075,167.5336 114.075,167.7398 Q114.075,167.9461 113.8687,168.1898 Q113.5688,168.5367 113.0906,168.7336 Q112.4438,169.0055 111.6656,169.0055 Q110.7563,169.0055 110.0344,168.6305 Q109.4438,168.3305 109.0313,167.693 Q108.6187,167.0461 108.6187,166.2773 L108.6187,165.5836 Q108.6187,164.7867 108.9844,164.1023 Q109.3594,163.4086 110.0156,163.043 Q110.6719,162.668 111.4125,162.668 Q111.8531,162.668 112.2375,162.7711 Q112.6313,162.8648 112.9594,163.0805 Z " fill="#000000"/><text fill="#000000" font-family="sans-serif" font-size="7.2" font-style="italic" lengthAdjust="spacing" textLength="51" x="118.5" y="162.9504">&#171;Value Object&#187;</text><text fill="#000000" font-family="sans-serif" font-size="8.4" lengthAdjust="spacing" textLength="21.6" x="133.2" y="173.8219">Name</text></g><!--class PhoneNumber--><g id="elem_PhoneNumber"><rect codeLine="41" fill="#F1F1F1" height="26.7492" id="PhoneNumber" rx="1.5" ry="1.5" style="stroke:#181818;stroke-width:0.3;" width="73.2" x="191.4" y="152.1809"/><ellipse cx="200.4" cy="165.5555" fill="#ADD1B2" rx="6.6" ry="6.6" style="stroke:#181818;stroke-width:0.6;"/><path d="M202.0594,163.0805 Q202.1531,162.9492 202.2656,162.8836 Q202.3781,162.818 202.5094,162.818 Q202.7344,162.818 202.875,162.9773 Q203.0156,163.1273 203.0156,163.493 L203.0156,164.3648 Q203.0156,164.7305 202.875,164.8898 Q202.7344,165.0492 202.5094,165.0492 Q202.3031,165.0492 202.1813,164.9273 Q202.0594,164.8148 201.9938,164.5055 Q201.9656,164.2898 201.8531,164.1773 Q201.6563,163.9523 201.2906,163.8211 Q200.925,163.6898 200.55,163.6898 Q200.0906,163.6898 199.7062,163.8867 Q199.3312,164.0836 199.0313,164.5336 Q198.7406,164.9836 198.7406,165.6023 L198.7406,166.2586 Q198.7406,166.9992 199.275,167.4961 Q199.8094,167.9836 200.7656,167.9836 Q201.3281,167.9836 201.7219,167.8336 Q201.9562,167.7398 202.2094,167.4773 Q202.3688,167.318 202.4531,167.2711 Q202.5469,167.2242 202.6688,167.2242 Q202.8656,167.2242 203.0156,167.3836 Q203.175,167.5336 203.175,167.7398 Q203.175,167.9461 202.9688,168.1898 Q202.6688,168.5367 202.1906,168.7336 Q201.5438,169.0055 200.7656,169.0055 Q199.8563,169.0055 199.1344,168.6305 Q198.5438,168.3305 198.1313,167.693 Q197.7188,167.0461 197.7188,166.2773 L197.7188,165.5836 Q197.7188,164.7867 198.0844,164.1023 Q198.4594,163.4086 199.1156,163.043 Q199.7719,162.668 200.5125,162.668 Q200.9531,162.668 201.3375,162.7711 Q201.7313,162.8648 202.0594,163.0805 Z " fill="#000000"/><text fill="#000000" font-family="sans-serif" font-size="7.2" font-style="italic" lengthAdjust="spacing" textLength="51" x="210.3" y="162.9504">&#171;Value Object&#187;</text><text fill="#000000" font-family="sans-serif" font-size="8.4" lengthAdjust="spacing" textLength="54" x="208.8" y="173.8219">PhoneNumber</text></g><!--class RequirementsSpecification--><g id="elem_RequirementsSpecification"><rect codeLine="51" fill="#F1F1F1" height="36.3258" id="RequirementsSpecification" rx="1.5" ry="1.5" style="stroke:#181818;stroke-width:0.3;" width="120" x="1087.8" y="333.3809"/><ellipse cx="1096.8" cy="351.5438" fill="#ADD1B2" rx="6.6" ry="6.6" style="stroke:#181818;stroke-width:0.6;"/><path d="M1098.4594,349.0687 Q1098.5531,348.9375 1098.6656,348.8719 Q1098.7781,348.8063 1098.9094,348.8063 Q1099.1344,348.8063 1099.275,348.9656 Q1099.4156,349.1156 1099.4156,349.4813 L1099.4156,350.3531 Q1099.4156,350.7188 1099.275,350.8781 Q1099.1344,351.0375 1098.9094,351.0375 Q1098.7031,351.0375 1098.5813,350.9156 Q1098.4594,350.8031 1098.3938,350.4938 Q1098.3656,350.2781 1098.2531,350.1656 Q1098.0562,349.9406 1097.6906,349.8094 Q1097.325,349.6781 1096.95,349.6781 Q1096.4906,349.6781 1096.1063,349.875 Q1095.7313,350.0719 1095.4312,350.5219 Q1095.1406,350.9719 1095.1406,351.5906 L1095.1406,352.2469 Q1095.1406,352.9875 1095.675,353.4844 Q1096.2094,353.9719 1097.1656,353.9719 Q1097.7281,353.9719 1098.1219,353.8219 Q1098.3563,353.7281 1098.6094,353.4656 Q1098.7688,353.3063 1098.8531,353.2594 Q1098.9469,353.2125 1099.0688,353.2125 Q1099.2656,353.2125 1099.4156,353.3719 Q1099.575,353.5219 1099.575,353.7281 Q1099.575,353.9344 1099.3687,354.1781 Q1099.0688,354.525 1098.5906,354.7219 Q1097.9438,354.9938 1097.1656,354.9938 Q1096.2563,354.9938 1095.5344,354.6188 Q1094.9438,354.3187 1094.5313,353.6813 Q1094.1187,353.0344 1094.1187,352.2656 L1094.1187,351.5719 Q1094.1187,350.775 1094.4844,350.0906 Q1094.8594,349.3969 1095.5156,349.0313 Q1096.1719,348.6563 1096.9125,348.6563 Q1097.3531,348.6563 1097.7375,348.7594 Q1098.1313,348.8531 1098.4594,349.0687 Z " fill="#000000"/><text fill="#000000" font-family="sans-serif" font-size="7.2" font-style="italic" lengthAdjust="spacing" textLength="24" x="1143.6" y="344.1504">&#171;Root&#187;</text><text fill="#000000" font-family="sans-serif" font-size="7.2" font-style="italic" lengthAdjust="spacing" textLength="26.4" x="1142.4" y="353.727">&#171;Entity&#187;</text><text fill="#000000" font-family="sans-serif" font-size="8.4" lengthAdjust="spacing" textLength="100.8" x="1105.2" y="364.5984">RequirementsSpecification</text></g><!--class JarFile--><g id="elem_JarFile"><rect codeLine="52" fill="#F1F1F1" height="26.7492" id="JarFile" rx="1.5" ry="1.5" style="stroke:#181818;stroke-width:0.3;" width="67.8" x="1056.9" y="412.5809"/><ellipse cx="1065.9" cy="425.9555" fill="#ADD1B2" rx="6.6" ry="6.6" style="stroke:#181818;stroke-width:0.6;"/><path d="M1067.5594,423.4805 Q1067.6531,423.3492 1067.7656,423.2836 Q1067.8781,423.218 1068.0094,423.218 Q1068.2344,423.218 1068.375,423.3773 Q1068.5156,423.5273 1068.5156,423.893 L1068.5156,424.7648 Q1068.5156,425.1305 1068.375,425.2898 Q1068.2344,425.4492 1068.0094,425.4492 Q1067.8031,425.4492 1067.6812,425.3273 Q1067.5594,425.2148 1067.4937,424.9055 Q1067.4656,424.6898 1067.3531,424.5773 Q1067.1563,424.3523 1066.7906,424.2211 Q1066.425,424.0898 1066.05,424.0898 Q1065.5906,424.0898 1065.2063,424.2867 Q1064.8313,424.4836 1064.5313,424.9336 Q1064.2406,425.3836 1064.2406,426.0023 L1064.2406,426.6586 Q1064.2406,427.3992 1064.775,427.8961 Q1065.3094,428.3836 1066.2656,428.3836 Q1066.8281,428.3836 1067.2219,428.2336 Q1067.4563,428.1398 1067.7094,427.8773 Q1067.8687,427.718 1067.9531,427.6711 Q1068.0469,427.6242 1068.1688,427.6242 Q1068.3656,427.6242 1068.5156,427.7836 Q1068.675,427.9336 1068.675,428.1398 Q1068.675,428.3461 1068.4688,428.5898 Q1068.1688,428.9367 1067.6906,429.1336 Q1067.0438,429.4055 1066.2656,429.4055 Q1065.3563,429.4055 1064.6344,429.0305 Q1064.0438,428.7305 1063.6313,428.093 Q1063.2188,427.4461 1063.2188,426.6773 L1063.2188,425.9836 Q1063.2188,425.1867 1063.5844,424.5023 Q1063.9594,423.8086 1064.6156,423.443 Q1065.2719,423.068 1066.0125,423.068 Q1066.4531,423.068 1066.8375,423.1711 Q1067.2313,423.2648 1067.5594,423.4805 Z " fill="#000000"/><text fill="#000000" font-family="sans-serif" font-size="7.2" font-style="italic" lengthAdjust="spacing" textLength="51" x="1073.1" y="423.3504">&#171;Value Object&#187;</text><text fill="#000000" font-family="sans-serif" font-size="8.4" lengthAdjust="spacing" textLength="25.2" x="1086" y="434.2219">JarFile</text></g><!--class SpecName--><g id="elem_SpecName"><rect codeLine="53" fill="#F1F1F1" height="36.3258" id="SpecName" rx="1.5" ry="1.5" style="stroke:#181818;stroke-width:0.3;" width="67.8" x="1145.7" y="407.7809"/><ellipse cx="1154.7" cy="425.9437" fill="#ADD1B2" rx="6.6" ry="6.6" style="stroke:#181818;stroke-width:0.6;"/><path d="M1156.3594,423.4688 Q1156.4531,423.3375 1156.5656,423.2719 Q1156.6781,423.2063 1156.8094,423.2063 Q1157.0344,423.2063 1157.175,423.3656 Q1157.3156,423.5156 1157.3156,423.8812 L1157.3156,424.7531 Q1157.3156,425.1188 1157.175,425.2781 Q1157.0344,425.4375 1156.8094,425.4375 Q1156.6031,425.4375 1156.4813,425.3156 Q1156.3594,425.2031 1156.2938,424.8938 Q1156.2656,424.6781 1156.1531,424.5656 Q1155.9563,424.3406 1155.5906,424.2094 Q1155.225,424.0781 1154.85,424.0781 Q1154.3906,424.0781 1154.0063,424.275 Q1153.6313,424.4719 1153.3313,424.9219 Q1153.0406,425.3719 1153.0406,425.9906 L1153.0406,426.6469 Q1153.0406,427.3875 1153.575,427.8844 Q1154.1094,428.3719 1155.0656,428.3719 Q1155.6281,428.3719 1156.0219,428.2219 Q1156.2563,428.1281 1156.5094,427.8656 Q1156.6688,427.7063 1156.7531,427.6594 Q1156.8469,427.6125 1156.9688,427.6125 Q1157.1656,427.6125 1157.3156,427.7719 Q1157.475,427.9219 1157.475,428.1281 Q1157.475,428.3344 1157.2688,428.5781 Q1156.9688,428.925 1156.4906,429.1219 Q1155.8438,429.3938 1155.0656,429.3938 Q1154.1563,429.3938 1153.4344,429.0188 Q1152.8438,428.7188 1152.4312,428.0813 Q1152.0188,427.4344 1152.0188,426.6656 L1152.0188,425.9719 Q1152.0188,425.175 1152.3844,424.4906 Q1152.7594,423.7969 1153.4156,423.4313 Q1154.0719,423.0563 1154.8125,423.0563 Q1155.2531,423.0563 1155.6375,423.1594 Q1156.0313,423.2531 1156.3594,423.4688 Z " fill="#000000"/><text fill="#000000" font-family="sans-serif" font-size="7.2" font-style="italic" lengthAdjust="spacing" textLength="51" x="1161.9" y="418.5504">&#171;Value Object&#187;</text><text fill="#000000" font-family="sans-serif" font-size="7.2" font-style="italic" lengthAdjust="spacing" textLength="15" x="1179.9" y="428.127">&#171;Id&#187;</text><text fill="#000000" font-family="sans-serif" font-size="8.4" lengthAdjust="spacing" textLength="40.8" x="1167" y="438.9984">SpecName</text></g><!--class Description--><g id="elem_Description"><rect codeLine="54" fill="#F1F1F1" height="26.7492" id="Description" rx="1.5" ry="1.5" style="stroke:#181818;stroke-width:0.3;" width="67.8" x="1234.5" y="412.5809"/><ellipse cx="1243.5" cy="425.9555" fill="#ADD1B2" rx="6.6" ry="6.6" style="stroke:#181818;stroke-width:0.6;"/><path d="M1245.1594,423.4805 Q1245.2531,423.3492 1245.3656,423.2836 Q1245.4781,423.218 1245.6094,423.218 Q1245.8344,423.218 1245.975,423.3773 Q1246.1156,423.5273 1246.1156,423.893 L1246.1156,424.7648 Q1246.1156,425.1305 1245.975,425.2898 Q1245.8344,425.4492 1245.6094,425.4492 Q1245.4031,425.4492 1245.2813,425.3273 Q1245.1594,425.2148 1245.0938,424.9055 Q1245.0656,424.6898 1244.9531,424.5773 Q1244.7563,424.3523 1244.3906,424.2211 Q1244.025,424.0898 1243.65,424.0898 Q1243.1906,424.0898 1242.8062,424.2867 Q1242.4312,424.4836 1242.1313,424.9336 Q1241.8406,425.3836 1241.8406,426.0023 L1241.8406,426.6586 Q1241.8406,427.3992 1242.375,427.8961 Q1242.9094,428.3836 1243.8656,428.3836 Q1244.4281,428.3836 1244.8219,428.2336 Q1245.0562,428.1398 1245.3094,427.8773 Q1245.4688,427.718 1245.5531,427.6711 Q1245.6469,427.6242 1245.7688,427.6242 Q1245.9656,427.6242 1246.1156,427.7836 Q1246.275,427.9336 1246.275,428.1398 Q1246.275,428.3461 1246.0688,428.5898 Q1245.7688,428.9367 1245.2906,429.1336 Q1244.6438,429.4055 1243.8656,429.4055 Q1242.9563,429.4055 1242.2344,429.0305 Q1241.6438,428.7305 1241.2313,428.093 Q1240.8188,427.4461 1240.8188,426.6773 L1240.8188,425.9836 Q1240.8188,425.1867 1241.1844,424.5023 Q1241.5594,423.8086 1242.2156,423.443 Q1242.8719,423.068 1243.6125,423.068 Q1244.0531,423.068 1244.4375,423.1711 Q1244.8313,423.2648 1245.1594,423.4805 Z " fill="#000000"/><text fill="#000000" font-family="sans-serif" font-size="7.2" font-style="italic" lengthAdjust="spacing" textLength="51" x="1250.7" y="423.3504">&#171;Value Object&#187;</text><text fill="#000000" font-family="sans-serif" font-size="8.4" lengthAdjust="spacing" textLength="42.6" x="1254.9" y="434.2219">Description</text></g><!--link Application to ApplicationID--><g id="link_Application_ApplicationID"><path codeLine="26" d="M438.222,181.4429 C419.874,191.2049 396.438,204.7649 377.4,219.3809 C367.008,227.3609 359.0286,234.968 350.8146,243.62 " fill="none" id="Application-to-ApplicationID" style="stroke:#181818;stroke-width:0.6;"/><polygon fill="#181818" points="348.336,246.2309,353.7945,243.9671,350.4015,244.0552,350.3134,240.6622,348.336,246.2309" style="stroke:#181818;stroke-width:0.6;"/><text fill="#000000" font-family="sans-serif" font-size="7.8" lengthAdjust="spacing" textLength="4.2" x="429.2518" y="181.2588">1</text><text fill="#000000" font-family="sans-serif" font-size="7.8" lengthAdjust="spacing" textLength="4.2" x="346.9897" y="239.6369">1</text></g><!--link Application to ApplicationState--><g id="link_Application_ApplicationState"><path codeLine="27" d="M477.402,183.9929 C486.972,203.2589 500.4541,230.3829 509.0401,247.6629 " fill="none" id="Application-to-ApplicationState" style="stroke:#181818;stroke-width:0.6;"/><polygon fill="#181818" points="510.642,250.8869,510.3884,244.983,509.3071,248.2002,506.0898,247.1189,510.642,250.8869" style="stroke:#181818;stroke-width:0.6;"/><text fill="#000000" font-family="sans-serif" font-size="7.8" lengthAdjust="spacing" textLength="4.2" x="474.4796" y="196.9155">1</text><text fill="#000000" font-family="sans-serif" font-size="7.8" lengthAdjust="spacing" textLength="4.2" x="504.2234" y="244.3168">1</text></g><!--link ApplicationState to ApplicationStateName--><g id="link_ApplicationState_ApplicationStateName"><path codeLine="28" d="M517.656,278.3129 C518.166,292.9829 518.8808,313.313 519.4508,329.699 " fill="none" id="ApplicationState-to-ApplicationStateName" style="stroke:#181818;stroke-width:0.6;"/><polygon fill="#181818" points="519.576,333.2969,521.7868,327.8167,519.4717,330.2987,516.9897,327.9836,519.576,333.2969" style="stroke:#181818;stroke-width:0.6;"/><text fill="#000000" font-family="sans-serif" font-size="7.8" lengthAdjust="spacing" textLength="4.2" x="513.0758" y="291.1108">1</text><text fill="#000000" font-family="sans-serif" font-size="7.8" lengthAdjust="spacing" textLength="4.2" x="514.8142" y="326.7166">1</text></g><!--link Application to File--><g id="link_Application_File"><path codeLine="29" d="M460.122,183.9929 C450.906,203.2589 437.9338,230.3594 429.6658,247.6394 " fill="none" id="Application-to-File" style="stroke:#181818;stroke-width:0.6;"/><polygon fill="#181818" points="428.112,250.8869,432.6076,247.0516,429.4068,248.1807,428.2778,244.9799,428.112,250.8869" style="stroke:#181818;stroke-width:0.6;"/><text fill="#000000" font-family="sans-serif" font-size="7.8" lengthAdjust="spacing" textLength="4.2" x="453.9056" y="196.9155">1</text><text fill="#000000" font-family="sans-serif" font-size="7.8" lengthAdjust="spacing" textLength="3" x="426.3451" y="244.3168">*</text></g><!--link File to FilePath--><g id="link_File_FilePath"><path codeLine="30" d="M409.5,278.3129 C394.272,294.4409 370.9672,319.129 355.6912,335.311 " fill="none" id="File-to-FilePath" style="stroke:#181818;stroke-width:0.6;"/><polygon fill="#181818" points="353.22,337.9289,358.6721,335.6496,355.2794,335.7473,355.1817,332.3546,353.22,337.9289" style="stroke:#181818;stroke-width:0.6;"/><text fill="#000000" font-family="sans-serif" font-size="7.8" lengthAdjust="spacing" textLength="4.2" x="401.97" y="291.1108">1</text><text fill="#000000" font-family="sans-serif" font-size="7.8" lengthAdjust="spacing" textLength="4.2" x="351.6645" y="331.3695">1</text></g><!--link File to FileType--><g id="link_File_FileType"><path codeLine="31" d="M421.8,278.3129 C421.8,294.4409 421.8,318.1469 421.8,334.3289 " fill="none" id="File-to-FileType" style="stroke:#181818;stroke-width:0.6;"/><polygon fill="#181818" points="421.8,337.9289,424.2,332.5289,421.8,334.9289,419.4,332.5289,421.8,337.9289" style="stroke:#181818;stroke-width:0.6;"/><text fill="#000000" font-family="sans-serif" font-size="7.8" lengthAdjust="spacing" textLength="4.2" x="417.1144" y="291.1108">1</text><text fill="#000000" font-family="sans-serif" font-size="7.8" lengthAdjust="spacing" textLength="4.2" x="417.0619" y="331.3695">1</text></g><!--link Application to JobOpening--><g id="link_Application_JobOpening"><path codeLine="33" d="M499.116,165.9629 C553.566,166.6469 669.642,173.8589 753.6,219.3809 C765.474,225.8189 773.7207,233.9481 781.3287,243.3861 " fill="none" id="Application-to-JobOpening" style="stroke:#181818;stroke-width:0.6;"/><polygon fill="#181818" points="783.588,246.1889,782.0675,240.4785,781.7052,243.8532,778.3305,243.4909,783.588,246.1889" style="stroke:#181818;stroke-width:0.6;"/><text fill="#000000" font-family="sans-serif" font-size="7.8" lengthAdjust="spacing" textLength="31.2" x="739.8" y="212.1979">Refers to</text><text fill="#000000" font-family="sans-serif" font-size="7.8" lengthAdjust="spacing" textLength="12" x="503.7946" y="163.5913">0..*</text><text fill="#000000" font-family="sans-serif" font-size="7.8" lengthAdjust="spacing" textLength="4.2" x="776.3536" y="239.5863">1</text></g><!--link Application to Candidate--><g id="link_Application_Candidate"><path codeLine="34" d="M499.044,179.0549 C519.684,188.5109 546.966,202.6349 568.2,219.3809 C581.55,229.9109 591.8903,242.4131 599.1503,252.1091 " fill="none" id="Application-to-Candidate" style="stroke:#181818;stroke-width:0.6;"/><polygon fill="#181818" points="601.308,254.9909,599.9926,249.2298,599.5099,252.5894,596.1503,252.1068,601.308,254.9909" style="stroke:#181818;stroke-width:0.6;"/><text fill="#000000" font-family="sans-serif" font-size="7.8" lengthAdjust="spacing" textLength="53.4" x="561" y="212.1979">Is submitted by</text><text fill="#000000" font-family="sans-serif" font-size="7.8" lengthAdjust="spacing" textLength="12" x="503.7134" y="178.3607">1..*</text><text fill="#000000" font-family="sans-serif" font-size="7.8" lengthAdjust="spacing" textLength="4.2" x="594.2619" y="248.3376">1</text></g><!--link Candidate to Email--><g id="link_Candidate_Email"><path codeLine="43" d="M152.604,82.7789 C134.358,92.3129 110.808,105.7529 91.8,120.3809 C81.486,128.3189 73.6236,135.9062 65.5296,144.5702 " fill="none" id="Candidate-to-Email" style="stroke:#181818;stroke-width:0.6;"/><polygon fill="#181818" points="63.072,147.2009,68.5121,144.8933,65.12,145.0087,65.0046,141.6165,63.072,147.2009" style="stroke:#181818;stroke-width:0.6;"/><text fill="#000000" font-family="sans-serif" font-size="7.8" lengthAdjust="spacing" textLength="4.2" x="143.6118" y="82.5305">1</text><text fill="#000000" font-family="sans-serif" font-size="7.8" lengthAdjust="spacing" textLength="4.2" x="61.6712" y="140.6008">1</text></g><!--link Candidate to Name--><g id="link_Candidate_Name"><path codeLine="44" d="M173.436,86.1989 C164.436,105.2609 151.8789,131.8674 143.8569,148.8594 " fill="none" id="Candidate-to-Name" style="stroke:#181818;stroke-width:0.6;"/><polygon fill="#181818" points="142.32,152.1149,146.7957,148.2563,143.6008,149.402,142.4551,146.2071,142.32,152.1149" style="stroke:#181818;stroke-width:0.6;"/><text fill="#000000" font-family="sans-serif" font-size="7.8" lengthAdjust="spacing" textLength="4.2" x="167.2413" y="99.1227">1</text><text fill="#000000" font-family="sans-serif" font-size="7.8" lengthAdjust="spacing" textLength="4.2" x="139.2004" y="145.3725">1</text></g><!--link Candidate to PhoneNumber--><g id="link_Candidate_PhoneNumber"><path codeLine="45" d="M190.272,86.1989 C199.392,105.2609 212.1192,131.875 220.2432,148.867 " fill="none" id="Candidate-to-PhoneNumber" style="stroke:#181818;stroke-width:0.6;"/><polygon fill="#181818" points="221.796,152.1149,221.632,146.2078,220.502,149.4083,217.3015,148.2783,221.796,152.1149" style="stroke:#181818;stroke-width:0.6;"/><text fill="#000000" font-family="sans-serif" font-size="7.8" lengthAdjust="spacing" textLength="4.2" x="187.2867" y="99.1227">1</text><text fill="#000000" font-family="sans-serif" font-size="7.8" lengthAdjust="spacing" textLength="4.2" x="215.3643" y="145.3725">1</text></g><!--link Candidate to Application--><g id="link_Candidate_Application"><path codeLine="47" d="M211.146,78.3629 C265.824,96.7829 379.3523,135.0177 434.8043,153.6957 " fill="none" id="Candidate-to-Application" style="stroke:#181818;stroke-width:0.6;"/><polygon fill="#181818" points="438.216,154.8449,433.8646,150.8467,435.3729,153.8872,432.3324,155.3956,438.216,154.8449" style="stroke:#181818;stroke-width:0.6;"/><text fill="#000000" font-family="sans-serif" font-size="7.8" lengthAdjust="spacing" textLength="28.8" x="316.8" y="113.1979">Submits</text><text fill="#000000" font-family="sans-serif" font-size="7.8" lengthAdjust="spacing" textLength="12" x="215.6747" y="77.2982">1..*</text><text fill="#000000" font-family="sans-serif" font-size="7.8" lengthAdjust="spacing" textLength="12" x="421.5543" y="151.0488">0..*</text></g><!--link RequirementsSpecification to JarFile--><g id="link_RequirementsSpecification_JarFile"><path codeLine="56" d="M1134,369.9989 C1123.788,383.1149 1112.32,397.8486 1103.11,409.6746 " fill="none" id="RequirementsSpecification-to-JarFile" style="stroke:#181818;stroke-width:0.6;"/><polygon fill="#181818" points="1100.898,412.5149,1106.1095,409.7291,1102.7413,410.148,1102.3225,406.7798,1100.898,412.5149" style="stroke:#181818;stroke-width:0.6;"/><text fill="#000000" font-family="sans-serif" font-size="7.8" lengthAdjust="spacing" textLength="4.2" x="1126.7691" y="382.9227">1</text><text fill="#000000" font-family="sans-serif" font-size="7.8" lengthAdjust="spacing" textLength="4.2" x="1098.8475" y="405.7725">1</text></g><!--link RequirementsSpecification to SpecName--><g id="link_RequirementsSpecification_SpecName"><path codeLine="57" d="M1155.498,369.9989 C1160.46,381.4229 1165.4582,392.9287 1170.4262,404.3707 " fill="none" id="RequirementsSpecification-to-SpecName" style="stroke:#181818;stroke-width:0.6;"/><polygon fill="#181818" points="1171.86,407.6729,1171.9108,401.7638,1170.6652,404.9211,1167.5079,403.6755,1171.86,407.6729" style="stroke:#181818;stroke-width:0.6;"/><text fill="#000000" font-family="sans-serif" font-size="7.8" lengthAdjust="spacing" textLength="4.2" x="1152.3651" y="382.9227">1</text><text fill="#000000" font-family="sans-serif" font-size="7.8" lengthAdjust="spacing" textLength="4.2" x="1165.6305" y="401.0876">1</text></g><!--link RequirementsSpecification to Description--><g id="link_RequirementsSpecification_Description"><path codeLine="58" d="M1176.996,369.9989 C1198.602,383.1149 1224.4746,398.8208 1243.9566,410.6468 " fill="none" id="RequirementsSpecification-to-Description" style="stroke:#181818;stroke-width:0.6;"/><polygon fill="#181818" points="1247.034,412.5149,1243.6633,407.6612,1244.4695,410.9582,1241.1725,411.7644,1247.034,412.5149" style="stroke:#181818;stroke-width:0.6;"/><text fill="#000000" font-family="sans-serif" font-size="7.8" lengthAdjust="spacing" textLength="4.2" x="1177.9612" y="382.9227">1</text><text fill="#000000" font-family="sans-serif" font-size="7.8" lengthAdjust="spacing" textLength="4.2" x="1236.5275" y="405.7725">1</text></g><!--link JobOpening to RequirementsSpecification--><g id="link_JobOpening_RequirementsSpecification"><path codeLine="61" d="M828.672,279.6569 C832.248,280.9169 835.872,282.0629 839.4,282.9809 C923.106,304.7729 948.696,285.3749 1032.6,306.3809 C1058.82,312.9449 1083.8301,322.4611 1105.8261,331.8691 " fill="none" id="JobOpening-to-RequirementsSpecification" style="stroke:#181818;stroke-width:0.6;"/><polygon fill="#181818" points="1109.136,333.2849,1105.1149,328.9547,1106.3777,332.1051,1103.2273,333.3679,1109.136,333.2849" style="stroke:#181818;stroke-width:0.6;"/><text fill="#000000" font-family="sans-serif" font-size="7.8" lengthAdjust="spacing" textLength="4.2" x="833.3176" y="279.2311">1</text><text fill="#000000" font-family="sans-serif" font-size="7.8" lengthAdjust="spacing" textLength="13.2" x="1086.6003" y="326.7021">0..1</text></g><!--SRC=[bPHDR-8m48Rl_8eHUwj4jRsYA18gh4IbRIjWzsx70t7hs6di752r_trjyn6794xB1SGyC_FwzNXopX3s70MRvEvdWIPNJ4ycXXk1iEL5ARYDCrYgWd09lnL30NjLmPzIAC9WWnyrhx10QMnQIR9tSa1uKlIbHCdbON4um0zA2Q4KFYTWFvaWMWT4acoKCccQ92jfsnxJj8rjS8yLoWoJv2yHDS8BVSFC9wpPBNokkNFoR_c0V5JIL2GpksCPmvQeiugNXYiPeHQCLQXrXB32d74Tub_ZsAAqJcV4jVAM4TAnB42YdWNSUZbgsYyky9MOF2BV8IFXav4hMHSsrAzbQuZ1CS4UUYR5jPZLkxoK33YOFanXDalzT-l0NoLzfrlO_ndDSDg6MznDlHiUS3zQfIvE3qUTYpr7_Nb_VzU0pPJ37FpZq61KZwPMrYEHZ3DtkZciDUYQ5jmO-x3fCHp3AtOUGdexX5SWEe8hkop4wEYTxdbmhbvp9V6vBYXM7SfZpPb28ttlIFnwW_tXe6ktIsFfwKv2m-UmzQRgqCzmFMvBpEmo3HuvfMupjlmTJ8YlILADF59Ngy_lpgN4Tfx71XMsR3mh-aR6HU4tKWAjplJWPTYeXTmjMMoms7y0]--></g></svg>