<?xml version="1.0" encoding="us-ascii" standalone="no"?><svg xmlns="http://www.w3.org/2000/svg" xmlns:xlink="http://www.w3.org/1999/xlink" contentStyleType="text/css" height="356px" preserveAspectRatio="none" style="width:577px;height:356px;background:#FFFFFF;" version="1.1" viewBox="0 0 577 356" width="577.6px" zoomAndPan="magnify"><defs/><g><!--class DisplayApplicationDataController--><g id="elem_DisplayApplicationDataController"><rect codeLine="2" fill="#F1F1F1" height="68.1938" id="DisplayApplicationDataController" rx="2" ry="2" style="stroke:#181818;stroke-width:0.4000000000000001;" width="245.6" x="223.6" y="136.8"/><ellipse cx="260.2" cy="149.6" fill="#ADD1B2" rx="8.8" ry="8.8" style="stroke:#181818;stroke-width:0.8000000000000002;"/><path d="M262.4125,146.3 Q262.5375,146.125 262.6875,146.0375 Q262.8375,145.95 263.0125,145.95 Q263.3125,145.95 263.5,146.1625 Q263.6875,146.3625 263.6875,146.85 L263.6875,148.0125 Q263.6875,148.5 263.5,148.7125 Q263.3125,148.925 263.0125,148.925 Q262.7375,148.925 262.575,148.7625 Q262.4125,148.6125 262.325,148.2 Q262.2875,147.9125 262.1375,147.7625 Q261.875,147.4625 261.3875,147.2875 Q260.9,147.1125 260.4,147.1125 Q259.7875,147.1125 259.275,147.375 Q258.775,147.6375 258.375,148.2375 Q257.9875,148.8375 257.9875,149.6625 L257.9875,150.5375 Q257.9875,151.525 258.7,152.1875 Q259.4125,152.8375 260.6875,152.8375 Q261.4375,152.8375 261.9625,152.6375 Q262.275,152.5125 262.6125,152.1625 Q262.825,151.95 262.9375,151.8875 Q263.0625,151.825 263.225,151.825 Q263.4875,151.825 263.6875,152.0375 Q263.9,152.2375 263.9,152.5125 Q263.9,152.7875 263.625,153.1125 Q263.225,153.575 262.5875,153.8375 Q261.725,154.2 260.6875,154.2 Q259.475,154.2 258.5125,153.7 Q257.725,153.3 257.175,152.45 Q256.625,151.5875 256.625,150.5625 L256.625,149.6375 Q256.625,148.575 257.1125,147.6625 Q257.6125,146.7375 258.4875,146.25 Q259.3625,145.75 260.35,145.75 Q260.9375,145.75 261.45,145.8875 Q261.975,146.0125 262.4125,146.3 Z " fill="#000000"/><text fill="#000000" font-family="sans-serif" font-size="11.2" lengthAdjust="spacing" textLength="165.6" x="276.6" y="154.2375">DisplayApplicationDataController</text><line style="stroke:#181818;stroke-width:0.4000000000000001;" x1="224.4" x2="468.4" y1="162.4" y2="162.4"/><rect fill="none" height="4.8" style="stroke:#C82930;stroke-width:0.8000000000000002;" width="4.8" x="230" y="171.8484"/><text fill="#000000" font-family="sans-serif" font-size="11.2" lengthAdjust="spacing" textLength="224.8" x="239.6" y="177.6859">applicationRepository: ApplicationRepository</text><line style="stroke:#181818;stroke-width:0.4000000000000001;" x1="224.4" x2="468.4" y1="183.6969" y2="183.6969"/><ellipse cx="232.4" cy="195.5453" fill="#84BE84" rx="2.4" ry="2.4" style="stroke:#038048;stroke-width:0.8000000000000002;"/><text fill="#000000" font-family="sans-serif" font-size="11.2" lengthAdjust="spacing" textLength="207.2" x="239.6" y="198.9828">allApplications(): Iterable&lt;jobApplication&gt;</text></g><!--class ApplicationRepository--><g id="elem_ApplicationRepository"><rect codeLine="9" fill="#F1F1F1" height="68.1938" id="ApplicationRepository" rx="2" ry="2" style="stroke:#181818;stroke-width:0.4000000000000001;" width="384" x="5.6" y="267.6"/><ellipse cx="139.4" cy="280.4" fill="#ADD1B2" rx="8.8" ry="8.8" style="stroke:#181818;stroke-width:0.8000000000000002;"/><path d="M141.6125,277.1 Q141.7375,276.925 141.8875,276.8375 Q142.0375,276.75 142.2125,276.75 Q142.5125,276.75 142.7,276.9625 Q142.8875,277.1625 142.8875,277.65 L142.8875,278.8125 Q142.8875,279.3 142.7,279.5125 Q142.5125,279.725 142.2125,279.725 Q141.9375,279.725 141.775,279.5625 Q141.6125,279.4125 141.525,279 Q141.4875,278.7125 141.3375,278.5625 Q141.075,278.2625 140.5875,278.0875 Q140.1,277.9125 139.6,277.9125 Q138.9875,277.9125 138.475,278.175 Q137.975,278.4375 137.575,279.0375 Q137.1875,279.6375 137.1875,280.4625 L137.1875,281.3375 Q137.1875,282.325 137.9,282.9875 Q138.6125,283.6375 139.8875,283.6375 Q140.6375,283.6375 141.1625,283.4375 Q141.475,283.3125 141.8125,282.9625 Q142.025,282.75 142.1375,282.6875 Q142.2625,282.625 142.425,282.625 Q142.6875,282.625 142.8875,282.8375 Q143.1,283.0375 143.1,283.3125 Q143.1,283.5875 142.825,283.9125 Q142.425,284.375 141.7875,284.6375 Q140.925,285 139.8875,285 Q138.675,285 137.7125,284.5 Q136.925,284.1 136.375,283.25 Q135.825,282.3875 135.825,281.3625 L135.825,280.4375 Q135.825,279.375 136.3125,278.4625 Q136.8125,277.5375 137.6875,277.05 Q138.5625,276.55 139.55,276.55 Q140.1375,276.55 140.65,276.6875 Q141.175,276.8125 141.6125,277.1 Z " fill="#000000"/><text fill="#000000" font-family="sans-serif" font-size="11.2" lengthAdjust="spacing" textLength="109.6" x="155.8" y="285.0375">ApplicationRepository</text><line style="stroke:#181818;stroke-width:0.4000000000000001;" x1="6.4" x2="388.8" y1="293.2" y2="293.2"/><line style="stroke:#181818;stroke-width:0.4000000000000001;" x1="6.4" x2="388.8" y1="299.6" y2="299.6"/><ellipse cx="14.4" cy="311.4484" fill="#84BE84" rx="2.4" ry="2.4" style="stroke:#038048;stroke-width:0.8000000000000002;"/><text fill="#000000" font-family="sans-serif" font-size="11.2" lengthAdjust="spacing" textLength="165.6" x="21.6" y="314.8859">findAll(): Iterable&lt;jobApplication&gt;</text><ellipse cx="14.4" cy="326.3453" fill="#84BE84" rx="2.4" ry="2.4" style="stroke:#038048;stroke-width:0.8000000000000002;"/><text fill="#000000" font-family="sans-serif" font-size="11.2" lengthAdjust="spacing" textLength="363.2" x="21.6" y="329.7828">fetchApplicationData(selectedApplication: jobApplication): jobApplication</text></g><!--class jobApplication--><g id="elem_jobApplication"><rect codeLine="15" fill="#F1F1F1" height="97.9875" id="jobApplication" rx="2" ry="2" style="stroke:#181818;stroke-width:0.4000000000000001;" width="154.4" x="418" y="252.8"/><ellipse cx="456.6" cy="265.6" fill="#ADD1B2" rx="8.8" ry="8.8" style="stroke:#181818;stroke-width:0.8000000000000002;"/><path d="M458.8125,262.3 Q458.9375,262.125 459.0875,262.0375 Q459.2375,261.95 459.4125,261.95 Q459.7125,261.95 459.9,262.1625 Q460.0875,262.3625 460.0875,262.85 L460.0875,264.0125 Q460.0875,264.5 459.9,264.7125 Q459.7125,264.925 459.4125,264.925 Q459.1375,264.925 458.975,264.7625 Q458.8125,264.6125 458.725,264.2 Q458.6875,263.9125 458.5375,263.7625 Q458.275,263.4625 457.7875,263.2875 Q457.3,263.1125 456.8,263.1125 Q456.1875,263.1125 455.675,263.375 Q455.175,263.6375 454.775,264.2375 Q454.3875,264.8375 454.3875,265.6625 L454.3875,266.5375 Q454.3875,267.525 455.1,268.1875 Q455.8125,268.8375 457.0875,268.8375 Q457.8375,268.8375 458.3625,268.6375 Q458.675,268.5125 459.0125,268.1625 Q459.225,267.95 459.3375,267.8875 Q459.4625,267.825 459.625,267.825 Q459.8875,267.825 460.0875,268.0375 Q460.3,268.2375 460.3,268.5125 Q460.3,268.7875 460.025,269.1125 Q459.625,269.575 458.9875,269.8375 Q458.125,270.2 457.0875,270.2 Q455.875,270.2 454.9125,269.7 Q454.125,269.3 453.575,268.45 Q453.025,267.5875 453.025,266.5625 L453.025,265.6375 Q453.025,264.575 453.5125,263.6625 Q454.0125,262.7375 454.8875,262.25 Q455.7625,261.75 456.75,261.75 Q457.3375,261.75 457.85,261.8875 Q458.375,262.0125 458.8125,262.3 Z " fill="#000000"/><text fill="#000000" font-family="sans-serif" font-size="11.2" lengthAdjust="spacing" textLength="70.4" x="473" y="270.2375">jobApplication</text><line style="stroke:#181818;stroke-width:0.4000000000000001;" x1="418.8" x2="571.6" y1="278.4" y2="278.4"/><line style="stroke:#181818;stroke-width:0.4000000000000001;" x1="418.8" x2="571.6" y1="284.8" y2="284.8"/><ellipse cx="426.8" cy="296.6484" fill="#84BE84" rx="2.4" ry="2.4" style="stroke:#038048;stroke-width:0.8000000000000002;"/><text fill="#000000" font-family="sans-serif" font-size="11.2" lengthAdjust="spacing" textLength="80" x="434" y="300.0859">identity(): String</text><ellipse cx="426.8" cy="311.5453" fill="#84BE84" rx="2.4" ry="2.4" style="stroke:#038048;stroke-width:0.8000000000000002;"/><text fill="#000000" font-family="sans-serif" font-size="11.2" lengthAdjust="spacing" textLength="93.6" x="434" y="314.9828">candidate(): String</text><ellipse cx="426.8" cy="326.4422" fill="#84BE84" rx="2.4" ry="2.4" style="stroke:#038048;stroke-width:0.8000000000000002;"/><text fill="#000000" font-family="sans-serif" font-size="11.2" lengthAdjust="spacing" textLength="133.6" x="434" y="329.8797">jobOpening(): JobOpening</text><ellipse cx="426.8" cy="341.3391" fill="#84BE84" rx="2.4" ry="2.4" style="stroke:#038048;stroke-width:0.8000000000000002;"/><text fill="#000000" font-family="sans-serif" font-size="11.2" lengthAdjust="spacing" textLength="74.4" x="434" y="344.7766">status(): String</text></g><!--class DisplayApplicationDataUI--><g id="elem_DisplayApplicationDataUI"><rect codeLine="24" fill="#F1F1F1" height="83.0906" id="DisplayApplicationDataUI" rx="2" ry="2" style="stroke:#181818;stroke-width:0.4000000000000001;" width="258.4" x="217.2" y="5.6"/><ellipse cx="280.2" cy="18.4" fill="#ADD1B2" rx="8.8" ry="8.8" style="stroke:#181818;stroke-width:0.8000000000000002;"/><path d="M282.4125,15.1 Q282.5375,14.925 282.6875,14.8375 Q282.8375,14.75 283.0125,14.75 Q283.3125,14.75 283.5,14.9625 Q283.6875,15.1625 283.6875,15.65 L283.6875,16.8125 Q283.6875,17.3 283.5,17.5125 Q283.3125,17.725 283.0125,17.725 Q282.7375,17.725 282.575,17.5625 Q282.4125,17.4125 282.325,17 Q282.2875,16.7125 282.1375,16.5625 Q281.875,16.2625 281.3875,16.0875 Q280.9,15.9125 280.4,15.9125 Q279.7875,15.9125 279.275,16.175 Q278.775,16.4375 278.375,17.0375 Q277.9875,17.6375 277.9875,18.4625 L277.9875,19.3375 Q277.9875,20.325 278.7,20.9875 Q279.4125,21.6375 280.6875,21.6375 Q281.4375,21.6375 281.9625,21.4375 Q282.275,21.3125 282.6125,20.9625 Q282.825,20.75 282.9375,20.6875 Q283.0625,20.625 283.225,20.625 Q283.4875,20.625 283.6875,20.8375 Q283.9,21.0375 283.9,21.3125 Q283.9,21.5875 283.625,21.9125 Q283.225,22.375 282.5875,22.6375 Q281.725,23 280.6875,23 Q279.475,23 278.5125,22.5 Q277.725,22.1 277.175,21.25 Q276.625,20.3875 276.625,19.3625 L276.625,18.4375 Q276.625,17.375 277.1125,16.4625 Q277.6125,15.5375 278.4875,15.05 Q279.3625,14.55 280.35,14.55 Q280.9375,14.55 281.45,14.6875 Q281.975,14.8125 282.4125,15.1 Z " fill="#000000"/><text fill="#000000" font-family="sans-serif" font-size="11.2" lengthAdjust="spacing" textLength="125.6" x="296.6" y="23.0375">DisplayApplicationDataUI</text><line style="stroke:#181818;stroke-width:0.4000000000000001;" x1="218" x2="474.8" y1="31.2" y2="31.2"/><rect fill="none" height="4.8" style="stroke:#C82930;stroke-width:0.8000000000000002;" width="4.8" x="223.6" y="40.6484"/><text fill="#000000" font-family="sans-serif" font-size="11.2" lengthAdjust="spacing" textLength="237.6" x="233.2" y="46.4859">theController: DisplayApplicationDataController</text><line style="stroke:#181818;stroke-width:0.4000000000000001;" x1="218" x2="474.8" y1="52.4969" y2="52.4969"/><ellipse cx="226" cy="64.3453" fill="#84BE84" rx="2.4" ry="2.4" style="stroke:#038048;stroke-width:0.8000000000000002;"/><text fill="#000000" font-family="sans-serif" font-size="11.2" lengthAdjust="spacing" textLength="95.2" x="233.2" y="67.7828">doShow(): boolean</text><ellipse cx="226" cy="79.2422" fill="#84BE84" rx="2.4" ry="2.4" style="stroke:#038048;stroke-width:0.8000000000000002;"/><text fill="#000000" font-family="sans-serif" font-size="11.2" lengthAdjust="spacing" textLength="87.2" x="233.2" y="82.6797">headline(): String</text></g><!--link DisplayApplicationDataController to ApplicationRepository--><g id="link_DisplayApplicationDataController_ApplicationRepository"><path codeLine="31" d="M308.08,204.872 C285.952,224.088 261.8246,245.0372 239.6726,264.2692 " fill="none" id="DisplayApplicationDataController-to-ApplicationRepository" style="stroke:#181818;stroke-width:0.8000000000000002;stroke-dasharray:7.0,7.0;"/><polygon fill="#181818" points="236.048,267.416,243.5827,265.1122,239.0685,264.7937,239.387,260.2794,236.048,267.416" style="stroke:#181818;stroke-width:0.8000000000000002;"/></g><!--link DisplayApplicationDataController to jobApplication--><g id="link_DisplayApplicationDataController_jobApplication"><path codeLine="32" d="M384.72,204.872 C401.512,219.448 417.9118,233.6927 436.2718,249.6367 " fill="none" id="DisplayApplicationDataController-to-jobApplication" style="stroke:#181818;stroke-width:0.8000000000000002;"/><polygon fill="#181818" points="439.896,252.784,436.5579,245.647,436.8759,250.1613,432.3615,250.4792,439.896,252.784" style="stroke:#181818;stroke-width:0.8000000000000002;"/></g><!--link DisplayApplicationDataUI to DisplayApplicationDataController--><g id="link_DisplayApplicationDataUI_DisplayApplicationDataController"><path codeLine="33" d="M346.4,88.96 C346.4,104.472 346.4,117.12 346.4,131.84 " fill="none" id="DisplayApplicationDataUI-to-DisplayApplicationDataController" style="stroke:#181818;stroke-width:0.8000000000000002;"/><polygon fill="#181818" points="346.4,136.64,349.6,129.44,346.4,132.64,343.2,129.44,346.4,136.64" style="stroke:#181818;stroke-width:0.8000000000000002;"/></g><!--SRC=[XPB1QiCm38RlUGeTMqhw0644mdhfBeMLFe1YQuk7i4EiKSBOkoyP9N6CYtsp_by_doq102X6x-5aVCyuDdtFHg4OPqye-Egi38wP1lWfu75AmDNrJhtpHjmmLj2aoalR0P0viFZTleApq80jqykNQmEj_k_wBQO32s8oFk0wm8Unkc7E1Z_S9AgB7hppnAI4T52lO9knZmiBxCgwDMmWZIOhHiQPyYg3iP-1gD1ger4egKwfbvxiL9pbj-KMMBoWVFkeE_h8zAnlvysCfQDr-bLsFm84xQwTkyy8hNDCQ0Ej8zHiB2K0injuFDPFTY3VMvPrF9FYwJVCvcpY7m00]--></g></svg>