<?xml version="1.0" encoding="us-ascii" standalone="no"?><svg xmlns="http://www.w3.org/2000/svg" xmlns:xlink="http://www.w3.org/1999/xlink" contentStyleType="text/css" height="674.4px" preserveAspectRatio="none" style="width:1017px;height:674px;background:#FFFFFF;" version="1.1" viewBox="0 0 1017 674" width="1017.6px" zoomAndPan="magnify"><defs/><g><rect fill="#FFFFFF" height="423.8414" style="stroke:#181818;stroke-width:1.2;" width="12" x="343.8" y="140.2945"/><rect fill="#FFFFFF" height="187.7461" style="stroke:#181818;stroke-width:1.2;" width="12" x="349.8" y="365.5898"/><rect fill="#FFFFFF" height="112.6477" style="stroke:#181818;stroke-width:1.2;" width="12" x="591" y="177.8438"/><rect fill="#FFFFFF" height="112.6477" style="stroke:#181818;stroke-width:1.2;" width="12" x="591" y="403.1391"/><rect fill="#FFFFFF" height="37.5492" style="stroke:#181818;stroke-width:1.2;" width="12" x="913.8" y="215.393"/><rect fill="#FFFFFF" height="37.5492" style="stroke:#181818;stroke-width:1.2;" width="12" x="913.8" y="440.6883"/><line style="stroke:#181818;stroke-width:0.6;stroke-dasharray:5.0,5.0;" x1="26.4" x2="26.4" y1="100.3453" y2="574.9359"/><line style="stroke:#181818;stroke-width:0.6;stroke-dasharray:5.0,5.0;" x1="349.2" x2="349.2" y1="100.3453" y2="574.9359"/><line style="stroke:#181818;stroke-width:0.6;stroke-dasharray:5.0,5.0;" x1="596.4" x2="596.4" y1="100.3453" y2="574.9359"/><line style="stroke:#181818;stroke-width:0.6;stroke-dasharray:5.0,5.0;" x1="919.2" x2="919.2" y1="100.3453" y2="574.9359"/><text fill="#000000" font-family="sans-serif" font-size="16.8" lengthAdjust="spacing" textLength="34.8" x="6" y="96.1289">User</text><ellipse cx="27" cy="16.2" fill="#E2E2F0" rx="9.6" ry="9.6" style="stroke:#181818;stroke-width:0.6;"/><path d="M27,25.8 L27,58.2 M11.4,35.4 L42.6,35.4 M27,58.2 L11.4,76.2 M27,58.2 L42.6,76.2 " fill="none" style="stroke:#181818;stroke-width:0.6;"/><text fill="#000000" font-family="sans-serif" font-size="16.8" lengthAdjust="spacing" textLength="34.8" x="6" y="591.8648">User</text><ellipse cx="27" cy="606.2813" fill="#E2E2F0" rx="9.6" ry="9.6" style="stroke:#181818;stroke-width:0.6;"/><path d="M27,615.8813 L27,648.2813 M11.4,625.4812 L42.6,625.4812 M27,648.2813 L11.4,666.2813 M27,648.2813 L42.6,666.2813 " fill="none" style="stroke:#181818;stroke-width:0.6;"/><rect fill="#E2E2F0" height="39.1453" rx="3" ry="3" style="stroke:#181818;stroke-width:0.6;" width="205.2" x="247.2" y="60"/><text fill="#000000" font-family="sans-serif" font-size="16.8" lengthAdjust="spacing" textLength="188.4" x="255.6" y="86.5289">DisplayApplicationDataUI</text><rect fill="#E2E2F0" height="39.1453" rx="3" ry="3" style="stroke:#181818;stroke-width:0.6;" width="205.2" x="247.2" y="573.7359"/><text fill="#000000" font-family="sans-serif" font-size="16.8" lengthAdjust="spacing" textLength="188.4" x="255.6" y="600.2648">DisplayApplicationDataUI</text><rect fill="#E2E2F0" height="39.1453" rx="3" ry="3" style="stroke:#181818;stroke-width:0.6;" width="265.2" x="464.4" y="60"/><text fill="#000000" font-family="sans-serif" font-size="16.8" lengthAdjust="spacing" textLength="248.4" x="472.8" y="86.5289">DisplayApplicationDataController</text><rect fill="#E2E2F0" height="39.1453" rx="3" ry="3" style="stroke:#181818;stroke-width:0.6;" width="265.2" x="464.4" y="573.7359"/><text fill="#000000" font-family="sans-serif" font-size="16.8" lengthAdjust="spacing" textLength="248.4" x="472.8" y="600.2648">DisplayApplicationDataController</text><rect fill="#E2E2F0" height="39.1453" rx="3" ry="3" style="stroke:#181818;stroke-width:0.6;" width="181.2" x="829.2" y="60"/><text fill="#000000" font-family="sans-serif" font-size="16.8" lengthAdjust="spacing" textLength="164.4" x="837.6" y="86.5289">ApplicationRepository</text><rect fill="#E2E2F0" height="39.1453" rx="3" ry="3" style="stroke:#181818;stroke-width:0.6;" width="181.2" x="829.2" y="573.7359"/><text fill="#000000" font-family="sans-serif" font-size="16.8" lengthAdjust="spacing" textLength="164.4" x="837.6" y="600.2648">ApplicationRepository</text><rect fill="#FFFFFF" height="423.8414" style="stroke:#181818;stroke-width:1.2;" width="12" x="343.8" y="140.2945"/><rect fill="#FFFFFF" height="187.7461" style="stroke:#181818;stroke-width:1.2;" width="12" x="349.8" y="365.5898"/><rect fill="#FFFFFF" height="112.6477" style="stroke:#181818;stroke-width:1.2;" width="12" x="591" y="177.8438"/><rect fill="#FFFFFF" height="112.6477" style="stroke:#181818;stroke-width:1.2;" width="12" x="591" y="403.1391"/><rect fill="#FFFFFF" height="37.5492" style="stroke:#181818;stroke-width:1.2;" width="12" x="913.8" y="215.393"/><rect fill="#FFFFFF" height="37.5492" style="stroke:#181818;stroke-width:1.2;" width="12" x="913.8" y="440.6883"/><polygon fill="#181818" points="329.4,135.4945,341.4,140.2945,329.4,145.0945,334.2,140.2945" style="stroke:#181818;stroke-width:1.2;"/><line style="stroke:#181818;stroke-width:1.2;" x1="27" x2="336.6" y1="140.2945" y2="140.2945"/><text fill="#000000" font-family="sans-serif" font-size="15.6" lengthAdjust="spacing" textLength="294" x="35.4" y="133.9793">Request Display All Data of an Application</text><polygon fill="#181818" points="576.6,173.0438,588.6,177.8438,576.6,182.6437,581.4,177.8438" style="stroke:#181818;stroke-width:1.2;"/><line style="stroke:#181818;stroke-width:1.2;" x1="355.8" x2="583.8" y1="177.8438" y2="177.8438"/><text fill="#000000" font-family="sans-serif" font-size="15.6" lengthAdjust="spacing" textLength="64.8" x="364.2" y="171.5285">doShow()</text><polygon fill="#181818" points="899.4,210.593,911.4,215.393,899.4,220.193,904.2,215.393" style="stroke:#181818;stroke-width:1.2;"/><line style="stroke:#181818;stroke-width:1.2;" x1="603" x2="906.6" y1="215.393" y2="215.393"/><text fill="#000000" font-family="sans-serif" font-size="15.6" lengthAdjust="spacing" textLength="110.4" x="611.4" y="209.0777">allApplications()</text><polygon fill="#181818" points="616.2,248.1422,604.2,252.9422,616.2,257.7422,611.4,252.9422" style="stroke:#181818;stroke-width:1.2;"/><line style="stroke:#181818;stroke-width:1.2;stroke-dasharray:2.0,2.0;" x1="609" x2="918.6" y1="252.9422" y2="252.9422"/><text fill="#000000" font-family="sans-serif" font-size="15.6" lengthAdjust="spacing" textLength="166.8" x="623.4" y="246.627">Iterable&lt;jobApplication&gt;</text><polygon fill="#181818" points="369,285.6914,357,290.4914,369,295.2914,364.2,290.4914" style="stroke:#181818;stroke-width:1.2;"/><line style="stroke:#181818;stroke-width:1.2;stroke-dasharray:2.0,2.0;" x1="361.8" x2="595.8" y1="290.4914" y2="290.4914"/><text fill="#000000" font-family="sans-serif" font-size="15.6" lengthAdjust="spacing" textLength="141.6" x="376.2" y="284.1762">List&lt;jobApplication&gt;</text><polygon fill="#181818" points="40.2,323.2406,28.2,328.0406,40.2,332.8406,35.4,328.0406" style="stroke:#181818;stroke-width:1.2;"/><line style="stroke:#181818;stroke-width:1.2;" x1="33" x2="342.6" y1="328.0406" y2="328.0406"/><text fill="#000000" font-family="sans-serif" font-size="15.6" lengthAdjust="spacing" textLength="188.4" x="47.4" y="321.7254">Display List of Applications</text><polygon fill="#181818" points="335.4,360.7898,347.4,365.5898,335.4,370.3898,340.2,365.5898" style="stroke:#181818;stroke-width:1.2;"/><line style="stroke:#181818;stroke-width:1.2;" x1="27" x2="342.6" y1="365.5898" y2="365.5898"/><text fill="#000000" font-family="sans-serif" font-size="15.6" lengthAdjust="spacing" textLength="126" x="35.4" y="359.2746">Select Application</text><polygon fill="#181818" points="576.6,398.3391,588.6,403.1391,576.6,407.9391,581.4,403.1391" style="stroke:#181818;stroke-width:1.2;"/><line style="stroke:#181818;stroke-width:1.2;" x1="361.8" x2="583.8" y1="403.1391" y2="403.1391"/><text fill="#000000" font-family="sans-serif" font-size="15.6" lengthAdjust="spacing" textLength="126" x="370.2" y="396.8238">Select Application</text><polygon fill="#181818" points="899.4,435.8883,911.4,440.6883,899.4,445.4883,904.2,440.6883" style="stroke:#181818;stroke-width:1.2;"/><line style="stroke:#181818;stroke-width:1.2;" x1="603" x2="906.6" y1="440.6883" y2="440.6883"/><text fill="#000000" font-family="sans-serif" font-size="15.6" lengthAdjust="spacing" textLength="288" x="611.4" y="434.373">fetchApplicationData(selectedApplication)</text><polygon fill="#181818" points="616.2,473.4375,604.2,478.2375,616.2,483.0375,611.4,478.2375" style="stroke:#181818;stroke-width:1.2;"/><line style="stroke:#181818;stroke-width:1.2;stroke-dasharray:2.0,2.0;" x1="609" x2="918.6" y1="478.2375" y2="478.2375"/><text fill="#000000" font-family="sans-serif" font-size="15.6" lengthAdjust="spacing" textLength="129.6" x="623.4" y="471.9223">jobApplicationData</text><polygon fill="#181818" points="375,510.9867,363,515.7867,375,520.5867,370.2,515.7867" style="stroke:#181818;stroke-width:1.2;"/><line style="stroke:#181818;stroke-width:1.2;stroke-dasharray:2.0,2.0;" x1="367.8" x2="595.8" y1="515.7867" y2="515.7867"/><text fill="#000000" font-family="sans-serif" font-size="15.6" lengthAdjust="spacing" textLength="129.6" x="382.2" y="509.4715">jobApplicationData</text><polygon fill="#181818" points="40.2,548.5359,28.2,553.3359,40.2,558.1359,35.4,553.3359" style="stroke:#181818;stroke-width:1.2;"/><line style="stroke:#181818;stroke-width:1.2;" x1="33" x2="342.6" y1="553.3359" y2="553.3359"/><text fill="#000000" font-family="sans-serif" font-size="15.6" lengthAdjust="spacing" textLength="170.4" x="47.4" y="547.0207">Display Application Data</text><!--SRC=[bP91QiCm44NtEiMGLRh81Km9X6PZwAf11vZ84w8oMAeqQSdjQxcX6eVYnZj9wFtvUWYTX0GsKp8HatZd8_O2gxtFaV6wYv6zG_6XtwEWRLU06MpxoEMNq4iAp9H6g6wdiABUA8RiXqBNaQXROqf3s6o7qSrm_d6XB70R2pjcA0CXd01xK846dVXF52gLZMrBGktHG1SEv_2rVghtL4jJruMhRHf0PZKbwm1TkgvXSpUv5KfuP7f-3qSLjJKT_HcbkzmqlFeiSxX-oi_JYyJcLrlXYpBzagde0p4vMI9qZdXCxOd4dUz-qZgFiTIfy-NAfwfAxWBPy_1_gXKw_bIZOTj-0m00]--></g></svg>