<?xml version="1.0" encoding="us-ascii" standalone="no"?><svg xmlns="http://www.w3.org/2000/svg" xmlns:xlink="http://www.w3.org/1999/xlink" contentStyleType="text/css" height="407px" preserveAspectRatio="none" style="width:709px;height:407px;background:#FFFFFF;" version="1.1" viewBox="0 0 709 407" width="709px" zoomAndPan="magnify"><defs/><g><!--cluster CostumerAgg--><g id="cluster_CostumerAgg"><path d="M8.5,6 L104.5,6 A3.75,3.75 0 0 1 107,8.5 L114,29.6094 L699.5,29.6094 A2.5,2.5 0 0 1 702,32.1094 L702,397.5 A2.5,2.5 0 0 1 699.5,400 L8.5,400 A2.5,2.5 0 0 1 6,397.5 L6,8.5 A2.5,2.5 0 0 1 8.5,6 " fill="#BAABAB" style="stroke:#000000;stroke-width:1.5;"/><line style="stroke:#000000;stroke-width:1.5;" x1="6" x2="114" y1="29.6094" y2="29.6094"/><text fill="#000000" font-family="sans-serif" font-size="14" font-weight="bold" lengthAdjust="spacing" textLength="95" x="10" y="22.5332">CostumerAgg</text></g><!--class Costumer--><g id="elem_Costumer"><rect codeLine="2" fill="#F1F1F1" height="73.7969" id="Costumer" rx="2.5" ry="2.5" style="stroke:#181818;stroke-width:0.5;" width="93" x="287.5" y="42"/><ellipse cx="302.5" cy="70.8984" fill="#ADD1B2" rx="11" ry="11" style="stroke:#181818;stroke-width:1.0;"/><path d="M305.2656,66.7734 Q305.4219,66.5547 305.6094,66.4453 Q305.7969,66.3359 306.0156,66.3359 Q306.3906,66.3359 306.625,66.6016 Q306.8594,66.8516 306.8594,67.4609 L306.8594,68.9141 Q306.8594,69.5234 306.625,69.7891 Q306.3906,70.0547 306.0156,70.0547 Q305.6719,70.0547 305.4688,69.8516 Q305.2656,69.6641 305.1563,69.1484 Q305.1094,68.7891 304.9219,68.6016 Q304.5938,68.2266 303.9844,68.0078 Q303.375,67.7891 302.75,67.7891 Q301.9844,67.7891 301.3438,68.1172 Q300.7188,68.4453 300.2188,69.1953 Q299.7344,69.9453 299.7344,70.9766 L299.7344,72.0703 Q299.7344,73.3047 300.625,74.1328 Q301.5156,74.9453 303.1094,74.9453 Q304.0469,74.9453 304.7031,74.6953 Q305.0938,74.5391 305.5156,74.1016 Q305.7813,73.8359 305.9219,73.7578 Q306.0781,73.6797 306.2813,73.6797 Q306.6094,73.6797 306.8594,73.9453 Q307.125,74.1953 307.125,74.5391 Q307.125,74.8828 306.7813,75.2891 Q306.2813,75.8672 305.4844,76.1953 Q304.4063,76.6484 303.1094,76.6484 Q301.5938,76.6484 300.3906,76.0234 Q299.4063,75.5234 298.7188,74.4609 Q298.0313,73.3828 298.0313,72.1016 L298.0313,70.9453 Q298.0313,69.6172 298.6406,68.4766 Q299.2656,67.3203 300.3594,66.7109 Q301.4531,66.0859 302.6875,66.0859 Q303.4219,66.0859 304.0625,66.2578 Q304.7188,66.4141 305.2656,66.7734 Z " fill="#000000"/><text fill="#000000" font-family="sans-serif" font-size="12" font-style="italic" lengthAdjust="spacing" textLength="44" x="325" y="59.457">&#171;Entity&#187;</text><text fill="#000000" font-family="sans-serif" font-size="12" font-style="italic" lengthAdjust="spacing" textLength="40" x="327" y="74.5508">&#171;Root&#187;</text><text fill="#000000" font-family="sans-serif" font-size="14" lengthAdjust="spacing" textLength="61" x="316.5" y="91.7207">Costumer</text><line style="stroke:#181818;stroke-width:0.5;" x1="288.5" x2="379.5" y1="99.7969" y2="99.7969"/><line style="stroke:#181818;stroke-width:0.5;" x1="288.5" x2="379.5" y1="107.7969" y2="107.7969"/></g><!--class CustomerCode--><g id="elem_CustomerCode"><rect codeLine="3" fill="#F1F1F1" height="73.7969" id="CustomerCode" rx="2.5" ry="2.5" style="stroke:#181818;stroke-width:0.5;" width="127" x="22.5" y="176"/><ellipse cx="37.5" cy="204.8984" fill="#ADD1B2" rx="11" ry="11" style="stroke:#181818;stroke-width:1.0;"/><path d="M40.2656,200.7734 Q40.4219,200.5547 40.6094,200.4453 Q40.7969,200.3359 41.0156,200.3359 Q41.3906,200.3359 41.625,200.6016 Q41.8594,200.8516 41.8594,201.4609 L41.8594,202.9141 Q41.8594,203.5234 41.625,203.7891 Q41.3906,204.0547 41.0156,204.0547 Q40.6719,204.0547 40.4688,203.8516 Q40.2656,203.6641 40.1563,203.1484 Q40.1094,202.7891 39.9219,202.6016 Q39.5938,202.2266 38.9844,202.0078 Q38.375,201.7891 37.75,201.7891 Q36.9844,201.7891 36.3438,202.1172 Q35.7188,202.4453 35.2188,203.1953 Q34.7344,203.9453 34.7344,204.9766 L34.7344,206.0703 Q34.7344,207.3047 35.625,208.1328 Q36.5156,208.9453 38.1094,208.9453 Q39.0469,208.9453 39.7031,208.6953 Q40.0938,208.5391 40.5156,208.1016 Q40.7813,207.8359 40.9219,207.7578 Q41.0781,207.6797 41.2813,207.6797 Q41.6094,207.6797 41.8594,207.9453 Q42.125,208.1953 42.125,208.5391 Q42.125,208.8828 41.7813,209.2891 Q41.2813,209.8672 40.4844,210.1953 Q39.4063,210.6484 38.1094,210.6484 Q36.5938,210.6484 35.3906,210.0234 Q34.4063,209.5234 33.7188,208.4609 Q33.0313,207.3828 33.0313,206.1016 L33.0313,204.9453 Q33.0313,203.6172 33.6406,202.4766 Q34.2656,201.3203 35.3594,200.7109 Q36.4531,200.0859 37.6875,200.0859 Q38.4219,200.0859 39.0625,200.2578 Q39.7188,200.4141 40.2656,200.7734 Z " fill="#000000"/><text fill="#000000" font-family="sans-serif" font-size="12" font-style="italic" lengthAdjust="spacing" textLength="85" x="56.5" y="193.457">&#171;Value Object&#187;</text><text fill="#000000" font-family="sans-serif" font-size="12" font-style="italic" lengthAdjust="spacing" textLength="25" x="86.5" y="208.5508">&#171;Id&#187;</text><text fill="#000000" font-family="sans-serif" font-size="14" lengthAdjust="spacing" textLength="95" x="51.5" y="225.7207">CustomerCode</text><line style="stroke:#181818;stroke-width:0.5;" x1="23.5" x2="148.5" y1="233.7969" y2="233.7969"/><line style="stroke:#181818;stroke-width:0.5;" x1="23.5" x2="148.5" y1="241.7969" y2="241.7969"/></g><!--class Name--><g id="elem_Name"><rect codeLine="11" fill="#F1F1F1" height="58.7031" id="Name" rx="2.5" ry="2.5" style="stroke:#181818;stroke-width:0.5;" width="113" x="93.5" y="317.5"/><ellipse cx="108.5" cy="338.8516" fill="#ADD1B2" rx="11" ry="11" style="stroke:#181818;stroke-width:1.0;"/><path d="M111.2656,334.7266 Q111.4219,334.5078 111.6094,334.3984 Q111.7969,334.2891 112.0156,334.2891 Q112.3906,334.2891 112.625,334.5547 Q112.8594,334.8047 112.8594,335.4141 L112.8594,336.8672 Q112.8594,337.4766 112.625,337.7422 Q112.3906,338.0078 112.0156,338.0078 Q111.6719,338.0078 111.4688,337.8047 Q111.2656,337.6172 111.1563,337.1016 Q111.1094,336.7422 110.9219,336.5547 Q110.5938,336.1797 109.9844,335.9609 Q109.375,335.7422 108.75,335.7422 Q107.9844,335.7422 107.3438,336.0703 Q106.7188,336.3984 106.2188,337.1484 Q105.7344,337.8984 105.7344,338.9297 L105.7344,340.0234 Q105.7344,341.2578 106.625,342.0859 Q107.5156,342.8984 109.1094,342.8984 Q110.0469,342.8984 110.7031,342.6484 Q111.0938,342.4922 111.5156,342.0547 Q111.7813,341.7891 111.9219,341.7109 Q112.0781,341.6328 112.2813,341.6328 Q112.6094,341.6328 112.8594,341.8984 Q113.125,342.1484 113.125,342.4922 Q113.125,342.8359 112.7813,343.2422 Q112.2813,343.8203 111.4844,344.1484 Q110.4063,344.6016 109.1094,344.6016 Q107.5938,344.6016 106.3906,343.9766 Q105.4063,343.4766 104.7188,342.4141 Q104.0313,341.3359 104.0313,340.0547 L104.0313,338.8984 Q104.0313,337.5703 104.6406,336.4297 Q105.2656,335.2734 106.3594,334.6641 Q107.4531,334.0391 108.6875,334.0391 Q109.4219,334.0391 110.0625,334.2109 Q110.7188,334.3672 111.2656,334.7266 Z " fill="#000000"/><text fill="#000000" font-family="sans-serif" font-size="12" font-style="italic" lengthAdjust="spacing" textLength="85" x="120.5" y="334.957">&#171;Value Object&#187;</text><text fill="#000000" font-family="sans-serif" font-size="14" lengthAdjust="spacing" textLength="36" x="145" y="352.127">Name</text><line style="stroke:#181818;stroke-width:0.5;" x1="94.5" x2="205.5" y1="360.2031" y2="360.2031"/><line style="stroke:#181818;stroke-width:0.5;" x1="94.5" x2="205.5" y1="368.2031" y2="368.2031"/></g><!--class Address--><g id="elem_Address"><rect codeLine="5" fill="#F1F1F1" height="58.7031" id="Address" rx="2.5" ry="2.5" style="stroke:#181818;stroke-width:0.5;" width="113" x="184.5" y="183.5"/><ellipse cx="199.5" cy="204.8516" fill="#ADD1B2" rx="11" ry="11" style="stroke:#181818;stroke-width:1.0;"/><path d="M202.2656,200.7266 Q202.4219,200.5078 202.6094,200.3984 Q202.7969,200.2891 203.0156,200.2891 Q203.3906,200.2891 203.625,200.5547 Q203.8594,200.8047 203.8594,201.4141 L203.8594,202.8672 Q203.8594,203.4766 203.625,203.7422 Q203.3906,204.0078 203.0156,204.0078 Q202.6719,204.0078 202.4688,203.8047 Q202.2656,203.6172 202.1563,203.1016 Q202.1094,202.7422 201.9219,202.5547 Q201.5938,202.1797 200.9844,201.9609 Q200.375,201.7422 199.75,201.7422 Q198.9844,201.7422 198.3438,202.0703 Q197.7188,202.3984 197.2188,203.1484 Q196.7344,203.8984 196.7344,204.9297 L196.7344,206.0234 Q196.7344,207.2578 197.625,208.0859 Q198.5156,208.8984 200.1094,208.8984 Q201.0469,208.8984 201.7031,208.6484 Q202.0938,208.4922 202.5156,208.0547 Q202.7813,207.7891 202.9219,207.7109 Q203.0781,207.6328 203.2813,207.6328 Q203.6094,207.6328 203.8594,207.8984 Q204.125,208.1484 204.125,208.4922 Q204.125,208.8359 203.7813,209.2422 Q203.2813,209.8203 202.4844,210.1484 Q201.4063,210.6016 200.1094,210.6016 Q198.5938,210.6016 197.3906,209.9766 Q196.4063,209.4766 195.7188,208.4141 Q195.0313,207.3359 195.0313,206.0547 L195.0313,204.8984 Q195.0313,203.5703 195.6406,202.4297 Q196.2656,201.2734 197.3594,200.6641 Q198.4531,200.0391 199.6875,200.0391 Q200.4219,200.0391 201.0625,200.2109 Q201.7188,200.3672 202.2656,200.7266 Z " fill="#000000"/><text fill="#000000" font-family="sans-serif" font-size="12" font-style="italic" lengthAdjust="spacing" textLength="85" x="211.5" y="200.957">&#171;Value Object&#187;</text><text fill="#000000" font-family="sans-serif" font-size="14" lengthAdjust="spacing" textLength="52" x="228" y="218.127">Address</text><line style="stroke:#181818;stroke-width:0.5;" x1="185.5" x2="296.5" y1="226.2031" y2="226.2031"/><line style="stroke:#181818;stroke-width:0.5;" x1="185.5" x2="296.5" y1="234.2031" y2="234.2031"/></g><!--class CostumerRepresentative--><g id="elem_CostumerRepresentative"><rect codeLine="6" fill="#F1F1F1" height="58.7031" id="CostumerRepresentative" rx="2.5" ry="2.5" style="stroke:#181818;stroke-width:0.5;" width="189" x="332.5" y="183.5"/><ellipse cx="347.5" cy="204.8516" fill="#ADD1B2" rx="11" ry="11" style="stroke:#181818;stroke-width:1.0;"/><path d="M350.2656,200.7266 Q350.4219,200.5078 350.6094,200.3984 Q350.7969,200.2891 351.0156,200.2891 Q351.3906,200.2891 351.625,200.5547 Q351.8594,200.8047 351.8594,201.4141 L351.8594,202.8672 Q351.8594,203.4766 351.625,203.7422 Q351.3906,204.0078 351.0156,204.0078 Q350.6719,204.0078 350.4688,203.8047 Q350.2656,203.6172 350.1563,203.1016 Q350.1094,202.7422 349.9219,202.5547 Q349.5938,202.1797 348.9844,201.9609 Q348.375,201.7422 347.75,201.7422 Q346.9844,201.7422 346.3438,202.0703 Q345.7188,202.3984 345.2188,203.1484 Q344.7344,203.8984 344.7344,204.9297 L344.7344,206.0234 Q344.7344,207.2578 345.625,208.0859 Q346.5156,208.8984 348.1094,208.8984 Q349.0469,208.8984 349.7031,208.6484 Q350.0938,208.4922 350.5156,208.0547 Q350.7813,207.7891 350.9219,207.7109 Q351.0781,207.6328 351.2813,207.6328 Q351.6094,207.6328 351.8594,207.8984 Q352.125,208.1484 352.125,208.4922 Q352.125,208.8359 351.7813,209.2422 Q351.2813,209.8203 350.4844,210.1484 Q349.4063,210.6016 348.1094,210.6016 Q346.5938,210.6016 345.3906,209.9766 Q344.4063,209.4766 343.7188,208.4141 Q343.0313,207.3359 343.0313,206.0547 L343.0313,204.8984 Q343.0313,203.5703 343.6406,202.4297 Q344.2656,201.2734 345.3594,200.6641 Q346.4531,200.0391 347.6875,200.0391 Q348.4219,200.0391 349.0625,200.2109 Q349.7188,200.3672 350.2656,200.7266 Z " fill="#000000"/><text fill="#000000" font-family="sans-serif" font-size="12" font-style="italic" lengthAdjust="spacing" textLength="44" x="418" y="200.957">&#171;Entity&#187;</text><text fill="#000000" font-family="sans-serif" font-size="14" lengthAdjust="spacing" textLength="157" x="361.5" y="218.127">CostumerRepresentative</text><line style="stroke:#181818;stroke-width:0.5;" x1="333.5" x2="520.5" y1="226.2031" y2="226.2031"/><line style="stroke:#181818;stroke-width:0.5;" x1="333.5" x2="520.5" y1="234.2031" y2="234.2031"/></g><!--class CostumerName--><g id="elem_CostumerName"><rect codeLine="7" fill="#F1F1F1" height="58.7031" id="CostumerName" rx="2.5" ry="2.5" style="stroke:#181818;stroke-width:0.5;" width="129" x="556.5" y="183.5"/><ellipse cx="571.5" cy="204.8516" fill="#ADD1B2" rx="11" ry="11" style="stroke:#181818;stroke-width:1.0;"/><path d="M574.2656,200.7266 Q574.4219,200.5078 574.6094,200.3984 Q574.7969,200.2891 575.0156,200.2891 Q575.3906,200.2891 575.625,200.5547 Q575.8594,200.8047 575.8594,201.4141 L575.8594,202.8672 Q575.8594,203.4766 575.625,203.7422 Q575.3906,204.0078 575.0156,204.0078 Q574.6719,204.0078 574.4688,203.8047 Q574.2656,203.6172 574.1563,203.1016 Q574.1094,202.7422 573.9219,202.5547 Q573.5938,202.1797 572.9844,201.9609 Q572.375,201.7422 571.75,201.7422 Q570.9844,201.7422 570.3438,202.0703 Q569.7188,202.3984 569.2188,203.1484 Q568.7344,203.8984 568.7344,204.9297 L568.7344,206.0234 Q568.7344,207.2578 569.625,208.0859 Q570.5156,208.8984 572.1094,208.8984 Q573.0469,208.8984 573.7031,208.6484 Q574.0938,208.4922 574.5156,208.0547 Q574.7813,207.7891 574.9219,207.7109 Q575.0781,207.6328 575.2813,207.6328 Q575.6094,207.6328 575.8594,207.8984 Q576.125,208.1484 576.125,208.4922 Q576.125,208.8359 575.7813,209.2422 Q575.2813,209.8203 574.4844,210.1484 Q573.4063,210.6016 572.1094,210.6016 Q570.5938,210.6016 569.3906,209.9766 Q568.4063,209.4766 567.7188,208.4141 Q567.0313,207.3359 567.0313,206.0547 L567.0313,204.8984 Q567.0313,203.5703 567.6406,202.4297 Q568.2656,201.2734 569.3594,200.6641 Q570.4531,200.0391 571.6875,200.0391 Q572.4219,200.0391 573.0625,200.2109 Q573.7188,200.3672 574.2656,200.7266 Z " fill="#000000"/><text fill="#000000" font-family="sans-serif" font-size="12" font-style="italic" lengthAdjust="spacing" textLength="85" x="591.5" y="200.957">&#171;Value Object&#187;</text><text fill="#000000" font-family="sans-serif" font-size="14" lengthAdjust="spacing" textLength="97" x="585.5" y="218.127">CostumerName</text><line style="stroke:#181818;stroke-width:0.5;" x1="557.5" x2="684.5" y1="226.2031" y2="226.2031"/><line style="stroke:#181818;stroke-width:0.5;" x1="557.5" x2="684.5" y1="234.2031" y2="234.2031"/></g><!--class Email--><g id="elem_Email"><rect codeLine="9" fill="#F1F1F1" height="73.7969" id="Email" rx="2.5" ry="2.5" style="stroke:#181818;stroke-width:0.5;" width="113" x="241.5" y="310"/><ellipse cx="256.5" cy="338.8984" fill="#ADD1B2" rx="11" ry="11" style="stroke:#181818;stroke-width:1.0;"/><path d="M259.2656,334.7734 Q259.4219,334.5547 259.6094,334.4453 Q259.7969,334.3359 260.0156,334.3359 Q260.3906,334.3359 260.625,334.6016 Q260.8594,334.8516 260.8594,335.4609 L260.8594,336.9141 Q260.8594,337.5234 260.625,337.7891 Q260.3906,338.0547 260.0156,338.0547 Q259.6719,338.0547 259.4688,337.8516 Q259.2656,337.6641 259.1563,337.1484 Q259.1094,336.7891 258.9219,336.6016 Q258.5938,336.2266 257.9844,336.0078 Q257.375,335.7891 256.75,335.7891 Q255.9844,335.7891 255.3438,336.1172 Q254.7188,336.4453 254.2188,337.1953 Q253.7344,337.9453 253.7344,338.9766 L253.7344,340.0703 Q253.7344,341.3047 254.625,342.1328 Q255.5156,342.9453 257.1094,342.9453 Q258.0469,342.9453 258.7031,342.6953 Q259.0938,342.5391 259.5156,342.1016 Q259.7813,341.8359 259.9219,341.7578 Q260.0781,341.6797 260.2813,341.6797 Q260.6094,341.6797 260.8594,341.9453 Q261.125,342.1953 261.125,342.5391 Q261.125,342.8828 260.7813,343.2891 Q260.2813,343.8672 259.4844,344.1953 Q258.4063,344.6484 257.1094,344.6484 Q255.5938,344.6484 254.3906,344.0234 Q253.4063,343.5234 252.7188,342.4609 Q252.0313,341.3828 252.0313,340.1016 L252.0313,338.9453 Q252.0313,337.6172 252.6406,336.4766 Q253.2656,335.3203 254.3594,334.7109 Q255.4531,334.0859 256.6875,334.0859 Q257.4219,334.0859 258.0625,334.2578 Q258.7188,334.4141 259.2656,334.7734 Z " fill="#000000"/><text fill="#000000" font-family="sans-serif" font-size="12" font-style="italic" lengthAdjust="spacing" textLength="85" x="268.5" y="327.457">&#171;Value Object&#187;</text><text fill="#000000" font-family="sans-serif" font-size="12" font-style="italic" lengthAdjust="spacing" textLength="25" x="298.5" y="342.5508">&#171;Id&#187;</text><text fill="#000000" font-family="sans-serif" font-size="14" lengthAdjust="spacing" textLength="34" x="294" y="359.7207">Email</text><line style="stroke:#181818;stroke-width:0.5;" x1="242.5" x2="353.5" y1="367.7969" y2="367.7969"/><line style="stroke:#181818;stroke-width:0.5;" x1="242.5" x2="353.5" y1="375.7969" y2="375.7969"/></g><!--class PhoneNumber--><g id="elem_PhoneNumber"><rect codeLine="10" fill="#F1F1F1" height="58.7031" id="PhoneNumber" rx="2.5" ry="2.5" style="stroke:#181818;stroke-width:0.5;" width="122" x="390" y="317.5"/><ellipse cx="405" cy="338.8516" fill="#ADD1B2" rx="11" ry="11" style="stroke:#181818;stroke-width:1.0;"/><path d="M407.7656,334.7266 Q407.9219,334.5078 408.1094,334.3984 Q408.2969,334.2891 408.5156,334.2891 Q408.8906,334.2891 409.125,334.5547 Q409.3594,334.8047 409.3594,335.4141 L409.3594,336.8672 Q409.3594,337.4766 409.125,337.7422 Q408.8906,338.0078 408.5156,338.0078 Q408.1719,338.0078 407.9688,337.8047 Q407.7656,337.6172 407.6563,337.1016 Q407.6094,336.7422 407.4219,336.5547 Q407.0938,336.1797 406.4844,335.9609 Q405.875,335.7422 405.25,335.7422 Q404.4844,335.7422 403.8438,336.0703 Q403.2188,336.3984 402.7188,337.1484 Q402.2344,337.8984 402.2344,338.9297 L402.2344,340.0234 Q402.2344,341.2578 403.125,342.0859 Q404.0156,342.8984 405.6094,342.8984 Q406.5469,342.8984 407.2031,342.6484 Q407.5938,342.4922 408.0156,342.0547 Q408.2813,341.7891 408.4219,341.7109 Q408.5781,341.6328 408.7813,341.6328 Q409.1094,341.6328 409.3594,341.8984 Q409.625,342.1484 409.625,342.4922 Q409.625,342.8359 409.2813,343.2422 Q408.7813,343.8203 407.9844,344.1484 Q406.9063,344.6016 405.6094,344.6016 Q404.0938,344.6016 402.8906,343.9766 Q401.9063,343.4766 401.2188,342.4141 Q400.5313,341.3359 400.5313,340.0547 L400.5313,338.8984 Q400.5313,337.5703 401.1406,336.4297 Q401.7656,335.2734 402.8594,334.6641 Q403.9531,334.0391 405.1875,334.0391 Q405.9219,334.0391 406.5625,334.2109 Q407.2188,334.3672 407.7656,334.7266 Z " fill="#000000"/><text fill="#000000" font-family="sans-serif" font-size="12" font-style="italic" lengthAdjust="spacing" textLength="85" x="421.5" y="334.957">&#171;Value Object&#187;</text><text fill="#000000" font-family="sans-serif" font-size="14" lengthAdjust="spacing" textLength="90" x="419" y="352.127">PhoneNumber</text><line style="stroke:#181818;stroke-width:0.5;" x1="391" x2="511" y1="360.2031" y2="360.2031"/><line style="stroke:#181818;stroke-width:0.5;" x1="391" x2="511" y1="368.2031" y2="368.2031"/></g><!--class Password--><g id="elem_Password"><rect codeLine="12" fill="#F1F1F1" height="58.7031" id="Password" rx="2.5" ry="2.5" style="stroke:#181818;stroke-width:0.5;" width="113" x="547.5" y="317.5"/><ellipse cx="562.5" cy="338.8516" fill="#ADD1B2" rx="11" ry="11" style="stroke:#181818;stroke-width:1.0;"/><path d="M565.2656,334.7266 Q565.4219,334.5078 565.6094,334.3984 Q565.7969,334.2891 566.0156,334.2891 Q566.3906,334.2891 566.625,334.5547 Q566.8594,334.8047 566.8594,335.4141 L566.8594,336.8672 Q566.8594,337.4766 566.625,337.7422 Q566.3906,338.0078 566.0156,338.0078 Q565.6719,338.0078 565.4688,337.8047 Q565.2656,337.6172 565.1563,337.1016 Q565.1094,336.7422 564.9219,336.5547 Q564.5938,336.1797 563.9844,335.9609 Q563.375,335.7422 562.75,335.7422 Q561.9844,335.7422 561.3438,336.0703 Q560.7188,336.3984 560.2188,337.1484 Q559.7344,337.8984 559.7344,338.9297 L559.7344,340.0234 Q559.7344,341.2578 560.625,342.0859 Q561.5156,342.8984 563.1094,342.8984 Q564.0469,342.8984 564.7031,342.6484 Q565.0938,342.4922 565.5156,342.0547 Q565.7813,341.7891 565.9219,341.7109 Q566.0781,341.6328 566.2813,341.6328 Q566.6094,341.6328 566.8594,341.8984 Q567.125,342.1484 567.125,342.4922 Q567.125,342.8359 566.7813,343.2422 Q566.2813,343.8203 565.4844,344.1484 Q564.4063,344.6016 563.1094,344.6016 Q561.5938,344.6016 560.3906,343.9766 Q559.4063,343.4766 558.7188,342.4141 Q558.0313,341.3359 558.0313,340.0547 L558.0313,338.8984 Q558.0313,337.5703 558.6406,336.4297 Q559.2656,335.2734 560.3594,334.6641 Q561.4531,334.0391 562.6875,334.0391 Q563.4219,334.0391 564.0625,334.2109 Q564.7188,334.3672 565.2656,334.7266 Z " fill="#000000"/><text fill="#000000" font-family="sans-serif" font-size="12" font-style="italic" lengthAdjust="spacing" textLength="85" x="574.5" y="334.957">&#171;Value Object&#187;</text><text fill="#000000" font-family="sans-serif" font-size="14" lengthAdjust="spacing" textLength="61" x="586.5" y="352.127">Password</text><line style="stroke:#181818;stroke-width:0.5;" x1="548.5" x2="659.5" y1="360.2031" y2="360.2031"/><line style="stroke:#181818;stroke-width:0.5;" x1="548.5" x2="659.5" y1="368.2031" y2="368.2031"/></g><!--link Costumer to CustomerCode--><g id="link_Costumer_CustomerCode"><path codeLine="14" d="M287.35,104.83 C248.49,125.52 198.0366,152.3711 155.0466,175.2511 " fill="none" id="Costumer-to-CustomerCode" style="stroke:#181818;stroke-width:1.0;"/><polygon fill="#181818" points="149.75,178.07,159.5741,177.3727,154.1638,175.7209,155.8156,170.3106,149.75,178.07" style="stroke:#181818;stroke-width:1.0;"/><text fill="#000000" font-family="sans-serif" font-size="13" lengthAdjust="spacing" textLength="7" x="272.3573" y="105.211">1</text><text fill="#000000" font-family="sans-serif" font-size="13" lengthAdjust="spacing" textLength="7" x="157.5258" y="170.6334">1</text></g><!--link Costumer to CostumerName--><g id="link_Costumer_CostumerName"><path codeLine="15" d="M380.75,101.5 C429.28,123.82 499.9793,156.332 553.5093,180.962 " fill="none" id="Costumer-to-CostumerName" style="stroke:#181818;stroke-width:1.0;"/><polygon fill="#181818" points="558.96,183.47,552.4559,176.0743,554.4177,181.38,549.112,183.3419,558.96,183.47" style="stroke:#181818;stroke-width:1.0;"/><text fill="#000000" font-family="sans-serif" font-size="13" lengthAdjust="spacing" textLength="7" x="388.4445" y="101.2579">1</text><text fill="#000000" font-family="sans-serif" font-size="13" lengthAdjust="spacing" textLength="7" x="541.5146" y="175.0354">1</text></g><!--link Costumer to Address--><g id="link_Costumer_Address"><path codeLine="16" d="M308.59,116.07 C293.74,137.14 278.7158,158.4652 264.8358,178.1652 " fill="none" id="Costumer-to-Address" style="stroke:#181818;stroke-width:1.0;"/><polygon fill="#181818" points="261.38,183.07,269.8336,178.0166,264.2598,178.9826,263.2938,173.4089,261.38,183.07" style="stroke:#181818;stroke-width:1.0;"/><text fill="#000000" font-family="sans-serif" font-size="13" lengthAdjust="spacing" textLength="7" x="296.6211" y="137.3592">1</text><text fill="#000000" font-family="sans-serif" font-size="13" lengthAdjust="spacing" textLength="7" x="257.8615" y="172.8089">1</text></g><!--link Costumer to CostumerRepresentative--><g id="link_Costumer_CostumerRepresentative"><path codeLine="17" d="M359.41,116.07 C374.26,137.14 389.2842,158.4652 403.1642,178.1652 " fill="none" id="Costumer-to-CostumerRepresentative" style="stroke:#181818;stroke-width:1.0;"/><polygon fill="#181818" points="406.62,183.07,404.7062,173.4089,403.7402,178.9826,398.1664,178.0166,406.62,183.07" style="stroke:#181818;stroke-width:1.0;"/><text fill="#000000" font-family="sans-serif" font-size="13" lengthAdjust="spacing" textLength="7" x="356.1758" y="137.3592">1</text><text fill="#000000" font-family="sans-serif" font-size="13" lengthAdjust="spacing" textLength="7" x="394.6948" y="172.8089">1</text></g><!--link CostumerRepresentative to Email--><g id="link_CostumerRepresentative_Email"><path codeLine="19" d="M399.01,242.64 C379.74,262.36 358.1937,284.409 337.5137,305.569 " fill="none" id="CostumerRepresentative-to-Email" style="stroke:#181818;stroke-width:1.0;"/><polygon fill="#181818" points="333.32,309.86,342.4712,306.2192,336.8147,306.2841,336.7499,300.6277,333.32,309.86" style="stroke:#181818;stroke-width:1.0;"/><text fill="#000000" font-family="sans-serif" font-size="13" lengthAdjust="spacing" textLength="7" x="385.8104" y="263.6093">1</text><text fill="#000000" font-family="sans-serif" font-size="13" lengthAdjust="spacing" textLength="7" x="332.1868" y="299.0836">1</text></g><!--link CostumerRepresentative to PhoneNumber--><g id="link_CostumerRepresentative_PhoneNumber"><path codeLine="20" d="M432.21,242.64 C436.23,264.78 440.7072,289.3867 444.7272,311.5067 " fill="none" id="CostumerRepresentative-to-PhoneNumber" style="stroke:#181818;stroke-width:1.0;"/><polygon fill="#181818" points="445.8,317.41,448.1263,307.8398,444.906,312.4906,440.2552,309.2703,445.8,317.41" style="stroke:#181818;stroke-width:1.0;"/><text fill="#000000" font-family="sans-serif" font-size="13" lengthAdjust="spacing" textLength="7" x="425.5467" y="263.6093">1</text><text fill="#000000" font-family="sans-serif" font-size="13" lengthAdjust="spacing" textLength="7" x="436.8969" y="306.7532">1</text></g><!--link CostumerRepresentative to Name--><g id="link_CostumerRepresentative_Name"><path codeLine="21" d="M366.07,242.6 C325.71,261.6 271.63,287.15 224,310 C218.33,312.72 217.8327,312.9602 211.9327,315.8102 " fill="none" id="CostumerRepresentative-to-Name" style="stroke:#181818;stroke-width:1.0;"/><polygon fill="#181818" points="206.53,318.42,216.3739,318.1071,211.0322,316.2452,212.8942,310.9035,206.53,318.42" style="stroke:#181818;stroke-width:1.0;"/><text fill="#000000" font-family="sans-serif" font-size="13" lengthAdjust="spacing" textLength="7" x="345.7813" y="263.917">1</text><text fill="#000000" font-family="sans-serif" font-size="13" lengthAdjust="spacing" textLength="7" x="214.5965" y="311.0432">1</text></g><!--link CostumerRepresentative to Password--><g id="link_CostumerRepresentative_Password"><path codeLine="22" d="M465.41,242.64 C495.1,264.78 531.1897,291.7038 560.8597,313.8238 " fill="none" id="CostumerRepresentative-to-Password" style="stroke:#181818;stroke-width:1.0;"/><polygon fill="#181818" points="565.67,317.41,560.8454,308.8238,561.6614,314.4215,556.0637,315.2375,565.67,317.41" style="stroke:#181818;stroke-width:1.0;"/><text fill="#000000" font-family="sans-serif" font-size="13" lengthAdjust="spacing" textLength="7" x="465.2829" y="263.6093">1</text><text fill="#000000" font-family="sans-serif" font-size="13" lengthAdjust="spacing" textLength="7" x="549.5197" y="306.7532">1</text></g><!--SRC=[ZP0z3u8m48PtVaM3iuDxqyGO1XSa3EvNUa4KAA6jnXZ_kqX0s_3PeHtkkUjxJmN93L8a1wcqAR3UfodPS00EdBmyqfma1wL-TKg3KcVwoHYbiPIQCHioIii6EaY1b9uXDqXE_8g9_k97uS0X50F8Ak-5g56f6QAF56FLa5XgqDaT_m57qD4_BIue8CiNaqSNMM9e2lxLCHblOR-ekHwo5kDn-i34t_baksNjQ-kTeQnTfwbEx_8OrwwRpgqvxQt9jR0bT6tBOBkvyPrgx_q1]--></g></svg>