<?xml version="1.0" encoding="us-ascii" standalone="no"?><svg xmlns="http://www.w3.org/2000/svg" xmlns:xlink="http://www.w3.org/1999/xlink" contentStyleType="text/css" height="318px" preserveAspectRatio="none" style="width:432px;height:318px;background:#FFFFFF;" version="1.1" viewBox="0 0 432 318" width="432px" zoomAndPan="magnify"><defs/><g><!--cluster JobApplicationAgg--><g id="cluster_JobApplicationAgg"><path d="M8.5,6 L143.5,6 A3.75,3.75 0 0 1 146,8.5 L153,28.4883 L422.5,28.4883 A2.5,2.5 0 0 1 425,30.9883 L425,309.43 A2.5,2.5 0 0 1 422.5,311.93 L8.5,311.93 A2.5,2.5 0 0 1 6,309.43 L6,8.5 A2.5,2.5 0 0 1 8.5,6 " fill="none" style="stroke:#000000;stroke-width:1.5;"/><line style="stroke:#000000;stroke-width:1.5;" x1="6" x2="153" y1="28.4883" y2="28.4883"/><text fill="#000000" font-family="sans-serif" font-size="14" font-weight="bold" lengthAdjust="spacing" textLength="134" x="10" y="21.5352">JobApplicationAgg</text></g><!--class JobApplication--><g id="elem_JobApplication"><rect codeLine="2" fill="#F1F1F1" height="97.4648" id="JobApplication" rx="2.5" ry="2.5" style="stroke:#181818;stroke-width:0.5;" width="366" x="32" y="41"/><ellipse cx="160.75" cy="57" fill="#ADD1B2" rx="11" ry="11" style="stroke:#181818;stroke-width:1.0;"/><path d="M163.7231,62.6431 Q163.1421,62.9419 162.5029,63.0913 Q161.8638,63.2407 161.1582,63.2407 Q158.6514,63.2407 157.3315,61.5889 Q156.0117,59.937 156.0117,56.8159 Q156.0117,53.6865 157.3315,52.0347 Q158.6514,50.3828 161.1582,50.3828 Q161.8638,50.3828 162.5112,50.5322 Q163.1587,50.6816 163.7231,50.9805 L163.7231,53.7031 Q163.0923,53.1221 162.4988,52.8523 Q161.9053,52.5825 161.2744,52.5825 Q159.9297,52.5825 159.2449,53.6492 Q158.5601,54.7158 158.5601,56.8159 Q158.5601,58.9077 159.2449,59.9744 Q159.9297,61.041 161.2744,61.041 Q161.9053,61.041 162.4988,60.7712 Q163.0923,60.5015 163.7231,59.9204 Z " fill="#000000"/><text fill="#000000" font-family="sans-serif" font-size="14" lengthAdjust="spacing" textLength="100" x="181.25" y="62.291">JobApplication</text><line style="stroke:#181818;stroke-width:0.5;" x1="33" x2="397" y1="73" y2="73"/><ellipse cx="43" cy="86.7441" fill="none" rx="3" ry="3" style="stroke:#038048;stroke-width:1.0;"/><text fill="#000000" font-family="sans-serif" font-size="14" lengthAdjust="spacing" textLength="113" x="52" y="90.5352">id: ApplicationID</text><ellipse cx="43" cy="103.2324" fill="none" rx="3" ry="3" style="stroke:#038048;stroke-width:1.0;"/><text fill="#000000" font-family="sans-serif" font-size="14" lengthAdjust="spacing" textLength="340" x="52" y="107.0234">RequirementsEvaluation: RequirementsEvaluation</text><ellipse cx="43" cy="119.7207" fill="none" rx="3" ry="3" style="stroke:#038048;stroke-width:1.0;"/><text fill="#000000" font-family="sans-serif" font-size="14" lengthAdjust="spacing" textLength="132" x="52" y="123.5117">Interview: Interview</text><line style="stroke:#181818;stroke-width:0.5;" x1="33" x2="397" y1="130.4648" y2="130.4648"/></g><!--class RequirementsEvaluation--><g id="elem_RequirementsEvaluation"><rect codeLine="9" fill="#F1F1F1" height="97.4648" id="RequirementsEvaluation" rx="2.5" ry="2.5" style="stroke:#181818;stroke-width:0.5;" width="198" x="22" y="198.47"/><ellipse cx="37" cy="214.47" fill="#EB937F" rx="11" ry="11" style="stroke:#181818;stroke-width:1.0;"/><path d="M41.1143,220.47 L33.3945,220.47 L33.3945,208.0769 L41.1143,208.0769 L41.1143,210.2351 L35.8433,210.2351 L35.8433,212.908 L40.6162,212.908 L40.6162,215.0662 L35.8433,215.0662 L35.8433,218.3118 L41.1143,218.3118 Z " fill="#000000"/><text fill="#000000" font-family="sans-serif" font-size="14" lengthAdjust="spacing" textLength="166" x="51" y="219.761">RequirementsEvaluation</text><line style="stroke:#181818;stroke-width:0.5;" x1="23" x2="219" y1="230.47" y2="230.47"/><text fill="#000000" font-family="sans-serif" font-size="14" lengthAdjust="spacing" textLength="56" x="28" y="248.0052">Pending</text><text fill="#000000" font-family="sans-serif" font-size="14" lengthAdjust="spacing" textLength="63" x="28" y="264.4934">Accepted</text><text fill="#000000" font-family="sans-serif" font-size="14" lengthAdjust="spacing" textLength="58" x="28" y="280.9817">Rejected</text><line style="stroke:#181818;stroke-width:0.5;" x1="23" x2="219" y1="287.9348" y2="287.9348"/></g><!--class NotificationStatus--><g id="elem_NotificationStatus"><rect codeLine="15" fill="#F1F1F1" height="80.9766" id="NotificationStatus" rx="2.5" ry="2.5" style="stroke:#181818;stroke-width:0.5;" width="153" x="255.5" y="206.71"/><ellipse cx="270.5" cy="222.71" fill="#EB937F" rx="11" ry="11" style="stroke:#181818;stroke-width:1.0;"/><path d="M274.6143,228.71 L266.8945,228.71 L266.8945,216.3169 L274.6143,216.3169 L274.6143,218.4751 L269.3433,218.4751 L269.3433,221.148 L274.1162,221.148 L274.1162,223.3062 L269.3433,223.3062 L269.3433,226.5518 L274.6143,226.5518 Z " fill="#000000"/><text fill="#000000" font-family="sans-serif" font-size="14" lengthAdjust="spacing" textLength="121" x="284.5" y="228.001">NotificationStatus</text><line style="stroke:#181818;stroke-width:0.5;" x1="256.5" x2="407.5" y1="238.71" y2="238.71"/><text fill="#000000" font-family="sans-serif" font-size="14" lengthAdjust="spacing" textLength="48" x="261.5" y="256.2452">Unsent</text><text fill="#000000" font-family="sans-serif" font-size="14" lengthAdjust="spacing" textLength="30" x="261.5" y="272.7334">Sent</text><line style="stroke:#181818;stroke-width:0.5;" x1="256.5" x2="407.5" y1="279.6866" y2="279.6866"/></g><!--link JobApplication to RequirementsEvaluation--><g id="link_JobApplication_RequirementsEvaluation"><path codeLine="20" d="M186.03,138.65 C174.59,157.56 164.5833,174.1149 153.1433,193.0449 " fill="none" id="JobApplication-to-RequirementsEvaluation" style="stroke:#181818;stroke-width:1.0;"/><polygon fill="#181818" points="150.04,198.18,158.1184,192.5462,152.6261,193.9007,151.2716,188.4084,150.04,198.18" style="stroke:#181818;stroke-width:1.0;"/></g><!--link JobApplication to NotificationStatus--><g id="link_JobApplication_NotificationStatus"><path codeLine="21" d="M251.06,138.65 C267.37,160.33 282.8329,180.8553 298.3529,201.4853 " fill="none" id="JobApplication-to-NotificationStatus" style="stroke:#181818;stroke-width:1.0;"/><polygon fill="#181818" points="301.96,206.28,299.7459,196.6832,298.9541,202.2844,293.3529,201.4927,301.96,206.28" style="stroke:#181818;stroke-width:1.0;"/></g><!--SRC=[VL113i8W4Bpp2kwc7-Z1f8aUwi6ODZu0wKhGTei5wi7mTojfAQdLFIpCpEwmYsBypWJGGtl9bAebPqQsc0b1NuGEmMkczK8TfKziP9NIICftirJ0myeE6a2ZzpshhQz8wJe_z-LeeEibF5CQhbvrXFWJq3O_NABHJe2LH15mnZae0rKW2hW1dmWNMHzR8w_ZGgLXnkh8zenwU3B0SWBEPvyMlvKastyxhrH_3q3S6m00]--></g></svg>