<?xml version="1.0" encoding="us-ascii" standalone="no"?><svg xmlns="http://www.w3.org/2000/svg" xmlns:xlink="http://www.w3.org/1999/xlink" contentStyleType="text/css" height="1122px" preserveAspectRatio="none" style="width:3459px;height:1122px;background:#FFFFFF;" version="1.1" viewBox="0 0 3459 1122" width="3459px" zoomAndPan="magnify"><defs/><g><!--class CustomerManager--><g id="elem_CustomerManager"><rect codeLine="2" fill="#F1F1F1" height="48" id="CustomerManager" rx="2.5" ry="2.5" style="stroke:#181818;stroke-width:0.5;" width="159" x="681" y="7"/><ellipse cx="696" cy="23" fill="#ADD1B2" rx="11" ry="11" style="stroke:#181818;stroke-width:1.0;"/><path d="M698.9731,28.6431 Q698.3921,28.9419 697.7529,29.0913 Q697.1138,29.2407 696.4082,29.2407 Q693.9014,29.2407 692.5815,27.5889 Q691.2617,25.937 691.2617,22.8159 Q691.2617,19.6865 692.5815,18.0347 Q693.9014,16.3828 696.4082,16.3828 Q697.1138,16.3828 697.7612,16.5322 Q698.4087,16.6816 698.9731,16.9805 L698.9731,19.7031 Q698.3423,19.1221 697.7488,18.8523 Q697.1553,18.5825 696.5244,18.5825 Q695.1797,18.5825 694.4949,19.6492 Q693.8101,20.7158 693.8101,22.8159 Q693.8101,24.9077 694.4949,25.9744 Q695.1797,27.041 696.5244,27.041 Q697.1553,27.041 697.7488,26.7712 Q698.3423,26.5015 698.9731,25.9204 Z " fill="#000000"/><text fill="#000000" font-family="sans-serif" font-size="14" lengthAdjust="spacing" textLength="127" x="710" y="28.291">CustomerManager</text><line style="stroke:#181818;stroke-width:0.5;" x1="682" x2="839" y1="39" y2="39"/><line style="stroke:#181818;stroke-width:0.5;" x1="682" x2="839" y1="47" y2="47"/></g><!--class VerifyRequirementsUI--><g id="elem_VerifyRequirementsUI"><rect codeLine="5" fill="#F1F1F1" height="113.9531" id="VerifyRequirementsUI" rx="2.5" ry="2.5" style="stroke:#181818;stroke-width:0.5;" width="393" x="564" y="115"/><ellipse cx="682.25" cy="131" fill="#ADD1B2" rx="11" ry="11" style="stroke:#181818;stroke-width:1.0;"/><path d="M685.2231,136.6431 Q684.6421,136.9419 684.0029,137.0913 Q683.3638,137.2407 682.6582,137.2407 Q680.1514,137.2407 678.8315,135.5889 Q677.5117,133.937 677.5117,130.8159 Q677.5117,127.6865 678.8315,126.0347 Q680.1514,124.3828 682.6582,124.3828 Q683.3638,124.3828 684.0112,124.5322 Q684.6587,124.6816 685.2231,124.9805 L685.2231,127.7031 Q684.5923,127.1221 683.9988,126.8523 Q683.4053,126.5825 682.7744,126.5825 Q681.4297,126.5825 680.7449,127.6492 Q680.0601,128.7158 680.0601,130.8159 Q680.0601,132.9077 680.7449,133.9744 Q681.4297,135.041 682.7744,135.041 Q683.4053,135.041 683.9988,134.7712 Q684.5923,134.5015 685.2231,133.9204 Z " fill="#000000"/><text fill="#000000" font-family="sans-serif" font-size="14" lengthAdjust="spacing" textLength="148" x="702.75" y="136.291">VerifyRequirementsUI</text><line style="stroke:#181818;stroke-width:0.5;" x1="565" x2="956" y1="147" y2="147"/><rect fill="none" height="6" style="stroke:#C82930;stroke-width:1.0;" width="6" x="572" y="157.7441"/><text fill="#000000" font-family="sans-serif" font-size="14" lengthAdjust="spacing" textLength="367" x="584" y="164.5352">listJobOpeningsController: ListJobOpeningsController</text><rect fill="none" height="6" style="stroke:#C82930;stroke-width:1.0;" width="6" x="572" y="174.2324"/><text fill="#000000" font-family="sans-serif" font-size="14" lengthAdjust="spacing" textLength="304" x="584" y="181.0234">theController: VerifyRequirementsController</text><line style="stroke:#181818;stroke-width:0.5;" x1="565" x2="956" y1="187.9766" y2="187.9766"/><ellipse cx="575" cy="201.7207" fill="#84BE84" rx="3" ry="3" style="stroke:#038048;stroke-width:1.0;"/><text fill="#000000" font-family="sans-serif" font-size="14" lengthAdjust="spacing" textLength="129" x="584" y="205.5117">doShow(): boolean</text><ellipse cx="575" cy="218.209" fill="#84BE84" rx="3" ry="3" style="stroke:#038048;stroke-width:1.0;"/><text fill="#000000" font-family="sans-serif" font-size="14" lengthAdjust="spacing" textLength="118" x="584" y="222">headline(): String</text></g><!--class ListJobOpeningsController--><g id="elem_ListJobOpeningsController"><rect codeLine="12" fill="#F1F1F1" height="64.4883" id="ListJobOpeningsController" rx="2.5" ry="2.5" style="stroke:#181818;stroke-width:0.5;" width="292" x="287.5" y="346.67"/><ellipse cx="338.75" cy="362.67" fill="#ADD1B2" rx="11" ry="11" style="stroke:#181818;stroke-width:1.0;"/><path d="M341.7231,368.3131 Q341.1421,368.6119 340.5029,368.7613 Q339.8638,368.9107 339.1582,368.9107 Q336.6514,368.9107 335.3315,367.2589 Q334.0117,365.607 334.0117,362.4859 Q334.0117,359.3565 335.3315,357.7047 Q336.6514,356.0528 339.1582,356.0528 Q339.8638,356.0528 340.5112,356.2022 Q341.1587,356.3516 341.7231,356.6505 L341.7231,359.3731 Q341.0923,358.7921 340.4988,358.5223 Q339.9053,358.2525 339.2744,358.2525 Q337.9297,358.2525 337.2449,359.3192 Q336.5601,360.3858 336.5601,362.4859 Q336.5601,364.5777 337.2449,365.6444 Q337.9297,366.711 339.2744,366.711 Q339.9053,366.711 340.4988,366.4412 Q341.0923,366.1715 341.7231,365.5904 Z " fill="#000000"/><text fill="#000000" font-family="sans-serif" font-size="14" lengthAdjust="spacing" textLength="181" x="359.25" y="367.961">ListJobOpeningsController</text><line style="stroke:#181818;stroke-width:0.5;" x1="288.5" x2="578.5" y1="378.67" y2="378.67"/><line style="stroke:#181818;stroke-width:0.5;" x1="288.5" x2="578.5" y1="386.67" y2="386.67"/><ellipse cx="298.5" cy="400.4141" fill="#84BE84" rx="3" ry="3" style="stroke:#038048;stroke-width:1.0;"/><text fill="#000000" font-family="sans-serif" font-size="14" lengthAdjust="spacing" textLength="266" x="307.5" y="404.2052">allJobReferences(): List&lt;JobReference&gt;</text></g><!--class VerifyRequirementsController--><g id="elem_VerifyRequirementsController"><rect codeLine="16" fill="#F1F1F1" height="179.9063" id="VerifyRequirementsController" rx="2.5" ry="2.5" style="stroke:#181818;stroke-width:0.5;" width="945" x="695" y="288.96"/><ellipse cx="1061.25" cy="304.96" fill="#ADD1B2" rx="11" ry="11" style="stroke:#181818;stroke-width:1.0;"/><path d="M1064.2231,310.6031 Q1063.6421,310.9019 1063.0029,311.0513 Q1062.3638,311.2007 1061.6582,311.2007 Q1059.1514,311.2007 1057.8315,309.5489 Q1056.5117,307.897 1056.5117,304.7759 Q1056.5117,301.6465 1057.8315,299.9947 Q1059.1514,298.3428 1061.6582,298.3428 Q1062.3638,298.3428 1063.0112,298.4922 Q1063.6587,298.6416 1064.2231,298.9405 L1064.2231,301.6631 Q1063.5923,301.0821 1062.9988,300.8123 Q1062.4053,300.5425 1061.7744,300.5425 Q1060.4297,300.5425 1059.7449,301.6092 Q1059.0601,302.6758 1059.0601,304.7759 Q1059.0601,306.8677 1059.7449,307.9344 Q1060.4297,309.001 1061.7744,309.001 Q1062.4053,309.001 1062.9988,308.7312 Q1063.5923,308.4615 1064.2231,307.8804 Z " fill="#000000"/><text fill="#000000" font-family="sans-serif" font-size="14" lengthAdjust="spacing" textLength="204" x="1081.75" y="310.251">VerifyRequirementsController</text><line style="stroke:#181818;stroke-width:0.5;" x1="696" x2="1639" y1="320.96" y2="320.96"/><rect fill="none" height="6" style="stroke:#C82930;stroke-width:1.0;" width="6" x="703" y="331.7041"/><text fill="#000000" font-family="sans-serif" font-size="14" lengthAdjust="spacing" textLength="316" x="715" y="338.4952">jobOpeningRepository: JobOpeningRepository</text><rect fill="none" height="6" style="stroke:#C82930;stroke-width:1.0;" width="6" x="703" y="348.1924"/><text fill="#000000" font-family="sans-serif" font-size="14" lengthAdjust="spacing" textLength="308" x="715" y="354.9834">applicationRepository: ApplicationRepository</text><line style="stroke:#181818;stroke-width:0.5;" x1="696" x2="1639" y1="361.9366" y2="361.9366"/><ellipse cx="706" cy="375.6807" fill="#84BE84" rx="3" ry="3" style="stroke:#038048;stroke-width:1.0;"/><text fill="#000000" font-family="sans-serif" font-size="14" lengthAdjust="spacing" textLength="411" x="715" y="379.4717">getRequirementFilePath(jobReference: JobReference): String</text><ellipse cx="706" cy="392.169" fill="#84BE84" rx="3" ry="3" style="stroke:#038048;stroke-width:1.0;"/><text fill="#000000" font-family="sans-serif" font-size="14" lengthAdjust="spacing" textLength="458" x="715" y="395.96">getApplications(jobReference: JobReference): List&lt;jobApplication&gt;</text><ellipse cx="706" cy="408.6573" fill="#84BE84" rx="3" ry="3" style="stroke:#038048;stroke-width:1.0;"/><text fill="#000000" font-family="sans-serif" font-size="14" lengthAdjust="spacing" textLength="493" x="715" y="412.4483">getCandidatesFilePath(applications: List&lt;jobApplication&gt;): List&lt;String&gt;</text><ellipse cx="706" cy="425.1455" fill="#84BE84" rx="3" ry="3" style="stroke:#038048;stroke-width:1.0;"/><text fill="#000000" font-family="sans-serif" font-size="14" lengthAdjust="spacing" textLength="516" x="715" y="428.9366">getRequirementsFromFilePath(filePath: String): List&lt;RequirementAnswers&gt;</text><ellipse cx="706" cy="441.6338" fill="#84BE84" rx="3" ry="3" style="stroke:#038048;stroke-width:1.0;"/><text fill="#000000" font-family="sans-serif" font-size="14" lengthAdjust="spacing" textLength="919" x="715" y="445.4248">checkRequirements(correctRequirements: List&lt;RequirementAnswers&gt;, candidateRequirements: List&lt;RequirementAnswers&gt;): boolean</text><ellipse cx="706" cy="458.1221" fill="#84BE84" rx="3" ry="3" style="stroke:#038048;stroke-width:1.0;"/><text fill="#000000" font-family="sans-serif" font-size="14" lengthAdjust="spacing" textLength="665" x="715" y="461.9131">saveEvaluationToJobApplication(application: jobApplication, passedRequirements: boolean): void</text></g><!--class JobOpeningRepository--><g id="elem_JobOpeningRepository"><rect codeLine="27" fill="#F1F1F1" height="80.9766" id="JobOpeningRepository" rx="2.5" ry="2.5" style="stroke:#181818;stroke-width:0.5;" width="437" x="7" y="528.86"/><ellipse cx="144.25" cy="544.86" fill="#ADD1B2" rx="11" ry="11" style="stroke:#181818;stroke-width:1.0;"/><path d="M147.2231,550.5031 Q146.6421,550.8019 146.0029,550.9513 Q145.3638,551.1007 144.6582,551.1007 Q142.1514,551.1007 140.8315,549.4489 Q139.5117,547.797 139.5117,544.6759 Q139.5117,541.5465 140.8315,539.8947 Q142.1514,538.2428 144.6582,538.2428 Q145.3638,538.2428 146.0112,538.3922 Q146.6587,538.5416 147.2231,538.8405 L147.2231,541.5631 Q146.5923,540.9821 145.9988,540.7123 Q145.4053,540.4425 144.7744,540.4425 Q143.4297,540.4425 142.7449,541.5092 Q142.0601,542.5758 142.0601,544.6759 Q142.0601,546.7677 142.7449,547.8344 Q143.4297,548.901 144.7744,548.901 Q145.4053,548.901 145.9988,548.6312 Q146.5923,548.3615 147.2231,547.7804 Z " fill="#000000"/><text fill="#000000" font-family="sans-serif" font-size="14" lengthAdjust="spacing" textLength="154" x="164.75" y="550.151">JobOpeningRepository</text><line style="stroke:#181818;stroke-width:0.5;" x1="8" x2="443" y1="560.86" y2="560.86"/><line style="stroke:#181818;stroke-width:0.5;" x1="8" x2="443" y1="568.86" y2="568.86"/><ellipse cx="18" cy="582.6041" fill="#84BE84" rx="3" ry="3" style="stroke:#038048;stroke-width:1.0;"/><text fill="#000000" font-family="sans-serif" font-size="14" lengthAdjust="spacing" textLength="411" x="27" y="586.3952">getRequirementFilePath(jobReference: JobReference): String</text><ellipse cx="18" cy="599.0924" fill="#84BE84" rx="3" ry="3" style="stroke:#038048;stroke-width:1.0;"/><text fill="#000000" font-family="sans-serif" font-size="14" lengthAdjust="spacing" textLength="295" x="27" y="602.8834">findAllJobReferences(): List&lt;JobReference&gt;</text></g><!--class ApplicationRepository--><g id="elem_ApplicationRepository"><rect codeLine="32" fill="#F1F1F1" height="80.9766" id="ApplicationRepository" rx="2.5" ry="2.5" style="stroke:#181818;stroke-width:0.5;" width="509" x="479" y="528.86"/><ellipse cx="653.75" cy="544.86" fill="#ADD1B2" rx="11" ry="11" style="stroke:#181818;stroke-width:1.0;"/><path d="M656.7231,550.5031 Q656.1421,550.8019 655.5029,550.9513 Q654.8638,551.1007 654.1582,551.1007 Q651.6514,551.1007 650.3315,549.4489 Q649.0117,547.797 649.0117,544.6759 Q649.0117,541.5465 650.3315,539.8947 Q651.6514,538.2428 654.1582,538.2428 Q654.8638,538.2428 655.5112,538.3922 Q656.1587,538.5416 656.7231,538.8405 L656.7231,541.5631 Q656.0923,540.9821 655.4988,540.7123 Q654.9053,540.4425 654.2744,540.4425 Q652.9297,540.4425 652.2449,541.5092 Q651.5601,542.5758 651.5601,544.6759 Q651.5601,546.7677 652.2449,547.8344 Q652.9297,548.901 654.2744,548.901 Q654.9053,548.901 655.4988,548.6312 Q656.0923,548.3615 656.7231,547.7804 Z " fill="#000000"/><text fill="#000000" font-family="sans-serif" font-size="14" lengthAdjust="spacing" textLength="151" x="674.25" y="550.151">ApplicationRepository</text><line style="stroke:#181818;stroke-width:0.5;" x1="480" x2="987" y1="560.86" y2="560.86"/><line style="stroke:#181818;stroke-width:0.5;" x1="480" x2="987" y1="568.86" y2="568.86"/><ellipse cx="490" cy="582.6041" fill="#84BE84" rx="3" ry="3" style="stroke:#038048;stroke-width:1.0;"/><text fill="#000000" font-family="sans-serif" font-size="14" lengthAdjust="spacing" textLength="483" x="499" y="586.3952">findByJobReference(jobReference: JobReference): List&lt;jobApplication&gt;</text><ellipse cx="490" cy="599.0924" fill="#84BE84" rx="3" ry="3" style="stroke:#038048;stroke-width:1.0;"/><text fill="#000000" font-family="sans-serif" font-size="14" lengthAdjust="spacing" textLength="261" x="499" y="602.8834">save(application: jobApplication): void</text></g><!--class jobApplication--><g id="elem_jobApplication"><rect codeLine="37" fill="#F1F1F1" height="113.9531" id="jobApplication" rx="2.5" ry="2.5" style="stroke:#181818;stroke-width:0.5;" width="418" x="677.5" y="694.57"/><ellipse cx="832.25" cy="710.57" fill="#ADD1B2" rx="11" ry="11" style="stroke:#181818;stroke-width:1.0;"/><path d="M835.2231,716.2131 Q834.6421,716.5119 834.0029,716.6613 Q833.3638,716.8107 832.6582,716.8107 Q830.1514,716.8107 828.8315,715.1589 Q827.5117,713.507 827.5117,710.3859 Q827.5117,707.2565 828.8315,705.6047 Q830.1514,703.9528 832.6582,703.9528 Q833.3638,703.9528 834.0112,704.1022 Q834.6587,704.2516 835.2231,704.5505 L835.2231,707.2731 Q834.5923,706.6921 833.9988,706.4223 Q833.4053,706.1525 832.7744,706.1525 Q831.4297,706.1525 830.7449,707.2192 Q830.0601,708.2858 830.0601,710.3859 Q830.0601,712.4777 830.7449,713.5444 Q831.4297,714.611 832.7744,714.611 Q833.4053,714.611 833.9988,714.3412 Q834.5923,714.0715 835.2231,713.4904 Z " fill="#000000"/><text fill="#000000" font-family="sans-serif" font-size="14" lengthAdjust="spacing" textLength="100" x="852.75" y="715.861">jobApplication</text><line style="stroke:#181818;stroke-width:0.5;" x1="678.5" x2="1094.5" y1="726.57" y2="726.57"/><rect fill="none" height="6" style="stroke:#C82930;stroke-width:1.0;" width="6" x="685.5" y="737.3141"/><text fill="#000000" font-family="sans-serif" font-size="14" lengthAdjust="spacing" textLength="357" x="697.5" y="744.1052">requirementAnswersPath: RequirementAnswersPath</text><line style="stroke:#181818;stroke-width:0.5;" x1="678.5" x2="1094.5" y1="751.0583" y2="751.0583"/><ellipse cx="688.5" cy="764.8024" fill="#84BE84" rx="3" ry="3" style="stroke:#038048;stroke-width:1.0;"/><text fill="#000000" font-family="sans-serif" font-size="14" lengthAdjust="spacing" textLength="392" x="697.5" y="768.5934">getRequirementAnswersPath(): RequirementAnswersPath</text><ellipse cx="688.5" cy="781.2907" fill="#84BE84" rx="3" ry="3" style="stroke:#038048;stroke-width:1.0;"/><text fill="#000000" font-family="sans-serif" font-size="14" lengthAdjust="spacing" textLength="357" x="697.5" y="785.0817">setRequirements(requirements: Requirements): void</text><ellipse cx="688.5" cy="797.779" fill="#84BE84" rx="3" ry="3" style="stroke:#038048;stroke-width:1.0;"/><text fill="#000000" font-family="sans-serif" font-size="14" lengthAdjust="spacing" textLength="85" x="697.5" y="801.57">reject(): void</text></g><!--class CostumerRequirementsLexer--><g id="elem_CostumerRequirementsLexer"><rect codeLine="44" fill="#F1F1F1" height="64.4883" id="CostumerRequirementsLexer" rx="2.5" ry="2.5" style="stroke:#181818;stroke-width:0.5;" width="403" x="1093" y="537.11"/><ellipse cx="1190.25" cy="553.11" fill="#ADD1B2" rx="11" ry="11" style="stroke:#181818;stroke-width:1.0;"/><path d="M1193.2231,558.7531 Q1192.6421,559.0519 1192.0029,559.2013 Q1191.3638,559.3507 1190.6582,559.3507 Q1188.1514,559.3507 1186.8315,557.6989 Q1185.5117,556.047 1185.5117,552.9259 Q1185.5117,549.7965 1186.8315,548.1447 Q1188.1514,546.4928 1190.6582,546.4928 Q1191.3638,546.4928 1192.0112,546.6422 Q1192.6587,546.7916 1193.2231,547.0905 L1193.2231,549.8131 Q1192.5923,549.2321 1191.9988,548.9623 Q1191.4053,548.6925 1190.7744,548.6925 Q1189.4297,548.6925 1188.7449,549.7592 Q1188.0601,550.8258 1188.0601,552.9259 Q1188.0601,555.0177 1188.7449,556.0844 Q1189.4297,557.151 1190.7744,557.151 Q1191.4053,557.151 1191.9988,556.8812 Q1192.5923,556.6115 1193.2231,556.0304 Z " fill="#000000"/><text fill="#000000" font-family="sans-serif" font-size="14" lengthAdjust="spacing" textLength="200" x="1210.75" y="558.401">CostumerRequirementsLexer</text><line style="stroke:#181818;stroke-width:0.5;" x1="1094" x2="1495" y1="569.11" y2="569.11"/><line style="stroke:#181818;stroke-width:0.5;" x1="1094" x2="1495" y1="577.11" y2="577.11"/><ellipse cx="1104" cy="590.8541" fill="#84BE84" rx="3" ry="3" style="stroke:#038048;stroke-width:1.0;"/><text fill="#000000" font-family="sans-serif" font-size="14" lengthAdjust="spacing" textLength="377" x="1113" y="594.6452">CostumerRequirementsLexer(charStream: CharStream)</text></g><!--class CostumerRequirementsParser--><g id="elem_CostumerRequirementsParser"><rect codeLine="48" fill="#F1F1F1" height="80.9766" id="CostumerRequirementsParser" rx="2.5" ry="2.5" style="stroke:#181818;stroke-width:0.5;" width="554" x="1530.5" y="528.86"/><ellipse cx="1700.75" cy="544.86" fill="#ADD1B2" rx="11" ry="11" style="stroke:#181818;stroke-width:1.0;"/><path d="M1703.7231,550.5031 Q1703.1421,550.8019 1702.5029,550.9513 Q1701.8638,551.1007 1701.1582,551.1007 Q1698.6514,551.1007 1697.3315,549.4489 Q1696.0117,547.797 1696.0117,544.6759 Q1696.0117,541.5465 1697.3315,539.8947 Q1698.6514,538.2428 1701.1582,538.2428 Q1701.8638,538.2428 1702.5112,538.3922 Q1703.1587,538.5416 1703.7231,538.8405 L1703.7231,541.5631 Q1703.0923,540.9821 1702.4988,540.7123 Q1701.9053,540.4425 1701.2744,540.4425 Q1699.9297,540.4425 1699.2449,541.5092 Q1698.5601,542.5758 1698.5601,544.6759 Q1698.5601,546.7677 1699.2449,547.8344 Q1699.9297,548.901 1701.2744,548.901 Q1701.9053,548.901 1702.4988,548.6312 Q1703.0923,548.3615 1703.7231,547.7804 Z " fill="#000000"/><text fill="#000000" font-family="sans-serif" font-size="14" lengthAdjust="spacing" textLength="205" x="1721.25" y="550.151">CostumerRequirementsParser</text><line style="stroke:#181818;stroke-width:0.5;" x1="1531.5" x2="2083.5" y1="560.86" y2="560.86"/><line style="stroke:#181818;stroke-width:0.5;" x1="1531.5" x2="2083.5" y1="568.86" y2="568.86"/><ellipse cx="1541.5" cy="582.6041" fill="#84BE84" rx="3" ry="3" style="stroke:#038048;stroke-width:1.0;"/><text fill="#000000" font-family="sans-serif" font-size="14" lengthAdjust="spacing" textLength="528" x="1550.5" y="586.3952">CostumerRequirementsParser(commonTokenStream: CommonTokenStream)</text><ellipse cx="1541.5" cy="599.0924" fill="#84BE84" rx="3" ry="3" style="stroke:#038048;stroke-width:1.0;"/><text fill="#000000" font-family="sans-serif" font-size="14" lengthAdjust="spacing" textLength="136" x="1550.5" y="602.8834">start(): StartContext</text></g><!--class RequirementsVisitor--><g id="elem_RequirementsVisitor"><rect codeLine="53" fill="#F1F1F1" height="80.9766" id="RequirementsVisitor" rx="2.5" ry="2.5" style="stroke:#181818;stroke-width:0.5;" width="352" x="2119.5" y="528.86"/><ellipse cx="2221.75" cy="544.86" fill="#ADD1B2" rx="11" ry="11" style="stroke:#181818;stroke-width:1.0;"/><path d="M2224.7231,550.5031 Q2224.1421,550.8019 2223.5029,550.9513 Q2222.8638,551.1007 2222.1582,551.1007 Q2219.6514,551.1007 2218.3315,549.4489 Q2217.0117,547.797 2217.0117,544.6759 Q2217.0117,541.5465 2218.3315,539.8947 Q2219.6514,538.2428 2222.1582,538.2428 Q2222.8638,538.2428 2223.5112,538.3922 Q2224.1587,538.5416 2224.7231,538.8405 L2224.7231,541.5631 Q2224.0923,540.9821 2223.4988,540.7123 Q2222.9053,540.4425 2222.2744,540.4425 Q2220.9297,540.4425 2220.2449,541.5092 Q2219.5601,542.5758 2219.5601,544.6759 Q2219.5601,546.7677 2220.2449,547.8344 Q2220.9297,548.901 2222.2744,548.901 Q2222.9053,548.901 2223.4988,548.6312 Q2224.0923,548.3615 2224.7231,547.7804 Z " fill="#000000"/><text fill="#000000" font-family="sans-serif" font-size="14" lengthAdjust="spacing" textLength="139" x="2242.25" y="550.151">RequirementsVisitor</text><line style="stroke:#181818;stroke-width:0.5;" x1="2120.5" x2="2470.5" y1="560.86" y2="560.86"/><line style="stroke:#181818;stroke-width:0.5;" x1="2120.5" x2="2470.5" y1="568.86" y2="568.86"/><ellipse cx="2130.5" cy="582.6041" fill="#84BE84" rx="3" ry="3" style="stroke:#038048;stroke-width:1.0;"/><text fill="#000000" font-family="sans-serif" font-size="14" lengthAdjust="spacing" textLength="255" x="2139.5" y="586.3952">visit(startContext: StartContext): void</text><ellipse cx="2130.5" cy="599.0924" fill="#84BE84" rx="3" ry="3" style="stroke:#038048;stroke-width:1.0;"/><text fill="#000000" font-family="sans-serif" font-size="14" lengthAdjust="spacing" textLength="326" x="2139.5" y="602.8834">getRequirements(): List&lt;RequirementAnswers&gt;</text></g><!--class RequirementsChecker--><g id="elem_RequirementsChecker"><rect codeLine="58" fill="#F1F1F1" height="64.4883" id="RequirementsChecker" rx="2.5" ry="2.5" style="stroke:#181818;stroke-width:0.5;" width="945" x="2507" y="537.11"/><ellipse cx="2899.75" cy="553.11" fill="#ADD1B2" rx="11" ry="11" style="stroke:#181818;stroke-width:1.0;"/><path d="M2902.7231,558.7531 Q2902.1421,559.0519 2901.5029,559.2013 Q2900.8638,559.3507 2900.1582,559.3507 Q2897.6514,559.3507 2896.3315,557.6989 Q2895.0117,556.047 2895.0117,552.9259 Q2895.0117,549.7965 2896.3315,548.1447 Q2897.6514,546.4928 2900.1582,546.4928 Q2900.8638,546.4928 2901.5112,546.6422 Q2902.1587,546.7916 2902.7231,547.0905 L2902.7231,549.8131 Q2902.0923,549.2321 2901.4988,548.9623 Q2900.9053,548.6925 2900.2744,548.6925 Q2898.9297,548.6925 2898.2449,549.7592 Q2897.5601,550.8258 2897.5601,552.9259 Q2897.5601,555.0177 2898.2449,556.0844 Q2898.9297,557.151 2900.2744,557.151 Q2900.9053,557.151 2901.4988,556.8812 Q2902.0923,556.6115 2902.7231,556.0304 Z " fill="#000000"/><text fill="#000000" font-family="sans-serif" font-size="14" lengthAdjust="spacing" textLength="151" x="2920.25" y="558.401">RequirementsChecker</text><line style="stroke:#181818;stroke-width:0.5;" x1="2508" x2="3451" y1="569.11" y2="569.11"/><line style="stroke:#181818;stroke-width:0.5;" x1="2508" x2="3451" y1="577.11" y2="577.11"/><ellipse cx="2518" cy="590.8541" fill="#84BE84" rx="3" ry="3" style="stroke:#038048;stroke-width:1.0;"/><text fill="#000000" font-family="sans-serif" font-size="14" lengthAdjust="spacing" textLength="919" x="2527" y="594.6452">checkRequirements(correctRequirements: List&lt;RequirementAnswers&gt;, candidateRequirements: List&lt;RequirementAnswers&gt;): boolean</text></g><!--class RequirementAnswers--><g id="elem_RequirementAnswers"><rect codeLine="62" fill="#F1F1F1" height="163.418" id="RequirementAnswers" rx="2.5" ry="2.5" style="stroke:#181818;stroke-width:0.5;" width="459" x="2066" y="669.84"/><ellipse cx="2218.25" cy="685.84" fill="#ADD1B2" rx="11" ry="11" style="stroke:#181818;stroke-width:1.0;"/><path d="M2221.2231,691.4831 Q2220.6421,691.7819 2220.0029,691.9313 Q2219.3638,692.0807 2218.6582,692.0807 Q2216.1514,692.0807 2214.8315,690.4289 Q2213.5117,688.777 2213.5117,685.6559 Q2213.5117,682.5265 2214.8315,680.8747 Q2216.1514,679.2228 2218.6582,679.2228 Q2219.3638,679.2228 2220.0112,679.3722 Q2220.6587,679.5216 2221.2231,679.8205 L2221.2231,682.5431 Q2220.5923,681.9621 2219.9988,681.6923 Q2219.4053,681.4225 2218.7744,681.4225 Q2217.4297,681.4225 2216.7449,682.4892 Q2216.0601,683.5558 2216.0601,685.6559 Q2216.0601,687.7477 2216.7449,688.8144 Q2217.4297,689.881 2218.7744,689.881 Q2219.4053,689.881 2219.9988,689.6112 Q2220.5923,689.3415 2221.2231,688.7604 Z " fill="#000000"/><text fill="#000000" font-family="sans-serif" font-size="14" lengthAdjust="spacing" textLength="146" x="2238.75" y="691.131">RequirementAnswers</text><line style="stroke:#181818;stroke-width:0.5;" x1="2067" x2="2524" y1="701.84" y2="701.84"/><rect fill="none" height="6" style="stroke:#C82930;stroke-width:1.0;" width="6" x="2074" y="712.5841"/><text fill="#000000" font-family="sans-serif" font-size="14" lengthAdjust="spacing" textLength="62" x="2086" y="719.3752">id: String</text><rect fill="none" height="6" style="stroke:#C82930;stroke-width:1.0;" width="6" x="2074" y="729.0724"/><text fill="#000000" font-family="sans-serif" font-size="14" lengthAdjust="spacing" textLength="101" x="2086" y="735.8634">content: String</text><rect fill="none" height="6" style="stroke:#C82930;stroke-width:1.0;" width="6" x="2074" y="745.5607"/><text fill="#000000" font-family="sans-serif" font-size="14" lengthAdjust="spacing" textLength="98" x="2086" y="752.3517">answer: String</text><line style="stroke:#181818;stroke-width:0.5;" x1="2067" x2="2524" y1="759.3048" y2="759.3048"/><ellipse cx="2077" cy="773.049" fill="#84BE84" rx="3" ry="3" style="stroke:#038048;stroke-width:1.0;"/><text fill="#000000" font-family="sans-serif" font-size="14" lengthAdjust="spacing" textLength="433" x="2086" y="776.84">RequirementAnswers(id: String, content: String, answer: String)</text><ellipse cx="2077" cy="789.5373" fill="#84BE84" rx="3" ry="3" style="stroke:#038048;stroke-width:1.0;"/><text fill="#000000" font-family="sans-serif" font-size="14" lengthAdjust="spacing" textLength="94" x="2086" y="793.3283">getId(): String</text><ellipse cx="2077" cy="806.0255" fill="#84BE84" rx="3" ry="3" style="stroke:#038048;stroke-width:1.0;"/><text fill="#000000" font-family="sans-serif" font-size="14" lengthAdjust="spacing" textLength="136" x="2086" y="809.8166">getContent(): String</text><ellipse cx="2077" cy="822.5138" fill="#84BE84" rx="3" ry="3" style="stroke:#038048;stroke-width:1.0;"/><text fill="#000000" font-family="sans-serif" font-size="14" lengthAdjust="spacing" textLength="132" x="2086" y="826.3048">getAnswer(): String</text></g><!--class JobReference--><g id="elem_JobReference"><rect codeLine="72" fill="#F1F1F1" height="48" id="JobReference" rx="2.5" ry="2.5" style="stroke:#181818;stroke-width:0.5;" width="122" x="164.5" y="727.55"/><ellipse cx="179.5" cy="743.55" fill="#ADD1B2" rx="11" ry="11" style="stroke:#181818;stroke-width:1.0;"/><path d="M182.4731,749.1931 Q181.8921,749.4919 181.2529,749.6413 Q180.6138,749.7907 179.9082,749.7907 Q177.4014,749.7907 176.0815,748.1389 Q174.7617,746.487 174.7617,743.3659 Q174.7617,740.2365 176.0815,738.5847 Q177.4014,736.9328 179.9082,736.9328 Q180.6138,736.9328 181.2612,737.0822 Q181.9087,737.2316 182.4731,737.5305 L182.4731,740.2531 Q181.8423,739.6721 181.2488,739.4023 Q180.6553,739.1325 180.0244,739.1325 Q178.6797,739.1325 177.9949,740.1992 Q177.3101,741.2658 177.3101,743.3659 Q177.3101,745.4577 177.9949,746.5244 Q178.6797,747.591 180.0244,747.591 Q180.6553,747.591 181.2488,747.3212 Q181.8423,747.0515 182.4731,746.4704 Z " fill="#000000"/><text fill="#000000" font-family="sans-serif" font-size="14" lengthAdjust="spacing" textLength="90" x="193.5" y="748.841">JobReference</text><line style="stroke:#181818;stroke-width:0.5;" x1="165.5" x2="285.5" y1="759.55" y2="759.55"/><line style="stroke:#181818;stroke-width:0.5;" x1="165.5" x2="285.5" y1="767.55" y2="767.55"/></g><!--class RequirementAnswersPath--><g id="elem_RequirementAnswersPath"><rect codeLine="75" fill="#F1F1F1" height="64.4883" id="RequirementAnswersPath" rx="2.5" ry="2.5" style="stroke:#181818;stroke-width:0.5;" width="208" x="525.5" y="893.26"/><ellipse cx="540.5" cy="909.26" fill="#ADD1B2" rx="11" ry="11" style="stroke:#181818;stroke-width:1.0;"/><path d="M543.4731,914.9031 Q542.8921,915.2019 542.2529,915.3513 Q541.6138,915.5007 540.9082,915.5007 Q538.4014,915.5007 537.0815,913.8489 Q535.7617,912.197 535.7617,909.0759 Q535.7617,905.9465 537.0815,904.2947 Q538.4014,902.6428 540.9082,902.6428 Q541.6138,902.6428 542.2612,902.7922 Q542.9087,902.9416 543.4731,903.2405 L543.4731,905.9631 Q542.8423,905.3821 542.2488,905.1123 Q541.6553,904.8425 541.0244,904.8425 Q539.6797,904.8425 538.9949,905.9092 Q538.3101,906.9758 538.3101,909.0759 Q538.3101,911.1677 538.9949,912.2344 Q539.6797,913.301 541.0244,913.301 Q541.6553,913.301 542.2488,913.0312 Q542.8423,912.7615 543.4731,912.1804 Z " fill="#000000"/><text fill="#000000" font-family="sans-serif" font-size="14" lengthAdjust="spacing" textLength="176" x="554.5" y="914.551">RequirementAnswersPath</text><line style="stroke:#181818;stroke-width:0.5;" x1="526.5" x2="732.5" y1="925.26" y2="925.26"/><line style="stroke:#181818;stroke-width:0.5;" x1="526.5" x2="732.5" y1="933.26" y2="933.26"/><ellipse cx="536.5" cy="947.0041" fill="#84BE84" rx="3" ry="3" style="stroke:#038048;stroke-width:1.0;"/><text fill="#000000" font-family="sans-serif" font-size="14" lengthAdjust="spacing" textLength="135" x="545.5" y="950.7952">getFilePath(): String</text></g><!--class Requirements--><g id="elem_Requirements"><rect codeLine="79" fill="#F1F1F1" height="64.4883" id="Requirements" rx="2.5" ry="2.5" style="stroke:#181818;stroke-width:0.5;" width="747" x="769" y="893.26"/><ellipse cx="1090.75" cy="909.26" fill="#ADD1B2" rx="11" ry="11" style="stroke:#181818;stroke-width:1.0;"/><path d="M1093.7231,914.9031 Q1093.1421,915.2019 1092.5029,915.3513 Q1091.8638,915.5007 1091.1582,915.5007 Q1088.6514,915.5007 1087.3315,913.8489 Q1086.0117,912.197 1086.0117,909.0759 Q1086.0117,905.9465 1087.3315,904.2947 Q1088.6514,902.6428 1091.1582,902.6428 Q1091.8638,902.6428 1092.5112,902.7922 Q1093.1587,902.9416 1093.7231,903.2405 L1093.7231,905.9631 Q1093.0923,905.3821 1092.4988,905.1123 Q1091.9053,904.8425 1091.2744,904.8425 Q1089.9297,904.8425 1089.2449,905.9092 Q1088.5601,906.9758 1088.5601,909.0759 Q1088.5601,911.1677 1089.2449,912.2344 Q1089.9297,913.301 1091.2744,913.301 Q1091.9053,913.301 1092.4988,913.0312 Q1093.0923,912.7615 1093.7231,912.1804 Z " fill="#000000"/><text fill="#000000" font-family="sans-serif" font-size="14" lengthAdjust="spacing" textLength="95" x="1111.25" y="914.551">Requirements</text><line style="stroke:#181818;stroke-width:0.5;" x1="770" x2="1515" y1="925.26" y2="925.26"/><line style="stroke:#181818;stroke-width:0.5;" x1="770" x2="1515" y1="933.26" y2="933.26"/><ellipse cx="780" cy="947.0041" fill="#84BE84" rx="3" ry="3" style="stroke:#038048;stroke-width:1.0;"/><text fill="#000000" font-family="sans-serif" font-size="14" lengthAdjust="spacing" textLength="721" x="789" y="950.7952">static valueOf(evaluation: RequirementsEvaluation, justification: RequirementsJustification): Requirements</text></g><!--class RequirementsEvaluation--><g id="elem_RequirementsEvaluation"><rect codeLine="83" fill="#F1F1F1" height="97.4648" id="RequirementsEvaluation" rx="2.5" ry="2.5" style="stroke:#181818;stroke-width:0.5;" width="198" x="866.5" y="1017.75"/><ellipse cx="881.5" cy="1033.75" fill="#ADD1B2" rx="11" ry="11" style="stroke:#181818;stroke-width:1.0;"/><path d="M884.4731,1039.3931 Q883.8921,1039.6919 883.2529,1039.8413 Q882.6138,1039.9907 881.9082,1039.9907 Q879.4014,1039.9907 878.0815,1038.3389 Q876.7617,1036.687 876.7617,1033.5659 Q876.7617,1030.4365 878.0815,1028.7847 Q879.4014,1027.1328 881.9082,1027.1328 Q882.6138,1027.1328 883.2612,1027.2822 Q883.9087,1027.4316 884.4731,1027.7305 L884.4731,1030.4531 Q883.8423,1029.8721 883.2488,1029.6023 Q882.6553,1029.3325 882.0244,1029.3325 Q880.6797,1029.3325 879.9949,1030.3992 Q879.3101,1031.4658 879.3101,1033.5659 Q879.3101,1035.6577 879.9949,1036.7244 Q880.6797,1037.791 882.0244,1037.791 Q882.6553,1037.791 883.2488,1037.5212 Q883.8423,1037.2515 884.4731,1036.6704 Z " fill="#000000"/><text fill="#000000" font-family="sans-serif" font-size="14" lengthAdjust="spacing" textLength="166" x="895.5" y="1039.041">RequirementsEvaluation</text><line style="stroke:#181818;stroke-width:0.5;" x1="867.5" x2="1063.5" y1="1049.75" y2="1049.75"/><text fill="#000000" font-family="sans-serif" font-size="14" lengthAdjust="spacing" textLength="102" x="872.5" y="1067.2852">&#171;enumeration&#187;</text><text fill="#000000" font-family="sans-serif" font-size="14" lengthAdjust="spacing" textLength="73" x="872.5" y="1083.7734">ACCEPTED</text><text fill="#000000" font-family="sans-serif" font-size="14" lengthAdjust="spacing" textLength="66" x="872.5" y="1100.2617">REJECTED</text><line style="stroke:#181818;stroke-width:0.5;" x1="867.5" x2="1063.5" y1="1107.2148" y2="1107.2148"/></g><!--class RequirementsJustification--><g id="elem_RequirementsJustification"><rect codeLine="89" fill="#F1F1F1" height="64.4883" id="RequirementsJustification" rx="2.5" ry="2.5" style="stroke:#181818;stroke-width:0.5;" width="440" x="1099.5" y="1034.23"/><ellipse cx="1227.75" cy="1050.23" fill="#ADD1B2" rx="11" ry="11" style="stroke:#181818;stroke-width:1.0;"/><path d="M1230.7231,1055.8731 Q1230.1421,1056.1719 1229.5029,1056.3213 Q1228.8638,1056.4707 1228.1582,1056.4707 Q1225.6514,1056.4707 1224.3315,1054.8189 Q1223.0117,1053.167 1223.0117,1050.0459 Q1223.0117,1046.9165 1224.3315,1045.2647 Q1225.6514,1043.6128 1228.1582,1043.6128 Q1228.8638,1043.6128 1229.5112,1043.7622 Q1230.1587,1043.9116 1230.7231,1044.2105 L1230.7231,1046.9331 Q1230.0923,1046.3521 1229.4988,1046.0823 Q1228.9053,1045.8125 1228.2744,1045.8125 Q1226.9297,1045.8125 1226.2449,1046.8792 Q1225.5601,1047.9458 1225.5601,1050.0459 Q1225.5601,1052.1377 1226.2449,1053.2044 Q1226.9297,1054.271 1228.2744,1054.271 Q1228.9053,1054.271 1229.4988,1054.0012 Q1230.0923,1053.7315 1230.7231,1053.1504 Z " fill="#000000"/><text fill="#000000" font-family="sans-serif" font-size="14" lengthAdjust="spacing" textLength="175" x="1248.25" y="1055.521">RequirementsJustification</text><line style="stroke:#181818;stroke-width:0.5;" x1="1100.5" x2="1538.5" y1="1066.23" y2="1066.23"/><line style="stroke:#181818;stroke-width:0.5;" x1="1100.5" x2="1538.5" y1="1074.23" y2="1074.23"/><ellipse cx="1110.5" cy="1087.9741" fill="#84BE84" rx="3" ry="3" style="stroke:#038048;stroke-width:1.0;"/><text fill="#000000" font-family="sans-serif" font-size="14" lengthAdjust="spacing" textLength="414" x="1119.5" y="1091.7652">static valueOf(justification: String): RequirementsJustification</text></g><!--link CustomerManager to VerifyRequirementsUI--><g id="link_CustomerManager_VerifyRequirementsUI"><path codeLine="93" d="M760.5,55.26 C760.5,71.49 760.5,87.87 760.5,108.63 " fill="none" id="CustomerManager-to-VerifyRequirementsUI" style="stroke:#181818;stroke-width:1.0;"/><polygon fill="#181818" points="760.5,114.63,764.5,105.63,760.5,109.63,756.5,105.63,760.5,114.63" style="stroke:#181818;stroke-width:1.0;"/></g><!--link VerifyRequirementsUI to ListJobOpeningsController--><g id="link_VerifyRequirementsUI_ListJobOpeningsController"><path codeLine="94" d="M670.71,229.25 C610.59,266.93 538.724,311.9637 489.054,343.0937 " fill="none" id="VerifyRequirementsUI-to-ListJobOpeningsController" style="stroke:#181818;stroke-width:1.0;"/><polygon fill="#181818" points="483.97,346.28,493.7203,344.8898,488.2067,343.6247,489.4718,338.1111,483.97,346.28" style="stroke:#181818;stroke-width:1.0;"/></g><!--link VerifyRequirementsUI to VerifyRequirementsController--><g id="link_VerifyRequirementsUI_VerifyRequirementsController"><path codeLine="95" d="M872.52,229.38 C908.88,247.69 944.791,265.7717 984.711,285.8717 " fill="none" id="VerifyRequirementsUI-to-VerifyRequirementsController" style="stroke:#181818;stroke-width:1.0;"/><polygon fill="#181818" points="990.07,288.57,983.8303,280.9499,985.6041,286.3214,980.2326,288.0952,990.07,288.57" style="stroke:#181818;stroke-width:1.0;"/></g><!--link ListJobOpeningsController to JobOpeningRepository--><g id="link_ListJobOpeningsController_JobOpeningRepository"><path codeLine="96" d="M398.69,411.45 C363.18,443.62 312.4371,489.5921 273.9271,524.4721 " fill="none" id="ListJobOpeningsController-to-JobOpeningRepository" style="stroke:#181818;stroke-width:1.0;"/><polygon fill="#181818" points="269.48,528.5,278.8358,525.4229,273.1859,525.1434,273.4653,519.4935,269.48,528.5" style="stroke:#181818;stroke-width:1.0;"/></g><!--link VerifyRequirementsController to JobOpeningRepository--><g id="link_VerifyRequirementsController_JobOpeningRepository"><path codeLine="97" d="M720.64,469.3 C617.06,490.02 517.8033,509.8725 431.2133,527.2025 " fill="none" id="VerifyRequirementsController-to-JobOpeningRepository" style="stroke:#181818;stroke-width:1.0;"/><polygon fill="#181818" points="425.33,528.38,434.94,530.536,430.2328,527.3988,433.37,522.6916,425.33,528.38" style="stroke:#181818;stroke-width:1.0;"/></g><!--link VerifyRequirementsController to ApplicationRepository--><g id="link_VerifyRequirementsController_ApplicationRepository"><path codeLine="98" d="M961.62,469.3 C913.9,490.02 870.9631,508.6592 831.0731,525.9892 " fill="none" id="VerifyRequirementsController-to-ApplicationRepository" style="stroke:#181818;stroke-width:1.0;"/><polygon fill="#181818" points="825.57,528.38,835.4185,528.4625,830.1559,526.3877,832.2308,521.1251,825.57,528.38" style="stroke:#181818;stroke-width:1.0;"/></g><!--link VerifyRequirementsController to CostumerRequirementsLexer--><g id="link_VerifyRequirementsController_CostumerRequirementsLexer"><path codeLine="99" d="M1227.65,469.16 C1244.07,493.52 1257.4267,513.3345 1270.0367,532.0445 " fill="none" id="VerifyRequirementsController-to-CostumerRequirementsLexer" style="stroke:#181818;stroke-width:1.0;"/><polygon fill="#181818" points="1273.39,537.02,1271.677,527.3213,1270.5956,532.8738,1265.043,531.7923,1273.39,537.02" style="stroke:#181818;stroke-width:1.0;"/></g><!--link VerifyRequirementsController to CostumerRequirementsParser--><g id="link_VerifyRequirementsController_CostumerRequirementsParser"><path codeLine="100" d="M1471.1,469.3 C1541.47,490.02 1607.1445,509.3546 1665.9745,526.6846 " fill="none" id="VerifyRequirementsController-to-CostumerRequirementsParser" style="stroke:#181818;stroke-width:1.0;"/><polygon fill="#181818" points="1671.73,528.38,1664.2271,521.9999,1666.9338,526.9671,1661.9665,529.6738,1671.73,528.38" style="stroke:#181818;stroke-width:1.0;"/></g><!--link VerifyRequirementsController to RequirementsVisitor--><g id="link_VerifyRequirementsController_RequirementsVisitor"><path codeLine="101" d="M1640.32,451.3 C1788.22,474.71 1951.85,501.71 2101.5,528.86 C2107.33,529.92 2107.3622,529.9172 2113.3522,531.0372 " fill="none" id="VerifyRequirementsController-to-RequirementsVisitor" style="stroke:#181818;stroke-width:1.0;"/><polygon fill="#181818" points="2119.25,532.14,2111.1385,526.554,2114.3352,531.221,2109.6681,534.4177,2119.25,532.14" style="stroke:#181818;stroke-width:1.0;"/></g><!--link VerifyRequirementsController to RequirementsChecker--><g id="link_VerifyRequirementsController_RequirementsChecker"><path codeLine="102" d="M1640.33,429.08 C1966.97,463.05 2385.8822,506.6195 2668.5522,536.0095 " fill="none" id="VerifyRequirementsController-to-RequirementsChecker" style="stroke:#181818;stroke-width:1.0;"/><polygon fill="#181818" points="2674.52,536.63,2665.9819,531.7207,2669.5468,536.1129,2665.1546,539.6778,2674.52,536.63" style="stroke:#181818;stroke-width:1.0;"/></g><!--link VerifyRequirementsController to jobApplication--><g id="link_VerifyRequirementsController_jobApplication"><path codeLine="103" d="M1107.36,469.12 C1077.59,512.27 1040.58,564.44 1005.5,609.84 C983.49,638.32 961.7636,664.3921 939.9236,689.7721 " fill="none" id="VerifyRequirementsController-to-jobApplication" style="stroke:#181818;stroke-width:1.0;"/><polygon fill="#181818" points="936.01,694.32,944.9124,690.1072,939.2713,690.53,938.8484,684.889,936.01,694.32" style="stroke:#181818;stroke-width:1.0;"/></g><!--link JobOpeningRepository to JobReference--><g id="link_JobOpeningRepository_JobReference"><path codeLine="104" d="M225.5,609.9 C225.5,645.74 225.5,691.37 225.5,721.08 " fill="none" id="JobOpeningRepository-to-JobReference" style="stroke:#181818;stroke-width:1.0;"/><polygon fill="#181818" points="225.5,727.08,229.5,718.08,225.5,722.08,221.5,718.08,225.5,727.08" style="stroke:#181818;stroke-width:1.0;"/></g><!--link ApplicationRepository to jobApplication--><g id="link_ApplicationRepository_jobApplication"><path codeLine="105" d="M767.08,609.9 C788.1,634.66 811.637,662.3759 834.897,689.7759 " fill="none" id="ApplicationRepository-to-jobApplication" style="stroke:#181818;stroke-width:1.0;"/><polygon fill="#181818" points="838.78,694.35,836.0049,684.9002,835.5442,690.5382,829.9061,690.0775,838.78,694.35" style="stroke:#181818;stroke-width:1.0;"/></g><!--link jobApplication to RequirementAnswersPath--><g id="link_jobApplication_RequirementAnswersPath"><path codeLine="106" d="M802.35,808.85 C760.63,836.77 716.787,866.1039 681.687,889.5839 " fill="none" id="jobApplication-to-RequirementAnswersPath" style="stroke:#181818;stroke-width:1.0;"/><polygon fill="#181818" points="676.7,892.92,686.4046,891.2406,680.8559,890.1399,681.9565,884.5912,676.7,892.92" style="stroke:#181818;stroke-width:1.0;"/></g><!--link jobApplication to Requirements--><g id="link_jobApplication_Requirements"><path codeLine="107" d="M970.32,808.85 C1011.88,836.77 1055.5387,866.0954 1090.5087,889.5754 " fill="none" id="jobApplication-to-Requirements" style="stroke:#181818;stroke-width:1.0;"/><polygon fill="#181818" points="1095.49,892.92,1090.2478,884.5822,1091.3389,890.1328,1085.7883,891.2239,1095.49,892.92" style="stroke:#181818;stroke-width:1.0;"/></g><!--link Requirements to RequirementsEvaluation--><g id="link_Requirements_RequirementsEvaluation"><path codeLine="108" d="M1102.34,958.04 C1080,975.58 1056.4601,994.0659 1031.4201,1013.7159 " fill="none" id="Requirements-to-RequirementsEvaluation" style="stroke:#181818;stroke-width:1.0;"/><polygon fill="#181818" points="1026.7,1017.42,1036.2496,1015.0106,1030.6334,1014.3333,1031.3108,1008.7171,1026.7,1017.42" style="stroke:#181818;stroke-width:1.0;"/></g><!--link Requirements to RequirementsJustification--><g id="link_Requirements_RequirementsJustification"><path codeLine="109" d="M1182.66,958.04 C1211.53,980.7 1245.5707,1007.4348 1274.4707,1030.1248 " fill="none" id="Requirements-to-RequirementsJustification" style="stroke:#181818;stroke-width:1.0;"/><polygon fill="#181818" points="1279.19,1033.83,1274.5812,1025.126,1275.2573,1030.7423,1269.641,1031.4184,1279.19,1033.83" style="stroke:#181818;stroke-width:1.0;"/></g><!--link RequirementsVisitor to RequirementAnswers--><g id="link_RequirementsVisitor_RequirementAnswers"><path codeLine="110" d="M2295.5,609.9 C2295.5,627.51 2295.5,642.93 2295.5,663.69 " fill="none" id="RequirementsVisitor-to-RequirementAnswers" style="stroke:#181818;stroke-width:1.0;"/><polygon fill="#181818" points="2295.5,669.69,2299.5,660.69,2295.5,664.69,2291.5,660.69,2295.5,669.69" style="stroke:#181818;stroke-width:1.0;"/></g><!--SRC=[nLRRRk8m47tFL_WngF03g49YirGgwgg8Tllk9aCn3JPh6rgqsdzVEnV7JYQXxJvidXBRvymbCyUJvbGfaXoL5dkGFoYdBo39x-XF5AN5rXD8jZcluTUHITW3r-hdhTadvfcGd2cz5C_t1-2ClwX4S2r5deESahk-hGggj-0Vxvff8Qv89XwsuYqUJScp43bGNgrlWMOvus1t7hGqrXhlUxseGhWYDC_DWJLiG09FGLaMYxhsLsT3-UYGJiZEcLp3GIYcXJnFoH9PhG3qSCXPIZKJt4VCiUNAyHVGdXStB8SLrTjuvxbTc7HVJNeSWSUlXf55Iim93p5hU1BACvPH3ShvuKMaS7ZDMZerGyDIDrBi7UUcUga3gHaym9ohDv2gPaktaBxwV74gf8GqiD7FCYPf7Td709tYLFG4YnFDZqNCZs8PvC3FqfI4-HcJWwato4B35RknSn8iQyeIgorNu_zSAXl6i_ad6mMjNUUIPVnszg5VhZ-Rug54Td8LRhkcbPtVMTRQ6br7K-ljs_GC8bLOwB4C_hE_LGTGuYJiJFt6dQWIeVJHQBYFl8DtJ-fwJyJfbahpmu7kfoHnxwDXyXMLwW9xUSJqt7vlY_yLkBFINXhLQT5KwbBApOlLLdZNZIC- -nChYifvSBBViV9m8KkOnvRGn4DYWffFhBPu2VYFMeFvLnrpvSsoeAad9BLPuRgrIWjOg_-xj753DsupZLiaeoRZjrcCN4D9YSUsIdFOrUuBX3-mu4tdQw4JG8JLJxt3c9BIB2LMnk5-4uFJyx1F6vqVavsPgDZ6AP9_REblXIgXS4SQuigbwslWjjTA7Io5S9uaYzNZudlniLui5udzGFa23_gYR4NWRjnU8ckhFKXE9ZDqWepGiTAUxfyRUo63isF_16YXw4WsEE9z7OKFSnTXlQhzDMWfoPUnYD1-3bJ9usLGU1r7w2HJPTqrV8HF5mXTwx9lUUbVoyCdLHH8GtktQT7XSs77OBSPxc7q5m00]--></g></svg>