<?xml version="1.0" encoding="us-ascii" standalone="no"?><svg xmlns="http://www.w3.org/2000/svg" xmlns:xlink="http://www.w3.org/1999/xlink" contentStyleType="text/css" height="1252px" preserveAspectRatio="none" style="width:2385px;height:1252px;background:#FFFFFF;" version="1.1" viewBox="0 0 2385 1252" width="2385px" zoomAndPan="magnify"><defs/><g><rect fill="#FFFFFF" height="1040.8691" style="stroke:#181818;stroke-width:1.0;" width="10" x="371.5" y="112.7988"/><rect fill="#FFFFFF" height="87.9316" style="stroke:#181818;stroke-width:1.0;" width="10" x="817.5" y="317.9727"/><rect fill="#FFFFFF" height="87.9316" style="stroke:#181818;stroke-width:1.0;" width="10" x="817.5" y="435.2148"/><rect fill="#FFFFFF" height="64.6211" style="stroke:#181818;stroke-width:1.0;" width="10" x="817.5" y="552.457"/><rect fill="#FFFFFF" height="234.4844" style="stroke:#181818;stroke-width:1.0;" width="10" x="817.5" y="707.0098"/><rect fill="#FFFFFF" height="58.6211" style="stroke:#181818;stroke-width:1.0;" width="10" x="817.5" y="970.8047"/><rect fill="#FFFFFF" height="58.6211" style="stroke:#181818;stroke-width:1.0;" width="10" x="817.5" y="1058.7363"/><rect fill="#FFFFFF" height="87.9316" style="stroke:#181818;stroke-width:1.0;" width="10" x="1050.5" y="142.1094"/><rect fill="#FFFFFF" height="29.3105" style="stroke:#181818;stroke-width:1.0;" width="10" x="1234" y="171.4199"/><rect fill="#FFFFFF" height="29.3105" style="stroke:#181818;stroke-width:1.0;" width="10" x="1234" y="347.2832"/><rect fill="#FFFFFF" height="29.3105" style="stroke:#181818;stroke-width:1.0;" width="10" x="1402.5" y="464.5254"/><rect fill="#FFFFFF" height="29.3105" style="stroke:#181818;stroke-width:1.0;" width="10" x="1710" y="736.3203"/><rect fill="#FFFFFF" height="29.3105" style="stroke:#181818;stroke-width:1.0;" width="10" x="1928.5" y="794.9414"/><rect fill="#FFFFFF" height="58.6211" style="stroke:#181818;stroke-width:1.0;" width="10" x="1928.5" y="853.5625"/><rect fill="#FFFFFF" height="29.3105" style="stroke:#181818;stroke-width:1.0;" width="10" x="2116.5" y="882.873"/><rect fill="none" height="456.9688" style="stroke:#000000;stroke-width:1.5;" width="2089.5" x="289.5" y="668.3887"/><line style="stroke:#181818;stroke-width:0.5;stroke-dasharray:5.0,5.0;" x1="71" x2="71" y1="81.4883" y2="1171.668"/><line style="stroke:#181818;stroke-width:0.5;stroke-dasharray:5.0,5.0;" x1="376.5" x2="376.5" y1="81.4883" y2="1171.668"/><line style="stroke:#181818;stroke-width:0.5;stroke-dasharray:5.0,5.0;" x1="822.5" x2="822.5" y1="81.4883" y2="1171.668"/><line style="stroke:#181818;stroke-width:0.5;stroke-dasharray:5.0,5.0;" x1="1055" x2="1055" y1="81.4883" y2="1171.668"/><line style="stroke:#181818;stroke-width:0.5;stroke-dasharray:5.0,5.0;" x1="1239" x2="1239" y1="81.4883" y2="1171.668"/><line style="stroke:#181818;stroke-width:0.5;stroke-dasharray:5.0,5.0;" x1="1407" x2="1407" y1="81.4883" y2="1171.668"/><line style="stroke:#181818;stroke-width:0.5;stroke-dasharray:5.0,5.0;" x1="1549" x2="1549" y1="81.4883" y2="1171.668"/><line style="stroke:#181818;stroke-width:0.5;stroke-dasharray:5.0,5.0;" x1="1715" x2="1715" y1="81.4883" y2="1171.668"/><line style="stroke:#181818;stroke-width:0.5;stroke-dasharray:5.0,5.0;" x1="1933" x2="1933" y1="81.4883" y2="1171.668"/><line style="stroke:#181818;stroke-width:0.5;stroke-dasharray:5.0,5.0;" x1="2121" x2="2121" y1="81.4883" y2="1171.668"/><line style="stroke:#181818;stroke-width:0.5;stroke-dasharray:5.0,5.0;" x1="2286" x2="2286" y1="81.4883" y2="1171.668"/><text fill="#000000" font-family="sans-serif" font-size="14" lengthAdjust="spacing" textLength="127" x="5" y="78.5352">CustomerManager</text><ellipse cx="71.5" cy="13.5" fill="#E2E2F0" rx="8" ry="8" style="stroke:#181818;stroke-width:0.5;"/><path d="M71.5,21.5 L71.5,48.5 M58.5,29.5 L84.5,29.5 M71.5,48.5 L58.5,63.5 M71.5,48.5 L84.5,63.5 " fill="none" style="stroke:#181818;stroke-width:0.5;"/><text fill="#000000" font-family="sans-serif" font-size="14" lengthAdjust="spacing" textLength="127" x="5" y="1184.2031">CustomerManager</text><ellipse cx="71.5" cy="1195.6563" fill="#E2E2F0" rx="8" ry="8" style="stroke:#181818;stroke-width:0.5;"/><path d="M71.5,1203.6563 L71.5,1230.6563 M58.5,1211.6563 L84.5,1211.6563 M71.5,1230.6563 L58.5,1245.6563 M71.5,1230.6563 L84.5,1245.6563 " fill="none" style="stroke:#181818;stroke-width:0.5;"/><text fill="#000000" font-family="sans-serif" font-size="14" lengthAdjust="spacing" textLength="148" x="299.5" y="78.5352">VerifyRequirementsUI</text><path d="M356,37 L356,61 M356,49 L373,49 " fill="none" style="stroke:#181818;stroke-width:0.5;"/><ellipse cx="385" cy="49" fill="#E2E2F0" rx="12" ry="12" style="stroke:#181818;stroke-width:0.5;"/><text fill="#000000" font-family="sans-serif" font-size="14" lengthAdjust="spacing" textLength="148" x="299.5" y="1184.2031">VerifyRequirementsUI</text><path d="M356,1191.1563 L356,1215.1563 M356,1203.1563 L373,1203.1563 " fill="none" style="stroke:#181818;stroke-width:0.5;"/><ellipse cx="385" cy="1203.1563" fill="#E2E2F0" rx="12" ry="12" style="stroke:#181818;stroke-width:0.5;"/><text fill="#000000" font-family="sans-serif" font-size="14" lengthAdjust="spacing" textLength="204" x="717.5" y="78.5352">VerifyRequirementsController</text><ellipse cx="822.5" cy="49" fill="#E2E2F0" rx="12" ry="12" style="stroke:#181818;stroke-width:0.5;"/><polygon fill="#181818" points="818.5,37,824.5,32,822.5,37,824.5,42,818.5,37" style="stroke:#181818;stroke-width:1.0;"/><text fill="#000000" font-family="sans-serif" font-size="14" lengthAdjust="spacing" textLength="204" x="717.5" y="1184.2031">VerifyRequirementsController</text><ellipse cx="822.5" cy="1203.1563" fill="#E2E2F0" rx="12" ry="12" style="stroke:#181818;stroke-width:0.5;"/><polygon fill="#181818" points="818.5,1191.1563,824.5,1186.1563,822.5,1191.1563,824.5,1196.1563,818.5,1191.1563" style="stroke:#181818;stroke-width:1.0;"/><text fill="#000000" font-family="sans-serif" font-size="14" lengthAdjust="spacing" textLength="181" x="962" y="78.5352">ListJobOpeningsController</text><ellipse cx="1055.5" cy="49" fill="#E2E2F0" rx="12" ry="12" style="stroke:#181818;stroke-width:0.5;"/><polygon fill="#181818" points="1051.5,37,1057.5,32,1055.5,37,1057.5,42,1051.5,37" style="stroke:#181818;stroke-width:1.0;"/><text fill="#000000" font-family="sans-serif" font-size="14" lengthAdjust="spacing" textLength="181" x="962" y="1184.2031">ListJobOpeningsController</text><ellipse cx="1055.5" cy="1203.1563" fill="#E2E2F0" rx="12" ry="12" style="stroke:#181818;stroke-width:0.5;"/><polygon fill="#181818" points="1051.5,1191.1563,1057.5,1186.1563,1055.5,1191.1563,1057.5,1196.1563,1051.5,1191.1563" style="stroke:#181818;stroke-width:1.0;"/><text fill="#000000" font-family="sans-serif" font-size="14" lengthAdjust="spacing" textLength="154" x="1159" y="78.5352">JobOpeningRepository</text><ellipse cx="1239" cy="49" fill="#E2E2F0" rx="12" ry="12" style="stroke:#181818;stroke-width:0.5;"/><line style="stroke:#181818;stroke-width:0.5;" x1="1227" x2="1251" y1="63" y2="63"/><text fill="#000000" font-family="sans-serif" font-size="14" lengthAdjust="spacing" textLength="154" x="1159" y="1184.2031">JobOpeningRepository</text><ellipse cx="1239" cy="1203.1563" fill="#E2E2F0" rx="12" ry="12" style="stroke:#181818;stroke-width:0.5;"/><line style="stroke:#181818;stroke-width:0.5;" x1="1227" x2="1251" y1="1217.1563" y2="1217.1563"/><text fill="#000000" font-family="sans-serif" font-size="14" lengthAdjust="spacing" textLength="151" x="1329" y="78.5352">ApplicationRepository</text><ellipse cx="1407.5" cy="49" fill="#E2E2F0" rx="12" ry="12" style="stroke:#181818;stroke-width:0.5;"/><line style="stroke:#181818;stroke-width:0.5;" x1="1395.5" x2="1419.5" y1="63" y2="63"/><text fill="#000000" font-family="sans-serif" font-size="14" lengthAdjust="spacing" textLength="151" x="1329" y="1184.2031">ApplicationRepository</text><ellipse cx="1407.5" cy="1203.1563" fill="#E2E2F0" rx="12" ry="12" style="stroke:#181818;stroke-width:0.5;"/><line style="stroke:#181818;stroke-width:0.5;" x1="1395.5" x2="1419.5" y1="1217.1563" y2="1217.1563"/><text fill="#000000" font-family="sans-serif" font-size="14" lengthAdjust="spacing" textLength="100" x="1496" y="78.5352">jobApplication</text><ellipse cx="1549" cy="49" fill="#E2E2F0" rx="12" ry="12" style="stroke:#181818;stroke-width:0.5;"/><line style="stroke:#181818;stroke-width:0.5;" x1="1537" x2="1561" y1="63" y2="63"/><text fill="#000000" font-family="sans-serif" font-size="14" lengthAdjust="spacing" textLength="100" x="1496" y="1184.2031">jobApplication</text><ellipse cx="1549" cy="1203.1563" fill="#E2E2F0" rx="12" ry="12" style="stroke:#181818;stroke-width:0.5;"/><line style="stroke:#181818;stroke-width:0.5;" x1="1537" x2="1561" y1="1217.1563" y2="1217.1563"/><text fill="#000000" font-family="sans-serif" font-size="14" lengthAdjust="spacing" textLength="200" x="1612" y="78.5352">CostumerRequirementsLexer</text><ellipse cx="1715" cy="49" fill="#E2E2F0" rx="12" ry="12" style="stroke:#181818;stroke-width:0.5;"/><line style="stroke:#181818;stroke-width:0.5;" x1="1703" x2="1727" y1="63" y2="63"/><text fill="#000000" font-family="sans-serif" font-size="14" lengthAdjust="spacing" textLength="200" x="1612" y="1184.2031">CostumerRequirementsLexer</text><ellipse cx="1715" cy="1203.1563" fill="#E2E2F0" rx="12" ry="12" style="stroke:#181818;stroke-width:0.5;"/><line style="stroke:#181818;stroke-width:0.5;" x1="1703" x2="1727" y1="1217.1563" y2="1217.1563"/><text fill="#000000" font-family="sans-serif" font-size="14" lengthAdjust="spacing" textLength="205" x="1828" y="78.5352">CostumerRequirementsParser</text><ellipse cx="1933.5" cy="49" fill="#E2E2F0" rx="12" ry="12" style="stroke:#181818;stroke-width:0.5;"/><line style="stroke:#181818;stroke-width:0.5;" x1="1921.5" x2="1945.5" y1="63" y2="63"/><text fill="#000000" font-family="sans-serif" font-size="14" lengthAdjust="spacing" textLength="205" x="1828" y="1184.2031">CostumerRequirementsParser</text><ellipse cx="1933.5" cy="1203.1563" fill="#E2E2F0" rx="12" ry="12" style="stroke:#181818;stroke-width:0.5;"/><line style="stroke:#181818;stroke-width:0.5;" x1="1921.5" x2="1945.5" y1="1217.1563" y2="1217.1563"/><text fill="#000000" font-family="sans-serif" font-size="14" lengthAdjust="spacing" textLength="139" x="2049" y="78.5352">RequirementsVisitor</text><ellipse cx="2121.5" cy="49" fill="#E2E2F0" rx="12" ry="12" style="stroke:#181818;stroke-width:0.5;"/><line style="stroke:#181818;stroke-width:0.5;" x1="2109.5" x2="2133.5" y1="63" y2="63"/><text fill="#000000" font-family="sans-serif" font-size="14" lengthAdjust="spacing" textLength="139" x="2049" y="1184.2031">RequirementsVisitor</text><ellipse cx="2121.5" cy="1203.1563" fill="#E2E2F0" rx="12" ry="12" style="stroke:#181818;stroke-width:0.5;"/><line style="stroke:#181818;stroke-width:0.5;" x1="2109.5" x2="2133.5" y1="1217.1563" y2="1217.1563"/><rect fill="#E2E2F0" height="30.4883" rx="2.5" ry="2.5" style="stroke:#181818;stroke-width:0.5;" width="165" x="2204" y="50"/><text fill="#000000" font-family="sans-serif" font-size="14" lengthAdjust="spacing" textLength="151" x="2211" y="70.5352">RequirementsChecker</text><rect fill="#E2E2F0" height="30.4883" rx="2.5" ry="2.5" style="stroke:#181818;stroke-width:0.5;" width="165" x="2204" y="1170.668"/><text fill="#000000" font-family="sans-serif" font-size="14" lengthAdjust="spacing" textLength="151" x="2211" y="1191.2031">RequirementsChecker</text><rect fill="#FFFFFF" height="1040.8691" style="stroke:#181818;stroke-width:1.0;" width="10" x="371.5" y="112.7988"/><rect fill="#FFFFFF" height="87.9316" style="stroke:#181818;stroke-width:1.0;" width="10" x="817.5" y="317.9727"/><rect fill="#FFFFFF" height="87.9316" style="stroke:#181818;stroke-width:1.0;" width="10" x="817.5" y="435.2148"/><rect fill="#FFFFFF" height="64.6211" style="stroke:#181818;stroke-width:1.0;" width="10" x="817.5" y="552.457"/><rect fill="#FFFFFF" height="234.4844" style="stroke:#181818;stroke-width:1.0;" width="10" x="817.5" y="707.0098"/><rect fill="#FFFFFF" height="58.6211" style="stroke:#181818;stroke-width:1.0;" width="10" x="817.5" y="970.8047"/><rect fill="#FFFFFF" height="58.6211" style="stroke:#181818;stroke-width:1.0;" width="10" x="817.5" y="1058.7363"/><rect fill="#FFFFFF" height="87.9316" style="stroke:#181818;stroke-width:1.0;" width="10" x="1050.5" y="142.1094"/><rect fill="#FFFFFF" height="29.3105" style="stroke:#181818;stroke-width:1.0;" width="10" x="1234" y="171.4199"/><rect fill="#FFFFFF" height="29.3105" style="stroke:#181818;stroke-width:1.0;" width="10" x="1234" y="347.2832"/><rect fill="#FFFFFF" height="29.3105" style="stroke:#181818;stroke-width:1.0;" width="10" x="1402.5" y="464.5254"/><rect fill="#FFFFFF" height="29.3105" style="stroke:#181818;stroke-width:1.0;" width="10" x="1710" y="736.3203"/><rect fill="#FFFFFF" height="29.3105" style="stroke:#181818;stroke-width:1.0;" width="10" x="1928.5" y="794.9414"/><rect fill="#FFFFFF" height="58.6211" style="stroke:#181818;stroke-width:1.0;" width="10" x="1928.5" y="853.5625"/><rect fill="#FFFFFF" height="29.3105" style="stroke:#181818;stroke-width:1.0;" width="10" x="2116.5" y="882.873"/><polygon fill="#181818" points="359.5,108.7988,369.5,112.7988,359.5,116.7988,363.5,112.7988" style="stroke:#181818;stroke-width:1.0;"/><line style="stroke:#181818;stroke-width:1.0;" x1="71.5" x2="365.5" y1="112.7988" y2="112.7988"/><text fill="#000000" font-family="sans-serif" font-size="13" lengthAdjust="spacing" textLength="57" x="78.5" y="108.0566">doShow()</text><polygon fill="#181818" points="1038.5,138.1094,1048.5,142.1094,1038.5,146.1094,1042.5,142.1094" style="stroke:#181818;stroke-width:1.0;"/><line style="stroke:#181818;stroke-width:1.0;" x1="381.5" x2="1044.5" y1="142.1094" y2="142.1094"/><text fill="#000000" font-family="sans-serif" font-size="13" lengthAdjust="spacing" textLength="111" x="388.5" y="137.3672">allJobReferences()</text><polygon fill="#181818" points="1222,167.4199,1232,171.4199,1222,175.4199,1226,171.4199" style="stroke:#181818;stroke-width:1.0;"/><line style="stroke:#181818;stroke-width:1.0;" x1="1060.5" x2="1228" y1="171.4199" y2="171.4199"/><text fill="#000000" font-family="sans-serif" font-size="13" lengthAdjust="spacing" textLength="138" x="1067.5" y="166.6777">findAllJobReferences()</text><polygon fill="#181818" points="1071.5,196.7305,1061.5,200.7305,1071.5,204.7305,1067.5,200.7305" style="stroke:#181818;stroke-width:1.0;"/><line style="stroke:#181818;stroke-width:1.0;stroke-dasharray:2.0,2.0;" x1="1065.5" x2="1238" y1="200.7305" y2="200.7305"/><text fill="#000000" font-family="sans-serif" font-size="13" lengthAdjust="spacing" textLength="124" x="1077.5" y="195.9883">List&lt;JobReference&gt;</text><polygon fill="#181818" points="392.5,226.041,382.5,230.041,392.5,234.041,388.5,230.041" style="stroke:#181818;stroke-width:1.0;"/><line style="stroke:#181818;stroke-width:1.0;stroke-dasharray:2.0,2.0;" x1="386.5" x2="1054.5" y1="230.041" y2="230.041"/><text fill="#000000" font-family="sans-serif" font-size="13" lengthAdjust="spacing" textLength="124" x="398.5" y="225.2988">List&lt;JobReference&gt;</text><polygon fill="#181818" points="82.5,255.3516,72.5,259.3516,82.5,263.3516,78.5,259.3516" style="stroke:#181818;stroke-width:1.0;"/><line style="stroke:#181818;stroke-width:1.0;" x1="76.5" x2="370.5" y1="259.3516" y2="259.3516"/><text fill="#000000" font-family="sans-serif" font-size="13" lengthAdjust="spacing" textLength="276" x="88.5" y="254.6094">Display job references and prompt for input</text><polygon fill="#181818" points="359.5,284.6621,369.5,288.6621,359.5,292.6621,363.5,288.6621" style="stroke:#181818;stroke-width:1.0;"/><line style="stroke:#181818;stroke-width:1.0;" x1="71.5" x2="365.5" y1="288.6621" y2="288.6621"/><text fill="#000000" font-family="sans-serif" font-size="13" lengthAdjust="spacing" textLength="119" x="78.5" y="283.9199">Input job reference</text><polygon fill="#181818" points="805.5,313.9727,815.5,317.9727,805.5,321.9727,809.5,317.9727" style="stroke:#181818;stroke-width:1.0;"/><line style="stroke:#181818;stroke-width:1.0;" x1="381.5" x2="811.5" y1="317.9727" y2="317.9727"/><text fill="#000000" font-family="sans-serif" font-size="13" lengthAdjust="spacing" textLength="237" x="388.5" y="313.2305">getRequirementFilePath(jobReference)</text><polygon fill="#181818" points="1222,343.2832,1232,347.2832,1222,351.2832,1226,347.2832" style="stroke:#181818;stroke-width:1.0;"/><line style="stroke:#181818;stroke-width:1.0;" x1="827.5" x2="1228" y1="347.2832" y2="347.2832"/><text fill="#000000" font-family="sans-serif" font-size="13" lengthAdjust="spacing" textLength="237" x="834.5" y="342.541">getRequirementFilePath(jobReference)</text><polygon fill="#181818" points="838.5,372.5938,828.5,376.5938,838.5,380.5938,834.5,376.5938" style="stroke:#181818;stroke-width:1.0;"/><line style="stroke:#181818;stroke-width:1.0;stroke-dasharray:2.0,2.0;" x1="832.5" x2="1238" y1="376.5938" y2="376.5938"/><text fill="#000000" font-family="sans-serif" font-size="13" lengthAdjust="spacing" textLength="47" x="844.5" y="371.8516">filePath</text><polygon fill="#181818" points="392.5,401.9043,382.5,405.9043,392.5,409.9043,388.5,405.9043" style="stroke:#181818;stroke-width:1.0;"/><line style="stroke:#181818;stroke-width:1.0;stroke-dasharray:2.0,2.0;" x1="386.5" x2="821.5" y1="405.9043" y2="405.9043"/><text fill="#000000" font-family="sans-serif" font-size="13" lengthAdjust="spacing" textLength="47" x="398.5" y="401.1621">filePath</text><polygon fill="#181818" points="805.5,431.2148,815.5,435.2148,805.5,439.2148,809.5,435.2148" style="stroke:#181818;stroke-width:1.0;"/><line style="stroke:#181818;stroke-width:1.0;" x1="381.5" x2="811.5" y1="435.2148" y2="435.2148"/><text fill="#000000" font-family="sans-serif" font-size="13" lengthAdjust="spacing" textLength="188" x="388.5" y="430.4727">getApplications(jobReference)</text><polygon fill="#181818" points="1390.5,460.5254,1400.5,464.5254,1390.5,468.5254,1394.5,464.5254" style="stroke:#181818;stroke-width:1.0;"/><line style="stroke:#181818;stroke-width:1.0;" x1="827.5" x2="1396.5" y1="464.5254" y2="464.5254"/><text fill="#000000" font-family="sans-serif" font-size="13" lengthAdjust="spacing" textLength="209" x="834.5" y="459.7832">findByJobReference(jobReference)</text><polygon fill="#181818" points="838.5,489.8359,828.5,493.8359,838.5,497.8359,834.5,493.8359" style="stroke:#181818;stroke-width:1.0;"/><line style="stroke:#181818;stroke-width:1.0;stroke-dasharray:2.0,2.0;" x1="832.5" x2="1406.5" y1="493.8359" y2="493.8359"/><text fill="#000000" font-family="sans-serif" font-size="13" lengthAdjust="spacing" textLength="135" x="844.5" y="489.0938">List&lt;jobApplication&gt;</text><polygon fill="#181818" points="392.5,519.1465,382.5,523.1465,392.5,527.1465,388.5,523.1465" style="stroke:#181818;stroke-width:1.0;"/><line style="stroke:#181818;stroke-width:1.0;stroke-dasharray:2.0,2.0;" x1="386.5" x2="821.5" y1="523.1465" y2="523.1465"/><text fill="#000000" font-family="sans-serif" font-size="13" lengthAdjust="spacing" textLength="135" x="398.5" y="518.4043">List&lt;jobApplication&gt;</text><polygon fill="#181818" points="805.5,548.457,815.5,552.457,805.5,556.457,809.5,552.457" style="stroke:#181818;stroke-width:1.0;"/><line style="stroke:#181818;stroke-width:1.0;" x1="381.5" x2="811.5" y1="552.457" y2="552.457"/><text fill="#000000" font-family="sans-serif" font-size="13" lengthAdjust="spacing" textLength="224" x="388.5" y="547.7148">getCandidatesFilePath(applications)</text><polygon fill="#181818" points="1537,577.7676,1547,581.7676,1537,585.7676,1541,581.7676" style="stroke:#181818;stroke-width:1.0;"/><line style="stroke:#181818;stroke-width:1.0;" x1="827.5" x2="1543" y1="581.7676" y2="581.7676"/><text fill="#000000" font-family="sans-serif" font-size="13" lengthAdjust="spacing" textLength="356" x="834.5" y="577.0254">getRequirementAnswersPath() (loop for each application)</text><line style="stroke:#181818;stroke-width:1.0;stroke-dasharray:2.0,2.0;" x1="827.5" x2="869.5" y1="616.0781" y2="616.0781"/><line style="stroke:#181818;stroke-width:1.0;stroke-dasharray:2.0,2.0;" x1="869.5" x2="869.5" y1="616.0781" y2="629.0781"/><line style="stroke:#181818;stroke-width:1.0;stroke-dasharray:2.0,2.0;" x1="822.5" x2="869.5" y1="629.0781" y2="629.0781"/><polygon fill="#181818" points="832.5,625.0781,822.5,629.0781,832.5,633.0781,828.5,629.0781" style="stroke:#181818;stroke-width:1.0;"/><text fill="#000000" font-family="sans-serif" font-size="13" lengthAdjust="spacing" textLength="209" x="834.5" y="611.3359">List&lt;String&gt; (candidatesFilePath)</text><polygon fill="#181818" points="392.5,649.3887,382.5,653.3887,392.5,657.3887,388.5,653.3887" style="stroke:#181818;stroke-width:1.0;"/><line style="stroke:#181818;stroke-width:1.0;stroke-dasharray:2.0,2.0;" x1="386.5" x2="821.5" y1="653.3887" y2="653.3887"/><text fill="#000000" font-family="sans-serif" font-size="13" lengthAdjust="spacing" textLength="209" x="398.5" y="648.6465">List&lt;String&gt; (candidatesFilePath)</text><path d="M289.5,668.3887 L363.5,668.3887 L363.5,675.6992 L353.5,685.6992 L289.5,685.6992 L289.5,668.3887 " fill="#EEEEEE" style="stroke:#000000;stroke-width:1.5;"/><rect fill="none" height="456.9688" style="stroke:#000000;stroke-width:1.5;" width="2089.5" x="289.5" y="668.3887"/><text fill="#000000" font-family="sans-serif" font-size="13" font-weight="bold" lengthAdjust="spacing" textLength="29" x="304.5" y="681.957">loop</text><text fill="#000000" font-family="sans-serif" font-size="11" font-weight="bold" lengthAdjust="spacing" textLength="101" x="378.5" y="681.0234">[for each filePath]</text><polygon fill="#181818" points="805.5,703.0098,815.5,707.0098,805.5,711.0098,809.5,707.0098" style="stroke:#181818;stroke-width:1.0;"/><line style="stroke:#181818;stroke-width:1.0;" x1="381.5" x2="811.5" y1="707.0098" y2="707.0098"/><text fill="#000000" font-family="sans-serif" font-size="13" lengthAdjust="spacing" textLength="242" x="388.5" y="702.2676">getRequirementsFromFilePath(filePath)</text><polygon fill="#181818" points="1698,732.3203,1708,736.3203,1698,740.3203,1702,736.3203" style="stroke:#181818;stroke-width:1.0;"/><line style="stroke:#181818;stroke-width:1.0;" x1="827.5" x2="1704" y1="736.3203" y2="736.3203"/><text fill="#000000" font-family="sans-serif" font-size="13" lengthAdjust="spacing" textLength="105" x="834.5" y="731.5781">new(CharStream)</text><polygon fill="#181818" points="838.5,761.6309,828.5,765.6309,838.5,769.6309,834.5,765.6309" style="stroke:#181818;stroke-width:1.0;"/><line style="stroke:#181818;stroke-width:1.0;stroke-dasharray:2.0,2.0;" x1="832.5" x2="1714" y1="765.6309" y2="765.6309"/><text fill="#000000" font-family="sans-serif" font-size="13" lengthAdjust="spacing" textLength="31" x="844.5" y="760.8887">lexer</text><polygon fill="#181818" points="1916.5,790.9414,1926.5,794.9414,1916.5,798.9414,1920.5,794.9414" style="stroke:#181818;stroke-width:1.0;"/><line style="stroke:#181818;stroke-width:1.0;" x1="827.5" x2="1922.5" y1="794.9414" y2="794.9414"/><text fill="#000000" font-family="sans-serif" font-size="13" lengthAdjust="spacing" textLength="172" x="834.5" y="790.1992">new(CommonTokenStream)</text><polygon fill="#181818" points="838.5,820.252,828.5,824.252,838.5,828.252,834.5,824.252" style="stroke:#181818;stroke-width:1.0;"/><line style="stroke:#181818;stroke-width:1.0;stroke-dasharray:2.0,2.0;" x1="832.5" x2="1932.5" y1="824.252" y2="824.252"/><text fill="#000000" font-family="sans-serif" font-size="13" lengthAdjust="spacing" textLength="39" x="844.5" y="819.5098">parser</text><polygon fill="#181818" points="1916.5,849.5625,1926.5,853.5625,1916.5,857.5625,1920.5,853.5625" style="stroke:#181818;stroke-width:1.0;"/><line style="stroke:#181818;stroke-width:1.0;" x1="827.5" x2="1922.5" y1="853.5625" y2="853.5625"/><text fill="#000000" font-family="sans-serif" font-size="13" lengthAdjust="spacing" textLength="37" x="834.5" y="848.8203">start()</text><polygon fill="#181818" points="2104.5,878.873,2114.5,882.873,2104.5,886.873,2108.5,882.873" style="stroke:#181818;stroke-width:1.0;"/><line style="stroke:#181818;stroke-width:1.0;" x1="1938.5" x2="2110.5" y1="882.873" y2="882.873"/><text fill="#000000" font-family="sans-serif" font-size="13" lengthAdjust="spacing" textLength="114" x="1945.5" y="878.1309">visit(startContext)</text><polygon fill="#181818" points="838.5,908.1836,828.5,912.1836,838.5,916.1836,834.5,912.1836" style="stroke:#181818;stroke-width:1.0;"/><line style="stroke:#181818;stroke-width:1.0;stroke-dasharray:2.0,2.0;" x1="832.5" x2="2120.5" y1="912.1836" y2="912.1836"/><text fill="#000000" font-family="sans-serif" font-size="13" lengthAdjust="spacing" textLength="334" x="844.5" y="907.4414">List&lt;RequirementAnswers&gt; (candidateRequirements)</text><polygon fill="#181818" points="392.5,937.4941,382.5,941.4941,392.5,945.4941,388.5,941.4941" style="stroke:#181818;stroke-width:1.0;"/><line style="stroke:#181818;stroke-width:1.0;stroke-dasharray:2.0,2.0;" x1="386.5" x2="821.5" y1="941.4941" y2="941.4941"/><text fill="#000000" font-family="sans-serif" font-size="13" lengthAdjust="spacing" textLength="334" x="398.5" y="936.752">List&lt;RequirementAnswers&gt; (candidateRequirements)</text><polygon fill="#181818" points="805.5,966.8047,815.5,970.8047,805.5,974.8047,809.5,970.8047" style="stroke:#181818;stroke-width:1.0;"/><line style="stroke:#181818;stroke-width:1.0;" x1="381.5" x2="811.5" y1="970.8047" y2="970.8047"/><text fill="#000000" font-family="sans-serif" font-size="13" lengthAdjust="spacing" textLength="416" x="388.5" y="966.0625">checkRequirements(correctRequirements, candidateRequirements)</text><polygon fill="#181818" points="2274.5,996.1152,2284.5,1000.1152,2274.5,1004.1152,2278.5,1000.1152" style="stroke:#181818;stroke-width:1.0;"/><line style="stroke:#181818;stroke-width:1.0;" x1="827.5" x2="2280.5" y1="1000.1152" y2="1000.1152"/><text fill="#000000" font-family="sans-serif" font-size="13" lengthAdjust="spacing" textLength="416" x="834.5" y="995.373">checkRequirements(correctRequirements, candidateRequirements)</text><polygon fill="#181818" points="392.5,1025.4258,382.5,1029.4258,392.5,1033.4258,388.5,1029.4258" style="stroke:#181818;stroke-width:1.0;"/><line style="stroke:#181818;stroke-width:1.0;stroke-dasharray:2.0,2.0;" x1="386.5" x2="821.5" y1="1029.4258" y2="1029.4258"/><text fill="#000000" font-family="sans-serif" font-size="13" lengthAdjust="spacing" textLength="192" x="398.5" y="1024.6836">boolean (passedRequirements)</text><polygon fill="#181818" points="805.5,1054.7363,815.5,1058.7363,805.5,1062.7363,809.5,1058.7363" style="stroke:#181818;stroke-width:1.0;"/><line style="stroke:#181818;stroke-width:1.0;" x1="381.5" x2="811.5" y1="1058.7363" y2="1058.7363"/><text fill="#000000" font-family="sans-serif" font-size="13" lengthAdjust="spacing" textLength="417" x="388.5" y="1053.9941">saveEvaluationToJobApplication(application, passedRequirements)</text><polygon fill="#181818" points="1537,1084.0469,1547,1088.0469,1537,1092.0469,1541,1088.0469" style="stroke:#181818;stroke-width:1.0;"/><line style="stroke:#181818;stroke-width:1.0;" x1="827.5" x2="1543" y1="1088.0469" y2="1088.0469"/><text fill="#000000" font-family="sans-serif" font-size="13" lengthAdjust="spacing" textLength="196" x="834.5" y="1083.3047">setRequirements(requirements)</text><polygon fill="#181818" points="1395.5,1113.3574,1405.5,1117.3574,1395.5,1121.3574,1399.5,1117.3574" style="stroke:#181818;stroke-width:1.0;"/><line style="stroke:#181818;stroke-width:1.0;" x1="822.5" x2="1401.5" y1="1117.3574" y2="1117.3574"/><text fill="#000000" font-family="sans-serif" font-size="13" lengthAdjust="spacing" textLength="106" x="829.5" y="1112.6152">save(application)</text><polygon fill="#181818" points="82.5,1149.668,72.5,1153.668,82.5,1157.668,78.5,1153.668" style="stroke:#181818;stroke-width:1.0;"/><line style="stroke:#181818;stroke-width:1.0;stroke-dasharray:2.0,2.0;" x1="76.5" x2="375.5" y1="1153.668" y2="1153.668"/><text fill="#000000" font-family="sans-serif" font-size="13" lengthAdjust="spacing" textLength="87" x="88.5" y="1148.9258">Display result</text><!--SRC=[nLV1Rk8m4BtdAtmCKli3qGg9PRTIgwwsejtUJJ81juwTjHqeVxzEeC4EjWaXrN927kCtxptFUC2fuWBDAwbu0U8NPdW58bhoYcLOxD0h29Bl5l2t8W8AO4h-kOzIpfJWr16SxoDK7_6vwP58zS2NlqjWXAtC7Ve7HEtGCRY0aakYyzbzncPbIKcA5U7iDFZ6bqRyStNEfQeq5JEjH_WuuhasF64XZplCo2jfGAEe8n6wdJh5IL36dzTy6qyYd2gomGhS8aQkrVfKhs09mfJgo09o4C1Ia2Q8NsTlf4PpgP-WdB1i5W1pUkPQHBTXHdNecmapZJ88mmJeU3q9m_YbyvhKkGq9-a5aIN5pAP5eDKEOPQWKl2WLodMT4LPMglzLkg-tsqVwKmfLOu9Me8pG7Q7mXDKwVZCq2TvOGvHGq7-bBalWiWiMffuViCxUh30nhqkkyuC23hVGw7VoIxnpDjnzF_Y-Cml8X-xksCxL7jOrTMltUQjotMW3VJm7zaMUpdMF89a6a6rHOCFciPorYNNhSSRa5eHiq2SeffoNJSFIxDV8I6SoHDmJHv-Lq9KtHN5wmdtIM_5hN0uc4Ddis_96-ZD6yvLt-a5elSvRtFhyVjJTcTX-U-UW137OnlCr5be5m4K7s3y_rTkyqHxMq_OKm-8mt12I-rdkm98N1MSl_1rORxA7MT37TX_kGRSyddE6hu5u3M6fi53nU0odha4uGPlwIzo0rRd1X-f0kiRdUeDZlM_3EErKPksQFvrq1VTbCvOduKPpHUBXvsPuCqhNaBwRmJZbGa1gjQWR54Xol2PbHUgynabme6DBpYbWXk8IImdPVt57uWtyt61QDS_j2t-mdcrpChX1lZJ7ywSxD4Zx8Ol5XT9x1yoQTcpD6PVe3Ipp3M2X_se2P4LLUE3G_zJ_0G00]--></g></svg>