<?xml version="1.0" encoding="us-ascii" standalone="no"?><svg xmlns="http://www.w3.org/2000/svg" xmlns:xlink="http://www.w3.org/1999/xlink" contentStyleType="text/css" height="817.2px" preserveAspectRatio="none" style="width:826px;height:817px;background:#FFFFFF;" version="1.1" viewBox="0 0 826 817" width="826.2px" zoomAndPan="magnify"><defs/><g><!--cluster JobOpeningAgg--><g id="cluster_JobOpeningAgg"><path d="M7.65,5.4123 L110.25,5.4123 A3.375,3.375 0 0 1 112.5,7.6623 L118.8,27.5713 L490.05,27.5713 A2.25,2.25 0 0 1 492.3,29.8213 L492.3,691.6623 A2.25,2.25 0 0 1 490.05,693.9123 L7.65,693.9123 A2.25,2.25 0 0 1 5.4,691.6623 L5.4,7.6623 A2.25,2.25 0 0 1 7.65,5.4123 " fill="none" style="stroke:#000000;stroke-width:1.35;"/><line style="stroke:#000000;stroke-width:1.35;" x1="5.4" x2="118.8" y1="27.5713" y2="27.5713"/><text fill="#000000" font-family="sans-serif" font-size="12.6" font-weight="bold" lengthAdjust="spacing" textLength="101.7" x="9" y="20.809">JobOpeningAgg</text></g><!--cluster RankAgg--><g id="cluster_RankAgg"><path d="M516.15,173.7123 L572.85,173.7123 A3.375,3.375 0 0 1 575.1,175.9623 L581.4,195.8713 L770.85,195.8713 A2.25,2.25 0 0 1 773.1,198.1213 L773.1,485.5623 A2.25,2.25 0 0 1 770.85,487.8123 L516.15,487.8123 A2.25,2.25 0 0 1 513.9,485.5623 L513.9,175.9623 A2.25,2.25 0 0 1 516.15,173.7123 " fill="none" style="stroke:#000000;stroke-width:1.35;"/><line style="stroke:#000000;stroke-width:1.35;" x1="513.9" x2="581.4" y1="195.8713" y2="195.8713"/><text fill="#000000" font-family="sans-serif" font-size="12.6" font-weight="bold" lengthAdjust="spacing" textLength="55.8" x="517.5" y="189.109">RankAgg</text></g><!--cluster CandidateAgg--><g id="cluster_CandidateAgg"><path d="M595.35,552.6123 L684.45,552.6123 A3.375,3.375 0 0 1 686.7,554.8623 L693,574.7713 L817.65,574.7713 A2.25,2.25 0 0 1 819.9,577.0213 L819.9,808.6623 A2.25,2.25 0 0 1 817.65,810.9123 L595.35,810.9123 A2.25,2.25 0 0 1 593.1,808.6623 L593.1,554.8623 A2.25,2.25 0 0 1 595.35,552.6123 " fill="none" style="stroke:#000000;stroke-width:1.35;"/><line style="stroke:#000000;stroke-width:1.35;" x1="593.1" x2="693" y1="574.7713" y2="574.7713"/><text fill="#000000" font-family="sans-serif" font-size="12.6" font-weight="bold" lengthAdjust="spacing" textLength="88.2" x="596.7" y="568.009">CandidateAgg</text></g><!--class JobOpening--><g id="elem_JobOpening"><rect codeLine="3" fill="#F1F1F1" height="76.718" id="JobOpening" rx="2.25" ry="2.25" style="stroke:#181818;stroke-width:0.45;" width="254.7" x="222.75" y="38.7123"/><ellipse cx="312.075" cy="53.1123" fill="#ADD1B2" rx="9.9" ry="9.9" style="stroke:#181818;stroke-width:0.9;"/><path d="M314.5641,49.3998 Q314.7047,49.2029 314.8734,49.1045 Q315.0422,49.0061 315.2391,49.0061 Q315.5766,49.0061 315.7875,49.2451 Q315.9984,49.4701 315.9984,50.0186 L315.9984,51.3264 Q315.9984,51.8748 315.7875,52.1139 Q315.5766,52.3529 315.2391,52.3529 Q314.9297,52.3529 314.7469,52.1701 Q314.5641,52.0014 314.4656,51.5373 Q314.4234,51.2139 314.2547,51.0451 Q313.9594,50.7076 313.4109,50.5107 Q312.8625,50.3139 312.3,50.3139 Q311.6109,50.3139 311.0344,50.6092 Q310.4719,50.9045 310.0219,51.5795 Q309.5859,52.2545 309.5859,53.1826 L309.5859,54.167 Q309.5859,55.2779 310.3875,56.0232 Q311.1891,56.7545 312.6234,56.7545 Q313.4672,56.7545 314.0578,56.5295 Q314.4094,56.3889 314.7891,55.9951 Q315.0281,55.7561 315.1547,55.6857 Q315.2953,55.6154 315.4781,55.6154 Q315.7734,55.6154 315.9984,55.8545 Q316.2375,56.0795 316.2375,56.3889 Q316.2375,56.6982 315.9281,57.0639 Q315.4781,57.5842 314.7609,57.8795 Q313.7906,58.2873 312.6234,58.2873 Q311.2594,58.2873 310.1766,57.7248 Q309.2906,57.2748 308.6719,56.3186 Q308.0531,55.3482 308.0531,54.1951 L308.0531,53.1545 Q308.0531,51.9592 308.6016,50.9326 Q309.1641,49.892 310.1484,49.3436 Q311.1328,48.7811 312.2438,48.7811 Q312.9047,48.7811 313.4813,48.9357 Q314.0719,49.0764 314.5641,49.3998 Z " fill="#000000"/><text fill="#000000" font-family="sans-serif" font-size="12.6" lengthAdjust="spacing" textLength="68.4" x="330.525" y="58.3295">JobOpening</text><line style="stroke:#181818;stroke-width:0.45;" x1="223.65" x2="476.55" y1="67.5123" y2="67.5123"/><ellipse cx="232.65" cy="80.8418" fill="none" rx="2.7" ry="2.7" style="stroke:#038048;stroke-width:0.9;"/><text fill="#000000" font-family="sans-serif" font-size="12.6" lengthAdjust="spacing" textLength="96.3" x="240.75" y="84.709">id: JobReference</text><ellipse cx="232.65" cy="97.6008" fill="none" rx="2.7" ry="2.7" style="stroke:#038048;stroke-width:0.9;"/><text fill="#000000" font-family="sans-serif" font-size="12.6" lengthAdjust="spacing" textLength="231.3" x="240.75" y="101.468">recruitmentProcess: RecruitmentProcess</text><line style="stroke:#181818;stroke-width:0.45;" x1="223.65" x2="476.55" y1="108.2303" y2="108.2303"/></g><!--class RecruitmentProcess--><g id="elem_RecruitmentProcess"><rect codeLine="7" fill="#F1F1F1" height="93.477" id="RecruitmentProcess" rx="2.25" ry="2.25" style="stroke:#181818;stroke-width:0.45;" width="215.1" x="242.55" y="207.0123"/><ellipse cx="289.125" cy="221.4123" fill="#ADD1B2" rx="9.9" ry="9.9" style="stroke:#181818;stroke-width:0.9;"/><path d="M291.6141,217.6998 Q291.7547,217.5029 291.9234,217.4045 Q292.0922,217.3061 292.2891,217.3061 Q292.6266,217.3061 292.8375,217.5451 Q293.0484,217.7701 293.0484,218.3186 L293.0484,219.6264 Q293.0484,220.1748 292.8375,220.4139 Q292.6266,220.6529 292.2891,220.6529 Q291.9797,220.6529 291.7969,220.4701 Q291.6141,220.3014 291.5156,219.8373 Q291.4734,219.5139 291.3047,219.3451 Q291.0094,219.0076 290.4609,218.8107 Q289.9125,218.6139 289.35,218.6139 Q288.6609,218.6139 288.0844,218.9092 Q287.5219,219.2045 287.0719,219.8795 Q286.6359,220.5545 286.6359,221.4826 L286.6359,222.467 Q286.6359,223.5779 287.4375,224.3232 Q288.2391,225.0545 289.6734,225.0545 Q290.5172,225.0545 291.1078,224.8295 Q291.4594,224.6889 291.8391,224.2951 Q292.0781,224.0561 292.2047,223.9857 Q292.3453,223.9154 292.5281,223.9154 Q292.8234,223.9154 293.0484,224.1545 Q293.2875,224.3795 293.2875,224.6889 Q293.2875,224.9982 292.9781,225.3639 Q292.5281,225.8842 291.8109,226.1795 Q290.8406,226.5873 289.6734,226.5873 Q288.3094,226.5873 287.2266,226.0248 Q286.3406,225.5748 285.7219,224.6186 Q285.1031,223.6482 285.1031,222.4951 L285.1031,221.4545 Q285.1031,220.2592 285.6516,219.2326 Q286.2141,218.192 287.1984,217.6436 Q288.1828,217.0811 289.2938,217.0811 Q289.9547,217.0811 290.5313,217.2357 Q291.1219,217.3764 291.6141,217.6998 Z " fill="#000000"/><text fill="#000000" font-family="sans-serif" font-size="12.6" lengthAdjust="spacing" textLength="114.3" x="307.575" y="226.6295">RecruitmentProcess</text><line style="stroke:#181818;stroke-width:0.45;" x1="243.45" x2="456.75" y1="235.8123" y2="235.8123"/><ellipse cx="252.45" cy="249.1418" fill="none" rx="2.7" ry="2.7" style="stroke:#038048;stroke-width:0.9;"/><text fill="#000000" font-family="sans-serif" font-size="12.6" lengthAdjust="spacing" textLength="30.6" x="260.55" y="253.009">id: int</text><ellipse cx="252.45" cy="265.9008" fill="none" rx="2.7" ry="2.7" style="stroke:#038048;stroke-width:0.9;"/><text fill="#000000" font-family="sans-serif" font-size="12.6" lengthAdjust="spacing" textLength="191.7" x="260.55" y="269.768">status: RecruitmentProcessStatus</text><ellipse cx="252.45" cy="282.6598" fill="none" rx="2.7" ry="2.7" style="stroke:#038048;stroke-width:0.9;"/><text fill="#000000" font-family="sans-serif" font-size="12.6" lengthAdjust="spacing" textLength="118.8" x="260.55" y="286.527">phases: List&lt;Phase&gt;</text><line style="stroke:#181818;stroke-width:0.45;" x1="243.45" x2="456.75" y1="293.2893" y2="293.2893"/></g><!--class Phase--><g id="elem_Phase"><rect codeLine="13" fill="#F1F1F1" height="110.2359" id="Phase" rx="2.25" ry="2.25" style="stroke:#181818;stroke-width:0.45;" width="136.8" x="125.1" y="371.7123"/><ellipse cx="171.675" cy="386.1123" fill="#ADD1B2" rx="9.9" ry="9.9" style="stroke:#181818;stroke-width:0.9;"/><path d="M174.1641,382.3998 Q174.3047,382.2029 174.4734,382.1045 Q174.6422,382.0061 174.8391,382.0061 Q175.1766,382.0061 175.3875,382.2451 Q175.5984,382.4701 175.5984,383.0186 L175.5984,384.3264 Q175.5984,384.8748 175.3875,385.1139 Q175.1766,385.3529 174.8391,385.3529 Q174.5297,385.3529 174.3469,385.1701 Q174.1641,385.0014 174.0656,384.5373 Q174.0234,384.2139 173.8547,384.0451 Q173.5594,383.7076 173.0109,383.5107 Q172.4625,383.3139 171.9,383.3139 Q171.2109,383.3139 170.6344,383.6092 Q170.0719,383.9045 169.6219,384.5795 Q169.1859,385.2545 169.1859,386.1826 L169.1859,387.167 Q169.1859,388.2779 169.9875,389.0232 Q170.7891,389.7545 172.2234,389.7545 Q173.0672,389.7545 173.6578,389.5295 Q174.0094,389.3889 174.3891,388.9951 Q174.6281,388.7561 174.7547,388.6857 Q174.8953,388.6154 175.0781,388.6154 Q175.3734,388.6154 175.5984,388.8545 Q175.8375,389.0795 175.8375,389.3889 Q175.8375,389.6982 175.5281,390.0639 Q175.0781,390.5842 174.3609,390.8795 Q173.3906,391.2873 172.2234,391.2873 Q170.8594,391.2873 169.7766,390.7248 Q168.8906,390.2748 168.2719,389.3186 Q167.6531,388.3482 167.6531,387.1951 L167.6531,386.1545 Q167.6531,384.9592 168.2016,383.9326 Q168.7641,382.892 169.7484,382.3436 Q170.7328,381.7811 171.8438,381.7811 Q172.5047,381.7811 173.0813,381.9357 Q173.6719,382.0764 174.1641,382.3998 Z " fill="#000000"/><text fill="#000000" font-family="sans-serif" font-size="12.6" lengthAdjust="spacing" textLength="36" x="190.125" y="391.3295">Phase</text><line style="stroke:#181818;stroke-width:0.45;" x1="126" x2="261" y1="400.5123" y2="400.5123"/><ellipse cx="135" cy="413.8418" fill="none" rx="2.7" ry="2.7" style="stroke:#038048;stroke-width:0.9;"/><text fill="#000000" font-family="sans-serif" font-size="12.6" lengthAdjust="spacing" textLength="85.5" x="143.1" y="417.709">id: PhaseName</text><ellipse cx="135" cy="430.6008" fill="none" rx="2.7" ry="2.7" style="stroke:#038048;stroke-width:0.9;"/><text fill="#000000" font-family="sans-serif" font-size="12.6" lengthAdjust="spacing" textLength="113.4" x="143.1" y="434.468">startDate: StartDate</text><ellipse cx="135" cy="447.3598" fill="none" rx="2.7" ry="2.7" style="stroke:#038048;stroke-width:0.9;"/><text fill="#000000" font-family="sans-serif" font-size="12.6" lengthAdjust="spacing" textLength="105.3" x="143.1" y="451.227">endDate: EndDate</text><ellipse cx="135" cy="464.1188" fill="none" rx="2.7" ry="2.7" style="stroke:#038048;stroke-width:0.9;"/><text fill="#000000" font-family="sans-serif" font-size="12.6" lengthAdjust="spacing" textLength="113.4" x="143.1" y="467.9859">status: PhaseStatus</text><line style="stroke:#181818;stroke-width:0.45;" x1="126" x2="261" y1="474.7482" y2="474.7482"/></g><!--class PhaseName--><g id="elem_PhaseName"><rect codeLine="20" fill="#F1F1F1" height="126.9949" id="PhaseName" rx="2.25" ry="2.25" style="stroke:#181818;stroke-width:0.45;" width="97.2" x="19.8" y="552.6123"/><ellipse cx="33.3" cy="567.0123" fill="#EB937F" rx="9.9" ry="9.9" style="stroke:#181818;stroke-width:0.9;"/><path d="M32.2734,567.7295 L32.2734,569.9795 L36.1688,569.9795 L36.1688,569.1498 Q36.1688,568.6014 36.3797,568.3623 Q36.6047,568.1232 36.9422,568.1232 Q37.2797,568.1232 37.4906,568.3623 Q37.7016,568.6014 37.7016,569.1498 L37.7016,571.5123 L30.5016,571.5123 Q29.9391,571.5123 29.7,571.3014 Q29.475,571.0904 29.475,570.7389 Q29.475,570.4014 29.7141,570.1904 Q29.9531,569.9795 30.5016,569.9795 L30.7406,569.9795 L30.7406,563.9889 L30.5016,563.9889 Q29.9391,563.9889 29.7,563.7779 Q29.475,563.567 29.475,563.2154 Q29.475,562.8779 29.7,562.667 Q29.9391,562.4561 30.5016,562.4561 L37.3641,562.4561 L37.3641,564.7904 Q37.3641,565.3389 37.1531,565.5779 Q36.9563,565.8029 36.6047,565.8029 Q36.2672,565.8029 36.0563,565.5779 Q35.8453,565.3389 35.8453,564.7904 L35.8453,563.9889 L32.2734,563.9889 L32.2734,566.1967 L33.6094,566.1967 Q33.6094,565.6061 33.7219,565.4373 Q33.9609,565.0717 34.3828,565.0717 Q34.7203,565.0717 34.9313,565.3107 Q35.1422,565.5357 35.1422,566.0842 L35.1422,567.8561 Q35.1422,568.3482 35.0297,568.517 Q34.7906,568.8686 34.3828,568.8686 Q33.9609,568.8686 33.7219,568.5029 Q33.6094,568.3342 33.6094,567.7295 L32.2734,567.7295 Z " fill="#000000"/><text fill="#000000" font-family="sans-serif" font-size="12.6" lengthAdjust="spacing" textLength="68.4" x="45.9" y="572.2295">PhaseName</text><line style="stroke:#181818;stroke-width:0.45;" x1="20.7" x2="116.1" y1="581.4123" y2="581.4123"/><text fill="#000000" font-family="sans-serif" font-size="12.6" lengthAdjust="spacing" textLength="83.7" x="25.2" y="598.609">APPLICATION,</text><text fill="#000000" font-family="sans-serif" font-size="12.6" lengthAdjust="spacing" textLength="74.7" x="25.2" y="615.368">SCREENING,</text><text fill="#000000" font-family="sans-serif" font-size="12.6" lengthAdjust="spacing" textLength="78.3" x="25.2" y="632.127">INTERVIEWS,</text><text fill="#000000" font-family="sans-serif" font-size="12.6" lengthAdjust="spacing" textLength="62.1" x="25.2" y="648.8859">ANALYSIS,</text><text fill="#000000" font-family="sans-serif" font-size="12.6" lengthAdjust="spacing" textLength="48.6" x="25.2" y="665.6449">RESULT</text><line style="stroke:#181818;stroke-width:0.45;" x1="20.7" x2="116.1" y1="672.4072" y2="672.4072"/></g><!--class StartDate--><g id="elem_StartDate"><rect codeLine="28" fill="#F1F1F1" height="59.959" id="StartDate" rx="2.25" ry="2.25" style="stroke:#181818;stroke-width:0.45;" width="82.8" x="148.5" y="585.9123"/><ellipse cx="162" cy="600.3123" fill="#ADD1B2" rx="9.9" ry="9.9" style="stroke:#181818;stroke-width:0.9;"/><path d="M164.4891,596.5998 Q164.6297,596.4029 164.7984,596.3045 Q164.9672,596.2061 165.1641,596.2061 Q165.5016,596.2061 165.7125,596.4451 Q165.9234,596.6701 165.9234,597.2186 L165.9234,598.5264 Q165.9234,599.0748 165.7125,599.3139 Q165.5016,599.5529 165.1641,599.5529 Q164.8547,599.5529 164.6719,599.3701 Q164.4891,599.2014 164.3906,598.7373 Q164.3484,598.4139 164.1797,598.2451 Q163.8844,597.9076 163.3359,597.7107 Q162.7875,597.5139 162.225,597.5139 Q161.5359,597.5139 160.9594,597.8092 Q160.3969,598.1045 159.9469,598.7795 Q159.5109,599.4545 159.5109,600.3826 L159.5109,601.367 Q159.5109,602.4779 160.3125,603.2232 Q161.1141,603.9545 162.5484,603.9545 Q163.3922,603.9545 163.9828,603.7295 Q164.3344,603.5889 164.7141,603.1951 Q164.9531,602.9561 165.0797,602.8857 Q165.2203,602.8154 165.4031,602.8154 Q165.6984,602.8154 165.9234,603.0545 Q166.1625,603.2795 166.1625,603.5889 Q166.1625,603.8982 165.8531,604.2639 Q165.4031,604.7842 164.6859,605.0795 Q163.7156,605.4873 162.5484,605.4873 Q161.1844,605.4873 160.1016,604.9248 Q159.2156,604.4748 158.5969,603.5186 Q157.9781,602.5482 157.9781,601.3951 L157.9781,600.3545 Q157.9781,599.1592 158.5266,598.1326 Q159.0891,597.092 160.0734,596.5436 Q161.0578,595.9811 162.1688,595.9811 Q162.8297,595.9811 163.4063,596.1357 Q163.9969,596.2764 164.4891,596.5998 Z " fill="#000000"/><text fill="#000000" font-family="sans-serif" font-size="12.6" lengthAdjust="spacing" textLength="54" x="174.6" y="605.5295">StartDate</text><line style="stroke:#181818;stroke-width:0.45;" x1="149.4" x2="230.4" y1="614.7123" y2="614.7123"/><ellipse cx="158.4" cy="628.0418" fill="none" rx="2.7" ry="2.7" style="stroke:#038048;stroke-width:0.9;"/><text fill="#000000" font-family="sans-serif" font-size="12.6" lengthAdjust="spacing" textLength="59.4" x="166.5" y="631.909">date: Date</text><line style="stroke:#181818;stroke-width:0.45;" x1="149.4" x2="230.4" y1="638.6713" y2="638.6713"/></g><!--class EndDate--><g id="elem_EndDate"><rect codeLine="32" fill="#F1F1F1" height="59.959" id="EndDate" rx="2.25" ry="2.25" style="stroke:#181818;stroke-width:0.45;" width="82.8" x="262.8" y="585.9123"/><ellipse cx="278.325" cy="600.3123" fill="#ADD1B2" rx="9.9" ry="9.9" style="stroke:#181818;stroke-width:0.9;"/><path d="M280.8141,596.5998 Q280.9547,596.4029 281.1234,596.3045 Q281.2922,596.2061 281.4891,596.2061 Q281.8266,596.2061 282.0375,596.4451 Q282.2484,596.6701 282.2484,597.2186 L282.2484,598.5264 Q282.2484,599.0748 282.0375,599.3139 Q281.8266,599.5529 281.4891,599.5529 Q281.1797,599.5529 280.9969,599.3701 Q280.8141,599.2014 280.7156,598.7373 Q280.6734,598.4139 280.5047,598.2451 Q280.2094,597.9076 279.6609,597.7107 Q279.1125,597.5139 278.55,597.5139 Q277.8609,597.5139 277.2844,597.8092 Q276.7219,598.1045 276.2719,598.7795 Q275.8359,599.4545 275.8359,600.3826 L275.8359,601.367 Q275.8359,602.4779 276.6375,603.2232 Q277.4391,603.9545 278.8734,603.9545 Q279.7172,603.9545 280.3078,603.7295 Q280.6594,603.5889 281.0391,603.1951 Q281.2781,602.9561 281.4047,602.8857 Q281.5453,602.8154 281.7281,602.8154 Q282.0234,602.8154 282.2484,603.0545 Q282.4875,603.2795 282.4875,603.5889 Q282.4875,603.8982 282.1781,604.2639 Q281.7281,604.7842 281.0109,605.0795 Q280.0406,605.4873 278.8734,605.4873 Q277.5094,605.4873 276.4266,604.9248 Q275.5406,604.4748 274.9219,603.5186 Q274.3031,602.5482 274.3031,601.3951 L274.3031,600.3545 Q274.3031,599.1592 274.8516,598.1326 Q275.4141,597.092 276.3984,596.5436 Q277.3828,595.9811 278.4938,595.9811 Q279.1547,595.9811 279.7313,596.1357 Q280.3219,596.2764 280.8141,596.5998 Z " fill="#000000"/><text fill="#000000" font-family="sans-serif" font-size="12.6" lengthAdjust="spacing" textLength="49.5" x="291.375" y="605.5295">EndDate</text><line style="stroke:#181818;stroke-width:0.45;" x1="263.7" x2="344.7" y1="614.7123" y2="614.7123"/><ellipse cx="272.7" cy="628.0418" fill="none" rx="2.7" ry="2.7" style="stroke:#038048;stroke-width:0.9;"/><text fill="#000000" font-family="sans-serif" font-size="12.6" lengthAdjust="spacing" textLength="59.4" x="280.8" y="631.909">date: Date</text><line style="stroke:#181818;stroke-width:0.45;" x1="263.7" x2="344.7" y1="638.6713" y2="638.6713"/></g><!--class PhaseStatus--><g id="elem_PhaseStatus"><rect codeLine="36" fill="#F1F1F1" height="76.718" id="PhaseStatus" rx="2.25" ry="2.25" style="stroke:#181818;stroke-width:0.45;" width="100.8" x="377.1" y="577.8123"/><ellipse cx="390.6" cy="592.2123" fill="#EB937F" rx="9.9" ry="9.9" style="stroke:#181818;stroke-width:0.9;"/><path d="M389.5734,592.9295 L389.5734,595.1795 L393.4688,595.1795 L393.4688,594.3498 Q393.4688,593.8014 393.6797,593.5623 Q393.9047,593.3232 394.2422,593.3232 Q394.5797,593.3232 394.7906,593.5623 Q395.0016,593.8014 395.0016,594.3498 L395.0016,596.7123 L387.8016,596.7123 Q387.2391,596.7123 387,596.5014 Q386.775,596.2904 386.775,595.9389 Q386.775,595.6014 387.0141,595.3904 Q387.2531,595.1795 387.8016,595.1795 L388.0406,595.1795 L388.0406,589.1889 L387.8016,589.1889 Q387.2391,589.1889 387,588.9779 Q386.775,588.767 386.775,588.4154 Q386.775,588.0779 387,587.867 Q387.2391,587.6561 387.8016,587.6561 L394.6641,587.6561 L394.6641,589.9904 Q394.6641,590.5389 394.4531,590.7779 Q394.2563,591.0029 393.9047,591.0029 Q393.5672,591.0029 393.3563,590.7779 Q393.1453,590.5389 393.1453,589.9904 L393.1453,589.1889 L389.5734,589.1889 L389.5734,591.3967 L390.9094,591.3967 Q390.9094,590.8061 391.0219,590.6373 Q391.2609,590.2717 391.6828,590.2717 Q392.0203,590.2717 392.2313,590.5107 Q392.4422,590.7357 392.4422,591.2842 L392.4422,593.0561 Q392.4422,593.5482 392.3297,593.717 Q392.0906,594.0686 391.6828,594.0686 Q391.2609,594.0686 391.0219,593.7029 Q390.9094,593.5342 390.9094,592.9295 L389.5734,592.9295 Z " fill="#000000"/><text fill="#000000" font-family="sans-serif" font-size="12.6" lengthAdjust="spacing" textLength="72" x="403.2" y="597.4295">PhaseStatus</text><line style="stroke:#181818;stroke-width:0.45;" x1="378" x2="477" y1="606.6123" y2="606.6123"/><text fill="#000000" font-family="sans-serif" font-size="12.6" lengthAdjust="spacing" textLength="34.2" x="382.5" y="623.809">OPEN</text><text fill="#000000" font-family="sans-serif" font-size="12.6" lengthAdjust="spacing" textLength="51.3" x="382.5" y="640.568">CLOSED</text><line style="stroke:#181818;stroke-width:0.45;" x1="378" x2="477" y1="647.3303" y2="647.3303"/></g><!--class RecruitmentProcessStatus--><g id="elem_RecruitmentProcessStatus"><rect codeLine="41" fill="#F1F1F1" height="93.477" id="RecruitmentProcessStatus" rx="2.25" ry="2.25" style="stroke:#181818;stroke-width:0.45;" width="179.1" x="293.85" y="379.8123"/><ellipse cx="307.35" cy="394.2123" fill="#EB937F" rx="9.9" ry="9.9" style="stroke:#181818;stroke-width:0.9;"/><path d="M306.3234,394.9295 L306.3234,397.1795 L310.2188,397.1795 L310.2188,396.3498 Q310.2188,395.8014 310.4297,395.5623 Q310.6547,395.3232 310.9922,395.3232 Q311.3297,395.3232 311.5406,395.5623 Q311.7516,395.8014 311.7516,396.3498 L311.7516,398.7123 L304.5516,398.7123 Q303.9891,398.7123 303.75,398.5014 Q303.525,398.2904 303.525,397.9389 Q303.525,397.6014 303.7641,397.3904 Q304.0031,397.1795 304.5516,397.1795 L304.7906,397.1795 L304.7906,391.1889 L304.5516,391.1889 Q303.9891,391.1889 303.75,390.9779 Q303.525,390.767 303.525,390.4154 Q303.525,390.0779 303.75,389.867 Q303.9891,389.6561 304.5516,389.6561 L311.4141,389.6561 L311.4141,391.9904 Q311.4141,392.5389 311.2031,392.7779 Q311.0063,393.0029 310.6547,393.0029 Q310.3172,393.0029 310.1063,392.7779 Q309.8953,392.5389 309.8953,391.9904 L309.8953,391.1889 L306.3234,391.1889 L306.3234,393.3967 L307.6594,393.3967 Q307.6594,392.8061 307.7719,392.6373 Q308.0109,392.2717 308.4328,392.2717 Q308.7703,392.2717 308.9813,392.5107 Q309.1922,392.7357 309.1922,393.2842 L309.1922,395.0561 Q309.1922,395.5482 309.0797,395.717 Q308.8406,396.0686 308.4328,396.0686 Q308.0109,396.0686 307.7719,395.7029 Q307.6594,395.5342 307.6594,394.9295 L306.3234,394.9295 Z " fill="#000000"/><text fill="#000000" font-family="sans-serif" font-size="12.6" lengthAdjust="spacing" textLength="150.3" x="319.95" y="399.4295">RecruitmentProcessStatus</text><line style="stroke:#181818;stroke-width:0.45;" x1="294.75" x2="472.05" y1="408.6123" y2="408.6123"/><text fill="#000000" font-family="sans-serif" font-size="12.6" lengthAdjust="spacing" textLength="73.8" x="299.25" y="425.809">UNINITIATED</text><text fill="#000000" font-family="sans-serif" font-size="12.6" lengthAdjust="spacing" textLength="78.3" x="299.25" y="442.568">IN_PROCESS</text><text fill="#000000" font-family="sans-serif" font-size="12.6" lengthAdjust="spacing" textLength="54.9" x="299.25" y="459.327">FINISHED</text><line style="stroke:#181818;stroke-width:0.45;" x1="294.75" x2="472.05" y1="466.0893" y2="466.0893"/></g><!--class Rank--><g id="elem_Rank"><rect codeLine="57" fill="#F1F1F1" height="93.477" id="Rank" rx="2.25" ry="2.25" style="stroke:#181818;stroke-width:0.45;" width="175.5" x="528.75" y="207.0123"/><ellipse cx="597.825" cy="221.4123" fill="#ADD1B2" rx="9.9" ry="9.9" style="stroke:#181818;stroke-width:0.9;"/><path d="M600.3141,217.6998 Q600.4547,217.5029 600.6234,217.4045 Q600.7922,217.3061 600.9891,217.3061 Q601.3266,217.3061 601.5375,217.5451 Q601.7484,217.7701 601.7484,218.3186 L601.7484,219.6264 Q601.7484,220.1748 601.5375,220.4139 Q601.3266,220.6529 600.9891,220.6529 Q600.6797,220.6529 600.4969,220.4701 Q600.3141,220.3014 600.2156,219.8373 Q600.1734,219.5139 600.0047,219.3451 Q599.7094,219.0076 599.1609,218.8107 Q598.6125,218.6139 598.05,218.6139 Q597.3609,218.6139 596.7844,218.9092 Q596.2219,219.2045 595.7719,219.8795 Q595.3359,220.5545 595.3359,221.4826 L595.3359,222.467 Q595.3359,223.5779 596.1375,224.3232 Q596.9391,225.0545 598.3734,225.0545 Q599.2172,225.0545 599.8078,224.8295 Q600.1594,224.6889 600.5391,224.2951 Q600.7781,224.0561 600.9047,223.9857 Q601.0453,223.9154 601.2281,223.9154 Q601.5234,223.9154 601.7484,224.1545 Q601.9875,224.3795 601.9875,224.6889 Q601.9875,224.9982 601.6781,225.3639 Q601.2281,225.8842 600.5109,226.1795 Q599.5406,226.5873 598.3734,226.5873 Q597.0094,226.5873 595.9266,226.0248 Q595.0406,225.5748 594.4219,224.6186 Q593.8031,223.6482 593.8031,222.4951 L593.8031,221.4545 Q593.8031,220.2592 594.3516,219.2326 Q594.9141,218.192 595.8984,217.6436 Q596.8828,217.0811 597.9938,217.0811 Q598.6547,217.0811 599.2313,217.2357 Q599.8219,217.3764 600.3141,217.6998 Z " fill="#000000"/><text fill="#000000" font-family="sans-serif" font-size="12.6" lengthAdjust="spacing" textLength="29.7" x="616.275" y="226.6295">Rank</text><line style="stroke:#181818;stroke-width:0.45;" x1="529.65" x2="703.35" y1="235.8123" y2="235.8123"/><ellipse cx="538.65" cy="249.1418" fill="none" rx="2.7" ry="2.7" style="stroke:#038048;stroke-width:0.9;"/><text fill="#000000" font-family="sans-serif" font-size="12.6" lengthAdjust="spacing" textLength="45.9" x="546.75" y="253.009">id: Long</text><ellipse cx="538.65" cy="265.9008" fill="none" rx="2.7" ry="2.7" style="stroke:#038048;stroke-width:0.9;"/><text fill="#000000" font-family="sans-serif" font-size="12.6" lengthAdjust="spacing" textLength="152.1" x="546.75" y="269.768">rankPosition: RankPosition</text><ellipse cx="538.65" cy="282.6598" fill="none" rx="2.7" ry="2.7" style="stroke:#038048;stroke-width:0.9;"/><text fill="#000000" font-family="sans-serif" font-size="12.6" lengthAdjust="spacing" textLength="134.1" x="546.75" y="286.527">rankStatus: RankStatus</text><line style="stroke:#181818;stroke-width:0.45;" x1="529.65" x2="703.35" y1="293.2893" y2="293.2893"/></g><!--class RankStatus--><g id="elem_RankStatus"><rect codeLine="63" fill="#F1F1F1" height="93.477" id="RankStatus" rx="2.25" ry="2.25" style="stroke:#181818;stroke-width:0.45;" width="94.5" x="528.75" y="379.8123"/><ellipse cx="542.25" cy="394.2123" fill="#EB937F" rx="9.9" ry="9.9" style="stroke:#181818;stroke-width:0.9;"/><path d="M541.2234,394.9295 L541.2234,397.1795 L545.1188,397.1795 L545.1188,396.3498 Q545.1188,395.8014 545.3297,395.5623 Q545.5547,395.3232 545.8922,395.3232 Q546.2297,395.3232 546.4406,395.5623 Q546.6516,395.8014 546.6516,396.3498 L546.6516,398.7123 L539.4516,398.7123 Q538.8891,398.7123 538.65,398.5014 Q538.425,398.2904 538.425,397.9389 Q538.425,397.6014 538.6641,397.3904 Q538.9031,397.1795 539.4516,397.1795 L539.6906,397.1795 L539.6906,391.1889 L539.4516,391.1889 Q538.8891,391.1889 538.65,390.9779 Q538.425,390.767 538.425,390.4154 Q538.425,390.0779 538.65,389.867 Q538.8891,389.6561 539.4516,389.6561 L546.3141,389.6561 L546.3141,391.9904 Q546.3141,392.5389 546.1031,392.7779 Q545.9063,393.0029 545.5547,393.0029 Q545.2172,393.0029 545.0063,392.7779 Q544.7953,392.5389 544.7953,391.9904 L544.7953,391.1889 L541.2234,391.1889 L541.2234,393.3967 L542.5594,393.3967 Q542.5594,392.8061 542.6719,392.6373 Q542.9109,392.2717 543.3328,392.2717 Q543.6703,392.2717 543.8813,392.5107 Q544.0922,392.7357 544.0922,393.2842 L544.0922,395.0561 Q544.0922,395.5482 543.9797,395.717 Q543.7406,396.0686 543.3328,396.0686 Q542.9109,396.0686 542.6719,395.7029 Q542.5594,395.5342 542.5594,394.9295 L541.2234,394.9295 Z " fill="#000000"/><text fill="#000000" font-family="sans-serif" font-size="12.6" lengthAdjust="spacing" textLength="65.7" x="554.85" y="399.4295">RankStatus</text><line style="stroke:#181818;stroke-width:0.45;" x1="529.65" x2="622.35" y1="408.6123" y2="408.6123"/><text fill="#000000" font-family="sans-serif" font-size="12.6" lengthAdjust="spacing" textLength="74.7" x="534.15" y="425.809">UNSTARTED</text><text fill="#000000" font-family="sans-serif" font-size="12.6" lengthAdjust="spacing" textLength="58.5" x="534.15" y="442.568">STARTED</text><text fill="#000000" font-family="sans-serif" font-size="12.6" lengthAdjust="spacing" textLength="54.9" x="534.15" y="459.327">FINISHED</text><line style="stroke:#181818;stroke-width:0.45;" x1="529.65" x2="622.35" y1="466.0893" y2="466.0893"/></g><!--class RankPosition--><g id="elem_RankPosition"><rect codeLine="69" fill="#F1F1F1" height="59.959" id="RankPosition" rx="2.25" ry="2.25" style="stroke:#181818;stroke-width:0.45;" width="103.5" x="654.75" y="396.4623"/><ellipse cx="668.25" cy="410.8623" fill="#ADD1B2" rx="9.9" ry="9.9" style="stroke:#181818;stroke-width:0.9;"/><path d="M670.7391,407.1498 Q670.8797,406.9529 671.0484,406.8545 Q671.2172,406.7561 671.4141,406.7561 Q671.7516,406.7561 671.9625,406.9951 Q672.1734,407.2201 672.1734,407.7686 L672.1734,409.0764 Q672.1734,409.6248 671.9625,409.8639 Q671.7516,410.1029 671.4141,410.1029 Q671.1047,410.1029 670.9219,409.9201 Q670.7391,409.7514 670.6406,409.2873 Q670.5984,408.9639 670.4297,408.7951 Q670.1344,408.4576 669.5859,408.2607 Q669.0375,408.0639 668.475,408.0639 Q667.7859,408.0639 667.2094,408.3592 Q666.6469,408.6545 666.1969,409.3295 Q665.7609,410.0045 665.7609,410.9326 L665.7609,411.917 Q665.7609,413.0279 666.5625,413.7732 Q667.3641,414.5045 668.7984,414.5045 Q669.6422,414.5045 670.2328,414.2795 Q670.5844,414.1389 670.9641,413.7451 Q671.2031,413.5061 671.3297,413.4357 Q671.4703,413.3654 671.6531,413.3654 Q671.9484,413.3654 672.1734,413.6045 Q672.4125,413.8295 672.4125,414.1389 Q672.4125,414.4482 672.1031,414.8139 Q671.6531,415.3342 670.9359,415.6295 Q669.9656,416.0373 668.7984,416.0373 Q667.4344,416.0373 666.3516,415.4748 Q665.4656,415.0248 664.8469,414.0686 Q664.2281,413.0982 664.2281,411.9451 L664.2281,410.9045 Q664.2281,409.7092 664.7766,408.6826 Q665.3391,407.642 666.3234,407.0936 Q667.3078,406.5311 668.4188,406.5311 Q669.0797,406.5311 669.6563,406.6857 Q670.2469,406.8264 670.7391,407.1498 Z " fill="#000000"/><text fill="#000000" font-family="sans-serif" font-size="12.6" lengthAdjust="spacing" textLength="74.7" x="680.85" y="416.0795">RankPosition</text><line style="stroke:#181818;stroke-width:0.45;" x1="655.65" x2="757.35" y1="425.2623" y2="425.2623"/><ellipse cx="664.65" cy="438.5918" fill="none" rx="2.7" ry="2.7" style="stroke:#038048;stroke-width:0.9;"/><text fill="#000000" font-family="sans-serif" font-size="12.6" lengthAdjust="spacing" textLength="51.3" x="672.75" y="442.459">value: int</text><line style="stroke:#181818;stroke-width:0.45;" x1="655.65" x2="757.35" y1="449.2213" y2="449.2213"/></g><!--class Candidate--><g id="elem_Candidate"><rect codeLine="79" fill="#F1F1F1" height="59.959" id="Candidate" rx="2.25" ry="2.25" style="stroke:#181818;stroke-width:0.45;" width="198" x="607.5" y="585.9123"/><ellipse cx="673.425" cy="600.3123" fill="#ADD1B2" rx="9.9" ry="9.9" style="stroke:#181818;stroke-width:0.9;"/><path d="M675.9141,596.5998 Q676.0547,596.4029 676.2234,596.3045 Q676.3922,596.2061 676.5891,596.2061 Q676.9266,596.2061 677.1375,596.4451 Q677.3484,596.6701 677.3484,597.2186 L677.3484,598.5264 Q677.3484,599.0748 677.1375,599.3139 Q676.9266,599.5529 676.5891,599.5529 Q676.2797,599.5529 676.0969,599.3701 Q675.9141,599.2014 675.8156,598.7373 Q675.7734,598.4139 675.6047,598.2451 Q675.3094,597.9076 674.7609,597.7107 Q674.2125,597.5139 673.65,597.5139 Q672.9609,597.5139 672.3844,597.8092 Q671.8219,598.1045 671.3719,598.7795 Q670.9359,599.4545 670.9359,600.3826 L670.9359,601.367 Q670.9359,602.4779 671.7375,603.2232 Q672.5391,603.9545 673.9734,603.9545 Q674.8172,603.9545 675.4078,603.7295 Q675.7594,603.5889 676.1391,603.1951 Q676.3781,602.9561 676.5047,602.8857 Q676.6453,602.8154 676.8281,602.8154 Q677.1234,602.8154 677.3484,603.0545 Q677.5875,603.2795 677.5875,603.5889 Q677.5875,603.8982 677.2781,604.2639 Q676.8281,604.7842 676.1109,605.0795 Q675.1406,605.4873 673.9734,605.4873 Q672.6094,605.4873 671.5266,604.9248 Q670.6406,604.4748 670.0219,603.5186 Q669.4031,602.5482 669.4031,601.3951 L669.4031,600.3545 Q669.4031,599.1592 669.9516,598.1326 Q670.5141,597.092 671.4984,596.5436 Q672.4828,595.9811 673.5938,595.9811 Q674.2547,595.9811 674.8313,596.1357 Q675.4219,596.2764 675.9141,596.5998 Z " fill="#000000"/><text fill="#000000" font-family="sans-serif" font-size="12.6" lengthAdjust="spacing" textLength="58.5" x="691.875" y="605.5295">Candidate</text><line style="stroke:#181818;stroke-width:0.45;" x1="608.4" x2="804.6" y1="614.7123" y2="614.7123"/><ellipse cx="617.4" cy="628.0418" fill="none" rx="2.7" ry="2.7" style="stroke:#038048;stroke-width:0.9;"/><text fill="#000000" font-family="sans-serif" font-size="12.6" lengthAdjust="spacing" textLength="174.6" x="625.5" y="631.909">candidateEmail : EmailAddress</text><line style="stroke:#181818;stroke-width:0.45;" x1="608.4" x2="804.6" y1="638.6713" y2="638.6713"/></g><!--class EmailAddress--><g id="elem_EmailAddress"><rect codeLine="83" fill="#F1F1F1" height="59.959" id="EmailAddress" rx="2.25" ry="2.25" style="stroke:#181818;stroke-width:0.45;" width="106.2" x="653.4" y="736.2123"/><ellipse cx="666.9" cy="750.6123" fill="#ADD1B2" rx="9.9" ry="9.9" style="stroke:#181818;stroke-width:0.9;"/><path d="M669.3891,746.8998 Q669.5297,746.7029 669.6984,746.6045 Q669.8672,746.5061 670.0641,746.5061 Q670.4016,746.5061 670.6125,746.7451 Q670.8234,746.9701 670.8234,747.5186 L670.8234,748.8264 Q670.8234,749.3748 670.6125,749.6139 Q670.4016,749.8529 670.0641,749.8529 Q669.7547,749.8529 669.5719,749.6701 Q669.3891,749.5014 669.2906,749.0373 Q669.2484,748.7139 669.0797,748.5451 Q668.7844,748.2076 668.2359,748.0107 Q667.6875,747.8139 667.125,747.8139 Q666.4359,747.8139 665.8594,748.1092 Q665.2969,748.4045 664.8469,749.0795 Q664.4109,749.7545 664.4109,750.6826 L664.4109,751.667 Q664.4109,752.7779 665.2125,753.5232 Q666.0141,754.2545 667.4484,754.2545 Q668.2922,754.2545 668.8828,754.0295 Q669.2344,753.8889 669.6141,753.4951 Q669.8531,753.2561 669.9797,753.1857 Q670.1203,753.1154 670.3031,753.1154 Q670.5984,753.1154 670.8234,753.3545 Q671.0625,753.5795 671.0625,753.8889 Q671.0625,754.1982 670.7531,754.5639 Q670.3031,755.0842 669.5859,755.3795 Q668.6156,755.7873 667.4484,755.7873 Q666.0844,755.7873 665.0016,755.2248 Q664.1156,754.7748 663.4969,753.8186 Q662.8781,752.8482 662.8781,751.6951 L662.8781,750.6545 Q662.8781,749.4592 663.4266,748.4326 Q663.9891,747.392 664.9734,746.8436 Q665.9578,746.2811 667.0688,746.2811 Q667.7297,746.2811 668.3063,746.4357 Q668.8969,746.5764 669.3891,746.8998 Z " fill="#000000"/><text fill="#000000" font-family="sans-serif" font-size="12.6" lengthAdjust="spacing" textLength="77.4" x="679.5" y="755.8295">EmailAddress</text><line style="stroke:#181818;stroke-width:0.45;" x1="654.3" x2="758.7" y1="765.0123" y2="765.0123"/><ellipse cx="663.3" cy="778.3418" fill="none" rx="2.7" ry="2.7" style="stroke:#038048;stroke-width:0.9;"/><text fill="#000000" font-family="sans-serif" font-size="12.6" lengthAdjust="spacing" textLength="73.8" x="671.4" y="782.209">email : String</text><line style="stroke:#181818;stroke-width:0.45;" x1="654.3" x2="758.7" y1="788.9713" y2="788.9713"/></g><!--link JobOpening to RecruitmentProcess--><g id="link_JobOpening_RecruitmentProcess"><path codeLine="47" d="M350.1,115.4193 C350.1,142.1403 350.1,172.8033 350.1,201.2973 " fill="none" id="JobOpening-to-RecruitmentProcess" style="stroke:#181818;stroke-width:0.9;"/><polygon fill="#181818" points="350.1,206.6973,353.7,198.5973,350.1,202.1973,346.5,198.5973,350.1,206.6973" style="stroke:#181818;stroke-width:0.9;"/></g><!--link RecruitmentProcess to RecruitmentProcessStatus--><g id="link_RecruitmentProcess_RecruitmentProcessStatus"><path codeLine="48" d="M359.064,300.7653 C363.825,325.1913 368.6246,349.8339 373.3856,374.2779 " fill="none" id="RecruitmentProcess-to-RecruitmentProcessStatus" style="stroke:#181818;stroke-width:0.9;"/><polygon fill="#181818" points="374.418,379.5783,376.403,370.9395,373.5577,375.1613,369.3359,372.316,374.418,379.5783" style="stroke:#181818;stroke-width:0.9;"/></g><!--link RecruitmentProcess to Phase--><g id="link_RecruitmentProcess_Phase"><path codeLine="49" d="M296.739,300.9273 C287.559,309.5313 278.307,318.6483 270,327.6123 C257.301,341.3193 247.7661,352.7002 236.3181,367.4062 " fill="none" id="RecruitmentProcess-to-Phase" style="stroke:#181818;stroke-width:0.9;"/><polygon fill="#181818" points="233.001,371.6673,240.8174,367.487,235.7652,368.1164,235.1359,363.0643,233.001,371.6673" style="stroke:#181818;stroke-width:0.9;"/><text fill="#000000" font-family="sans-serif" font-size="11.7" lengthAdjust="spacing" textLength="86.4" x="270.9" y="341.1378">Is separated into</text></g><!--link Phase to PhaseName--><g id="link_Phase_PhaseName"><path codeLine="50" d="M157.482,481.5393 C142.686,503.7333 128.4558,525.0795 113.1108,548.0925 " fill="none" id="Phase-to-PhaseName" style="stroke:#181818;stroke-width:0.9;"/><polygon fill="#181818" points="110.115,552.5853,117.6039,547.8433,112.6115,548.8413,111.6135,543.8489,110.115,552.5853" style="stroke:#181818;stroke-width:0.9;"/></g><!--link Phase to StartDate--><g id="link_Phase_StartDate"><path codeLine="51" d="M192.465,481.5393 C191.817,515.4243 191.101,552.4243 190.57,580.2523 " fill="none" id="Phase-to-StartDate" style="stroke:#181818;stroke-width:0.9;"/><polygon fill="#181818" points="190.467,585.6513,194.2209,577.6215,190.5529,581.1521,187.0222,577.4841,190.467,585.6513" style="stroke:#181818;stroke-width:0.9;"/></g><!--link Phase to EndDate--><g id="link_Phase_EndDate"><path codeLine="52" d="M225.369,481.5393 C245.367,515.4243 267.6242,553.1729 284.0492,581.0009 " fill="none" id="Phase-to-EndDate" style="stroke:#181818;stroke-width:0.9;"/><polygon fill="#181818" points="286.794,585.6513,285.777,576.8459,284.5067,581.776,279.5765,580.5056,286.794,585.6513" style="stroke:#181818;stroke-width:0.9;"/></g><!--link Phase to PhaseStatus--><g id="link_Phase_PhaseStatus"><path codeLine="53" d="M259.632,481.5663 C265.797,486.2103 272.016,490.7643 278.1,495.0123 C313.407,519.6993 327.339,518.4033 360.9,545.4123 C372.771,554.9613 380.9079,562.6088 391.2489,573.5618 " fill="none" id="Phase-to-PhaseStatus" style="stroke:#181818;stroke-width:0.9;"/><polygon fill="#181818" points="394.956,577.4883,392.013,569.1272,391.8667,574.2162,386.7777,574.07,394.956,577.4883" style="stroke:#181818;stroke-width:0.9;"/></g><!--link Rank to RankPosition--><g id="link_Rank_RankPosition"><path codeLine="73" d="M640.737,300.7653 C656.721,331.1313 674.6627,365.2239 688.4867,391.4859 " fill="none" id="Rank-to-RankPosition" style="stroke:#181818;stroke-width:0.9;"/><polygon fill="#181818" points="691.002,396.2643,690.4147,387.4198,688.9059,392.2823,684.0434,390.7735,691.002,396.2643" style="stroke:#181818;stroke-width:0.9;"/></g><!--link Rank to RankStatus--><g id="link_Rank_RankStatus"><path codeLine="74" d="M605.592,300.7653 C599.805,325.1913 593.957,349.8796 588.17,374.3236 " fill="none" id="Rank-to-RankStatus" style="stroke:#181818;stroke-width:0.9;"/><polygon fill="#181818" points="586.926,379.5783,592.2952,372.5255,587.9627,375.1993,585.2889,370.8668,586.926,379.5783" style="stroke:#181818;stroke-width:0.9;"/></g><!--link JobOpening to Rank--><g id="link_JobOpening_Rank"><path codeLine="75" d="M411.777,115.3743 C436.932,130.9173 466.182,149.3043 492.3,166.5123 C511.821,179.3733 528.3518,190.6498 547.3868,203.9158 " fill="none" id="JobOpening-to-Rank" style="stroke:#181818;stroke-width:0.9;"/><polygon fill="#181818" points="551.817,207.0033,547.23,199.4185,548.1251,204.4303,543.1133,205.3255,551.817,207.0033" style="stroke:#181818;stroke-width:0.9;"/><text fill="#000000" font-family="sans-serif" font-size="11.7" lengthAdjust="spacing" textLength="18.9" x="482.4" y="155.7378">has</text></g><!--link Candidate to EmailAddress--><g id="link_Candidate_EmailAddress"><path codeLine="87" d="M706.5,646.3023 C706.5,672.3393 706.5,704.7663 706.5,730.7853 " fill="none" id="Candidate-to-EmailAddress" style="stroke:#181818;stroke-width:0.9;"/><polygon fill="#181818" points="706.5,736.1853,710.1,728.0853,706.5,731.6853,702.9,728.0853,706.5,736.1853" style="stroke:#181818;stroke-width:0.9;"/></g><!--link RankPosition to Candidate--><g id="link_RankPosition_Candidate"><path codeLine="88" d="M706.5,456.8343 C706.5,491.9793 706.5,545.1423 706.5,580.3413 " fill="none" id="RankPosition-to-Candidate" style="stroke:#181818;stroke-width:0.9;"/><polygon fill="#181818" points="706.5,585.7413,710.1,577.6413,706.5,581.2413,702.9,577.6413,706.5,585.7413" style="stroke:#181818;stroke-width:0.9;"/><text fill="#000000" font-family="sans-serif" font-size="11.7" lengthAdjust="spacing" textLength="63.9" x="707.4" y="522.0378">Is ranked by</text></g><!--SRC=[XLJDRfmm4BxdAT1Usxm0YY8XuZQE421CMlLKEU1GAxi6OM-bgigxnnXZZyskuWlucs_-PppHxeqEB7aQNwg92Iw6R1YI_pStYJxTaKe9H1fFxFd2-tIHDEoLpKnqp4jcrirdhavCg7eUEoPbcZGxpF3VWPiz9NR7XVA0L5ITBrecHkAPqnygcMOMNAgxUhdSM-V0ky5ZXmOiwOa5RcVrG1LB4xBzUYaJ_If3wyy-N6CIH6Y3OE9yykv07Cl9whh0UTRYglmQ24ZU85JYydi8ux95pG-CVf8Gpygi-4LmX3Q8F1VjlY8kFLYLtcJdKWiKRCwVqtsoQo60HbMZqbtoeYBeOQTvhUF0pBCk2cvnrbhrjIg_wwRA4I4E-gPPv35q0QRzzlR-sk1U6DRBRD3gAphhvAN90Sj4iedEkbhzCklZmQYjSiTqu-ZnS10z3eSmicB3qZbFzW5eg7XRLn-ifCRYdIX6CO1Trunwb5pnKQI6lzr23jcsrVtls-f4GID9cpMmZV7zKWzzz5iqC8k_z7Xc_ZMnEYPNqyCuYK02WeydPQ7fDkho7c1XSofwlYn2N5qdWC4btOQY4-L7RT1yixwV_QC9bmv8eHbcjOcQkMsOrVDkpOp4reEgBGpFNsTqQQSUq9T_EiiF]--></g></svg>