<?xml version="1.0" encoding="us-ascii" standalone="no"?><svg xmlns="http://www.w3.org/2000/svg" xmlns:xlink="http://www.w3.org/1999/xlink" contentStyleType="text/css" height="563px" preserveAspectRatio="none" style="width:1744px;height:563px;background:#FFFFFF;" version="1.1" viewBox="0 0 1744 563" width="1744px" zoomAndPan="magnify"><defs/><g><!--cluster JobOpeningAgg--><g id="cluster_JobOpeningAgg"><path d="M8.5,6 L122.5,6 A3.75,3.75 0 0 1 125,8.5 L132,29.6094 L1734.5,29.6094 A2.5,2.5 0 0 1 1737,32.1094 L1737,553.5 A2.5,2.5 0 0 1 1734.5,556 L8.5,556 A2.5,2.5 0 0 1 6,553.5 L6,8.5 A2.5,2.5 0 0 1 8.5,6 " fill="#BBAABB" style="stroke:#000000;stroke-width:1.5;"/><line style="stroke:#000000;stroke-width:1.5;" x1="6" x2="132" y1="29.6094" y2="29.6094"/><text fill="#000000" font-family="sans-serif" font-size="14" font-weight="bold" lengthAdjust="spacing" textLength="113" x="10" y="22.5332">JobOpeningAgg</text></g><!--class JobOpening--><g id="elem_JobOpening"><rect codeLine="2" fill="#F1F1F1" height="73.7969" id="JobOpening" rx="2.5" ry="2.5" style="stroke:#181818;stroke-width:0.5;" width="108" x="800" y="42"/><ellipse cx="815" cy="70.8984" fill="#ADD1B2" rx="11" ry="11" style="stroke:#181818;stroke-width:1.0;"/><path d="M817.7656,66.7734 Q817.9219,66.5547 818.1094,66.4453 Q818.2969,66.3359 818.5156,66.3359 Q818.8906,66.3359 819.125,66.6016 Q819.3594,66.8516 819.3594,67.4609 L819.3594,68.9141 Q819.3594,69.5234 819.125,69.7891 Q818.8906,70.0547 818.5156,70.0547 Q818.1719,70.0547 817.9688,69.8516 Q817.7656,69.6641 817.6563,69.1484 Q817.6094,68.7891 817.4219,68.6016 Q817.0938,68.2266 816.4844,68.0078 Q815.875,67.7891 815.25,67.7891 Q814.4844,67.7891 813.8438,68.1172 Q813.2188,68.4453 812.7188,69.1953 Q812.2344,69.9453 812.2344,70.9766 L812.2344,72.0703 Q812.2344,73.3047 813.125,74.1328 Q814.0156,74.9453 815.6094,74.9453 Q816.5469,74.9453 817.2031,74.6953 Q817.5938,74.5391 818.0156,74.1016 Q818.2813,73.8359 818.4219,73.7578 Q818.5781,73.6797 818.7813,73.6797 Q819.1094,73.6797 819.3594,73.9453 Q819.625,74.1953 819.625,74.5391 Q819.625,74.8828 819.2813,75.2891 Q818.7813,75.8672 817.9844,76.1953 Q816.9063,76.6484 815.6094,76.6484 Q814.0938,76.6484 812.8906,76.0234 Q811.9063,75.5234 811.2188,74.4609 Q810.5313,73.3828 810.5313,72.1016 L810.5313,70.9453 Q810.5313,69.6172 811.1406,68.4766 Q811.7656,67.3203 812.8594,66.7109 Q813.9531,66.0859 815.1875,66.0859 Q815.9219,66.0859 816.5625,66.2578 Q817.2188,66.4141 817.7656,66.7734 Z " fill="#000000"/><text fill="#000000" font-family="sans-serif" font-size="12" font-style="italic" lengthAdjust="spacing" textLength="40" x="847" y="59.457">&#171;Root&#187;</text><text fill="#000000" font-family="sans-serif" font-size="12" font-style="italic" lengthAdjust="spacing" textLength="44" x="845" y="74.5508">&#171;Entity&#187;</text><text fill="#000000" font-family="sans-serif" font-size="14" lengthAdjust="spacing" textLength="76" x="829" y="91.7207">JobOpening</text><line style="stroke:#181818;stroke-width:0.5;" x1="801" x2="907" y1="99.7969" y2="99.7969"/><line style="stroke:#181818;stroke-width:0.5;" x1="801" x2="907" y1="107.7969" y2="107.7969"/></g><!--class JobReference--><g id="elem_JobReference"><rect codeLine="3" fill="#F1F1F1" height="73.7969" id="JobReference" rx="2.5" ry="2.5" style="stroke:#181818;stroke-width:0.5;" width="120" x="22" y="194"/><ellipse cx="37" cy="222.8984" fill="#ADD1B2" rx="11" ry="11" style="stroke:#181818;stroke-width:1.0;"/><path d="M39.7656,218.7734 Q39.9219,218.5547 40.1094,218.4453 Q40.2969,218.3359 40.5156,218.3359 Q40.8906,218.3359 41.125,218.6016 Q41.3594,218.8516 41.3594,219.4609 L41.3594,220.9141 Q41.3594,221.5234 41.125,221.7891 Q40.8906,222.0547 40.5156,222.0547 Q40.1719,222.0547 39.9688,221.8516 Q39.7656,221.6641 39.6563,221.1484 Q39.6094,220.7891 39.4219,220.6016 Q39.0938,220.2266 38.4844,220.0078 Q37.875,219.7891 37.25,219.7891 Q36.4844,219.7891 35.8438,220.1172 Q35.2188,220.4453 34.7188,221.1953 Q34.2344,221.9453 34.2344,222.9766 L34.2344,224.0703 Q34.2344,225.3047 35.125,226.1328 Q36.0156,226.9453 37.6094,226.9453 Q38.5469,226.9453 39.2031,226.6953 Q39.5938,226.5391 40.0156,226.1016 Q40.2813,225.8359 40.4219,225.7578 Q40.5781,225.6797 40.7813,225.6797 Q41.1094,225.6797 41.3594,225.9453 Q41.625,226.1953 41.625,226.5391 Q41.625,226.8828 41.2813,227.2891 Q40.7813,227.8672 39.9844,228.1953 Q38.9063,228.6484 37.6094,228.6484 Q36.0938,228.6484 34.8906,228.0234 Q33.9063,227.5234 33.2188,226.4609 Q32.5313,225.3828 32.5313,224.1016 L32.5313,222.9453 Q32.5313,221.6172 33.1406,220.4766 Q33.7656,219.3203 34.8594,218.7109 Q35.9531,218.0859 37.1875,218.0859 Q37.9219,218.0859 38.5625,218.2578 Q39.2188,218.4141 39.7656,218.7734 Z " fill="#000000"/><text fill="#000000" font-family="sans-serif" font-size="12" font-style="italic" lengthAdjust="spacing" textLength="85" x="52.5" y="211.457">&#171;Value Object&#187;</text><text fill="#000000" font-family="sans-serif" font-size="12" font-style="italic" lengthAdjust="spacing" textLength="25" x="82.5" y="226.5508">&#171;Id&#187;</text><text fill="#000000" font-family="sans-serif" font-size="14" lengthAdjust="spacing" textLength="88" x="51" y="243.7207">JobReference</text><line style="stroke:#181818;stroke-width:0.5;" x1="23" x2="141" y1="251.7969" y2="251.7969"/><line style="stroke:#181818;stroke-width:0.5;" x1="23" x2="141" y1="259.7969" y2="259.7969"/></g><!--class NrVacancies--><g id="elem_NrVacancies"><rect codeLine="4" fill="#F1F1F1" height="58.7031" id="NrVacancies" rx="2.5" ry="2.5" style="stroke:#181818;stroke-width:0.5;" width="113" x="177.5" y="201.5"/><ellipse cx="192.5" cy="222.8516" fill="#ADD1B2" rx="11" ry="11" style="stroke:#181818;stroke-width:1.0;"/><path d="M195.2656,218.7266 Q195.4219,218.5078 195.6094,218.3984 Q195.7969,218.2891 196.0156,218.2891 Q196.3906,218.2891 196.625,218.5547 Q196.8594,218.8047 196.8594,219.4141 L196.8594,220.8672 Q196.8594,221.4766 196.625,221.7422 Q196.3906,222.0078 196.0156,222.0078 Q195.6719,222.0078 195.4688,221.8047 Q195.2656,221.6172 195.1563,221.1016 Q195.1094,220.7422 194.9219,220.5547 Q194.5938,220.1797 193.9844,219.9609 Q193.375,219.7422 192.75,219.7422 Q191.9844,219.7422 191.3438,220.0703 Q190.7188,220.3984 190.2188,221.1484 Q189.7344,221.8984 189.7344,222.9297 L189.7344,224.0234 Q189.7344,225.2578 190.625,226.0859 Q191.5156,226.8984 193.1094,226.8984 Q194.0469,226.8984 194.7031,226.6484 Q195.0938,226.4922 195.5156,226.0547 Q195.7813,225.7891 195.9219,225.7109 Q196.0781,225.6328 196.2813,225.6328 Q196.6094,225.6328 196.8594,225.8984 Q197.125,226.1484 197.125,226.4922 Q197.125,226.8359 196.7813,227.2422 Q196.2813,227.8203 195.4844,228.1484 Q194.4063,228.6016 193.1094,228.6016 Q191.5938,228.6016 190.3906,227.9766 Q189.4063,227.4766 188.7188,226.4141 Q188.0313,225.3359 188.0313,224.0547 L188.0313,222.8984 Q188.0313,221.5703 188.6406,220.4297 Q189.2656,219.2734 190.3594,218.6641 Q191.4531,218.0391 192.6875,218.0391 Q193.4219,218.0391 194.0625,218.2109 Q194.7188,218.3672 195.2656,218.7266 Z " fill="#000000"/><text fill="#000000" font-family="sans-serif" font-size="12" font-style="italic" lengthAdjust="spacing" textLength="85" x="204.5" y="218.957">&#171;Value Object&#187;</text><text fill="#000000" font-family="sans-serif" font-size="14" lengthAdjust="spacing" textLength="79" x="207.5" y="236.127">NrVacancies</text><line style="stroke:#181818;stroke-width:0.5;" x1="178.5" x2="289.5" y1="244.2031" y2="244.2031"/><line style="stroke:#181818;stroke-width:0.5;" x1="178.5" x2="289.5" y1="252.2031" y2="252.2031"/></g><!--class JobOpeningTitle--><g id="elem_JobOpeningTitle"><rect codeLine="5" fill="#F1F1F1" height="58.7031" id="JobOpeningTitle" rx="2.5" ry="2.5" style="stroke:#181818;stroke-width:0.5;" width="135" x="325.5" y="201.5"/><ellipse cx="340.5" cy="222.8516" fill="#ADD1B2" rx="11" ry="11" style="stroke:#181818;stroke-width:1.0;"/><path d="M343.2656,218.7266 Q343.4219,218.5078 343.6094,218.3984 Q343.7969,218.2891 344.0156,218.2891 Q344.3906,218.2891 344.625,218.5547 Q344.8594,218.8047 344.8594,219.4141 L344.8594,220.8672 Q344.8594,221.4766 344.625,221.7422 Q344.3906,222.0078 344.0156,222.0078 Q343.6719,222.0078 343.4688,221.8047 Q343.2656,221.6172 343.1563,221.1016 Q343.1094,220.7422 342.9219,220.5547 Q342.5938,220.1797 341.9844,219.9609 Q341.375,219.7422 340.75,219.7422 Q339.9844,219.7422 339.3438,220.0703 Q338.7188,220.3984 338.2188,221.1484 Q337.7344,221.8984 337.7344,222.9297 L337.7344,224.0234 Q337.7344,225.2578 338.625,226.0859 Q339.5156,226.8984 341.1094,226.8984 Q342.0469,226.8984 342.7031,226.6484 Q343.0938,226.4922 343.5156,226.0547 Q343.7813,225.7891 343.9219,225.7109 Q344.0781,225.6328 344.2813,225.6328 Q344.6094,225.6328 344.8594,225.8984 Q345.125,226.1484 345.125,226.4922 Q345.125,226.8359 344.7813,227.2422 Q344.2813,227.8203 343.4844,228.1484 Q342.4063,228.6016 341.1094,228.6016 Q339.5938,228.6016 338.3906,227.9766 Q337.4063,227.4766 336.7188,226.4141 Q336.0313,225.3359 336.0313,224.0547 L336.0313,222.8984 Q336.0313,221.5703 336.6406,220.4297 Q337.2656,219.2734 338.3594,218.6641 Q339.4531,218.0391 340.6875,218.0391 Q341.4219,218.0391 342.0625,218.2109 Q342.7188,218.3672 343.2656,218.7266 Z " fill="#000000"/><text fill="#000000" font-family="sans-serif" font-size="12" font-style="italic" lengthAdjust="spacing" textLength="85" x="363.5" y="218.957">&#171;Value Object&#187;</text><text fill="#000000" font-family="sans-serif" font-size="14" lengthAdjust="spacing" textLength="103" x="354.5" y="236.127">JobOpeningTitle</text><line style="stroke:#181818;stroke-width:0.5;" x1="326.5" x2="459.5" y1="244.2031" y2="244.2031"/><line style="stroke:#181818;stroke-width:0.5;" x1="326.5" x2="459.5" y1="252.2031" y2="252.2031"/></g><!--class ContractType--><g id="elem_ContractType"><rect codeLine="6" fill="#F1F1F1" height="58.7031" id="ContractType" rx="2.5" ry="2.5" style="stroke:#181818;stroke-width:0.5;" width="118" x="496" y="201.5"/><ellipse cx="511" cy="222.8516" fill="#ADD1B2" rx="11" ry="11" style="stroke:#181818;stroke-width:1.0;"/><path d="M513.7656,218.7266 Q513.9219,218.5078 514.1094,218.3984 Q514.2969,218.2891 514.5156,218.2891 Q514.8906,218.2891 515.125,218.5547 Q515.3594,218.8047 515.3594,219.4141 L515.3594,220.8672 Q515.3594,221.4766 515.125,221.7422 Q514.8906,222.0078 514.5156,222.0078 Q514.1719,222.0078 513.9688,221.8047 Q513.7656,221.6172 513.6563,221.1016 Q513.6094,220.7422 513.4219,220.5547 Q513.0938,220.1797 512.4844,219.9609 Q511.875,219.7422 511.25,219.7422 Q510.4844,219.7422 509.8438,220.0703 Q509.2188,220.3984 508.7188,221.1484 Q508.2344,221.8984 508.2344,222.9297 L508.2344,224.0234 Q508.2344,225.2578 509.125,226.0859 Q510.0156,226.8984 511.6094,226.8984 Q512.5469,226.8984 513.2031,226.6484 Q513.5938,226.4922 514.0156,226.0547 Q514.2813,225.7891 514.4219,225.7109 Q514.5781,225.6328 514.7813,225.6328 Q515.1094,225.6328 515.3594,225.8984 Q515.625,226.1484 515.625,226.4922 Q515.625,226.8359 515.2813,227.2422 Q514.7813,227.8203 513.9844,228.1484 Q512.9063,228.6016 511.6094,228.6016 Q510.0938,228.6016 508.8906,227.9766 Q507.9063,227.4766 507.2188,226.4141 Q506.5313,225.3359 506.5313,224.0547 L506.5313,222.8984 Q506.5313,221.5703 507.1406,220.4297 Q507.7656,219.2734 508.8594,218.6641 Q509.9531,218.0391 511.1875,218.0391 Q511.9219,218.0391 512.5625,218.2109 Q513.2188,218.3672 513.7656,218.7266 Z " fill="#000000"/><text fill="#000000" font-family="sans-serif" font-size="12" font-style="italic" lengthAdjust="spacing" textLength="85" x="525.5" y="218.957">&#171;Value Object&#187;</text><text fill="#000000" font-family="sans-serif" font-size="14" lengthAdjust="spacing" textLength="86" x="525" y="236.127">ContractType</text><line style="stroke:#181818;stroke-width:0.5;" x1="497" x2="613" y1="244.2031" y2="244.2031"/><line style="stroke:#181818;stroke-width:0.5;" x1="497" x2="613" y1="252.2031" y2="252.2031"/></g><!--class Description--><g id="elem_Description"><rect codeLine="7" fill="#F1F1F1" height="58.7031" id="Description" rx="2.5" ry="2.5" style="stroke:#181818;stroke-width:0.5;" width="113" x="649.5" y="201.5"/><ellipse cx="664.5" cy="222.8516" fill="#ADD1B2" rx="11" ry="11" style="stroke:#181818;stroke-width:1.0;"/><path d="M667.2656,218.7266 Q667.4219,218.5078 667.6094,218.3984 Q667.7969,218.2891 668.0156,218.2891 Q668.3906,218.2891 668.625,218.5547 Q668.8594,218.8047 668.8594,219.4141 L668.8594,220.8672 Q668.8594,221.4766 668.625,221.7422 Q668.3906,222.0078 668.0156,222.0078 Q667.6719,222.0078 667.4688,221.8047 Q667.2656,221.6172 667.1563,221.1016 Q667.1094,220.7422 666.9219,220.5547 Q666.5938,220.1797 665.9844,219.9609 Q665.375,219.7422 664.75,219.7422 Q663.9844,219.7422 663.3438,220.0703 Q662.7188,220.3984 662.2188,221.1484 Q661.7344,221.8984 661.7344,222.9297 L661.7344,224.0234 Q661.7344,225.2578 662.625,226.0859 Q663.5156,226.8984 665.1094,226.8984 Q666.0469,226.8984 666.7031,226.6484 Q667.0938,226.4922 667.5156,226.0547 Q667.7813,225.7891 667.9219,225.7109 Q668.0781,225.6328 668.2813,225.6328 Q668.6094,225.6328 668.8594,225.8984 Q669.125,226.1484 669.125,226.4922 Q669.125,226.8359 668.7813,227.2422 Q668.2813,227.8203 667.4844,228.1484 Q666.4063,228.6016 665.1094,228.6016 Q663.5938,228.6016 662.3906,227.9766 Q661.4063,227.4766 660.7188,226.4141 Q660.0313,225.3359 660.0313,224.0547 L660.0313,222.8984 Q660.0313,221.5703 660.6406,220.4297 Q661.2656,219.2734 662.3594,218.6641 Q663.4531,218.0391 664.6875,218.0391 Q665.4219,218.0391 666.0625,218.2109 Q666.7188,218.3672 667.2656,218.7266 Z " fill="#000000"/><text fill="#000000" font-family="sans-serif" font-size="12" font-style="italic" lengthAdjust="spacing" textLength="85" x="676.5" y="218.957">&#171;Value Object&#187;</text><text fill="#000000" font-family="sans-serif" font-size="14" lengthAdjust="spacing" textLength="71" x="683.5" y="236.127">Description</text><line style="stroke:#181818;stroke-width:0.5;" x1="650.5" x2="761.5" y1="244.2031" y2="244.2031"/><line style="stroke:#181818;stroke-width:0.5;" x1="650.5" x2="761.5" y1="252.2031" y2="252.2031"/></g><!--class Address--><g id="elem_Address"><rect codeLine="8" fill="#F1F1F1" height="58.7031" id="Address" rx="2.5" ry="2.5" style="stroke:#181818;stroke-width:0.5;" width="113" x="797.5" y="201.5"/><ellipse cx="812.5" cy="222.8516" fill="#ADD1B2" rx="11" ry="11" style="stroke:#181818;stroke-width:1.0;"/><path d="M815.2656,218.7266 Q815.4219,218.5078 815.6094,218.3984 Q815.7969,218.2891 816.0156,218.2891 Q816.3906,218.2891 816.625,218.5547 Q816.8594,218.8047 816.8594,219.4141 L816.8594,220.8672 Q816.8594,221.4766 816.625,221.7422 Q816.3906,222.0078 816.0156,222.0078 Q815.6719,222.0078 815.4688,221.8047 Q815.2656,221.6172 815.1563,221.1016 Q815.1094,220.7422 814.9219,220.5547 Q814.5938,220.1797 813.9844,219.9609 Q813.375,219.7422 812.75,219.7422 Q811.9844,219.7422 811.3438,220.0703 Q810.7188,220.3984 810.2188,221.1484 Q809.7344,221.8984 809.7344,222.9297 L809.7344,224.0234 Q809.7344,225.2578 810.625,226.0859 Q811.5156,226.8984 813.1094,226.8984 Q814.0469,226.8984 814.7031,226.6484 Q815.0938,226.4922 815.5156,226.0547 Q815.7813,225.7891 815.9219,225.7109 Q816.0781,225.6328 816.2813,225.6328 Q816.6094,225.6328 816.8594,225.8984 Q817.125,226.1484 817.125,226.4922 Q817.125,226.8359 816.7813,227.2422 Q816.2813,227.8203 815.4844,228.1484 Q814.4063,228.6016 813.1094,228.6016 Q811.5938,228.6016 810.3906,227.9766 Q809.4063,227.4766 808.7188,226.4141 Q808.0313,225.3359 808.0313,224.0547 L808.0313,222.8984 Q808.0313,221.5703 808.6406,220.4297 Q809.2656,219.2734 810.3594,218.6641 Q811.4531,218.0391 812.6875,218.0391 Q813.4219,218.0391 814.0625,218.2109 Q814.7188,218.3672 815.2656,218.7266 Z " fill="#000000"/><text fill="#000000" font-family="sans-serif" font-size="12" font-style="italic" lengthAdjust="spacing" textLength="85" x="824.5" y="218.957">&#171;Value Object&#187;</text><text fill="#000000" font-family="sans-serif" font-size="14" lengthAdjust="spacing" textLength="52" x="841" y="236.127">Address</text><line style="stroke:#181818;stroke-width:0.5;" x1="798.5" x2="909.5" y1="244.2031" y2="244.2031"/><line style="stroke:#181818;stroke-width:0.5;" x1="798.5" x2="909.5" y1="252.2031" y2="252.2031"/></g><!--class JobMode--><g id="elem_JobMode"><rect codeLine="9" fill="#F1F1F1" height="58.7031" id="JobMode" rx="2.5" ry="2.5" style="stroke:#181818;stroke-width:0.5;" width="113" x="945.5" y="201.5"/><ellipse cx="960.5" cy="222.8516" fill="#ADD1B2" rx="11" ry="11" style="stroke:#181818;stroke-width:1.0;"/><path d="M963.2656,218.7266 Q963.4219,218.5078 963.6094,218.3984 Q963.7969,218.2891 964.0156,218.2891 Q964.3906,218.2891 964.625,218.5547 Q964.8594,218.8047 964.8594,219.4141 L964.8594,220.8672 Q964.8594,221.4766 964.625,221.7422 Q964.3906,222.0078 964.0156,222.0078 Q963.6719,222.0078 963.4688,221.8047 Q963.2656,221.6172 963.1563,221.1016 Q963.1094,220.7422 962.9219,220.5547 Q962.5938,220.1797 961.9844,219.9609 Q961.375,219.7422 960.75,219.7422 Q959.9844,219.7422 959.3438,220.0703 Q958.7188,220.3984 958.2188,221.1484 Q957.7344,221.8984 957.7344,222.9297 L957.7344,224.0234 Q957.7344,225.2578 958.625,226.0859 Q959.5156,226.8984 961.1094,226.8984 Q962.0469,226.8984 962.7031,226.6484 Q963.0938,226.4922 963.5156,226.0547 Q963.7813,225.7891 963.9219,225.7109 Q964.0781,225.6328 964.2813,225.6328 Q964.6094,225.6328 964.8594,225.8984 Q965.125,226.1484 965.125,226.4922 Q965.125,226.8359 964.7813,227.2422 Q964.2813,227.8203 963.4844,228.1484 Q962.4063,228.6016 961.1094,228.6016 Q959.5938,228.6016 958.3906,227.9766 Q957.4063,227.4766 956.7188,226.4141 Q956.0313,225.3359 956.0313,224.0547 L956.0313,222.8984 Q956.0313,221.5703 956.6406,220.4297 Q957.2656,219.2734 958.3594,218.6641 Q959.4531,218.0391 960.6875,218.0391 Q961.4219,218.0391 962.0625,218.2109 Q962.7188,218.3672 963.2656,218.7266 Z " fill="#000000"/><text fill="#000000" font-family="sans-serif" font-size="12" font-style="italic" lengthAdjust="spacing" textLength="85" x="972.5" y="218.957">&#171;Value Object&#187;</text><text fill="#000000" font-family="sans-serif" font-size="14" lengthAdjust="spacing" textLength="57" x="986.5" y="236.127">JobMode</text><line style="stroke:#181818;stroke-width:0.5;" x1="946.5" x2="1057.5" y1="244.2031" y2="244.2031"/><line style="stroke:#181818;stroke-width:0.5;" x1="946.5" x2="1057.5" y1="252.2031" y2="252.2031"/></g><!--class JobState--><g id="elem_JobState"><rect codeLine="10" fill="#F1F1F1" height="73.7969" id="JobState" rx="2.5" ry="2.5" style="stroke:#181818;stroke-width:0.5;" width="113" x="1093.5" y="194"/><ellipse cx="1108.5" cy="222.8984" fill="#ADD1B2" rx="11" ry="11" style="stroke:#181818;stroke-width:1.0;"/><path d="M1111.2656,218.7734 Q1111.4219,218.5547 1111.6094,218.4453 Q1111.7969,218.3359 1112.0156,218.3359 Q1112.3906,218.3359 1112.625,218.6016 Q1112.8594,218.8516 1112.8594,219.4609 L1112.8594,220.9141 Q1112.8594,221.5234 1112.625,221.7891 Q1112.3906,222.0547 1112.0156,222.0547 Q1111.6719,222.0547 1111.4688,221.8516 Q1111.2656,221.6641 1111.1563,221.1484 Q1111.1094,220.7891 1110.9219,220.6016 Q1110.5938,220.2266 1109.9844,220.0078 Q1109.375,219.7891 1108.75,219.7891 Q1107.9844,219.7891 1107.3438,220.1172 Q1106.7188,220.4453 1106.2188,221.1953 Q1105.7344,221.9453 1105.7344,222.9766 L1105.7344,224.0703 Q1105.7344,225.3047 1106.625,226.1328 Q1107.5156,226.9453 1109.1094,226.9453 Q1110.0469,226.9453 1110.7031,226.6953 Q1111.0938,226.5391 1111.5156,226.1016 Q1111.7813,225.8359 1111.9219,225.7578 Q1112.0781,225.6797 1112.2813,225.6797 Q1112.6094,225.6797 1112.8594,225.9453 Q1113.125,226.1953 1113.125,226.5391 Q1113.125,226.8828 1112.7813,227.2891 Q1112.2813,227.8672 1111.4844,228.1953 Q1110.4063,228.6484 1109.1094,228.6484 Q1107.5938,228.6484 1106.3906,228.0234 Q1105.4063,227.5234 1104.7188,226.4609 Q1104.0313,225.3828 1104.0313,224.1016 L1104.0313,222.9453 Q1104.0313,221.6172 1104.6406,220.4766 Q1105.2656,219.3203 1106.3594,218.7109 Q1107.4531,218.0859 1108.6875,218.0859 Q1109.4219,218.0859 1110.0625,218.2578 Q1110.7188,218.4141 1111.2656,218.7734 Z " fill="#000000"/><text fill="#000000" font-family="sans-serif" font-size="12" font-style="italic" lengthAdjust="spacing" textLength="47" x="1139.5" y="211.457">&#171;Enum&#187;</text><text fill="#000000" font-family="sans-serif" font-size="12" font-style="italic" lengthAdjust="spacing" textLength="85" x="1120.5" y="226.5508">&#171;Value Object&#187;</text><text fill="#000000" font-family="sans-serif" font-size="14" lengthAdjust="spacing" textLength="55" x="1135.5" y="243.7207">JobState</text><line style="stroke:#181818;stroke-width:0.5;" x1="1094.5" x2="1205.5" y1="251.7969" y2="251.7969"/><line style="stroke:#181818;stroke-width:0.5;" x1="1094.5" x2="1205.5" y1="259.7969" y2="259.7969"/></g><!--class StartDate--><g id="elem_StartDate"><rect codeLine="11" fill="#F1F1F1" height="58.7031" id="StartDate" rx="2.5" ry="2.5" style="stroke:#181818;stroke-width:0.5;" width="113" x="1166.5" y="473.5"/><ellipse cx="1181.5" cy="494.8516" fill="#ADD1B2" rx="11" ry="11" style="stroke:#181818;stroke-width:1.0;"/><path d="M1184.2656,490.7266 Q1184.4219,490.5078 1184.6094,490.3984 Q1184.7969,490.2891 1185.0156,490.2891 Q1185.3906,490.2891 1185.625,490.5547 Q1185.8594,490.8047 1185.8594,491.4141 L1185.8594,492.8672 Q1185.8594,493.4766 1185.625,493.7422 Q1185.3906,494.0078 1185.0156,494.0078 Q1184.6719,494.0078 1184.4688,493.8047 Q1184.2656,493.6172 1184.1563,493.1016 Q1184.1094,492.7422 1183.9219,492.5547 Q1183.5938,492.1797 1182.9844,491.9609 Q1182.375,491.7422 1181.75,491.7422 Q1180.9844,491.7422 1180.3438,492.0703 Q1179.7188,492.3984 1179.2188,493.1484 Q1178.7344,493.8984 1178.7344,494.9297 L1178.7344,496.0234 Q1178.7344,497.2578 1179.625,498.0859 Q1180.5156,498.8984 1182.1094,498.8984 Q1183.0469,498.8984 1183.7031,498.6484 Q1184.0938,498.4922 1184.5156,498.0547 Q1184.7813,497.7891 1184.9219,497.7109 Q1185.0781,497.6328 1185.2813,497.6328 Q1185.6094,497.6328 1185.8594,497.8984 Q1186.125,498.1484 1186.125,498.4922 Q1186.125,498.8359 1185.7813,499.2422 Q1185.2813,499.8203 1184.4844,500.1484 Q1183.4063,500.6016 1182.1094,500.6016 Q1180.5938,500.6016 1179.3906,499.9766 Q1178.4063,499.4766 1177.7188,498.4141 Q1177.0313,497.3359 1177.0313,496.0547 L1177.0313,494.8984 Q1177.0313,493.5703 1177.6406,492.4297 Q1178.2656,491.2734 1179.3594,490.6641 Q1180.4531,490.0391 1181.6875,490.0391 Q1182.4219,490.0391 1183.0625,490.2109 Q1183.7188,490.3672 1184.2656,490.7266 Z " fill="#000000"/><text fill="#000000" font-family="sans-serif" font-size="12" font-style="italic" lengthAdjust="spacing" textLength="85" x="1193.5" y="490.957">&#171;Value Object&#187;</text><text fill="#000000" font-family="sans-serif" font-size="14" lengthAdjust="spacing" textLength="60" x="1206" y="508.127">StartDate</text><line style="stroke:#181818;stroke-width:0.5;" x1="1167.5" x2="1278.5" y1="516.2031" y2="516.2031"/><line style="stroke:#181818;stroke-width:0.5;" x1="1167.5" x2="1278.5" y1="524.2031" y2="524.2031"/></g><!--class Phase--><g id="elem_Phase"><rect codeLine="13" fill="#F1F1F1" height="58.7031" id="Phase" rx="2.5" ry="2.5" style="stroke:#181818;stroke-width:0.5;" width="72" x="1477" y="346"/><ellipse cx="1492" cy="367.3516" fill="#ADD1B2" rx="11" ry="11" style="stroke:#181818;stroke-width:1.0;"/><path d="M1494.7656,363.2266 Q1494.9219,363.0078 1495.1094,362.8984 Q1495.2969,362.7891 1495.5156,362.7891 Q1495.8906,362.7891 1496.125,363.0547 Q1496.3594,363.3047 1496.3594,363.9141 L1496.3594,365.3672 Q1496.3594,365.9766 1496.125,366.2422 Q1495.8906,366.5078 1495.5156,366.5078 Q1495.1719,366.5078 1494.9688,366.3047 Q1494.7656,366.1172 1494.6563,365.6016 Q1494.6094,365.2422 1494.4219,365.0547 Q1494.0938,364.6797 1493.4844,364.4609 Q1492.875,364.2422 1492.25,364.2422 Q1491.4844,364.2422 1490.8438,364.5703 Q1490.2188,364.8984 1489.7188,365.6484 Q1489.2344,366.3984 1489.2344,367.4297 L1489.2344,368.5234 Q1489.2344,369.7578 1490.125,370.5859 Q1491.0156,371.3984 1492.6094,371.3984 Q1493.5469,371.3984 1494.2031,371.1484 Q1494.5938,370.9922 1495.0156,370.5547 Q1495.2813,370.2891 1495.4219,370.2109 Q1495.5781,370.1328 1495.7813,370.1328 Q1496.1094,370.1328 1496.3594,370.3984 Q1496.625,370.6484 1496.625,370.9922 Q1496.625,371.3359 1496.2813,371.7422 Q1495.7813,372.3203 1494.9844,372.6484 Q1493.9063,373.1016 1492.6094,373.1016 Q1491.0938,373.1016 1489.8906,372.4766 Q1488.9063,371.9766 1488.2188,370.9141 Q1487.5313,369.8359 1487.5313,368.5547 L1487.5313,367.3984 Q1487.5313,366.0703 1488.1406,364.9297 Q1488.7656,363.7734 1489.8594,363.1641 Q1490.9531,362.5391 1492.1875,362.5391 Q1492.9219,362.5391 1493.5625,362.7109 Q1494.2188,362.8672 1494.7656,363.2266 Z " fill="#000000"/><text fill="#000000" font-family="sans-serif" font-size="12" font-style="italic" lengthAdjust="spacing" textLength="44" x="1504" y="363.457">&#171;Entity&#187;</text><text fill="#000000" font-family="sans-serif" font-size="14" lengthAdjust="spacing" textLength="40" x="1506" y="380.627">Phase</text><line style="stroke:#181818;stroke-width:0.5;" x1="1478" x2="1548" y1="388.7031" y2="388.7031"/><line style="stroke:#181818;stroke-width:0.5;" x1="1478" x2="1548" y1="396.7031" y2="396.7031"/></g><!--class PhaseName--><g id="elem_PhaseName"><rect codeLine="14" fill="#F1F1F1" height="73.7969" id="PhaseName" rx="2.5" ry="2.5" style="stroke:#181818;stroke-width:0.5;" width="108" x="1315" y="466"/><ellipse cx="1330" cy="494.8984" fill="#ADD1B2" rx="11" ry="11" style="stroke:#181818;stroke-width:1.0;"/><path d="M1332.7656,490.7734 Q1332.9219,490.5547 1333.1094,490.4453 Q1333.2969,490.3359 1333.5156,490.3359 Q1333.8906,490.3359 1334.125,490.6016 Q1334.3594,490.8516 1334.3594,491.4609 L1334.3594,492.9141 Q1334.3594,493.5234 1334.125,493.7891 Q1333.8906,494.0547 1333.5156,494.0547 Q1333.1719,494.0547 1332.9688,493.8516 Q1332.7656,493.6641 1332.6563,493.1484 Q1332.6094,492.7891 1332.4219,492.6016 Q1332.0938,492.2266 1331.4844,492.0078 Q1330.875,491.7891 1330.25,491.7891 Q1329.4844,491.7891 1328.8438,492.1172 Q1328.2188,492.4453 1327.7188,493.1953 Q1327.2344,493.9453 1327.2344,494.9766 L1327.2344,496.0703 Q1327.2344,497.3047 1328.125,498.1328 Q1329.0156,498.9453 1330.6094,498.9453 Q1331.5469,498.9453 1332.2031,498.6953 Q1332.5938,498.5391 1333.0156,498.1016 Q1333.2813,497.8359 1333.4219,497.7578 Q1333.5781,497.6797 1333.7813,497.6797 Q1334.1094,497.6797 1334.3594,497.9453 Q1334.625,498.1953 1334.625,498.5391 Q1334.625,498.8828 1334.2813,499.2891 Q1333.7813,499.8672 1332.9844,500.1953 Q1331.9063,500.6484 1330.6094,500.6484 Q1329.0938,500.6484 1327.8906,500.0234 Q1326.9063,499.5234 1326.2188,498.4609 Q1325.5313,497.3828 1325.5313,496.1016 L1325.5313,494.9453 Q1325.5313,493.6172 1326.1406,492.4766 Q1326.7656,491.3203 1327.8594,490.7109 Q1328.9531,490.0859 1330.1875,490.0859 Q1330.9219,490.0859 1331.5625,490.2578 Q1332.2188,490.4141 1332.7656,490.7734 Z " fill="#000000"/><text fill="#000000" font-family="sans-serif" font-size="12" font-style="italic" lengthAdjust="spacing" textLength="47" x="1358.5" y="483.457">&#171;Enum&#187;</text><text fill="#000000" font-family="sans-serif" font-size="12" font-style="italic" lengthAdjust="spacing" textLength="25" x="1369.5" y="498.5508">&#171;Id&#187;</text><text fill="#000000" font-family="sans-serif" font-size="14" lengthAdjust="spacing" textLength="76" x="1344" y="515.7207">PhaseName</text><line style="stroke:#181818;stroke-width:0.5;" x1="1316" x2="1422" y1="523.7969" y2="523.7969"/><line style="stroke:#181818;stroke-width:0.5;" x1="1316" x2="1422" y1="531.7969" y2="531.7969"/></g><!--class JobActiveSinceDate--><g id="elem_JobActiveSinceDate"><rect codeLine="15" fill="#F1F1F1" height="58.7031" id="JobActiveSinceDate" rx="2.5" ry="2.5" style="stroke:#181818;stroke-width:0.5;" width="157" x="1241.5" y="201.5"/><ellipse cx="1256.5" cy="222.8516" fill="#ADD1B2" rx="11" ry="11" style="stroke:#181818;stroke-width:1.0;"/><path d="M1259.2656,218.7266 Q1259.4219,218.5078 1259.6094,218.3984 Q1259.7969,218.2891 1260.0156,218.2891 Q1260.3906,218.2891 1260.625,218.5547 Q1260.8594,218.8047 1260.8594,219.4141 L1260.8594,220.8672 Q1260.8594,221.4766 1260.625,221.7422 Q1260.3906,222.0078 1260.0156,222.0078 Q1259.6719,222.0078 1259.4688,221.8047 Q1259.2656,221.6172 1259.1563,221.1016 Q1259.1094,220.7422 1258.9219,220.5547 Q1258.5938,220.1797 1257.9844,219.9609 Q1257.375,219.7422 1256.75,219.7422 Q1255.9844,219.7422 1255.3438,220.0703 Q1254.7188,220.3984 1254.2188,221.1484 Q1253.7344,221.8984 1253.7344,222.9297 L1253.7344,224.0234 Q1253.7344,225.2578 1254.625,226.0859 Q1255.5156,226.8984 1257.1094,226.8984 Q1258.0469,226.8984 1258.7031,226.6484 Q1259.0938,226.4922 1259.5156,226.0547 Q1259.7813,225.7891 1259.9219,225.7109 Q1260.0781,225.6328 1260.2813,225.6328 Q1260.6094,225.6328 1260.8594,225.8984 Q1261.125,226.1484 1261.125,226.4922 Q1261.125,226.8359 1260.7813,227.2422 Q1260.2813,227.8203 1259.4844,228.1484 Q1258.4063,228.6016 1257.1094,228.6016 Q1255.5938,228.6016 1254.3906,227.9766 Q1253.4063,227.4766 1252.7188,226.4141 Q1252.0313,225.3359 1252.0313,224.0547 L1252.0313,222.8984 Q1252.0313,221.5703 1252.6406,220.4297 Q1253.2656,219.2734 1254.3594,218.6641 Q1255.4531,218.0391 1256.6875,218.0391 Q1257.4219,218.0391 1258.0625,218.2109 Q1258.7188,218.3672 1259.2656,218.7266 Z " fill="#000000"/><text fill="#000000" font-family="sans-serif" font-size="12" font-style="italic" lengthAdjust="spacing" textLength="85" x="1290.5" y="218.957">&#171;Value Object&#187;</text><text fill="#000000" font-family="sans-serif" font-size="14" lengthAdjust="spacing" textLength="125" x="1270.5" y="236.127">JobActiveSinceDate</text><line style="stroke:#181818;stroke-width:0.5;" x1="1242.5" x2="1397.5" y1="244.2031" y2="244.2031"/><line style="stroke:#181818;stroke-width:0.5;" x1="1242.5" x2="1397.5" y1="252.2031" y2="252.2031"/></g><!--class EndDate--><g id="elem_EndDate"><rect codeLine="16" fill="#F1F1F1" height="58.7031" id="EndDate" rx="2.5" ry="2.5" style="stroke:#181818;stroke-width:0.5;" width="113" x="1458.5" y="473.5"/><ellipse cx="1473.5" cy="494.8516" fill="#ADD1B2" rx="11" ry="11" style="stroke:#181818;stroke-width:1.0;"/><path d="M1476.2656,490.7266 Q1476.4219,490.5078 1476.6094,490.3984 Q1476.7969,490.2891 1477.0156,490.2891 Q1477.3906,490.2891 1477.625,490.5547 Q1477.8594,490.8047 1477.8594,491.4141 L1477.8594,492.8672 Q1477.8594,493.4766 1477.625,493.7422 Q1477.3906,494.0078 1477.0156,494.0078 Q1476.6719,494.0078 1476.4688,493.8047 Q1476.2656,493.6172 1476.1563,493.1016 Q1476.1094,492.7422 1475.9219,492.5547 Q1475.5938,492.1797 1474.9844,491.9609 Q1474.375,491.7422 1473.75,491.7422 Q1472.9844,491.7422 1472.3438,492.0703 Q1471.7188,492.3984 1471.2188,493.1484 Q1470.7344,493.8984 1470.7344,494.9297 L1470.7344,496.0234 Q1470.7344,497.2578 1471.625,498.0859 Q1472.5156,498.8984 1474.1094,498.8984 Q1475.0469,498.8984 1475.7031,498.6484 Q1476.0938,498.4922 1476.5156,498.0547 Q1476.7813,497.7891 1476.9219,497.7109 Q1477.0781,497.6328 1477.2813,497.6328 Q1477.6094,497.6328 1477.8594,497.8984 Q1478.125,498.1484 1478.125,498.4922 Q1478.125,498.8359 1477.7813,499.2422 Q1477.2813,499.8203 1476.4844,500.1484 Q1475.4063,500.6016 1474.1094,500.6016 Q1472.5938,500.6016 1471.3906,499.9766 Q1470.4063,499.4766 1469.7188,498.4141 Q1469.0313,497.3359 1469.0313,496.0547 L1469.0313,494.8984 Q1469.0313,493.5703 1469.6406,492.4297 Q1470.2656,491.2734 1471.3594,490.6641 Q1472.4531,490.0391 1473.6875,490.0391 Q1474.4219,490.0391 1475.0625,490.2109 Q1475.7188,490.3672 1476.2656,490.7266 Z " fill="#000000"/><text fill="#000000" font-family="sans-serif" font-size="12" font-style="italic" lengthAdjust="spacing" textLength="85" x="1485.5" y="490.957">&#171;Value Object&#187;</text><text fill="#000000" font-family="sans-serif" font-size="14" lengthAdjust="spacing" textLength="55" x="1500.5" y="508.127">EndDate</text><line style="stroke:#181818;stroke-width:0.5;" x1="1459.5" x2="1570.5" y1="516.2031" y2="516.2031"/><line style="stroke:#181818;stroke-width:0.5;" x1="1459.5" x2="1570.5" y1="524.2031" y2="524.2031"/></g><!--class Status--><g id="elem_Status"><rect codeLine="17" fill="#F1F1F1" height="58.7031" id="Status" rx="2.5" ry="2.5" style="stroke:#181818;stroke-width:0.5;" width="113" x="1606.5" y="473.5"/><ellipse cx="1621.5" cy="494.8516" fill="#ADD1B2" rx="11" ry="11" style="stroke:#181818;stroke-width:1.0;"/><path d="M1624.2656,490.7266 Q1624.4219,490.5078 1624.6094,490.3984 Q1624.7969,490.2891 1625.0156,490.2891 Q1625.3906,490.2891 1625.625,490.5547 Q1625.8594,490.8047 1625.8594,491.4141 L1625.8594,492.8672 Q1625.8594,493.4766 1625.625,493.7422 Q1625.3906,494.0078 1625.0156,494.0078 Q1624.6719,494.0078 1624.4688,493.8047 Q1624.2656,493.6172 1624.1563,493.1016 Q1624.1094,492.7422 1623.9219,492.5547 Q1623.5938,492.1797 1622.9844,491.9609 Q1622.375,491.7422 1621.75,491.7422 Q1620.9844,491.7422 1620.3438,492.0703 Q1619.7188,492.3984 1619.2188,493.1484 Q1618.7344,493.8984 1618.7344,494.9297 L1618.7344,496.0234 Q1618.7344,497.2578 1619.625,498.0859 Q1620.5156,498.8984 1622.1094,498.8984 Q1623.0469,498.8984 1623.7031,498.6484 Q1624.0938,498.4922 1624.5156,498.0547 Q1624.7813,497.7891 1624.9219,497.7109 Q1625.0781,497.6328 1625.2813,497.6328 Q1625.6094,497.6328 1625.8594,497.8984 Q1626.125,498.1484 1626.125,498.4922 Q1626.125,498.8359 1625.7813,499.2422 Q1625.2813,499.8203 1624.4844,500.1484 Q1623.4063,500.6016 1622.1094,500.6016 Q1620.5938,500.6016 1619.3906,499.9766 Q1618.4063,499.4766 1617.7188,498.4141 Q1617.0313,497.3359 1617.0313,496.0547 L1617.0313,494.8984 Q1617.0313,493.5703 1617.6406,492.4297 Q1618.2656,491.2734 1619.3594,490.6641 Q1620.4531,490.0391 1621.6875,490.0391 Q1622.4219,490.0391 1623.0625,490.2109 Q1623.7188,490.3672 1624.2656,490.7266 Z " fill="#000000"/><text fill="#000000" font-family="sans-serif" font-size="12" font-style="italic" lengthAdjust="spacing" textLength="85" x="1633.5" y="490.957">&#171;Value Object&#187;</text><text fill="#000000" font-family="sans-serif" font-size="14" lengthAdjust="spacing" textLength="40" x="1656" y="508.127">Status</text><line style="stroke:#181818;stroke-width:0.5;" x1="1607.5" x2="1718.5" y1="516.2031" y2="516.2031"/><line style="stroke:#181818;stroke-width:0.5;" x1="1607.5" x2="1718.5" y1="524.2031" y2="524.2031"/></g><!--class RecruitmentProcess--><g id="elem_RecruitmentProcess"><rect codeLine="18" fill="#F1F1F1" height="58.7031" id="RecruitmentProcess" rx="2.5" ry="2.5" style="stroke:#181818;stroke-width:0.5;" width="159" x="1433.5" y="201.5"/><ellipse cx="1448.5" cy="222.8516" fill="#ADD1B2" rx="11" ry="11" style="stroke:#181818;stroke-width:1.0;"/><path d="M1451.2656,218.7266 Q1451.4219,218.5078 1451.6094,218.3984 Q1451.7969,218.2891 1452.0156,218.2891 Q1452.3906,218.2891 1452.625,218.5547 Q1452.8594,218.8047 1452.8594,219.4141 L1452.8594,220.8672 Q1452.8594,221.4766 1452.625,221.7422 Q1452.3906,222.0078 1452.0156,222.0078 Q1451.6719,222.0078 1451.4688,221.8047 Q1451.2656,221.6172 1451.1563,221.1016 Q1451.1094,220.7422 1450.9219,220.5547 Q1450.5938,220.1797 1449.9844,219.9609 Q1449.375,219.7422 1448.75,219.7422 Q1447.9844,219.7422 1447.3438,220.0703 Q1446.7188,220.3984 1446.2188,221.1484 Q1445.7344,221.8984 1445.7344,222.9297 L1445.7344,224.0234 Q1445.7344,225.2578 1446.625,226.0859 Q1447.5156,226.8984 1449.1094,226.8984 Q1450.0469,226.8984 1450.7031,226.6484 Q1451.0938,226.4922 1451.5156,226.0547 Q1451.7813,225.7891 1451.9219,225.7109 Q1452.0781,225.6328 1452.2813,225.6328 Q1452.6094,225.6328 1452.8594,225.8984 Q1453.125,226.1484 1453.125,226.4922 Q1453.125,226.8359 1452.7813,227.2422 Q1452.2813,227.8203 1451.4844,228.1484 Q1450.4063,228.6016 1449.1094,228.6016 Q1447.5938,228.6016 1446.3906,227.9766 Q1445.4063,227.4766 1444.7188,226.4141 Q1444.0313,225.3359 1444.0313,224.0547 L1444.0313,222.8984 Q1444.0313,221.5703 1444.6406,220.4297 Q1445.2656,219.2734 1446.3594,218.6641 Q1447.4531,218.0391 1448.6875,218.0391 Q1449.4219,218.0391 1450.0625,218.2109 Q1450.7188,218.3672 1451.2656,218.7266 Z " fill="#000000"/><text fill="#000000" font-family="sans-serif" font-size="12" font-style="italic" lengthAdjust="spacing" textLength="44" x="1504" y="218.957">&#171;Entity&#187;</text><text fill="#000000" font-family="sans-serif" font-size="14" lengthAdjust="spacing" textLength="127" x="1462.5" y="236.127">RecruitmentProcess</text><line style="stroke:#181818;stroke-width:0.5;" x1="1434.5" x2="1591.5" y1="244.2031" y2="244.2031"/><line style="stroke:#181818;stroke-width:0.5;" x1="1434.5" x2="1591.5" y1="252.2031" y2="252.2031"/></g><!--class Costumer--><g id="elem_Costumer"><rect fill="#F1F1F1" height="48" id="Costumer" rx="2.5" ry="2.5" style="stroke:#181818;stroke-width:0.5;" width="93" x="1627.5" y="207"/><ellipse cx="1642.5" cy="223" fill="#ADD1B2" rx="11" ry="11" style="stroke:#181818;stroke-width:1.0;"/><path d="M1645.2656,218.875 Q1645.4219,218.6563 1645.6094,218.5469 Q1645.7969,218.4375 1646.0156,218.4375 Q1646.3906,218.4375 1646.625,218.7031 Q1646.8594,218.9531 1646.8594,219.5625 L1646.8594,221.0156 Q1646.8594,221.625 1646.625,221.8906 Q1646.3906,222.1563 1646.0156,222.1563 Q1645.6719,222.1563 1645.4688,221.9531 Q1645.2656,221.7656 1645.1563,221.25 Q1645.1094,220.8906 1644.9219,220.7031 Q1644.5938,220.3281 1643.9844,220.1094 Q1643.375,219.8906 1642.75,219.8906 Q1641.9844,219.8906 1641.3438,220.2188 Q1640.7188,220.5469 1640.2188,221.2969 Q1639.7344,222.0469 1639.7344,223.0781 L1639.7344,224.1719 Q1639.7344,225.4063 1640.625,226.2344 Q1641.5156,227.0469 1643.1094,227.0469 Q1644.0469,227.0469 1644.7031,226.7969 Q1645.0938,226.6406 1645.5156,226.2031 Q1645.7813,225.9375 1645.9219,225.8594 Q1646.0781,225.7813 1646.2813,225.7813 Q1646.6094,225.7813 1646.8594,226.0469 Q1647.125,226.2969 1647.125,226.6406 Q1647.125,226.9844 1646.7813,227.3906 Q1646.2813,227.9688 1645.4844,228.2969 Q1644.4063,228.75 1643.1094,228.75 Q1641.5938,228.75 1640.3906,228.125 Q1639.4063,227.625 1638.7188,226.5625 Q1638.0313,225.4844 1638.0313,224.2031 L1638.0313,223.0469 Q1638.0313,221.7188 1638.6406,220.5781 Q1639.2656,219.4219 1640.3594,218.8125 Q1641.4531,218.1875 1642.6875,218.1875 Q1643.4219,218.1875 1644.0625,218.3594 Q1644.7188,218.5156 1645.2656,218.875 Z " fill="#000000"/><text fill="#000000" font-family="sans-serif" font-size="14" lengthAdjust="spacing" textLength="61" x="1656.5" y="228.7285">Costumer</text><line style="stroke:#181818;stroke-width:0.5;" x1="1628.5" x2="1719.5" y1="239" y2="239"/><line style="stroke:#181818;stroke-width:0.5;" x1="1628.5" x2="1719.5" y1="247" y2="247"/></g><!--link JobOpening to JobReference--><g id="link_JobOpening_JobReference"><path codeLine="21" d="M799.58,83.32 C680.79,91.78 390.48,119.02 160,194 C154.19,195.89 153.7943,195.8554 147.8943,198.2354 " fill="none" id="JobOpening-to-JobReference" style="stroke:#181818;stroke-width:1.0;"/><polygon fill="#181818" points="142.33,200.48,152.1729,200.8227,146.9669,198.6095,149.1801,193.4036,142.33,200.48" style="stroke:#181818;stroke-width:1.0;"/><text fill="#000000" font-family="sans-serif" font-size="13" lengthAdjust="spacing" textLength="7" x="785.159" y="80.3792">1</text><text fill="#000000" font-family="sans-serif" font-size="13" lengthAdjust="spacing" textLength="7" x="150.1093" y="193.3143">1</text></g><!--link JobOpening to NrVacancies--><g id="link_JobOpening_NrVacancies"><path codeLine="22" d="M799.73,86.8 C700.24,100.26 482.79,134.27 308,194 C301.78,196.13 300.9176,196.2695 294.6476,198.9795 " fill="none" id="JobOpening-to-NrVacancies" style="stroke:#181818;stroke-width:1.0;"/><polygon fill="#181818" points="289.14,201.36,298.9883,201.461,293.7296,199.3763,295.8144,194.1176,289.14,201.36" style="stroke:#181818;stroke-width:1.0;"/><text fill="#000000" font-family="sans-serif" font-size="13" lengthAdjust="spacing" textLength="7" x="784.9672" y="102.4555">1</text><text fill="#000000" font-family="sans-serif" font-size="13" lengthAdjust="spacing" textLength="7" x="293.4363" y="190.6923">1</text></g><!--link JobOpening to JobOpeningTitle--><g id="link_JobOpening_JobOpeningTitle"><path codeLine="23" d="M799.72,94.63 C726.28,114.86 591.51,153.47 479,194 C472.6,196.3 471.5702,196.6151 464.9902,199.2151 " fill="none" id="JobOpening-to-JobOpeningTitle" style="stroke:#181818;stroke-width:1.0;"/><polygon fill="#181818" points="459.41,201.42,469.2502,201.8327,464.0601,199.5826,466.3103,194.3925,459.41,201.42" style="stroke:#181818;stroke-width:1.0;"/><text fill="#000000" font-family="sans-serif" font-size="13" lengthAdjust="spacing" textLength="7" x="784.9558" y="111.3377">1</text><text fill="#000000" font-family="sans-serif" font-size="13" lengthAdjust="spacing" textLength="7" x="466.1716" y="190.7654">1</text></g><!--link JobOpening to ContractType--><g id="link_JobOpening_ContractType"><path codeLine="24" d="M799.85,107.16 C746.76,133.8 671.4828,171.5592 617.4128,198.6892 " fill="none" id="JobOpening-to-ContractType" style="stroke:#181818;stroke-width:1.0;"/><polygon fill="#181818" points="612.05,201.38,621.8881,200.919,616.519,199.1377,618.3003,193.7686,612.05,201.38" style="stroke:#181818;stroke-width:1.0;"/><text fill="#000000" font-family="sans-serif" font-size="13" lengthAdjust="spacing" textLength="7" x="785.1033" y="125.5514">1</text><text fill="#000000" font-family="sans-serif" font-size="13" lengthAdjust="spacing" textLength="7" x="616.7641" y="190.7167">1</text></g><!--link JobOpening to Description--><g id="link_JobOpening_Description"><path codeLine="25" d="M818.17,116.31 C792.51,142.32 762.6234,172.6083 738.7834,196.7783 " fill="none" id="JobOpening-to-Description" style="stroke:#181818;stroke-width:1.0;"/><polygon fill="#181818" points="734.57,201.05,743.7379,197.4514,738.0811,197.4902,738.0423,191.8335,734.57,201.05" style="stroke:#181818;stroke-width:1.0;"/><text fill="#000000" font-family="sans-serif" font-size="13" lengthAdjust="spacing" textLength="7" x="804.656" y="137.3555">1</text><text fill="#000000" font-family="sans-serif" font-size="13" lengthAdjust="spacing" textLength="7" x="732.7407" y="190.7848">1</text></g><!--link JobOpening to Address--><g id="link_JobOpening_Address"><path codeLine="26" d="M854,116.31 C854,142.32 854,170.88 854,195.05 " fill="none" id="JobOpening-to-Address" style="stroke:#181818;stroke-width:1.0;"/><polygon fill="#181818" points="854,201.05,858,192.05,854,196.05,850,192.05,854,201.05" style="stroke:#181818;stroke-width:1.0;"/><text fill="#000000" font-family="sans-serif" font-size="13" lengthAdjust="spacing" textLength="7" x="846.4203" y="137.3555">1</text><text fill="#000000" font-family="sans-serif" font-size="13" lengthAdjust="spacing" textLength="7" x="846.2781" y="190.7848">1</text></g><!--link JobOpening to JobMode--><g id="link_JobOpening_JobMode"><path codeLine="27" d="M889.83,116.31 C915.49,142.32 945.3766,172.6083 969.2166,196.7783 " fill="none" id="JobOpening-to-JobMode" style="stroke:#181818;stroke-width:1.0;"/><polygon fill="#181818" points="973.43,201.05,969.9577,191.8335,969.9189,197.4902,964.2621,197.4514,973.43,201.05" style="stroke:#181818;stroke-width:1.0;"/><text fill="#000000" font-family="sans-serif" font-size="13" lengthAdjust="spacing" textLength="7" x="888.1847" y="137.3555">1</text><text fill="#000000" font-family="sans-serif" font-size="13" lengthAdjust="spacing" textLength="7" x="959.8156" y="190.7848">1</text></g><!--link JobOpening to JobState--><g id="link_JobOpening_JobState"><path codeLine="28" d="M908.29,107.51 C960.78,134.11 1034.6382,171.5374 1087.9282,198.5474 " fill="none" id="JobOpening-to-JobState" style="stroke:#181818;stroke-width:1.0;"/><polygon fill="#181818" points="1093.28,201.26,1087.0606,193.6233,1088.8201,198.9995,1083.4439,200.759,1093.28,201.26" style="stroke:#181818;stroke-width:1.0;"/><text fill="#000000" font-family="sans-serif" font-size="13" lengthAdjust="spacing" textLength="7" x="916.0555" y="107.7984">1</text><text fill="#000000" font-family="sans-serif" font-size="13" lengthAdjust="spacing" textLength="7" x="1078.5643" y="193.9552">1</text></g><!--link JobOpening to JobActiveSinceDate--><g id="link_JobOpening_JobActiveSinceDate"><path codeLine="29" d="M908.25,95.61 C980.65,116.69 1112.67,156.01 1224,194 C1230.91,196.36 1232.4162,196.8435 1239.5662,199.4235 " fill="none" id="JobOpening-to-JobActiveSinceDate" style="stroke:#181818;stroke-width:1.0;"/><polygon fill="#181818" points="1245.21,201.46,1238.102,194.6427,1240.5068,199.7629,1235.3866,202.1678,1245.21,201.46" style="stroke:#181818;stroke-width:1.0;"/><text fill="#000000" font-family="sans-serif" font-size="13" lengthAdjust="spacing" textLength="7" x="916.0102" y="94.2994">1</text><text fill="#000000" font-family="sans-serif" font-size="13" lengthAdjust="spacing" textLength="7" x="1226.7112" y="193.489">1</text></g><!--link JobOpening to RecruitmentProcess--><g id="link_JobOpening_RecruitmentProcess"><path codeLine="30" d="M908.13,88.11 C1009.13,103.87 1232.66,141.72 1416,194 C1423.77,196.22 1426.1251,196.8512 1434.0951,199.5412 " fill="none" id="JobOpening-to-RecruitmentProcess" style="stroke:#181818;stroke-width:1.0;"/><polygon fill="#181818" points="1439.78,201.46,1432.5318,194.7919,1435.0426,199.861,1429.9734,202.3718,1439.78,201.46" style="stroke:#181818;stroke-width:1.0;"/><text fill="#000000" font-family="sans-serif" font-size="13" lengthAdjust="spacing" textLength="7" x="915.874" y="85.7915">1</text><text fill="#000000" font-family="sans-serif" font-size="13" lengthAdjust="spacing" textLength="22" x="1403.3047" y="192.5587">0..1</text></g><!--link JobOpening to Costumer--><g id="link_JobOpening_Costumer"><path codeLine="32" d="M908.28,81.5 C1034.73,86.41 1357.38,107.18 1610,194 C1619.52,197.27 1624.0151,199.0542 1632.9251,203.9642 " fill="none" id="JobOpening-to-Costumer" style="stroke:#181818;stroke-width:1.0;"/><polygon fill="#181818" points="1638.18,206.86,1632.2282,199.013,1633.8009,204.4468,1628.3671,206.0196,1638.18,206.86" style="stroke:#181818;stroke-width:1.0;"/><text fill="#000000" font-family="sans-serif" font-size="13" lengthAdjust="spacing" textLength="52" x="1511" y="160.4951">Refers to</text><text fill="#000000" font-family="sans-serif" font-size="13" lengthAdjust="spacing" textLength="20" x="916.1141" y="78.3586">1..*</text><text fill="#000000" font-family="sans-serif" font-size="13" lengthAdjust="spacing" textLength="7" x="1621.1043" y="196.1643">1</text></g><!--link Phase to PhaseName--><g id="link_Phase_PhaseName"><path codeLine="35" d="M1479.96,405.29 C1459.29,423.31 1437.0034,442.7381 1414.9134,461.9881 " fill="none" id="Phase-to-PhaseName" style="stroke:#181818;stroke-width:1.0;"/><polygon fill="#181818" points="1410.39,465.93,1419.8031,463.0328,1414.1595,462.6451,1414.5472,457.0015,1410.39,465.93" style="stroke:#181818;stroke-width:1.0;"/><text fill="#000000" font-family="sans-serif" font-size="13" lengthAdjust="spacing" textLength="7" x="1465.7662" y="426.2889">1</text><text fill="#000000" font-family="sans-serif" font-size="13" lengthAdjust="spacing" textLength="7" x="1410.376" y="455.1665">1</text></g><!--link Phase to StartDate--><g id="link_Phase_StartDate"><path codeLine="36" d="M1476.99,390.81 C1434.09,408.02 1360.36,438.08 1298,466 C1292.07,468.66 1291.3339,468.9459 1285.2039,471.8159 " fill="none" id="Phase-to-StartDate" style="stroke:#181818;stroke-width:1.0;"/><polygon fill="#181818" points="1279.77,474.36,1289.617,474.1665,1284.2983,472.2399,1286.2248,466.9212,1279.77,474.36" style="stroke:#181818;stroke-width:1.0;"/><text fill="#000000" font-family="sans-serif" font-size="13" lengthAdjust="spacing" textLength="7" x="1461.8411" y="389.8797">1</text><text fill="#000000" font-family="sans-serif" font-size="13" lengthAdjust="spacing" textLength="7" x="1287.4921" y="467.2022">1</text></g><!--link Phase to EndDate--><g id="link_Phase_EndDate"><path codeLine="37" d="M1513.46,405.29 C1513.78,425.7 1514.1258,446.9607 1514.4458,467.3407 " fill="none" id="Phase-to-EndDate" style="stroke:#181818;stroke-width:1.0;"/><polygon fill="#181818" points="1514.54,473.34,1518.3982,464.2783,1514.4615,468.3406,1510.3992,464.4039,1514.54,473.34" style="stroke:#181818;stroke-width:1.0;"/><text fill="#000000" font-family="sans-serif" font-size="13" lengthAdjust="spacing" textLength="7" x="1505.8615" y="426.2889">1</text><text fill="#000000" font-family="sans-serif" font-size="13" lengthAdjust="spacing" textLength="7" x="1506.6738" y="462.6679">1</text></g><!--link Phase to Status--><g id="link_Phase_Status"><path codeLine="38" d="M1547.41,405.29 C1571.8,425.7 1599.7881,449.11 1624.1481,469.49 " fill="none" id="Phase-to-Status" style="stroke:#181818;stroke-width:1.0;"/><polygon fill="#181818" points="1628.75,473.34,1624.4138,464.497,1624.9151,470.1317,1619.2805,470.6329,1628.75,473.34" style="stroke:#181818;stroke-width:1.0;"/><text fill="#000000" font-family="sans-serif" font-size="13" lengthAdjust="spacing" textLength="7" x="1546.4954" y="426.2889">1</text><text fill="#000000" font-family="sans-serif" font-size="13" lengthAdjust="spacing" textLength="7" x="1613.4922" y="462.6679">1</text></g><!--link RecruitmentProcess to Phase--><g id="link_RecruitmentProcess_Phase"><path codeLine="40" d="M1513,260.84 C1513,285.56 1513,315 1513,339.71 " fill="none" id="RecruitmentProcess-to-Phase" style="stroke:#181818;stroke-width:1.0;"/><polygon fill="#181818" points="1513,345.71,1517,336.71,1513,340.71,1509,336.71,1513,345.71" style="stroke:#181818;stroke-width:1.0;"/><text fill="#000000" font-family="sans-serif" font-size="13" lengthAdjust="spacing" textLength="96" x="1514" y="312.4951">Is separated into</text><text fill="#000000" font-family="sans-serif" font-size="13" lengthAdjust="spacing" textLength="7" x="1505.3328" y="281.6102">1</text><text fill="#000000" font-family="sans-serif" font-size="13" lengthAdjust="spacing" textLength="22" x="1488.5938" y="335.0095">4..5</text></g><!--SRC=[XP9HQy8m4CVV_HH7zpQmRB2zZ5AGwOE3gQZudgQtBfjDId8ToDXtNnf5OstJFhI5_9Bxv-vNCVxD2eGtbIqhb48MawA0konZBClWTmJsuNjcZ4SaoLefIjCacKaIT4ZJQsoD7wXHSaoI7TlN2Cli2xdRCC-lu8NUCSua5sZQR6VbhQ0z1iXN9KapJjj35SAcQBWM5Gab0zGappMQWM3lAiSmiI56sBIgBfiEzAAMqpHrR8lneDKdCzZPTxUoOALNgjLicsN2IVpWHjZPT5Qwm3EP3n3DlMe30MADNDU2IfIqqegxNfwJ7szr6Ir4Zn6Cnwdx-XA5EC-VWUDyWKAeRr28ynGAOIU71i8r4WqWpg81fZNTNleXZktlxNGwHXB7zz6bDORg4ZMyW1kE0LB7BUxb1BoAT5QoP_riVC_woS7-tTQ_Ou3RkpI89QEdE7u-9R6vvmOCLapRKtCGaXIC_lu1]--></g></svg>