<?xml version="1.0" encoding="us-ascii" standalone="no"?><svg xmlns="http://www.w3.org/2000/svg" xmlns:xlink="http://www.w3.org/1999/xlink" contentStyleType="text/css" height="1450px" preserveAspectRatio="none" style="width:2230px;height:1450px;background:#FFFFFF;" version="1.1" viewBox="0 0 2230 1450" width="2230px" zoomAndPan="magnify"><defs/><g><!--cluster Controller--><g id="cluster_Controller"><path d="M1025.5,252.42 L1099.5,252.42 A3.75,3.75 0 0 1 1102,254.92 L1109,274.9083 L1568.5,274.9083 A2.5,2.5 0 0 1 1571,277.4083 L1571,431.36 A2.5,2.5 0 0 1 1568.5,433.86 L1025.5,433.86 A2.5,2.5 0 0 1 1023,431.36 L1023,254.92 A2.5,2.5 0 0 1 1025.5,252.42 " fill="none" style="stroke:#000000;stroke-width:1.5;"/><line style="stroke:#000000;stroke-width:1.5;" x1="1023" x2="1109" y1="274.9083" y2="274.9083"/><text fill="#000000" font-family="sans-serif" font-size="14" font-weight="bold" lengthAdjust="spacing" textLength="73" x="1027" y="267.9552">Controller</text></g><!--cluster Service--><g id="cluster_Service"><path d="M853.5,466.86 L904.5,466.86 A3.75,3.75 0 0 1 907,469.36 L914,489.3483 L1740.5,489.3483 A2.5,2.5 0 0 1 1743,491.8483 L1743,678.77 A2.5,2.5 0 0 1 1740.5,681.27 L853.5,681.27 A2.5,2.5 0 0 1 851,678.77 L851,469.36 A2.5,2.5 0 0 1 853.5,466.86 " fill="none" style="stroke:#000000;stroke-width:1.5;"/><line style="stroke:#000000;stroke-width:1.5;" x1="851" x2="914" y1="489.3483" y2="489.3483"/><text fill="#000000" font-family="sans-serif" font-size="14" font-weight="bold" lengthAdjust="spacing" textLength="50" x="855" y="482.3952">Service</text></g><!--cluster Repository--><g id="cluster_Repository"><path d="M8.5,798.5 L87.5,798.5 A3.75,3.75 0 0 1 90,801 L97,820.9883 L1509.5,820.9883 A2.5,2.5 0 0 1 1512,823.4883 L1512,960.95 A2.5,2.5 0 0 1 1509.5,963.45 L8.5,963.45 A2.5,2.5 0 0 1 6,960.95 L6,801 A2.5,2.5 0 0 1 8.5,798.5 " fill="none" style="stroke:#000000;stroke-width:1.5;"/><line style="stroke:#000000;stroke-width:1.5;" x1="6" x2="97" y1="820.9883" y2="820.9883"/><text fill="#000000" font-family="sans-serif" font-size="14" font-weight="bold" lengthAdjust="spacing" textLength="78" x="10" y="814.0352">Repository</text></g><!--cluster Model--><g id="cluster_Model"><path d="M1538.5,714.27 L1583.5,714.27 A3.75,3.75 0 0 1 1586,716.77 L1593,736.7583 L2220.5,736.7583 A2.5,2.5 0 0 1 2223,739.2583 L2223,1440.54 A2.5,2.5 0 0 1 2220.5,1443.04 L1538.5,1443.04 A2.5,2.5 0 0 1 1536,1440.54 L1536,716.77 A2.5,2.5 0 0 1 1538.5,714.27 " fill="none" style="stroke:#000000;stroke-width:1.5;"/><line style="stroke:#000000;stroke-width:1.5;" x1="1536" x2="1593" y1="736.7583" y2="736.7583"/><text fill="#000000" font-family="sans-serif" font-size="14" font-weight="bold" lengthAdjust="spacing" textLength="44" x="1540" y="729.8052">Model</text></g><!--cluster JobOpeningAgg--><g id="cluster_JobOpeningAgg"><path d="M1562.5,757.27 L1676.5,757.27 A3.75,3.75 0 0 1 1679,759.77 L1686,779.7583 L2196.5,779.7583 A2.5,2.5 0 0 1 2199,782.2583 L2199,1416.54 A2.5,2.5 0 0 1 2196.5,1419.04 L1562.5,1419.04 A2.5,2.5 0 0 1 1560,1416.54 L1560,759.77 A2.5,2.5 0 0 1 1562.5,757.27 " fill="none" style="stroke:#000000;stroke-width:1.5;"/><line style="stroke:#000000;stroke-width:1.5;" x1="1560" x2="1686" y1="779.7583" y2="779.7583"/><text fill="#000000" font-family="sans-serif" font-size="14" font-weight="bold" lengthAdjust="spacing" textLength="113" x="1564" y="772.8052">JobOpeningAgg</text></g><!--cluster UI--><g id="cluster_UI"><path d="M1039.5,6 L1055.5,6 A3.75,3.75 0 0 1 1058,8.5 L1065,28.4883 L1554.5,28.4883 A2.5,2.5 0 0 1 1557,30.9883 L1557,217.92 A2.5,2.5 0 0 1 1554.5,220.42 L1039.5,220.42 A2.5,2.5 0 0 1 1037,217.92 L1037,8.5 A2.5,2.5 0 0 1 1039.5,6 " fill="none" style="stroke:#000000;stroke-width:1.5;"/><line style="stroke:#000000;stroke-width:1.5;" x1="1037" x2="1065" y1="28.4883" y2="28.4883"/><text fill="#000000" font-family="sans-serif" font-size="14" font-weight="bold" lengthAdjust="spacing" textLength="15" x="1041" y="21.5352">UI</text></g><!--class PhasesController--><g id="elem_PhasesController"><rect codeLine="3" fill="#F1F1F1" height="130.4414" id="PhasesController" rx="2.5" ry="2.5" style="stroke:#181818;stroke-width:0.5;" width="515" x="1039.5" y="287.42"/><ellipse cx="1234.25" cy="303.42" fill="#ADD1B2" rx="11" ry="11" style="stroke:#181818;stroke-width:1.0;"/><path d="M1237.2231,309.0631 Q1236.6421,309.3619 1236.0029,309.5113 Q1235.3638,309.6607 1234.6582,309.6607 Q1232.1514,309.6607 1230.8315,308.0089 Q1229.5117,306.357 1229.5117,303.2359 Q1229.5117,300.1065 1230.8315,298.4547 Q1232.1514,296.8028 1234.6582,296.8028 Q1235.3638,296.8028 1236.0112,296.9522 Q1236.6587,297.1016 1237.2231,297.4005 L1237.2231,300.1231 Q1236.5923,299.5421 1235.9988,299.2723 Q1235.4053,299.0025 1234.7744,299.0025 Q1233.4297,299.0025 1232.7449,300.0692 Q1232.0601,301.1358 1232.0601,303.2359 Q1232.0601,305.3277 1232.7449,306.3944 Q1233.4297,307.461 1234.7744,307.461 Q1235.4053,307.461 1235.9988,307.1912 Q1236.5923,306.9215 1237.2231,306.3404 Z " fill="#000000"/><text fill="#000000" font-family="sans-serif" font-size="14" lengthAdjust="spacing" textLength="117" x="1254.75" y="308.711">PhasesController</text><line style="stroke:#181818;stroke-width:0.5;" x1="1040.5" x2="1553.5" y1="319.42" y2="319.42"/><rect fill="none" height="6" style="stroke:#C82930;stroke-width:1.0;" width="6" x="1047.5" y="330.1641"/><text fill="#000000" font-family="sans-serif" font-size="14" lengthAdjust="spacing" textLength="309" x="1059.5" y="336.9552">phaseValidatorService: PhaseValidatorService</text><rect fill="none" height="6" style="stroke:#C82930;stroke-width:1.0;" width="6" x="1047.5" y="346.6524"/><text fill="#000000" font-family="sans-serif" font-size="14" lengthAdjust="spacing" textLength="316" x="1059.5" y="353.4434">jobOpeningRepository: JobOpeningRepository</text><rect fill="none" height="6" style="stroke:#C82930;stroke-width:1.0;" width="6" x="1047.5" y="363.1407"/><text fill="#000000" font-family="sans-serif" font-size="14" lengthAdjust="spacing" textLength="190" x="1059.5" y="369.9317">authz: AuthorizationService</text><line style="stroke:#181818;stroke-width:0.5;" x1="1040.5" x2="1553.5" y1="376.8848" y2="376.8848"/><ellipse cx="1050.5" cy="390.629" fill="#84BE84" rx="3" ry="3" style="stroke:#038048;stroke-width:1.0;"/><text fill="#000000" font-family="sans-serif" font-size="14" lengthAdjust="spacing" textLength="464" x="1059.5" y="394.42">validateJobReference(jobReference: JobReference): Iterable&lt;String&gt;</text><ellipse cx="1050.5" cy="407.1173" fill="#84BE84" rx="3" ry="3" style="stroke:#038048;stroke-width:1.0;"/><text fill="#000000" font-family="sans-serif" font-size="14" lengthAdjust="spacing" textLength="489" x="1059.5" y="410.9083">processTransition(chosenOption: String, jobReference: String): boolean</text></g><!--class PhaseValidatorService--><g id="elem_PhaseValidatorService"><rect codeLine="13" fill="#F1F1F1" height="163.418" id="PhaseValidatorService" rx="2.5" ry="2.5" style="stroke:#181818;stroke-width:0.5;" width="861" x="866.5" y="501.86"/><ellipse cx="1217.75" cy="517.86" fill="#ADD1B2" rx="11" ry="11" style="stroke:#181818;stroke-width:1.0;"/><path d="M1220.7231,523.5031 Q1220.1421,523.8019 1219.5029,523.9513 Q1218.8638,524.1007 1218.1582,524.1007 Q1215.6514,524.1007 1214.3315,522.4489 Q1213.0117,520.797 1213.0117,517.6759 Q1213.0117,514.5465 1214.3315,512.8947 Q1215.6514,511.2428 1218.1582,511.2428 Q1218.8638,511.2428 1219.5112,511.3922 Q1220.1587,511.5416 1220.7231,511.8405 L1220.7231,514.5631 Q1220.0923,513.9821 1219.4988,513.7123 Q1218.9053,513.4425 1218.2744,513.4425 Q1216.9297,513.4425 1216.2449,514.5092 Q1215.5601,515.5758 1215.5601,517.6759 Q1215.5601,519.7677 1216.2449,520.8344 Q1216.9297,521.901 1218.2744,521.901 Q1218.9053,521.901 1219.4988,521.6312 Q1220.0923,521.3615 1220.7231,520.7804 Z " fill="#000000"/><text fill="#000000" font-family="sans-serif" font-size="14" lengthAdjust="spacing" textLength="150" x="1238.25" y="523.151">PhaseValidatorService</text><line style="stroke:#181818;stroke-width:0.5;" x1="867.5" x2="1726.5" y1="533.86" y2="533.86"/><rect fill="none" height="6" style="stroke:#C82930;stroke-width:1.0;" width="6" x="874.5" y="544.6041"/><text fill="#000000" font-family="sans-serif" font-size="14" lengthAdjust="spacing" textLength="308" x="886.5" y="551.3952">applicationRepository: ApplicationRepository</text><rect fill="none" height="6" style="stroke:#C82930;stroke-width:1.0;" width="6" x="874.5" y="561.0924"/><text fill="#000000" font-family="sans-serif" font-size="14" lengthAdjust="spacing" textLength="219" x="886.5" y="567.8834">rankRepository: RankRepository</text><rect fill="none" height="6" style="stroke:#C82930;stroke-width:1.0;" width="6" x="874.5" y="577.5807"/><text fill="#000000" font-family="sans-serif" font-size="14" lengthAdjust="spacing" textLength="275" x="886.5" y="584.3717">recruitmentProcess: RecruitmentProcess</text><line style="stroke:#181818;stroke-width:0.5;" x1="867.5" x2="1726.5" y1="591.3248" y2="591.3248"/><ellipse cx="877.5" cy="605.069" fill="#84BE84" rx="3" ry="3" style="stroke:#038048;stroke-width:1.0;"/><text fill="#000000" font-family="sans-serif" font-size="14" lengthAdjust="spacing" textLength="435" x="886.5" y="608.86">validatePhaseTransition(jobReference: String): Iterable&lt;String&gt;</text><rect fill="#F24D5C" height="6" style="stroke:#C82930;stroke-width:1.0;" width="6" x="874.5" y="618.5573"/><text fill="#000000" font-family="sans-serif" font-size="14" lengthAdjust="spacing" textLength="565" x="886.5" y="625.3483">getSpecificPhaseCount(currentPhase: PhaseName, jobReference: JobReference): int</text><rect fill="#F24D5C" height="6" style="stroke:#C82930;stroke-width:1.0;" width="6" x="874.5" y="635.0455"/><text fill="#000000" font-family="sans-serif" font-size="14" lengthAdjust="spacing" textLength="827" x="886.5" y="641.8366">validatePhaseTransitionForward(currentPhase: PhaseName, numberOfApplications: int, specificPhaseCount: int): boolean</text><rect fill="#F24D5C" height="6" style="stroke:#C82930;stroke-width:1.0;" width="6" x="874.5" y="651.5338"/><text fill="#000000" font-family="sans-serif" font-size="14" lengthAdjust="spacing" textLength="835" x="886.5" y="658.3248">validatePhaseTransitionBackward(currentPhase: PhaseName, numberOfApplications: int, specificPhaseCount: int): boolean</text></g><!--class JobOpeningRepository--><g id="elem_JobOpeningRepository"><rect codeLine="25" fill="#F1F1F1" height="80.9766" id="JobOpeningRepository" rx="2.5" ry="2.5" style="stroke:#181818;stroke-width:0.5;" width="526" x="22" y="849.98"/><ellipse cx="203.75" cy="865.98" fill="#ADD1B2" rx="11" ry="11" style="stroke:#181818;stroke-width:1.0;"/><path d="M206.7231,871.6231 Q206.1421,871.9219 205.5029,872.0713 Q204.8638,872.2207 204.1582,872.2207 Q201.6514,872.2207 200.3315,870.5689 Q199.0117,868.917 199.0117,865.7959 Q199.0117,862.6665 200.3315,861.0147 Q201.6514,859.3628 204.1582,859.3628 Q204.8638,859.3628 205.5112,859.5122 Q206.1587,859.6616 206.7231,859.9605 L206.7231,862.6831 Q206.0923,862.1021 205.4988,861.8323 Q204.9053,861.5625 204.2744,861.5625 Q202.9297,861.5625 202.2449,862.6292 Q201.5601,863.6958 201.5601,865.7959 Q201.5601,867.8877 202.2449,868.9544 Q202.9297,870.021 204.2744,870.021 Q204.9053,870.021 205.4988,869.7512 Q206.0923,869.4815 206.7231,868.9004 Z " fill="#000000"/><text fill="#000000" font-family="sans-serif" font-size="14" lengthAdjust="spacing" textLength="154" x="224.25" y="871.271">JobOpeningRepository</text><line style="stroke:#181818;stroke-width:0.5;" x1="23" x2="547" y1="881.98" y2="881.98"/><line style="stroke:#181818;stroke-width:0.5;" x1="23" x2="547" y1="889.98" y2="889.98"/><ellipse cx="33" cy="903.7241" fill="#84BE84" rx="3" ry="3" style="stroke:#038048;stroke-width:1.0;"/><text fill="#000000" font-family="sans-serif" font-size="14" lengthAdjust="spacing" textLength="500" x="42" y="907.5152">findByJobReference(jobReference: JobReference): Optional&lt;JobOpening&gt;</text><ellipse cx="33" cy="920.2124" fill="#84BE84" rx="3" ry="3" style="stroke:#038048;stroke-width:1.0;"/><text fill="#000000" font-family="sans-serif" font-size="14" lengthAdjust="spacing" textLength="247" x="42" y="924.0034">save(jobOpening: JobOpening): void</text></g><!--class ApplicationRepository--><g id="elem_ApplicationRepository"><rect codeLine="30" fill="#F1F1F1" height="113.9531" id="ApplicationRepository" rx="2.5" ry="2.5" style="stroke:#181818;stroke-width:0.5;" width="479" x="583.5" y="833.5"/><ellipse cx="743.25" cy="849.5" fill="#ADD1B2" rx="11" ry="11" style="stroke:#181818;stroke-width:1.0;"/><path d="M746.2231,855.1431 Q745.6421,855.4419 745.0029,855.5913 Q744.3638,855.7407 743.6582,855.7407 Q741.1514,855.7407 739.8315,854.0889 Q738.5117,852.437 738.5117,849.3159 Q738.5117,846.1865 739.8315,844.5347 Q741.1514,842.8828 743.6582,842.8828 Q744.3638,842.8828 745.0112,843.0322 Q745.6587,843.1816 746.2231,843.4805 L746.2231,846.2031 Q745.5923,845.6221 744.9988,845.3523 Q744.4053,845.0825 743.7744,845.0825 Q742.4297,845.0825 741.7449,846.1492 Q741.0601,847.2158 741.0601,849.3159 Q741.0601,851.4077 741.7449,852.4744 Q742.4297,853.541 743.7744,853.541 Q744.4053,853.541 744.9988,853.2712 Q745.5923,853.0015 746.2231,852.4204 Z " fill="#000000"/><text fill="#000000" font-family="sans-serif" font-size="14" lengthAdjust="spacing" textLength="151" x="763.75" y="854.791">ApplicationRepository</text><line style="stroke:#181818;stroke-width:0.5;" x1="584.5" x2="1061.5" y1="865.5" y2="865.5"/><line style="stroke:#181818;stroke-width:0.5;" x1="584.5" x2="1061.5" y1="873.5" y2="873.5"/><ellipse cx="594.5" cy="887.2441" fill="#84BE84" rx="3" ry="3" style="stroke:#038048;stroke-width:1.0;"/><text fill="#000000" font-family="sans-serif" font-size="14" lengthAdjust="spacing" textLength="453" x="603.5" y="891.0352">countApplicationsByJobReference(jobReference: JobReference): int</text><ellipse cx="594.5" cy="903.7324" fill="#84BE84" rx="3" ry="3" style="stroke:#038048;stroke-width:1.0;"/><text fill="#000000" font-family="sans-serif" font-size="14" lengthAdjust="spacing" textLength="436" x="603.5" y="907.5234">countScreeningByJobReference(jobReference: JobReference): int</text><ellipse cx="594.5" cy="920.2207" fill="#84BE84" rx="3" ry="3" style="stroke:#038048;stroke-width:1.0;"/><text fill="#000000" font-family="sans-serif" font-size="14" lengthAdjust="spacing" textLength="437" x="603.5" y="924.0117">countInterviewsByJobReference(jobReference: JobReference): int</text><ellipse cx="594.5" cy="936.709" fill="#84BE84" rx="3" ry="3" style="stroke:#038048;stroke-width:1.0;"/><text fill="#000000" font-family="sans-serif" font-size="14" lengthAdjust="spacing" textLength="417" x="603.5" y="940.5">countResultsByJobReference(jobReference: JobReference): int</text></g><!--class RankRepository--><g id="elem_RankRepository"><rect codeLine="37" fill="#F1F1F1" height="64.4883" id="RankRepository" rx="2.5" ry="2.5" style="stroke:#181818;stroke-width:0.5;" width="398" x="1098" y="858.23"/><ellipse cx="1239.25" cy="874.23" fill="#ADD1B2" rx="11" ry="11" style="stroke:#181818;stroke-width:1.0;"/><path d="M1242.2231,879.8731 Q1241.6421,880.1719 1241.0029,880.3213 Q1240.3638,880.4707 1239.6582,880.4707 Q1237.1514,880.4707 1235.8315,878.8189 Q1234.5117,877.167 1234.5117,874.0459 Q1234.5117,870.9165 1235.8315,869.2647 Q1237.1514,867.6128 1239.6582,867.6128 Q1240.3638,867.6128 1241.0112,867.7622 Q1241.6587,867.9116 1242.2231,868.2105 L1242.2231,870.9331 Q1241.5923,870.3521 1240.9988,870.0823 Q1240.4053,869.8125 1239.7744,869.8125 Q1238.4297,869.8125 1237.7449,870.8792 Q1237.0601,871.9458 1237.0601,874.0459 Q1237.0601,876.1377 1237.7449,877.2044 Q1238.4297,878.271 1239.7744,878.271 Q1240.4053,878.271 1240.9988,878.0012 Q1241.5923,877.7315 1242.2231,877.1504 Z " fill="#000000"/><text fill="#000000" font-family="sans-serif" font-size="14" lengthAdjust="spacing" textLength="107" x="1259.75" y="879.521">RankRepository</text><line style="stroke:#181818;stroke-width:0.5;" x1="1099" x2="1495" y1="890.23" y2="890.23"/><line style="stroke:#181818;stroke-width:0.5;" x1="1099" x2="1495" y1="898.23" y2="898.23"/><ellipse cx="1109" cy="911.9741" fill="#84BE84" rx="3" ry="3" style="stroke:#038048;stroke-width:1.0;"/><text fill="#000000" font-family="sans-serif" font-size="14" lengthAdjust="spacing" textLength="372" x="1118" y="915.7652">findByJobReference(jobReference: JobReference): Rank</text></g><!--class JobReference--><g id="elem_JobReference"><rect codeLine="46" fill="#F1F1F1" height="80.9766" id="JobReference" rx="2.5" ry="2.5" style="stroke:#181818;stroke-width:0.5;" width="175" x="2007.5" y="849.98"/><ellipse cx="2046.35" cy="865.98" fill="#ADD1B2" rx="11" ry="11" style="stroke:#181818;stroke-width:1.0;"/><path d="M2049.3231,871.6231 Q2048.7421,871.9219 2048.1029,872.0713 Q2047.4638,872.2207 2046.7582,872.2207 Q2044.2514,872.2207 2042.9315,870.5689 Q2041.6117,868.917 2041.6117,865.7959 Q2041.6117,862.6665 2042.9315,861.0147 Q2044.2514,859.3628 2046.7582,859.3628 Q2047.4638,859.3628 2048.1112,859.5122 Q2048.7587,859.6616 2049.3231,859.9605 L2049.3231,862.6831 Q2048.6923,862.1021 2048.0988,861.8323 Q2047.5053,861.5625 2046.8744,861.5625 Q2045.5297,861.5625 2044.8449,862.6292 Q2044.1601,863.6958 2044.1601,865.7959 Q2044.1601,867.8877 2044.8449,868.9544 Q2045.5297,870.021 2046.8744,870.021 Q2047.5053,870.021 2048.0988,869.7512 Q2048.6923,869.4815 2049.3231,868.9004 Z " fill="#000000"/><text fill="#000000" font-family="sans-serif" font-size="14" lengthAdjust="spacing" textLength="90" x="2065.65" y="871.271">JobReference</text><line style="stroke:#181818;stroke-width:0.5;" x1="2008.5" x2="2181.5" y1="881.98" y2="881.98"/><ellipse cx="2018.5" cy="895.7241" fill="none" rx="3" ry="3" style="stroke:#038048;stroke-width:1.0;"/><text fill="#000000" font-family="sans-serif" font-size="14" lengthAdjust="spacing" textLength="149" x="2027.5" y="899.5152">customerCode: String</text><ellipse cx="2018.5" cy="912.2124" fill="none" rx="3" ry="3" style="stroke:#038048;stroke-width:1.0;"/><text fill="#000000" font-family="sans-serif" font-size="14" lengthAdjust="spacing" textLength="103" x="2027.5" y="916.0034">jobNumber: int</text><line style="stroke:#181818;stroke-width:0.5;" x1="2008.5" x2="2181.5" y1="922.9566" y2="922.9566"/></g><!--class RecruitmentProcess--><g id="elem_RecruitmentProcess"><rect codeLine="51" fill="#F1F1F1" height="196.3945" id="RecruitmentProcess" rx="2.5" ry="2.5" style="stroke:#181818;stroke-width:0.5;" width="396" x="1576" y="792.27"/><ellipse cx="1702.25" cy="808.27" fill="#ADD1B2" rx="11" ry="11" style="stroke:#181818;stroke-width:1.0;"/><path d="M1705.2231,813.9131 Q1704.6421,814.2119 1704.0029,814.3613 Q1703.3638,814.5107 1702.6582,814.5107 Q1700.1514,814.5107 1698.8315,812.8589 Q1697.5117,811.207 1697.5117,808.0859 Q1697.5117,804.9565 1698.8315,803.3047 Q1700.1514,801.6528 1702.6582,801.6528 Q1703.3638,801.6528 1704.0112,801.8022 Q1704.6587,801.9516 1705.2231,802.2505 L1705.2231,804.9731 Q1704.5923,804.3921 1703.9988,804.1223 Q1703.4053,803.8525 1702.7744,803.8525 Q1701.4297,803.8525 1700.7449,804.9192 Q1700.0601,805.9858 1700.0601,808.0859 Q1700.0601,810.1777 1700.7449,811.2444 Q1701.4297,812.311 1702.7744,812.311 Q1703.4053,812.311 1703.9988,812.0412 Q1704.5923,811.7715 1705.2231,811.1904 Z " fill="#000000"/><text fill="#000000" font-family="sans-serif" font-size="14" lengthAdjust="spacing" textLength="135" x="1722.75" y="813.561">RecruitmentProcess</text><line style="stroke:#181818;stroke-width:0.5;" x1="1577" x2="1971" y1="824.27" y2="824.27"/><ellipse cx="1587" cy="838.0141" fill="none" rx="3" ry="3" style="stroke:#038048;stroke-width:1.0;"/><text fill="#000000" font-family="sans-serif" font-size="14" lengthAdjust="spacing" textLength="55" x="1596" y="841.8052">id: Long</text><ellipse cx="1587" cy="854.5024" fill="none" rx="3" ry="3" style="stroke:#038048;stroke-width:1.0;"/><text fill="#000000" font-family="sans-serif" font-size="14" lengthAdjust="spacing" textLength="226" x="1596" y="858.2934">status: RecruitmentProcessStatus</text><ellipse cx="1587" cy="870.9907" fill="none" rx="3" ry="3" style="stroke:#038048;stroke-width:1.0;"/><text fill="#000000" font-family="sans-serif" font-size="14" lengthAdjust="spacing" textLength="141" x="1596" y="874.7817">phases: List&lt;Phase&gt;</text><line style="stroke:#181818;stroke-width:0.5;" x1="1577" x2="1971" y1="881.7348" y2="881.7348"/><ellipse cx="1587" cy="895.479" fill="#84BE84" rx="3" ry="3" style="stroke:#038048;stroke-width:1.0;"/><text fill="#000000" font-family="sans-serif" font-size="14" lengthAdjust="spacing" textLength="202" x="1596" y="899.27">addPhase(phase: Phase): void</text><ellipse cx="1587" cy="911.9673" fill="#84BE84" rx="3" ry="3" style="stroke:#038048;stroke-width:1.0;"/><text fill="#000000" font-family="sans-serif" font-size="14" lengthAdjust="spacing" textLength="227" x="1596" y="915.7583">removePhase(phase: Phase): void</text><polygon fill="#4177AF" points="1587,924.4555,1583,930.4555,1591,930.4555" style="stroke:#1963A0;stroke-width:1.0;"/><text fill="#000000" font-family="sans-serif" font-size="14" lengthAdjust="spacing" textLength="145" x="1596" y="932.2466">nextPhase(): boolean</text><polygon fill="#4177AF" points="1587,940.9438,1583,946.9438,1591,946.9438" style="stroke:#1963A0;stroke-width:1.0;"/><text fill="#000000" font-family="sans-serif" font-size="14" lengthAdjust="spacing" textLength="173" x="1596" y="948.7348">previousPhase(): boolean</text><ellipse cx="1587" cy="961.4321" fill="#84BE84" rx="3" ry="3" style="stroke:#038048;stroke-width:1.0;"/><text fill="#000000" font-family="sans-serif" font-size="14" lengthAdjust="spacing" textLength="148" x="1596" y="965.2231">currentPhase(): Phase</text><rect fill="#F24D5C" height="6" style="stroke:#C82930;stroke-width:1.0;" width="6" x="1584" y="974.9204"/><text fill="#000000" font-family="sans-serif" font-size="14" lengthAdjust="spacing" textLength="370" x="1596" y="981.7114">openPhaseByName(phaseName: PhaseName): boolean</text></g><!--class Phase--><g id="elem_Phase"><rect codeLine="63" fill="#F1F1F1" height="146.9297" id="Phase" rx="2.5" ry="2.5" style="stroke:#181818;stroke-width:0.5;" width="159" x="1693.5" y="1065.67"/><ellipse cx="1748.75" cy="1081.67" fill="#ADD1B2" rx="11" ry="11" style="stroke:#181818;stroke-width:1.0;"/><path d="M1751.7231,1087.3131 Q1751.1421,1087.6119 1750.5029,1087.7613 Q1749.8638,1087.9107 1749.1582,1087.9107 Q1746.6514,1087.9107 1745.3315,1086.2589 Q1744.0117,1084.607 1744.0117,1081.4859 Q1744.0117,1078.3565 1745.3315,1076.7047 Q1746.6514,1075.0528 1749.1582,1075.0528 Q1749.8638,1075.0528 1750.5112,1075.2022 Q1751.1587,1075.3516 1751.7231,1075.6505 L1751.7231,1078.3731 Q1751.0923,1077.7921 1750.4988,1077.5223 Q1749.9053,1077.2525 1749.2744,1077.2525 Q1747.9297,1077.2525 1747.2449,1078.3192 Q1746.5601,1079.3858 1746.5601,1081.4859 Q1746.5601,1083.5777 1747.2449,1084.6444 Q1747.9297,1085.711 1749.2744,1085.711 Q1749.9053,1085.711 1750.4988,1085.4412 Q1751.0923,1085.1715 1751.7231,1084.5904 Z " fill="#000000"/><text fill="#000000" font-family="sans-serif" font-size="14" lengthAdjust="spacing" textLength="40" x="1769.25" y="1086.961">Phase</text><line style="stroke:#181818;stroke-width:0.5;" x1="1694.5" x2="1851.5" y1="1097.67" y2="1097.67"/><ellipse cx="1704.5" cy="1111.4141" fill="none" rx="3" ry="3" style="stroke:#038048;stroke-width:1.0;"/><text fill="#000000" font-family="sans-serif" font-size="14" lengthAdjust="spacing" textLength="125" x="1713.5" y="1115.2052">name: PhaseName</text><ellipse cx="1704.5" cy="1127.9024" fill="none" rx="3" ry="3" style="stroke:#038048;stroke-width:1.0;"/><text fill="#000000" font-family="sans-serif" font-size="14" lengthAdjust="spacing" textLength="133" x="1713.5" y="1131.6934">startDate: StartDate</text><ellipse cx="1704.5" cy="1144.3907" fill="none" rx="3" ry="3" style="stroke:#038048;stroke-width:1.0;"/><text fill="#000000" font-family="sans-serif" font-size="14" lengthAdjust="spacing" textLength="122" x="1713.5" y="1148.1817">endDate: EndDate</text><ellipse cx="1704.5" cy="1160.879" fill="none" rx="3" ry="3" style="stroke:#038048;stroke-width:1.0;"/><text fill="#000000" font-family="sans-serif" font-size="14" lengthAdjust="spacing" textLength="131" x="1713.5" y="1164.67">status: PhaseStatus</text><line style="stroke:#181818;stroke-width:0.5;" x1="1694.5" x2="1851.5" y1="1171.6231" y2="1171.6231"/><ellipse cx="1704.5" cy="1185.3673" fill="#84BE84" rx="3" ry="3" style="stroke:#038048;stroke-width:1.0;"/><text fill="#000000" font-family="sans-serif" font-size="14" lengthAdjust="spacing" textLength="82" x="1713.5" y="1189.1583">open(): void</text><ellipse cx="1704.5" cy="1201.8555" fill="#84BE84" rx="3" ry="3" style="stroke:#038048;stroke-width:1.0;"/><text fill="#000000" font-family="sans-serif" font-size="14" lengthAdjust="spacing" textLength="82" x="1713.5" y="1205.6466">close(): void</text></g><!--class PhaseName--><g id="elem_PhaseName"><rect codeLine="72" fill="#F1F1F1" height="130.4414" id="PhaseName" rx="2.5" ry="2.5" style="stroke:#181818;stroke-width:0.5;" width="111" x="1577.5" y="1272.6"/><ellipse cx="1592.5" cy="1288.6" fill="#EB937F" rx="11" ry="11" style="stroke:#181818;stroke-width:1.0;"/><path d="M1596.6143,1294.6 L1588.8945,1294.6 L1588.8945,1282.2069 L1596.6143,1282.2069 L1596.6143,1284.3651 L1591.3433,1284.3651 L1591.3433,1287.038 L1596.1162,1287.038 L1596.1162,1289.1962 L1591.3433,1289.1962 L1591.3433,1292.4418 L1596.6143,1292.4418 Z " fill="#000000"/><text fill="#000000" font-family="sans-serif" font-size="14" lengthAdjust="spacing" textLength="79" x="1606.5" y="1293.891">PhaseName</text><line style="stroke:#181818;stroke-width:0.5;" x1="1578.5" x2="1687.5" y1="1304.6" y2="1304.6"/><text fill="#000000" font-family="sans-serif" font-size="14" lengthAdjust="spacing" textLength="95" x="1583.5" y="1322.1352">APPLICATION,</text><text fill="#000000" font-family="sans-serif" font-size="14" lengthAdjust="spacing" textLength="81" x="1583.5" y="1338.6234">SCREENING,</text><text fill="#000000" font-family="sans-serif" font-size="14" lengthAdjust="spacing" textLength="85" x="1583.5" y="1355.1117">INTERVIEWS,</text><text fill="#000000" font-family="sans-serif" font-size="14" lengthAdjust="spacing" textLength="70" x="1583.5" y="1371.6">ANALYSIS,</text><text fill="#000000" font-family="sans-serif" font-size="14" lengthAdjust="spacing" textLength="51" x="1583.5" y="1388.0883">RESULT</text><line style="stroke:#181818;stroke-width:0.5;" x1="1578.5" x2="1687.5" y1="1395.0414" y2="1395.0414"/></g><!--class StartDate--><g id="elem_StartDate"><rect codeLine="80" fill="#F1F1F1" height="64.4883" id="StartDate" rx="2.5" ry="2.5" style="stroke:#181818;stroke-width:0.5;" width="95" x="1723.5" y="1305.58"/><ellipse cx="1738.5" cy="1321.58" fill="#ADD1B2" rx="11" ry="11" style="stroke:#181818;stroke-width:1.0;"/><path d="M1741.4731,1327.2231 Q1740.8921,1327.5219 1740.2529,1327.6713 Q1739.6138,1327.8207 1738.9082,1327.8207 Q1736.4014,1327.8207 1735.0815,1326.1689 Q1733.7617,1324.517 1733.7617,1321.3959 Q1733.7617,1318.2665 1735.0815,1316.6147 Q1736.4014,1314.9628 1738.9082,1314.9628 Q1739.6138,1314.9628 1740.2612,1315.1122 Q1740.9087,1315.2616 1741.4731,1315.5605 L1741.4731,1318.2831 Q1740.8423,1317.7021 1740.2488,1317.4323 Q1739.6553,1317.1625 1739.0244,1317.1625 Q1737.6797,1317.1625 1736.9949,1318.2292 Q1736.3101,1319.2958 1736.3101,1321.3959 Q1736.3101,1323.4877 1736.9949,1324.5544 Q1737.6797,1325.621 1739.0244,1325.621 Q1739.6553,1325.621 1740.2488,1325.3512 Q1740.8423,1325.0815 1741.4731,1324.5004 Z " fill="#000000"/><text fill="#000000" font-family="sans-serif" font-size="14" lengthAdjust="spacing" textLength="63" x="1752.5" y="1326.871">StartDate</text><line style="stroke:#181818;stroke-width:0.5;" x1="1724.5" x2="1817.5" y1="1337.58" y2="1337.58"/><ellipse cx="1734.5" cy="1351.3241" fill="none" rx="3" ry="3" style="stroke:#038048;stroke-width:1.0;"/><text fill="#000000" font-family="sans-serif" font-size="14" lengthAdjust="spacing" textLength="69" x="1743.5" y="1355.1152">date: Date</text><line style="stroke:#181818;stroke-width:0.5;" x1="1724.5" x2="1817.5" y1="1362.0683" y2="1362.0683"/></g><!--class EndDate--><g id="elem_EndDate"><rect codeLine="84" fill="#F1F1F1" height="64.4883" id="EndDate" rx="2.5" ry="2.5" style="stroke:#181818;stroke-width:0.5;" width="95" x="1853.5" y="1305.58"/><ellipse cx="1871.2" cy="1321.58" fill="#ADD1B2" rx="11" ry="11" style="stroke:#181818;stroke-width:1.0;"/><path d="M1874.1731,1327.2231 Q1873.5921,1327.5219 1872.9529,1327.6713 Q1872.3138,1327.8207 1871.6082,1327.8207 Q1869.1014,1327.8207 1867.7815,1326.1689 Q1866.4617,1324.517 1866.4617,1321.3959 Q1866.4617,1318.2665 1867.7815,1316.6147 Q1869.1014,1314.9628 1871.6082,1314.9628 Q1872.3138,1314.9628 1872.9612,1315.1122 Q1873.6087,1315.2616 1874.1731,1315.5605 L1874.1731,1318.2831 Q1873.5423,1317.7021 1872.9488,1317.4323 Q1872.3553,1317.1625 1871.7244,1317.1625 Q1870.3797,1317.1625 1869.6949,1318.2292 Q1869.0101,1319.2958 1869.0101,1321.3959 Q1869.0101,1323.4877 1869.6949,1324.5544 Q1870.3797,1325.621 1871.7244,1325.621 Q1872.3553,1325.621 1872.9488,1325.3512 Q1873.5423,1325.0815 1874.1731,1324.5004 Z " fill="#000000"/><text fill="#000000" font-family="sans-serif" font-size="14" lengthAdjust="spacing" textLength="57" x="1885.8" y="1326.871">EndDate</text><line style="stroke:#181818;stroke-width:0.5;" x1="1854.5" x2="1947.5" y1="1337.58" y2="1337.58"/><ellipse cx="1864.5" cy="1351.3241" fill="none" rx="3" ry="3" style="stroke:#038048;stroke-width:1.0;"/><text fill="#000000" font-family="sans-serif" font-size="14" lengthAdjust="spacing" textLength="69" x="1873.5" y="1355.1152">date: Date</text><line style="stroke:#181818;stroke-width:0.5;" x1="1854.5" x2="1947.5" y1="1362.0683" y2="1362.0683"/></g><!--class PhaseStatus--><g id="elem_PhaseStatus"><rect codeLine="88" fill="#F1F1F1" height="80.9766" id="PhaseStatus" rx="2.5" ry="2.5" style="stroke:#181818;stroke-width:0.5;" width="114" x="1983" y="1297.33"/><ellipse cx="1998" cy="1313.33" fill="#EB937F" rx="11" ry="11" style="stroke:#181818;stroke-width:1.0;"/><path d="M2002.1143,1319.33 L1994.3945,1319.33 L1994.3945,1306.9369 L2002.1143,1306.9369 L2002.1143,1309.0951 L1996.8433,1309.0951 L1996.8433,1311.768 L2001.6162,1311.768 L2001.6162,1313.9262 L1996.8433,1313.9262 L1996.8433,1317.1718 L2002.1143,1317.1718 Z " fill="#000000"/><text fill="#000000" font-family="sans-serif" font-size="14" lengthAdjust="spacing" textLength="82" x="2012" y="1318.621">PhaseStatus</text><line style="stroke:#181818;stroke-width:0.5;" x1="1984" x2="2096" y1="1329.33" y2="1329.33"/><text fill="#000000" font-family="sans-serif" font-size="14" lengthAdjust="spacing" textLength="41" x="1989" y="1346.8652">OPEN,</text><text fill="#000000" font-family="sans-serif" font-size="14" lengthAdjust="spacing" textLength="54" x="1989" y="1363.3534">CLOSED</text><line style="stroke:#181818;stroke-width:0.5;" x1="1984" x2="2096" y1="1370.3066" y2="1370.3066"/></g><!--class RecruitmentProcessStatus--><g id="elem_RecruitmentProcessStatus"><rect codeLine="93" fill="#F1F1F1" height="97.4648" id="RecruitmentProcessStatus" rx="2.5" ry="2.5" style="stroke:#181818;stroke-width:0.5;" width="209" x="1887.5" y="1090.4"/><ellipse cx="1902.5" cy="1106.4" fill="#EB937F" rx="11" ry="11" style="stroke:#181818;stroke-width:1.0;"/><path d="M1906.6143,1112.4 L1898.8945,1112.4 L1898.8945,1100.0069 L1906.6143,1100.0069 L1906.6143,1102.1651 L1901.3433,1102.1651 L1901.3433,1104.838 L1906.1162,1104.838 L1906.1162,1106.9962 L1901.3433,1106.9962 L1901.3433,1110.2418 L1906.6143,1110.2418 Z " fill="#000000"/><text fill="#000000" font-family="sans-serif" font-size="14" lengthAdjust="spacing" textLength="177" x="1916.5" y="1111.691">RecruitmentProcessStatus</text><line style="stroke:#181818;stroke-width:0.5;" x1="1888.5" x2="2095.5" y1="1122.4" y2="1122.4"/><text fill="#000000" font-family="sans-serif" font-size="14" lengthAdjust="spacing" textLength="92" x="1893.5" y="1139.9352">UNINITIATED,</text><text fill="#000000" font-family="sans-serif" font-size="14" lengthAdjust="spacing" textLength="87" x="1893.5" y="1156.4234">IN_PROCESS,</text><text fill="#000000" font-family="sans-serif" font-size="14" lengthAdjust="spacing" textLength="62" x="1893.5" y="1172.9117">FINISHED</text><line style="stroke:#181818;stroke-width:0.5;" x1="1888.5" x2="2095.5" y1="1179.8648" y2="1179.8648"/></g><!--class PhasesUI--><g id="elem_PhasesUI"><rect codeLine="102" fill="#F1F1F1" height="163.418" id="PhasesUI" rx="2.5" ry="2.5" style="stroke:#181818;stroke-width:0.5;" width="488" x="1053" y="41"/><ellipse cx="1262.25" cy="57" fill="#ADD1B2" rx="11" ry="11" style="stroke:#181818;stroke-width:1.0;"/><path d="M1265.2231,62.6431 Q1264.6421,62.9419 1264.0029,63.0913 Q1263.3638,63.2407 1262.6582,63.2407 Q1260.1514,63.2407 1258.8315,61.5889 Q1257.5117,59.937 1257.5117,56.8159 Q1257.5117,53.6865 1258.8315,52.0347 Q1260.1514,50.3828 1262.6582,50.3828 Q1263.3638,50.3828 1264.0112,50.5322 Q1264.6587,50.6816 1265.2231,50.9805 L1265.2231,53.7031 Q1264.5923,53.1221 1263.9988,52.8523 Q1263.4053,52.5825 1262.7744,52.5825 Q1261.4297,52.5825 1260.7449,53.6492 Q1260.0601,54.7158 1260.0601,56.8159 Q1260.0601,58.9077 1260.7449,59.9744 Q1261.4297,61.041 1262.7744,61.041 Q1263.4053,61.041 1263.9988,60.7712 Q1264.5923,60.5015 1265.2231,59.9204 Z " fill="#000000"/><text fill="#000000" font-family="sans-serif" font-size="14" lengthAdjust="spacing" textLength="61" x="1282.75" y="62.291">PhasesUI</text><line style="stroke:#181818;stroke-width:0.5;" x1="1054" x2="1540" y1="73" y2="73"/><rect fill="none" height="6" style="stroke:#C82930;stroke-width:1.0;" width="6" x="1061" y="83.7441"/><text fill="#000000" font-family="sans-serif" font-size="14" lengthAdjust="spacing" textLength="192" x="1073" y="90.5352">controller: PhasesController</text><line style="stroke:#181818;stroke-width:0.5;" x1="1054" x2="1540" y1="97.4883" y2="97.4883"/><ellipse cx="1064" cy="111.2324" fill="#84BE84" rx="3" ry="3" style="stroke:#038048;stroke-width:1.0;"/><text fill="#000000" font-family="sans-serif" font-size="14" lengthAdjust="spacing" textLength="129" x="1073" y="115.0234">doShow(): boolean</text><ellipse cx="1064" cy="127.7207" fill="#84BE84" rx="3" ry="3" style="stroke:#038048;stroke-width:1.0;"/><text fill="#000000" font-family="sans-serif" font-size="14" lengthAdjust="spacing" textLength="118" x="1073" y="131.5117">headline(): String</text><rect fill="#F24D5C" height="6" style="stroke:#C82930;stroke-width:1.0;" width="6" x="1061" y="141.209"/><text fill="#000000" font-family="sans-serif" font-size="14" lengthAdjust="spacing" textLength="195" x="1073" y="148">askForJobReference(): String</text><rect fill="#F24D5C" height="6" style="stroke:#C82930;stroke-width:1.0;" width="6" x="1061" y="157.6973"/><text fill="#000000" font-family="sans-serif" font-size="14" lengthAdjust="spacing" textLength="459" x="1073" y="164.4883">showOptions(options: Iterable&lt;String&gt;, jobReference: String): void</text><rect fill="#F24D5C" height="6" style="stroke:#C82930;stroke-width:1.0;" width="6" x="1061" y="174.1855"/><text fill="#000000" font-family="sans-serif" font-size="14" lengthAdjust="spacing" textLength="462" x="1073" y="180.9766">processTransition(chosenOption: String, jobReference: String): void</text><rect fill="#F24D5C" height="6" style="stroke:#C82930;stroke-width:1.0;" width="6" x="1061" y="190.6738"/><text fill="#000000" font-family="sans-serif" font-size="14" lengthAdjust="spacing" textLength="335" x="1073" y="197.4648">showConfirmationOrError(message: String): void</text></g><!--link PhasesController to PhaseValidatorService--><g id="link_PhasesController_PhaseValidatorService"><path codeLine="113" d="M1297,418.32 C1297,444.24 1297,468.38 1297,495.71 " fill="none" id="PhasesController-to-PhaseValidatorService" style="stroke:#181818;stroke-width:1.0;"/><polygon fill="#181818" points="1297,501.71,1301,492.71,1297,496.71,1293,492.71,1297,501.71" style="stroke:#181818;stroke-width:1.0;"/></g><!--link PhasesController to JobOpeningRepository--><g id="link_PhasesController_JobOpeningRepository"><path codeLine="114" d="M1039.27,395.14 C975.93,410.52 909.54,431.22 851,458.86 C629.64,563.35 415.9755,760.0506 328.9055,845.3706 " fill="none" id="PhasesController-to-JobOpeningRepository" style="stroke:#181818;stroke-width:1.0;"/><polygon fill="#181818" points="324.62,849.57,333.8478,846.128,328.1912,846.0705,328.2487,840.414,324.62,849.57" style="stroke:#181818;stroke-width:1.0;"/></g><!--link PhasesController to JobReference--><g id="link_PhasesController_JobReference"><path codeLine="115" d="M1554.92,389.05 C1618.99,404.58 1685.69,426.87 1743,458.86 C1911.22,552.72 2028.2963,756.4538 2072.9863,844.1738 " fill="none" id="PhasesController-to-JobReference" style="stroke:#181818;stroke-width:1.0;stroke-dasharray:7.0,7.0;"/><polygon fill="#181818" points="2075.71,849.52,2075.1886,839.685,2073.4403,845.0649,2068.0604,843.3165,2075.71,849.52" style="stroke:#181818;stroke-width:1.0;"/></g><!--link PhaseValidatorService to ApplicationRepository--><g id="link_PhaseValidatorService_ApplicationRepository"><path codeLine="116" d="M1147.5,665.61 C1124.65,678.8 1101.52,692.62 1080,706.27 C1016.84,746.33 952.7926,792.1903 902.2526,829.6003 " fill="none" id="PhaseValidatorService-to-ApplicationRepository" style="stroke:#181818;stroke-width:1.0;"/><polygon fill="#181818" points="897.43,833.17,907.0437,831.0305,901.4488,830.1953,902.2841,824.6004,897.43,833.17" style="stroke:#181818;stroke-width:1.0;"/></g><!--link PhaseValidatorService to RecruitmentProcess--><g id="link_PhaseValidatorService_RecruitmentProcess"><path codeLine="117" d="M1444.69,665.71 C1467.44,678.92 1490.5,692.72 1512,706.27 C1554.25,732.92 1594.269,760.023 1634.759,788.443 " fill="none" id="PhaseValidatorService-to-RecruitmentProcess" style="stroke:#181818;stroke-width:1.0;stroke-dasharray:7.0,7.0;"/><polygon fill="#181818" points="1639.67,791.89,1634.6015,783.4454,1635.5775,789.0175,1630.0055,789.9934,1639.67,791.89" style="stroke:#181818;stroke-width:1.0;"/></g><!--link PhaseValidatorService to RankRepository--><g id="link_PhaseValidatorService_RankRepository"><path codeLine="118" d="M1297,665.47 C1297,728.63 1297,806.98 1297,852.01 " fill="none" id="PhaseValidatorService-to-RankRepository" style="stroke:#181818;stroke-width:1.0;"/><polygon fill="#181818" points="1297,858.01,1301,849.01,1297,853.01,1293,849.01,1297,858.01" style="stroke:#181818;stroke-width:1.0;"/></g><!--link RecruitmentProcess to Phase--><g id="link_RecruitmentProcess_Phase"><path codeLine="119" d="M1773.6,988.96 C1773.5,1014.41 1773.4126,1035.4 1773.3226,1059.32 " fill="none" id="RecruitmentProcess-to-Phase" style="stroke:#181818;stroke-width:1.0;"/><polygon fill="#181818" points="1773.3,1065.32,1777.3338,1056.3351,1773.3188,1060.32,1769.3339,1056.305,1773.3,1065.32" style="stroke:#181818;stroke-width:1.0;"/><text fill="#000000" font-family="sans-serif" font-size="13" lengthAdjust="spacing" textLength="22" x="1774" y="1032.2384">has</text></g><!--link Phase to PhaseName--><g id="link_Phase_PhaseName"><path codeLine="120" d="M1721.07,1213.09 C1707.22,1232.55 1695.8301,1248.5524 1682.3301,1267.5124 " fill="none" id="Phase-to-PhaseName" style="stroke:#181818;stroke-width:1.0;"/><polygon fill="#181818" points="1678.85,1272.4,1687.3286,1267.3886,1681.7501,1268.327,1680.8118,1262.7485,1678.85,1272.4" style="stroke:#181818;stroke-width:1.0;"/></g><!--link Phase to StartDate--><g id="link_Phase_StartDate"><path codeLine="121" d="M1772.26,1213.09 C1771.94,1244.8 1771.6305,1274.2803 1771.3805,1299.0903 " fill="none" id="Phase-to-StartDate" style="stroke:#181818;stroke-width:1.0;"/><polygon fill="#181818" points="1771.32,1305.09,1775.4105,1296.1308,1771.3704,1300.0903,1767.4109,1296.0502,1771.32,1305.09" style="stroke:#181818;stroke-width:1.0;"/></g><!--link Phase to EndDate--><g id="link_Phase_EndDate"><path codeLine="122" d="M1820.48,1213.09 C1841.11,1244.8 1860.9267,1275.2515 1877.0767,1300.0615 " fill="none" id="Phase-to-EndDate" style="stroke:#181818;stroke-width:1.0;"/><polygon fill="#181818" points="1880.35,1305.09,1878.7924,1295.3651,1877.6223,1300.8996,1872.0878,1299.7295,1880.35,1305.09" style="stroke:#181818;stroke-width:1.0;"/></g><!--link Phase to PhaseStatus--><g id="link_Phase_PhaseStatus"><path codeLine="123" d="M1852.81,1200.57 C1858.59,1204.69 1864.36,1208.74 1870,1212.6 C1911.52,1241.01 1925.54,1242.69 1966,1272.6 C1976.12,1280.08 1982.0082,1284.7126 1991.7582,1293.0426 " fill="none" id="Phase-to-PhaseStatus" style="stroke:#181818;stroke-width:1.0;"/><polygon fill="#181818" points="1996.32,1296.94,1992.0756,1288.0527,1992.5185,1293.6921,1986.879,1294.1351,1996.32,1296.94" style="stroke:#181818;stroke-width:1.0;"/></g><!--link RecruitmentProcess to RecruitmentProcessStatus--><g id="link_RecruitmentProcess_RecruitmentProcessStatus"><path codeLine="124" d="M1860.16,988.96 C1890.86,1023.7 1920.1264,1056.8144 1945.5464,1085.5744 " fill="none" id="RecruitmentProcess-to-RecruitmentProcessStatus" style="stroke:#181818;stroke-width:1.0;"/><polygon fill="#181818" points="1949.52,1090.07,1946.5568,1080.6775,1946.2087,1086.3236,1940.5626,1085.9756,1949.52,1090.07" style="stroke:#181818;stroke-width:1.0;"/></g><!--link PhasesUI to PhasesController--><g id="link_PhasesUI_PhasesController"><path codeLine="126" d="M1297,204.71 C1297,231.71 1297,255.41 1297,280.99 " fill="none" id="PhasesUI-to-PhasesController" style="stroke:#181818;stroke-width:1.0;"/><polygon fill="#181818" points="1297,286.99,1301,277.99,1297,281.99,1293,277.99,1297,286.99" style="stroke:#181818;stroke-width:1.0;"/></g><!--SRC=[jLVTRjem5BxdAQnUCRNi0L1LYT9qoyG04TffLvER7C1hi2FReMkdxjbdEodnNwfjrRWXEJx-pl5tVdnIuVmURm5D6PMSbILmz7E0r2yliH1ekSC2HB2eVoDKwSLRN982IyOpu0UImxZPuukjRT_PtQ82IkXs1HKJH2azZj6dYDJQX6kvUngZYVfZd3nXIHZreK_HeR4A2cm56-10SnX-jrwCdUFRkp5A9N1yLy9v9hcoVM61LPpb8CIQOwhSKVQ6-Ou9e8jAlunHi-CCkVYDL27VCLO2fWRmUV0y65GjrQtR8Sy-PmxPkAfAafjpsxHDOc9hctB-tjPVEU-s8kIy9d8FL2wRWolbG1RXshXkaTH3Ho_H8xG5cLMGamt93TYKrLGEyvfpRLXBsgIQuptuV7ln95HQo3q-NZF-W7dHRuBM-plWYut5hZ3OPqW4dfe5B-2lchzKYV2VxJi9ryNRoRbOnLafTuesX1QNZtzUIqrXuFAyGxRhIU230MYNx99Ncm-C5Athbe_Hz7QSp3K5Daz_ux6TBIrKbdCmFhqH9wLILp4ylDMX5OYwbF-4ub3fLlwR0gsXmZJxp0ee5QvPUH5sCPvijo-BJWuUWIsNskFNGh8zyAa2VkaadefoSsvgnQNksRSJThB06Yd6QCO22q9YMKTxOMPMF7Lp9ohr6H7otDJeXQU1YyB8XvLLzdO1TAeSzkm0VwRz2r7uqRIIOQGPDIeLXmDXjNXLJHFVzIMjPHuSdH5YAgf6VlceUrRZdtwo6bd4G10Penm4Wxf0OKoul5ADLMT5- -Yf02qQXQHvw8cgiH0Df3xVC1wMl6GDBywQTJ9G_RjptZlSPBcSfTF9EbtCpvo5RBfAadaw_-2Aq_awMTscoPVCbK_cazdNBFMagoIxcQtxwJxo5L1U6BeSheBTBPb_kRUZes7QsxvO9XuJqzaYIwvweVfAqSEzKLocwtIoJgvyHhyjLujfaddSNIlzxADZE6XoDsbaFZuAczB8Z-FoE1YWhQvRi6p77c9LU8fsW8kIK9DbNkDJew2uLnECqwvZQaAXDrUo6BAgdI7yCQntV7LoU_JMOTX3qwufJZQ4xysblU09vumFzyg4OZcsqKGX-1mPZIvwlZUYgj6FZ43p_ViBvs8QnATp3HWVl-Fw6ZOoKVU3UxDwv0ux7X-DqOdwFsdGEhbfdfsiwvQTxAL1UZlRfjXZjFSs71mhueXaP_zl]--></g></svg>