<?xml version="1.0" encoding="us-ascii" standalone="no"?><svg xmlns="http://www.w3.org/2000/svg" xmlns:xlink="http://www.w3.org/1999/xlink" contentStyleType="text/css" height="1593px" preserveAspectRatio="none" style="width:1886px;height:1593px;background:#FFFFFF;" version="1.1" viewBox="0 0 1886 1593" width="1886px" zoomAndPan="magnify"><defs/><g><rect fill="#FFFFFF" height="1381.4844" style="stroke:#181818;stroke-width:1.0;" width="10" x="264.5" y="112.7988"/><rect fill="#FFFFFF" height="117.2422" style="stroke:#181818;stroke-width:1.0;" width="10" x="605.5" y="142.1094"/><rect fill="#FFFFFF" height="866.25" style="stroke:#181818;stroke-width:1.0;" width="10" x="605.5" y="347.2832"/><rect fill="#FFFFFF" height="163.5078" style="stroke:#181818;stroke-width:1.0;" width="10" x="605.5" y="1301.4648"/><rect fill="#FFFFFF" height="205.1738" style="stroke:#181818;stroke-width:1.0;" width="10" x="937.5" y="435.2148"/><rect fill="#FFFFFF" height="514.5234" style="stroke:#181818;stroke-width:1.0;" width="10" x="937.5" y="669.6992"/><rect fill="#FFFFFF" height="58.6211" style="stroke:#181818;stroke-width:1.0;" width="10" x="1331" y="171.4199"/><rect fill="#FFFFFF" height="58.6211" style="stroke:#181818;stroke-width:1.0;" width="10" x="1331" y="464.5254"/><rect fill="#FFFFFF" height="58.6211" style="stroke:#181818;stroke-width:1.0;" width="10" x="1331" y="552.457"/><rect fill="#FFFFFF" height="29.3105" style="stroke:#181818;stroke-width:1.0;" width="10" x="1494" y="376.5938"/><rect fill="#FFFFFF" height="29.3105" style="stroke:#181818;stroke-width:1.0;" width="10" x="1662.5" y="796.8965"/><rect fill="#FFFFFF" height="29.3105" style="stroke:#181818;stroke-width:1.0;" width="10" x="1662.5" y="879.8281"/><rect fill="#FFFFFF" height="29.3105" style="stroke:#181818;stroke-width:1.0;" width="10" x="1662.5" y="953.4043"/><rect fill="#FFFFFF" height="29.3105" style="stroke:#181818;stroke-width:1.0;" width="10" x="1662.5" y="1026.9805"/><rect fill="#FFFFFF" height="29.3105" style="stroke:#181818;stroke-width:1.0;" width="10" x="1807.5" y="723.3203"/><rect fill="none" height="386.5918" style="stroke:#000000;stroke-width:1.5;" width="1034.5" x="844.5" y="684.6992"/><rect fill="none" height="223.084" style="stroke:#000000;stroke-width:1.5;" width="901.5" x="854.5" y="841.207"/><rect fill="none" height="90.8867" style="stroke:#000000;stroke-width:1.5;" width="724" x="539" y="1316.4648"/><line style="stroke:#181818;stroke-width:0.5;stroke-dasharray:5.0,5.0;" x1="71" x2="71" y1="81.4883" y2="1512.2832"/><line style="stroke:#181818;stroke-width:0.5;stroke-dasharray:5.0,5.0;" x1="269" x2="269" y1="81.4883" y2="1512.2832"/><line style="stroke:#181818;stroke-width:0.5;stroke-dasharray:5.0,5.0;" x1="610" x2="610" y1="81.4883" y2="1512.2832"/><line style="stroke:#181818;stroke-width:0.5;stroke-dasharray:5.0,5.0;" x1="942.5" x2="942.5" y1="81.4883" y2="1512.2832"/><line style="stroke:#181818;stroke-width:0.5;stroke-dasharray:5.0,5.0;" x1="1182" x2="1182" y1="81.4883" y2="1512.2832"/><line style="stroke:#181818;stroke-width:0.5;stroke-dasharray:5.0,5.0;" x1="1336" x2="1336" y1="81.4883" y2="1512.2832"/><line style="stroke:#181818;stroke-width:0.5;stroke-dasharray:5.0,5.0;" x1="1499" x2="1499" y1="81.4883" y2="1512.2832"/><line style="stroke:#181818;stroke-width:0.5;stroke-dasharray:5.0,5.0;" x1="1667" x2="1667" y1="81.4883" y2="1512.2832"/><line style="stroke:#181818;stroke-width:0.5;stroke-dasharray:5.0,5.0;" x1="1812" x2="1812" y1="81.4883" y2="1512.2832"/><text fill="#000000" font-family="sans-serif" font-size="14" lengthAdjust="spacing" textLength="127" x="5" y="78.5352">CustomerManager</text><ellipse cx="71.5" cy="13.5" fill="#E2E2F0" rx="8" ry="8" style="stroke:#181818;stroke-width:0.5;"/><path d="M71.5,21.5 L71.5,48.5 M58.5,29.5 L84.5,29.5 M71.5,48.5 L58.5,63.5 M71.5,48.5 L84.5,63.5 " fill="none" style="stroke:#181818;stroke-width:0.5;"/><text fill="#000000" font-family="sans-serif" font-size="14" lengthAdjust="spacing" textLength="127" x="5" y="1524.8184">CustomerManager</text><ellipse cx="71.5" cy="1536.2715" fill="#E2E2F0" rx="8" ry="8" style="stroke:#181818;stroke-width:0.5;"/><path d="M71.5,1544.2715 L71.5,1571.2715 M58.5,1552.2715 L84.5,1552.2715 M71.5,1571.2715 L58.5,1586.2715 M71.5,1571.2715 L84.5,1586.2715 " fill="none" style="stroke:#181818;stroke-width:0.5;"/><text fill="#000000" font-family="sans-serif" font-size="14" lengthAdjust="spacing" textLength="61" x="236" y="78.5352">PhasesUI</text><path d="M249,37 L249,61 M249,49 L266,49 " fill="none" style="stroke:#181818;stroke-width:0.5;"/><ellipse cx="278" cy="49" fill="#E2E2F0" rx="12" ry="12" style="stroke:#181818;stroke-width:0.5;"/><text fill="#000000" font-family="sans-serif" font-size="14" lengthAdjust="spacing" textLength="61" x="236" y="1524.8184">PhasesUI</text><path d="M249,1531.7715 L249,1555.7715 M249,1543.7715 L266,1543.7715 " fill="none" style="stroke:#181818;stroke-width:0.5;"/><ellipse cx="278" cy="1543.7715" fill="#E2E2F0" rx="12" ry="12" style="stroke:#181818;stroke-width:0.5;"/><text fill="#000000" font-family="sans-serif" font-size="14" lengthAdjust="spacing" textLength="117" x="549" y="78.5352">PhasesController</text><ellipse cx="610.5" cy="49" fill="#E2E2F0" rx="12" ry="12" style="stroke:#181818;stroke-width:0.5;"/><polygon fill="#181818" points="606.5,37,612.5,32,610.5,37,612.5,42,606.5,37" style="stroke:#181818;stroke-width:1.0;"/><text fill="#000000" font-family="sans-serif" font-size="14" lengthAdjust="spacing" textLength="117" x="549" y="1524.8184">PhasesController</text><ellipse cx="610.5" cy="1543.7715" fill="#E2E2F0" rx="12" ry="12" style="stroke:#181818;stroke-width:0.5;"/><polygon fill="#181818" points="606.5,1531.7715,612.5,1526.7715,610.5,1531.7715,612.5,1536.7715,606.5,1531.7715" style="stroke:#181818;stroke-width:1.0;"/><text fill="#000000" font-family="sans-serif" font-size="14" lengthAdjust="spacing" textLength="150" x="864.5" y="78.5352">PhaseValidatorService</text><ellipse cx="942.5" cy="49" fill="#E2E2F0" rx="12" ry="12" style="stroke:#181818;stroke-width:0.5;"/><line style="stroke:#181818;stroke-width:0.5;" x1="930.5" x2="954.5" y1="63" y2="63"/><text fill="#000000" font-family="sans-serif" font-size="14" lengthAdjust="spacing" textLength="150" x="864.5" y="1524.8184">PhaseValidatorService</text><ellipse cx="942.5" cy="1543.7715" fill="#E2E2F0" rx="12" ry="12" style="stroke:#181818;stroke-width:0.5;"/><line style="stroke:#181818;stroke-width:0.5;" x1="930.5" x2="954.5" y1="1557.7715" y2="1557.7715"/><text fill="#000000" font-family="sans-serif" font-size="14" lengthAdjust="spacing" textLength="135" x="1112" y="78.5352">RecruitmentProcess</text><ellipse cx="1182.5" cy="49" fill="#E2E2F0" rx="12" ry="12" style="stroke:#181818;stroke-width:0.5;"/><line style="stroke:#181818;stroke-width:0.5;" x1="1170.5" x2="1194.5" y1="63" y2="63"/><text fill="#000000" font-family="sans-serif" font-size="14" lengthAdjust="spacing" textLength="135" x="1112" y="1524.8184">RecruitmentProcess</text><ellipse cx="1182.5" cy="1543.7715" fill="#E2E2F0" rx="12" ry="12" style="stroke:#181818;stroke-width:0.5;"/><line style="stroke:#181818;stroke-width:0.5;" x1="1170.5" x2="1194.5" y1="1557.7715" y2="1557.7715"/><rect fill="#E2E2F0" height="30.4883" rx="2.5" ry="2.5" style="stroke:#181818;stroke-width:0.5;" width="146" x="1263" y="50"/><text fill="#000000" font-family="sans-serif" font-size="14" lengthAdjust="spacing" textLength="132" x="1270" y="70.5352">PersistenceContext</text><rect fill="#E2E2F0" height="30.4883" rx="2.5" ry="2.5" style="stroke:#181818;stroke-width:0.5;" width="146" x="1263" y="1511.2832"/><text fill="#000000" font-family="sans-serif" font-size="14" lengthAdjust="spacing" textLength="132" x="1270" y="1531.8184">PersistenceContext</text><text fill="#000000" font-family="sans-serif" font-size="14" lengthAdjust="spacing" textLength="154" x="1419" y="78.5352">JobOpeningRepository</text><path d="M1481,29 C1481,19 1499,19 1499,19 C1499,19 1517,19 1517,29 L1517,55 C1517,65 1499,65 1499,65 C1499,65 1481,65 1481,55 L1481,29 " fill="#E2E2F0" style="stroke:#181818;stroke-width:1.5;"/><path d="M1481,29 C1481,39 1499,39 1499,39 C1499,39 1517,39 1517,29 " fill="none" style="stroke:#181818;stroke-width:1.5;"/><text fill="#000000" font-family="sans-serif" font-size="14" lengthAdjust="spacing" textLength="154" x="1419" y="1524.8184">JobOpeningRepository</text><path d="M1481,1537.7715 C1481,1527.7715 1499,1527.7715 1499,1527.7715 C1499,1527.7715 1517,1527.7715 1517,1537.7715 L1517,1563.7715 C1517,1573.7715 1499,1573.7715 1499,1573.7715 C1499,1573.7715 1481,1573.7715 1481,1563.7715 L1481,1537.7715 " fill="#E2E2F0" style="stroke:#181818;stroke-width:1.5;"/><path d="M1481,1537.7715 C1481,1547.7715 1499,1547.7715 1499,1547.7715 C1499,1547.7715 1517,1547.7715 1517,1537.7715 " fill="none" style="stroke:#181818;stroke-width:1.5;"/><text fill="#000000" font-family="sans-serif" font-size="14" lengthAdjust="spacing" textLength="151" x="1589" y="78.5352">ApplicationRepository</text><path d="M1649.5,29 C1649.5,19 1667.5,19 1667.5,19 C1667.5,19 1685.5,19 1685.5,29 L1685.5,55 C1685.5,65 1667.5,65 1667.5,65 C1667.5,65 1649.5,65 1649.5,55 L1649.5,29 " fill="#E2E2F0" style="stroke:#181818;stroke-width:1.5;"/><path d="M1649.5,29 C1649.5,39 1667.5,39 1667.5,39 C1667.5,39 1685.5,39 1685.5,29 " fill="none" style="stroke:#181818;stroke-width:1.5;"/><text fill="#000000" font-family="sans-serif" font-size="14" lengthAdjust="spacing" textLength="151" x="1589" y="1524.8184">ApplicationRepository</text><path d="M1649.5,1537.7715 C1649.5,1527.7715 1667.5,1527.7715 1667.5,1527.7715 C1667.5,1527.7715 1685.5,1527.7715 1685.5,1537.7715 L1685.5,1563.7715 C1685.5,1573.7715 1667.5,1573.7715 1667.5,1573.7715 C1667.5,1573.7715 1649.5,1573.7715 1649.5,1563.7715 L1649.5,1537.7715 " fill="#E2E2F0" style="stroke:#181818;stroke-width:1.5;"/><path d="M1649.5,1537.7715 C1649.5,1547.7715 1667.5,1547.7715 1667.5,1547.7715 C1667.5,1547.7715 1685.5,1547.7715 1685.5,1537.7715 " fill="none" style="stroke:#181818;stroke-width:1.5;"/><text fill="#000000" font-family="sans-serif" font-size="14" lengthAdjust="spacing" textLength="107" x="1756" y="78.5352">RankRepository</text><path d="M1794.5,29 C1794.5,19 1812.5,19 1812.5,19 C1812.5,19 1830.5,19 1830.5,29 L1830.5,55 C1830.5,65 1812.5,65 1812.5,65 C1812.5,65 1794.5,65 1794.5,55 L1794.5,29 " fill="#E2E2F0" style="stroke:#181818;stroke-width:1.5;"/><path d="M1794.5,29 C1794.5,39 1812.5,39 1812.5,39 C1812.5,39 1830.5,39 1830.5,29 " fill="none" style="stroke:#181818;stroke-width:1.5;"/><text fill="#000000" font-family="sans-serif" font-size="14" lengthAdjust="spacing" textLength="107" x="1756" y="1524.8184">RankRepository</text><path d="M1794.5,1537.7715 C1794.5,1527.7715 1812.5,1527.7715 1812.5,1527.7715 C1812.5,1527.7715 1830.5,1527.7715 1830.5,1537.7715 L1830.5,1563.7715 C1830.5,1573.7715 1812.5,1573.7715 1812.5,1573.7715 C1812.5,1573.7715 1794.5,1573.7715 1794.5,1563.7715 L1794.5,1537.7715 " fill="#E2E2F0" style="stroke:#181818;stroke-width:1.5;"/><path d="M1794.5,1537.7715 C1794.5,1547.7715 1812.5,1547.7715 1812.5,1547.7715 C1812.5,1547.7715 1830.5,1547.7715 1830.5,1537.7715 " fill="none" style="stroke:#181818;stroke-width:1.5;"/><rect fill="#FFFFFF" height="1381.4844" style="stroke:#181818;stroke-width:1.0;" width="10" x="264.5" y="112.7988"/><rect fill="#FFFFFF" height="117.2422" style="stroke:#181818;stroke-width:1.0;" width="10" x="605.5" y="142.1094"/><rect fill="#FFFFFF" height="866.25" style="stroke:#181818;stroke-width:1.0;" width="10" x="605.5" y="347.2832"/><rect fill="#FFFFFF" height="163.5078" style="stroke:#181818;stroke-width:1.0;" width="10" x="605.5" y="1301.4648"/><rect fill="#FFFFFF" height="205.1738" style="stroke:#181818;stroke-width:1.0;" width="10" x="937.5" y="435.2148"/><rect fill="#FFFFFF" height="514.5234" style="stroke:#181818;stroke-width:1.0;" width="10" x="937.5" y="669.6992"/><rect fill="#FFFFFF" height="58.6211" style="stroke:#181818;stroke-width:1.0;" width="10" x="1331" y="171.4199"/><rect fill="#FFFFFF" height="58.6211" style="stroke:#181818;stroke-width:1.0;" width="10" x="1331" y="464.5254"/><rect fill="#FFFFFF" height="58.6211" style="stroke:#181818;stroke-width:1.0;" width="10" x="1331" y="552.457"/><rect fill="#FFFFFF" height="29.3105" style="stroke:#181818;stroke-width:1.0;" width="10" x="1494" y="376.5938"/><rect fill="#FFFFFF" height="29.3105" style="stroke:#181818;stroke-width:1.0;" width="10" x="1662.5" y="796.8965"/><rect fill="#FFFFFF" height="29.3105" style="stroke:#181818;stroke-width:1.0;" width="10" x="1662.5" y="879.8281"/><rect fill="#FFFFFF" height="29.3105" style="stroke:#181818;stroke-width:1.0;" width="10" x="1662.5" y="953.4043"/><rect fill="#FFFFFF" height="29.3105" style="stroke:#181818;stroke-width:1.0;" width="10" x="1662.5" y="1026.9805"/><rect fill="#FFFFFF" height="29.3105" style="stroke:#181818;stroke-width:1.0;" width="10" x="1807.5" y="723.3203"/><polygon fill="#181818" points="252.5,108.7988,262.5,112.7988,252.5,116.7988,256.5,112.7988" style="stroke:#181818;stroke-width:1.0;"/><line style="stroke:#181818;stroke-width:1.0;" x1="0" x2="258.5" y1="112.7988" y2="112.7988"/><text fill="#000000" font-family="sans-serif" font-size="13" lengthAdjust="spacing" textLength="57" x="7" y="108.0566">doShow()</text><polygon fill="#181818" points="593.5,138.1094,603.5,142.1094,593.5,146.1094,597.5,142.1094" style="stroke:#181818;stroke-width:1.0;"/><line style="stroke:#181818;stroke-width:1.0;" x1="274.5" x2="599.5" y1="142.1094" y2="142.1094"/><text fill="#000000" font-family="sans-serif" font-size="13" lengthAdjust="spacing" textLength="46" x="281.5" y="137.3672">create()</text><polygon fill="#181818" points="1319,167.4199,1329,171.4199,1319,175.4199,1323,171.4199" style="stroke:#181818;stroke-width:1.0;"/><line style="stroke:#181818;stroke-width:1.0;" x1="615.5" x2="1325" y1="171.4199" y2="171.4199"/><text fill="#000000" font-family="sans-serif" font-size="13" lengthAdjust="spacing" textLength="168" x="622.5" y="166.6777">repositories().jobOpening()</text><polygon fill="#181818" points="1487,196.7305,1497,200.7305,1487,204.7305,1491,200.7305" style="stroke:#181818;stroke-width:1.0;"/><line style="stroke:#181818;stroke-width:1.0;" x1="1341" x2="1493" y1="200.7305" y2="200.7305"/><text fill="#000000" font-family="sans-serif" font-size="13" lengthAdjust="spacing" textLength="46" x="1348" y="195.9883">create()</text><polygon fill="#181818" points="626.5,226.041,616.5,230.041,626.5,234.041,622.5,230.041" style="stroke:#181818;stroke-width:1.0;"/><line style="stroke:#181818;stroke-width:1.0;stroke-dasharray:2.0,2.0;" x1="620.5" x2="1335" y1="230.041" y2="230.041"/><text fill="#000000" font-family="sans-serif" font-size="13" lengthAdjust="spacing" textLength="292" x="632.5" y="225.2988">jobOpeningRepository : JobOpeningRepository</text><polygon fill="#181818" points="285.5,255.3516,275.5,259.3516,285.5,263.3516,281.5,259.3516" style="stroke:#181818;stroke-width:1.0;"/><line style="stroke:#181818;stroke-width:1.0;stroke-dasharray:2.0,2.0;" x1="279.5" x2="609.5" y1="259.3516" y2="259.3516"/><text fill="#000000" font-family="sans-serif" font-size="13" lengthAdjust="spacing" textLength="179" x="291.5" y="254.6094">controller : PhasesController</text><polygon fill="#181818" points="82.5,284.6621,72.5,288.6621,82.5,292.6621,78.5,288.6621" style="stroke:#181818;stroke-width:1.0;"/><line style="stroke:#181818;stroke-width:1.0;stroke-dasharray:2.0,2.0;" x1="76.5" x2="263.5" y1="288.6621" y2="288.6621"/><text fill="#000000" font-family="sans-serif" font-size="13" lengthAdjust="spacing" textLength="138" x="88.5" y="283.9199">Asks for JobReference</text><polygon fill="#181818" points="252.5,313.9727,262.5,317.9727,252.5,321.9727,256.5,317.9727" style="stroke:#181818;stroke-width:1.0;"/><line style="stroke:#181818;stroke-width:1.0;stroke-dasharray:2.0,2.0;" x1="71.5" x2="258.5" y1="317.9727" y2="317.9727"/><text fill="#000000" font-family="sans-serif" font-size="13" lengthAdjust="spacing" textLength="121" x="78.5" y="313.2305">Insert JobReference</text><polygon fill="#181818" points="593.5,343.2832,603.5,347.2832,593.5,351.2832,597.5,347.2832" style="stroke:#181818;stroke-width:1.0;"/><line style="stroke:#181818;stroke-width:1.0;" x1="274.5" x2="599.5" y1="347.2832" y2="347.2832"/><text fill="#000000" font-family="sans-serif" font-size="13" lengthAdjust="spacing" textLength="312" x="281.5" y="342.541">validateJobReference(jobReference : JobReference)</text><polygon fill="#181818" points="1482,372.5938,1492,376.5938,1482,380.5938,1486,376.5938" style="stroke:#181818;stroke-width:1.0;"/><line style="stroke:#181818;stroke-width:1.0;" x1="615.5" x2="1488" y1="376.5938" y2="376.5938"/><text fill="#000000" font-family="sans-serif" font-size="13" lengthAdjust="spacing" textLength="282" x="622.5" y="371.8516">findJobOpeningByJobReference(JobReference)</text><polygon fill="#181818" points="626.5,401.9043,616.5,405.9043,626.5,409.9043,622.5,405.9043" style="stroke:#181818;stroke-width:1.0;"/><line style="stroke:#181818;stroke-width:1.0;stroke-dasharray:2.0,2.0;" x1="620.5" x2="1498" y1="405.9043" y2="405.9043"/><text fill="#000000" font-family="sans-serif" font-size="13" lengthAdjust="spacing" textLength="158" x="632.5" y="401.1621">jobOpening : JobOpening</text><polygon fill="#181818" points="925.5,431.2148,935.5,435.2148,925.5,439.2148,929.5,435.2148" style="stroke:#181818;stroke-width:1.0;"/><line style="stroke:#181818;stroke-width:1.0;" x1="615.5" x2="931.5" y1="435.2148" y2="435.2148"/><text fill="#000000" font-family="sans-serif" font-size="13" lengthAdjust="spacing" textLength="303" x="622.5" y="430.4727">create(recruitmentProcess : RecruitmentProcess)</text><polygon fill="#181818" points="1319,460.5254,1329,464.5254,1319,468.5254,1323,464.5254" style="stroke:#181818;stroke-width:1.0;"/><line style="stroke:#181818;stroke-width:1.0;" x1="947.5" x2="1325" y1="464.5254" y2="464.5254"/><text fill="#000000" font-family="sans-serif" font-size="13" lengthAdjust="spacing" textLength="165" x="954.5" y="459.7832">repositories().application()</text><polygon fill="#181818" points="1655.5,489.8359,1665.5,493.8359,1655.5,497.8359,1659.5,493.8359" style="stroke:#181818;stroke-width:1.0;"/><line style="stroke:#181818;stroke-width:1.0;" x1="1341" x2="1661.5" y1="493.8359" y2="493.8359"/><text fill="#000000" font-family="sans-serif" font-size="13" lengthAdjust="spacing" textLength="46" x="1348" y="489.0938">create()</text><polygon fill="#181818" points="958.5,519.1465,948.5,523.1465,958.5,527.1465,954.5,523.1465" style="stroke:#181818;stroke-width:1.0;"/><line style="stroke:#181818;stroke-width:1.0;stroke-dasharray:2.0,2.0;" x1="952.5" x2="1335" y1="523.1465" y2="523.1465"/><text fill="#000000" font-family="sans-serif" font-size="13" lengthAdjust="spacing" textLength="288" x="964.5" y="518.4043">applicationRepository : ApplicationRepository</text><polygon fill="#181818" points="1319,548.457,1329,552.457,1319,556.457,1323,552.457" style="stroke:#181818;stroke-width:1.0;"/><line style="stroke:#181818;stroke-width:1.0;" x1="947.5" x2="1325" y1="552.457" y2="552.457"/><text fill="#000000" font-family="sans-serif" font-size="13" lengthAdjust="spacing" textLength="123" x="954.5" y="547.7148">repositories().rank()</text><polygon fill="#181818" points="1800.5,577.7676,1810.5,581.7676,1800.5,585.7676,1804.5,581.7676" style="stroke:#181818;stroke-width:1.0;"/><line style="stroke:#181818;stroke-width:1.0;" x1="1341" x2="1806.5" y1="581.7676" y2="581.7676"/><text fill="#000000" font-family="sans-serif" font-size="13" lengthAdjust="spacing" textLength="46" x="1348" y="577.0254">create()</text><polygon fill="#181818" points="958.5,607.0781,948.5,611.0781,958.5,615.0781,954.5,611.0781" style="stroke:#181818;stroke-width:1.0;"/><line style="stroke:#181818;stroke-width:1.0;stroke-dasharray:2.0,2.0;" x1="952.5" x2="1335" y1="611.0781" y2="611.0781"/><text fill="#000000" font-family="sans-serif" font-size="13" lengthAdjust="spacing" textLength="205" x="964.5" y="606.3359">rankRepository : RankRepository</text><polygon fill="#181818" points="626.5,636.3887,616.5,640.3887,626.5,644.3887,622.5,640.3887" style="stroke:#181818;stroke-width:1.0;"/><line style="stroke:#181818;stroke-width:1.0;stroke-dasharray:2.0,2.0;" x1="620.5" x2="941.5" y1="640.3887" y2="640.3887"/><text fill="#000000" font-family="sans-serif" font-size="13" lengthAdjust="spacing" textLength="285" x="632.5" y="635.6465">phaseValidatorService : PhaseValidatorService</text><polygon fill="#181818" points="925.5,665.6992,935.5,669.6992,925.5,673.6992,929.5,669.6992" style="stroke:#181818;stroke-width:1.0;"/><line style="stroke:#181818;stroke-width:1.0;" x1="615.5" x2="931.5" y1="669.6992" y2="669.6992"/><text fill="#000000" font-family="sans-serif" font-size="13" lengthAdjust="spacing" textLength="157" x="622.5" y="664.957">validatePhaseTransition()</text><path d="M844.5,684.6992 L906.5,684.6992 L906.5,692.0098 L896.5,702.0098 L844.5,702.0098 L844.5,684.6992 " fill="#EEEEEE" style="stroke:#000000;stroke-width:1.5;"/><rect fill="none" height="386.5918" style="stroke:#000000;stroke-width:1.5;" width="1034.5" x="844.5" y="684.6992"/><text fill="#000000" font-family="sans-serif" font-size="13" font-weight="bold" lengthAdjust="spacing" textLength="17" x="859.5" y="698.2676">alt</text><text fill="#000000" font-family="sans-serif" font-size="11" font-weight="bold" lengthAdjust="spacing" textLength="154" x="921.5" y="697.334">[PhaseName == "Analysis"]</text><polygon fill="#181818" points="1795.5,719.3203,1805.5,723.3203,1795.5,727.3203,1799.5,723.3203" style="stroke:#181818;stroke-width:1.0;"/><line style="stroke:#181818;stroke-width:1.0;" x1="947.5" x2="1801.5" y1="723.3203" y2="723.3203"/><text fill="#000000" font-family="sans-serif" font-size="13" lengthAdjust="spacing" textLength="302" x="954.5" y="718.5781">findByJobReference(jobReference : JobReference)</text><polygon fill="#181818" points="958.5,748.6309,948.5,752.6309,958.5,756.6309,954.5,752.6309" style="stroke:#181818;stroke-width:1.0;"/><line style="stroke:#181818;stroke-width:1.0;stroke-dasharray:2.0,2.0;" x1="952.5" x2="1811.5" y1="752.6309" y2="752.6309"/><text fill="#000000" font-family="sans-serif" font-size="13" lengthAdjust="spacing" textLength="71" x="964.5" y="747.8887">rank : Rank</text><line style="stroke:#000000;stroke-width:1.0;stroke-dasharray:2.0,2.0;" x1="844.5" x2="1879" y1="761.6309" y2="761.6309"/><text fill="#000000" font-family="sans-serif" font-size="11" font-weight="bold" lengthAdjust="spacing" textLength="148" x="849.5" y="772.2656">[PhaseName != "Analysis"]</text><polygon fill="#181818" points="1650.5,792.8965,1660.5,796.8965,1650.5,800.8965,1654.5,796.8965" style="stroke:#181818;stroke-width:1.0;"/><line style="stroke:#181818;stroke-width:1.0;" x1="947.5" x2="1656.5" y1="796.8965" y2="796.8965"/><text fill="#000000" font-family="sans-serif" font-size="13" lengthAdjust="spacing" textLength="392" x="954.5" y="792.1543">countApplicationsByJobReference(jobReference : JobReference)</text><polygon fill="#181818" points="958.5,822.207,948.5,826.207,958.5,830.207,954.5,826.207" style="stroke:#181818;stroke-width:1.0;"/><line style="stroke:#181818;stroke-width:1.0;stroke-dasharray:2.0,2.0;" x1="952.5" x2="1666.5" y1="826.207" y2="826.207"/><text fill="#000000" font-family="sans-serif" font-size="13" lengthAdjust="spacing" textLength="171" x="964.5" y="821.4648">numberOfApplications : int</text><path d="M854.5,841.207 L916.5,841.207 L916.5,848.5176 L906.5,858.5176 L854.5,858.5176 L854.5,841.207 " fill="#EEEEEE" style="stroke:#000000;stroke-width:1.5;"/><rect fill="none" height="223.084" style="stroke:#000000;stroke-width:1.5;" width="901.5" x="854.5" y="841.207"/><text fill="#000000" font-family="sans-serif" font-size="13" font-weight="bold" lengthAdjust="spacing" textLength="17" x="869.5" y="854.7754">alt</text><text fill="#000000" font-family="sans-serif" font-size="11" font-weight="bold" lengthAdjust="spacing" textLength="161" x="931.5" y="853.8418">[PhaseName == "Screening"]</text><polygon fill="#181818" points="1650.5,875.8281,1660.5,879.8281,1650.5,883.8281,1654.5,879.8281" style="stroke:#181818;stroke-width:1.0;"/><line style="stroke:#181818;stroke-width:1.0;" x1="947.5" x2="1656.5" y1="879.8281" y2="879.8281"/><text fill="#000000" font-family="sans-serif" font-size="13" lengthAdjust="spacing" textLength="374" x="954.5" y="875.0859">countScreeningByJobReference(jobReference : JobReference)</text><polygon fill="#181818" points="958.5,905.1387,948.5,909.1387,958.5,913.1387,954.5,909.1387" style="stroke:#181818;stroke-width:1.0;"/><line style="stroke:#181818;stroke-width:1.0;stroke-dasharray:2.0,2.0;" x1="952.5" x2="1666.5" y1="909.1387" y2="909.1387"/><text fill="#000000" font-family="sans-serif" font-size="13" lengthAdjust="spacing" textLength="232" x="964.5" y="904.3965">numberOfApplicationsScreening : int</text><line style="stroke:#000000;stroke-width:1.0;stroke-dasharray:2.0,2.0;" x1="854.5" x2="1756" y1="918.1387" y2="918.1387"/><text fill="#000000" font-family="sans-serif" font-size="11" font-weight="bold" lengthAdjust="spacing" textLength="165" x="859.5" y="928.7734">[PhaseName == "Interviews"]</text><polygon fill="#181818" points="1650.5,949.4043,1660.5,953.4043,1650.5,957.4043,1654.5,953.4043" style="stroke:#181818;stroke-width:1.0;"/><line style="stroke:#181818;stroke-width:1.0;" x1="947.5" x2="1656.5" y1="953.4043" y2="953.4043"/><text fill="#000000" font-family="sans-serif" font-size="13" lengthAdjust="spacing" textLength="377" x="954.5" y="948.6621">countInterviewsByJobReference(jobReference : JobReference)</text><polygon fill="#181818" points="958.5,978.7148,948.5,982.7148,958.5,986.7148,954.5,982.7148" style="stroke:#181818;stroke-width:1.0;"/><line style="stroke:#181818;stroke-width:1.0;stroke-dasharray:2.0,2.0;" x1="952.5" x2="1666.5" y1="982.7148" y2="982.7148"/><text fill="#000000" font-family="sans-serif" font-size="13" lengthAdjust="spacing" textLength="235" x="964.5" y="977.9727">numberOfApplicationsInterviews : int</text><line style="stroke:#000000;stroke-width:1.0;stroke-dasharray:2.0,2.0;" x1="854.5" x2="1756" y1="991.7148" y2="991.7148"/><text fill="#000000" font-family="sans-serif" font-size="11" font-weight="bold" lengthAdjust="spacing" textLength="142" x="859.5" y="1002.3496">[PhaseName == "Result"]</text><polygon fill="#181818" points="1650.5,1022.9805,1660.5,1026.9805,1650.5,1030.9805,1654.5,1026.9805" style="stroke:#181818;stroke-width:1.0;"/><line style="stroke:#181818;stroke-width:1.0;" x1="947.5" x2="1656.5" y1="1026.9805" y2="1026.9805"/><text fill="#000000" font-family="sans-serif" font-size="13" lengthAdjust="spacing" textLength="352" x="954.5" y="1022.2383">countResultByJobReference(jobReference : JobReference)</text><polygon fill="#181818" points="958.5,1052.291,948.5,1056.291,958.5,1060.291,954.5,1056.291" style="stroke:#181818;stroke-width:1.0;"/><line style="stroke:#181818;stroke-width:1.0;stroke-dasharray:2.0,2.0;" x1="952.5" x2="1666.5" y1="1056.291" y2="1056.291"/><text fill="#000000" font-family="sans-serif" font-size="13" lengthAdjust="spacing" textLength="217" x="964.5" y="1051.5488">numberOfApplicationsResults : int</text><line style="stroke:#181818;stroke-width:1.0;" x1="947.5" x2="989.5" y1="1099.6016" y2="1099.6016"/><line style="stroke:#181818;stroke-width:1.0;" x1="989.5" x2="989.5" y1="1099.6016" y2="1112.6016"/><line style="stroke:#181818;stroke-width:1.0;" x1="948.5" x2="989.5" y1="1112.6016" y2="1112.6016"/><polygon fill="#181818" points="958.5,1108.6016,948.5,1112.6016,958.5,1116.6016,954.5,1112.6016" style="stroke:#181818;stroke-width:1.0;"/><text fill="#000000" font-family="sans-serif" font-size="13" lengthAdjust="spacing" textLength="207" x="954.5" y="1094.8594">validatePhaseTransitionForward()</text><line style="stroke:#181818;stroke-width:1.0;" x1="947.5" x2="989.5" y1="1141.9121" y2="1141.9121"/><line style="stroke:#181818;stroke-width:1.0;" x1="989.5" x2="989.5" y1="1141.9121" y2="1154.9121"/><line style="stroke:#181818;stroke-width:1.0;" x1="948.5" x2="989.5" y1="1154.9121" y2="1154.9121"/><polygon fill="#181818" points="958.5,1150.9121,948.5,1154.9121,958.5,1158.9121,954.5,1154.9121" style="stroke:#181818;stroke-width:1.0;"/><text fill="#000000" font-family="sans-serif" font-size="13" lengthAdjust="spacing" textLength="216" x="954.5" y="1137.1699">validatePhaseTransitionBackward()</text><polygon fill="#181818" points="626.5,1180.2227,616.5,1184.2227,626.5,1188.2227,622.5,1184.2227" style="stroke:#181818;stroke-width:1.0;"/><line style="stroke:#181818;stroke-width:1.0;stroke-dasharray:2.0,2.0;" x1="620.5" x2="941.5" y1="1184.2227" y2="1184.2227"/><text fill="#000000" font-family="sans-serif" font-size="13" lengthAdjust="spacing" textLength="164" x="632.5" y="1179.4805">options : Iterable&lt;String&gt;</text><polygon fill="#181818" points="285.5,1209.5332,275.5,1213.5332,285.5,1217.5332,281.5,1213.5332" style="stroke:#181818;stroke-width:1.0;"/><line style="stroke:#181818;stroke-width:1.0;stroke-dasharray:2.0,2.0;" x1="279.5" x2="609.5" y1="1213.5332" y2="1213.5332"/><text fill="#000000" font-family="sans-serif" font-size="13" lengthAdjust="spacing" textLength="164" x="291.5" y="1208.791">options : Iterable&lt;String&gt;</text><polygon fill="#181818" points="82.5,1238.8438,72.5,1242.8438,82.5,1246.8438,78.5,1242.8438" style="stroke:#181818;stroke-width:1.0;"/><line style="stroke:#181818;stroke-width:1.0;stroke-dasharray:2.0,2.0;" x1="76.5" x2="263.5" y1="1242.8438" y2="1242.8438"/><text fill="#000000" font-family="sans-serif" font-size="13" lengthAdjust="spacing" textLength="85" x="88.5" y="1238.1016">Show options</text><polygon fill="#181818" points="252.5,1268.1543,262.5,1272.1543,252.5,1276.1543,256.5,1272.1543" style="stroke:#181818;stroke-width:1.0;"/><line style="stroke:#181818;stroke-width:1.0;stroke-dasharray:2.0,2.0;" x1="71.5" x2="258.5" y1="1272.1543" y2="1272.1543"/><text fill="#000000" font-family="sans-serif" font-size="13" lengthAdjust="spacing" textLength="92" x="78.5" y="1267.4121">Choose option</text><polygon fill="#181818" points="593.5,1297.4648,603.5,1301.4648,593.5,1305.4648,597.5,1301.4648" style="stroke:#181818;stroke-width:1.0;"/><line style="stroke:#181818;stroke-width:1.0;" x1="274.5" x2="599.5" y1="1301.4648" y2="1301.4648"/><text fill="#000000" font-family="sans-serif" font-size="13" lengthAdjust="spacing" textLength="257" x="281.5" y="1296.7227">ProcessTransition(chosenOption : String)</text><path d="M539,1316.4648 L601,1316.4648 L601,1323.7754 L591,1333.7754 L539,1333.7754 L539,1316.4648 " fill="#EEEEEE" style="stroke:#000000;stroke-width:1.5;"/><rect fill="none" height="90.8867" style="stroke:#000000;stroke-width:1.5;" width="724" x="539" y="1316.4648"/><text fill="#000000" font-family="sans-serif" font-size="13" font-weight="bold" lengthAdjust="spacing" textLength="17" x="554" y="1330.0332">alt</text><text fill="#000000" font-family="sans-serif" font-size="11" font-weight="bold" lengthAdjust="spacing" textLength="166" x="616" y="1329.0996">[chosenOption == "Forward"]</text><polygon fill="#181818" points="1170.5,1351.0859,1180.5,1355.0859,1170.5,1359.0859,1174.5,1355.0859" style="stroke:#181818;stroke-width:1.0;"/><line style="stroke:#181818;stroke-width:1.0;" x1="615.5" x2="1176.5" y1="1355.0859" y2="1355.0859"/><text fill="#000000" font-family="sans-serif" font-size="13" lengthAdjust="spacing" textLength="72" x="622.5" y="1350.3438">nextPhase()</text><line style="stroke:#000000;stroke-width:1.0;stroke-dasharray:2.0,2.0;" x1="539" x2="1263" y1="1364.0859" y2="1364.0859"/><text fill="#000000" font-family="sans-serif" font-size="11" font-weight="bold" lengthAdjust="spacing" textLength="174" x="544" y="1374.7207">[chosenOption == "Backward"]</text><polygon fill="#181818" points="1170.5,1395.3516,1180.5,1399.3516,1170.5,1403.3516,1174.5,1399.3516" style="stroke:#181818;stroke-width:1.0;"/><line style="stroke:#181818;stroke-width:1.0;" x1="615.5" x2="1176.5" y1="1399.3516" y2="1399.3516"/><text fill="#000000" font-family="sans-serif" font-size="13" lengthAdjust="spacing" textLength="98" x="622.5" y="1394.6094">previousPhase()</text><polygon fill="#181818" points="1487,1431.6621,1497,1435.6621,1487,1439.6621,1491,1435.6621" style="stroke:#181818;stroke-width:1.0;"/><line style="stroke:#181818;stroke-width:1.0;" x1="615.5" x2="1493" y1="1435.6621" y2="1435.6621"/><text fill="#000000" font-family="sans-serif" font-size="13" lengthAdjust="spacing" textLength="293" x="622.5" y="1430.9199">save(recruitmentProcess : RecruitmentProcess)</text><polygon fill="#181818" points="285.5,1460.9727,275.5,1464.9727,285.5,1468.9727,281.5,1464.9727" style="stroke:#181818;stroke-width:1.0;"/><line style="stroke:#181818;stroke-width:1.0;stroke-dasharray:2.0,2.0;" x1="279.5" x2="609.5" y1="1464.9727" y2="1464.9727"/><text fill="#000000" font-family="sans-serif" font-size="13" lengthAdjust="spacing" textLength="183" x="291.5" y="1460.2305">Display confirmation or error</text><polygon fill="#181818" points="82.5,1490.2832,72.5,1494.2832,82.5,1498.2832,78.5,1494.2832" style="stroke:#181818;stroke-width:1.0;"/><line style="stroke:#181818;stroke-width:1.0;stroke-dasharray:2.0,2.0;" x1="76.5" x2="268.5" y1="1494.2832" y2="1494.2832"/><text fill="#000000" font-family="sans-serif" font-size="13" lengthAdjust="spacing" textLength="169" x="88.5" y="1489.541">Show confirmation or error</text><!--SRC=[pLTHRzem47xFh_1uQX-w7u3MIcsdIKpQMi6wTnEEuZROqTdGyUztJaZY91S8WOSY8M5iVtVttNTdMyREe7ZSM6VMWB-abg-0qTniz4BYJZolf0NxCebYensQPF_7OpvAQ2befzn-uL-Pg8Kam1dWLiLGJ4uXneroQne-eud1sYYLw5IiKgcTU0QqoZhGCNXW-ESYGf5pGXG_pVmf1QtqwnHIOnM1xwhP-pHDL2oTCfgRdahz7lmVtToL0Ot5minMvkFgEfAnKrlfe0gs-27A3LN0OYnY15hUtXcmqjhbaLfX4XOMxYcmLzTVtyfmQ_1jWXWmCi6n5JhCxU9ZVEEH-7J0GKzRL0HfyCw5Pbj4XjWyoJvDXDYGy5ZSstShbYHkydaAIq3lLDHOLdDcB2RQ0hhwZaDY68jjBda8jroz1OESj79ugcWumiTYgVIYcddOrQntc6DJnmhcXesqKaHD1s66M1DiAN3TeX8gjle5pRMRI9FBLllXpVGiHLdrba6roFQcliN8S2Cxy3fwuF6Q74eCKbSTn4Yz7Pz11JQ16er-KF2iwDCE3tYzDPiLByW-jL0rbcpw3qLCiJMboDgGYSjdViirYDjRCRhNCjaH2wFklBTIupjCew_qwsgDL3I0Rxe3zadTfp8aie47YOKWl2_zmkkiHRhdk63I3WgPhq3UvW42z6Oz1tnQXlwGKQLTo0TlJD2ddVWP5LZMZaVPWc7qb22dS9FvSzpbYt1KEhWdomFt8goX9S_OX5e4cO8FUmvb5SfdvQpoy0AaJS5k4dSEOJd2PoKhz-uafdAgz2Bot-xJjkDqwUZzFmn-I5puy_92Y0yoVZyCoPwA9YsQquHa9ES9V9ivf0gy6t84rcxW9q3tVmhuXrw1VEG5yBWoXWIUBpvozzzVGuF3ELxHPlsKRQOGSiyFNVbzpwvjylMqp_E8lIwqhy4aMhhMP6ifZrbzjY2BHFV7J16socniYLi8kSS3XKAtSdl2FVw8ABuhcoPovv-AIuNhhDW4lUm0qU2vkkW9-ZBv3m00]--></g></svg>