<?xml version="1.0" encoding="us-ascii" standalone="no"?><svg xmlns="http://www.w3.org/2000/svg" xmlns:xlink="http://www.w3.org/1999/xlink" contentStyleType="text/css" height="734px" preserveAspectRatio="none" style="width:1033px;height:734px;background:#FFFFFF;" version="1.1" viewBox="0 0 1033 734" width="1033px" zoomAndPan="magnify"><defs/><g><!--cluster JobOpeningAgg--><g id="cluster_JobOpeningAgg"><path d="M240.5,193.22 L354.5,193.22 A3.75,3.75 0 0 1 357,195.72 L364,215.7083 L652.5,215.7083 A2.5,2.5 0 0 1 655,218.2083 L655,725.41 A2.5,2.5 0 0 1 652.5,727.91 L240.5,727.91 A2.5,2.5 0 0 1 238,725.41 L238,195.72 A2.5,2.5 0 0 1 240.5,193.22 " fill="none" style="stroke:#000000;stroke-width:1.5;"/><line style="stroke:#000000;stroke-width:1.5;" x1="238" x2="364" y1="215.7083" y2="215.7083"/><text fill="#000000" font-family="sans-serif" font-size="14" font-weight="bold" lengthAdjust="spacing" textLength="113" x="242" y="208.7552">JobOpeningAgg</text></g><!--cluster ApplicationAgg--><g id="cluster_ApplicationAgg"><path d="M8.5,6 L119.5,6 A3.75,3.75 0 0 1 122,8.5 L129,28.4883 L211.5,28.4883 A2.5,2.5 0 0 1 214,30.9883 L214,448.19 A2.5,2.5 0 0 1 211.5,450.69 L8.5,450.69 A2.5,2.5 0 0 1 6,448.19 L6,8.5 A2.5,2.5 0 0 1 8.5,6 " fill="none" style="stroke:#000000;stroke-width:1.5;"/><line style="stroke:#000000;stroke-width:1.5;" x1="6" x2="129" y1="28.4883" y2="28.4883"/><text fill="#000000" font-family="sans-serif" font-size="14" font-weight="bold" lengthAdjust="spacing" textLength="110" x="10" y="21.5352">ApplicationAgg</text></g><!--cluster CandidateAgg--><g id="cluster_CandidateAgg"><path d="M681.5,184.98 L782.5,184.98 A3.75,3.75 0 0 1 785,187.48 L792,207.4683 L1023.5,207.4683 A2.5,2.5 0 0 1 1026,209.9683 L1026,456.43 A2.5,2.5 0 0 1 1023.5,458.93 L681.5,458.93 A2.5,2.5 0 0 1 679,456.43 L679,187.48 A2.5,2.5 0 0 1 681.5,184.98 " fill="none" style="stroke:#000000;stroke-width:1.5;"/><line style="stroke:#000000;stroke-width:1.5;" x1="679" x2="792" y1="207.4683" y2="207.4683"/><text fill="#000000" font-family="sans-serif" font-size="14" font-weight="bold" lengthAdjust="spacing" textLength="100" x="683" y="200.5152">CandidateAgg</text></g><!--class JobOpening--><g id="elem_JobOpening"><rect codeLine="3" fill="#F1F1F1" height="64.4883" id="JobOpening" rx="2.5" ry="2.5" style="stroke:#181818;stroke-width:0.5;" width="171" x="256.5" y="228.22"/><ellipse cx="297.6" cy="244.22" fill="#ADD1B2" rx="11" ry="11" style="stroke:#181818;stroke-width:1.0;"/><path d="M300.0731,250.3631 Q299.4921,250.6619 298.8529,250.8113 Q298.2138,250.9607 297.5082,250.9607 Q295.0014,250.9607 293.6815,249.3089 Q292.3617,247.657 292.3617,244.5359 Q292.3617,241.4065 293.6815,239.7547 Q295.0014,238.1028 297.5082,238.1028 Q298.2138,238.1028 298.8612,238.2522 Q299.5087,238.4016 300.0731,238.7005 L300.0731,241.4231 Q299.4423,240.8421 298.8488,240.5723 Q298.2553,240.3025 297.6244,240.3025 Q296.2797,240.3025 295.5949,241.3692 Q294.9101,242.4358 294.9101,244.5359 Q294.9101,246.6277 295.5949,247.6944 Q296.2797,248.761 297.6244,248.761 Q298.2553,248.761 298.8488,248.4912 Q299.4423,248.2215 300.0731,247.6404 Z " fill="#000000"/><text fill="#000000" font-family="sans-serif" font-size="14" lengthAdjust="spacing" textLength="81" x="317.4" y="249.511">JobOpening</text><line style="stroke:#181818;stroke-width:0.5;" x1="257.5" x2="426.5" y1="260.22" y2="260.22"/><ellipse cx="267.5" cy="273.9641" fill="none" rx="3" ry="3" style="stroke:#038048;stroke-width:1.0;"/><text fill="#000000" font-family="sans-serif" font-size="14" lengthAdjust="spacing" textLength="145" x="276.5" y="277.7552">title: JobOpeningTitle</text><line style="stroke:#181818;stroke-width:0.5;" x1="257.5" x2="426.5" y1="284.7083" y2="284.7083"/></g><!--class Phase--><g id="elem_Phase"><rect codeLine="7" fill="#F1F1F1" height="64.4883" id="Phase" rx="2.5" ry="2.5" style="stroke:#181818;stroke-width:0.5;" width="126" x="478" y="505.93"/><ellipse cx="517.3" cy="521.93" fill="#ADD1B2" rx="11" ry="11" style="stroke:#181818;stroke-width:1.0;"/><path d="M519.7731,528.0731 Q519.1921,528.3719 518.5529,528.5213 Q517.9138,528.6707 517.2082,528.6707 Q514.7014,528.6707 513.3815,527.0189 Q512.0617,525.367 512.0617,522.2459 Q512.0617,519.1165 513.3815,517.4647 Q514.7014,515.8128 517.2082,515.8128 Q517.9138,515.8128 518.5612,515.9622 Q519.2087,516.1116 519.7731,516.4105 L519.7731,519.1331 Q519.1423,518.5521 518.5488,518.2823 Q517.9553,518.0125 517.3244,518.0125 Q515.9797,518.0125 515.2949,519.0792 Q514.6101,520.1458 514.6101,522.2459 Q514.6101,524.3377 515.2949,525.4044 Q515.9797,526.471 517.3244,526.471 Q517.9553,526.471 518.5488,526.2012 Q519.1423,525.9315 519.7731,525.3504 Z " fill="#000000"/><text fill="#000000" font-family="sans-serif" font-size="14" lengthAdjust="spacing" textLength="40" x="536.7" y="527.221">Phase</text><line style="stroke:#181818;stroke-width:0.5;" x1="479" x2="603" y1="537.93" y2="537.93"/><ellipse cx="489" cy="551.6741" fill="none" rx="3" ry="3" style="stroke:#038048;stroke-width:1.0;"/><text fill="#000000" font-family="sans-serif" font-size="14" lengthAdjust="spacing" textLength="100" x="498" y="555.4652">id: PhaseName</text><line style="stroke:#181818;stroke-width:0.5;" x1="479" x2="603" y1="562.4183" y2="562.4183"/></g><!--class JobReference--><g id="elem_JobReference"><rect codeLine="11" fill="#F1F1F1" height="80.9766" id="JobReference" rx="2.5" ry="2.5" style="stroke:#181818;stroke-width:0.5;" width="175" x="254.5" y="361.96"/><ellipse cx="293.35" cy="377.96" fill="#ADD1B2" rx="11" ry="11" style="stroke:#181818;stroke-width:1.0;"/><path d="M295.8231,384.1031 Q295.2421,384.4019 294.6029,384.5513 Q293.9638,384.7007 293.2582,384.7007 Q290.7514,384.7007 289.4315,383.0489 Q288.1117,381.397 288.1117,378.2759 Q288.1117,375.1465 289.4315,373.4947 Q290.7514,371.8428 293.2582,371.8428 Q293.9638,371.8428 294.6112,371.9922 Q295.2587,372.1416 295.8231,372.4405 L295.8231,375.1631 Q295.1923,374.5821 294.5988,374.3123 Q294.0053,374.0425 293.3744,374.0425 Q292.0297,374.0425 291.3449,375.1092 Q290.6601,376.1758 290.6601,378.2759 Q290.6601,380.3677 291.3449,381.4344 Q292.0297,382.501 293.3744,382.501 Q294.0053,382.501 294.5988,382.2312 Q295.1923,381.9615 295.8231,381.3804 Z " fill="#000000"/><text fill="#000000" font-family="sans-serif" font-size="14" lengthAdjust="spacing" textLength="90" x="312.65" y="383.251">JobReference</text><line style="stroke:#181818;stroke-width:0.5;" x1="255.5" x2="428.5" y1="393.96" y2="393.96"/><ellipse cx="265.5" cy="407.7041" fill="none" rx="3" ry="3" style="stroke:#038048;stroke-width:1.0;"/><text fill="#000000" font-family="sans-serif" font-size="14" lengthAdjust="spacing" textLength="149" x="274.5" y="411.4952">customerCode: String</text><ellipse cx="265.5" cy="424.1924" fill="none" rx="3" ry="3" style="stroke:#038048;stroke-width:1.0;"/><text fill="#000000" font-family="sans-serif" font-size="14" lengthAdjust="spacing" textLength="84" x="274.5" y="427.9834">jobCode: int</text><line style="stroke:#181818;stroke-width:0.5;" x1="255.5" x2="428.5" y1="434.9366" y2="434.9366"/></g><!--class PhaseName--><g id="elem_PhaseName"><rect codeLine="16" fill="#F1F1F1" height="64.4883" id="PhaseName" rx="2.5" ry="2.5" style="stroke:#181818;stroke-width:0.5;" width="111" x="296.5" y="647.42"/><ellipse cx="311.5" cy="663.42" fill="#EB937F" rx="11" ry="11" style="stroke:#181818;stroke-width:1.0;"/><path d="M315.1143,669.92 L307.3945,669.92 L307.3945,657.5269 L315.1143,657.5269 L315.1143,659.6851 L309.8433,659.6851 L309.8433,662.358 L314.6162,662.358 L314.6162,664.5162 L309.8433,664.5162 L309.8433,667.7618 L315.1143,667.7618 Z " fill="#000000"/><text fill="#000000" font-family="sans-serif" font-size="14" lengthAdjust="spacing" textLength="79" x="325.5" y="668.711">PhaseName</text><line style="stroke:#181818;stroke-width:0.5;" x1="297.5" x2="406.5" y1="679.42" y2="679.42"/><text fill="#000000" font-family="sans-serif" font-size="14" lengthAdjust="spacing" textLength="66" x="302.5" y="696.9552">ANALYSIS</text><line style="stroke:#181818;stroke-width:0.5;" x1="297.5" x2="406.5" y1="703.9083" y2="703.9083"/></g><!--class PhaseStatus--><g id="elem_PhaseStatus"><rect codeLine="20" fill="#F1F1F1" height="64.4883" id="PhaseStatus" rx="2.5" ry="2.5" style="stroke:#181818;stroke-width:0.5;" width="196" x="443" y="647.42"/><ellipse cx="495.75" cy="663.42" fill="#ADD1B2" rx="11" ry="11" style="stroke:#181818;stroke-width:1.0;"/><path d="M498.2231,669.5631 Q497.6421,669.8619 497.0029,670.0113 Q496.3638,670.1607 495.6582,670.1607 Q493.1514,670.1607 491.8315,668.5089 Q490.5117,666.857 490.5117,663.7359 Q490.5117,660.6065 491.8315,658.9547 Q493.1514,657.3028 495.6582,657.3028 Q496.3638,657.3028 497.0112,657.4522 Q497.6587,657.6016 498.2231,657.9005 L498.2231,660.6231 Q497.5923,660.0421 496.9988,659.7723 Q496.4053,659.5025 495.7744,659.5025 Q494.4297,659.5025 493.7449,660.5692 Q493.0601,661.6358 493.0601,663.7359 Q493.0601,665.8277 493.7449,666.8944 Q494.4297,667.961 495.7744,667.961 Q496.4053,667.961 496.9988,667.6912 Q497.5923,667.4215 498.2231,666.8404 Z " fill="#000000"/><text fill="#000000" font-family="sans-serif" font-size="14" lengthAdjust="spacing" textLength="82" x="516.25" y="668.711">PhaseStatus</text><line style="stroke:#181818;stroke-width:0.5;" x1="444" x2="638" y1="679.42" y2="679.42"/><ellipse cx="454" cy="693.1641" fill="none" rx="3" ry="3" style="stroke:#038048;stroke-width:1.0;"/><text fill="#000000" font-family="sans-serif" font-size="14" lengthAdjust="spacing" textLength="170" x="463" y="696.9552">status: PhaseStatusName</text><line style="stroke:#181818;stroke-width:0.5;" x1="444" x2="638" y1="703.9083" y2="703.9083"/></g><!--class RecruitmentProcess--><g id="elem_RecruitmentProcess"><rect codeLine="24" fill="#F1F1F1" height="80.9766" id="RecruitmentProcess" rx="2.5" ry="2.5" style="stroke:#181818;stroke-width:0.5;" width="174" x="465" y="361.96"/><ellipse cx="483.15" cy="377.96" fill="#ADD1B2" rx="11" ry="11" style="stroke:#181818;stroke-width:1.0;"/><path d="M485.6231,384.1031 Q485.0421,384.4019 484.4029,384.5513 Q483.7638,384.7007 483.0582,384.7007 Q480.5514,384.7007 479.2315,383.0489 Q477.9117,381.397 477.9117,378.2759 Q477.9117,375.1465 479.2315,373.4947 Q480.5514,371.8428 483.0582,371.8428 Q483.7638,371.8428 484.4112,371.9922 Q485.0587,372.1416 485.6231,372.4405 L485.6231,375.1631 Q484.9923,374.5821 484.3988,374.3123 Q483.8053,374.0425 483.1744,374.0425 Q481.8297,374.0425 481.1449,375.1092 Q480.4601,376.1758 480.4601,378.2759 Q480.4601,380.3677 481.1449,381.4344 Q481.8297,382.501 483.1744,382.501 Q483.8053,382.501 484.3988,382.2312 Q484.9923,381.9615 485.6231,381.3804 Z " fill="#000000"/><text fill="#000000" font-family="sans-serif" font-size="14" lengthAdjust="spacing" textLength="135" x="497.85" y="383.251">RecruitmentProcess</text><line style="stroke:#181818;stroke-width:0.5;" x1="466" x2="638" y1="393.96" y2="393.96"/><ellipse cx="476" cy="407.7041" fill="none" rx="3" ry="3" style="stroke:#038048;stroke-width:1.0;"/><text fill="#000000" font-family="sans-serif" font-size="14" lengthAdjust="spacing" textLength="55" x="485" y="411.4952">id: Long</text><ellipse cx="476" cy="424.1924" fill="none" rx="3" ry="3" style="stroke:#038048;stroke-width:1.0;"/><text fill="#000000" font-family="sans-serif" font-size="14" lengthAdjust="spacing" textLength="148" x="485" y="427.9834">phases: List&lt;Phases&gt;</text><line style="stroke:#181818;stroke-width:0.5;" x1="466" x2="638" y1="434.9366" y2="434.9366"/></g><!--class Application--><g id="elem_Application"><rect codeLine="39" fill="#F1F1F1" height="80.9766" id="Application" rx="2.5" ry="2.5" style="stroke:#181818;stroke-width:0.5;" width="158" x="40" y="41"/><ellipse cx="76.6" cy="57" fill="#ADD1B2" rx="11" ry="11" style="stroke:#181818;stroke-width:1.0;"/><path d="M79.0731,63.1431 Q78.4921,63.4419 77.8529,63.5913 Q77.2138,63.7407 76.5082,63.7407 Q74.0014,63.7407 72.6815,62.0889 Q71.3617,60.437 71.3617,57.3159 Q71.3617,54.1865 72.6815,52.5347 Q74.0014,50.8828 76.5082,50.8828 Q77.2138,50.8828 77.8612,51.0322 Q78.5087,51.1816 79.0731,51.4805 L79.0731,54.2031 Q78.4423,53.6221 77.8488,53.3523 Q77.2553,53.0825 76.6244,53.0825 Q75.2797,53.0825 74.5949,54.1492 Q73.9101,55.2158 73.9101,57.3159 Q73.9101,59.4077 74.5949,60.4744 Q75.2797,61.541 76.6244,61.541 Q77.2553,61.541 77.8488,61.2712 Q78.4423,61.0015 79.0731,60.4204 Z " fill="#000000"/><text fill="#000000" font-family="sans-serif" font-size="14" lengthAdjust="spacing" textLength="78" x="95.4" y="62.291">Application</text><line style="stroke:#181818;stroke-width:0.5;" x1="41" x2="197" y1="73" y2="73"/><ellipse cx="51" cy="86.7441" fill="none" rx="3" ry="3" style="stroke:#038048;stroke-width:1.0;"/><text fill="#000000" font-family="sans-serif" font-size="14" lengthAdjust="spacing" textLength="113" x="60" y="90.5352">id: ApplicationID</text><ellipse cx="51" cy="103.2324" fill="none" rx="3" ry="3" style="stroke:#038048;stroke-width:1.0;"/><text fill="#000000" font-family="sans-serif" font-size="14" lengthAdjust="spacing" textLength="132" x="60" y="107.0234">interview: Interview</text><line style="stroke:#181818;stroke-width:0.5;" x1="41" x2="197" y1="113.9766" y2="113.9766"/></g><!--class Interview--><g id="elem_Interview"><rect codeLine="44" fill="#F1F1F1" height="64.4883" id="Interview" rx="2.5" ry="2.5" style="stroke:#181818;stroke-width:0.5;" width="177" x="21.5" y="228.22"/><ellipse cx="74.75" cy="244.22" fill="#ADD1B2" rx="11" ry="11" style="stroke:#181818;stroke-width:1.0;"/><path d="M77.2231,250.3631 Q76.6421,250.6619 76.0029,250.8113 Q75.3638,250.9607 74.6582,250.9607 Q72.1514,250.9607 70.8315,249.3089 Q69.5117,247.657 69.5117,244.5359 Q69.5117,241.4065 70.8315,239.7547 Q72.1514,238.1028 74.6582,238.1028 Q75.3638,238.1028 76.0112,238.2522 Q76.6587,238.4016 77.2231,238.7005 L77.2231,241.4231 Q76.5923,240.8421 75.9988,240.5723 Q75.4053,240.3025 74.7744,240.3025 Q73.4297,240.3025 72.7449,241.3692 Q72.0601,242.4358 72.0601,244.5359 Q72.0601,246.6277 72.7449,247.6944 Q73.4297,248.761 74.7744,248.761 Q75.4053,248.761 75.9988,248.4912 Q76.5923,248.2215 77.2231,247.6404 Z " fill="#000000"/><text fill="#000000" font-family="sans-serif" font-size="14" lengthAdjust="spacing" textLength="62" x="95.25" y="249.511">Interview</text><line style="stroke:#181818;stroke-width:0.5;" x1="22.5" x2="197.5" y1="260.22" y2="260.22"/><ellipse cx="32.5" cy="273.9641" fill="none" rx="3" ry="3" style="stroke:#038048;stroke-width:1.0;"/><text fill="#000000" font-family="sans-serif" font-size="14" lengthAdjust="spacing" textLength="151" x="41.5" y="277.7552">grade: InterviewGrade</text><line style="stroke:#181818;stroke-width:0.5;" x1="22.5" x2="197.5" y1="284.7083" y2="284.7083"/></g><!--class InterviewGrade--><g id="elem_InterviewGrade"><rect codeLine="49" fill="#F1F1F1" height="64.4883" id="InterviewGrade" rx="2.5" ry="2.5" style="stroke:#181818;stroke-width:0.5;" width="135" x="42.5" y="370.2"/><ellipse cx="57.5" cy="386.2" fill="#ADD1B2" rx="11" ry="11" style="stroke:#181818;stroke-width:1.0;"/><path d="M59.9731,392.3431 Q59.3921,392.6419 58.7529,392.7913 Q58.1138,392.9407 57.4082,392.9407 Q54.9014,392.9407 53.5815,391.2889 Q52.2617,389.637 52.2617,386.5159 Q52.2617,383.3865 53.5815,381.7347 Q54.9014,380.0828 57.4082,380.0828 Q58.1138,380.0828 58.7612,380.2322 Q59.4087,380.3816 59.9731,380.6805 L59.9731,383.4031 Q59.3423,382.8221 58.7488,382.5523 Q58.1553,382.2825 57.5244,382.2825 Q56.1797,382.2825 55.4949,383.3492 Q54.8101,384.4158 54.8101,386.5159 Q54.8101,388.6077 55.4949,389.6744 Q56.1797,390.741 57.5244,390.741 Q58.1553,390.741 58.7488,390.4712 Q59.3423,390.2015 59.9731,389.6204 Z " fill="#000000"/><text fill="#000000" font-family="sans-serif" font-size="14" lengthAdjust="spacing" textLength="103" x="71.5" y="391.491">InterviewGrade</text><line style="stroke:#181818;stroke-width:0.5;" x1="43.5" x2="176.5" y1="402.2" y2="402.2"/><ellipse cx="53.5" cy="415.9441" fill="none" rx="3" ry="3" style="stroke:#038048;stroke-width:1.0;"/><text fill="#000000" font-family="sans-serif" font-size="14" lengthAdjust="spacing" textLength="66" x="62.5" y="419.7352">grade: int</text><line style="stroke:#181818;stroke-width:0.5;" x1="43.5" x2="176.5" y1="426.6883" y2="426.6883"/></g><!--class Candidate--><g id="elem_Candidate"><rect codeLine="65" fill="#F1F1F1" height="80.9766" id="Candidate" rx="2.5" ry="2.5" style="stroke:#181818;stroke-width:0.5;" width="181" x="695.5" y="219.98"/><ellipse cx="746.75" cy="235.98" fill="#ADD1B2" rx="11" ry="11" style="stroke:#181818;stroke-width:1.0;"/><path d="M749.2231,242.1231 Q748.6421,242.4219 748.0029,242.5713 Q747.3638,242.7207 746.6582,242.7207 Q744.1514,242.7207 742.8315,241.0689 Q741.5117,239.417 741.5117,236.2959 Q741.5117,233.1665 742.8315,231.5147 Q744.1514,229.8628 746.6582,229.8628 Q747.3638,229.8628 748.0112,230.0122 Q748.6587,230.1616 749.2231,230.4605 L749.2231,233.1831 Q748.5923,232.6021 747.9988,232.3323 Q747.4053,232.0625 746.7744,232.0625 Q745.4297,232.0625 744.7449,233.1292 Q744.0601,234.1958 744.0601,236.2959 Q744.0601,238.3877 744.7449,239.4544 Q745.4297,240.521 746.7744,240.521 Q747.4053,240.521 747.9988,240.2512 Q748.5923,239.9815 749.2231,239.4004 Z " fill="#000000"/><text fill="#000000" font-family="sans-serif" font-size="14" lengthAdjust="spacing" textLength="70" x="767.25" y="241.271">Candidate</text><line style="stroke:#181818;stroke-width:0.5;" x1="696.5" x2="875.5" y1="251.98" y2="251.98"/><ellipse cx="706.5" cy="265.7241" fill="none" rx="3" ry="3" style="stroke:#038048;stroke-width:1.0;"/><text fill="#000000" font-family="sans-serif" font-size="14" lengthAdjust="spacing" textLength="152" x="715.5" y="269.5152">email: CandidateEmail</text><ellipse cx="706.5" cy="282.2124" fill="none" rx="3" ry="3" style="stroke:#038048;stroke-width:1.0;"/><text fill="#000000" font-family="sans-serif" font-size="14" lengthAdjust="spacing" textLength="155" x="715.5" y="286.0034">name: CandidateName</text><line style="stroke:#181818;stroke-width:0.5;" x1="696.5" x2="875.5" y1="292.9566" y2="292.9566"/></g><!--class CandidateEmail--><g id="elem_CandidateEmail"><rect codeLine="70" fill="#F1F1F1" height="64.4883" id="CandidateEmail" rx="2.5" ry="2.5" style="stroke:#181818;stroke-width:0.5;" width="139" x="695.5" y="370.2"/><ellipse cx="710.5" cy="386.2" fill="#ADD1B2" rx="11" ry="11" style="stroke:#181818;stroke-width:1.0;"/><path d="M712.9731,392.3431 Q712.3921,392.6419 711.7529,392.7913 Q711.1138,392.9407 710.4082,392.9407 Q707.9014,392.9407 706.5815,391.2889 Q705.2617,389.637 705.2617,386.5159 Q705.2617,383.3865 706.5815,381.7347 Q707.9014,380.0828 710.4082,380.0828 Q711.1138,380.0828 711.7612,380.2322 Q712.4087,380.3816 712.9731,380.6805 L712.9731,383.4031 Q712.3423,382.8221 711.7488,382.5523 Q711.1553,382.2825 710.5244,382.2825 Q709.1797,382.2825 708.4949,383.3492 Q707.8101,384.4158 707.8101,386.5159 Q707.8101,388.6077 708.4949,389.6744 Q709.1797,390.741 710.5244,390.741 Q711.1553,390.741 711.7488,390.4712 Q712.3423,390.2015 712.9731,389.6204 Z " fill="#000000"/><text fill="#000000" font-family="sans-serif" font-size="14" lengthAdjust="spacing" textLength="107" x="724.5" y="391.491">CandidateEmail</text><line style="stroke:#181818;stroke-width:0.5;" x1="696.5" x2="833.5" y1="402.2" y2="402.2"/><ellipse cx="706.5" cy="415.9441" fill="none" rx="3" ry="3" style="stroke:#038048;stroke-width:1.0;"/><text fill="#000000" font-family="sans-serif" font-size="14" lengthAdjust="spacing" textLength="86" x="715.5" y="419.7352">email: String</text><line style="stroke:#181818;stroke-width:0.5;" x1="696.5" x2="833.5" y1="426.6883" y2="426.6883"/></g><!--class CandidateName--><g id="elem_CandidateName"><rect codeLine="74" fill="#F1F1F1" height="80.9766" id="CandidateName" rx="2.5" ry="2.5" style="stroke:#181818;stroke-width:0.5;" width="141" x="869.5" y="361.96"/><ellipse cx="884.5" cy="377.96" fill="#ADD1B2" rx="11" ry="11" style="stroke:#181818;stroke-width:1.0;"/><path d="M886.9731,384.1031 Q886.3921,384.4019 885.7529,384.5513 Q885.1138,384.7007 884.4082,384.7007 Q881.9014,384.7007 880.5815,383.0489 Q879.2617,381.397 879.2617,378.2759 Q879.2617,375.1465 880.5815,373.4947 Q881.9014,371.8428 884.4082,371.8428 Q885.1138,371.8428 885.7612,371.9922 Q886.4087,372.1416 886.9731,372.4405 L886.9731,375.1631 Q886.3423,374.5821 885.7488,374.3123 Q885.1553,374.0425 884.5244,374.0425 Q883.1797,374.0425 882.4949,375.1092 Q881.8101,376.1758 881.8101,378.2759 Q881.8101,380.3677 882.4949,381.4344 Q883.1797,382.501 884.5244,382.501 Q885.1553,382.501 885.7488,382.2312 Q886.3423,381.9615 886.9731,381.3804 Z " fill="#000000"/><text fill="#000000" font-family="sans-serif" font-size="14" lengthAdjust="spacing" textLength="109" x="898.5" y="383.251">CandidateName</text><line style="stroke:#181818;stroke-width:0.5;" x1="870.5" x2="1009.5" y1="393.96" y2="393.96"/><ellipse cx="880.5" cy="407.7041" fill="none" rx="3" ry="3" style="stroke:#038048;stroke-width:1.0;"/><text fill="#000000" font-family="sans-serif" font-size="14" lengthAdjust="spacing" textLength="115" x="889.5" y="411.4952">firstName: String</text><ellipse cx="880.5" cy="424.1924" fill="none" rx="3" ry="3" style="stroke:#038048;stroke-width:1.0;"/><text fill="#000000" font-family="sans-serif" font-size="14" lengthAdjust="spacing" textLength="112" x="889.5" y="427.9834">lastName: String</text><line style="stroke:#181818;stroke-width:0.5;" x1="870.5" x2="1009.5" y1="434.9366" y2="434.9366"/></g><!--link JobOpening to JobReference--><g id="link_JobOpening_JobReference"><path codeLine="29" d="M342,292.88 C342,313.19 342,333.81 342,355.61 " fill="none" id="JobOpening-to-JobReference" style="stroke:#181818;stroke-width:1.0;"/><polygon fill="#181818" points="342,361.61,346,352.61,342,356.61,338,352.61,342,361.61" style="stroke:#181818;stroke-width:1.0;"/></g><!--link JobOpening to RecruitmentProcess--><g id="link_JobOpening_RecruitmentProcess"><path codeLine="30" d="M389.39,293.06 C419.87,313.38 454.7475,336.6222 487.3775,358.3722 " fill="none" id="JobOpening-to-RecruitmentProcess" style="stroke:#181818;stroke-width:1.0;"/><polygon fill="#181818" points="492.37,361.7,487.0998,353.3799,488.2096,358.9268,482.6626,360.0366,492.37,361.7" style="stroke:#181818;stroke-width:1.0;"/></g><!--link RecruitmentProcess to Phase--><g id="link_RecruitmentProcess_Phase"><path codeLine="31" d="M548.73,443.21 C547.08,463.23 545.6127,481.1703 544.0727,499.8603 " fill="none" id="RecruitmentProcess-to-Phase" style="stroke:#181818;stroke-width:1.0;"/><polygon fill="#181818" points="543.58,505.84,548.3056,497.1989,543.9906,500.8569,540.3326,496.5419,543.58,505.84" style="stroke:#181818;stroke-width:1.0;"/></g><!--link Phase to PhaseName--><g id="link_Phase_PhaseName"><path codeLine="32" d="M498.11,570.83 C467.18,593.66 430.4374,620.7769 399.5474,643.5769 " fill="none" id="Phase-to-PhaseName" style="stroke:#181818;stroke-width:1.0;"/><polygon fill="#181818" points="394.72,647.14,404.3366,645.0136,398.7429,644.1707,399.5857,638.577,394.72,647.14" style="stroke:#181818;stroke-width:1.0;"/><text fill="#000000" font-family="sans-serif" font-size="13" lengthAdjust="spacing" textLength="68" x="458" y="613.9884">Is in phase</text></g><!--link Phase to PhaseStatus--><g id="link_Phase_PhaseStatus"><path codeLine="33" d="M541,570.83 C541,593.66 541,618.34 541,641.14 " fill="none" id="Phase-to-PhaseStatus" style="stroke:#181818;stroke-width:1.0;"/><polygon fill="#181818" points="541,647.14,545,638.14,541,642.14,537,638.14,541,647.14" style="stroke:#181818;stroke-width:1.0;"/></g><!--link Application to Interview--><g id="link_Application_Interview"><path codeLine="53" d="M116.98,122.21 C115.36,154.11 113.4143,192.3077 111.9143,221.8477 " fill="none" id="Application-to-Interview" style="stroke:#181818;stroke-width:1.0;"/><polygon fill="#181818" points="111.61,227.84,116.0613,219.0544,111.8636,222.8464,108.0716,218.6487,111.61,227.84" style="stroke:#181818;stroke-width:1.0;"/></g><!--link Application to JobOpening--><g id="link_Application_JobOpening"><path codeLine="54" d="M169.32,122.43 C209.53,154.34 260.4104,194.7199 297.5404,224.1899 " fill="none" id="Application-to-JobOpening" style="stroke:#181818;stroke-width:1.0;"/><polygon fill="#181818" points="302.24,227.92,297.6773,219.1918,298.3236,224.8116,292.7038,225.458,302.24,227.92" style="stroke:#181818;stroke-width:1.0;"/><text fill="#000000" font-family="sans-serif" font-size="13" lengthAdjust="spacing" textLength="56" x="224" y="165.5484">Refers to</text></g><!--link Interview to InterviewGrade--><g id="link_Interview_InterviewGrade"><path codeLine="55" d="M110,292.88 C110,315.94 110,341.11 110,364.14 " fill="none" id="Interview-to-InterviewGrade" style="stroke:#181818;stroke-width:1.0;"/><polygon fill="#181818" points="110,370.14,114,361.14,110,365.14,106,361.14,110,370.14" style="stroke:#181818;stroke-width:1.0;"/></g><!--link Application to Candidate--><g id="link_Application_Candidate"><path codeLine="79" d="M198.32,86.9 C305.24,94.97 500.06,117.2 655,176.98 C682.33,187.53 705.1698,200.6788 728.0898,216.1788 " fill="none" id="Application-to-Candidate" style="stroke:#181818;stroke-width:1.0;"/><polygon fill="#181818" points="733.06,219.54,727.8455,211.1848,728.9182,216.739,723.364,217.8117,733.06,219.54" style="stroke:#181818;stroke-width:1.0;"/><text fill="#000000" font-family="sans-serif" font-size="13" lengthAdjust="spacing" textLength="98" x="628" y="165.5484">Is submitted by</text></g><!--link Candidate to CandidateEmail--><g id="link_Candidate_CandidateEmail"><path codeLine="80" d="M780.04,301.21 C776.76,323.03 773.6493,343.7763 770.5993,364.1263 " fill="none" id="Candidate-to-CandidateEmail" style="stroke:#181818;stroke-width:1.0;"/><polygon fill="#181818" points="769.71,370.06,774.9998,361.7523,770.4511,365.1152,767.0882,360.5665,769.71,370.06" style="stroke:#181818;stroke-width:1.0;"/></g><!--link Candidate to CandidateName--><g id="link_Candidate_CandidateName"><path codeLine="81" d="M829.72,301.21 C850.53,320.12 870.9106,338.6436 891.7306,357.5736 " fill="none" id="Candidate-to-CandidateName" style="stroke:#181818;stroke-width:1.0;"/><polygon fill="#181818" points="896.17,361.61,892.2019,352.5959,892.4705,358.2464,886.8201,358.515,896.17,361.61" style="stroke:#181818;stroke-width:1.0;"/></g><!--SRC=[TLF1ReCm3Btp5T6kLNy0JPLGDqrCLLULNNOCuB9iaA34R9gc_VkIq193qvp0ptv-Vd5wNdto1jYpAbzwa48sMTEmtoHXzbGjDuP0DixEPuK2MqW9-Ee27l-ZrOTtRe0MYZeTWtlUHV8juH5Ee45Mix9gCAWwq5jLsxO5Qjioe1-g704XaNA27BhGZV1b-sptLkJ53S45SXmCxMzy9ALmV80ZL7eGs874WrOL6BESVgUezDuHMkATC7ZlsSs6iXBxr-lDp9yOVjtUPqLKkMpVpoUCzpJ5t6mfkykDTPHvYNUnjD68KMXY1VVdTShwlXKLHw7ak4_17m8jZI5G_a0WYQ2_17odBBzyNli-GPIrqTnjnOGzkVzBRQpO9qGO5dj5Xt1cp7KjKN95AVEtPnWgdnfKpsX6dOcpr9sBhLikQr5pXAMf4q2bGyT5cmRiqVq7MFehdj3uDi-B8-pa9SOB5mzlTHBQuBXUorTi2w-H6uw7YUtr6cQ6iXE8KBFon-S7V9OTFBYHu6smFVy1]--></g></svg>