<?xml version="1.0" encoding="us-ascii" standalone="no"?><svg xmlns="http://www.w3.org/2000/svg" xmlns:xlink="http://www.w3.org/1999/xlink" contentStyleType="text/css" height="414px" preserveAspectRatio="none" style="width:815px;height:414px;background:#FFFFFF;" version="1.1" viewBox="0 0 815 414" width="815px" zoomAndPan="magnify"><defs/><g><text fill="#000000" font-family="sans-serif" font-size="14" font-weight="bold" lengthAdjust="spacing" textLength="163" x="319" y="23.5352">Domain Driven Design</text><!--cluster CandidateAgg--><g id="cluster_CandidateAgg"><path d="M378.5,198.2383 L479.5,198.2383 A3.75,3.75 0 0 1 482,200.7383 L489,220.7266 L805.5,220.7266 A2.5,2.5 0 0 1 808,223.2266 L808,301.4983 A2.5,2.5 0 0 1 805.5,303.9983 L378.5,303.9983 A2.5,2.5 0 0 1 376,301.4983 L376,200.7383 A2.5,2.5 0 0 1 378.5,198.2383 " fill="#AABABB" style="stroke:#000000;stroke-width:1.5;"/><line style="stroke:#000000;stroke-width:1.5;" x1="376" x2="489" y1="220.7266" y2="220.7266"/><text fill="#000000" font-family="sans-serif" font-size="14" font-weight="bold" lengthAdjust="spacing" textLength="100" x="380" y="213.7734">CandidateAgg</text></g><!--cluster ApplicationAgg--><g id="cluster_ApplicationAgg"><path d="M8.5,43.4883 L119.5,43.4883 A3.75,3.75 0 0 1 122,45.9883 L129,65.9766 L171.5,65.9766 A2.5,2.5 0 0 1 174,68.4766 L174,405.1183 A2.5,2.5 0 0 1 171.5,407.6183 L8.5,407.6183 A2.5,2.5 0 0 1 6,405.1183 L6,45.9883 A2.5,2.5 0 0 1 8.5,43.4883 " fill="#AAAABB" style="stroke:#000000;stroke-width:1.5;"/><line style="stroke:#000000;stroke-width:1.5;" x1="6" x2="129" y1="65.9766" y2="65.9766"/><text fill="#000000" font-family="sans-serif" font-size="14" font-weight="bold" lengthAdjust="spacing" textLength="110" x="10" y="59.0234">ApplicationAgg</text></g><!--cluster JobOpeningAgg--><g id="cluster_JobOpeningAgg"><path d="M203.5,198.2383 L317.5,198.2383 A3.75,3.75 0 0 1 320,200.7383 L327,220.7266 L342.5,220.7266 A2.5,2.5 0 0 1 345,223.2266 L345,301.4983 A2.5,2.5 0 0 1 342.5,303.9983 L203.5,303.9983 A2.5,2.5 0 0 1 201,301.4983 L201,200.7383 A2.5,2.5 0 0 1 203.5,198.2383 " fill="#BBAABB" style="stroke:#000000;stroke-width:1.5;"/><line style="stroke:#000000;stroke-width:1.5;" x1="201" x2="327" y1="220.7266" y2="220.7266"/><text fill="#000000" font-family="sans-serif" font-size="14" font-weight="bold" lengthAdjust="spacing" textLength="113" x="205" y="213.7734">JobOpeningAgg</text></g><!--cluster RankingAgg--><g id="cluster_RankingAgg"><path d="M352.5,43.4883 L440.5,43.4883 A3.75,3.75 0 0 1 443,45.9883 L450,65.9766 L598.5,65.9766 A2.5,2.5 0 0 1 601,68.4766 L601,146.7383 A2.5,2.5 0 0 1 598.5,149.2383 L352.5,149.2383 A2.5,2.5 0 0 1 350,146.7383 L350,45.9883 A2.5,2.5 0 0 1 352.5,43.4883 " fill="#ABBABB" style="stroke:#000000;stroke-width:1.5;"/><line style="stroke:#000000;stroke-width:1.5;" x1="350" x2="450" y1="65.9766" y2="65.9766"/><text fill="#000000" font-family="sans-serif" font-size="14" font-weight="bold" lengthAdjust="spacing" textLength="87" x="354" y="59.0234">RankingAgg</text></g><!--class Candidate--><g id="elem_Candidate"><rect codeLine="10" fill="#F1F1F1" height="54.7539" id="Candidate" rx="2.5" ry="2.5" style="stroke:#181818;stroke-width:0.5;" width="102" x="392" y="233.2383"/><ellipse cx="407" cy="260.6152" fill="#ADD1B2" rx="11" ry="11" style="stroke:#181818;stroke-width:1.0;"/><path d="M409.4731,266.7583 Q408.8921,267.0571 408.2529,267.2065 Q407.6138,267.356 406.9082,267.356 Q404.4014,267.356 403.0815,265.7041 Q401.7617,264.0522 401.7617,260.9312 Q401.7617,257.8018 403.0815,256.1499 Q404.4014,254.498 406.9082,254.498 Q407.6138,254.498 408.2612,254.6475 Q408.9087,254.7969 409.4731,255.0957 L409.4731,257.8184 Q408.8423,257.2373 408.2488,256.9675 Q407.6553,256.6978 407.0244,256.6978 Q405.6797,256.6978 404.9949,257.7644 Q404.3101,258.8311 404.3101,260.9312 Q404.3101,263.0229 404.9949,264.0896 Q405.6797,265.1563 407.0244,265.1563 Q407.6553,265.1563 408.2488,264.8865 Q408.8423,264.6167 409.4731,264.0356 Z " fill="#000000"/><text fill="#000000" font-family="sans-serif" font-size="12" font-style="italic" lengthAdjust="spacing" textLength="38" x="437" y="249.8398">&#171;Root&#187;</text><text fill="#000000" font-family="sans-serif" font-size="12" font-style="italic" lengthAdjust="spacing" textLength="43" x="434.5" y="263.9727">&#171;Entity&#187;</text><text fill="#000000" font-family="sans-serif" font-size="14" lengthAdjust="spacing" textLength="70" x="421" y="280.0391">Candidate</text></g><!--class Email--><g id="elem_Email"><rect codeLine="11" fill="#F1F1F1" height="54.7539" id="Email" rx="2.5" ry="2.5" style="stroke:#181818;stroke-width:0.5;" width="114" x="529" y="233.2383"/><ellipse cx="544" cy="260.6152" fill="#ADD1B2" rx="11" ry="11" style="stroke:#181818;stroke-width:1.0;"/><path d="M546.4731,266.7583 Q545.8921,267.0571 545.2529,267.2065 Q544.6138,267.356 543.9082,267.356 Q541.4014,267.356 540.0815,265.7041 Q538.7617,264.0522 538.7617,260.9312 Q538.7617,257.8018 540.0815,256.1499 Q541.4014,254.498 543.9082,254.498 Q544.6138,254.498 545.2612,254.6475 Q545.9087,254.7969 546.4731,255.0957 L546.4731,257.8184 Q545.8423,257.2373 545.2488,256.9675 Q544.6553,256.6978 544.0244,256.6978 Q542.6797,256.6978 541.9949,257.7644 Q541.3101,258.8311 541.3101,260.9312 Q541.3101,263.0229 541.9949,264.0896 Q542.6797,265.1563 544.0244,265.1563 Q544.6553,265.1563 545.2488,264.8865 Q545.8423,264.6167 546.4731,264.0356 Z " fill="#000000"/><text fill="#000000" font-family="sans-serif" font-size="12" font-style="italic" lengthAdjust="spacing" textLength="86" x="556" y="249.8398">&#171;Value Object&#187;</text><text fill="#000000" font-family="sans-serif" font-size="12" font-style="italic" lengthAdjust="spacing" textLength="23" x="587.5" y="263.9727">&#171;Id&#187;</text><text fill="#000000" font-family="sans-serif" font-size="14" lengthAdjust="spacing" textLength="37" x="580.5" y="280.0391">Email</text></g><!--class Name--><g id="elem_Name"><rect codeLine="12" fill="#F1F1F1" height="40.6211" id="Name" rx="2.5" ry="2.5" style="stroke:#181818;stroke-width:0.5;" width="114" x="678" y="240.3083"/><ellipse cx="693" cy="260.6188" fill="#ADD1B2" rx="11" ry="11" style="stroke:#181818;stroke-width:1.0;"/><path d="M695.4731,266.7619 Q694.8921,267.0607 694.2529,267.2101 Q693.6138,267.3596 692.9082,267.3596 Q690.4014,267.3596 689.0815,265.7077 Q687.7617,264.0558 687.7617,260.9347 Q687.7617,257.8054 689.0815,256.1535 Q690.4014,254.5016 692.9082,254.5016 Q693.6138,254.5016 694.2612,254.6511 Q694.9087,254.8005 695.4731,255.0993 L695.4731,257.822 Q694.8423,257.2409 694.2488,256.9711 Q693.6553,256.7013 693.0244,256.7013 Q691.6797,256.7013 690.9949,257.768 Q690.3101,258.8346 690.3101,260.9347 Q690.3101,263.0265 690.9949,264.0932 Q691.6797,265.1598 693.0244,265.1598 Q693.6553,265.1598 694.2488,264.8901 Q694.8423,264.6203 695.4731,264.0392 Z " fill="#000000"/><text fill="#000000" font-family="sans-serif" font-size="12" font-style="italic" lengthAdjust="spacing" textLength="86" x="705" y="256.9098">&#171;Value Object&#187;</text><text fill="#000000" font-family="sans-serif" font-size="14" lengthAdjust="spacing" textLength="39" x="728.5" y="272.9763">Name</text></g><!--class Application--><g id="elem_Application"><rect codeLine="16" fill="#F1F1F1" height="54.7539" id="Application" rx="2.5" ry="2.5" style="stroke:#181818;stroke-width:0.5;" width="110" x="48" y="78.4883"/><ellipse cx="63" cy="105.8652" fill="#ADD1B2" rx="11" ry="11" style="stroke:#181818;stroke-width:1.0;"/><path d="M65.4731,112.0083 Q64.8921,112.3071 64.2529,112.4565 Q63.6138,112.606 62.9082,112.606 Q60.4014,112.606 59.0815,110.9541 Q57.7617,109.3022 57.7617,106.1812 Q57.7617,103.0518 59.0815,101.3999 Q60.4014,99.748 62.9082,99.748 Q63.6138,99.748 64.2612,99.8975 Q64.9087,100.0469 65.4731,100.3457 L65.4731,103.0684 Q64.8423,102.4873 64.2488,102.2175 Q63.6553,101.9478 63.0244,101.9478 Q61.6797,101.9478 60.9949,103.0144 Q60.3101,104.0811 60.3101,106.1812 Q60.3101,108.2729 60.9949,109.3396 Q61.6797,110.4063 63.0244,110.4063 Q63.6553,110.4063 64.2488,110.1365 Q64.8423,109.8667 65.4731,109.2856 Z " fill="#000000"/><text fill="#000000" font-family="sans-serif" font-size="12" font-style="italic" lengthAdjust="spacing" textLength="38" x="97" y="95.0898">&#171;Root&#187;</text><text fill="#000000" font-family="sans-serif" font-size="12" font-style="italic" lengthAdjust="spacing" textLength="43" x="94.5" y="109.2227">&#171;Entity&#187;</text><text fill="#000000" font-family="sans-serif" font-size="14" lengthAdjust="spacing" textLength="78" x="77" y="125.2891">Application</text></g><!--class Interview--><g id="elem_Interview"><rect codeLine="17" fill="#F1F1F1" height="40.6211" id="Interview" rx="2.5" ry="2.5" style="stroke:#181818;stroke-width:0.5;" width="114" x="27" y="240.3083"/><ellipse cx="42" cy="260.6188" fill="#ADD1B2" rx="11" ry="11" style="stroke:#181818;stroke-width:1.0;"/><path d="M44.4731,266.7619 Q43.8921,267.0607 43.2529,267.2101 Q42.6138,267.3596 41.9082,267.3596 Q39.4014,267.3596 38.0815,265.7077 Q36.7617,264.0558 36.7617,260.9347 Q36.7617,257.8054 38.0815,256.1535 Q39.4014,254.5016 41.9082,254.5016 Q42.6138,254.5016 43.2612,254.6511 Q43.9087,254.8005 44.4731,255.0993 L44.4731,257.822 Q43.8423,257.2409 43.2488,256.9711 Q42.6553,256.7013 42.0244,256.7013 Q40.6797,256.7013 39.9949,257.768 Q39.3101,258.8346 39.3101,260.9347 Q39.3101,263.0265 39.9949,264.0932 Q40.6797,265.1598 42.0244,265.1598 Q42.6553,265.1598 43.2488,264.8901 Q43.8423,264.6203 44.4731,264.0392 Z " fill="#000000"/><text fill="#000000" font-family="sans-serif" font-size="12" font-style="italic" lengthAdjust="spacing" textLength="86" x="54" y="256.9098">&#171;Value Object&#187;</text><text fill="#000000" font-family="sans-serif" font-size="14" lengthAdjust="spacing" textLength="62" x="66" y="272.9763">Interview</text></g><!--class InterviewGrade--><g id="elem_InterviewGrade"><rect codeLine="18" fill="#F1F1F1" height="40.6211" id="InterviewGrade" rx="2.5" ry="2.5" style="stroke:#181818;stroke-width:0.5;" width="135" x="22.5" y="350.9983"/><ellipse cx="37.5" cy="371.3088" fill="#ADD1B2" rx="11" ry="11" style="stroke:#181818;stroke-width:1.0;"/><path d="M39.9731,377.4519 Q39.3921,377.7507 38.7529,377.9001 Q38.1138,378.0496 37.4082,378.0496 Q34.9014,378.0496 33.5815,376.3977 Q32.2617,374.7458 32.2617,371.6247 Q32.2617,368.4954 33.5815,366.8435 Q34.9014,365.1916 37.4082,365.1916 Q38.1138,365.1916 38.7612,365.3411 Q39.4087,365.4905 39.9731,365.7893 L39.9731,368.512 Q39.3423,367.9309 38.7488,367.6611 Q38.1553,367.3913 37.5244,367.3913 Q36.1797,367.3913 35.4949,368.458 Q34.8101,369.5246 34.8101,371.6247 Q34.8101,373.7165 35.4949,374.7832 Q36.1797,375.8498 37.5244,375.8498 Q38.1553,375.8498 38.7488,375.5801 Q39.3423,375.3103 39.9731,374.7292 Z " fill="#000000"/><text fill="#000000" font-family="sans-serif" font-size="12" font-style="italic" lengthAdjust="spacing" textLength="86" x="60" y="367.5998">&#171;Value Object&#187;</text><text fill="#000000" font-family="sans-serif" font-size="14" lengthAdjust="spacing" textLength="103" x="51.5" y="383.6663">InterviewGrade</text></g><!--class JobOpening--><g id="elem_JobOpening"><rect codeLine="26" fill="#F1F1F1" height="54.7539" id="JobOpening" rx="2.5" ry="2.5" style="stroke:#181818;stroke-width:0.5;" width="113" x="216.5" y="233.2383"/><ellipse cx="231.5" cy="260.6152" fill="#ADD1B2" rx="11" ry="11" style="stroke:#181818;stroke-width:1.0;"/><path d="M233.9731,266.7583 Q233.3921,267.0571 232.7529,267.2065 Q232.1138,267.356 231.4082,267.356 Q228.9014,267.356 227.5815,265.7041 Q226.2617,264.0522 226.2617,260.9312 Q226.2617,257.8018 227.5815,256.1499 Q228.9014,254.498 231.4082,254.498 Q232.1138,254.498 232.7612,254.6475 Q233.4087,254.7969 233.9731,255.0957 L233.9731,257.8184 Q233.3423,257.2373 232.7488,256.9675 Q232.1553,256.6978 231.5244,256.6978 Q230.1797,256.6978 229.4949,257.7644 Q228.8101,258.8311 228.8101,260.9312 Q228.8101,263.0229 229.4949,264.0896 Q230.1797,265.1563 231.5244,265.1563 Q232.1553,265.1563 232.7488,264.8865 Q233.3423,264.6167 233.9731,264.0356 Z " fill="#000000"/><text fill="#000000" font-family="sans-serif" font-size="12" font-style="italic" lengthAdjust="spacing" textLength="38" x="267" y="249.8398">&#171;Root&#187;</text><text fill="#000000" font-family="sans-serif" font-size="12" font-style="italic" lengthAdjust="spacing" textLength="43" x="264.5" y="263.9727">&#171;Entity&#187;</text><text fill="#000000" font-family="sans-serif" font-size="14" lengthAdjust="spacing" textLength="81" x="245.5" y="280.0391">JobOpening</text></g><!--class Rank--><g id="elem_Rank"><rect codeLine="32" fill="#F1F1F1" height="54.7539" id="Rank" rx="2.5" ry="2.5" style="stroke:#181818;stroke-width:0.5;" width="71" x="365.5" y="78.4883"/><ellipse cx="380.5" cy="105.8652" fill="#ADD1B2" rx="11" ry="11" style="stroke:#181818;stroke-width:1.0;"/><path d="M382.9731,112.0083 Q382.3921,112.3071 381.7529,112.4565 Q381.1138,112.606 380.4082,112.606 Q377.9014,112.606 376.5815,110.9541 Q375.2617,109.3022 375.2617,106.1812 Q375.2617,103.0518 376.5815,101.3999 Q377.9014,99.748 380.4082,99.748 Q381.1138,99.748 381.7612,99.8975 Q382.4087,100.0469 382.9731,100.3457 L382.9731,103.0684 Q382.3423,102.4873 381.7488,102.2175 Q381.1553,101.9478 380.5244,101.9478 Q379.1797,101.9478 378.4949,103.0144 Q377.8101,104.0811 377.8101,106.1812 Q377.8101,108.2729 378.4949,109.3396 Q379.1797,110.4063 380.5244,110.4063 Q381.1553,110.4063 381.7488,110.1365 Q382.3423,109.8667 382.9731,109.2856 Z " fill="#000000"/><text fill="#000000" font-family="sans-serif" font-size="12" font-style="italic" lengthAdjust="spacing" textLength="38" x="395" y="95.0898">&#171;Root&#187;</text><text fill="#000000" font-family="sans-serif" font-size="12" font-style="italic" lengthAdjust="spacing" textLength="43" x="392.5" y="109.2227">&#171;Entity&#187;</text><text fill="#000000" font-family="sans-serif" font-size="14" lengthAdjust="spacing" textLength="34" x="397" y="125.2891">Rank</text></g><!--class RankID--><g id="elem_RankID"><rect codeLine="33" fill="#F1F1F1" height="54.7539" id="RankID" rx="2.5" ry="2.5" style="stroke:#181818;stroke-width:0.5;" width="114" x="471" y="78.4883"/><ellipse cx="486" cy="105.8652" fill="#ADD1B2" rx="11" ry="11" style="stroke:#181818;stroke-width:1.0;"/><path d="M488.4731,112.0083 Q487.8921,112.3071 487.2529,112.4565 Q486.6138,112.606 485.9082,112.606 Q483.4014,112.606 482.0815,110.9541 Q480.7617,109.3022 480.7617,106.1812 Q480.7617,103.0518 482.0815,101.3999 Q483.4014,99.748 485.9082,99.748 Q486.6138,99.748 487.2612,99.8975 Q487.9087,100.0469 488.4731,100.3457 L488.4731,103.0684 Q487.8423,102.4873 487.2488,102.2175 Q486.6553,101.9478 486.0244,101.9478 Q484.6797,101.9478 483.9949,103.0144 Q483.3101,104.0811 483.3101,106.1812 Q483.3101,108.2729 483.9949,109.3396 Q484.6797,110.4063 486.0244,110.4063 Q486.6553,110.4063 487.2488,110.1365 Q487.8423,109.8667 488.4731,109.2856 Z " fill="#000000"/><text fill="#000000" font-family="sans-serif" font-size="12" font-style="italic" lengthAdjust="spacing" textLength="86" x="498" y="95.0898">&#171;Value Object&#187;</text><text fill="#000000" font-family="sans-serif" font-size="12" font-style="italic" lengthAdjust="spacing" textLength="23" x="529.5" y="109.2227">&#171;Id&#187;</text><text fill="#000000" font-family="sans-serif" font-size="14" lengthAdjust="spacing" textLength="48" x="517" y="125.2891">RankID</text></g><!--link Application to Interview--><g id="link_Application_Interview"><path codeLine="20" d="M88.8,133.7383 C84.43,143.3983 80.19,154.5483 78,165.2383 C72.79,190.6583 75.231,214.7425 78.681,233.9825 " fill="none" id="Application-to-Interview" style="stroke:#181818;stroke-width:1.0;"/><polygon fill="#181818" points="79.74,239.8883,82.0887,230.3236,78.8575,234.9668,74.2143,231.7356,79.74,239.8883" style="stroke:#181818;stroke-width:1.0;"/><text fill="#000000" font-family="sans-serif" font-size="13" lengthAdjust="spacing" textLength="8" x="77.0463" y="153.6344">1</text><text fill="#000000" font-family="sans-serif" font-size="13" lengthAdjust="spacing" textLength="24" x="51.1669" y="229.5605">0..1</text></g><!--link Interview to InterviewGrade--><g id="link_Interview_InterviewGrade"><path codeLine="21" d="M85.09,281.2983 C86.17,300.9983 87.5106,325.1373 88.5906,344.7773 " fill="none" id="Interview-to-InterviewGrade" style="stroke:#181818;stroke-width:1.0;"/><polygon fill="#181818" points="88.92,350.7683,92.4198,341.5622,88.6455,345.7758,84.4319,342.0015,88.92,350.7683" style="stroke:#181818;stroke-width:1.0;"/><text fill="#000000" font-family="sans-serif" font-size="13" lengthAdjust="spacing" textLength="8" x="76.3079" y="301.4816">1</text><text fill="#000000" font-family="sans-serif" font-size="13" lengthAdjust="spacing" textLength="24" x="61.0777" y="340.1453">0..1</text></g><!--link Application to Candidate--><g id="link_Application_Candidate"><path codeLine="22" d="M138.43,133.5983 C163.24,150.7483 197.92,171.7083 232,182.2383 C280.1,197.1083 297.59,173.2983 345,190.2383 C370.91,199.5083 391.5644,213.8007 409.9344,229.2207 " fill="none" id="Application-to-Candidate" style="stroke:#181818;stroke-width:1.0;"/><polygon fill="#181818" points="414.53,233.0783,410.2084,224.2282,410.7004,229.8636,405.0649,230.3556,414.53,233.0783" style="stroke:#181818;stroke-width:1.0;"/><text fill="#000000" font-family="sans-serif" font-size="13" lengthAdjust="spacing" textLength="98" x="233" y="178.8066">Is submitted by</text><text fill="#000000" font-family="sans-serif" font-size="13" lengthAdjust="spacing" textLength="22" x="121.7741" y="153.9078">1..*</text><text fill="#000000" font-family="sans-serif" font-size="13" lengthAdjust="spacing" textLength="8" x="399.0213" y="222.5803">1</text></g><!--link Application to JobOpening--><g id="link_Application_JobOpening"><path codeLine="28" d="M98.28,133.6883 C97.07,149.8883 98.75,169.7383 111,182.2383 C120.88,192.3283 160.84,185.1583 174,190.2383 C199.45,200.0783 219.9201,214.0387 238.5001,229.1087 " fill="none" id="Application-to-JobOpening" style="stroke:#181818;stroke-width:1.0;"/><polygon fill="#181818" points="243.16,232.8883,238.6899,224.1123,239.2767,229.7386,233.6504,230.3255,243.16,232.8883" style="stroke:#181818;stroke-width:1.0;"/><text fill="#000000" font-family="sans-serif" font-size="13" lengthAdjust="spacing" textLength="56" x="112" y="178.8066">Refers to</text><text fill="#000000" font-family="sans-serif" font-size="13" lengthAdjust="spacing" textLength="22" x="92.9506" y="154.0175">0..*</text><text fill="#000000" font-family="sans-serif" font-size="13" lengthAdjust="spacing" textLength="8" x="227.3345" y="222.3463">1</text></g><!--link Rank to JobOpening--><g id="link_Rank_JobOpening"><path codeLine="35" d="M378.55,133.5983 C370.21,143.5283 360.67,154.8983 352,165.2383 C332.92,188.0083 315.1209,209.2671 299.3109,228.1571 " fill="none" id="Rank-to-JobOpening" style="stroke:#181818;stroke-width:1.0;"/><polygon fill="#181818" points="295.46,232.7583,304.3038,228.4239,298.6691,228.924,298.169,223.2893,295.46,232.7583" style="stroke:#181818;stroke-width:1.0;"/><text fill="#000000" font-family="sans-serif" font-size="13" lengthAdjust="spacing" textLength="56" x="353" y="178.8066">Refers to</text><text fill="#000000" font-family="sans-serif" font-size="13" lengthAdjust="spacing" textLength="8" x="364.7641" y="153.9078">1</text><text fill="#000000" font-family="sans-serif" font-size="13" lengthAdjust="spacing" textLength="8" x="291.4981" y="222.6263">1</text></g><!--link Rank to Candidate--><g id="link_Rank_Candidate"><path codeLine="36" d="M408.32,133.4783 C415.98,161.3383 426.3483,199.0732 434.0383,227.0232 " fill="none" id="Rank-to-Candidate" style="stroke:#181818;stroke-width:1.0;"/><polygon fill="#181818" points="435.63,232.8083,437.0992,223.0696,434.3036,227.9874,429.3858,225.1918,435.63,232.8083" style="stroke:#181818;stroke-width:1.0;"/><text fill="#000000" font-family="sans-serif" font-size="13" lengthAdjust="spacing" textLength="82" x="421" y="178.8066">Is ordered by</text><text fill="#000000" font-family="sans-serif" font-size="13" lengthAdjust="spacing" textLength="8" x="401.0463" y="153.7616">1</text><text fill="#000000" font-family="sans-serif" font-size="13" lengthAdjust="spacing" textLength="6" x="427.3616" y="222.6872">*</text></g><!--SRC=[VP91Qy8m68Rl-HKVxZ0GhEugfJ2cZEummSFkNvhFcfaceObA6VllIpkrjLLxIKgVB-_3cpvllRTkFfrQXThl2nLbffXc2fsR28bvYGLZMoa8DfAK-DyMvBT6ECQyz8fWOGgK6XQbF51OoCbSCxUJsc8O1oKr-SeI7F5GCMOnss5Ey8PQI86UNlCSdX0vSWu_3CBJnBT07A-DyKaInqiT4giawL3BaAtY-0lLdc35lobho5HSKPzOK1zYlwtCgxLAPkYbqISTxEjqa8T2gVPK7YGT1tatcFSInL2i8JjvC7ePmMIIm6WMHM5x6M_0ozjTh4cvSMWKZKy3WRxK3ND87RWzBwJt981NtQO-35zPqbBdJL6S3ufgYHiz3IrcLnRjSD1OquPA1zvq1TQeT-Vq4DrFhpy_l9yQI1Tt_fY6gubQ9ZWzKEgJuq65fXHKdWly0m00]--></g></svg>