<?xml version="1.0" encoding="us-ascii" standalone="no"?><svg xmlns="http://www.w3.org/2000/svg" xmlns:xlink="http://www.w3.org/1999/xlink" contentStyleType="text/css" height="544px" preserveAspectRatio="none" style="width:483px;height:544px;background:#FFFFFF;" version="1.1" viewBox="0 0 483 544" width="483px" zoomAndPan="magnify"><defs/><g><rect fill="none" height="142.7949" style="stroke:#000000;stroke-width:1.5;" width="466.5" x="10" y="301.3672"/><line style="stroke:#181818;stroke-width:0.5;stroke-dasharray:5.0,5.0;" x1="51" x2="51" y1="83.6211" y2="461.1621"/><line style="stroke:#181818;stroke-width:0.5;stroke-dasharray:5.0,5.0;" x1="347.5" x2="347.5" y1="83.6211" y2="461.1621"/><text fill="#000000" font-family="sans-serif" font-size="14" lengthAdjust="spacing" textLength="57" x="20" y="80.1074">Operator</text><ellipse cx="51.5" cy="13.5" fill="#E2E2F0" rx="8" ry="8" style="stroke:#181818;stroke-width:0.5;"/><path d="M51.5,21.5 L51.5,48.5 M38.5,29.5 L64.5,29.5 M51.5,48.5 L38.5,63.5 M51.5,48.5 L64.5,63.5 " fill="none" style="stroke:#181818;stroke-width:0.5;"/><text fill="#000000" font-family="sans-serif" font-size="14" lengthAdjust="spacing" textLength="57" x="20" y="475.2695">Operator</text><ellipse cx="51.5" cy="487.2832" fill="#E2E2F0" rx="8" ry="8" style="stroke:#181818;stroke-width:0.5;"/><path d="M51.5,495.2832 L51.5,522.2832 M38.5,503.2832 L64.5,503.2832 M51.5,522.2832 L38.5,537.2832 M51.5,522.2832 L64.5,537.2832 " fill="none" style="stroke:#181818;stroke-width:0.5;"/><rect fill="#E2E2F0" height="32.6211" rx="2.5" ry="2.5" style="stroke:#181818;stroke-width:0.5;" width="60" x="317.5" y="50"/><text fill="#000000" font-family="sans-serif" font-size="14" lengthAdjust="spacing" textLength="46" x="324.5" y="72.1074">System</text><rect fill="#E2E2F0" height="32.6211" rx="2.5" ry="2.5" style="stroke:#181818;stroke-width:0.5;" width="60" x="317.5" y="460.1621"/><text fill="#000000" font-family="sans-serif" font-size="14" lengthAdjust="spacing" textLength="46" x="324.5" y="482.2695">System</text><polygon fill="#181818" points="335.5,112.9121,345.5,116.9121,335.5,120.9121,339.5,116.9121" style="stroke:#181818;stroke-width:1.0;"/><line style="stroke:#181818;stroke-width:1.0;" x1="51.5" x2="341.5" y1="116.9121" y2="116.9121"/><text fill="#000000" font-family="sans-serif" font-size="13" lengthAdjust="spacing" textLength="272" x="58.5" y="111.6494">Asks to upload a text file with the requirements</text><polygon fill="#181818" points="62.5,144.2031,52.5,148.2031,62.5,152.2031,58.5,148.2031" style="stroke:#181818;stroke-width:1.0;"/><line style="stroke:#181818;stroke-width:1.0;" x1="56.5" x2="346.5" y1="148.2031" y2="148.2031"/><text fill="#000000" font-family="sans-serif" font-size="13" lengthAdjust="spacing" textLength="168" x="68.5" y="142.9404">Asks to select an application</text><polygon fill="#181818" points="335.5,175.4941,345.5,179.4941,335.5,183.4941,339.5,179.4941" style="stroke:#181818;stroke-width:1.0;"/><line style="stroke:#181818;stroke-width:1.0;" x1="51.5" x2="341.5" y1="179.4941" y2="179.4941"/><text fill="#000000" font-family="sans-serif" font-size="13" lengthAdjust="spacing" textLength="121" x="58.5" y="174.2314">Select an application</text><polygon fill="#181818" points="62.5,206.7852,52.5,210.7852,62.5,214.7852,58.5,210.7852" style="stroke:#181818;stroke-width:1.0;"/><line style="stroke:#181818;stroke-width:1.0;" x1="56.5" x2="346.5" y1="210.7852" y2="210.7852"/><text fill="#000000" font-family="sans-serif" font-size="13" lengthAdjust="spacing" textLength="68" x="68.5" y="205.5225">Request file</text><polygon fill="#181818" points="335.5,238.0762,345.5,242.0762,335.5,246.0762,339.5,242.0762" style="stroke:#181818;stroke-width:1.0;"/><line style="stroke:#181818;stroke-width:1.0;" x1="51.5" x2="341.5" y1="242.0762" y2="242.0762"/><text fill="#000000" font-family="sans-serif" font-size="13" lengthAdjust="spacing" textLength="192" x="58.5" y="236.8135">Upload text file with requirements</text><line style="stroke:#181818;stroke-width:1.0;" x1="347.5" x2="389.5" y1="273.3672" y2="273.3672"/><line style="stroke:#181818;stroke-width:1.0;" x1="389.5" x2="389.5" y1="273.3672" y2="286.3672"/><line style="stroke:#181818;stroke-width:1.0;" x1="348.5" x2="389.5" y1="286.3672" y2="286.3672"/><polygon fill="#181818" points="358.5,282.3672,348.5,286.3672,358.5,290.3672,354.5,286.3672" style="stroke:#181818;stroke-width:1.0;"/><text fill="#000000" font-family="sans-serif" font-size="13" lengthAdjust="spacing" textLength="122" x="354.5" y="268.1045">evaluate/verify the file</text><path d="M10,301.3672 L71,301.3672 L71,310.6582 L61,320.6582 L10,320.6582 L10,301.3672 " fill="#EEEEEE" style="stroke:#000000;stroke-width:1.5;"/><rect fill="none" height="142.7949" style="stroke:#000000;stroke-width:1.5;" width="466.5" x="10" y="301.3672"/><text fill="#000000" font-family="sans-serif" font-size="13" font-weight="bold" lengthAdjust="spacing" textLength="16" x="25" y="316.3955">alt</text><text fill="#000000" font-family="sans-serif" font-size="11" font-weight="bold" lengthAdjust="spacing" textLength="76" x="86" y="315.2373">[if file is valid]</text><line style="stroke:#181818;stroke-width:1.0;" x1="347.5" x2="389.5" y1="343.9492" y2="343.9492"/><line style="stroke:#181818;stroke-width:1.0;" x1="389.5" x2="389.5" y1="343.9492" y2="356.9492"/><line style="stroke:#181818;stroke-width:1.0;" x1="348.5" x2="389.5" y1="356.9492" y2="356.9492"/><polygon fill="#181818" points="358.5,352.9492,348.5,356.9492,358.5,360.9492,354.5,356.9492" style="stroke:#181818;stroke-width:1.0;"/><text fill="#000000" font-family="sans-serif" font-size="13" lengthAdjust="spacing" textLength="110" x="354.5" y="338.6865">Register file upload</text><polygon fill="#181818" points="62.5,384.2402,52.5,388.2402,62.5,392.2402,58.5,388.2402" style="stroke:#181818;stroke-width:1.0;"/><line style="stroke:#181818;stroke-width:1.0;" x1="56.5" x2="346.5" y1="388.2402" y2="388.2402"/><text fill="#000000" font-family="sans-serif" font-size="13" lengthAdjust="spacing" textLength="148" x="68.5" y="382.9775">Return success message</text><line style="stroke:#000000;stroke-width:1.0;stroke-dasharray:2.0,2.0;" x1="10" x2="476.5" y1="397.2402" y2="397.2402"/><text fill="#000000" font-family="sans-serif" font-size="11" font-weight="bold" lengthAdjust="spacing" textLength="86" x="15" y="409.1104">[if file is invalid]</text><polygon fill="#181818" points="62.5,432.1621,52.5,436.1621,62.5,440.1621,58.5,436.1621" style="stroke:#181818;stroke-width:1.0;"/><line style="stroke:#181818;stroke-width:1.0;" x1="56.5" x2="346.5" y1="436.1621" y2="436.1621"/><text fill="#000000" font-family="sans-serif" font-size="13" lengthAdjust="spacing" textLength="125" x="68.5" y="430.8994">Return error message</text><!--SRC=[RP11JWCn34NtESLNzuWz2oHEWDI80rWPJskHoOJOQUdjIIUCADDw4KNoz_lVfc1pmNlcGktZCXMJ89cIOUSlQZpjG0hltAh1qoly2zxqKs4pQeup3I0OVnj6YOops15sP1J-gb9uucJg_7LmXVpDAqSE1agWdAC4CfdJrim_56s8- -R6sZDi0HyzvIRZVRucvHF5IiRF9ouoNfP55gH3Aue66Jj354qhmzAurehOyq7QwKgNzGlz5zscjbeIj8R0gfZQGmV68kUeVEicwO7V7OfBQNl_WZed3Uu7]--></g></svg>