<?xml version="1.0" encoding="us-ascii" standalone="no"?><svg xmlns="http://www.w3.org/2000/svg" xmlns:xlink="http://www.w3.org/1999/xlink" contentStyleType="text/css" height="305.9px" preserveAspectRatio="none" style="width:431px;height:305px;background:#FFFFFF;" version="1.1" viewBox="0 0 431 305" width="431.9px" zoomAndPan="magnify"><defs/><g><rect fill="none" height="68.9527" style="stroke:#000000;stroke-width:1.0499999999999998;" width="396.55" x="7" y="167.1496"/><line style="stroke:#181818;stroke-width:0.3499999999999999;stroke-dasharray:5.0,5.0;" x1="35.7" x2="35.7" y1="58.5348" y2="248.0023"/><line style="stroke:#181818;stroke-width:0.3499999999999999;stroke-dasharray:5.0,5.0;" x1="375.55" x2="375.55" y1="58.5348" y2="248.0023"/><text fill="#000000" font-family="sans-serif" font-size="9.8" lengthAdjust="spacing" textLength="39.9" x="14" y="56.0752">Operator</text><ellipse cx="36.05" cy="9.45" fill="#E2E2F0" rx="5.6" ry="5.6" style="stroke:#181818;stroke-width:0.3499999999999999;"/><path d="M36.05,15.05 L36.05,33.95 M26.95,20.65 L45.15,20.65 M36.05,33.95 L26.95,44.45 M36.05,33.95 L45.15,44.45 " fill="none" style="stroke:#181818;stroke-width:0.3499999999999999;"/><text fill="#000000" font-family="sans-serif" font-size="9.8" lengthAdjust="spacing" textLength="39.9" x="14" y="257.8775">Operator</text><ellipse cx="36.05" cy="266.2871" fill="#E2E2F0" rx="5.6" ry="5.6" style="stroke:#181818;stroke-width:0.3499999999999999;"/><path d="M36.05,271.8871 L36.05,290.7871 M26.95,277.4871 L45.15,277.4871 M36.05,290.7871 L26.95,301.2871 M36.05,290.7871 L45.15,301.2871 " fill="none" style="stroke:#181818;stroke-width:0.3499999999999999;"/><rect fill="#E2E2F0" height="22.8348" rx="1.75" ry="1.75" style="stroke:#181818;stroke-width:0.3499999999999999;" width="42" x="354.55" y="35"/><text fill="#000000" font-family="sans-serif" font-size="9.8" lengthAdjust="spacing" textLength="32.2" x="359.45" y="50.4752">System</text><rect fill="#E2E2F0" height="22.8348" rx="1.75" ry="1.75" style="stroke:#181818;stroke-width:0.3499999999999999;" width="42" x="354.55" y="247.3023"/><text fill="#000000" font-family="sans-serif" font-size="9.8" lengthAdjust="spacing" textLength="32.2" x="359.45" y="262.7775">System</text><polygon fill="#181818" points="367.15,79.0385,374.15,81.8385,367.15,84.6385,369.95,81.8385" style="stroke:#181818;stroke-width:0.6999999999999998;"/><line style="stroke:#181818;stroke-width:0.6999999999999998;" x1="36.05" x2="371.35" y1="81.8385" y2="81.8385"/><text fill="#000000" font-family="sans-serif" font-size="9.1" lengthAdjust="spacing" textLength="322.7" x="40.95" y="78.1546">Asks to upload a text file with the requirements of a candidate for its verification.</text><polygon fill="#181818" points="43.75,100.9422,36.75,103.7422,43.75,106.5422,40.95,103.7422" style="stroke:#181818;stroke-width:0.6999999999999998;"/><line style="stroke:#181818;stroke-width:0.6999999999999998;" x1="39.55" x2="374.85" y1="103.7422" y2="103.7422"/><text fill="#000000" font-family="sans-serif" font-size="9.1" lengthAdjust="spacing" textLength="67.9" x="47.95" y="100.0583">Requests the file</text><polygon fill="#181818" points="367.15,122.8459,374.15,125.6459,367.15,128.4459,369.95,125.6459" style="stroke:#181818;stroke-width:0.6999999999999998;"/><line style="stroke:#181818;stroke-width:0.6999999999999998;" x1="36.05" x2="371.35" y1="125.6459" y2="125.6459"/><text fill="#000000" font-family="sans-serif" font-size="9.1" lengthAdjust="spacing" textLength="134.4" x="40.95" y="121.962">Upload text file with requirements</text><line style="stroke:#181818;stroke-width:0.6999999999999998;" x1="375.55" x2="404.95" y1="147.5496" y2="147.5496"/><line style="stroke:#181818;stroke-width:0.6999999999999998;" x1="404.95" x2="404.95" y1="147.5496" y2="156.6496"/><line style="stroke:#181818;stroke-width:0.6999999999999998;" x1="376.25" x2="404.95" y1="156.6496" y2="156.6496"/><polygon fill="#181818" points="383.25,153.8496,376.25,156.6496,383.25,159.4496,380.45,156.6496" style="stroke:#181818;stroke-width:0.6999999999999998;"/><text fill="#000000" font-family="sans-serif" font-size="9.1" lengthAdjust="spacing" textLength="46.9" x="380.45" y="143.8657">Validate file</text><path d="M7,167.1496 L49.7,167.1496 L49.7,173.6533 L42.7,180.6533 L7,180.6533 L7,167.1496 " fill="#EEEEEE" style="stroke:#000000;stroke-width:1.0499999999999998;"/><rect fill="none" height="68.9527" style="stroke:#000000;stroke-width:1.0499999999999998;" width="396.55" x="7" y="167.1496"/><text fill="#000000" font-family="sans-serif" font-size="9.1" font-weight="bold" lengthAdjust="spacing" textLength="11.2" x="17.5" y="177.6694">alt</text><text fill="#000000" font-family="sans-serif" font-size="7.7" font-weight="bold" lengthAdjust="spacing" textLength="67.9" x="60.2" y="176.8587">[if the file is valid]</text><polygon fill="#181818" points="43.75,194.157,36.75,196.957,43.75,199.757,40.95,196.957" style="stroke:#181818;stroke-width:0.6999999999999998;"/><line style="stroke:#181818;stroke-width:0.6999999999999998;" x1="39.55" x2="374.85" y1="196.957" y2="196.957"/><text fill="#000000" font-family="sans-serif" font-size="9.1" lengthAdjust="spacing" textLength="103.6" x="47.95" y="193.2731">Return success message</text><line style="stroke:#000000;stroke-width:0.6999999999999998;stroke-dasharray:2.0,2.0;" x1="7" x2="403.55" y1="203.257" y2="203.257"/><text fill="#000000" font-family="sans-serif" font-size="7.7" font-weight="bold" lengthAdjust="spacing" textLength="82.6" x="10.5" y="211.5661">[if the file is not valid]</text><polygon fill="#181818" points="43.75,227.7023,36.75,230.5023,43.75,233.3023,40.95,230.5023" style="stroke:#181818;stroke-width:0.6999999999999998;"/><line style="stroke:#181818;stroke-width:0.6999999999999998;" x1="39.55" x2="374.85" y1="230.5023" y2="230.5023"/><text fill="#000000" font-family="sans-serif" font-size="9.1" lengthAdjust="spacing" textLength="127.4" x="47.95" y="226.8185">Return validation error message</text><!--SRC=[XOz1JiGm34NtESNNxE40iq3Y14XKiBTIXx58asAx0zmUbpA0oW8l8YjwUl-RidV5tSnAiQIPr2NBJCrn6DxDUJg034DA5mPNDnYEkBLdWtSiS-qqWk3yvYXI6Q_Y9_Y9eVooYFB4pGsz19IfZJAICqgO9BxFh58aaqjlrsbOxPUa8-v3m1RKQljqxsiyRF6xyD_1cpFGHwfVqS4bgWufFsA9AYkG4FEdXY_QO4lER8Of7dhYnDLuxsZT__MSjo9nC5WrJlaMjl43]--></g></svg>