<?xml version="1.0" encoding="us-ascii" standalone="no"?><svg xmlns="http://www.w3.org/2000/svg" xmlns:xlink="http://www.w3.org/1999/xlink" contentStyleType="text/css" height="597px" preserveAspectRatio="none" style="width:936px;height:597px;background:#FFFFFF;" version="1.1" viewBox="0 0 936 597" width="936px" zoomAndPan="magnify"><defs/><g><!--cluster Controller--><g id="cluster_Controller"><path d="M79.5,6 L153.5,6 A3.75,3.75 0 0 1 156,8.5 L163,28.4883 L534.5,28.4883 A2.5,2.5 0 0 1 537,30.9883 L537,118.99 A2.5,2.5 0 0 1 534.5,121.49 L79.5,121.49 A2.5,2.5 0 0 1 77,118.99 L77,8.5 A2.5,2.5 0 0 1 79.5,6 " fill="none" style="stroke:#000000;stroke-width:1.5;"/><line style="stroke:#000000;stroke-width:1.5;" x1="77" x2="163" y1="28.4883" y2="28.4883"/><text fill="#000000" font-family="sans-serif" font-size="14" font-weight="bold" lengthAdjust="spacing" textLength="73" x="81" y="21.5352">Controller</text></g><!--cluster Service--><g id="cluster_Service"><path d="M98.5,145.49 L149.5,145.49 A3.75,3.75 0 0 1 152,147.99 L159,167.9783 L515.5,167.9783 A2.5,2.5 0 0 1 518,170.4783 L518,274.97 A2.5,2.5 0 0 1 515.5,277.47 L98.5,277.47 A2.5,2.5 0 0 1 96,274.97 L96,147.99 A2.5,2.5 0 0 1 98.5,145.49 " fill="none" style="stroke:#000000;stroke-width:1.5;"/><line style="stroke:#000000;stroke-width:1.5;" x1="96" x2="159" y1="167.9783" y2="167.9783"/><text fill="#000000" font-family="sans-serif" font-size="14" font-weight="bold" lengthAdjust="spacing" textLength="50" x="100" y="161.0252">Service</text></g><!--cluster Repository--><g id="cluster_Repository"><path d="M8.5,317.96 L87.5,317.96 A3.75,3.75 0 0 1 90,320.46 L97,340.4483 L265.5,340.4483 A2.5,2.5 0 0 1 268,342.9483 L268,430.95 A2.5,2.5 0 0 1 265.5,433.45 L8.5,433.45 A2.5,2.5 0 0 1 6,430.95 L6,320.46 A2.5,2.5 0 0 1 8.5,317.96 " fill="none" style="stroke:#000000;stroke-width:1.5;"/><line style="stroke:#000000;stroke-width:1.5;" x1="6" x2="97" y1="340.4483" y2="340.4483"/><text fill="#000000" font-family="sans-serif" font-size="14" font-weight="bold" lengthAdjust="spacing" textLength="78" x="10" y="333.4952">Repository</text></g><!--cluster Model--><g id="cluster_Model"><path d="M294.5,301.47 L339.5,301.47 A3.75,3.75 0 0 1 342,303.97 L349,323.9583 L926.5,323.9583 A2.5,2.5 0 0 1 929,326.4583 L929,588.41 A2.5,2.5 0 0 1 926.5,590.91 L294.5,590.91 A2.5,2.5 0 0 1 292,588.41 L292,303.97 A2.5,2.5 0 0 1 294.5,301.47 " fill="none" style="stroke:#000000;stroke-width:1.5;"/><line style="stroke:#000000;stroke-width:1.5;" x1="292" x2="349" y1="323.9583" y2="323.9583"/><text fill="#000000" font-family="sans-serif" font-size="14" font-weight="bold" lengthAdjust="spacing" textLength="44" x="296" y="317.0052">Model</text></g><!--class OrderController--><g id="elem_OrderController"><rect codeLine="2" fill="#F1F1F1" height="64.4883" id="OrderController" rx="2.5" ry="2.5" style="stroke:#181818;stroke-width:0.5;" width="429" x="92.5" y="41"/><ellipse cx="247.75" cy="57" fill="#ADD1B2" rx="11" ry="11" style="stroke:#181818;stroke-width:1.0;"/><path d="M250.7231,62.6431 Q250.1421,62.9419 249.5029,63.0913 Q248.8638,63.2407 248.1582,63.2407 Q245.6514,63.2407 244.3315,61.5889 Q243.0117,59.937 243.0117,56.8159 Q243.0117,53.6865 244.3315,52.0347 Q245.6514,50.3828 248.1582,50.3828 Q248.8638,50.3828 249.5112,50.5322 Q250.1587,50.6816 250.7231,50.9805 L250.7231,53.7031 Q250.0923,53.1221 249.4988,52.8523 Q248.9053,52.5825 248.2744,52.5825 Q246.9297,52.5825 246.2449,53.6492 Q245.5601,54.7158 245.5601,56.8159 Q245.5601,58.9077 246.2449,59.9744 Q246.9297,61.041 248.2744,61.041 Q248.9053,61.041 249.4988,60.7712 Q250.0923,60.5015 250.7231,59.9204 Z " fill="#000000"/><text fill="#000000" font-family="sans-serif" font-size="14" lengthAdjust="spacing" textLength="110" x="268.25" y="62.291">OrderController</text><line style="stroke:#181818;stroke-width:0.5;" x1="93.5" x2="520.5" y1="73" y2="73"/><line style="stroke:#181818;stroke-width:0.5;" x1="93.5" x2="520.5" y1="81" y2="81"/><ellipse cx="103.5" cy="94.7441" fill="#84BE84" rx="3" ry="3" style="stroke:#038048;stroke-width:1.0;"/><text fill="#000000" font-family="sans-serif" font-size="14" lengthAdjust="spacing" textLength="403" x="112.5" y="98.5352">placeOrder(orderDetails: OrderDetails): OrderConfirmation</text></g><!--class OrderService--><g id="elem_OrderService"><rect codeLine="8" fill="#F1F1F1" height="80.9766" id="OrderService" rx="2.5" ry="2.5" style="stroke:#181818;stroke-width:0.5;" width="390" x="112" y="180.49"/><ellipse cx="258.75" cy="196.49" fill="#ADD1B2" rx="11" ry="11" style="stroke:#181818;stroke-width:1.0;"/><path d="M261.7231,202.1331 Q261.1421,202.4319 260.5029,202.5813 Q259.8638,202.7307 259.1582,202.7307 Q256.6514,202.7307 255.3315,201.0789 Q254.0117,199.427 254.0117,196.3059 Q254.0117,193.1765 255.3315,191.5247 Q256.6514,189.8728 259.1582,189.8728 Q259.8638,189.8728 260.5112,190.0222 Q261.1587,190.1716 261.7231,190.4705 L261.7231,193.1931 Q261.0923,192.6121 260.4988,192.3423 Q259.9053,192.0725 259.2744,192.0725 Q257.9297,192.0725 257.2449,193.1392 Q256.5601,194.2058 256.5601,196.3059 Q256.5601,198.3977 257.2449,199.4644 Q257.9297,200.531 259.2744,200.531 Q259.9053,200.531 260.4988,200.2612 Q261.0923,199.9915 261.7231,199.4104 Z " fill="#000000"/><text fill="#000000" font-family="sans-serif" font-size="14" lengthAdjust="spacing" textLength="88" x="279.25" y="201.781">OrderService</text><line style="stroke:#181818;stroke-width:0.5;" x1="113" x2="501" y1="212.49" y2="212.49"/><line style="stroke:#181818;stroke-width:0.5;" x1="113" x2="501" y1="220.49" y2="220.49"/><ellipse cx="123" cy="234.2341" fill="#84BE84" rx="3" ry="3" style="stroke:#038048;stroke-width:1.0;"/><text fill="#000000" font-family="sans-serif" font-size="14" lengthAdjust="spacing" textLength="318" x="132" y="238.0252">createOrder(orderDetails: OrderDetails): Order</text><ellipse cx="123" cy="250.7224" fill="#84BE84" rx="3" ry="3" style="stroke:#038048;stroke-width:1.0;"/><text fill="#000000" font-family="sans-serif" font-size="14" lengthAdjust="spacing" textLength="364" x="132" y="254.5134">processPayment(order: Order): PaymentConfirmation</text></g><!--class OrderRepository--><g id="elem_OrderRepository"><rect codeLine="15" fill="#F1F1F1" height="64.4883" id="OrderRepository" rx="2.5" ry="2.5" style="stroke:#181818;stroke-width:0.5;" width="229" x="22.5" y="352.96"/><ellipse cx="76.25" cy="368.96" fill="#ADD1B2" rx="11" ry="11" style="stroke:#181818;stroke-width:1.0;"/><path d="M79.2231,374.6031 Q78.6421,374.9019 78.0029,375.0513 Q77.3638,375.2007 76.6582,375.2007 Q74.1514,375.2007 72.8315,373.5489 Q71.5117,371.897 71.5117,368.7759 Q71.5117,365.6465 72.8315,363.9947 Q74.1514,362.3428 76.6582,362.3428 Q77.3638,362.3428 78.0112,362.4922 Q78.6587,362.6416 79.2231,362.9405 L79.2231,365.6631 Q78.5923,365.0821 77.9988,364.8123 Q77.4053,364.5425 76.7744,364.5425 Q75.4297,364.5425 74.7449,365.6092 Q74.0601,366.6758 74.0601,368.7759 Q74.0601,370.8677 74.7449,371.9344 Q75.4297,373.001 76.7744,373.001 Q77.4053,373.001 77.9988,372.7312 Q78.5923,372.4615 79.2231,371.8804 Z " fill="#000000"/><text fill="#000000" font-family="sans-serif" font-size="14" lengthAdjust="spacing" textLength="113" x="96.75" y="374.251">OrderRepository</text><line style="stroke:#181818;stroke-width:0.5;" x1="23.5" x2="250.5" y1="384.96" y2="384.96"/><line style="stroke:#181818;stroke-width:0.5;" x1="23.5" x2="250.5" y1="392.96" y2="392.96"/><ellipse cx="33.5" cy="406.7041" fill="#84BE84" rx="3" ry="3" style="stroke:#038048;stroke-width:1.0;"/><text fill="#000000" font-family="sans-serif" font-size="14" lengthAdjust="spacing" textLength="203" x="42.5" y="410.4952">saveOrder(order: Order): void</text></g><!--class Order--><g id="elem_Order"><rect codeLine="21" fill="#F1F1F1" height="97.4648" id="Order" rx="2.5" ry="2.5" style="stroke:#181818;stroke-width:0.5;" width="237" x="308.5" y="336.47"/><ellipse cx="402.75" cy="352.47" fill="#ADD1B2" rx="11" ry="11" style="stroke:#181818;stroke-width:1.0;"/><path d="M405.7231,358.1131 Q405.1421,358.4119 404.5029,358.5613 Q403.8638,358.7107 403.1582,358.7107 Q400.6514,358.7107 399.3315,357.0589 Q398.0117,355.407 398.0117,352.2859 Q398.0117,349.1565 399.3315,347.5047 Q400.6514,345.8528 403.1582,345.8528 Q403.8638,345.8528 404.5112,346.0022 Q405.1587,346.1516 405.7231,346.4505 L405.7231,349.1731 Q405.0923,348.5921 404.4988,348.3223 Q403.9053,348.0525 403.2744,348.0525 Q401.9297,348.0525 401.2449,349.1192 Q400.5601,350.1858 400.5601,352.2859 Q400.5601,354.3777 401.2449,355.4444 Q401.9297,356.511 403.2744,356.511 Q403.9053,356.511 404.4988,356.2412 Q405.0923,355.9715 405.7231,355.3904 Z " fill="#000000"/><text fill="#000000" font-family="sans-serif" font-size="14" lengthAdjust="spacing" textLength="40" x="423.25" y="357.761">Order</text><line style="stroke:#181818;stroke-width:0.5;" x1="309.5" x2="544.5" y1="368.47" y2="368.47"/><ellipse cx="319.5" cy="382.2141" fill="none" rx="3" ry="3" style="stroke:#038048;stroke-width:1.0;"/><text fill="#000000" font-family="sans-serif" font-size="14" lengthAdjust="spacing" textLength="39" x="328.5" y="386.0052">id: int</text><ellipse cx="319.5" cy="398.7024" fill="none" rx="3" ry="3" style="stroke:#038048;stroke-width:1.0;"/><text fill="#000000" font-family="sans-serif" font-size="14" lengthAdjust="spacing" textLength="108" x="328.5" y="402.4934">orderDate: Date</text><line style="stroke:#181818;stroke-width:0.5;" x1="309.5" x2="544.5" y1="409.4466" y2="409.4466"/><ellipse cx="319.5" cy="423.1907" fill="#84BE84" rx="3" ry="3" style="stroke:#038048;stroke-width:1.0;"/><text fill="#000000" font-family="sans-serif" font-size="14" lengthAdjust="spacing" textLength="211" x="328.5" y="426.9817">addItem(item: OrderItem): void</text></g><!--class OrderItem--><g id="elem_OrderItem"><rect codeLine="27" fill="#F1F1F1" height="80.9766" id="OrderItem" rx="2.5" ry="2.5" style="stroke:#181818;stroke-width:0.5;" width="108" x="373" y="493.93"/><ellipse cx="390.7" cy="509.93" fill="#ADD1B2" rx="11" ry="11" style="stroke:#181818;stroke-width:1.0;"/><path d="M393.6731,515.5731 Q393.0921,515.8719 392.4529,516.0213 Q391.8138,516.1707 391.1082,516.1707 Q388.6014,516.1707 387.2815,514.5189 Q385.9617,512.867 385.9617,509.7459 Q385.9617,506.6165 387.2815,504.9647 Q388.6014,503.3128 391.1082,503.3128 Q391.8138,503.3128 392.4612,503.4622 Q393.1087,503.6116 393.6731,503.9105 L393.6731,506.6331 Q393.0423,506.0521 392.4488,505.7823 Q391.8553,505.5125 391.2244,505.5125 Q389.8797,505.5125 389.1949,506.5792 Q388.5101,507.6458 388.5101,509.7459 Q388.5101,511.8377 389.1949,512.9044 Q389.8797,513.971 391.2244,513.971 Q391.8553,513.971 392.4488,513.7012 Q393.0423,513.4315 393.6731,512.8504 Z " fill="#000000"/><text fill="#000000" font-family="sans-serif" font-size="14" lengthAdjust="spacing" textLength="70" x="405.3" y="515.221">OrderItem</text><line style="stroke:#181818;stroke-width:0.5;" x1="374" x2="480" y1="525.93" y2="525.93"/><ellipse cx="384" cy="539.6741" fill="none" rx="3" ry="3" style="stroke:#038048;stroke-width:1.0;"/><text fill="#000000" font-family="sans-serif" font-size="14" lengthAdjust="spacing" textLength="82" x="393" y="543.4652">quantity: int</text><ellipse cx="384" cy="556.1624" fill="none" rx="3" ry="3" style="stroke:#038048;stroke-width:1.0;"/><text fill="#000000" font-family="sans-serif" font-size="14" lengthAdjust="spacing" textLength="73" x="393" y="559.9534">price: float</text><line style="stroke:#181818;stroke-width:0.5;" x1="374" x2="480" y1="566.9066" y2="566.9066"/></g><!--class Payment--><g id="elem_Payment"><rect codeLine="32" fill="#F1F1F1" height="80.9766" id="Payment" rx="2.5" ry="2.5" style="stroke:#181818;stroke-width:0.5;" width="155" x="580.5" y="344.71"/><ellipse cx="624.75" cy="360.71" fill="#ADD1B2" rx="11" ry="11" style="stroke:#181818;stroke-width:1.0;"/><path d="M627.7231,366.3531 Q627.1421,366.6519 626.5029,366.8013 Q625.8638,366.9507 625.1582,366.9507 Q622.6514,366.9507 621.3315,365.2989 Q620.0117,363.647 620.0117,360.5259 Q620.0117,357.3965 621.3315,355.7447 Q622.6514,354.0928 625.1582,354.0928 Q625.8638,354.0928 626.5112,354.2422 Q627.1587,354.3916 627.7231,354.6905 L627.7231,357.4131 Q627.0923,356.8321 626.4988,356.5623 Q625.9053,356.2925 625.2744,356.2925 Q623.9297,356.2925 623.2449,357.3592 Q622.5601,358.4258 622.5601,360.5259 Q622.5601,362.6177 623.2449,363.6844 Q623.9297,364.751 625.2744,364.751 Q625.9053,364.751 626.4988,364.4812 Q627.0923,364.2115 627.7231,363.6304 Z " fill="#000000"/><text fill="#000000" font-family="sans-serif" font-size="14" lengthAdjust="spacing" textLength="58" x="645.25" y="366.001">Payment</text><line style="stroke:#181818;stroke-width:0.5;" x1="581.5" x2="734.5" y1="376.71" y2="376.71"/><ellipse cx="591.5" cy="390.4541" fill="none" rx="3" ry="3" style="stroke:#038048;stroke-width:1.0;"/><text fill="#000000" font-family="sans-serif" font-size="14" lengthAdjust="spacing" textLength="92" x="600.5" y="394.2452">amount: float</text><ellipse cx="591.5" cy="406.9424" fill="none" rx="3" ry="3" style="stroke:#038048;stroke-width:1.0;"/><text fill="#000000" font-family="sans-serif" font-size="14" lengthAdjust="spacing" textLength="129" x="600.5" y="410.7334">paymentDate: Date</text><line style="stroke:#181818;stroke-width:0.5;" x1="581.5" x2="734.5" y1="417.6866" y2="417.6866"/></g><!--class User--><g id="elem_User"><rect codeLine="37" fill="#F1F1F1" height="97.4648" id="User" rx="2.5" ry="2.5" style="stroke:#181818;stroke-width:0.5;" width="143" x="770.5" y="336.47"/><ellipse cx="822.25" cy="352.47" fill="#ADD1B2" rx="11" ry="11" style="stroke:#181818;stroke-width:1.0;"/><path d="M825.2231,358.1131 Q824.6421,358.4119 824.0029,358.5613 Q823.3638,358.7107 822.6582,358.7107 Q820.1514,358.7107 818.8315,357.0589 Q817.5117,355.407 817.5117,352.2859 Q817.5117,349.1565 818.8315,347.5047 Q820.1514,345.8528 822.6582,345.8528 Q823.3638,345.8528 824.0112,346.0022 Q824.6587,346.1516 825.2231,346.4505 L825.2231,349.1731 Q824.5923,348.5921 823.9988,348.3223 Q823.4053,348.0525 822.7744,348.0525 Q821.4297,348.0525 820.7449,349.1192 Q820.0601,350.1858 820.0601,352.2859 Q820.0601,354.3777 820.7449,355.4444 Q821.4297,356.511 822.7744,356.511 Q823.4053,356.511 823.9988,356.2412 Q824.5923,355.9715 825.2231,355.3904 Z " fill="#000000"/><text fill="#000000" font-family="sans-serif" font-size="14" lengthAdjust="spacing" textLength="31" x="842.75" y="357.761">User</text><line style="stroke:#181818;stroke-width:0.5;" x1="771.5" x2="912.5" y1="368.47" y2="368.47"/><ellipse cx="781.5" cy="382.2141" fill="none" rx="3" ry="3" style="stroke:#038048;stroke-width:1.0;"/><text fill="#000000" font-family="sans-serif" font-size="14" lengthAdjust="spacing" textLength="39" x="790.5" y="386.0052">id: int</text><ellipse cx="781.5" cy="398.7024" fill="none" rx="3" ry="3" style="stroke:#038048;stroke-width:1.0;"/><text fill="#000000" font-family="sans-serif" font-size="14" lengthAdjust="spacing" textLength="117" x="790.5" y="402.4934">username: String</text><ellipse cx="781.5" cy="415.1907" fill="none" rx="3" ry="3" style="stroke:#038048;stroke-width:1.0;"/><text fill="#000000" font-family="sans-serif" font-size="14" lengthAdjust="spacing" textLength="86" x="790.5" y="418.9817">email: String</text><line style="stroke:#181818;stroke-width:0.5;" x1="771.5" x2="912.5" y1="425.9348" y2="425.9348"/></g><!--link OrderController to OrderService--><g id="link_OrderController_OrderService"><path codeLine="44" d="M307,105.87 C307,127.64 307,150.72 307,174.08 " fill="none" id="OrderController-to-OrderService" style="stroke:#181818;stroke-width:1.0;"/><polygon fill="#181818" points="307,180.08,311,171.08,307,175.08,303,171.08,307,180.08" style="stroke:#181818;stroke-width:1.0;"/></g><!--link OrderService to OrderRepository--><g id="link_OrderService_OrderRepository"><path codeLine="45" d="M265.41,261.66 C236.12,289.62 201.7711,322.3982 174.5411,348.3782 " fill="none" id="OrderService-to-OrderRepository" style="stroke:#181818;stroke-width:1.0;"/><polygon fill="#181818" points="170.2,352.52,179.4729,349.2013,173.8176,349.0685,173.9504,343.4132,170.2,352.52" style="stroke:#181818;stroke-width:1.0;"/></g><!--link OrderService to Order--><g id="link_OrderService_Order"><path codeLine="46" d="M336.36,261.66 C353.01,284.18 370.4029,307.6855 387.9629,331.4355 " fill="none" id="OrderService-to-Order" style="stroke:#181818;stroke-width:1.0;"/><polygon fill="#181818" points="391.53,336.26,389.3957,326.6452,388.5574,332.2396,382.963,331.4013,391.53,336.26" style="stroke:#181818;stroke-width:1.0;"/></g><!--link Order to OrderItem--><g id="link_Order_OrderItem"><path codeLine="47" d="M427,434.41 C427,453.53 427,469.25 427,487.47 " fill="none" id="Order-to-OrderItem" style="stroke:#181818;stroke-width:1.0;"/><polygon fill="#181818" points="427,493.47,431,484.47,427,488.47,423,484.47,427,493.47" style="stroke:#181818;stroke-width:1.0;"/></g><!--SRC=[ZLBBRWCX3BplLt1CLUK7zj1BU-cXQjKe7s214w7os89tfQZAlnSM561H7nmisMFFM8Cdu1zmHlPe3Jch53hsDR3mk0BlsQiJw3eillj90SSLtzaOdv10AZ-ccPpTZJUAatGQI5gpKbo7wp1CMVo0Rf4SU-KMM6MvGw1_wrRhEilH-pUuQ3IKHdDJQCxbtzTynybwITPT-aqxR1NriDIh5ht5Ij4Bl5Y1gkUk6QKOcJHK2ic3OCd8OYm02F5Cg7SoX2mSyrPyAnKxQhdF6Gn9kcn49nT-PMGdPO5wfcncpGFQpeRgYSIJEZVhDsH7_uS1SsWme0F1WPmqvuAW3gVGb5UtjpUztpyqrpOqftT3om__q93A9OzUVWC0]--></g></svg>