<?xml version="1.0" encoding="us-ascii" standalone="no"?><svg xmlns="http://www.w3.org/2000/svg" xmlns:xlink="http://www.w3.org/1999/xlink" contentStyleType="text/css" height="1285px" preserveAspectRatio="none" style="width:2089px;height:1285px;background:#FFFFFF;" version="1.1" viewBox="0 0 2089 1285" width="2089px" zoomAndPan="magnify"><defs/><g><!--cluster Controller--><g id="cluster_Controller"><path d="M965.5,186.46 L1039.5,186.46 A3.75,3.75 0 0 1 1042,188.96 L1049,208.9483 L1486.5,208.9483 A2.5,2.5 0 0 1 1489,211.4483 L1489,365.41 A2.5,2.5 0 0 1 1486.5,367.91 L965.5,367.91 A2.5,2.5 0 0 1 963,365.41 L963,188.96 A2.5,2.5 0 0 1 965.5,186.46 " fill="none" style="stroke:#000000;stroke-width:1.5;"/><line style="stroke:#000000;stroke-width:1.5;" x1="963" x2="1049" y1="208.9483" y2="208.9483"/><text fill="#000000" font-family="sans-serif" font-size="14" font-weight="bold" lengthAdjust="spacing" textLength="73" x="967" y="201.9952">Controller</text></g><!--cluster Service--><g id="cluster_Service"><path d="M1045.5,400.91 L1096.5,400.91 A3.75,3.75 0 0 1 1099,403.41 L1106,423.3983 L1406.5,423.3983 A2.5,2.5 0 0 1 1409,425.8983 L1409,612.82 A2.5,2.5 0 0 1 1406.5,615.32 L1045.5,615.32 A2.5,2.5 0 0 1 1043,612.82 L1043,403.41 A2.5,2.5 0 0 1 1045.5,400.91 " fill="none" style="stroke:#000000;stroke-width:1.5;"/><line style="stroke:#000000;stroke-width:1.5;" x1="1043" x2="1106" y1="423.3983" y2="423.3983"/><text fill="#000000" font-family="sans-serif" font-size="14" font-weight="bold" lengthAdjust="spacing" textLength="50" x="1047" y="416.4452">Service</text></g><!--cluster Repository--><g id="cluster_Repository"><path d="M8.5,699.57 L87.5,699.57 A3.75,3.75 0 0 1 90,702.07 L97,722.0583 L1455.5,722.0583 A2.5,2.5 0 0 1 1458,724.5583 L1458,862.02 A2.5,2.5 0 0 1 1455.5,864.52 L8.5,864.52 A2.5,2.5 0 0 1 6,862.02 L6,702.07 A2.5,2.5 0 0 1 8.5,699.57 " fill="none" style="stroke:#000000;stroke-width:1.5;"/><line style="stroke:#000000;stroke-width:1.5;" x1="6" x2="97" y1="722.0583" y2="722.0583"/><text fill="#000000" font-family="sans-serif" font-size="14" font-weight="bold" lengthAdjust="spacing" textLength="78" x="10" y="715.1052">Repository</text></g><!--cluster Model--><g id="cluster_Model"><path d="M1484.5,648.32 L1529.5,648.32 A3.75,3.75 0 0 1 1532,650.82 L1539,670.8083 L2079.5,670.8083 A2.5,2.5 0 0 1 2082,673.3083 L2082,1275.66 A2.5,2.5 0 0 1 2079.5,1278.16 L1484.5,1278.16 A2.5,2.5 0 0 1 1482,1275.66 L1482,650.82 A2.5,2.5 0 0 1 1484.5,648.32 " fill="none" style="stroke:#000000;stroke-width:1.5;"/><line style="stroke:#000000;stroke-width:1.5;" x1="1482" x2="1539" y1="670.8083" y2="670.8083"/><text fill="#000000" font-family="sans-serif" font-size="14" font-weight="bold" lengthAdjust="spacing" textLength="44" x="1486" y="663.8552">Model</text></g><!--cluster JobOpeningAgg--><g id="cluster_JobOpeningAgg"><path d="M1508.5,691.32 L1622.5,691.32 A3.75,3.75 0 0 1 1625,693.82 L1632,713.8083 L2055.5,713.8083 A2.5,2.5 0 0 1 2058,716.3083 L2058,1251.66 A2.5,2.5 0 0 1 2055.5,1254.16 L1508.5,1254.16 A2.5,2.5 0 0 1 1506,1251.66 L1506,693.82 A2.5,2.5 0 0 1 1508.5,691.32 " fill="none" style="stroke:#000000;stroke-width:1.5;"/><line style="stroke:#000000;stroke-width:1.5;" x1="1506" x2="1632" y1="713.8083" y2="713.8083"/><text fill="#000000" font-family="sans-serif" font-size="14" font-weight="bold" lengthAdjust="spacing" textLength="113" x="1510" y="706.8552">JobOpeningAgg</text></g><!--cluster UI--><g id="cluster_UI"><path d="M1103.5,6 L1119.5,6 A3.75,3.75 0 0 1 1122,8.5 L1129,28.4883 L1348.5,28.4883 A2.5,2.5 0 0 1 1351,30.9883 L1351,151.96 A2.5,2.5 0 0 1 1348.5,154.46 L1103.5,154.46 A2.5,2.5 0 0 1 1101,151.96 L1101,8.5 A2.5,2.5 0 0 1 1103.5,6 " fill="none" style="stroke:#000000;stroke-width:1.5;"/><line style="stroke:#000000;stroke-width:1.5;" x1="1101" x2="1129" y1="28.4883" y2="28.4883"/><text fill="#000000" font-family="sans-serif" font-size="14" font-weight="bold" lengthAdjust="spacing" textLength="15" x="1105" y="21.5352">UI</text></g><!--class PhasesController--><g id="elem_PhasesController"><rect codeLine="3" fill="#F1F1F1" height="130.4414" id="PhasesController" rx="2.5" ry="2.5" style="stroke:#181818;stroke-width:0.5;" width="494" x="979" y="221.46"/><ellipse cx="1163.25" cy="237.46" fill="#ADD1B2" rx="11" ry="11" style="stroke:#181818;stroke-width:1.0;"/><path d="M1166.2231,243.1031 Q1165.6421,243.4019 1165.0029,243.5513 Q1164.3638,243.7007 1163.6582,243.7007 Q1161.1514,243.7007 1159.8315,242.0489 Q1158.5117,240.397 1158.5117,237.2759 Q1158.5117,234.1465 1159.8315,232.4947 Q1161.1514,230.8428 1163.6582,230.8428 Q1164.3638,230.8428 1165.0112,230.9922 Q1165.6587,231.1416 1166.2231,231.4405 L1166.2231,234.1631 Q1165.5923,233.5821 1164.9988,233.3123 Q1164.4053,233.0425 1163.7744,233.0425 Q1162.4297,233.0425 1161.7449,234.1092 Q1161.0601,235.1758 1161.0601,237.2759 Q1161.0601,239.3677 1161.7449,240.4344 Q1162.4297,241.501 1163.7744,241.501 Q1164.4053,241.501 1164.9988,241.2312 Q1165.5923,240.9615 1166.2231,240.3804 Z " fill="#000000"/><text fill="#000000" font-family="sans-serif" font-size="14" lengthAdjust="spacing" textLength="117" x="1183.75" y="242.751">PhasesController</text><line style="stroke:#181818;stroke-width:0.5;" x1="980" x2="1472" y1="253.46" y2="253.46"/><rect fill="none" height="6" style="stroke:#C82930;stroke-width:1.0;" width="6" x="987" y="264.2041"/><text fill="#000000" font-family="sans-serif" font-size="14" lengthAdjust="spacing" textLength="266" x="999" y="270.9952">validatorService: PhaseValidatorService</text><rect fill="none" height="6" style="stroke:#C82930;stroke-width:1.0;" width="6" x="987" y="280.6924"/><text fill="#000000" font-family="sans-serif" font-size="14" lengthAdjust="spacing" textLength="257" x="999" y="287.4834">jobRepository: JobOpeningRepository</text><rect fill="none" height="6" style="stroke:#C82930;stroke-width:1.0;" width="6" x="987" y="297.1807"/><text fill="#000000" font-family="sans-serif" font-size="14" lengthAdjust="spacing" textLength="275" x="999" y="303.9717">recruitmentProcess: RecruitmentProcess</text><line style="stroke:#181818;stroke-width:0.5;" x1="980" x2="1472" y1="310.9248" y2="310.9248"/><ellipse cx="990" cy="324.669" fill="#84BE84" rx="3" ry="3" style="stroke:#038048;stroke-width:1.0;"/><text fill="#000000" font-family="sans-serif" font-size="14" lengthAdjust="spacing" textLength="468" x="999" y="328.46">validateJobReference(jobReference: JobReference): Iterable &lt;String&gt;</text><rect fill="#F24D5C" height="6" style="stroke:#C82930;stroke-width:1.0;" width="6" x="987" y="338.1573"/><text fill="#000000" font-family="sans-serif" font-size="14" lengthAdjust="spacing" textLength="296" x="999" y="344.9483">validatePhaseTransition(): Iterable&lt;String&gt;</text></g><!--class PhaseValidatorService--><g id="elem_PhaseValidatorService"><rect codeLine="13" fill="#F1F1F1" height="163.418" id="PhaseValidatorService" rx="2.5" ry="2.5" style="stroke:#181818;stroke-width:0.5;" width="334" x="1059" y="435.91"/><ellipse cx="1146.75" cy="451.91" fill="#ADD1B2" rx="11" ry="11" style="stroke:#181818;stroke-width:1.0;"/><path d="M1149.7231,457.5531 Q1149.1421,457.8519 1148.5029,458.0013 Q1147.8638,458.1507 1147.1582,458.1507 Q1144.6514,458.1507 1143.3315,456.4989 Q1142.0117,454.847 1142.0117,451.7259 Q1142.0117,448.5965 1143.3315,446.9447 Q1144.6514,445.2928 1147.1582,445.2928 Q1147.8638,445.2928 1148.5112,445.4422 Q1149.1587,445.5916 1149.7231,445.8905 L1149.7231,448.6131 Q1149.0923,448.0321 1148.4988,447.7623 Q1147.9053,447.4925 1147.2744,447.4925 Q1145.9297,447.4925 1145.2449,448.5592 Q1144.5601,449.6258 1144.5601,451.7259 Q1144.5601,453.8177 1145.2449,454.8844 Q1145.9297,455.951 1147.2744,455.951 Q1147.9053,455.951 1148.4988,455.6812 Q1149.0923,455.4115 1149.7231,454.8304 Z " fill="#000000"/><text fill="#000000" font-family="sans-serif" font-size="14" lengthAdjust="spacing" textLength="150" x="1167.25" y="457.201">PhaseValidatorService</text><line style="stroke:#181818;stroke-width:0.5;" x1="1060" x2="1392" y1="467.91" y2="467.91"/><rect fill="none" height="6" style="stroke:#C82930;stroke-width:1.0;" width="6" x="1067" y="478.6541"/><text fill="#000000" font-family="sans-serif" font-size="14" lengthAdjust="spacing" textLength="308" x="1079" y="485.4452">applicationRepository: ApplicationRepository</text><rect fill="none" height="6" style="stroke:#C82930;stroke-width:1.0;" width="6" x="1067" y="495.1424"/><text fill="#000000" font-family="sans-serif" font-size="14" lengthAdjust="spacing" textLength="219" x="1079" y="501.9334">rankRepository: RankRepository</text><rect fill="none" height="6" style="stroke:#C82930;stroke-width:1.0;" width="6" x="1067" y="511.6307"/><text fill="#000000" font-family="sans-serif" font-size="14" lengthAdjust="spacing" textLength="275" x="1079" y="518.4217">recruitmentProcess: RecruitmentProcess</text><rect fill="none" height="6" style="stroke:#C82930;stroke-width:1.0;" width="6" x="1067" y="528.119"/><text fill="#000000" font-family="sans-serif" font-size="14" lengthAdjust="spacing" textLength="188" x="1079" y="534.91">jobReference: JobReference</text><line style="stroke:#181818;stroke-width:0.5;" x1="1060" x2="1392" y1="541.8631" y2="541.8631"/><ellipse cx="1070" cy="555.6073" fill="#84BE84" rx="3" ry="3" style="stroke:#038048;stroke-width:1.0;"/><text fill="#000000" font-family="sans-serif" font-size="14" lengthAdjust="spacing" textLength="296" x="1079" y="559.3983">validatePhaseTransition(): Iterable&lt;String&gt;</text><rect fill="#F24D5C" height="6" style="stroke:#C82930;stroke-width:1.0;" width="6" x="1067" y="569.0955"/><text fill="#000000" font-family="sans-serif" font-size="14" lengthAdjust="spacing" textLength="294" x="1079" y="575.8866">validatePhaseTransitionForward(): boolean</text><rect fill="#F24D5C" height="6" style="stroke:#C82930;stroke-width:1.0;" width="6" x="1067" y="585.5838"/><text fill="#000000" font-family="sans-serif" font-size="14" lengthAdjust="spacing" textLength="302" x="1079" y="592.3748">validatePhaseTransitionBackward(): boolean</text></g><!--class JobOpeningRepository--><g id="elem_JobOpeningRepository"><rect codeLine="25" fill="#F1F1F1" height="64.4883" id="JobOpeningRepository" rx="2.5" ry="2.5" style="stroke:#181818;stroke-width:0.5;" width="445" x="22.5" y="759.3"/><ellipse cx="163.75" cy="775.3" fill="#ADD1B2" rx="11" ry="11" style="stroke:#181818;stroke-width:1.0;"/><path d="M166.7231,780.9431 Q166.1421,781.2419 165.5029,781.3913 Q164.8638,781.5407 164.1582,781.5407 Q161.6514,781.5407 160.3315,779.8889 Q159.0117,778.237 159.0117,775.1159 Q159.0117,771.9865 160.3315,770.3347 Q161.6514,768.6828 164.1582,768.6828 Q164.8638,768.6828 165.5112,768.8322 Q166.1587,768.9816 166.7231,769.2805 L166.7231,772.0031 Q166.0923,771.4221 165.4988,771.1523 Q164.9053,770.8825 164.2744,770.8825 Q162.9297,770.8825 162.2449,771.9492 Q161.5601,773.0158 161.5601,775.1159 Q161.5601,777.2077 162.2449,778.2744 Q162.9297,779.341 164.2744,779.341 Q164.9053,779.341 165.4988,779.0712 Q166.0923,778.8015 166.7231,778.2204 Z " fill="#000000"/><text fill="#000000" font-family="sans-serif" font-size="14" lengthAdjust="spacing" textLength="154" x="184.25" y="780.591">JobOpeningRepository</text><line style="stroke:#181818;stroke-width:0.5;" x1="23.5" x2="466.5" y1="791.3" y2="791.3"/><line style="stroke:#181818;stroke-width:0.5;" x1="23.5" x2="466.5" y1="799.3" y2="799.3"/><ellipse cx="33.5" cy="813.0441" fill="#84BE84" rx="3" ry="3" style="stroke:#038048;stroke-width:1.0;"/><text fill="#000000" font-family="sans-serif" font-size="14" lengthAdjust="spacing" textLength="419" x="42.5" y="816.8352">findByJobReference(jobReference: JobReference): JobOpening</text></g><!--class ApplicationRepository--><g id="elem_ApplicationRepository"><rect codeLine="29" fill="#F1F1F1" height="113.9531" id="ApplicationRepository" rx="2.5" ry="2.5" style="stroke:#181818;stroke-width:0.5;" width="472" x="503" y="734.57"/><ellipse cx="659.25" cy="750.57" fill="#ADD1B2" rx="11" ry="11" style="stroke:#181818;stroke-width:1.0;"/><path d="M662.2231,756.2131 Q661.6421,756.5119 661.0029,756.6613 Q660.3638,756.8107 659.6582,756.8107 Q657.1514,756.8107 655.8315,755.1589 Q654.5117,753.507 654.5117,750.3859 Q654.5117,747.2565 655.8315,745.6047 Q657.1514,743.9528 659.6582,743.9528 Q660.3638,743.9528 661.0112,744.1022 Q661.6587,744.2516 662.2231,744.5505 L662.2231,747.2731 Q661.5923,746.6921 660.9988,746.4223 Q660.4053,746.1525 659.7744,746.1525 Q658.4297,746.1525 657.7449,747.2192 Q657.0601,748.2858 657.0601,750.3859 Q657.0601,752.4777 657.7449,753.5444 Q658.4297,754.611 659.7744,754.611 Q660.4053,754.611 660.9988,754.3412 Q661.5923,754.0715 662.2231,753.4904 Z " fill="#000000"/><text fill="#000000" font-family="sans-serif" font-size="14" lengthAdjust="spacing" textLength="151" x="679.75" y="755.861">ApplicationRepository</text><line style="stroke:#181818;stroke-width:0.5;" x1="504" x2="974" y1="766.57" y2="766.57"/><line style="stroke:#181818;stroke-width:0.5;" x1="504" x2="974" y1="774.57" y2="774.57"/><ellipse cx="514" cy="788.3141" fill="#84BE84" rx="3" ry="3" style="stroke:#038048;stroke-width:1.0;"/><text fill="#000000" font-family="sans-serif" font-size="14" lengthAdjust="spacing" textLength="446" x="523" y="792.1052">countApplicationByJobReference(jobReference: JobReference): int</text><ellipse cx="514" cy="804.8024" fill="#84BE84" rx="3" ry="3" style="stroke:#038048;stroke-width:1.0;"/><text fill="#000000" font-family="sans-serif" font-size="14" lengthAdjust="spacing" textLength="436" x="523" y="808.5934">countScreeningByJobReference(jobReference: JobReference): int</text><ellipse cx="514" cy="821.2907" fill="#84BE84" rx="3" ry="3" style="stroke:#038048;stroke-width:1.0;"/><text fill="#000000" font-family="sans-serif" font-size="14" lengthAdjust="spacing" textLength="437" x="523" y="825.0817">countInterviewsByJobReference(jobReference: JobReference): int</text><ellipse cx="514" cy="837.779" fill="#84BE84" rx="3" ry="3" style="stroke:#038048;stroke-width:1.0;"/><text fill="#000000" font-family="sans-serif" font-size="14" lengthAdjust="spacing" textLength="410" x="523" y="841.57">countResultByJobReference(jobReference: JobReference): int</text></g><!--class RankRepository--><g id="elem_RankRepository"><rect codeLine="36" fill="#F1F1F1" height="64.4883" id="RankRepository" rx="2.5" ry="2.5" style="stroke:#181818;stroke-width:0.5;" width="432" x="1010" y="759.3"/><ellipse cx="1168.25" cy="775.3" fill="#ADD1B2" rx="11" ry="11" style="stroke:#181818;stroke-width:1.0;"/><path d="M1171.2231,780.9431 Q1170.6421,781.2419 1170.0029,781.3913 Q1169.3638,781.5407 1168.6582,781.5407 Q1166.1514,781.5407 1164.8315,779.8889 Q1163.5117,778.237 1163.5117,775.1159 Q1163.5117,771.9865 1164.8315,770.3347 Q1166.1514,768.6828 1168.6582,768.6828 Q1169.3638,768.6828 1170.0112,768.8322 Q1170.6587,768.9816 1171.2231,769.2805 L1171.2231,772.0031 Q1170.5923,771.4221 1169.9988,771.1523 Q1169.4053,770.8825 1168.7744,770.8825 Q1167.4297,770.8825 1166.7449,771.9492 Q1166.0601,773.0158 1166.0601,775.1159 Q1166.0601,777.2077 1166.7449,778.2744 Q1167.4297,779.341 1168.7744,779.341 Q1169.4053,779.341 1169.9988,779.0712 Q1170.5923,778.8015 1171.2231,778.2204 Z " fill="#000000"/><text fill="#000000" font-family="sans-serif" font-size="14" lengthAdjust="spacing" textLength="107" x="1188.75" y="780.591">RankRepository</text><line style="stroke:#181818;stroke-width:0.5;" x1="1011" x2="1441" y1="791.3" y2="791.3"/><line style="stroke:#181818;stroke-width:0.5;" x1="1011" x2="1441" y1="799.3" y2="799.3"/><ellipse cx="1021" cy="813.0441" fill="#84BE84" rx="3" ry="3" style="stroke:#038048;stroke-width:1.0;"/><text fill="#000000" font-family="sans-serif" font-size="14" lengthAdjust="spacing" textLength="406" x="1030" y="816.8352">findRankByJobReference(jobReference: JobReference): Rank</text></g><!--class JobReference--><g id="elem_JobReference"><rect codeLine="45" fill="#F1F1F1" height="80.9766" id="JobReference" rx="2.5" ry="2.5" style="stroke:#181818;stroke-width:0.5;" width="175" x="1837.5" y="751.06"/><ellipse cx="1876.35" cy="767.06" fill="#ADD1B2" rx="11" ry="11" style="stroke:#181818;stroke-width:1.0;"/><path d="M1879.3231,772.7031 Q1878.7421,773.0019 1878.1029,773.1513 Q1877.4638,773.3007 1876.7582,773.3007 Q1874.2514,773.3007 1872.9315,771.6489 Q1871.6117,769.997 1871.6117,766.8759 Q1871.6117,763.7465 1872.9315,762.0947 Q1874.2514,760.4428 1876.7582,760.4428 Q1877.4638,760.4428 1878.1112,760.5922 Q1878.7587,760.7416 1879.3231,761.0405 L1879.3231,763.7631 Q1878.6923,763.1821 1878.0988,762.9123 Q1877.5053,762.6425 1876.8744,762.6425 Q1875.5297,762.6425 1874.8449,763.7092 Q1874.1601,764.7758 1874.1601,766.8759 Q1874.1601,768.9677 1874.8449,770.0344 Q1875.5297,771.101 1876.8744,771.101 Q1877.5053,771.101 1878.0988,770.8312 Q1878.6923,770.5615 1879.3231,769.9804 Z " fill="#000000"/><text fill="#000000" font-family="sans-serif" font-size="14" lengthAdjust="spacing" textLength="90" x="1895.65" y="772.351">JobReference</text><line style="stroke:#181818;stroke-width:0.5;" x1="1838.5" x2="2011.5" y1="783.06" y2="783.06"/><ellipse cx="1848.5" cy="796.8041" fill="none" rx="3" ry="3" style="stroke:#038048;stroke-width:1.0;"/><text fill="#000000" font-family="sans-serif" font-size="14" lengthAdjust="spacing" textLength="149" x="1857.5" y="800.5952">customerCode: String</text><ellipse cx="1848.5" cy="813.2924" fill="none" rx="3" ry="3" style="stroke:#038048;stroke-width:1.0;"/><text fill="#000000" font-family="sans-serif" font-size="14" lengthAdjust="spacing" textLength="103" x="1857.5" y="817.0834">jobNumber: int</text><line style="stroke:#181818;stroke-width:0.5;" x1="1838.5" x2="2011.5" y1="824.0366" y2="824.0366"/></g><!--class RecruitmentProcess--><g id="elem_RecruitmentProcess"><rect codeLine="50" fill="#F1F1F1" height="130.4414" id="RecruitmentProcess" rx="2.5" ry="2.5" style="stroke:#181818;stroke-width:0.5;" width="252" x="1550" y="726.32"/><ellipse cx="1604.25" cy="742.32" fill="#ADD1B2" rx="11" ry="11" style="stroke:#181818;stroke-width:1.0;"/><path d="M1607.2231,747.9631 Q1606.6421,748.2619 1606.0029,748.4113 Q1605.3638,748.5607 1604.6582,748.5607 Q1602.1514,748.5607 1600.8315,746.9089 Q1599.5117,745.257 1599.5117,742.1359 Q1599.5117,739.0065 1600.8315,737.3547 Q1602.1514,735.7028 1604.6582,735.7028 Q1605.3638,735.7028 1606.0112,735.8522 Q1606.6587,736.0016 1607.2231,736.3005 L1607.2231,739.0231 Q1606.5923,738.4421 1605.9988,738.1723 Q1605.4053,737.9025 1604.7744,737.9025 Q1603.4297,737.9025 1602.7449,738.9692 Q1602.0601,740.0358 1602.0601,742.1359 Q1602.0601,744.2277 1602.7449,745.2944 Q1603.4297,746.361 1604.7744,746.361 Q1605.4053,746.361 1605.9988,746.0912 Q1606.5923,745.8215 1607.2231,745.2404 Z " fill="#000000"/><text fill="#000000" font-family="sans-serif" font-size="14" lengthAdjust="spacing" textLength="135" x="1624.75" y="747.611">RecruitmentProcess</text><line style="stroke:#181818;stroke-width:0.5;" x1="1551" x2="1801" y1="758.32" y2="758.32"/><ellipse cx="1561" cy="772.0641" fill="none" rx="3" ry="3" style="stroke:#038048;stroke-width:1.0;"/><text fill="#000000" font-family="sans-serif" font-size="14" lengthAdjust="spacing" textLength="39" x="1570" y="775.8552">id: int</text><ellipse cx="1561" cy="788.5524" fill="none" rx="3" ry="3" style="stroke:#038048;stroke-width:1.0;"/><text fill="#000000" font-family="sans-serif" font-size="14" lengthAdjust="spacing" textLength="226" x="1570" y="792.3434">status: RecruitmentProcessStatus</text><ellipse cx="1561" cy="805.0407" fill="none" rx="3" ry="3" style="stroke:#038048;stroke-width:1.0;"/><text fill="#000000" font-family="sans-serif" font-size="14" lengthAdjust="spacing" textLength="141" x="1570" y="808.8317">phases: List&lt;Phase&gt;</text><line style="stroke:#181818;stroke-width:0.5;" x1="1551" x2="1801" y1="815.7848" y2="815.7848"/><ellipse cx="1561" cy="829.529" fill="#84BE84" rx="3" ry="3" style="stroke:#038048;stroke-width:1.0;"/><text fill="#000000" font-family="sans-serif" font-size="14" lengthAdjust="spacing" textLength="118" x="1570" y="833.32">nextPhase(): void</text><ellipse cx="1561" cy="846.0173" fill="#84BE84" rx="3" ry="3" style="stroke:#038048;stroke-width:1.0;"/><text fill="#000000" font-family="sans-serif" font-size="14" lengthAdjust="spacing" textLength="146" x="1570" y="849.8083">previousPhase(): void</text></g><!--class Phase--><g id="elem_Phase"><rect codeLine="58" fill="#F1F1F1" height="113.9531" id="Phase" rx="2.5" ry="2.5" style="stroke:#181818;stroke-width:0.5;" width="159" x="1611.5" y="933.77"/><ellipse cx="1666.75" cy="949.77" fill="#ADD1B2" rx="11" ry="11" style="stroke:#181818;stroke-width:1.0;"/><path d="M1669.7231,955.4131 Q1669.1421,955.7119 1668.5029,955.8613 Q1667.8638,956.0107 1667.1582,956.0107 Q1664.6514,956.0107 1663.3315,954.3589 Q1662.0117,952.707 1662.0117,949.5859 Q1662.0117,946.4565 1663.3315,944.8047 Q1664.6514,943.1528 1667.1582,943.1528 Q1667.8638,943.1528 1668.5112,943.3022 Q1669.1587,943.4516 1669.7231,943.7505 L1669.7231,946.4731 Q1669.0923,945.8921 1668.4988,945.6223 Q1667.9053,945.3525 1667.2744,945.3525 Q1665.9297,945.3525 1665.2449,946.4192 Q1664.5601,947.4858 1664.5601,949.5859 Q1664.5601,951.6777 1665.2449,952.7444 Q1665.9297,953.811 1667.2744,953.811 Q1667.9053,953.811 1668.4988,953.5412 Q1669.0923,953.2715 1669.7231,952.6904 Z " fill="#000000"/><text fill="#000000" font-family="sans-serif" font-size="14" lengthAdjust="spacing" textLength="40" x="1687.25" y="955.061">Phase</text><line style="stroke:#181818;stroke-width:0.5;" x1="1612.5" x2="1769.5" y1="965.77" y2="965.77"/><ellipse cx="1622.5" cy="979.5141" fill="none" rx="3" ry="3" style="stroke:#038048;stroke-width:1.0;"/><text fill="#000000" font-family="sans-serif" font-size="14" lengthAdjust="spacing" textLength="125" x="1631.5" y="983.3052">name: PhaseName</text><ellipse cx="1622.5" cy="996.0024" fill="none" rx="3" ry="3" style="stroke:#038048;stroke-width:1.0;"/><text fill="#000000" font-family="sans-serif" font-size="14" lengthAdjust="spacing" textLength="133" x="1631.5" y="999.7934">startDate: StartDate</text><ellipse cx="1622.5" cy="1012.4907" fill="none" rx="3" ry="3" style="stroke:#038048;stroke-width:1.0;"/><text fill="#000000" font-family="sans-serif" font-size="14" lengthAdjust="spacing" textLength="122" x="1631.5" y="1016.2817">endDate: EndDate</text><ellipse cx="1622.5" cy="1028.979" fill="none" rx="3" ry="3" style="stroke:#038048;stroke-width:1.0;"/><text fill="#000000" font-family="sans-serif" font-size="14" lengthAdjust="spacing" textLength="131" x="1631.5" y="1032.77">status: PhaseStatus</text><line style="stroke:#181818;stroke-width:0.5;" x1="1612.5" x2="1769.5" y1="1039.7231" y2="1039.7231"/></g><!--class PhaseName--><g id="elem_PhaseName"><rect codeLine="65" fill="#F1F1F1" height="130.4414" id="PhaseName" rx="2.5" ry="2.5" style="stroke:#181818;stroke-width:0.5;" width="111" x="1522.5" y="1107.72"/><ellipse cx="1537.5" cy="1123.72" fill="#EB937F" rx="11" ry="11" style="stroke:#181818;stroke-width:1.0;"/><path d="M1541.6143,1129.72 L1533.8945,1129.72 L1533.8945,1117.3269 L1541.6143,1117.3269 L1541.6143,1119.4851 L1536.3433,1119.4851 L1536.3433,1122.158 L1541.1162,1122.158 L1541.1162,1124.3162 L1536.3433,1124.3162 L1536.3433,1127.5618 L1541.6143,1127.5618 Z " fill="#000000"/><text fill="#000000" font-family="sans-serif" font-size="14" lengthAdjust="spacing" textLength="79" x="1551.5" y="1129.011">PhaseName</text><line style="stroke:#181818;stroke-width:0.5;" x1="1523.5" x2="1632.5" y1="1139.72" y2="1139.72"/><text fill="#000000" font-family="sans-serif" font-size="14" lengthAdjust="spacing" textLength="95" x="1528.5" y="1157.2552">APPLICATION,</text><text fill="#000000" font-family="sans-serif" font-size="14" lengthAdjust="spacing" textLength="81" x="1528.5" y="1173.7434">SCREENING,</text><text fill="#000000" font-family="sans-serif" font-size="14" lengthAdjust="spacing" textLength="85" x="1528.5" y="1190.2317">INTERVIEWS,</text><text fill="#000000" font-family="sans-serif" font-size="14" lengthAdjust="spacing" textLength="70" x="1528.5" y="1206.72">ANALYSIS,</text><text fill="#000000" font-family="sans-serif" font-size="14" lengthAdjust="spacing" textLength="51" x="1528.5" y="1223.2083">RESULT</text><line style="stroke:#181818;stroke-width:0.5;" x1="1523.5" x2="1632.5" y1="1230.1614" y2="1230.1614"/></g><!--class StartDate--><g id="elem_StartDate"><rect codeLine="73" fill="#F1F1F1" height="64.4883" id="StartDate" rx="2.5" ry="2.5" style="stroke:#181818;stroke-width:0.5;" width="95" x="1668.5" y="1140.7"/><ellipse cx="1683.5" cy="1156.7" fill="#ADD1B2" rx="11" ry="11" style="stroke:#181818;stroke-width:1.0;"/><path d="M1686.4731,1162.3431 Q1685.8921,1162.6419 1685.2529,1162.7913 Q1684.6138,1162.9407 1683.9082,1162.9407 Q1681.4014,1162.9407 1680.0815,1161.2889 Q1678.7617,1159.637 1678.7617,1156.5159 Q1678.7617,1153.3865 1680.0815,1151.7347 Q1681.4014,1150.0828 1683.9082,1150.0828 Q1684.6138,1150.0828 1685.2612,1150.2322 Q1685.9087,1150.3816 1686.4731,1150.6805 L1686.4731,1153.4031 Q1685.8423,1152.8221 1685.2488,1152.5523 Q1684.6553,1152.2825 1684.0244,1152.2825 Q1682.6797,1152.2825 1681.9949,1153.3492 Q1681.3101,1154.4158 1681.3101,1156.5159 Q1681.3101,1158.6077 1681.9949,1159.6744 Q1682.6797,1160.741 1684.0244,1160.741 Q1684.6553,1160.741 1685.2488,1160.4712 Q1685.8423,1160.2015 1686.4731,1159.6204 Z " fill="#000000"/><text fill="#000000" font-family="sans-serif" font-size="14" lengthAdjust="spacing" textLength="63" x="1697.5" y="1161.991">StartDate</text><line style="stroke:#181818;stroke-width:0.5;" x1="1669.5" x2="1762.5" y1="1172.7" y2="1172.7"/><ellipse cx="1679.5" cy="1186.4441" fill="none" rx="3" ry="3" style="stroke:#038048;stroke-width:1.0;"/><text fill="#000000" font-family="sans-serif" font-size="14" lengthAdjust="spacing" textLength="69" x="1688.5" y="1190.2352">date: Date</text><line style="stroke:#181818;stroke-width:0.5;" x1="1669.5" x2="1762.5" y1="1197.1883" y2="1197.1883"/></g><!--class EndDate--><g id="elem_EndDate"><rect codeLine="77" fill="#F1F1F1" height="64.4883" id="EndDate" rx="2.5" ry="2.5" style="stroke:#181818;stroke-width:0.5;" width="95" x="1798.5" y="1140.7"/><ellipse cx="1816.2" cy="1156.7" fill="#ADD1B2" rx="11" ry="11" style="stroke:#181818;stroke-width:1.0;"/><path d="M1819.1731,1162.3431 Q1818.5921,1162.6419 1817.9529,1162.7913 Q1817.3138,1162.9407 1816.6082,1162.9407 Q1814.1014,1162.9407 1812.7815,1161.2889 Q1811.4617,1159.637 1811.4617,1156.5159 Q1811.4617,1153.3865 1812.7815,1151.7347 Q1814.1014,1150.0828 1816.6082,1150.0828 Q1817.3138,1150.0828 1817.9612,1150.2322 Q1818.6087,1150.3816 1819.1731,1150.6805 L1819.1731,1153.4031 Q1818.5423,1152.8221 1817.9488,1152.5523 Q1817.3553,1152.2825 1816.7244,1152.2825 Q1815.3797,1152.2825 1814.6949,1153.3492 Q1814.0101,1154.4158 1814.0101,1156.5159 Q1814.0101,1158.6077 1814.6949,1159.6744 Q1815.3797,1160.741 1816.7244,1160.741 Q1817.3553,1160.741 1817.9488,1160.4712 Q1818.5423,1160.2015 1819.1731,1159.6204 Z " fill="#000000"/><text fill="#000000" font-family="sans-serif" font-size="14" lengthAdjust="spacing" textLength="57" x="1830.8" y="1161.991">EndDate</text><line style="stroke:#181818;stroke-width:0.5;" x1="1799.5" x2="1892.5" y1="1172.7" y2="1172.7"/><ellipse cx="1809.5" cy="1186.4441" fill="none" rx="3" ry="3" style="stroke:#038048;stroke-width:1.0;"/><text fill="#000000" font-family="sans-serif" font-size="14" lengthAdjust="spacing" textLength="69" x="1818.5" y="1190.2352">date: Date</text><line style="stroke:#181818;stroke-width:0.5;" x1="1799.5" x2="1892.5" y1="1197.1883" y2="1197.1883"/></g><!--class PhaseStatus--><g id="elem_PhaseStatus"><rect codeLine="81" fill="#F1F1F1" height="80.9766" id="PhaseStatus" rx="2.5" ry="2.5" style="stroke:#181818;stroke-width:0.5;" width="114" x="1928" y="1132.45"/><ellipse cx="1943" cy="1148.45" fill="#EB937F" rx="11" ry="11" style="stroke:#181818;stroke-width:1.0;"/><path d="M1947.1143,1154.45 L1939.3945,1154.45 L1939.3945,1142.0569 L1947.1143,1142.0569 L1947.1143,1144.2151 L1941.8433,1144.2151 L1941.8433,1146.888 L1946.6162,1146.888 L1946.6162,1149.0462 L1941.8433,1149.0462 L1941.8433,1152.2918 L1947.1143,1152.2918 Z " fill="#000000"/><text fill="#000000" font-family="sans-serif" font-size="14" lengthAdjust="spacing" textLength="82" x="1957" y="1153.741">PhaseStatus</text><line style="stroke:#181818;stroke-width:0.5;" x1="1929" x2="2041" y1="1164.45" y2="1164.45"/><text fill="#000000" font-family="sans-serif" font-size="14" lengthAdjust="spacing" textLength="41" x="1934" y="1181.9852">Open,</text><text fill="#000000" font-family="sans-serif" font-size="14" lengthAdjust="spacing" textLength="47" x="1934" y="1198.4734">Closed</text><line style="stroke:#181818;stroke-width:0.5;" x1="1929" x2="2041" y1="1205.4266" y2="1205.4266"/></g><!--class RecruitmentProcessStatus--><g id="elem_RecruitmentProcessStatus"><rect codeLine="86" fill="#F1F1F1" height="97.4648" id="RecruitmentProcessStatus" rx="2.5" ry="2.5" style="stroke:#181818;stroke-width:0.5;" width="209" x="1805.5" y="942.01"/><ellipse cx="1820.5" cy="958.01" fill="#EB937F" rx="11" ry="11" style="stroke:#181818;stroke-width:1.0;"/><path d="M1824.6143,964.01 L1816.8945,964.01 L1816.8945,951.6169 L1824.6143,951.6169 L1824.6143,953.7751 L1819.3433,953.7751 L1819.3433,956.448 L1824.1162,956.448 L1824.1162,958.6062 L1819.3433,958.6062 L1819.3433,961.8518 L1824.6143,961.8518 Z " fill="#000000"/><text fill="#000000" font-family="sans-serif" font-size="14" lengthAdjust="spacing" textLength="177" x="1834.5" y="963.301">RecruitmentProcessStatus</text><line style="stroke:#181818;stroke-width:0.5;" x1="1806.5" x2="2013.5" y1="974.01" y2="974.01"/><text fill="#000000" font-family="sans-serif" font-size="14" lengthAdjust="spacing" textLength="79" x="1811.5" y="991.5452">Uninitiated,</text><text fill="#000000" font-family="sans-serif" font-size="14" lengthAdjust="spacing" textLength="69" x="1811.5" y="1008.0334">InProcess,</text><text fill="#000000" font-family="sans-serif" font-size="14" lengthAdjust="spacing" textLength="58" x="1811.5" y="1024.5217">Finished</text><line style="stroke:#181818;stroke-width:0.5;" x1="1806.5" x2="2013.5" y1="1031.4748" y2="1031.4748"/></g><!--class PhasesUI--><g id="elem_PhasesUI"><rect codeLine="95" fill="#F1F1F1" height="97.4648" id="PhasesUI" rx="2.5" ry="2.5" style="stroke:#181818;stroke-width:0.5;" width="218" x="1117" y="41"/><ellipse cx="1191.25" cy="57" fill="#ADD1B2" rx="11" ry="11" style="stroke:#181818;stroke-width:1.0;"/><path d="M1194.2231,62.6431 Q1193.6421,62.9419 1193.0029,63.0913 Q1192.3638,63.2407 1191.6582,63.2407 Q1189.1514,63.2407 1187.8315,61.5889 Q1186.5117,59.937 1186.5117,56.8159 Q1186.5117,53.6865 1187.8315,52.0347 Q1189.1514,50.3828 1191.6582,50.3828 Q1192.3638,50.3828 1193.0112,50.5322 Q1193.6587,50.6816 1194.2231,50.9805 L1194.2231,53.7031 Q1193.5923,53.1221 1192.9988,52.8523 Q1192.4053,52.5825 1191.7744,52.5825 Q1190.4297,52.5825 1189.7449,53.6492 Q1189.0601,54.7158 1189.0601,56.8159 Q1189.0601,58.9077 1189.7449,59.9744 Q1190.4297,61.041 1191.7744,61.041 Q1192.4053,61.041 1192.9988,60.7712 Q1193.5923,60.5015 1194.2231,59.9204 Z " fill="#000000"/><text fill="#000000" font-family="sans-serif" font-size="14" lengthAdjust="spacing" textLength="61" x="1211.75" y="62.291">PhasesUI</text><line style="stroke:#181818;stroke-width:0.5;" x1="1118" x2="1334" y1="73" y2="73"/><rect fill="none" height="6" style="stroke:#C82930;stroke-width:1.0;" width="6" x="1125" y="83.7441"/><text fill="#000000" font-family="sans-serif" font-size="14" lengthAdjust="spacing" textLength="192" x="1137" y="90.5352">controller: PhasesController</text><line style="stroke:#181818;stroke-width:0.5;" x1="1118" x2="1334" y1="97.4883" y2="97.4883"/><ellipse cx="1128" cy="111.2324" fill="#84BE84" rx="3" ry="3" style="stroke:#038048;stroke-width:1.0;"/><text fill="#000000" font-family="sans-serif" font-size="14" lengthAdjust="spacing" textLength="129" x="1137" y="115.0234">doShow(): boolean</text><ellipse cx="1128" cy="127.7207" fill="#84BE84" rx="3" ry="3" style="stroke:#038048;stroke-width:1.0;"/><text fill="#000000" font-family="sans-serif" font-size="14" lengthAdjust="spacing" textLength="118" x="1137" y="131.5117">headline(): String</text></g><!--link PhasesController to PhaseValidatorService--><g id="link_PhasesController_PhaseValidatorService"><path codeLine="102" d="M1226,352.37 C1226,378.28 1226,402.43 1226,429.76 " fill="none" id="PhasesController-to-PhaseValidatorService" style="stroke:#181818;stroke-width:1.0;"/><polygon fill="#181818" points="1226,435.76,1230,426.76,1226,430.76,1222,426.76,1226,435.76" style="stroke:#181818;stroke-width:1.0;"/></g><!--link PhasesController to JobOpeningRepository--><g id="link_PhasesController_JobOpeningRepository"><path codeLine="103" d="M1077.28,352.38 C925.84,419.66 685.48,530.35 485,640.32 C416.04,678.15 344.5313,724.0554 296.8513,755.6554 " fill="none" id="PhasesController-to-JobOpeningRepository" style="stroke:#181818;stroke-width:1.0;"/><polygon fill="#181818" points="291.85,758.97,301.5617,757.3323,296.0178,756.2078,297.1422,750.6638,291.85,758.97" style="stroke:#181818;stroke-width:1.0;"/></g><!--link PhasesController to JobReference--><g id="link_PhasesController_JobReference"><path codeLine="104" d="M1372.29,352.33 C1500.23,413.74 1686.02,515.17 1820,640.32 C1854.65,672.69 1881.506,713.0878 1900.436,745.5278 " fill="none" id="PhasesController-to-JobReference" style="stroke:#181818;stroke-width:1.0;stroke-dasharray:7.0,7.0;"/><polygon fill="#181818" points="1903.46,750.71,1902.3788,740.9207,1900.94,746.3915,1895.4692,744.9527,1903.46,750.71" style="stroke:#181818;stroke-width:1.0;"/></g><!--link PhaseValidatorService to ApplicationRepository--><g id="link_PhaseValidatorService_ApplicationRepository"><path codeLine="105" d="M1067.79,599.82 C1042.65,613.14 1017.03,626.96 993,640.32 C938.94,670.4 884.5148,702.4427 836.6548,731.1627 " fill="none" id="PhaseValidatorService-to-ApplicationRepository" style="stroke:#181818;stroke-width:1.0;"/><polygon fill="#181818" points="831.51,734.25,841.2853,733.0489,835.7973,731.6773,837.169,726.1892,831.51,734.25" style="stroke:#181818;stroke-width:1.0;"/></g><!--link PhaseValidatorService to RecruitmentProcess--><g id="link_PhaseValidatorService_RecruitmentProcess"><path codeLine="106" d="M1386.83,599.77 C1410.95,612.86 1435.32,626.63 1458,640.32 C1501.67,666.7 1543.5569,694.9818 1582.5469,722.4818 " fill="none" id="PhaseValidatorService-to-RecruitmentProcess" style="stroke:#181818;stroke-width:1.0;stroke-dasharray:7.0,7.0;"/><polygon fill="#181818" points="1587.45,725.94,1582.4008,717.4839,1583.3641,723.0581,1577.7898,724.0214,1587.45,725.94" style="stroke:#181818;stroke-width:1.0;"/></g><!--link PhaseValidatorService to RankRepository--><g id="link_PhaseValidatorService_RankRepository"><path codeLine="107" d="M1226,599.47 C1226,653.01 1226,714.28 1226,753.05 " fill="none" id="PhaseValidatorService-to-RankRepository" style="stroke:#181818;stroke-width:1.0;"/><polygon fill="#181818" points="1226,759.05,1230,750.05,1226,754.05,1222,750.05,1226,759.05" style="stroke:#181818;stroke-width:1.0;"/></g><!--link RecruitmentProcess to Phase--><g id="link_RecruitmentProcess_Phase"><path codeLine="108" d="M1680.91,857.11 C1682.78,881.71 1684.4448,903.5473 1686.2548,927.3373 " fill="none" id="RecruitmentProcess-to-Phase" style="stroke:#181818;stroke-width:1.0;"/><polygon fill="#181818" points="1686.71,933.32,1690.0157,924.0425,1686.3307,928.3344,1682.0388,924.6494,1686.71,933.32" style="stroke:#181818;stroke-width:1.0;"/><text fill="#000000" font-family="sans-serif" font-size="13" lengthAdjust="spacing" textLength="22" x="1685" y="900.3384">has</text></g><!--link Phase to PhaseName--><g id="link_Phase_PhaseName"><path codeLine="109" d="M1655.87,1047.77 C1644.01,1066.68 1633.8668,1082.8463 1621.6368,1102.3563 " fill="none" id="Phase-to-PhaseName" style="stroke:#181818;stroke-width:1.0;"/><polygon fill="#181818" points="1618.45,1107.44,1626.6193,1101.9389,1621.1057,1103.2035,1619.841,1097.6899,1618.45,1107.44" style="stroke:#181818;stroke-width:1.0;"/></g><!--link Phase to StartDate--><g id="link_Phase_StartDate"><path codeLine="110" d="M1698.77,1047.77 C1703,1078.25 1707.2559,1108.8869 1710.7959,1134.4169 " fill="none" id="Phase-to-StartDate" style="stroke:#181818;stroke-width:1.0;"/><polygon fill="#181818" points="1711.62,1140.36,1714.346,1130.8959,1710.9333,1135.4074,1706.4218,1131.9947,1711.62,1140.36" style="stroke:#181818;stroke-width:1.0;"/></g><!--link Phase to EndDate--><g id="link_Phase_EndDate"><path codeLine="111" d="M1739.19,1047.77 C1765.41,1078.25 1792.9573,1110.2813 1814.9173,1135.8113 " fill="none" id="Phase-to-EndDate" style="stroke:#181818;stroke-width:1.0;"/><polygon fill="#181818" points="1818.83,1140.36,1815.9935,1130.9284,1815.5694,1136.5694,1809.9285,1136.1453,1818.83,1140.36" style="stroke:#181818;stroke-width:1.0;"/></g><!--link Phase to PhaseStatus--><g id="link_Phase_PhaseStatus"><path codeLine="112" d="M1770.95,1038.46 C1776.69,1041.64 1782.42,1044.75 1788,1047.72 C1841.71,1076.27 1860.27,1074.17 1911,1107.72 C1921.93,1114.94 1928.4043,1119.7372 1938.5143,1128.3572 " fill="none" id="Phase-to-PhaseStatus" style="stroke:#181818;stroke-width:1.0;"/><polygon fill="#181818" points="1943.08,1132.25,1938.8266,1123.3669,1939.2752,1129.006,1933.6362,1129.4546,1943.08,1132.25" style="stroke:#181818;stroke-width:1.0;"/></g><!--link RecruitmentProcess to RecruitmentProcessStatus--><g id="link_RecruitmentProcess_RecruitmentProcessStatus"><path codeLine="113" d="M1752.62,857.11 C1785.28,884.63 1818.1322,912.3232 1848.2922,937.7432 " fill="none" id="RecruitmentProcess-to-RecruitmentProcessStatus" style="stroke:#181818;stroke-width:1.0;"/><polygon fill="#181818" points="1852.88,941.61,1848.5761,932.7513,1849.0568,938.3877,1843.4204,938.8684,1852.88,941.61" style="stroke:#181818;stroke-width:1.0;"/></g><!--link PhasesUI to PhasesController--><g id="link_PhasesUI_PhasesController"><path codeLine="115" d="M1226,138.92 C1226,163.73 1226,188.31 1226,215.13 " fill="none" id="PhasesUI-to-PhasesController" style="stroke:#181818;stroke-width:1.0;"/><polygon fill="#181818" points="1226,221.13,1230,212.13,1226,216.13,1222,212.13,1226,221.13" style="stroke:#181818;stroke-width:1.0;"/></g><!--SRC=[fLRRRjim37tFLmXzwj2r7s0K0T8i7LnaRc2d7VQes6oYrf4CIKvN3FttoR9Zw-Qjbxp4vkMGF29bLZX_mbj0SqObPsK97FsP8FNBIom4Mksm0E4fczyvEk2I55WodW4_a1oYrlpU4HiUZsoJGiK4KTgN2DsmpMq5bD3j83MiEUIy9d8FLAuuoq682AMUh7SuEoO4DqsO1-10SpXzD5vqoFxjIuHY2HnlIa2NcUGgZwbV7kYYrXnJbI1XzDHmixnU9w-JITNnsTNka-coOp6AgweaEMx2c3pDGcAJA4oVJFlKUlyuezs11SaBqFvMelv9xpNZpvWNZVE6iH8m_R_FbI8zv6ITo428TIYX7ZJEv0mz45fSlRozfGR0BWSZMF0WhMWvgwaqpDuJcL3f8cKv1vtB9t5YAfjsXMVnIQ0KH5tAZu1OHDeTxfrNetvFZCRUxvWVh81IOMlDKJWSxsoxFIgjTkg1ZRGw1ceXsHxuN057g1q9nqIbcTJx3N2RlLStZZ-rRZHIs11QA2IMTN3eCwsnhIjz-qTeIOIyr3CtTTAby5jgHJDw1qOAHrznE11MYx2DLvKsSmkXU7_yj2JgqIk8os_gIcZux1vj2w15gr-q3s52DBp3WP4Uq7e_fE1aE5kjbl5yjevlaw-M8fkdYqKI9zzjSPoi5-bzlFYPsV9PCbl-oc97cYwok-LwdBE-R9UtGbTjbUmvTvoyptKWeoNCyMx6movXNZ81nIZKM3Cwk7TgwDHrhv8g73vfvsQBhvMvs5bnlH6_YmFhJYziFpfvl_r4tZvat3i5otRiEVJTEaCxm4L9g9u0O-nrAjwATNu-7LcaWgR19SgplBYOsf_ly3BI08QtZR1z0njO8CR1dTKaS8trvQC8dQZ_anPjaEjBO90DOp_8ZgFkU7RpFH9qz4wSz6tH8vajy1S0]--></g></svg>