<?xml version="1.0" encoding="us-ascii" standalone="no"?><svg xmlns="http://www.w3.org/2000/svg" xmlns:xlink="http://www.w3.org/1999/xlink" contentStyleType="text/css" height="1004px" preserveAspectRatio="none" style="width:2186px;height:1004px;background:#FFFFFF;" version="1.1" viewBox="0 0 2186 1004" width="2186px" zoomAndPan="magnify"><defs/><g><!--cluster Controller--><g id="cluster_Controller"><path d="M1106.5,6 L1180.5,6 A3.75,3.75 0 0 1 1183,8.5 L1190,28.4883 L1563.5,28.4883 A2.5,2.5 0 0 1 1566,30.9883 L1566,184.94 A2.5,2.5 0 0 1 1563.5,187.44 L1106.5,187.44 A2.5,2.5 0 0 1 1104,184.94 L1104,8.5 A2.5,2.5 0 0 1 1106.5,6 " fill="none" style="stroke:#000000;stroke-width:1.5;"/><line style="stroke:#000000;stroke-width:1.5;" x1="1104" x2="1190" y1="28.4883" y2="28.4883"/><text fill="#000000" font-family="sans-serif" font-size="14" font-weight="bold" lengthAdjust="spacing" textLength="73" x="1108" y="21.5352">Controller</text></g><!--cluster Service--><g id="cluster_Service"><path d="M868.5,220.44 L919.5,220.44 A3.75,3.75 0 0 1 922,222.94 L929,242.9283 L1229.5,242.9283 A2.5,2.5 0 0 1 1232,245.4283 L1232,399.38 A2.5,2.5 0 0 1 1229.5,401.88 L868.5,401.88 A2.5,2.5 0 0 1 866,399.38 L866,222.94 A2.5,2.5 0 0 1 868.5,220.44 " fill="none" style="stroke:#000000;stroke-width:1.5;"/><line style="stroke:#000000;stroke-width:1.5;" x1="866" x2="929" y1="242.9283" y2="242.9283"/><text fill="#000000" font-family="sans-serif" font-size="14" font-weight="bold" lengthAdjust="spacing" textLength="50" x="870" y="235.9752">Service</text></g><!--cluster Repository--><g id="cluster_Repository"><path d="M584.5,443.13 L663.5,443.13 A3.75,3.75 0 0 1 666,445.63 L673,465.6183 L2176.5,465.6183 A2.5,2.5 0 0 1 2179,468.1183 L2179,605.58 A2.5,2.5 0 0 1 2176.5,608.08 L584.5,608.08 A2.5,2.5 0 0 1 582,605.58 L582,445.63 A2.5,2.5 0 0 1 584.5,443.13 " fill="none" style="stroke:#000000;stroke-width:1.5;"/><line style="stroke:#000000;stroke-width:1.5;" x1="582" x2="673" y1="465.6183" y2="465.6183"/><text fill="#000000" font-family="sans-serif" font-size="14" font-weight="bold" lengthAdjust="spacing" textLength="78" x="586" y="458.6652">Repository</text></g><!--cluster Model--><g id="cluster_Model"><path d="M8.5,434.88 L53.5,434.88 A3.75,3.75 0 0 1 56,437.38 L63,457.3683 L555.5,457.3683 A2.5,2.5 0 0 1 558,459.8683 L558,995.22 A2.5,2.5 0 0 1 555.5,997.72 L8.5,997.72 A2.5,2.5 0 0 1 6,995.22 L6,437.38 A2.5,2.5 0 0 1 8.5,434.88 " fill="none" style="stroke:#000000;stroke-width:1.5;"/><line style="stroke:#000000;stroke-width:1.5;" x1="6" x2="63" y1="457.3683" y2="457.3683"/><text fill="#000000" font-family="sans-serif" font-size="14" font-weight="bold" lengthAdjust="spacing" textLength="44" x="10" y="450.4152">Model</text></g><!--class PhasesController--><g id="elem_PhasesController"><rect codeLine="3" fill="#F1F1F1" height="130.4414" id="PhasesController" rx="2.5" ry="2.5" style="stroke:#181818;stroke-width:0.5;" width="431" x="1119.5" y="41"/><ellipse cx="1272.25" cy="57" fill="#ADD1B2" rx="11" ry="11" style="stroke:#181818;stroke-width:1.0;"/><path d="M1275.2231,62.6431 Q1274.6421,62.9419 1274.0029,63.0913 Q1273.3638,63.2407 1272.6582,63.2407 Q1270.1514,63.2407 1268.8315,61.5889 Q1267.5117,59.937 1267.5117,56.8159 Q1267.5117,53.6865 1268.8315,52.0347 Q1270.1514,50.3828 1272.6582,50.3828 Q1273.3638,50.3828 1274.0112,50.5322 Q1274.6587,50.6816 1275.2231,50.9805 L1275.2231,53.7031 Q1274.5923,53.1221 1273.9988,52.8523 Q1273.4053,52.5825 1272.7744,52.5825 Q1271.4297,52.5825 1270.7449,53.6492 Q1270.0601,54.7158 1270.0601,56.8159 Q1270.0601,58.9077 1270.7449,59.9744 Q1271.4297,61.041 1272.7744,61.041 Q1273.4053,61.041 1273.9988,60.7712 Q1274.5923,60.5015 1275.2231,59.9204 Z " fill="#000000"/><text fill="#000000" font-family="sans-serif" font-size="14" lengthAdjust="spacing" textLength="117" x="1292.75" y="62.291">PhasesController</text><line style="stroke:#181818;stroke-width:0.5;" x1="1120.5" x2="1549.5" y1="73" y2="73"/><rect fill="none" height="6" style="stroke:#C82930;stroke-width:1.0;" width="6" x="1127.5" y="83.7441"/><text fill="#000000" font-family="sans-serif" font-size="14" lengthAdjust="spacing" textLength="266" x="1139.5" y="90.5352">validatorService: PhaseValidatorService</text><rect fill="none" height="6" style="stroke:#C82930;stroke-width:1.0;" width="6" x="1127.5" y="100.2324"/><text fill="#000000" font-family="sans-serif" font-size="14" lengthAdjust="spacing" textLength="257" x="1139.5" y="107.0234">jobRepository: JobOpeningRepository</text><rect fill="none" height="6" style="stroke:#C82930;stroke-width:1.0;" width="6" x="1127.5" y="116.7207"/><text fill="#000000" font-family="sans-serif" font-size="14" lengthAdjust="spacing" textLength="275" x="1139.5" y="123.5117">recruitmentProcess: RecruitmentProcess</text><line style="stroke:#181818;stroke-width:0.5;" x1="1120.5" x2="1549.5" y1="130.4648" y2="130.4648"/><ellipse cx="1130.5" cy="144.209" fill="#84BE84" rx="3" ry="3" style="stroke:#038048;stroke-width:1.0;"/><text fill="#000000" font-family="sans-serif" font-size="14" lengthAdjust="spacing" textLength="405" x="1139.5" y="148">validateJobReference(jobReference: JobReference): boolean</text><ellipse cx="1130.5" cy="160.6973" fill="#84BE84" rx="3" ry="3" style="stroke:#038048;stroke-width:1.0;"/><text fill="#000000" font-family="sans-serif" font-size="14" lengthAdjust="spacing" textLength="296" x="1139.5" y="164.4883">validatePhaseTransition(): Iterable&lt;String&gt;</text></g><!--class PhaseValidatorService--><g id="elem_PhaseValidatorService"><rect codeLine="13" fill="#F1F1F1" height="130.4414" id="PhaseValidatorService" rx="2.5" ry="2.5" style="stroke:#181818;stroke-width:0.5;" width="334" x="882" y="255.44"/><ellipse cx="969.75" cy="271.44" fill="#ADD1B2" rx="11" ry="11" style="stroke:#181818;stroke-width:1.0;"/><path d="M972.7231,277.0831 Q972.1421,277.3819 971.5029,277.5313 Q970.8638,277.6807 970.1582,277.6807 Q967.6514,277.6807 966.3315,276.0289 Q965.0117,274.377 965.0117,271.2559 Q965.0117,268.1265 966.3315,266.4747 Q967.6514,264.8228 970.1582,264.8228 Q970.8638,264.8228 971.5112,264.9722 Q972.1587,265.1216 972.7231,265.4205 L972.7231,268.1431 Q972.0923,267.5621 971.4988,267.2923 Q970.9053,267.0225 970.2744,267.0225 Q968.9297,267.0225 968.2449,268.0892 Q967.5601,269.1558 967.5601,271.2559 Q967.5601,273.3477 968.2449,274.4144 Q968.9297,275.481 970.2744,275.481 Q970.9053,275.481 971.4988,275.2112 Q972.0923,274.9415 972.7231,274.3604 Z " fill="#000000"/><text fill="#000000" font-family="sans-serif" font-size="14" lengthAdjust="spacing" textLength="150" x="990.25" y="276.731">PhaseValidatorService</text><line style="stroke:#181818;stroke-width:0.5;" x1="883" x2="1215" y1="287.44" y2="287.44"/><rect fill="none" height="6" style="stroke:#C82930;stroke-width:1.0;" width="6" x="890" y="298.1841"/><text fill="#000000" font-family="sans-serif" font-size="14" lengthAdjust="spacing" textLength="308" x="902" y="304.9752">applicationRepository: ApplicationRepository</text><rect fill="none" height="6" style="stroke:#C82930;stroke-width:1.0;" width="6" x="890" y="314.6724"/><text fill="#000000" font-family="sans-serif" font-size="14" lengthAdjust="spacing" textLength="219" x="902" y="321.4634">rankRepository: RankRepository</text><line style="stroke:#181818;stroke-width:0.5;" x1="883" x2="1215" y1="328.4166" y2="328.4166"/><ellipse cx="893" cy="342.1607" fill="#84BE84" rx="3" ry="3" style="stroke:#038048;stroke-width:1.0;"/><text fill="#000000" font-family="sans-serif" font-size="14" lengthAdjust="spacing" textLength="296" x="902" y="345.9517">validatePhaseTransition(): Iterable&lt;String&gt;</text><rect fill="#F24D5C" height="6" style="stroke:#C82930;stroke-width:1.0;" width="6" x="890" y="355.649"/><text fill="#000000" font-family="sans-serif" font-size="14" lengthAdjust="spacing" textLength="294" x="902" y="362.44">validatePhaseTransitionForward(): boolean</text><rect fill="#F24D5C" height="6" style="stroke:#C82930;stroke-width:1.0;" width="6" x="890" y="372.1373"/><text fill="#000000" font-family="sans-serif" font-size="14" lengthAdjust="spacing" textLength="302" x="902" y="378.9283">validatePhaseTransitionBackward(): boolean</text></g><!--class JobOpeningRepository--><g id="elem_JobOpeningRepository"><rect codeLine="23" fill="#F1F1F1" height="64.4883" id="JobOpeningRepository" rx="2.5" ry="2.5" style="stroke:#181818;stroke-width:0.5;" width="526" x="1637" y="502.86"/><ellipse cx="1818.75" cy="518.86" fill="#ADD1B2" rx="11" ry="11" style="stroke:#181818;stroke-width:1.0;"/><path d="M1821.7231,524.5031 Q1821.1421,524.8019 1820.5029,524.9513 Q1819.8638,525.1007 1819.1582,525.1007 Q1816.6514,525.1007 1815.3315,523.4489 Q1814.0117,521.797 1814.0117,518.6759 Q1814.0117,515.5465 1815.3315,513.8947 Q1816.6514,512.2428 1819.1582,512.2428 Q1819.8638,512.2428 1820.5112,512.3922 Q1821.1587,512.5416 1821.7231,512.8405 L1821.7231,515.5631 Q1821.0923,514.9821 1820.4988,514.7123 Q1819.9053,514.4425 1819.2744,514.4425 Q1817.9297,514.4425 1817.2449,515.5092 Q1816.5601,516.5758 1816.5601,518.6759 Q1816.5601,520.7677 1817.2449,521.8344 Q1817.9297,522.901 1819.2744,522.901 Q1819.9053,522.901 1820.4988,522.6312 Q1821.0923,522.3615 1821.7231,521.7804 Z " fill="#000000"/><text fill="#000000" font-family="sans-serif" font-size="14" lengthAdjust="spacing" textLength="154" x="1839.25" y="524.151">JobOpeningRepository</text><line style="stroke:#181818;stroke-width:0.5;" x1="1638" x2="2162" y1="534.86" y2="534.86"/><line style="stroke:#181818;stroke-width:0.5;" x1="1638" x2="2162" y1="542.86" y2="542.86"/><ellipse cx="1648" cy="556.6041" fill="#84BE84" rx="3" ry="3" style="stroke:#038048;stroke-width:1.0;"/><text fill="#000000" font-family="sans-serif" font-size="14" lengthAdjust="spacing" textLength="500" x="1657" y="560.3952">findJobOpeningByJobReference(jobReference: JobReference): JobOpening</text></g><!--class ApplicationRepository--><g id="elem_ApplicationRepository"><rect codeLine="27" fill="#F1F1F1" height="113.9531" id="ApplicationRepository" rx="2.5" ry="2.5" style="stroke:#181818;stroke-width:0.5;" width="541" x="1060.5" y="478.13"/><ellipse cx="1251.25" cy="494.13" fill="#ADD1B2" rx="11" ry="11" style="stroke:#181818;stroke-width:1.0;"/><path d="M1254.2231,499.7731 Q1253.6421,500.0719 1253.0029,500.2213 Q1252.3638,500.3707 1251.6582,500.3707 Q1249.1514,500.3707 1247.8315,498.7189 Q1246.5117,497.067 1246.5117,493.9459 Q1246.5117,490.8165 1247.8315,489.1647 Q1249.1514,487.5128 1251.6582,487.5128 Q1252.3638,487.5128 1253.0112,487.6622 Q1253.6587,487.8116 1254.2231,488.1105 L1254.2231,490.8331 Q1253.5923,490.2521 1252.9988,489.9823 Q1252.4053,489.7125 1251.7744,489.7125 Q1250.4297,489.7125 1249.7449,490.7792 Q1249.0601,491.8458 1249.0601,493.9459 Q1249.0601,496.0377 1249.7449,497.1044 Q1250.4297,498.171 1251.7744,498.171 Q1252.4053,498.171 1252.9988,497.9012 Q1253.5923,497.6315 1254.2231,497.0504 Z " fill="#000000"/><text fill="#000000" font-family="sans-serif" font-size="14" lengthAdjust="spacing" textLength="151" x="1271.75" y="499.421">ApplicationRepository</text><line style="stroke:#181818;stroke-width:0.5;" x1="1061.5" x2="1600.5" y1="510.13" y2="510.13"/><line style="stroke:#181818;stroke-width:0.5;" x1="1061.5" x2="1600.5" y1="518.13" y2="518.13"/><ellipse cx="1071.5" cy="531.8741" fill="#84BE84" rx="3" ry="3" style="stroke:#038048;stroke-width:1.0;"/><text fill="#000000" font-family="sans-serif" font-size="14" lengthAdjust="spacing" textLength="446" x="1080.5" y="535.6652">countApplicationByJobReference(jobReference: JobReference): int</text><ellipse cx="1071.5" cy="548.3624" fill="#84BE84" rx="3" ry="3" style="stroke:#038048;stroke-width:1.0;"/><text fill="#000000" font-family="sans-serif" font-size="14" lengthAdjust="spacing" textLength="514" x="1080.5" y="552.1534">countApplicationScreeningByJobReference(jobReference: JobReference): int</text><ellipse cx="1071.5" cy="564.8507" fill="#84BE84" rx="3" ry="3" style="stroke:#038048;stroke-width:1.0;"/><text fill="#000000" font-family="sans-serif" font-size="14" lengthAdjust="spacing" textLength="515" x="1080.5" y="568.6417">countApplicationInterviewsByJobReference(jobReference: JobReference): int</text><ellipse cx="1071.5" cy="581.339" fill="#84BE84" rx="3" ry="3" style="stroke:#038048;stroke-width:1.0;"/><text fill="#000000" font-family="sans-serif" font-size="14" lengthAdjust="spacing" textLength="488" x="1080.5" y="585.13">countApplicationResultByJobReference(jobReference: JobReference): int</text></g><!--class RankRepository--><g id="elem_RankRepository"><rect codeLine="34" fill="#F1F1F1" height="64.4883" id="RankRepository" rx="2.5" ry="2.5" style="stroke:#181818;stroke-width:0.5;" width="428" x="598" y="502.86"/><ellipse cx="754.25" cy="518.86" fill="#ADD1B2" rx="11" ry="11" style="stroke:#181818;stroke-width:1.0;"/><path d="M757.2231,524.5031 Q756.6421,524.8019 756.0029,524.9513 Q755.3638,525.1007 754.6582,525.1007 Q752.1514,525.1007 750.8315,523.4489 Q749.5117,521.797 749.5117,518.6759 Q749.5117,515.5465 750.8315,513.8947 Q752.1514,512.2428 754.6582,512.2428 Q755.3638,512.2428 756.0112,512.3922 Q756.6587,512.5416 757.2231,512.8405 L757.2231,515.5631 Q756.5923,514.9821 755.9988,514.7123 Q755.4053,514.4425 754.7744,514.4425 Q753.4297,514.4425 752.7449,515.5092 Q752.0601,516.5758 752.0601,518.6759 Q752.0601,520.7677 752.7449,521.8344 Q753.4297,522.901 754.7744,522.901 Q755.4053,522.901 755.9988,522.6312 Q756.5923,522.3615 757.2231,521.7804 Z " fill="#000000"/><text fill="#000000" font-family="sans-serif" font-size="14" lengthAdjust="spacing" textLength="107" x="774.75" y="524.151">RankRepository</text><line style="stroke:#181818;stroke-width:0.5;" x1="599" x2="1025" y1="534.86" y2="534.86"/><line style="stroke:#181818;stroke-width:0.5;" x1="599" x2="1025" y1="542.86" y2="542.86"/><ellipse cx="609" cy="556.6041" fill="#84BE84" rx="3" ry="3" style="stroke:#038048;stroke-width:1.0;"/><text fill="#000000" font-family="sans-serif" font-size="14" lengthAdjust="spacing" textLength="402" x="618" y="560.3952">countRankByJobReference(jobReference: JobReference): int</text></g><!--class JobReference--><g id="elem_JobReference"><rect codeLine="40" fill="#F1F1F1" height="64.4883" id="JobReference" rx="2.5" ry="2.5" style="stroke:#181818;stroke-width:0.5;" width="122" x="78" y="502.86"/><ellipse cx="93" cy="518.86" fill="#ADD1B2" rx="11" ry="11" style="stroke:#181818;stroke-width:1.0;"/><path d="M95.9731,524.5031 Q95.3921,524.8019 94.7529,524.9513 Q94.1138,525.1007 93.4082,525.1007 Q90.9014,525.1007 89.5815,523.4489 Q88.2617,521.797 88.2617,518.6759 Q88.2617,515.5465 89.5815,513.8947 Q90.9014,512.2428 93.4082,512.2428 Q94.1138,512.2428 94.7612,512.3922 Q95.4087,512.5416 95.9731,512.8405 L95.9731,515.5631 Q95.3423,514.9821 94.7488,514.7123 Q94.1553,514.4425 93.5244,514.4425 Q92.1797,514.4425 91.4949,515.5092 Q90.8101,516.5758 90.8101,518.6759 Q90.8101,520.7677 91.4949,521.8344 Q92.1797,522.901 93.5244,522.901 Q94.1553,522.901 94.7488,522.6312 Q95.3423,522.3615 95.9731,521.7804 Z " fill="#000000"/><text fill="#000000" font-family="sans-serif" font-size="14" lengthAdjust="spacing" textLength="90" x="107" y="524.151">JobReference</text><line style="stroke:#181818;stroke-width:0.5;" x1="79" x2="199" y1="534.86" y2="534.86"/><ellipse cx="89" cy="548.6041" fill="none" rx="3" ry="3" style="stroke:#038048;stroke-width:1.0;"/><text fill="#000000" font-family="sans-serif" font-size="14" lengthAdjust="spacing" textLength="62" x="98" y="552.3952">id: String</text><line style="stroke:#181818;stroke-width:0.5;" x1="79" x2="199" y1="559.3483" y2="559.3483"/></g><!--class RecruitmentProcess--><g id="elem_RecruitmentProcess"><rect codeLine="44" fill="#F1F1F1" height="130.4414" id="RecruitmentProcess" rx="2.5" ry="2.5" style="stroke:#181818;stroke-width:0.5;" width="252" x="290" y="469.88"/><ellipse cx="344.25" cy="485.88" fill="#ADD1B2" rx="11" ry="11" style="stroke:#181818;stroke-width:1.0;"/><path d="M347.2231,491.5231 Q346.6421,491.8219 346.0029,491.9713 Q345.3638,492.1207 344.6582,492.1207 Q342.1514,492.1207 340.8315,490.4689 Q339.5117,488.817 339.5117,485.6959 Q339.5117,482.5665 340.8315,480.9147 Q342.1514,479.2628 344.6582,479.2628 Q345.3638,479.2628 346.0112,479.4122 Q346.6587,479.5616 347.2231,479.8605 L347.2231,482.5831 Q346.5923,482.0021 345.9988,481.7323 Q345.4053,481.4625 344.7744,481.4625 Q343.4297,481.4625 342.7449,482.5292 Q342.0601,483.5958 342.0601,485.6959 Q342.0601,487.7877 342.7449,488.8544 Q343.4297,489.921 344.7744,489.921 Q345.4053,489.921 345.9988,489.6512 Q346.5923,489.3815 347.2231,488.8004 Z " fill="#000000"/><text fill="#000000" font-family="sans-serif" font-size="14" lengthAdjust="spacing" textLength="135" x="364.75" y="491.171">RecruitmentProcess</text><line style="stroke:#181818;stroke-width:0.5;" x1="291" x2="541" y1="501.88" y2="501.88"/><ellipse cx="301" cy="515.6241" fill="none" rx="3" ry="3" style="stroke:#038048;stroke-width:1.0;"/><text fill="#000000" font-family="sans-serif" font-size="14" lengthAdjust="spacing" textLength="39" x="310" y="519.4152">id: int</text><ellipse cx="301" cy="532.1124" fill="none" rx="3" ry="3" style="stroke:#038048;stroke-width:1.0;"/><text fill="#000000" font-family="sans-serif" font-size="14" lengthAdjust="spacing" textLength="226" x="310" y="535.9034">status: RecruitmentProcessStatus</text><ellipse cx="301" cy="548.6007" fill="none" rx="3" ry="3" style="stroke:#038048;stroke-width:1.0;"/><text fill="#000000" font-family="sans-serif" font-size="14" lengthAdjust="spacing" textLength="141" x="310" y="552.3917">phases: List&lt;Phase&gt;</text><line style="stroke:#181818;stroke-width:0.5;" x1="291" x2="541" y1="559.3448" y2="559.3448"/><ellipse cx="301" cy="573.089" fill="#84BE84" rx="3" ry="3" style="stroke:#038048;stroke-width:1.0;"/><text fill="#000000" font-family="sans-serif" font-size="14" lengthAdjust="spacing" textLength="118" x="310" y="576.88">nextPhase(): void</text><ellipse cx="301" cy="589.5773" fill="#84BE84" rx="3" ry="3" style="stroke:#038048;stroke-width:1.0;"/><text fill="#000000" font-family="sans-serif" font-size="14" lengthAdjust="spacing" textLength="146" x="310" y="593.3683">previousPhase(): void</text></g><!--class Phase--><g id="elem_Phase"><rect codeLine="52" fill="#F1F1F1" height="113.9531" id="Phase" rx="2.5" ry="2.5" style="stroke:#181818;stroke-width:0.5;" width="159" x="137.5" y="677.33"/><ellipse cx="192.75" cy="693.33" fill="#ADD1B2" rx="11" ry="11" style="stroke:#181818;stroke-width:1.0;"/><path d="M195.7231,698.9731 Q195.1421,699.2719 194.5029,699.4213 Q193.8638,699.5707 193.1582,699.5707 Q190.6514,699.5707 189.3315,697.9189 Q188.0117,696.267 188.0117,693.1459 Q188.0117,690.0165 189.3315,688.3647 Q190.6514,686.7128 193.1582,686.7128 Q193.8638,686.7128 194.5112,686.8622 Q195.1587,687.0116 195.7231,687.3105 L195.7231,690.0331 Q195.0923,689.4521 194.4988,689.1823 Q193.9053,688.9125 193.2744,688.9125 Q191.9297,688.9125 191.2449,689.9792 Q190.5601,691.0458 190.5601,693.1459 Q190.5601,695.2377 191.2449,696.3044 Q191.9297,697.371 193.2744,697.371 Q193.9053,697.371 194.4988,697.1012 Q195.0923,696.8315 195.7231,696.2504 Z " fill="#000000"/><text fill="#000000" font-family="sans-serif" font-size="14" lengthAdjust="spacing" textLength="40" x="213.25" y="698.621">Phase</text><line style="stroke:#181818;stroke-width:0.5;" x1="138.5" x2="295.5" y1="709.33" y2="709.33"/><ellipse cx="148.5" cy="723.0741" fill="none" rx="3" ry="3" style="stroke:#038048;stroke-width:1.0;"/><text fill="#000000" font-family="sans-serif" font-size="14" lengthAdjust="spacing" textLength="125" x="157.5" y="726.8652">name: PhaseName</text><ellipse cx="148.5" cy="739.5624" fill="none" rx="3" ry="3" style="stroke:#038048;stroke-width:1.0;"/><text fill="#000000" font-family="sans-serif" font-size="14" lengthAdjust="spacing" textLength="133" x="157.5" y="743.3534">startDate: StartDate</text><ellipse cx="148.5" cy="756.0507" fill="none" rx="3" ry="3" style="stroke:#038048;stroke-width:1.0;"/><text fill="#000000" font-family="sans-serif" font-size="14" lengthAdjust="spacing" textLength="122" x="157.5" y="759.8417">endDate: EndDate</text><ellipse cx="148.5" cy="772.539" fill="none" rx="3" ry="3" style="stroke:#038048;stroke-width:1.0;"/><text fill="#000000" font-family="sans-serif" font-size="14" lengthAdjust="spacing" textLength="131" x="157.5" y="776.33">status: PhaseStatus</text><line style="stroke:#181818;stroke-width:0.5;" x1="138.5" x2="295.5" y1="783.2831" y2="783.2831"/></g><!--class PhaseName--><g id="elem_PhaseName"><rect codeLine="59" fill="#F1F1F1" height="130.4414" id="PhaseName" rx="2.5" ry="2.5" style="stroke:#181818;stroke-width:0.5;" width="111" x="22.5" y="851.28"/><ellipse cx="37.5" cy="867.28" fill="#EB937F" rx="11" ry="11" style="stroke:#181818;stroke-width:1.0;"/><path d="M41.6143,873.28 L33.8945,873.28 L33.8945,860.8869 L41.6143,860.8869 L41.6143,863.0451 L36.3433,863.0451 L36.3433,865.718 L41.1162,865.718 L41.1162,867.8762 L36.3433,867.8762 L36.3433,871.1218 L41.6143,871.1218 Z " fill="#000000"/><text fill="#000000" font-family="sans-serif" font-size="14" lengthAdjust="spacing" textLength="79" x="51.5" y="872.571">PhaseName</text><line style="stroke:#181818;stroke-width:0.5;" x1="23.5" x2="132.5" y1="883.28" y2="883.28"/><text fill="#000000" font-family="sans-serif" font-size="14" lengthAdjust="spacing" textLength="95" x="28.5" y="900.8152">APPLICATION,</text><text fill="#000000" font-family="sans-serif" font-size="14" lengthAdjust="spacing" textLength="81" x="28.5" y="917.3034">SCREENING,</text><text fill="#000000" font-family="sans-serif" font-size="14" lengthAdjust="spacing" textLength="85" x="28.5" y="933.7917">INTERVIEWS,</text><text fill="#000000" font-family="sans-serif" font-size="14" lengthAdjust="spacing" textLength="70" x="28.5" y="950.28">ANALYSIS,</text><text fill="#000000" font-family="sans-serif" font-size="14" lengthAdjust="spacing" textLength="51" x="28.5" y="966.7683">RESULT</text><line style="stroke:#181818;stroke-width:0.5;" x1="23.5" x2="132.5" y1="973.7214" y2="973.7214"/></g><!--class StartDate--><g id="elem_StartDate"><rect codeLine="67" fill="#F1F1F1" height="64.4883" id="StartDate" rx="2.5" ry="2.5" style="stroke:#181818;stroke-width:0.5;" width="95" x="168.5" y="884.26"/><ellipse cx="183.5" cy="900.26" fill="#ADD1B2" rx="11" ry="11" style="stroke:#181818;stroke-width:1.0;"/><path d="M186.4731,905.9031 Q185.8921,906.2019 185.2529,906.3513 Q184.6138,906.5007 183.9082,906.5007 Q181.4014,906.5007 180.0815,904.8489 Q178.7617,903.197 178.7617,900.0759 Q178.7617,896.9465 180.0815,895.2947 Q181.4014,893.6428 183.9082,893.6428 Q184.6138,893.6428 185.2612,893.7922 Q185.9087,893.9416 186.4731,894.2405 L186.4731,896.9631 Q185.8423,896.3821 185.2488,896.1123 Q184.6553,895.8425 184.0244,895.8425 Q182.6797,895.8425 181.9949,896.9092 Q181.3101,897.9758 181.3101,900.0759 Q181.3101,902.1677 181.9949,903.2344 Q182.6797,904.301 184.0244,904.301 Q184.6553,904.301 185.2488,904.0312 Q185.8423,903.7615 186.4731,903.1804 Z " fill="#000000"/><text fill="#000000" font-family="sans-serif" font-size="14" lengthAdjust="spacing" textLength="63" x="197.5" y="905.551">StartDate</text><line style="stroke:#181818;stroke-width:0.5;" x1="169.5" x2="262.5" y1="916.26" y2="916.26"/><ellipse cx="179.5" cy="930.0041" fill="none" rx="3" ry="3" style="stroke:#038048;stroke-width:1.0;"/><text fill="#000000" font-family="sans-serif" font-size="14" lengthAdjust="spacing" textLength="69" x="188.5" y="933.7952">date: Date</text><line style="stroke:#181818;stroke-width:0.5;" x1="169.5" x2="262.5" y1="940.7483" y2="940.7483"/></g><!--class EndDate--><g id="elem_EndDate"><rect codeLine="71" fill="#F1F1F1" height="64.4883" id="EndDate" rx="2.5" ry="2.5" style="stroke:#181818;stroke-width:0.5;" width="95" x="298.5" y="884.26"/><ellipse cx="316.2" cy="900.26" fill="#ADD1B2" rx="11" ry="11" style="stroke:#181818;stroke-width:1.0;"/><path d="M319.1731,905.9031 Q318.5921,906.2019 317.9529,906.3513 Q317.3138,906.5007 316.6082,906.5007 Q314.1014,906.5007 312.7815,904.8489 Q311.4617,903.197 311.4617,900.0759 Q311.4617,896.9465 312.7815,895.2947 Q314.1014,893.6428 316.6082,893.6428 Q317.3138,893.6428 317.9612,893.7922 Q318.6087,893.9416 319.1731,894.2405 L319.1731,896.9631 Q318.5423,896.3821 317.9488,896.1123 Q317.3553,895.8425 316.7244,895.8425 Q315.3797,895.8425 314.6949,896.9092 Q314.0101,897.9758 314.0101,900.0759 Q314.0101,902.1677 314.6949,903.2344 Q315.3797,904.301 316.7244,904.301 Q317.3553,904.301 317.9488,904.0312 Q318.5423,903.7615 319.1731,903.1804 Z " fill="#000000"/><text fill="#000000" font-family="sans-serif" font-size="14" lengthAdjust="spacing" textLength="57" x="330.8" y="905.551">EndDate</text><line style="stroke:#181818;stroke-width:0.5;" x1="299.5" x2="392.5" y1="916.26" y2="916.26"/><ellipse cx="309.5" cy="930.0041" fill="none" rx="3" ry="3" style="stroke:#038048;stroke-width:1.0;"/><text fill="#000000" font-family="sans-serif" font-size="14" lengthAdjust="spacing" textLength="69" x="318.5" y="933.7952">date: Date</text><line style="stroke:#181818;stroke-width:0.5;" x1="299.5" x2="392.5" y1="940.7483" y2="940.7483"/></g><!--class PhaseStatus--><g id="elem_PhaseStatus"><rect codeLine="75" fill="#F1F1F1" height="80.9766" id="PhaseStatus" rx="2.5" ry="2.5" style="stroke:#181818;stroke-width:0.5;" width="114" x="428" y="876.01"/><ellipse cx="443" cy="892.01" fill="#EB937F" rx="11" ry="11" style="stroke:#181818;stroke-width:1.0;"/><path d="M447.1143,898.01 L439.3945,898.01 L439.3945,885.6169 L447.1143,885.6169 L447.1143,887.7751 L441.8433,887.7751 L441.8433,890.448 L446.6162,890.448 L446.6162,892.6062 L441.8433,892.6062 L441.8433,895.8518 L447.1143,895.8518 Z " fill="#000000"/><text fill="#000000" font-family="sans-serif" font-size="14" lengthAdjust="spacing" textLength="82" x="457" y="897.301">PhaseStatus</text><line style="stroke:#181818;stroke-width:0.5;" x1="429" x2="541" y1="908.01" y2="908.01"/><text fill="#000000" font-family="sans-serif" font-size="14" lengthAdjust="spacing" textLength="41" x="434" y="925.5452">Open,</text><text fill="#000000" font-family="sans-serif" font-size="14" lengthAdjust="spacing" textLength="47" x="434" y="942.0334">Closed</text><line style="stroke:#181818;stroke-width:0.5;" x1="429" x2="541" y1="948.9866" y2="948.9866"/></g><!--class RecruitmentProcessStatus--><g id="elem_RecruitmentProcessStatus"><rect codeLine="80" fill="#F1F1F1" height="97.4648" id="RecruitmentProcessStatus" rx="2.5" ry="2.5" style="stroke:#181818;stroke-width:0.5;" width="209" x="331.5" y="685.57"/><ellipse cx="346.5" cy="701.57" fill="#EB937F" rx="11" ry="11" style="stroke:#181818;stroke-width:1.0;"/><path d="M350.6143,707.57 L342.8945,707.57 L342.8945,695.1769 L350.6143,695.1769 L350.6143,697.3351 L345.3433,697.3351 L345.3433,700.008 L350.1162,700.008 L350.1162,702.1662 L345.3433,702.1662 L345.3433,705.4118 L350.6143,705.4118 Z " fill="#000000"/><text fill="#000000" font-family="sans-serif" font-size="14" lengthAdjust="spacing" textLength="177" x="360.5" y="706.861">RecruitmentProcessStatus</text><line style="stroke:#181818;stroke-width:0.5;" x1="332.5" x2="539.5" y1="717.57" y2="717.57"/><text fill="#000000" font-family="sans-serif" font-size="14" lengthAdjust="spacing" textLength="79" x="337.5" y="735.1052">Uninitiated,</text><text fill="#000000" font-family="sans-serif" font-size="14" lengthAdjust="spacing" textLength="69" x="337.5" y="751.5934">InProcess,</text><text fill="#000000" font-family="sans-serif" font-size="14" lengthAdjust="spacing" textLength="58" x="337.5" y="768.0817">Finished</text><line style="stroke:#181818;stroke-width:0.5;" x1="332.5" x2="539.5" y1="775.0348" y2="775.0348"/></g><!--link PhasesController to PhaseValidatorService--><g id="link_PhasesController_PhaseValidatorService"><path codeLine="87" d="M1248.03,171.83 C1212.53,198.19 1176.377,225.0528 1140.867,251.4228 " fill="none" id="PhasesController-to-PhaseValidatorService" style="stroke:#181818;stroke-width:1.0;"/><polygon fill="#181818" points="1136.05,255,1145.6603,252.8456,1140.0642,252.019,1140.8908,246.4229,1136.05,255" style="stroke:#181818;stroke-width:1.0;"/></g><!--link PhasesController to JobOpeningRepository--><g id="link_PhasesController_JobOpeningRepository"><path codeLine="88" d="M1420.5,171.82 C1543.59,264.82 1761.2527,429.2732 1853.4427,498.9232 " fill="none" id="PhasesController-to-JobOpeningRepository" style="stroke:#181818;stroke-width:1.0;"/><polygon fill="#181818" points="1858.23,502.54,1853.4602,493.9232,1854.2406,499.526,1848.6378,500.3063,1858.23,502.54" style="stroke:#181818;stroke-width:1.0;"/></g><!--link PhaseValidatorService to ApplicationRepository--><g id="link_PhaseValidatorService_ApplicationRepository"><path codeLine="89" d="M1134.76,386.27 C1173.49,415.44 1214.0282,445.9791 1251.3582,474.1091 " fill="none" id="PhaseValidatorService-to-ApplicationRepository" style="stroke:#181818;stroke-width:1.0;"/><polygon fill="#181818" points="1256.15,477.72,1251.3695,469.1091,1252.1568,474.7109,1246.555,475.4982,1256.15,477.72" style="stroke:#181818;stroke-width:1.0;"/></g><!--link PhaseValidatorService to RecruitmentProcess--><g id="link_PhaseValidatorService_RecruitmentProcess"><path codeLine="90" d="M881.72,344.67 C790.69,360.79 677.5,386.78 582,426.88 C555.11,438.17 532.8217,450.5371 508.3017,466.3571 " fill="none" id="PhaseValidatorService-to-RecruitmentProcess" style="stroke:#181818;stroke-width:1.0;"/><polygon fill="#181818" points="503.26,469.61,512.9911,468.0919,507.4614,466.8993,508.654,461.3696,503.26,469.61" style="stroke:#181818;stroke-width:1.0;"/></g><!--link PhaseValidatorService to RankRepository--><g id="link_PhaseValidatorService_RankRepository"><path codeLine="91" d="M976.93,386.27 C934.03,424.72 885.9577,467.8151 851.8777,498.3651 " fill="none" id="PhaseValidatorService-to-RankRepository" style="stroke:#181818;stroke-width:1.0;"/><polygon fill="#181818" points="847.41,502.37,856.7815,499.3411,851.1331,499.0325,851.4416,493.3841,847.41,502.37" style="stroke:#181818;stroke-width:1.0;"/></g><!--link RecruitmentProcess to Phase--><g id="link_RecruitmentProcess_Phase"><path codeLine="92" d="M350.84,600.67 C326.02,625.27 302.2012,648.866 278.2012,672.656 " fill="none" id="RecruitmentProcess-to-Phase" style="stroke:#181818;stroke-width:1.0;"/><polygon fill="#181818" points="273.94,676.88,283.1478,673.3849,277.491,673.36,277.5159,667.7032,273.94,676.88" style="stroke:#181818;stroke-width:1.0;"/><text fill="#000000" font-family="sans-serif" font-size="13" lengthAdjust="spacing" textLength="22" x="317" y="643.8984">has</text></g><!--link Phase to PhaseName--><g id="link_Phase_PhaseName"><path codeLine="93" d="M173.78,791.33 C159.2,810.24 146.4647,826.7392 131.4147,846.2492 " fill="none" id="Phase-to-PhaseName" style="stroke:#181818;stroke-width:1.0;"/><polygon fill="#181818" points="127.75,851,136.4143,846.317,130.8039,847.041,130.0799,841.4307,127.75,851" style="stroke:#181818;stroke-width:1.0;"/></g><!--link Phase to StartDate--><g id="link_Phase_StartDate"><path codeLine="94" d="M216.69,791.33 C216.52,821.81 216.3529,852.3901 216.2129,877.9201 " fill="none" id="Phase-to-StartDate" style="stroke:#181818;stroke-width:1.0;"/><polygon fill="#181818" points="216.18,883.92,220.2293,874.9421,216.2074,878.9201,212.2294,874.8982,216.18,883.92" style="stroke:#181818;stroke-width:1.0;"/></g><!--link Phase to EndDate--><g id="link_Phase_EndDate"><path codeLine="95" d="M257.11,791.33 C278.93,821.81 301.617,853.5116 319.897,879.0416 " fill="none" id="Phase-to-EndDate" style="stroke:#181818;stroke-width:1.0;"/><polygon fill="#181818" points="323.39,883.92,321.4027,874.2737,320.4791,879.8547,314.8982,878.9311,323.39,883.92" style="stroke:#181818;stroke-width:1.0;"/></g><!--link Phase to PhaseStatus--><g id="link_Phase_PhaseStatus"><path codeLine="96" d="M297,782.23 C345.52,810.85 400.13,843.41 411,851.28 C421.33,858.76 427.3999,863.4706 437.2699,871.9106 " fill="none" id="Phase-to-PhaseStatus" style="stroke:#181818;stroke-width:1.0;"/><polygon fill="#181818" points="441.83,875.81,437.5895,866.9208,438.0299,872.5605,432.3902,873.0009,441.83,875.81" style="stroke:#181818;stroke-width:1.0;"/></g><!--link RecruitmentProcess to RecruitmentProcessStatus--><g id="link_RecruitmentProcess_RecruitmentProcessStatus"><path codeLine="97" d="M422.55,600.67 C425.34,628.19 427.9341,653.7807 430.5141,679.2007 " fill="none" id="RecruitmentProcess-to-RecruitmentProcessStatus" style="stroke:#181818;stroke-width:1.0;"/><polygon fill="#181818" points="431.12,685.17,434.1908,675.8121,430.6151,680.1956,426.2317,676.6199,431.12,685.17" style="stroke:#181818;stroke-width:1.0;"/></g><!--SRC=[hLLTRvim57tFhx3wbAdB7q1L99hHYIgZ4QITzkZ0RUkMsCWswQgf_tt646o3oTPkl0JkFVVZd5pxLZX_nW-0LenApieIEFerG-h9Iom4sZnY0MBaR9u5Ek2I55WodW4_a1o25dutC5iHJsoNGiK4KTxN05sptKq5bD07OxNG779U4xa7AZUSvI14WDAHhGyuFpO4rqsPU-10SvW_MH-wPF_rAK0xnah0r9D3KzboJ5LRXD6v0iSIEDwLS959hdfUwgYtsTjiLdKgTep74WurSNJ4LLMI73TbR7L2dzcM1zDd6vywt_z0oVbtXr5NZBzWNimzuat6N2fvV46ETgPrHpxVZ5ZgdQDxGWi3kdpz-p_VH7NTM6MzuZjrSrPJQS7UKvbGUI9JbdDuDvdJAMCgcy635_7_SgOWwb9-99-Zj3ksOuaR_yUAMCFrZHLG3kUgZxABaY90xM7mj3gwV8QHZc92ObbxxwnCUmooqjTiWDP4o0jzU9QM31H-Icripi-1aSBoLHmEXDLYx7SwrswxMOhtn_iwKQzEqrn-KMUuaQ5xDLwWHUkBsfSnMPtIujUr0RJUct9M9-5ciuvNuJQ-IJxtncoLHb4I9r-DAKwsKNeNHzypOmkJSFqZYorB6cMtw-sOVq_5rg3GJ7eQJa37xyzmGwmbRKKqbujfRLKo0SKeT6euh3otwYvGzwWgN5Xwq0vkJ5SA9Xxx6ghAQ7ql5ik99Us5UXUqVw4rSF_6ciPxbla9iBlUF6Un9uS2TAP-pzfingudtTZCV1lRSQu7aTr0JnITFE2_0G00]--></g></svg>