<?xml version="1.0" encoding="us-ascii" standalone="no"?><svg xmlns="http://www.w3.org/2000/svg" xmlns:xlink="http://www.w3.org/1999/xlink" contentStyleType="text/css" height="1218px" preserveAspectRatio="none" style="width:2191px;height:1218px;background:#FFFFFF;" version="1.1" viewBox="0 0 2191 1218" width="2191px" zoomAndPan="magnify"><defs/><g><!--cluster Controller--><g id="cluster_Controller"><path d="M1115.5,186.46 L1189.5,186.46 A3.75,3.75 0 0 1 1192,188.96 L1199,208.9483 L1636.5,208.9483 A2.5,2.5 0 0 1 1639,211.4483 L1639,365.41 A2.5,2.5 0 0 1 1636.5,367.91 L1115.5,367.91 A2.5,2.5 0 0 1 1113,365.41 L1113,188.96 A2.5,2.5 0 0 1 1115.5,186.46 " fill="none" style="stroke:#000000;stroke-width:1.5;"/><line style="stroke:#000000;stroke-width:1.5;" x1="1113" x2="1199" y1="208.9483" y2="208.9483"/><text fill="#000000" font-family="sans-serif" font-size="14" font-weight="bold" lengthAdjust="spacing" textLength="73" x="1117" y="201.9952">Controller</text></g><!--cluster Service--><g id="cluster_Service"><path d="M1195.5,400.91 L1246.5,400.91 A3.75,3.75 0 0 1 1249,403.41 L1256,423.3983 L1556.5,423.3983 A2.5,2.5 0 0 1 1559,425.8983 L1559,612.82 A2.5,2.5 0 0 1 1556.5,615.32 L1195.5,615.32 A2.5,2.5 0 0 1 1193,612.82 L1193,403.41 A2.5,2.5 0 0 1 1195.5,400.91 " fill="none" style="stroke:#000000;stroke-width:1.5;"/><line style="stroke:#000000;stroke-width:1.5;" x1="1193" x2="1256" y1="423.3983" y2="423.3983"/><text fill="#000000" font-family="sans-serif" font-size="14" font-weight="bold" lengthAdjust="spacing" textLength="50" x="1197" y="416.4452">Service</text></g><!--cluster Repository--><g id="cluster_Repository"><path d="M8.5,656.57 L87.5,656.57 A3.75,3.75 0 0 1 90,659.07 L97,679.0583 L1605.5,679.0583 A2.5,2.5 0 0 1 1608,681.5583 L1608,819.02 A2.5,2.5 0 0 1 1605.5,821.52 L8.5,821.52 A2.5,2.5 0 0 1 6,819.02 L6,659.07 A2.5,2.5 0 0 1 8.5,656.57 " fill="none" style="stroke:#000000;stroke-width:1.5;"/><line style="stroke:#000000;stroke-width:1.5;" x1="6" x2="97" y1="679.0583" y2="679.0583"/><text fill="#000000" font-family="sans-serif" font-size="14" font-weight="bold" lengthAdjust="spacing" textLength="78" x="10" y="672.1052">Repository</text></g><!--cluster Model--><g id="cluster_Model"><path d="M1634.5,648.32 L1679.5,648.32 A3.75,3.75 0 0 1 1682,650.82 L1689,670.8083 L2181.5,670.8083 A2.5,2.5 0 0 1 2184,673.3083 L2184,1208.66 A2.5,2.5 0 0 1 2181.5,1211.16 L1634.5,1211.16 A2.5,2.5 0 0 1 1632,1208.66 L1632,650.82 A2.5,2.5 0 0 1 1634.5,648.32 " fill="none" style="stroke:#000000;stroke-width:1.5;"/><line style="stroke:#000000;stroke-width:1.5;" x1="1632" x2="1689" y1="670.8083" y2="670.8083"/><text fill="#000000" font-family="sans-serif" font-size="14" font-weight="bold" lengthAdjust="spacing" textLength="44" x="1636" y="663.8552">Model</text></g><!--cluster UI--><g id="cluster_UI"><path d="M1253.5,6 L1269.5,6 A3.75,3.75 0 0 1 1272,8.5 L1279,28.4883 L1498.5,28.4883 A2.5,2.5 0 0 1 1501,30.9883 L1501,151.96 A2.5,2.5 0 0 1 1498.5,154.46 L1253.5,154.46 A2.5,2.5 0 0 1 1251,151.96 L1251,8.5 A2.5,2.5 0 0 1 1253.5,6 " fill="none" style="stroke:#000000;stroke-width:1.5;"/><line style="stroke:#000000;stroke-width:1.5;" x1="1251" x2="1279" y1="28.4883" y2="28.4883"/><text fill="#000000" font-family="sans-serif" font-size="14" font-weight="bold" lengthAdjust="spacing" textLength="15" x="1255" y="21.5352">UI</text></g><!--class PhasesController--><g id="elem_PhasesController"><rect codeLine="3" fill="#F1F1F1" height="130.4414" id="PhasesController" rx="2.5" ry="2.5" style="stroke:#181818;stroke-width:0.5;" width="494" x="1129" y="221.46"/><ellipse cx="1313.25" cy="237.46" fill="#ADD1B2" rx="11" ry="11" style="stroke:#181818;stroke-width:1.0;"/><path d="M1316.2231,243.1031 Q1315.6421,243.4019 1315.0029,243.5513 Q1314.3638,243.7007 1313.6582,243.7007 Q1311.1514,243.7007 1309.8315,242.0489 Q1308.5117,240.397 1308.5117,237.2759 Q1308.5117,234.1465 1309.8315,232.4947 Q1311.1514,230.8428 1313.6582,230.8428 Q1314.3638,230.8428 1315.0112,230.9922 Q1315.6587,231.1416 1316.2231,231.4405 L1316.2231,234.1631 Q1315.5923,233.5821 1314.9988,233.3123 Q1314.4053,233.0425 1313.7744,233.0425 Q1312.4297,233.0425 1311.7449,234.1092 Q1311.0601,235.1758 1311.0601,237.2759 Q1311.0601,239.3677 1311.7449,240.4344 Q1312.4297,241.501 1313.7744,241.501 Q1314.4053,241.501 1314.9988,241.2312 Q1315.5923,240.9615 1316.2231,240.3804 Z " fill="#000000"/><text fill="#000000" font-family="sans-serif" font-size="14" lengthAdjust="spacing" textLength="117" x="1333.75" y="242.751">PhasesController</text><line style="stroke:#181818;stroke-width:0.5;" x1="1130" x2="1622" y1="253.46" y2="253.46"/><rect fill="none" height="6" style="stroke:#C82930;stroke-width:1.0;" width="6" x="1137" y="264.2041"/><text fill="#000000" font-family="sans-serif" font-size="14" lengthAdjust="spacing" textLength="266" x="1149" y="270.9952">validatorService: PhaseValidatorService</text><rect fill="none" height="6" style="stroke:#C82930;stroke-width:1.0;" width="6" x="1137" y="280.6924"/><text fill="#000000" font-family="sans-serif" font-size="14" lengthAdjust="spacing" textLength="257" x="1149" y="287.4834">jobRepository: JobOpeningRepository</text><rect fill="none" height="6" style="stroke:#C82930;stroke-width:1.0;" width="6" x="1137" y="297.1807"/><text fill="#000000" font-family="sans-serif" font-size="14" lengthAdjust="spacing" textLength="275" x="1149" y="303.9717">recruitmentProcess: RecruitmentProcess</text><line style="stroke:#181818;stroke-width:0.5;" x1="1130" x2="1622" y1="310.9248" y2="310.9248"/><ellipse cx="1140" cy="324.669" fill="#84BE84" rx="3" ry="3" style="stroke:#038048;stroke-width:1.0;"/><text fill="#000000" font-family="sans-serif" font-size="14" lengthAdjust="spacing" textLength="468" x="1149" y="328.46">validateJobReference(jobReference: JobReference): Iterable &lt;String&gt;</text><rect fill="#F24D5C" height="6" style="stroke:#C82930;stroke-width:1.0;" width="6" x="1137" y="338.1573"/><text fill="#000000" font-family="sans-serif" font-size="14" lengthAdjust="spacing" textLength="296" x="1149" y="344.9483">validatePhaseTransition(): Iterable&lt;String&gt;</text></g><!--class PhaseValidatorService--><g id="elem_PhaseValidatorService"><rect codeLine="13" fill="#F1F1F1" height="163.418" id="PhaseValidatorService" rx="2.5" ry="2.5" style="stroke:#181818;stroke-width:0.5;" width="334" x="1209" y="435.91"/><ellipse cx="1296.75" cy="451.91" fill="#ADD1B2" rx="11" ry="11" style="stroke:#181818;stroke-width:1.0;"/><path d="M1299.7231,457.5531 Q1299.1421,457.8519 1298.5029,458.0013 Q1297.8638,458.1507 1297.1582,458.1507 Q1294.6514,458.1507 1293.3315,456.4989 Q1292.0117,454.847 1292.0117,451.7259 Q1292.0117,448.5965 1293.3315,446.9447 Q1294.6514,445.2928 1297.1582,445.2928 Q1297.8638,445.2928 1298.5112,445.4422 Q1299.1587,445.5916 1299.7231,445.8905 L1299.7231,448.6131 Q1299.0923,448.0321 1298.4988,447.7623 Q1297.9053,447.4925 1297.2744,447.4925 Q1295.9297,447.4925 1295.2449,448.5592 Q1294.5601,449.6258 1294.5601,451.7259 Q1294.5601,453.8177 1295.2449,454.8844 Q1295.9297,455.951 1297.2744,455.951 Q1297.9053,455.951 1298.4988,455.6812 Q1299.0923,455.4115 1299.7231,454.8304 Z " fill="#000000"/><text fill="#000000" font-family="sans-serif" font-size="14" lengthAdjust="spacing" textLength="150" x="1317.25" y="457.201">PhaseValidatorService</text><line style="stroke:#181818;stroke-width:0.5;" x1="1210" x2="1542" y1="467.91" y2="467.91"/><rect fill="none" height="6" style="stroke:#C82930;stroke-width:1.0;" width="6" x="1217" y="478.6541"/><text fill="#000000" font-family="sans-serif" font-size="14" lengthAdjust="spacing" textLength="308" x="1229" y="485.4452">applicationRepository: ApplicationRepository</text><rect fill="none" height="6" style="stroke:#C82930;stroke-width:1.0;" width="6" x="1217" y="495.1424"/><text fill="#000000" font-family="sans-serif" font-size="14" lengthAdjust="spacing" textLength="219" x="1229" y="501.9334">rankRepository: RankRepository</text><rect fill="none" height="6" style="stroke:#C82930;stroke-width:1.0;" width="6" x="1217" y="511.6307"/><text fill="#000000" font-family="sans-serif" font-size="14" lengthAdjust="spacing" textLength="275" x="1229" y="518.4217">recruitmentProcess: RecruitmentProcess</text><rect fill="none" height="6" style="stroke:#C82930;stroke-width:1.0;" width="6" x="1217" y="528.119"/><text fill="#000000" font-family="sans-serif" font-size="14" lengthAdjust="spacing" textLength="188" x="1229" y="534.91">jobReference: JobReference</text><line style="stroke:#181818;stroke-width:0.5;" x1="1210" x2="1542" y1="541.8631" y2="541.8631"/><ellipse cx="1220" cy="555.6073" fill="#84BE84" rx="3" ry="3" style="stroke:#038048;stroke-width:1.0;"/><text fill="#000000" font-family="sans-serif" font-size="14" lengthAdjust="spacing" textLength="296" x="1229" y="559.3983">validatePhaseTransition(): Iterable&lt;String&gt;</text><rect fill="#F24D5C" height="6" style="stroke:#C82930;stroke-width:1.0;" width="6" x="1217" y="569.0955"/><text fill="#000000" font-family="sans-serif" font-size="14" lengthAdjust="spacing" textLength="294" x="1229" y="575.8866">validatePhaseTransitionForward(): boolean</text><rect fill="#F24D5C" height="6" style="stroke:#C82930;stroke-width:1.0;" width="6" x="1217" y="585.5838"/><text fill="#000000" font-family="sans-serif" font-size="14" lengthAdjust="spacing" textLength="302" x="1229" y="592.3748">validatePhaseTransitionBackward(): boolean</text></g><!--class JobOpeningRepository--><g id="elem_JobOpeningRepository"><rect codeLine="25" fill="#F1F1F1" height="64.4883" id="JobOpeningRepository" rx="2.5" ry="2.5" style="stroke:#181818;stroke-width:0.5;" width="526" x="22" y="716.3"/><ellipse cx="203.75" cy="732.3" fill="#ADD1B2" rx="11" ry="11" style="stroke:#181818;stroke-width:1.0;"/><path d="M206.7231,737.9431 Q206.1421,738.2419 205.5029,738.3913 Q204.8638,738.5407 204.1582,738.5407 Q201.6514,738.5407 200.3315,736.8889 Q199.0117,735.237 199.0117,732.1159 Q199.0117,728.9865 200.3315,727.3347 Q201.6514,725.6828 204.1582,725.6828 Q204.8638,725.6828 205.5112,725.8322 Q206.1587,725.9816 206.7231,726.2805 L206.7231,729.0031 Q206.0923,728.4221 205.4988,728.1523 Q204.9053,727.8825 204.2744,727.8825 Q202.9297,727.8825 202.2449,728.9492 Q201.5601,730.0158 201.5601,732.1159 Q201.5601,734.2077 202.2449,735.2744 Q202.9297,736.341 204.2744,736.341 Q204.9053,736.341 205.4988,736.0712 Q206.0923,735.8015 206.7231,735.2204 Z " fill="#000000"/><text fill="#000000" font-family="sans-serif" font-size="14" lengthAdjust="spacing" textLength="154" x="224.25" y="737.591">JobOpeningRepository</text><line style="stroke:#181818;stroke-width:0.5;" x1="23" x2="547" y1="748.3" y2="748.3"/><line style="stroke:#181818;stroke-width:0.5;" x1="23" x2="547" y1="756.3" y2="756.3"/><ellipse cx="33" cy="770.0441" fill="#84BE84" rx="3" ry="3" style="stroke:#038048;stroke-width:1.0;"/><text fill="#000000" font-family="sans-serif" font-size="14" lengthAdjust="spacing" textLength="500" x="42" y="773.8352">findJobOpeningByJobReference(jobReference: JobReference): JobOpening</text></g><!--class ApplicationRepository--><g id="elem_ApplicationRepository"><rect codeLine="29" fill="#F1F1F1" height="113.9531" id="ApplicationRepository" rx="2.5" ry="2.5" style="stroke:#181818;stroke-width:0.5;" width="541" x="583.5" y="691.57"/><ellipse cx="774.25" cy="707.57" fill="#ADD1B2" rx="11" ry="11" style="stroke:#181818;stroke-width:1.0;"/><path d="M777.2231,713.2131 Q776.6421,713.5119 776.0029,713.6613 Q775.3638,713.8107 774.6582,713.8107 Q772.1514,713.8107 770.8315,712.1589 Q769.5117,710.507 769.5117,707.3859 Q769.5117,704.2565 770.8315,702.6047 Q772.1514,700.9528 774.6582,700.9528 Q775.3638,700.9528 776.0112,701.1022 Q776.6587,701.2516 777.2231,701.5505 L777.2231,704.2731 Q776.5923,703.6921 775.9988,703.4223 Q775.4053,703.1525 774.7744,703.1525 Q773.4297,703.1525 772.7449,704.2192 Q772.0601,705.2858 772.0601,707.3859 Q772.0601,709.4777 772.7449,710.5444 Q773.4297,711.611 774.7744,711.611 Q775.4053,711.611 775.9988,711.3412 Q776.5923,711.0715 777.2231,710.4904 Z " fill="#000000"/><text fill="#000000" font-family="sans-serif" font-size="14" lengthAdjust="spacing" textLength="151" x="794.75" y="712.861">ApplicationRepository</text><line style="stroke:#181818;stroke-width:0.5;" x1="584.5" x2="1123.5" y1="723.57" y2="723.57"/><line style="stroke:#181818;stroke-width:0.5;" x1="584.5" x2="1123.5" y1="731.57" y2="731.57"/><ellipse cx="594.5" cy="745.3141" fill="#84BE84" rx="3" ry="3" style="stroke:#038048;stroke-width:1.0;"/><text fill="#000000" font-family="sans-serif" font-size="14" lengthAdjust="spacing" textLength="446" x="603.5" y="749.1052">countApplicationByJobReference(jobReference: JobReference): int</text><ellipse cx="594.5" cy="761.8024" fill="#84BE84" rx="3" ry="3" style="stroke:#038048;stroke-width:1.0;"/><text fill="#000000" font-family="sans-serif" font-size="14" lengthAdjust="spacing" textLength="514" x="603.5" y="765.5934">countApplicationScreeningByJobReference(jobReference: JobReference): int</text><ellipse cx="594.5" cy="778.2907" fill="#84BE84" rx="3" ry="3" style="stroke:#038048;stroke-width:1.0;"/><text fill="#000000" font-family="sans-serif" font-size="14" lengthAdjust="spacing" textLength="515" x="603.5" y="782.0817">countApplicationInterviewsByJobReference(jobReference: JobReference): int</text><ellipse cx="594.5" cy="794.779" fill="#84BE84" rx="3" ry="3" style="stroke:#038048;stroke-width:1.0;"/><text fill="#000000" font-family="sans-serif" font-size="14" lengthAdjust="spacing" textLength="488" x="603.5" y="798.57">countApplicationResultByJobReference(jobReference: JobReference): int</text></g><!--class RankRepository--><g id="elem_RankRepository"><rect codeLine="36" fill="#F1F1F1" height="64.4883" id="RankRepository" rx="2.5" ry="2.5" style="stroke:#181818;stroke-width:0.5;" width="432" x="1160" y="716.3"/><ellipse cx="1318.25" cy="732.3" fill="#ADD1B2" rx="11" ry="11" style="stroke:#181818;stroke-width:1.0;"/><path d="M1321.2231,737.9431 Q1320.6421,738.2419 1320.0029,738.3913 Q1319.3638,738.5407 1318.6582,738.5407 Q1316.1514,738.5407 1314.8315,736.8889 Q1313.5117,735.237 1313.5117,732.1159 Q1313.5117,728.9865 1314.8315,727.3347 Q1316.1514,725.6828 1318.6582,725.6828 Q1319.3638,725.6828 1320.0112,725.8322 Q1320.6587,725.9816 1321.2231,726.2805 L1321.2231,729.0031 Q1320.5923,728.4221 1319.9988,728.1523 Q1319.4053,727.8825 1318.7744,727.8825 Q1317.4297,727.8825 1316.7449,728.9492 Q1316.0601,730.0158 1316.0601,732.1159 Q1316.0601,734.2077 1316.7449,735.2744 Q1317.4297,736.341 1318.7744,736.341 Q1319.4053,736.341 1319.9988,736.0712 Q1320.5923,735.8015 1321.2231,735.2204 Z " fill="#000000"/><text fill="#000000" font-family="sans-serif" font-size="14" lengthAdjust="spacing" textLength="107" x="1338.75" y="737.591">RankRepository</text><line style="stroke:#181818;stroke-width:0.5;" x1="1161" x2="1591" y1="748.3" y2="748.3"/><line style="stroke:#181818;stroke-width:0.5;" x1="1161" x2="1591" y1="756.3" y2="756.3"/><ellipse cx="1171" cy="770.0441" fill="#84BE84" rx="3" ry="3" style="stroke:#038048;stroke-width:1.0;"/><text fill="#000000" font-family="sans-serif" font-size="14" lengthAdjust="spacing" textLength="406" x="1180" y="773.8352">findRankByJobReference(jobReference: JobReference): Rank</text></g><!--class JobReference--><g id="elem_JobReference"><rect codeLine="43" fill="#F1F1F1" height="64.4883" id="JobReference" rx="2.5" ry="2.5" style="stroke:#181818;stroke-width:0.5;" width="122" x="1969" y="716.3"/><ellipse cx="1984" cy="732.3" fill="#ADD1B2" rx="11" ry="11" style="stroke:#181818;stroke-width:1.0;"/><path d="M1986.9731,737.9431 Q1986.3921,738.2419 1985.7529,738.3913 Q1985.1138,738.5407 1984.4082,738.5407 Q1981.9014,738.5407 1980.5815,736.8889 Q1979.2617,735.237 1979.2617,732.1159 Q1979.2617,728.9865 1980.5815,727.3347 Q1981.9014,725.6828 1984.4082,725.6828 Q1985.1138,725.6828 1985.7612,725.8322 Q1986.4087,725.9816 1986.9731,726.2805 L1986.9731,729.0031 Q1986.3423,728.4221 1985.7488,728.1523 Q1985.1553,727.8825 1984.5244,727.8825 Q1983.1797,727.8825 1982.4949,728.9492 Q1981.8101,730.0158 1981.8101,732.1159 Q1981.8101,734.2077 1982.4949,735.2744 Q1983.1797,736.341 1984.5244,736.341 Q1985.1553,736.341 1985.7488,736.0712 Q1986.3423,735.8015 1986.9731,735.2204 Z " fill="#000000"/><text fill="#000000" font-family="sans-serif" font-size="14" lengthAdjust="spacing" textLength="90" x="1998" y="737.591">JobReference</text><line style="stroke:#181818;stroke-width:0.5;" x1="1970" x2="2090" y1="748.3" y2="748.3"/><ellipse cx="1980" cy="762.0441" fill="none" rx="3" ry="3" style="stroke:#038048;stroke-width:1.0;"/><text fill="#000000" font-family="sans-serif" font-size="14" lengthAdjust="spacing" textLength="62" x="1989" y="765.8352">id: String</text><line style="stroke:#181818;stroke-width:0.5;" x1="1970" x2="2090" y1="772.7883" y2="772.7883"/></g><!--class RecruitmentProcess--><g id="elem_RecruitmentProcess"><rect codeLine="47" fill="#F1F1F1" height="130.4414" id="RecruitmentProcess" rx="2.5" ry="2.5" style="stroke:#181818;stroke-width:0.5;" width="252" x="1682" y="683.32"/><ellipse cx="1736.25" cy="699.32" fill="#ADD1B2" rx="11" ry="11" style="stroke:#181818;stroke-width:1.0;"/><path d="M1739.2231,704.9631 Q1738.6421,705.2619 1738.0029,705.4113 Q1737.3638,705.5607 1736.6582,705.5607 Q1734.1514,705.5607 1732.8315,703.9089 Q1731.5117,702.257 1731.5117,699.1359 Q1731.5117,696.0065 1732.8315,694.3547 Q1734.1514,692.7028 1736.6582,692.7028 Q1737.3638,692.7028 1738.0112,692.8522 Q1738.6587,693.0016 1739.2231,693.3005 L1739.2231,696.0231 Q1738.5923,695.4421 1737.9988,695.1723 Q1737.4053,694.9025 1736.7744,694.9025 Q1735.4297,694.9025 1734.7449,695.9692 Q1734.0601,697.0358 1734.0601,699.1359 Q1734.0601,701.2277 1734.7449,702.2944 Q1735.4297,703.361 1736.7744,703.361 Q1737.4053,703.361 1737.9988,703.0912 Q1738.5923,702.8215 1739.2231,702.2404 Z " fill="#000000"/><text fill="#000000" font-family="sans-serif" font-size="14" lengthAdjust="spacing" textLength="135" x="1756.75" y="704.611">RecruitmentProcess</text><line style="stroke:#181818;stroke-width:0.5;" x1="1683" x2="1933" y1="715.32" y2="715.32"/><ellipse cx="1693" cy="729.0641" fill="none" rx="3" ry="3" style="stroke:#038048;stroke-width:1.0;"/><text fill="#000000" font-family="sans-serif" font-size="14" lengthAdjust="spacing" textLength="39" x="1702" y="732.8552">id: int</text><ellipse cx="1693" cy="745.5524" fill="none" rx="3" ry="3" style="stroke:#038048;stroke-width:1.0;"/><text fill="#000000" font-family="sans-serif" font-size="14" lengthAdjust="spacing" textLength="226" x="1702" y="749.3434">status: RecruitmentProcessStatus</text><ellipse cx="1693" cy="762.0407" fill="none" rx="3" ry="3" style="stroke:#038048;stroke-width:1.0;"/><text fill="#000000" font-family="sans-serif" font-size="14" lengthAdjust="spacing" textLength="141" x="1702" y="765.8317">phases: List&lt;Phase&gt;</text><line style="stroke:#181818;stroke-width:0.5;" x1="1683" x2="1933" y1="772.7848" y2="772.7848"/><ellipse cx="1693" cy="786.529" fill="#84BE84" rx="3" ry="3" style="stroke:#038048;stroke-width:1.0;"/><text fill="#000000" font-family="sans-serif" font-size="14" lengthAdjust="spacing" textLength="118" x="1702" y="790.32">nextPhase(): void</text><ellipse cx="1693" cy="803.0173" fill="#84BE84" rx="3" ry="3" style="stroke:#038048;stroke-width:1.0;"/><text fill="#000000" font-family="sans-serif" font-size="14" lengthAdjust="spacing" textLength="146" x="1702" y="806.8083">previousPhase(): void</text></g><!--class Phase--><g id="elem_Phase"><rect codeLine="55" fill="#F1F1F1" height="113.9531" id="Phase" rx="2.5" ry="2.5" style="stroke:#181818;stroke-width:0.5;" width="159" x="1740.5" y="890.77"/><ellipse cx="1795.75" cy="906.77" fill="#ADD1B2" rx="11" ry="11" style="stroke:#181818;stroke-width:1.0;"/><path d="M1798.7231,912.4131 Q1798.1421,912.7119 1797.5029,912.8613 Q1796.8638,913.0107 1796.1582,913.0107 Q1793.6514,913.0107 1792.3315,911.3589 Q1791.0117,909.707 1791.0117,906.5859 Q1791.0117,903.4565 1792.3315,901.8047 Q1793.6514,900.1528 1796.1582,900.1528 Q1796.8638,900.1528 1797.5112,900.3022 Q1798.1587,900.4516 1798.7231,900.7505 L1798.7231,903.4731 Q1798.0923,902.8921 1797.4988,902.6223 Q1796.9053,902.3525 1796.2744,902.3525 Q1794.9297,902.3525 1794.2449,903.4192 Q1793.5601,904.4858 1793.5601,906.5859 Q1793.5601,908.6777 1794.2449,909.7444 Q1794.9297,910.811 1796.2744,910.811 Q1796.9053,910.811 1797.4988,910.5412 Q1798.0923,910.2715 1798.7231,909.6904 Z " fill="#000000"/><text fill="#000000" font-family="sans-serif" font-size="14" lengthAdjust="spacing" textLength="40" x="1816.25" y="912.061">Phase</text><line style="stroke:#181818;stroke-width:0.5;" x1="1741.5" x2="1898.5" y1="922.77" y2="922.77"/><ellipse cx="1751.5" cy="936.5141" fill="none" rx="3" ry="3" style="stroke:#038048;stroke-width:1.0;"/><text fill="#000000" font-family="sans-serif" font-size="14" lengthAdjust="spacing" textLength="125" x="1760.5" y="940.3052">name: PhaseName</text><ellipse cx="1751.5" cy="953.0024" fill="none" rx="3" ry="3" style="stroke:#038048;stroke-width:1.0;"/><text fill="#000000" font-family="sans-serif" font-size="14" lengthAdjust="spacing" textLength="133" x="1760.5" y="956.7934">startDate: StartDate</text><ellipse cx="1751.5" cy="969.4907" fill="none" rx="3" ry="3" style="stroke:#038048;stroke-width:1.0;"/><text fill="#000000" font-family="sans-serif" font-size="14" lengthAdjust="spacing" textLength="122" x="1760.5" y="973.2817">endDate: EndDate</text><ellipse cx="1751.5" cy="985.979" fill="none" rx="3" ry="3" style="stroke:#038048;stroke-width:1.0;"/><text fill="#000000" font-family="sans-serif" font-size="14" lengthAdjust="spacing" textLength="131" x="1760.5" y="989.77">status: PhaseStatus</text><line style="stroke:#181818;stroke-width:0.5;" x1="1741.5" x2="1898.5" y1="996.7231" y2="996.7231"/></g><!--class PhaseName--><g id="elem_PhaseName"><rect codeLine="62" fill="#F1F1F1" height="130.4414" id="PhaseName" rx="2.5" ry="2.5" style="stroke:#181818;stroke-width:0.5;" width="111" x="1648.5" y="1064.72"/><ellipse cx="1663.5" cy="1080.72" fill="#EB937F" rx="11" ry="11" style="stroke:#181818;stroke-width:1.0;"/><path d="M1667.6143,1086.72 L1659.8945,1086.72 L1659.8945,1074.3269 L1667.6143,1074.3269 L1667.6143,1076.4851 L1662.3433,1076.4851 L1662.3433,1079.158 L1667.1162,1079.158 L1667.1162,1081.3162 L1662.3433,1081.3162 L1662.3433,1084.5618 L1667.6143,1084.5618 Z " fill="#000000"/><text fill="#000000" font-family="sans-serif" font-size="14" lengthAdjust="spacing" textLength="79" x="1677.5" y="1086.011">PhaseName</text><line style="stroke:#181818;stroke-width:0.5;" x1="1649.5" x2="1758.5" y1="1096.72" y2="1096.72"/><text fill="#000000" font-family="sans-serif" font-size="14" lengthAdjust="spacing" textLength="95" x="1654.5" y="1114.2552">APPLICATION,</text><text fill="#000000" font-family="sans-serif" font-size="14" lengthAdjust="spacing" textLength="81" x="1654.5" y="1130.7434">SCREENING,</text><text fill="#000000" font-family="sans-serif" font-size="14" lengthAdjust="spacing" textLength="85" x="1654.5" y="1147.2317">INTERVIEWS,</text><text fill="#000000" font-family="sans-serif" font-size="14" lengthAdjust="spacing" textLength="70" x="1654.5" y="1163.72">ANALYSIS,</text><text fill="#000000" font-family="sans-serif" font-size="14" lengthAdjust="spacing" textLength="51" x="1654.5" y="1180.2083">RESULT</text><line style="stroke:#181818;stroke-width:0.5;" x1="1649.5" x2="1758.5" y1="1187.1614" y2="1187.1614"/></g><!--class StartDate--><g id="elem_StartDate"><rect codeLine="70" fill="#F1F1F1" height="64.4883" id="StartDate" rx="2.5" ry="2.5" style="stroke:#181818;stroke-width:0.5;" width="95" x="1794.5" y="1097.7"/><ellipse cx="1809.5" cy="1113.7" fill="#ADD1B2" rx="11" ry="11" style="stroke:#181818;stroke-width:1.0;"/><path d="M1812.4731,1119.3431 Q1811.8921,1119.6419 1811.2529,1119.7913 Q1810.6138,1119.9407 1809.9082,1119.9407 Q1807.4014,1119.9407 1806.0815,1118.2889 Q1804.7617,1116.637 1804.7617,1113.5159 Q1804.7617,1110.3865 1806.0815,1108.7347 Q1807.4014,1107.0828 1809.9082,1107.0828 Q1810.6138,1107.0828 1811.2612,1107.2322 Q1811.9087,1107.3816 1812.4731,1107.6805 L1812.4731,1110.4031 Q1811.8423,1109.8221 1811.2488,1109.5523 Q1810.6553,1109.2825 1810.0244,1109.2825 Q1808.6797,1109.2825 1807.9949,1110.3492 Q1807.3101,1111.4158 1807.3101,1113.5159 Q1807.3101,1115.6077 1807.9949,1116.6744 Q1808.6797,1117.741 1810.0244,1117.741 Q1810.6553,1117.741 1811.2488,1117.4712 Q1811.8423,1117.2015 1812.4731,1116.6204 Z " fill="#000000"/><text fill="#000000" font-family="sans-serif" font-size="14" lengthAdjust="spacing" textLength="63" x="1823.5" y="1118.991">StartDate</text><line style="stroke:#181818;stroke-width:0.5;" x1="1795.5" x2="1888.5" y1="1129.7" y2="1129.7"/><ellipse cx="1805.5" cy="1143.4441" fill="none" rx="3" ry="3" style="stroke:#038048;stroke-width:1.0;"/><text fill="#000000" font-family="sans-serif" font-size="14" lengthAdjust="spacing" textLength="69" x="1814.5" y="1147.2352">date: Date</text><line style="stroke:#181818;stroke-width:0.5;" x1="1795.5" x2="1888.5" y1="1154.1883" y2="1154.1883"/></g><!--class EndDate--><g id="elem_EndDate"><rect codeLine="74" fill="#F1F1F1" height="64.4883" id="EndDate" rx="2.5" ry="2.5" style="stroke:#181818;stroke-width:0.5;" width="95" x="1924.5" y="1097.7"/><ellipse cx="1942.2" cy="1113.7" fill="#ADD1B2" rx="11" ry="11" style="stroke:#181818;stroke-width:1.0;"/><path d="M1945.1731,1119.3431 Q1944.5921,1119.6419 1943.9529,1119.7913 Q1943.3138,1119.9407 1942.6082,1119.9407 Q1940.1014,1119.9407 1938.7815,1118.2889 Q1937.4617,1116.637 1937.4617,1113.5159 Q1937.4617,1110.3865 1938.7815,1108.7347 Q1940.1014,1107.0828 1942.6082,1107.0828 Q1943.3138,1107.0828 1943.9612,1107.2322 Q1944.6087,1107.3816 1945.1731,1107.6805 L1945.1731,1110.4031 Q1944.5423,1109.8221 1943.9488,1109.5523 Q1943.3553,1109.2825 1942.7244,1109.2825 Q1941.3797,1109.2825 1940.6949,1110.3492 Q1940.0101,1111.4158 1940.0101,1113.5159 Q1940.0101,1115.6077 1940.6949,1116.6744 Q1941.3797,1117.741 1942.7244,1117.741 Q1943.3553,1117.741 1943.9488,1117.4712 Q1944.5423,1117.2015 1945.1731,1116.6204 Z " fill="#000000"/><text fill="#000000" font-family="sans-serif" font-size="14" lengthAdjust="spacing" textLength="57" x="1956.8" y="1118.991">EndDate</text><line style="stroke:#181818;stroke-width:0.5;" x1="1925.5" x2="2018.5" y1="1129.7" y2="1129.7"/><ellipse cx="1935.5" cy="1143.4441" fill="none" rx="3" ry="3" style="stroke:#038048;stroke-width:1.0;"/><text fill="#000000" font-family="sans-serif" font-size="14" lengthAdjust="spacing" textLength="69" x="1944.5" y="1147.2352">date: Date</text><line style="stroke:#181818;stroke-width:0.5;" x1="1925.5" x2="2018.5" y1="1154.1883" y2="1154.1883"/></g><!--class PhaseStatus--><g id="elem_PhaseStatus"><rect codeLine="78" fill="#F1F1F1" height="80.9766" id="PhaseStatus" rx="2.5" ry="2.5" style="stroke:#181818;stroke-width:0.5;" width="114" x="2054" y="1089.45"/><ellipse cx="2069" cy="1105.45" fill="#EB937F" rx="11" ry="11" style="stroke:#181818;stroke-width:1.0;"/><path d="M2073.1143,1111.45 L2065.3945,1111.45 L2065.3945,1099.0569 L2073.1143,1099.0569 L2073.1143,1101.2151 L2067.8433,1101.2151 L2067.8433,1103.888 L2072.6162,1103.888 L2072.6162,1106.0462 L2067.8433,1106.0462 L2067.8433,1109.2918 L2073.1143,1109.2918 Z " fill="#000000"/><text fill="#000000" font-family="sans-serif" font-size="14" lengthAdjust="spacing" textLength="82" x="2083" y="1110.741">PhaseStatus</text><line style="stroke:#181818;stroke-width:0.5;" x1="2055" x2="2167" y1="1121.45" y2="1121.45"/><text fill="#000000" font-family="sans-serif" font-size="14" lengthAdjust="spacing" textLength="41" x="2060" y="1138.9852">Open,</text><text fill="#000000" font-family="sans-serif" font-size="14" lengthAdjust="spacing" textLength="47" x="2060" y="1155.4734">Closed</text><line style="stroke:#181818;stroke-width:0.5;" x1="2055" x2="2167" y1="1162.4266" y2="1162.4266"/></g><!--class RecruitmentProcessStatus--><g id="elem_RecruitmentProcessStatus"><rect codeLine="83" fill="#F1F1F1" height="97.4648" id="RecruitmentProcessStatus" rx="2.5" ry="2.5" style="stroke:#181818;stroke-width:0.5;" width="209" x="1934.5" y="899.01"/><ellipse cx="1949.5" cy="915.01" fill="#EB937F" rx="11" ry="11" style="stroke:#181818;stroke-width:1.0;"/><path d="M1953.6143,921.01 L1945.8945,921.01 L1945.8945,908.6169 L1953.6143,908.6169 L1953.6143,910.7751 L1948.3433,910.7751 L1948.3433,913.448 L1953.1162,913.448 L1953.1162,915.6062 L1948.3433,915.6062 L1948.3433,918.8518 L1953.6143,918.8518 Z " fill="#000000"/><text fill="#000000" font-family="sans-serif" font-size="14" lengthAdjust="spacing" textLength="177" x="1963.5" y="920.301">RecruitmentProcessStatus</text><line style="stroke:#181818;stroke-width:0.5;" x1="1935.5" x2="2142.5" y1="931.01" y2="931.01"/><text fill="#000000" font-family="sans-serif" font-size="14" lengthAdjust="spacing" textLength="79" x="1940.5" y="948.5452">Uninitiated,</text><text fill="#000000" font-family="sans-serif" font-size="14" lengthAdjust="spacing" textLength="69" x="1940.5" y="965.0334">InProcess,</text><text fill="#000000" font-family="sans-serif" font-size="14" lengthAdjust="spacing" textLength="58" x="1940.5" y="981.5217">Finished</text><line style="stroke:#181818;stroke-width:0.5;" x1="1935.5" x2="2142.5" y1="988.4748" y2="988.4748"/></g><!--class PhasesUI--><g id="elem_PhasesUI"><rect codeLine="91" fill="#F1F1F1" height="97.4648" id="PhasesUI" rx="2.5" ry="2.5" style="stroke:#181818;stroke-width:0.5;" width="218" x="1267" y="41"/><ellipse cx="1341.25" cy="57" fill="#ADD1B2" rx="11" ry="11" style="stroke:#181818;stroke-width:1.0;"/><path d="M1344.2231,62.6431 Q1343.6421,62.9419 1343.0029,63.0913 Q1342.3638,63.2407 1341.6582,63.2407 Q1339.1514,63.2407 1337.8315,61.5889 Q1336.5117,59.937 1336.5117,56.8159 Q1336.5117,53.6865 1337.8315,52.0347 Q1339.1514,50.3828 1341.6582,50.3828 Q1342.3638,50.3828 1343.0112,50.5322 Q1343.6587,50.6816 1344.2231,50.9805 L1344.2231,53.7031 Q1343.5923,53.1221 1342.9988,52.8523 Q1342.4053,52.5825 1341.7744,52.5825 Q1340.4297,52.5825 1339.7449,53.6492 Q1339.0601,54.7158 1339.0601,56.8159 Q1339.0601,58.9077 1339.7449,59.9744 Q1340.4297,61.041 1341.7744,61.041 Q1342.4053,61.041 1342.9988,60.7712 Q1343.5923,60.5015 1344.2231,59.9204 Z " fill="#000000"/><text fill="#000000" font-family="sans-serif" font-size="14" lengthAdjust="spacing" textLength="61" x="1361.75" y="62.291">PhasesUI</text><line style="stroke:#181818;stroke-width:0.5;" x1="1268" x2="1484" y1="73" y2="73"/><rect fill="none" height="6" style="stroke:#C82930;stroke-width:1.0;" width="6" x="1275" y="83.7441"/><text fill="#000000" font-family="sans-serif" font-size="14" lengthAdjust="spacing" textLength="192" x="1287" y="90.5352">controller: PhasesController</text><line style="stroke:#181818;stroke-width:0.5;" x1="1268" x2="1484" y1="97.4883" y2="97.4883"/><ellipse cx="1278" cy="111.2324" fill="#84BE84" rx="3" ry="3" style="stroke:#038048;stroke-width:1.0;"/><text fill="#000000" font-family="sans-serif" font-size="14" lengthAdjust="spacing" textLength="102" x="1287" y="115.0234">doShow(): void</text><ellipse cx="1278" cy="127.7207" fill="#84BE84" rx="3" ry="3" style="stroke:#038048;stroke-width:1.0;"/><text fill="#000000" font-family="sans-serif" font-size="14" lengthAdjust="spacing" textLength="118" x="1287" y="131.5117">headline(): String</text></g><!--link PhasesController to PhaseValidatorService--><g id="link_PhasesController_PhaseValidatorService"><path codeLine="98" d="M1376,352.37 C1376,378.28 1376,402.43 1376,429.76 " fill="none" id="PhasesController-to-PhaseValidatorService" style="stroke:#181818;stroke-width:1.0;"/><polygon fill="#181818" points="1376,435.76,1380,426.76,1376,430.76,1372,426.76,1376,435.76" style="stroke:#181818;stroke-width:1.0;"/></g><!--link PhasesController to JobOpeningRepository--><g id="link_PhasesController_JobOpeningRepository"><path codeLine="99" d="M1222.58,352.35 C985.17,452.42 543.219,638.7097 365.769,713.4997 " fill="none" id="PhasesController-to-JobOpeningRepository" style="stroke:#181818;stroke-width:1.0;"/><polygon fill="#181818" points="360.24,715.83,370.087,716.0205,364.8475,713.8881,366.9799,708.6486,360.24,715.83" style="stroke:#181818;stroke-width:1.0;"/></g><!--link PhasesController to JobReference--><g id="link_PhasesController_JobReference"><path codeLine="100" d="M1514.64,352.28 C1638.46,414.43 1820.11,516.99 1952,640.32 C1975.88,662.65 1994.0668,688.1203 2008.3868,710.9003 " fill="none" id="PhasesController-to-JobReference" style="stroke:#181818;stroke-width:1.0;"/><polygon fill="#181818" points="2011.58,715.98,2010.1767,706.2316,2008.919,711.7469,2003.4037,710.4893,2011.58,715.98" style="stroke:#181818;stroke-width:1.0;"/></g><!--link PhaseValidatorService to ApplicationRepository--><g id="link_PhaseValidatorService_ApplicationRepository"><path codeLine="101" d="M1208.68,591.99 C1135.47,624.1 1056.4148,658.7703 988.2348,688.6703 " fill="none" id="PhaseValidatorService-to-ApplicationRepository" style="stroke:#181818;stroke-width:1.0;"/><polygon fill="#181818" points="982.74,691.08,992.5887,691.1286,987.319,689.0719,989.3758,683.8022,982.74,691.08" style="stroke:#181818;stroke-width:1.0;"/></g><!--link PhaseValidatorService to RecruitmentProcess--><g id="link_PhaseValidatorService_RecruitmentProcess"><path codeLine="102" d="M1531.16,599.77 C1556.85,613.27 1583.19,627.16 1608,640.32 C1633.84,654.03 1656.2317,665.9656 1682.5017,680.0456 " fill="none" id="PhaseValidatorService-to-RecruitmentProcess" style="stroke:#181818;stroke-width:1.0;"/><polygon fill="#181818" points="1687.79,682.88,1681.7471,675.1029,1683.3831,680.518,1677.9679,682.154,1687.79,682.88" style="stroke:#181818;stroke-width:1.0;"/></g><!--link PhaseValidatorService to RankRepository--><g id="link_PhaseValidatorService_RankRepository"><path codeLine="103" d="M1376,599.65 C1376,639.78 1376,679.92 1376,709.84 " fill="none" id="PhaseValidatorService-to-RankRepository" style="stroke:#181818;stroke-width:1.0;"/><polygon fill="#181818" points="1376,715.84,1380,706.84,1376,710.84,1372,706.84,1376,715.84" style="stroke:#181818;stroke-width:1.0;"/></g><!--link RecruitmentProcess to Phase--><g id="link_RecruitmentProcess_Phase"><path codeLine="104" d="M1811.93,814.11 C1813.43,838.71 1814.755,860.5411 1816.205,884.3311 " fill="none" id="RecruitmentProcess-to-Phase" style="stroke:#181818;stroke-width:1.0;"/><polygon fill="#181818" points="1816.57,890.32,1820.0151,881.0933,1816.2658,885.3293,1812.0299,881.58,1816.57,890.32" style="stroke:#181818;stroke-width:1.0;"/><text fill="#000000" font-family="sans-serif" font-size="13" lengthAdjust="spacing" textLength="22" x="1815" y="857.3384">has</text></g><!--link Phase to PhaseName--><g id="link_Phase_PhaseName"><path codeLine="105" d="M1783.93,1004.77 C1771.76,1023.68 1761.3278,1039.885 1748.7678,1059.395 " fill="none" id="Phase-to-PhaseName" style="stroke:#181818;stroke-width:1.0;"/><polygon fill="#181818" points="1745.52,1064.44,1753.755,1059.0378,1748.2265,1060.2359,1747.0284,1054.7073,1745.52,1064.44" style="stroke:#181818;stroke-width:1.0;"/></g><!--link Phase to StartDate--><g id="link_Phase_StartDate"><path codeLine="106" d="M1826.84,1004.77 C1830.56,1035.25 1834.3045,1065.874 1837.4145,1091.404 " fill="none" id="Phase-to-StartDate" style="stroke:#181818;stroke-width:1.0;"/><polygon fill="#181818" points="1838.14,1097.36,1841.0223,1087.9423,1837.5354,1092.3967,1833.081,1088.9097,1838.14,1097.36" style="stroke:#181818;stroke-width:1.0;"/></g><!--link Phase to EndDate--><g id="link_Phase_EndDate"><path codeLine="107" d="M1867.26,1004.77 C1892.97,1035.25 1919.9509,1067.2442 1941.4909,1092.7742 " fill="none" id="Phase-to-EndDate" style="stroke:#181818;stroke-width:1.0;"/><polygon fill="#181818" points="1945.36,1097.36,1942.6135,1087.9018,1942.1357,1093.5385,1936.4991,1093.0607,1945.36,1097.36" style="stroke:#181818;stroke-width:1.0;"/></g><!--link Phase to PhaseStatus--><g id="link_Phase_PhaseStatus"><path codeLine="108" d="M1899.98,995.4 C1905.72,998.59 1911.44,1001.73 1917,1004.72 C1969.51,1032.97 1987.43,1031.58 2037,1064.72 C2047.75,1071.9 2054.0725,1076.5892 2064.0625,1085.0992 " fill="none" id="Phase-to-PhaseStatus" style="stroke:#181818;stroke-width:1.0;"/><polygon fill="#181818" points="2068.63,1088.99,2064.3727,1080.1088,2064.8238,1085.7477,2059.1849,1086.1988,2068.63,1088.99" style="stroke:#181818;stroke-width:1.0;"/></g><!--link RecruitmentProcess to RecruitmentProcessStatus--><g id="link_RecruitmentProcess_RecruitmentProcessStatus"><path codeLine="109" d="M1883.64,814.11 C1915.88,841.63 1948.2658,869.2954 1978.0558,894.7154 " fill="none" id="RecruitmentProcess-to-RecruitmentProcessStatus" style="stroke:#181818;stroke-width:1.0;"/><polygon fill="#181818" points="1982.62,898.61,1978.3702,889.7252,1978.8165,895.3645,1973.1773,895.8108,1982.62,898.61" style="stroke:#181818;stroke-width:1.0;"/></g><!--link PhasesUI to PhasesController--><g id="link_PhasesUI_PhasesController"><path codeLine="111" d="M1376,138.92 C1376,163.73 1376,188.31 1376,215.13 " fill="none" id="PhasesUI-to-PhasesController" style="stroke:#181818;stroke-width:1.0;"/><polygon fill="#181818" points="1376,221.13,1380,212.13,1376,216.13,1372,212.13,1376,221.13" style="stroke:#181818;stroke-width:1.0;"/></g><!--SRC=[hLRRJkCm47tlLrWyiMBx0n6gLBfX5TGDLTAouj5D1cf8xSXssaKh_dsTIsExTWf5cvSaCsTknpEsIvozucT0CqObPqK17FqT8VLa1HO2BJPOW72KzJD6EroG74l6K-0xaa7GmX-En8R52ridK391bFOjG7TiVLy29VHPImqqXunNH6w1oWLd6GWHeCIHzGPNXuJWhWxp11ne1fSlnayJil_x5g180iVh0j1rAhdAO-AM1qrHIuwfIf0mUccOMLRle_VHgEpux6ftoJncns8KbsL1Cbo7CNcQ-iGcKPY-clZ4-lywezs2USdpqFvPeaxIUylu7lEyDbupLW2c7zlSAD9zHjQAQ4AiHV7reB4cL-Y9q5o3Rju-trpQgil62EjTKYjknYeg3TWvaGcL9pob6OUpYpdjCgAoRcVOY__dCm5H5V8h_YocxM5mbhPMdnEZnhlDzOlbK2ZVTcFrTcPKaWUedGPFhiui7bjQb0c9PUKTuRJHQ6JPxEC1cXCXhvlfcHWyKFWZ6s4zG3j6SaDNSjWHLWbNRsNUgCraATuU3eHOVLf9S_b33N5DG_UfjK3pLXUs7swnZKkZlYuDeDLMXpCocIuMysWsNKRtyVTUcCwIC8oZ-ASMHV4oJ1wYy7UgPTDuEdzC8qEIXEbgldJhxqinESYRIleoB8Ekle_Xkh2sQCEYtbrqQhE22SWTqw7cCFoir6QWDb8LE3Vue1rSYsuLJ6pw64R_hoBFjQ4NjfjtrjyY0kTUOJHSpj8DstiwSGCuBmXjcj0Q89M7SqyPZoS3jn4lr7iJ6KBgCz1_ejSm_v4zZFUSmYV0zldksJNwyb60BjJxelMcvSrCQfcUH2qxJE2HPJTw0q47jw9HtnEz9tFz_m40]--></g></svg>