<?xml version="1.0" encoding="us-ascii" standalone="no"?><svg xmlns="http://www.w3.org/2000/svg" xmlns:xlink="http://www.w3.org/1999/xlink" contentStyleType="text/css" height="890px" preserveAspectRatio="none" style="width:1382px;height:890px;background:#FFFFFF;" version="1.1" viewBox="0 0 1382 890" width="1382px" zoomAndPan="magnify"><defs/><g><rect fill="none" height="576.8105" style="stroke:#000000;stroke-width:1.5;" width="1365.5" x="10" y="215.7305"/><rect fill="none" height="149.5078" style="stroke:#000000;stroke-width:1.5;" width="787" x="578.5" y="269.3516"/><line style="stroke:#181818;stroke-width:0.5;stroke-dasharray:5.0,5.0;" x1="86" x2="86" y1="81.4883" y2="809.541"/><line style="stroke:#181818;stroke-width:0.5;stroke-dasharray:5.0,5.0;" x1="279" x2="279" y1="81.4883" y2="809.541"/><line style="stroke:#181818;stroke-width:0.5;stroke-dasharray:5.0,5.0;" x1="486" x2="486" y1="81.4883" y2="809.541"/><line style="stroke:#181818;stroke-width:0.5;stroke-dasharray:5.0,5.0;" x1="666.5" x2="666.5" y1="81.4883" y2="809.541"/><line style="stroke:#181818;stroke-width:0.5;stroke-dasharray:5.0,5.0;" x1="824.5" x2="824.5" y1="81.4883" y2="809.541"/><line style="stroke:#181818;stroke-width:0.5;stroke-dasharray:5.0,5.0;" x1="985.5" x2="985.5" y1="81.4883" y2="809.541"/><line style="stroke:#181818;stroke-width:0.5;stroke-dasharray:5.0,5.0;" x1="1153.5" x2="1153.5" y1="81.4883" y2="809.541"/><line style="stroke:#181818;stroke-width:0.5;stroke-dasharray:5.0,5.0;" x1="1298.5" x2="1298.5" y1="81.4883" y2="809.541"/><text fill="#000000" font-family="sans-serif" font-size="14" lengthAdjust="spacing" textLength="127" x="20" y="78.5352">CustomerManager</text><ellipse cx="86.5" cy="13.5" fill="#E2E2F0" rx="8" ry="8" style="stroke:#181818;stroke-width:0.5;"/><path d="M86.5,21.5 L86.5,48.5 M73.5,29.5 L99.5,29.5 M86.5,48.5 L73.5,63.5 M86.5,48.5 L99.5,63.5 " fill="none" style="stroke:#181818;stroke-width:0.5;"/><text fill="#000000" font-family="sans-serif" font-size="14" lengthAdjust="spacing" textLength="127" x="20" y="822.0762">CustomerManager</text><ellipse cx="86.5" cy="833.5293" fill="#E2E2F0" rx="8" ry="8" style="stroke:#181818;stroke-width:0.5;"/><path d="M86.5,841.5293 L86.5,868.5293 M73.5,849.5293 L99.5,849.5293 M86.5,868.5293 L73.5,883.5293 M86.5,868.5293 L99.5,883.5293 " fill="none" style="stroke:#181818;stroke-width:0.5;"/><text fill="#000000" font-family="sans-serif" font-size="14" lengthAdjust="spacing" textLength="61" x="246" y="78.5352">PhasesUI</text><path d="M259,37 L259,61 M259,49 L276,49 " fill="none" style="stroke:#181818;stroke-width:0.5;"/><ellipse cx="288" cy="49" fill="#E2E2F0" rx="12" ry="12" style="stroke:#181818;stroke-width:0.5;"/><text fill="#000000" font-family="sans-serif" font-size="14" lengthAdjust="spacing" textLength="61" x="246" y="822.0762">PhasesUI</text><path d="M259,829.0293 L259,853.0293 M259,841.0293 L276,841.0293 " fill="none" style="stroke:#181818;stroke-width:0.5;"/><ellipse cx="288" cy="841.0293" fill="#E2E2F0" rx="12" ry="12" style="stroke:#181818;stroke-width:0.5;"/><text fill="#000000" font-family="sans-serif" font-size="14" lengthAdjust="spacing" textLength="117" x="425" y="78.5352">PhasesController</text><ellipse cx="486.5" cy="49" fill="#E2E2F0" rx="12" ry="12" style="stroke:#181818;stroke-width:0.5;"/><polygon fill="#181818" points="482.5,37,488.5,32,486.5,37,488.5,42,482.5,37" style="stroke:#181818;stroke-width:1.0;"/><text fill="#000000" font-family="sans-serif" font-size="14" lengthAdjust="spacing" textLength="117" x="425" y="822.0762">PhasesController</text><ellipse cx="486.5" cy="841.0293" fill="#E2E2F0" rx="12" ry="12" style="stroke:#181818;stroke-width:0.5;"/><polygon fill="#181818" points="482.5,829.0293,488.5,824.0293,486.5,829.0293,488.5,834.0293,482.5,829.0293" style="stroke:#181818;stroke-width:1.0;"/><text fill="#000000" font-family="sans-serif" font-size="14" lengthAdjust="spacing" textLength="150" x="588.5" y="78.5352">PhaseValidatorService</text><ellipse cx="666.5" cy="49" fill="#E2E2F0" rx="12" ry="12" style="stroke:#181818;stroke-width:0.5;"/><line style="stroke:#181818;stroke-width:0.5;" x1="654.5" x2="678.5" y1="63" y2="63"/><text fill="#000000" font-family="sans-serif" font-size="14" lengthAdjust="spacing" textLength="150" x="588.5" y="822.0762">PhaseValidatorService</text><ellipse cx="666.5" cy="841.0293" fill="#E2E2F0" rx="12" ry="12" style="stroke:#181818;stroke-width:0.5;"/><line style="stroke:#181818;stroke-width:0.5;" x1="654.5" x2="678.5" y1="855.0293" y2="855.0293"/><text fill="#000000" font-family="sans-serif" font-size="14" lengthAdjust="spacing" textLength="135" x="754.5" y="78.5352">RecruitmentProcess</text><ellipse cx="825" cy="49" fill="#E2E2F0" rx="12" ry="12" style="stroke:#181818;stroke-width:0.5;"/><line style="stroke:#181818;stroke-width:0.5;" x1="813" x2="837" y1="63" y2="63"/><text fill="#000000" font-family="sans-serif" font-size="14" lengthAdjust="spacing" textLength="135" x="754.5" y="822.0762">RecruitmentProcess</text><ellipse cx="825" cy="841.0293" fill="#E2E2F0" rx="12" ry="12" style="stroke:#181818;stroke-width:0.5;"/><line style="stroke:#181818;stroke-width:0.5;" x1="813" x2="837" y1="855.0293" y2="855.0293"/><text fill="#000000" font-family="sans-serif" font-size="14" lengthAdjust="spacing" textLength="154" x="905.5" y="78.5352">JobOpeningRepository</text><ellipse cx="985.5" cy="49" fill="#E2E2F0" rx="12" ry="12" style="stroke:#181818;stroke-width:0.5;"/><line style="stroke:#181818;stroke-width:0.5;" x1="973.5" x2="997.5" y1="63" y2="63"/><text fill="#000000" font-family="sans-serif" font-size="14" lengthAdjust="spacing" textLength="154" x="905.5" y="822.0762">JobOpeningRepository</text><ellipse cx="985.5" cy="841.0293" fill="#E2E2F0" rx="12" ry="12" style="stroke:#181818;stroke-width:0.5;"/><line style="stroke:#181818;stroke-width:0.5;" x1="973.5" x2="997.5" y1="855.0293" y2="855.0293"/><text fill="#000000" font-family="sans-serif" font-size="14" lengthAdjust="spacing" textLength="151" x="1075.5" y="78.5352">ApplicationRepository</text><ellipse cx="1154" cy="49" fill="#E2E2F0" rx="12" ry="12" style="stroke:#181818;stroke-width:0.5;"/><line style="stroke:#181818;stroke-width:0.5;" x1="1142" x2="1166" y1="63" y2="63"/><text fill="#000000" font-family="sans-serif" font-size="14" lengthAdjust="spacing" textLength="151" x="1075.5" y="822.0762">ApplicationRepository</text><ellipse cx="1154" cy="841.0293" fill="#E2E2F0" rx="12" ry="12" style="stroke:#181818;stroke-width:0.5;"/><line style="stroke:#181818;stroke-width:0.5;" x1="1142" x2="1166" y1="855.0293" y2="855.0293"/><text fill="#000000" font-family="sans-serif" font-size="14" lengthAdjust="spacing" textLength="107" x="1242.5" y="78.5352">RankRepository</text><ellipse cx="1299" cy="49" fill="#E2E2F0" rx="12" ry="12" style="stroke:#181818;stroke-width:0.5;"/><line style="stroke:#181818;stroke-width:0.5;" x1="1287" x2="1311" y1="63" y2="63"/><text fill="#000000" font-family="sans-serif" font-size="14" lengthAdjust="spacing" textLength="107" x="1242.5" y="822.0762">RankRepository</text><ellipse cx="1299" cy="841.0293" fill="#E2E2F0" rx="12" ry="12" style="stroke:#181818;stroke-width:0.5;"/><line style="stroke:#181818;stroke-width:0.5;" x1="1287" x2="1311" y1="855.0293" y2="855.0293"/><polygon fill="#181818" points="267.5,108.7988,277.5,112.7988,267.5,116.7988,271.5,112.7988" style="stroke:#181818;stroke-width:1.0;"/><line style="stroke:#181818;stroke-width:1.0;" x1="86.5" x2="273.5" y1="112.7988" y2="112.7988"/><text fill="#000000" font-family="sans-serif" font-size="13" lengthAdjust="spacing" textLength="121" x="93.5" y="108.0566">Insert JobReference</text><polygon fill="#181818" points="474.5,138.1094,484.5,142.1094,474.5,146.1094,478.5,142.1094" style="stroke:#181818;stroke-width:1.0;"/><line style="stroke:#181818;stroke-width:1.0;" x1="279.5" x2="480.5" y1="142.1094" y2="142.1094"/><text fill="#000000" font-family="sans-serif" font-size="13" lengthAdjust="spacing" textLength="129" x="286.5" y="137.3672">Submit JobReference</text><polygon fill="#181818" points="973.5,167.4199,983.5,171.4199,973.5,175.4199,977.5,171.4199" style="stroke:#181818;stroke-width:1.0;"/><line style="stroke:#181818;stroke-width:1.0;" x1="486.5" x2="979.5" y1="171.4199" y2="171.4199"/><text fill="#000000" font-family="sans-serif" font-size="13" lengthAdjust="spacing" textLength="135" x="493.5" y="166.6777">Validate JobReference</text><polygon fill="#181818" points="497.5,196.7305,487.5,200.7305,497.5,204.7305,493.5,200.7305" style="stroke:#181818;stroke-width:1.0;"/><line style="stroke:#181818;stroke-width:1.0;stroke-dasharray:2.0,2.0;" x1="491.5" x2="984.5" y1="200.7305" y2="200.7305"/><text fill="#000000" font-family="sans-serif" font-size="13" lengthAdjust="spacing" textLength="187" x="503.5" y="195.9883">JobReference validation result</text><path d="M10,215.7305 L72,215.7305 L72,223.041 L62,233.041 L10,233.041 L10,215.7305 " fill="#EEEEEE" style="stroke:#000000;stroke-width:1.5;"/><rect fill="none" height="576.8105" style="stroke:#000000;stroke-width:1.5;" width="1365.5" x="10" y="215.7305"/><text fill="#000000" font-family="sans-serif" font-size="13" font-weight="bold" lengthAdjust="spacing" textLength="17" x="25" y="229.2988">alt</text><text fill="#000000" font-family="sans-serif" font-size="11" font-weight="bold" lengthAdjust="spacing" textLength="128" x="87" y="228.3652">[JobReference is valid]</text><polygon fill="#181818" points="654.5,250.3516,664.5,254.3516,654.5,258.3516,658.5,254.3516" style="stroke:#181818;stroke-width:1.0;"/><line style="stroke:#181818;stroke-width:1.0;" x1="486.5" x2="660.5" y1="254.3516" y2="254.3516"/><text fill="#000000" font-family="sans-serif" font-size="13" lengthAdjust="spacing" textLength="156" x="493.5" y="249.6094">Validate phase transition</text><path d="M578.5,269.3516 L640.5,269.3516 L640.5,276.6621 L630.5,286.6621 L578.5,286.6621 L578.5,269.3516 " fill="#EEEEEE" style="stroke:#000000;stroke-width:1.5;"/><rect fill="none" height="149.5078" style="stroke:#000000;stroke-width:1.5;" width="787" x="578.5" y="269.3516"/><text fill="#000000" font-family="sans-serif" font-size="13" font-weight="bold" lengthAdjust="spacing" textLength="17" x="593.5" y="282.9199">alt</text><text fill="#000000" font-family="sans-serif" font-size="11" font-weight="bold" lengthAdjust="spacing" textLength="177" x="655.5" y="281.9863">[Phase is for application check]</text><polygon fill="#181818" points="1142,303.9727,1152,307.9727,1142,311.9727,1146,307.9727" style="stroke:#181818;stroke-width:1.0;"/><line style="stroke:#181818;stroke-width:1.0;" x1="666.5" x2="1148" y1="307.9727" y2="307.9727"/><text fill="#000000" font-family="sans-serif" font-size="13" lengthAdjust="spacing" textLength="163" x="673.5" y="303.2305">Check applications status</text><polygon fill="#181818" points="677.5,333.2832,667.5,337.2832,677.5,341.2832,673.5,337.2832" style="stroke:#181818;stroke-width:1.0;"/><line style="stroke:#181818;stroke-width:1.0;stroke-dasharray:2.0,2.0;" x1="671.5" x2="1153" y1="337.2832" y2="337.2832"/><text fill="#000000" font-family="sans-serif" font-size="13" lengthAdjust="spacing" textLength="122" x="683.5" y="332.541">Applications status</text><line style="stroke:#000000;stroke-width:1.0;stroke-dasharray:2.0,2.0;" x1="578.5" x2="1365.5" y1="346.2832" y2="346.2832"/><text fill="#000000" font-family="sans-serif" font-size="11" font-weight="bold" lengthAdjust="spacing" textLength="140" x="583.5" y="356.918">[Phase is for rank check]</text><polygon fill="#181818" points="1287,377.5488,1297,381.5488,1287,385.5488,1291,381.5488" style="stroke:#181818;stroke-width:1.0;"/><line style="stroke:#181818;stroke-width:1.0;" x1="666.5" x2="1293" y1="381.5488" y2="381.5488"/><text fill="#000000" font-family="sans-serif" font-size="13" lengthAdjust="spacing" textLength="114" x="673.5" y="376.8066">Check rank status</text><polygon fill="#181818" points="677.5,406.8594,667.5,410.8594,677.5,414.8594,673.5,410.8594" style="stroke:#181818;stroke-width:1.0;"/><line style="stroke:#181818;stroke-width:1.0;stroke-dasharray:2.0,2.0;" x1="671.5" x2="1298" y1="410.8594" y2="410.8594"/><text fill="#000000" font-family="sans-serif" font-size="13" lengthAdjust="spacing" textLength="74" x="683.5" y="406.1172">Rank status</text><polygon fill="#181818" points="497.5,443.1699,487.5,447.1699,497.5,451.1699,493.5,447.1699" style="stroke:#181818;stroke-width:1.0;"/><line style="stroke:#181818;stroke-width:1.0;stroke-dasharray:2.0,2.0;" x1="491.5" x2="665.5" y1="447.1699" y2="447.1699"/><text fill="#000000" font-family="sans-serif" font-size="13" lengthAdjust="spacing" textLength="103" x="503.5" y="442.4277">Validation result</text><polygon fill="#181818" points="290.5,472.4805,280.5,476.4805,290.5,480.4805,286.5,476.4805" style="stroke:#181818;stroke-width:1.0;"/><line style="stroke:#181818;stroke-width:1.0;stroke-dasharray:2.0,2.0;" x1="284.5" x2="485.5" y1="476.4805" y2="476.4805"/><text fill="#000000" font-family="sans-serif" font-size="13" lengthAdjust="spacing" textLength="164" x="296.5" y="471.7383">Display transition options</text><polygon fill="#181818" points="267.5,501.791,277.5,505.791,267.5,509.791,271.5,505.791" style="stroke:#181818;stroke-width:1.0;"/><line style="stroke:#181818;stroke-width:1.0;" x1="86.5" x2="273.5" y1="505.791" y2="505.791"/><text fill="#000000" font-family="sans-serif" font-size="13" lengthAdjust="spacing" textLength="80" x="93.5" y="501.0488">Select action</text><polygon fill="#181818" points="474.5,531.1016,484.5,535.1016,474.5,539.1016,478.5,535.1016" style="stroke:#181818;stroke-width:1.0;"/><line style="stroke:#181818;stroke-width:1.0;" x1="279.5" x2="480.5" y1="535.1016" y2="535.1016"/><text fill="#000000" font-family="sans-serif" font-size="13" lengthAdjust="spacing" textLength="87" x="286.5" y="530.3594">Submit action</text><polygon fill="#181818" points="813,560.4121,823,564.4121,813,568.4121,817,564.4121" style="stroke:#181818;stroke-width:1.0;"/><line style="stroke:#181818;stroke-width:1.0;" x1="486.5" x2="819" y1="564.4121" y2="564.4121"/><text fill="#000000" font-family="sans-serif" font-size="13" lengthAdjust="spacing" textLength="128" x="493.5" y="559.6699">Update phase status</text><polygon fill="#181818" points="973.5,589.7227,983.5,593.7227,973.5,597.7227,977.5,593.7227" style="stroke:#181818;stroke-width:1.0;"/><line style="stroke:#181818;stroke-width:1.0;" x1="825" x2="979.5" y1="593.7227" y2="593.7227"/><text fill="#000000" font-family="sans-serif" font-size="13" lengthAdjust="spacing" textLength="84" x="832" y="588.9805">Save changes</text><polygon fill="#181818" points="836,619.0332,826,623.0332,836,627.0332,832,623.0332" style="stroke:#181818;stroke-width:1.0;"/><line style="stroke:#181818;stroke-width:1.0;stroke-dasharray:2.0,2.0;" x1="830" x2="984.5" y1="623.0332" y2="623.0332"/><text fill="#000000" font-family="sans-serif" font-size="13" lengthAdjust="spacing" textLength="94" x="842" y="618.291">Changes saved</text><polygon fill="#181818" points="497.5,648.3438,487.5,652.3438,497.5,656.3438,493.5,652.3438" style="stroke:#181818;stroke-width:1.0;"/><line style="stroke:#181818;stroke-width:1.0;stroke-dasharray:2.0,2.0;" x1="491.5" x2="824" y1="652.3438" y2="652.3438"/><text fill="#000000" font-family="sans-serif" font-size="13" lengthAdjust="spacing" textLength="94" x="503.5" y="647.6016">Status updated</text><polygon fill="#181818" points="290.5,677.6543,280.5,681.6543,290.5,685.6543,286.5,681.6543" style="stroke:#181818;stroke-width:1.0;"/><line style="stroke:#181818;stroke-width:1.0;stroke-dasharray:2.0,2.0;" x1="284.5" x2="485.5" y1="681.6543" y2="681.6543"/><text fill="#000000" font-family="sans-serif" font-size="13" lengthAdjust="spacing" textLength="183" x="296.5" y="676.9121">Display confirmation or error</text><polygon fill="#181818" points="97.5,706.9648,87.5,710.9648,97.5,714.9648,93.5,710.9648" style="stroke:#181818;stroke-width:1.0;"/><line style="stroke:#181818;stroke-width:1.0;stroke-dasharray:2.0,2.0;" x1="91.5" x2="278.5" y1="710.9648" y2="710.9648"/><text fill="#000000" font-family="sans-serif" font-size="13" lengthAdjust="spacing" textLength="169" x="103.5" y="706.2227">Show confirmation or error</text><line style="stroke:#000000;stroke-width:1.0;stroke-dasharray:2.0,2.0;" x1="10" x2="1375.5" y1="719.9648" y2="719.9648"/><text fill="#000000" font-family="sans-serif" font-size="11" font-weight="bold" lengthAdjust="spacing" textLength="150" x="15" y="730.5996">[JobReference is not valid]</text><polygon fill="#181818" points="290.5,751.2305,280.5,755.2305,290.5,759.2305,286.5,755.2305" style="stroke:#181818;stroke-width:1.0;"/><line style="stroke:#181818;stroke-width:1.0;stroke-dasharray:2.0,2.0;" x1="284.5" x2="485.5" y1="755.2305" y2="755.2305"/><text fill="#000000" font-family="sans-serif" font-size="13" lengthAdjust="spacing" textLength="140" x="296.5" y="750.4883">Display error message</text><polygon fill="#181818" points="97.5,780.541,87.5,784.541,97.5,788.541,93.5,784.541" style="stroke:#181818;stroke-width:1.0;"/><line style="stroke:#181818;stroke-width:1.0;stroke-dasharray:2.0,2.0;" x1="91.5" x2="278.5" y1="784.541" y2="784.541"/><text fill="#000000" font-family="sans-serif" font-size="13" lengthAdjust="spacing" textLength="126" x="103.5" y="779.7988">Show error message</text><!--SRC=[bLJBReCm4BpxA_O7-WCSAbNffPMgHaJjVMCsYHLZ8zkaojztCI6y34svcPtPcNtOA8DriAbzi2Mv3pHu92VsjZO5kYjiJ-Z9Vxq9QKrmLjz-RDgJPYYPeC8D-8rQ5SW9T-GkIb8Np4cwMeMIZrjd9NdVHTxj_hCYeymnfyfwnTnh5tkfAgqa1cNDF9YZEG_-Yaa5yFHyzvx1c_7aGYEMqu4S6RRMHNjaNrG6ktfVgYIZHpNCbFyCRdsWCJ-5XQUa_907bpORjm4S-Le78L2FlO7oBKm0VocZoVaCd5PD7893myPOIiHCZKvaDW87NXJiPmBoHF8SONVHgK2Zd1nZ1fk6FSpdmGSCjRzdJ1BxXisBULb8HfeB69N1PPuVzJ_UjCvup30nF4QkESqdR3A542ikaaloFTkBzF17L-5L-KhZTJ1fi5NiM6IlNgCTQP81KCO5wSN-k4Gp_7Wpvuz31b_LO2a7VPfZbo_X3Y_4CqPpf9QyUFzI3ZOj4JndAHQrqsL7lr376eh_38KVsODoPJjJNbDophf9evau6H8hdkpF0Zdk_lIfC3QiFXT9Sp4Vb5mtYpvgQapYDVy5]--></g></svg>