<?xml version="1.0" encoding="us-ascii" standalone="no"?><svg xmlns="http://www.w3.org/2000/svg" xmlns:xlink="http://www.w3.org/1999/xlink" contentStyleType="text/css" height="1691px" preserveAspectRatio="none" style="width:2472px;height:1691px;background:#FFFFFF;" version="1.1" viewBox="0 0 2472 1691" width="2472px" zoomAndPan="magnify"><defs/><g><rect fill="#FFFFFF" height="1479.9316" style="stroke:#181818;stroke-width:1.0;" width="10" x="264.5" y="112.7988"/><rect fill="#FFFFFF" height="117.2422" style="stroke:#181818;stroke-width:1.0;" width="10" x="605.5" y="142.1094"/><rect fill="#FFFFFF" height="935.3867" style="stroke:#181818;stroke-width:1.0;" width="10" x="605.5" y="347.2832"/><rect fill="#FFFFFF" height="192.8184" style="stroke:#181818;stroke-width:1.0;" width="10" x="605.5" y="1370.6016"/><rect fill="#FFFFFF" height="117.2422" style="stroke:#181818;stroke-width:1.0;" width="10" x="996.5" y="435.2148"/><rect fill="#FFFFFF" height="671.5918" style="stroke:#181818;stroke-width:1.0;" width="10" x="996.5" y="581.7676"/><rect fill="#FFFFFF" height="28" style="stroke:#181818;stroke-width:1.0;" width="10" x="1001.5" y="643.3887"/><rect fill="#FFFFFF" height="291.1523" style="stroke:#181818;stroke-width:1.0;" width="10" x="1001.5" y="789.2754"/><rect fill="#FFFFFF" height="28" style="stroke:#181818;stroke-width:1.0;" width="10" x="1006.5" y="855.8965"/><rect fill="#FFFFFF" height="28" style="stroke:#181818;stroke-width:1.0;" width="10" x="1006.5" y="943.1621"/><rect fill="#FFFFFF" height="28" style="stroke:#181818;stroke-width:1.0;" width="10" x="1006.5" y="1030.4277"/><rect fill="#FFFFFF" height="28" style="stroke:#181818;stroke-width:1.0;" width="10" x="1001.5" y="1116.7383"/><rect fill="#FFFFFF" height="28" style="stroke:#181818;stroke-width:1.0;" width="10" x="1001.5" y="1189.0488"/><rect fill="#FFFFFF" height="58.6211" style="stroke:#181818;stroke-width:1.0;" width="10" x="2040" y="171.4199"/><rect fill="#FFFFFF" height="58.6211" style="stroke:#181818;stroke-width:1.0;" width="10" x="2040" y="464.5254"/><rect fill="#FFFFFF" height="29.3105" style="stroke:#181818;stroke-width:1.0;" width="10" x="2203" y="376.5938"/><rect fill="#FFFFFF" height="29.3105" style="stroke:#181818;stroke-width:1.0;" width="10" x="2371.5" y="722.6543"/><rect fill="none" height="483.6602" style="stroke:#000000;stroke-width:1.5;" width="1561.5" x="903.5" y="596.7676"/><rect fill="none" height="264.1523" style="stroke:#000000;stroke-width:1.5;" width="476" x="913.5" y="809.2754"/><rect fill="none" height="90.8867" style="stroke:#000000;stroke-width:1.5;" width="1433" x="539" y="1385.6016"/><line style="stroke:#181818;stroke-width:0.5;stroke-dasharray:5.0,5.0;" x1="71" x2="71" y1="81.4883" y2="1610.7305"/><line style="stroke:#181818;stroke-width:0.5;stroke-dasharray:5.0,5.0;" x1="269" x2="269" y1="81.4883" y2="1610.7305"/><line style="stroke:#181818;stroke-width:0.5;stroke-dasharray:5.0,5.0;" x1="610" x2="610" y1="81.4883" y2="1610.7305"/><line style="stroke:#181818;stroke-width:0.5;stroke-dasharray:5.0,5.0;" x1="1001.5" x2="1001.5" y1="81.4883" y2="1610.7305"/><line style="stroke:#181818;stroke-width:0.5;stroke-dasharray:5.0,5.0;" x1="1736" x2="1736" y1="81.4883" y2="1610.7305"/><line style="stroke:#181818;stroke-width:0.5;stroke-dasharray:5.0,5.0;" x1="1891" x2="1891" y1="81.4883" y2="1610.7305"/><line style="stroke:#181818;stroke-width:0.5;stroke-dasharray:5.0,5.0;" x1="2045" x2="2045" y1="81.4883" y2="1610.7305"/><line style="stroke:#181818;stroke-width:0.5;stroke-dasharray:5.0,5.0;" x1="2208" x2="2208" y1="81.4883" y2="1610.7305"/><line style="stroke:#181818;stroke-width:0.5;stroke-dasharray:5.0,5.0;" x1="2376" x2="2376" y1="81.4883" y2="1610.7305"/><text fill="#000000" font-family="sans-serif" font-size="14" lengthAdjust="spacing" textLength="127" x="5" y="78.5352">CustomerManager</text><ellipse cx="71.5" cy="13.5" fill="#E2E2F0" rx="8" ry="8" style="stroke:#181818;stroke-width:0.5;"/><path d="M71.5,21.5 L71.5,48.5 M58.5,29.5 L84.5,29.5 M71.5,48.5 L58.5,63.5 M71.5,48.5 L84.5,63.5 " fill="none" style="stroke:#181818;stroke-width:0.5;"/><text fill="#000000" font-family="sans-serif" font-size="14" lengthAdjust="spacing" textLength="127" x="5" y="1623.2656">CustomerManager</text><ellipse cx="71.5" cy="1634.7188" fill="#E2E2F0" rx="8" ry="8" style="stroke:#181818;stroke-width:0.5;"/><path d="M71.5,1642.7188 L71.5,1669.7188 M58.5,1650.7188 L84.5,1650.7188 M71.5,1669.7188 L58.5,1684.7188 M71.5,1669.7188 L84.5,1684.7188 " fill="none" style="stroke:#181818;stroke-width:0.5;"/><text fill="#000000" font-family="sans-serif" font-size="14" lengthAdjust="spacing" textLength="61" x="236" y="78.5352">PhasesUI</text><path d="M249,37 L249,61 M249,49 L266,49 " fill="none" style="stroke:#181818;stroke-width:0.5;"/><ellipse cx="278" cy="49" fill="#E2E2F0" rx="12" ry="12" style="stroke:#181818;stroke-width:0.5;"/><text fill="#000000" font-family="sans-serif" font-size="14" lengthAdjust="spacing" textLength="61" x="236" y="1623.2656">PhasesUI</text><path d="M249,1630.2188 L249,1654.2188 M249,1642.2188 L266,1642.2188 " fill="none" style="stroke:#181818;stroke-width:0.5;"/><ellipse cx="278" cy="1642.2188" fill="#E2E2F0" rx="12" ry="12" style="stroke:#181818;stroke-width:0.5;"/><text fill="#000000" font-family="sans-serif" font-size="14" lengthAdjust="spacing" textLength="117" x="549" y="78.5352">PhasesController</text><ellipse cx="610.5" cy="49" fill="#E2E2F0" rx="12" ry="12" style="stroke:#181818;stroke-width:0.5;"/><polygon fill="#181818" points="606.5,37,612.5,32,610.5,37,612.5,42,606.5,37" style="stroke:#181818;stroke-width:1.0;"/><text fill="#000000" font-family="sans-serif" font-size="14" lengthAdjust="spacing" textLength="117" x="549" y="1623.2656">PhasesController</text><ellipse cx="610.5" cy="1642.2188" fill="#E2E2F0" rx="12" ry="12" style="stroke:#181818;stroke-width:0.5;"/><polygon fill="#181818" points="606.5,1630.2188,612.5,1625.2188,610.5,1630.2188,612.5,1635.2188,606.5,1630.2188" style="stroke:#181818;stroke-width:1.0;"/><text fill="#000000" font-family="sans-serif" font-size="14" lengthAdjust="spacing" textLength="150" x="923.5" y="78.5352">PhaseValidatorService</text><ellipse cx="1001.5" cy="49" fill="#E2E2F0" rx="12" ry="12" style="stroke:#181818;stroke-width:0.5;"/><line style="stroke:#181818;stroke-width:0.5;" x1="989.5" x2="1013.5" y1="63" y2="63"/><text fill="#000000" font-family="sans-serif" font-size="14" lengthAdjust="spacing" textLength="150" x="923.5" y="1623.2656">PhaseValidatorService</text><ellipse cx="1001.5" cy="1642.2188" fill="#E2E2F0" rx="12" ry="12" style="stroke:#181818;stroke-width:0.5;"/><line style="stroke:#181818;stroke-width:0.5;" x1="989.5" x2="1013.5" y1="1656.2188" y2="1656.2188"/><text fill="#000000" font-family="sans-serif" font-size="14" lengthAdjust="spacing" textLength="143" x="1662" y="78.5352">AuthorizationService</text><ellipse cx="1736.5" cy="49" fill="#E2E2F0" rx="12" ry="12" style="stroke:#181818;stroke-width:0.5;"/><line style="stroke:#181818;stroke-width:0.5;" x1="1724.5" x2="1748.5" y1="63" y2="63"/><text fill="#000000" font-family="sans-serif" font-size="14" lengthAdjust="spacing" textLength="143" x="1662" y="1623.2656">AuthorizationService</text><ellipse cx="1736.5" cy="1642.2188" fill="#E2E2F0" rx="12" ry="12" style="stroke:#181818;stroke-width:0.5;"/><line style="stroke:#181818;stroke-width:0.5;" x1="1724.5" x2="1748.5" y1="1656.2188" y2="1656.2188"/><text fill="#000000" font-family="sans-serif" font-size="14" lengthAdjust="spacing" textLength="135" x="1821" y="78.5352">RecruitmentProcess</text><ellipse cx="1891.5" cy="49" fill="#E2E2F0" rx="12" ry="12" style="stroke:#181818;stroke-width:0.5;"/><line style="stroke:#181818;stroke-width:0.5;" x1="1879.5" x2="1903.5" y1="63" y2="63"/><text fill="#000000" font-family="sans-serif" font-size="14" lengthAdjust="spacing" textLength="135" x="1821" y="1623.2656">RecruitmentProcess</text><ellipse cx="1891.5" cy="1642.2188" fill="#E2E2F0" rx="12" ry="12" style="stroke:#181818;stroke-width:0.5;"/><line style="stroke:#181818;stroke-width:0.5;" x1="1879.5" x2="1903.5" y1="1656.2188" y2="1656.2188"/><rect fill="#E2E2F0" height="30.4883" rx="2.5" ry="2.5" style="stroke:#181818;stroke-width:0.5;" width="146" x="1972" y="50"/><text fill="#000000" font-family="sans-serif" font-size="14" lengthAdjust="spacing" textLength="132" x="1979" y="70.5352">PersistenceContext</text><rect fill="#E2E2F0" height="30.4883" rx="2.5" ry="2.5" style="stroke:#181818;stroke-width:0.5;" width="146" x="1972" y="1609.7305"/><text fill="#000000" font-family="sans-serif" font-size="14" lengthAdjust="spacing" textLength="132" x="1979" y="1630.2656">PersistenceContext</text><text fill="#000000" font-family="sans-serif" font-size="14" lengthAdjust="spacing" textLength="154" x="2128" y="78.5352">JobOpeningRepository</text><path d="M2190,29 C2190,19 2208,19 2208,19 C2208,19 2226,19 2226,29 L2226,55 C2226,65 2208,65 2208,65 C2208,65 2190,65 2190,55 L2190,29 " fill="#E2E2F0" style="stroke:#181818;stroke-width:1.5;"/><path d="M2190,29 C2190,39 2208,39 2208,39 C2208,39 2226,39 2226,29 " fill="none" style="stroke:#181818;stroke-width:1.5;"/><text fill="#000000" font-family="sans-serif" font-size="14" lengthAdjust="spacing" textLength="154" x="2128" y="1623.2656">JobOpeningRepository</text><path d="M2190,1636.2188 C2190,1626.2188 2208,1626.2188 2208,1626.2188 C2208,1626.2188 2226,1626.2188 2226,1636.2188 L2226,1662.2188 C2226,1672.2188 2208,1672.2188 2208,1672.2188 C2208,1672.2188 2190,1672.2188 2190,1662.2188 L2190,1636.2188 " fill="#E2E2F0" style="stroke:#181818;stroke-width:1.5;"/><path d="M2190,1636.2188 C2190,1646.2188 2208,1646.2188 2208,1646.2188 C2208,1646.2188 2226,1646.2188 2226,1636.2188 " fill="none" style="stroke:#181818;stroke-width:1.5;"/><text fill="#000000" font-family="sans-serif" font-size="14" lengthAdjust="spacing" textLength="151" x="2298" y="78.5352">ApplicationRepository</text><path d="M2358.5,29 C2358.5,19 2376.5,19 2376.5,19 C2376.5,19 2394.5,19 2394.5,29 L2394.5,55 C2394.5,65 2376.5,65 2376.5,65 C2376.5,65 2358.5,65 2358.5,55 L2358.5,29 " fill="#E2E2F0" style="stroke:#181818;stroke-width:1.5;"/><path d="M2358.5,29 C2358.5,39 2376.5,39 2376.5,39 C2376.5,39 2394.5,39 2394.5,29 " fill="none" style="stroke:#181818;stroke-width:1.5;"/><text fill="#000000" font-family="sans-serif" font-size="14" lengthAdjust="spacing" textLength="151" x="2298" y="1623.2656">ApplicationRepository</text><path d="M2358.5,1636.2188 C2358.5,1626.2188 2376.5,1626.2188 2376.5,1626.2188 C2376.5,1626.2188 2394.5,1626.2188 2394.5,1636.2188 L2394.5,1662.2188 C2394.5,1672.2188 2376.5,1672.2188 2376.5,1672.2188 C2376.5,1672.2188 2358.5,1672.2188 2358.5,1662.2188 L2358.5,1636.2188 " fill="#E2E2F0" style="stroke:#181818;stroke-width:1.5;"/><path d="M2358.5,1636.2188 C2358.5,1646.2188 2376.5,1646.2188 2376.5,1646.2188 C2376.5,1646.2188 2394.5,1646.2188 2394.5,1636.2188 " fill="none" style="stroke:#181818;stroke-width:1.5;"/><rect fill="#FFFFFF" height="1479.9316" style="stroke:#181818;stroke-width:1.0;" width="10" x="264.5" y="112.7988"/><rect fill="#FFFFFF" height="117.2422" style="stroke:#181818;stroke-width:1.0;" width="10" x="605.5" y="142.1094"/><rect fill="#FFFFFF" height="935.3867" style="stroke:#181818;stroke-width:1.0;" width="10" x="605.5" y="347.2832"/><rect fill="#FFFFFF" height="192.8184" style="stroke:#181818;stroke-width:1.0;" width="10" x="605.5" y="1370.6016"/><rect fill="#FFFFFF" height="117.2422" style="stroke:#181818;stroke-width:1.0;" width="10" x="996.5" y="435.2148"/><rect fill="#FFFFFF" height="671.5918" style="stroke:#181818;stroke-width:1.0;" width="10" x="996.5" y="581.7676"/><rect fill="#FFFFFF" height="28" style="stroke:#181818;stroke-width:1.0;" width="10" x="1001.5" y="643.3887"/><rect fill="#FFFFFF" height="291.1523" style="stroke:#181818;stroke-width:1.0;" width="10" x="1001.5" y="789.2754"/><rect fill="#FFFFFF" height="28" style="stroke:#181818;stroke-width:1.0;" width="10" x="1006.5" y="855.8965"/><rect fill="#FFFFFF" height="28" style="stroke:#181818;stroke-width:1.0;" width="10" x="1006.5" y="943.1621"/><rect fill="#FFFFFF" height="28" style="stroke:#181818;stroke-width:1.0;" width="10" x="1006.5" y="1030.4277"/><rect fill="#FFFFFF" height="28" style="stroke:#181818;stroke-width:1.0;" width="10" x="1001.5" y="1116.7383"/><rect fill="#FFFFFF" height="28" style="stroke:#181818;stroke-width:1.0;" width="10" x="1001.5" y="1189.0488"/><rect fill="#FFFFFF" height="58.6211" style="stroke:#181818;stroke-width:1.0;" width="10" x="2040" y="171.4199"/><rect fill="#FFFFFF" height="58.6211" style="stroke:#181818;stroke-width:1.0;" width="10" x="2040" y="464.5254"/><rect fill="#FFFFFF" height="29.3105" style="stroke:#181818;stroke-width:1.0;" width="10" x="2203" y="376.5938"/><rect fill="#FFFFFF" height="29.3105" style="stroke:#181818;stroke-width:1.0;" width="10" x="2371.5" y="722.6543"/><polygon fill="#181818" points="252.5,108.7988,262.5,112.7988,252.5,116.7988,256.5,112.7988" style="stroke:#181818;stroke-width:1.0;"/><line style="stroke:#181818;stroke-width:1.0;" x1="0" x2="258.5" y1="112.7988" y2="112.7988"/><text fill="#000000" font-family="sans-serif" font-size="13" lengthAdjust="spacing" textLength="57" x="7" y="108.0566">doShow()</text><polygon fill="#181818" points="593.5,138.1094,603.5,142.1094,593.5,146.1094,597.5,142.1094" style="stroke:#181818;stroke-width:1.0;"/><line style="stroke:#181818;stroke-width:1.0;" x1="274.5" x2="599.5" y1="142.1094" y2="142.1094"/><text fill="#000000" font-family="sans-serif" font-size="13" lengthAdjust="spacing" textLength="38" x="281.5" y="137.3672">create</text><polygon fill="#181818" points="2028,167.4199,2038,171.4199,2028,175.4199,2032,171.4199" style="stroke:#181818;stroke-width:1.0;"/><line style="stroke:#181818;stroke-width:1.0;" x1="615.5" x2="2034" y1="171.4199" y2="171.4199"/><text fill="#000000" font-family="sans-serif" font-size="13" lengthAdjust="spacing" textLength="175" x="622.5" y="166.6777">repositories().jobOpenings()</text><polygon fill="#181818" points="2196,196.7305,2206,200.7305,2196,204.7305,2200,200.7305" style="stroke:#181818;stroke-width:1.0;"/><line style="stroke:#181818;stroke-width:1.0;" x1="2050" x2="2202" y1="200.7305" y2="200.7305"/><text fill="#000000" font-family="sans-serif" font-size="13" lengthAdjust="spacing" textLength="38" x="2057" y="195.9883">create</text><polygon fill="#181818" points="626.5,226.041,616.5,230.041,626.5,234.041,622.5,230.041" style="stroke:#181818;stroke-width:1.0;"/><line style="stroke:#181818;stroke-width:1.0;stroke-dasharray:2.0,2.0;" x1="620.5" x2="2044" y1="230.041" y2="230.041"/><text fill="#000000" font-family="sans-serif" font-size="13" lengthAdjust="spacing" textLength="292" x="632.5" y="225.2988">jobOpeningRepository : JobOpeningRepository</text><polygon fill="#181818" points="285.5,255.3516,275.5,259.3516,285.5,263.3516,281.5,259.3516" style="stroke:#181818;stroke-width:1.0;"/><line style="stroke:#181818;stroke-width:1.0;stroke-dasharray:2.0,2.0;" x1="279.5" x2="609.5" y1="259.3516" y2="259.3516"/><text fill="#000000" font-family="sans-serif" font-size="13" lengthAdjust="spacing" textLength="179" x="291.5" y="254.6094">controller : PhasesController</text><polygon fill="#181818" points="82.5,284.6621,72.5,288.6621,82.5,292.6621,78.5,288.6621" style="stroke:#181818;stroke-width:1.0;"/><line style="stroke:#181818;stroke-width:1.0;stroke-dasharray:2.0,2.0;" x1="76.5" x2="263.5" y1="288.6621" y2="288.6621"/><text fill="#000000" font-family="sans-serif" font-size="13" lengthAdjust="spacing" textLength="138" x="88.5" y="283.9199">Asks for JobReference</text><polygon fill="#181818" points="252.5,313.9727,262.5,317.9727,252.5,321.9727,256.5,317.9727" style="stroke:#181818;stroke-width:1.0;"/><line style="stroke:#181818;stroke-width:1.0;stroke-dasharray:2.0,2.0;" x1="71.5" x2="258.5" y1="317.9727" y2="317.9727"/><text fill="#000000" font-family="sans-serif" font-size="13" lengthAdjust="spacing" textLength="121" x="78.5" y="313.2305">Insert JobReference</text><polygon fill="#181818" points="593.5,343.2832,603.5,347.2832,593.5,351.2832,597.5,347.2832" style="stroke:#181818;stroke-width:1.0;"/><line style="stroke:#181818;stroke-width:1.0;" x1="274.5" x2="599.5" y1="347.2832" y2="347.2832"/><text fill="#000000" font-family="sans-serif" font-size="13" lengthAdjust="spacing" textLength="312" x="281.5" y="342.541">validateJobReference(jobReference : JobReference)</text><polygon fill="#181818" points="2191,372.5938,2201,376.5938,2191,380.5938,2195,376.5938" style="stroke:#181818;stroke-width:1.0;"/><line style="stroke:#181818;stroke-width:1.0;" x1="615.5" x2="2197" y1="376.5938" y2="376.5938"/><text fill="#000000" font-family="sans-serif" font-size="13" lengthAdjust="spacing" textLength="282" x="622.5" y="371.8516">findJobOpeningByJobReference(JobReference)</text><polygon fill="#181818" points="626.5,401.9043,616.5,405.9043,626.5,409.9043,622.5,405.9043" style="stroke:#181818;stroke-width:1.0;"/><line style="stroke:#181818;stroke-width:1.0;stroke-dasharray:2.0,2.0;" x1="620.5" x2="2207" y1="405.9043" y2="405.9043"/><text fill="#000000" font-family="sans-serif" font-size="13" lengthAdjust="spacing" textLength="158" x="632.5" y="401.1621">jobOpening : JobOpening</text><polygon fill="#181818" points="984.5,431.2148,994.5,435.2148,984.5,439.2148,988.5,435.2148" style="stroke:#181818;stroke-width:1.0;"/><line style="stroke:#181818;stroke-width:1.0;" x1="615.5" x2="990.5" y1="435.2148" y2="435.2148"/><text fill="#000000" font-family="sans-serif" font-size="13" lengthAdjust="spacing" textLength="303" x="622.5" y="430.4727">create(recruitmentProcess : RecruitmentProcess)</text><polygon fill="#181818" points="2028,460.5254,2038,464.5254,2028,468.5254,2032,464.5254" style="stroke:#181818;stroke-width:1.0;"/><line style="stroke:#181818;stroke-width:1.0;" x1="1006.5" x2="2034" y1="464.5254" y2="464.5254"/><text fill="#000000" font-family="sans-serif" font-size="13" lengthAdjust="spacing" textLength="165" x="1013.5" y="459.7832">repositories().application()</text><polygon fill="#181818" points="2364.5,489.8359,2374.5,493.8359,2364.5,497.8359,2368.5,493.8359" style="stroke:#181818;stroke-width:1.0;"/><line style="stroke:#181818;stroke-width:1.0;" x1="2050" x2="2370.5" y1="493.8359" y2="493.8359"/><text fill="#000000" font-family="sans-serif" font-size="13" lengthAdjust="spacing" textLength="38" x="2057" y="489.0938">create</text><polygon fill="#181818" points="1017.5,519.1465,1007.5,523.1465,1017.5,527.1465,1013.5,523.1465" style="stroke:#181818;stroke-width:1.0;"/><line style="stroke:#181818;stroke-width:1.0;stroke-dasharray:2.0,2.0;" x1="1011.5" x2="2044" y1="523.1465" y2="523.1465"/><text fill="#000000" font-family="sans-serif" font-size="13" lengthAdjust="spacing" textLength="288" x="1023.5" y="518.4043">applicationRepository : ApplicationRepository</text><polygon fill="#181818" points="626.5,548.457,616.5,552.457,626.5,556.457,622.5,552.457" style="stroke:#181818;stroke-width:1.0;"/><line style="stroke:#181818;stroke-width:1.0;stroke-dasharray:2.0,2.0;" x1="620.5" x2="1000.5" y1="552.457" y2="552.457"/><text fill="#000000" font-family="sans-serif" font-size="13" lengthAdjust="spacing" textLength="285" x="632.5" y="547.7148">phaseValidatorService : PhaseValidatorService</text><polygon fill="#181818" points="984.5,577.7676,994.5,581.7676,984.5,585.7676,988.5,581.7676" style="stroke:#181818;stroke-width:1.0;"/><line style="stroke:#181818;stroke-width:1.0;" x1="615.5" x2="990.5" y1="581.7676" y2="581.7676"/><text fill="#000000" font-family="sans-serif" font-size="13" lengthAdjust="spacing" textLength="362" x="622.5" y="577.0254">validatePhaseTransition(jobOpeningChosen : JobOpening)</text><path d="M903.5,596.7676 L965.5,596.7676 L965.5,604.0781 L955.5,614.0781 L903.5,614.0781 L903.5,596.7676 " fill="#EEEEEE" style="stroke:#000000;stroke-width:1.5;"/><rect fill="none" height="483.6602" style="stroke:#000000;stroke-width:1.5;" width="1561.5" x="903.5" y="596.7676"/><text fill="#000000" font-family="sans-serif" font-size="13" font-weight="bold" lengthAdjust="spacing" textLength="17" x="918.5" y="610.3359">alt</text><text fill="#000000" font-family="sans-serif" font-size="11" font-weight="bold" lengthAdjust="spacing" textLength="154" x="980.5" y="609.4023">[PhaseName == "Analysis"]</text><line style="stroke:#181818;stroke-width:1.0;" x1="1011.5" x2="1053.5" y1="635.3887" y2="635.3887"/><line style="stroke:#181818;stroke-width:1.0;" x1="1053.5" x2="1053.5" y1="635.3887" y2="648.3887"/><line style="stroke:#181818;stroke-width:1.0;" x1="1012.5" x2="1053.5" y1="648.3887" y2="648.3887"/><polygon fill="#181818" points="1022.5,644.3887,1012.5,648.3887,1022.5,652.3887,1018.5,648.3887" style="stroke:#181818;stroke-width:1.0;"/><text fill="#000000" font-family="sans-serif" font-size="13" lengthAdjust="spacing" textLength="209" x="1018.5" y="630.6465">validateRankOptions(rank : Rank)</text><line style="stroke:#000000;stroke-width:1.0;stroke-dasharray:2.0,2.0;" x1="903.5" x2="2465" y1="687.3887" y2="687.3887"/><text fill="#000000" font-family="sans-serif" font-size="11" font-weight="bold" lengthAdjust="spacing" textLength="148" x="908.5" y="698.0234">[PhaseName != "Analysis"]</text><polygon fill="#181818" points="2359.5,718.6543,2369.5,722.6543,2359.5,726.6543,2363.5,722.6543" style="stroke:#181818;stroke-width:1.0;"/><line style="stroke:#181818;stroke-width:1.0;" x1="1006.5" x2="2365.5" y1="722.6543" y2="722.6543"/><text fill="#000000" font-family="sans-serif" font-size="13" lengthAdjust="spacing" textLength="302" x="1013.5" y="717.9121">findByJobReference(jobReference : JobReference)</text><polygon fill="#181818" points="1017.5,747.9648,1007.5,751.9648,1017.5,755.9648,1013.5,751.9648" style="stroke:#181818;stroke-width:1.0;"/><line style="stroke:#181818;stroke-width:1.0;stroke-dasharray:2.0,2.0;" x1="1011.5" x2="2375.5" y1="751.9648" y2="751.9648"/><text fill="#000000" font-family="sans-serif" font-size="13" lengthAdjust="spacing" textLength="246" x="1023.5" y="747.2227">List&lt;JobApplication&gt; : jobApplications</text><line style="stroke:#181818;stroke-width:1.0;" x1="1006.5" x2="1053.5" y1="776.2754" y2="776.2754"/><line style="stroke:#181818;stroke-width:1.0;" x1="1053.5" x2="1053.5" y1="776.2754" y2="789.2754"/><line style="stroke:#181818;stroke-width:1.0;" x1="1012.5" x2="1053.5" y1="789.2754" y2="789.2754"/><polygon fill="#181818" points="1022.5,785.2754,1012.5,789.2754,1022.5,793.2754,1018.5,789.2754" style="stroke:#181818;stroke-width:1.0;"/><text fill="#000000" font-family="sans-serif" font-size="13" lengthAdjust="spacing" textLength="570" x="1018.5" y="771.5332">getSpecificPhaseCount(currentPhase : PhaseName, jobApplications : List&lt;jobApplication&gt;)</text><path d="M913.5,809.2754 L975.5,809.2754 L975.5,816.5859 L965.5,826.5859 L913.5,826.5859 L913.5,809.2754 " fill="#EEEEEE" style="stroke:#000000;stroke-width:1.5;"/><rect fill="none" height="264.1523" style="stroke:#000000;stroke-width:1.5;" width="476" x="913.5" y="809.2754"/><text fill="#000000" font-family="sans-serif" font-size="13" font-weight="bold" lengthAdjust="spacing" textLength="17" x="928.5" y="822.8438">alt</text><text fill="#000000" font-family="sans-serif" font-size="11" font-weight="bold" lengthAdjust="spacing" textLength="161" x="990.5" y="821.9102">[PhaseName == "Screening"]</text><line style="stroke:#181818;stroke-width:1.0;" x1="1016.5" x2="1058.5" y1="847.8965" y2="847.8965"/><line style="stroke:#181818;stroke-width:1.0;" x1="1058.5" x2="1058.5" y1="847.8965" y2="860.8965"/><line style="stroke:#181818;stroke-width:1.0;" x1="1017.5" x2="1058.5" y1="860.8965" y2="860.8965"/><polygon fill="#181818" points="1027.5,856.8965,1017.5,860.8965,1027.5,864.8965,1023.5,860.8965" style="stroke:#181818;stroke-width:1.0;"/><text fill="#000000" font-family="sans-serif" font-size="13" lengthAdjust="spacing" textLength="351" x="1023.5" y="843.1543">countScreening(jobApplications : List&lt;jobApplication&gt;)</text><line style="stroke:#000000;stroke-width:1.0;stroke-dasharray:2.0,2.0;" x1="913.5" x2="1389.5" y1="899.8965" y2="899.8965"/><text fill="#000000" font-family="sans-serif" font-size="11" font-weight="bold" lengthAdjust="spacing" textLength="165" x="918.5" y="910.5313">[PhaseName == "Interviews"]</text><line style="stroke:#181818;stroke-width:1.0;" x1="1016.5" x2="1058.5" y1="935.1621" y2="935.1621"/><line style="stroke:#181818;stroke-width:1.0;" x1="1058.5" x2="1058.5" y1="935.1621" y2="948.1621"/><line style="stroke:#181818;stroke-width:1.0;" x1="1017.5" x2="1058.5" y1="948.1621" y2="948.1621"/><polygon fill="#181818" points="1027.5,944.1621,1017.5,948.1621,1027.5,952.1621,1023.5,948.1621" style="stroke:#181818;stroke-width:1.0;"/><text fill="#000000" font-family="sans-serif" font-size="13" lengthAdjust="spacing" textLength="354" x="1023.5" y="930.4199">countInterviews(jobApplications : List&lt;jobApplication&gt;)</text><line style="stroke:#000000;stroke-width:1.0;stroke-dasharray:2.0,2.0;" x1="913.5" x2="1389.5" y1="987.1621" y2="987.1621"/><text fill="#000000" font-family="sans-serif" font-size="11" font-weight="bold" lengthAdjust="spacing" textLength="142" x="918.5" y="997.7969">[PhaseName == "Result"]</text><line style="stroke:#181818;stroke-width:1.0;" x1="1016.5" x2="1058.5" y1="1022.4277" y2="1022.4277"/><line style="stroke:#181818;stroke-width:1.0;" x1="1058.5" x2="1058.5" y1="1022.4277" y2="1035.4277"/><line style="stroke:#181818;stroke-width:1.0;" x1="1017.5" x2="1058.5" y1="1035.4277" y2="1035.4277"/><polygon fill="#181818" points="1027.5,1031.4277,1017.5,1035.4277,1027.5,1039.4277,1023.5,1035.4277" style="stroke:#181818;stroke-width:1.0;"/><text fill="#000000" font-family="sans-serif" font-size="13" lengthAdjust="spacing" textLength="336" x="1023.5" y="1017.6855">countResults(jobApplications : List&lt;jobApplication&gt;)</text><line style="stroke:#181818;stroke-width:1.0;" x1="1011.5" x2="1053.5" y1="1108.7383" y2="1108.7383"/><line style="stroke:#181818;stroke-width:1.0;" x1="1053.5" x2="1053.5" y1="1108.7383" y2="1121.7383"/><line style="stroke:#181818;stroke-width:1.0;" x1="1012.5" x2="1053.5" y1="1121.7383" y2="1121.7383"/><polygon fill="#181818" points="1022.5,1117.7383,1012.5,1121.7383,1022.5,1125.7383,1018.5,1121.7383" style="stroke:#181818;stroke-width:1.0;"/><text fill="#000000" font-family="sans-serif" font-size="13" lengthAdjust="spacing" textLength="711" x="1018.5" y="1103.9961">validatePhaseTransitionForward(currentPhase : PhaseName, numberOfApplications : int, specificPhaseCount : int)</text><line style="stroke:#181818;stroke-width:1.0;" x1="1011.5" x2="1053.5" y1="1181.0488" y2="1181.0488"/><line style="stroke:#181818;stroke-width:1.0;" x1="1053.5" x2="1053.5" y1="1181.0488" y2="1194.0488"/><line style="stroke:#181818;stroke-width:1.0;" x1="1012.5" x2="1053.5" y1="1194.0488" y2="1194.0488"/><polygon fill="#181818" points="1022.5,1190.0488,1012.5,1194.0488,1022.5,1198.0488,1018.5,1194.0488" style="stroke:#181818;stroke-width:1.0;"/><text fill="#000000" font-family="sans-serif" font-size="13" lengthAdjust="spacing" textLength="541" x="1018.5" y="1176.3066">validatePhaseTransitionBackward(currentPhase : PhaseName, specificPhaseCount : int)</text><polygon fill="#181818" points="626.5,1249.3594,616.5,1253.3594,626.5,1257.3594,622.5,1253.3594" style="stroke:#181818;stroke-width:1.0;"/><line style="stroke:#181818;stroke-width:1.0;stroke-dasharray:2.0,2.0;" x1="620.5" x2="1000.5" y1="1253.3594" y2="1253.3594"/><text fill="#000000" font-family="sans-serif" font-size="13" lengthAdjust="spacing" textLength="164" x="632.5" y="1248.6172">options : Iterable&lt;String&gt;</text><polygon fill="#181818" points="285.5,1278.6699,275.5,1282.6699,285.5,1286.6699,281.5,1282.6699" style="stroke:#181818;stroke-width:1.0;"/><line style="stroke:#181818;stroke-width:1.0;stroke-dasharray:2.0,2.0;" x1="279.5" x2="609.5" y1="1282.6699" y2="1282.6699"/><text fill="#000000" font-family="sans-serif" font-size="13" lengthAdjust="spacing" textLength="164" x="291.5" y="1277.9277">options : Iterable&lt;String&gt;</text><polygon fill="#181818" points="82.5,1307.9805,72.5,1311.9805,82.5,1315.9805,78.5,1311.9805" style="stroke:#181818;stroke-width:1.0;"/><line style="stroke:#181818;stroke-width:1.0;stroke-dasharray:2.0,2.0;" x1="76.5" x2="263.5" y1="1311.9805" y2="1311.9805"/><text fill="#000000" font-family="sans-serif" font-size="13" lengthAdjust="spacing" textLength="85" x="88.5" y="1307.2383">Show options</text><polygon fill="#181818" points="252.5,1337.291,262.5,1341.291,252.5,1345.291,256.5,1341.291" style="stroke:#181818;stroke-width:1.0;"/><line style="stroke:#181818;stroke-width:1.0;stroke-dasharray:2.0,2.0;" x1="71.5" x2="258.5" y1="1341.291" y2="1341.291"/><text fill="#000000" font-family="sans-serif" font-size="13" lengthAdjust="spacing" textLength="92" x="78.5" y="1336.5488">Choose option</text><polygon fill="#181818" points="593.5,1366.6016,603.5,1370.6016,593.5,1374.6016,597.5,1370.6016" style="stroke:#181818;stroke-width:1.0;"/><line style="stroke:#181818;stroke-width:1.0;" x1="274.5" x2="599.5" y1="1370.6016" y2="1370.6016"/><text fill="#000000" font-family="sans-serif" font-size="13" lengthAdjust="spacing" textLength="257" x="281.5" y="1365.8594">ProcessTransition(chosenOption : String)</text><path d="M539,1385.6016 L601,1385.6016 L601,1392.9121 L591,1402.9121 L539,1402.9121 L539,1385.6016 " fill="#EEEEEE" style="stroke:#000000;stroke-width:1.5;"/><rect fill="none" height="90.8867" style="stroke:#000000;stroke-width:1.5;" width="1433" x="539" y="1385.6016"/><text fill="#000000" font-family="sans-serif" font-size="13" font-weight="bold" lengthAdjust="spacing" textLength="17" x="554" y="1399.1699">alt</text><text fill="#000000" font-family="sans-serif" font-size="11" font-weight="bold" lengthAdjust="spacing" textLength="166" x="616" y="1398.2363">[chosenOption == "Forward"]</text><polygon fill="#181818" points="1879.5,1420.2227,1889.5,1424.2227,1879.5,1428.2227,1883.5,1424.2227" style="stroke:#181818;stroke-width:1.0;"/><line style="stroke:#181818;stroke-width:1.0;" x1="615.5" x2="1885.5" y1="1424.2227" y2="1424.2227"/><text fill="#000000" font-family="sans-serif" font-size="13" lengthAdjust="spacing" textLength="72" x="622.5" y="1419.4805">nextPhase()</text><line style="stroke:#000000;stroke-width:1.0;stroke-dasharray:2.0,2.0;" x1="539" x2="1972" y1="1433.2227" y2="1433.2227"/><text fill="#000000" font-family="sans-serif" font-size="11" font-weight="bold" lengthAdjust="spacing" textLength="174" x="544" y="1443.8574">[chosenOption == "Backward"]</text><polygon fill="#181818" points="1879.5,1464.4883,1889.5,1468.4883,1879.5,1472.4883,1883.5,1468.4883" style="stroke:#181818;stroke-width:1.0;"/><line style="stroke:#181818;stroke-width:1.0;" x1="615.5" x2="1885.5" y1="1468.4883" y2="1468.4883"/><text fill="#000000" font-family="sans-serif" font-size="13" lengthAdjust="spacing" textLength="98" x="622.5" y="1463.7461">previousPhase()</text><polygon fill="#181818" points="1724.5,1500.7988,1734.5,1504.7988,1724.5,1508.7988,1728.5,1504.7988" style="stroke:#181818;stroke-width:1.0;"/><line style="stroke:#181818;stroke-width:1.0;" x1="615.5" x2="1730.5" y1="1504.7988" y2="1504.7988"/><text fill="#000000" font-family="sans-serif" font-size="13" lengthAdjust="spacing" textLength="233" x="622.5" y="1500.0566">ensureAuthenticatedUserHasAnyOf();</text><polygon fill="#181818" points="2196,1530.1094,2206,1534.1094,2196,1538.1094,2200,1534.1094" style="stroke:#181818;stroke-width:1.0;"/><line style="stroke:#181818;stroke-width:1.0;" x1="615.5" x2="2202" y1="1534.1094" y2="1534.1094"/><text fill="#000000" font-family="sans-serif" font-size="13" lengthAdjust="spacing" textLength="241" x="622.5" y="1529.3672">save(jobOpeningChosen : JobOpening)</text><polygon fill="#181818" points="285.5,1559.4199,275.5,1563.4199,285.5,1567.4199,281.5,1563.4199" style="stroke:#181818;stroke-width:1.0;"/><line style="stroke:#181818;stroke-width:1.0;stroke-dasharray:2.0,2.0;" x1="279.5" x2="609.5" y1="1563.4199" y2="1563.4199"/><text fill="#000000" font-family="sans-serif" font-size="13" lengthAdjust="spacing" textLength="183" x="291.5" y="1558.6777">Display confirmation or error</text><polygon fill="#181818" points="82.5,1588.7305,72.5,1592.7305,82.5,1596.7305,78.5,1592.7305" style="stroke:#181818;stroke-width:1.0;"/><line style="stroke:#181818;stroke-width:1.0;stroke-dasharray:2.0,2.0;" x1="76.5" x2="268.5" y1="1592.7305" y2="1592.7305"/><text fill="#000000" font-family="sans-serif" font-size="13" lengthAdjust="spacing" textLength="169" x="88.5" y="1587.9883">Show confirmation or error</text><!--SRC=[pLVDSXen3Bxp52wdPQRf0z246KAdKpfjoK3Jkp4YE2psZkmbfKzVUPVzD-mIEcrp8Lx9qYVvaonpOJMoIMoitW5-vOe_0VQMEbOhZWVsiE46pEEq9xIogCFZXqcw2aaLb9NsgFY3XtB5oU02S2y5PC9nR3SQvIzkfLOrsHm4njBkQFc0Me0nlOYZbK96N5ds06YaiQ04EAVmq_R80r-ID_PPBsSHAAcUvX1f8ydneP2EeoYK8d5P4lTkHdbGGxRIYur-2GOzBgpSSmj5mDa_BDzG1Cs6J22GUdrVAI-DFSvE8nYoX1au2IOOl7lEWp8LNCqyUAoH3rzI2ho-FVu0d_rs_3c7ipWRcIYTWODMTjl8OzcsFyVkZCXYZSD3DZPRmzR4Ri8yXpMW0zMhgLN03DbK6K1RtN6E2KEsJpaFvIt1SscH9YrV3YxaZ2_XGxQMQbL8xWyLxoVSUO_EIvSRRwG58oeyA9-GruMt4dpj8gTfW8scGB9cfwZdij5__6uwLY8l6iYhAj7RWBgLeYSp_8GrVvlhK97Dj7XFFJg1nv_mUhNwJwGB6OhAIiJVaIkApPr5mSF9HXjG5JQsKeA7DfLyupjWTtUiFrOyF52A-cVeSXxXdAljB7BWJ40ujuwizDEAfJLR41eeeNtJ3UqfuhccKMiLtHgLdsD-DpUdq_M5Q7XBBaeRH-bDK_fYobdnExxicCZ34zX514AkfKXK9ZJUs434YAwNk2yPeLsQtzOHiIFqwkTHw_4o-clIRK7rdr2rdoXS78nmu7CZGLUi2PXslAsKT4erMhgefjHPI05Up3LX5LR-bxZcOEBGNXDJQk4V1QHMtPITuiNXdMZG7pM-S5oTgIyLxvQ0itKj7rBPjymq2ZMLNDzC_rHyzrniMmBywq5uhsuTPPcTKbdnPGYt2ulKD4QlkQShS_85fhiFxEujbbbkcTFfvgUh_wZSCg4VXyNI126IkI6ziIc45FcvmTnrySecrngEFEzxPvhci3faYcQlH9V6oQJLD4ncrEfkCqBOInsRt6vMoBMzlYSuXGxAn0XEw9xZL8gmUgGNq2TknkemMmU3zvqV9MJDy3sqZMSjnFeWJHJoWtiKhYNk4hYCtd20gF5QRdKq-ZZz3G00]--></g></svg>