<?xml version="1.0" encoding="us-ascii" standalone="no"?><svg xmlns="http://www.w3.org/2000/svg" xmlns:xlink="http://www.w3.org/1999/xlink" contentStyleType="text/css" height="1765px" preserveAspectRatio="none" style="width:2568px;height:1765px;background:#FFFFFF;" version="1.1" viewBox="0 0 2568 1765" width="2568px" zoomAndPan="magnify"><defs/><g><rect fill="#FFFFFF" height="1554.1738" style="stroke:#181818;stroke-width:1.0;" width="10" x="264.5" y="112.7988"/><rect fill="#FFFFFF" height="117.2422" style="stroke:#181818;stroke-width:1.0;" width="10" x="605.5" y="142.1094"/><rect fill="#FFFFFF" height="1009.6289" style="stroke:#181818;stroke-width:1.0;" width="10" x="605.5" y="347.2832"/><rect fill="#FFFFFF" height="192.8184" style="stroke:#181818;stroke-width:1.0;" width="10" x="605.5" y="1444.8438"/><rect fill="#FFFFFF" height="205.1738" style="stroke:#181818;stroke-width:1.0;" width="10" x="969.5" y="435.2148"/><rect fill="#FFFFFF" height="657.9023" style="stroke:#181818;stroke-width:1.0;" width="10" x="969.5" y="669.6992"/><rect fill="#FFFFFF" height="291.1523" style="stroke:#181818;stroke-width:1.0;" width="10" x="974.5" y="863.5176"/><rect fill="#FFFFFF" height="28" style="stroke:#181818;stroke-width:1.0;" width="10" x="979.5" y="930.1387"/><rect fill="#FFFFFF" height="28" style="stroke:#181818;stroke-width:1.0;" width="10" x="979.5" y="1017.4043"/><rect fill="#FFFFFF" height="28" style="stroke:#181818;stroke-width:1.0;" width="10" x="979.5" y="1104.6699"/><rect fill="#FFFFFF" height="28" style="stroke:#181818;stroke-width:1.0;" width="10" x="974.5" y="1190.9805"/><rect fill="#FFFFFF" height="28" style="stroke:#181818;stroke-width:1.0;" width="10" x="974.5" y="1263.291"/><rect fill="#FFFFFF" height="58.6211" style="stroke:#181818;stroke-width:1.0;" width="10" x="2013" y="171.4199"/><rect fill="#FFFFFF" height="58.6211" style="stroke:#181818;stroke-width:1.0;" width="10" x="2013" y="464.5254"/><rect fill="#FFFFFF" height="58.6211" style="stroke:#181818;stroke-width:1.0;" width="10" x="2013" y="552.457"/><rect fill="#FFFFFF" height="29.3105" style="stroke:#181818;stroke-width:1.0;" width="10" x="2176" y="376.5938"/><rect fill="#FFFFFF" height="29.3105" style="stroke:#181818;stroke-width:1.0;" width="10" x="2344.5" y="796.8965"/><rect fill="#FFFFFF" height="29.3105" style="stroke:#181818;stroke-width:1.0;" width="10" x="2489.5" y="723.3203"/><rect fill="none" height="469.9707" style="stroke:#000000;stroke-width:1.5;" width="1684.5" x="876.5" y="684.6992"/><rect fill="none" height="264.1523" style="stroke:#000000;stroke-width:1.5;" width="476" x="886.5" y="883.5176"/><rect fill="none" height="90.8867" style="stroke:#000000;stroke-width:1.5;" width="1406" x="539" y="1459.8438"/><line style="stroke:#181818;stroke-width:0.5;stroke-dasharray:5.0,5.0;" x1="71" x2="71" y1="81.4883" y2="1684.9727"/><line style="stroke:#181818;stroke-width:0.5;stroke-dasharray:5.0,5.0;" x1="269" x2="269" y1="81.4883" y2="1684.9727"/><line style="stroke:#181818;stroke-width:0.5;stroke-dasharray:5.0,5.0;" x1="610" x2="610" y1="81.4883" y2="1684.9727"/><line style="stroke:#181818;stroke-width:0.5;stroke-dasharray:5.0,5.0;" x1="974.5" x2="974.5" y1="81.4883" y2="1684.9727"/><line style="stroke:#181818;stroke-width:0.5;stroke-dasharray:5.0,5.0;" x1="1709" x2="1709" y1="81.4883" y2="1684.9727"/><line style="stroke:#181818;stroke-width:0.5;stroke-dasharray:5.0,5.0;" x1="1864" x2="1864" y1="81.4883" y2="1684.9727"/><line style="stroke:#181818;stroke-width:0.5;stroke-dasharray:5.0,5.0;" x1="2018" x2="2018" y1="81.4883" y2="1684.9727"/><line style="stroke:#181818;stroke-width:0.5;stroke-dasharray:5.0,5.0;" x1="2181" x2="2181" y1="81.4883" y2="1684.9727"/><line style="stroke:#181818;stroke-width:0.5;stroke-dasharray:5.0,5.0;" x1="2349" x2="2349" y1="81.4883" y2="1684.9727"/><line style="stroke:#181818;stroke-width:0.5;stroke-dasharray:5.0,5.0;" x1="2494" x2="2494" y1="81.4883" y2="1684.9727"/><text fill="#000000" font-family="sans-serif" font-size="14" lengthAdjust="spacing" textLength="127" x="5" y="78.5352">CustomerManager</text><ellipse cx="71.5" cy="13.5" fill="#E2E2F0" rx="8" ry="8" style="stroke:#181818;stroke-width:0.5;"/><path d="M71.5,21.5 L71.5,48.5 M58.5,29.5 L84.5,29.5 M71.5,48.5 L58.5,63.5 M71.5,48.5 L84.5,63.5 " fill="none" style="stroke:#181818;stroke-width:0.5;"/><text fill="#000000" font-family="sans-serif" font-size="14" lengthAdjust="spacing" textLength="127" x="5" y="1697.5078">CustomerManager</text><ellipse cx="71.5" cy="1708.9609" fill="#E2E2F0" rx="8" ry="8" style="stroke:#181818;stroke-width:0.5;"/><path d="M71.5,1716.9609 L71.5,1743.9609 M58.5,1724.9609 L84.5,1724.9609 M71.5,1743.9609 L58.5,1758.9609 M71.5,1743.9609 L84.5,1758.9609 " fill="none" style="stroke:#181818;stroke-width:0.5;"/><text fill="#000000" font-family="sans-serif" font-size="14" lengthAdjust="spacing" textLength="61" x="236" y="78.5352">PhasesUI</text><path d="M249,37 L249,61 M249,49 L266,49 " fill="none" style="stroke:#181818;stroke-width:0.5;"/><ellipse cx="278" cy="49" fill="#E2E2F0" rx="12" ry="12" style="stroke:#181818;stroke-width:0.5;"/><text fill="#000000" font-family="sans-serif" font-size="14" lengthAdjust="spacing" textLength="61" x="236" y="1697.5078">PhasesUI</text><path d="M249,1704.4609 L249,1728.4609 M249,1716.4609 L266,1716.4609 " fill="none" style="stroke:#181818;stroke-width:0.5;"/><ellipse cx="278" cy="1716.4609" fill="#E2E2F0" rx="12" ry="12" style="stroke:#181818;stroke-width:0.5;"/><text fill="#000000" font-family="sans-serif" font-size="14" lengthAdjust="spacing" textLength="117" x="549" y="78.5352">PhasesController</text><ellipse cx="610.5" cy="49" fill="#E2E2F0" rx="12" ry="12" style="stroke:#181818;stroke-width:0.5;"/><polygon fill="#181818" points="606.5,37,612.5,32,610.5,37,612.5,42,606.5,37" style="stroke:#181818;stroke-width:1.0;"/><text fill="#000000" font-family="sans-serif" font-size="14" lengthAdjust="spacing" textLength="117" x="549" y="1697.5078">PhasesController</text><ellipse cx="610.5" cy="1716.4609" fill="#E2E2F0" rx="12" ry="12" style="stroke:#181818;stroke-width:0.5;"/><polygon fill="#181818" points="606.5,1704.4609,612.5,1699.4609,610.5,1704.4609,612.5,1709.4609,606.5,1704.4609" style="stroke:#181818;stroke-width:1.0;"/><text fill="#000000" font-family="sans-serif" font-size="14" lengthAdjust="spacing" textLength="150" x="896.5" y="78.5352">PhaseValidatorService</text><ellipse cx="974.5" cy="49" fill="#E2E2F0" rx="12" ry="12" style="stroke:#181818;stroke-width:0.5;"/><line style="stroke:#181818;stroke-width:0.5;" x1="962.5" x2="986.5" y1="63" y2="63"/><text fill="#000000" font-family="sans-serif" font-size="14" lengthAdjust="spacing" textLength="150" x="896.5" y="1697.5078">PhaseValidatorService</text><ellipse cx="974.5" cy="1716.4609" fill="#E2E2F0" rx="12" ry="12" style="stroke:#181818;stroke-width:0.5;"/><line style="stroke:#181818;stroke-width:0.5;" x1="962.5" x2="986.5" y1="1730.4609" y2="1730.4609"/><text fill="#000000" font-family="sans-serif" font-size="14" lengthAdjust="spacing" textLength="143" x="1635" y="78.5352">AuthorizationService</text><ellipse cx="1709.5" cy="49" fill="#E2E2F0" rx="12" ry="12" style="stroke:#181818;stroke-width:0.5;"/><line style="stroke:#181818;stroke-width:0.5;" x1="1697.5" x2="1721.5" y1="63" y2="63"/><text fill="#000000" font-family="sans-serif" font-size="14" lengthAdjust="spacing" textLength="143" x="1635" y="1697.5078">AuthorizationService</text><ellipse cx="1709.5" cy="1716.4609" fill="#E2E2F0" rx="12" ry="12" style="stroke:#181818;stroke-width:0.5;"/><line style="stroke:#181818;stroke-width:0.5;" x1="1697.5" x2="1721.5" y1="1730.4609" y2="1730.4609"/><text fill="#000000" font-family="sans-serif" font-size="14" lengthAdjust="spacing" textLength="135" x="1794" y="78.5352">RecruitmentProcess</text><ellipse cx="1864.5" cy="49" fill="#E2E2F0" rx="12" ry="12" style="stroke:#181818;stroke-width:0.5;"/><line style="stroke:#181818;stroke-width:0.5;" x1="1852.5" x2="1876.5" y1="63" y2="63"/><text fill="#000000" font-family="sans-serif" font-size="14" lengthAdjust="spacing" textLength="135" x="1794" y="1697.5078">RecruitmentProcess</text><ellipse cx="1864.5" cy="1716.4609" fill="#E2E2F0" rx="12" ry="12" style="stroke:#181818;stroke-width:0.5;"/><line style="stroke:#181818;stroke-width:0.5;" x1="1852.5" x2="1876.5" y1="1730.4609" y2="1730.4609"/><rect fill="#E2E2F0" height="30.4883" rx="2.5" ry="2.5" style="stroke:#181818;stroke-width:0.5;" width="146" x="1945" y="50"/><text fill="#000000" font-family="sans-serif" font-size="14" lengthAdjust="spacing" textLength="132" x="1952" y="70.5352">PersistenceContext</text><rect fill="#E2E2F0" height="30.4883" rx="2.5" ry="2.5" style="stroke:#181818;stroke-width:0.5;" width="146" x="1945" y="1683.9727"/><text fill="#000000" font-family="sans-serif" font-size="14" lengthAdjust="spacing" textLength="132" x="1952" y="1704.5078">PersistenceContext</text><text fill="#000000" font-family="sans-serif" font-size="14" lengthAdjust="spacing" textLength="154" x="2101" y="78.5352">JobOpeningRepository</text><path d="M2163,29 C2163,19 2181,19 2181,19 C2181,19 2199,19 2199,29 L2199,55 C2199,65 2181,65 2181,65 C2181,65 2163,65 2163,55 L2163,29 " fill="#E2E2F0" style="stroke:#181818;stroke-width:1.5;"/><path d="M2163,29 C2163,39 2181,39 2181,39 C2181,39 2199,39 2199,29 " fill="none" style="stroke:#181818;stroke-width:1.5;"/><text fill="#000000" font-family="sans-serif" font-size="14" lengthAdjust="spacing" textLength="154" x="2101" y="1697.5078">JobOpeningRepository</text><path d="M2163,1710.4609 C2163,1700.4609 2181,1700.4609 2181,1700.4609 C2181,1700.4609 2199,1700.4609 2199,1710.4609 L2199,1736.4609 C2199,1746.4609 2181,1746.4609 2181,1746.4609 C2181,1746.4609 2163,1746.4609 2163,1736.4609 L2163,1710.4609 " fill="#E2E2F0" style="stroke:#181818;stroke-width:1.5;"/><path d="M2163,1710.4609 C2163,1720.4609 2181,1720.4609 2181,1720.4609 C2181,1720.4609 2199,1720.4609 2199,1710.4609 " fill="none" style="stroke:#181818;stroke-width:1.5;"/><text fill="#000000" font-family="sans-serif" font-size="14" lengthAdjust="spacing" textLength="151" x="2271" y="78.5352">ApplicationRepository</text><path d="M2331.5,29 C2331.5,19 2349.5,19 2349.5,19 C2349.5,19 2367.5,19 2367.5,29 L2367.5,55 C2367.5,65 2349.5,65 2349.5,65 C2349.5,65 2331.5,65 2331.5,55 L2331.5,29 " fill="#E2E2F0" style="stroke:#181818;stroke-width:1.5;"/><path d="M2331.5,29 C2331.5,39 2349.5,39 2349.5,39 C2349.5,39 2367.5,39 2367.5,29 " fill="none" style="stroke:#181818;stroke-width:1.5;"/><text fill="#000000" font-family="sans-serif" font-size="14" lengthAdjust="spacing" textLength="151" x="2271" y="1697.5078">ApplicationRepository</text><path d="M2331.5,1710.4609 C2331.5,1700.4609 2349.5,1700.4609 2349.5,1700.4609 C2349.5,1700.4609 2367.5,1700.4609 2367.5,1710.4609 L2367.5,1736.4609 C2367.5,1746.4609 2349.5,1746.4609 2349.5,1746.4609 C2349.5,1746.4609 2331.5,1746.4609 2331.5,1736.4609 L2331.5,1710.4609 " fill="#E2E2F0" style="stroke:#181818;stroke-width:1.5;"/><path d="M2331.5,1710.4609 C2331.5,1720.4609 2349.5,1720.4609 2349.5,1720.4609 C2349.5,1720.4609 2367.5,1720.4609 2367.5,1710.4609 " fill="none" style="stroke:#181818;stroke-width:1.5;"/><text fill="#000000" font-family="sans-serif" font-size="14" lengthAdjust="spacing" textLength="107" x="2438" y="78.5352">RankRepository</text><path d="M2476.5,29 C2476.5,19 2494.5,19 2494.5,19 C2494.5,19 2512.5,19 2512.5,29 L2512.5,55 C2512.5,65 2494.5,65 2494.5,65 C2494.5,65 2476.5,65 2476.5,55 L2476.5,29 " fill="#E2E2F0" style="stroke:#181818;stroke-width:1.5;"/><path d="M2476.5,29 C2476.5,39 2494.5,39 2494.5,39 C2494.5,39 2512.5,39 2512.5,29 " fill="none" style="stroke:#181818;stroke-width:1.5;"/><text fill="#000000" font-family="sans-serif" font-size="14" lengthAdjust="spacing" textLength="107" x="2438" y="1697.5078">RankRepository</text><path d="M2476.5,1710.4609 C2476.5,1700.4609 2494.5,1700.4609 2494.5,1700.4609 C2494.5,1700.4609 2512.5,1700.4609 2512.5,1710.4609 L2512.5,1736.4609 C2512.5,1746.4609 2494.5,1746.4609 2494.5,1746.4609 C2494.5,1746.4609 2476.5,1746.4609 2476.5,1736.4609 L2476.5,1710.4609 " fill="#E2E2F0" style="stroke:#181818;stroke-width:1.5;"/><path d="M2476.5,1710.4609 C2476.5,1720.4609 2494.5,1720.4609 2494.5,1720.4609 C2494.5,1720.4609 2512.5,1720.4609 2512.5,1710.4609 " fill="none" style="stroke:#181818;stroke-width:1.5;"/><rect fill="#FFFFFF" height="1554.1738" style="stroke:#181818;stroke-width:1.0;" width="10" x="264.5" y="112.7988"/><rect fill="#FFFFFF" height="117.2422" style="stroke:#181818;stroke-width:1.0;" width="10" x="605.5" y="142.1094"/><rect fill="#FFFFFF" height="1009.6289" style="stroke:#181818;stroke-width:1.0;" width="10" x="605.5" y="347.2832"/><rect fill="#FFFFFF" height="192.8184" style="stroke:#181818;stroke-width:1.0;" width="10" x="605.5" y="1444.8438"/><rect fill="#FFFFFF" height="205.1738" style="stroke:#181818;stroke-width:1.0;" width="10" x="969.5" y="435.2148"/><rect fill="#FFFFFF" height="657.9023" style="stroke:#181818;stroke-width:1.0;" width="10" x="969.5" y="669.6992"/><rect fill="#FFFFFF" height="291.1523" style="stroke:#181818;stroke-width:1.0;" width="10" x="974.5" y="863.5176"/><rect fill="#FFFFFF" height="28" style="stroke:#181818;stroke-width:1.0;" width="10" x="979.5" y="930.1387"/><rect fill="#FFFFFF" height="28" style="stroke:#181818;stroke-width:1.0;" width="10" x="979.5" y="1017.4043"/><rect fill="#FFFFFF" height="28" style="stroke:#181818;stroke-width:1.0;" width="10" x="979.5" y="1104.6699"/><rect fill="#FFFFFF" height="28" style="stroke:#181818;stroke-width:1.0;" width="10" x="974.5" y="1190.9805"/><rect fill="#FFFFFF" height="28" style="stroke:#181818;stroke-width:1.0;" width="10" x="974.5" y="1263.291"/><rect fill="#FFFFFF" height="58.6211" style="stroke:#181818;stroke-width:1.0;" width="10" x="2013" y="171.4199"/><rect fill="#FFFFFF" height="58.6211" style="stroke:#181818;stroke-width:1.0;" width="10" x="2013" y="464.5254"/><rect fill="#FFFFFF" height="58.6211" style="stroke:#181818;stroke-width:1.0;" width="10" x="2013" y="552.457"/><rect fill="#FFFFFF" height="29.3105" style="stroke:#181818;stroke-width:1.0;" width="10" x="2176" y="376.5938"/><rect fill="#FFFFFF" height="29.3105" style="stroke:#181818;stroke-width:1.0;" width="10" x="2344.5" y="796.8965"/><rect fill="#FFFFFF" height="29.3105" style="stroke:#181818;stroke-width:1.0;" width="10" x="2489.5" y="723.3203"/><polygon fill="#181818" points="252.5,108.7988,262.5,112.7988,252.5,116.7988,256.5,112.7988" style="stroke:#181818;stroke-width:1.0;"/><line style="stroke:#181818;stroke-width:1.0;" x1="0" x2="258.5" y1="112.7988" y2="112.7988"/><text fill="#000000" font-family="sans-serif" font-size="13" lengthAdjust="spacing" textLength="57" x="7" y="108.0566">doShow()</text><polygon fill="#181818" points="593.5,138.1094,603.5,142.1094,593.5,146.1094,597.5,142.1094" style="stroke:#181818;stroke-width:1.0;"/><line style="stroke:#181818;stroke-width:1.0;" x1="274.5" x2="599.5" y1="142.1094" y2="142.1094"/><text fill="#000000" font-family="sans-serif" font-size="13" lengthAdjust="spacing" textLength="38" x="281.5" y="137.3672">create</text><polygon fill="#181818" points="2001,167.4199,2011,171.4199,2001,175.4199,2005,171.4199" style="stroke:#181818;stroke-width:1.0;"/><line style="stroke:#181818;stroke-width:1.0;" x1="615.5" x2="2007" y1="171.4199" y2="171.4199"/><text fill="#000000" font-family="sans-serif" font-size="13" lengthAdjust="spacing" textLength="175" x="622.5" y="166.6777">repositories().jobOpenings()</text><polygon fill="#181818" points="2169,196.7305,2179,200.7305,2169,204.7305,2173,200.7305" style="stroke:#181818;stroke-width:1.0;"/><line style="stroke:#181818;stroke-width:1.0;" x1="2023" x2="2175" y1="200.7305" y2="200.7305"/><text fill="#000000" font-family="sans-serif" font-size="13" lengthAdjust="spacing" textLength="38" x="2030" y="195.9883">create</text><polygon fill="#181818" points="626.5,226.041,616.5,230.041,626.5,234.041,622.5,230.041" style="stroke:#181818;stroke-width:1.0;"/><line style="stroke:#181818;stroke-width:1.0;stroke-dasharray:2.0,2.0;" x1="620.5" x2="2017" y1="230.041" y2="230.041"/><text fill="#000000" font-family="sans-serif" font-size="13" lengthAdjust="spacing" textLength="292" x="632.5" y="225.2988">jobOpeningRepository : JobOpeningRepository</text><polygon fill="#181818" points="285.5,255.3516,275.5,259.3516,285.5,263.3516,281.5,259.3516" style="stroke:#181818;stroke-width:1.0;"/><line style="stroke:#181818;stroke-width:1.0;stroke-dasharray:2.0,2.0;" x1="279.5" x2="609.5" y1="259.3516" y2="259.3516"/><text fill="#000000" font-family="sans-serif" font-size="13" lengthAdjust="spacing" textLength="179" x="291.5" y="254.6094">controller : PhasesController</text><polygon fill="#181818" points="82.5,284.6621,72.5,288.6621,82.5,292.6621,78.5,288.6621" style="stroke:#181818;stroke-width:1.0;"/><line style="stroke:#181818;stroke-width:1.0;stroke-dasharray:2.0,2.0;" x1="76.5" x2="263.5" y1="288.6621" y2="288.6621"/><text fill="#000000" font-family="sans-serif" font-size="13" lengthAdjust="spacing" textLength="138" x="88.5" y="283.9199">Asks for JobReference</text><polygon fill="#181818" points="252.5,313.9727,262.5,317.9727,252.5,321.9727,256.5,317.9727" style="stroke:#181818;stroke-width:1.0;"/><line style="stroke:#181818;stroke-width:1.0;stroke-dasharray:2.0,2.0;" x1="71.5" x2="258.5" y1="317.9727" y2="317.9727"/><text fill="#000000" font-family="sans-serif" font-size="13" lengthAdjust="spacing" textLength="121" x="78.5" y="313.2305">Insert JobReference</text><polygon fill="#181818" points="593.5,343.2832,603.5,347.2832,593.5,351.2832,597.5,347.2832" style="stroke:#181818;stroke-width:1.0;"/><line style="stroke:#181818;stroke-width:1.0;" x1="274.5" x2="599.5" y1="347.2832" y2="347.2832"/><text fill="#000000" font-family="sans-serif" font-size="13" lengthAdjust="spacing" textLength="312" x="281.5" y="342.541">validateJobReference(jobReference : JobReference)</text><polygon fill="#181818" points="2164,372.5938,2174,376.5938,2164,380.5938,2168,376.5938" style="stroke:#181818;stroke-width:1.0;"/><line style="stroke:#181818;stroke-width:1.0;" x1="615.5" x2="2170" y1="376.5938" y2="376.5938"/><text fill="#000000" font-family="sans-serif" font-size="13" lengthAdjust="spacing" textLength="282" x="622.5" y="371.8516">findJobOpeningByJobReference(JobReference)</text><polygon fill="#181818" points="626.5,401.9043,616.5,405.9043,626.5,409.9043,622.5,405.9043" style="stroke:#181818;stroke-width:1.0;"/><line style="stroke:#181818;stroke-width:1.0;stroke-dasharray:2.0,2.0;" x1="620.5" x2="2180" y1="405.9043" y2="405.9043"/><text fill="#000000" font-family="sans-serif" font-size="13" lengthAdjust="spacing" textLength="158" x="632.5" y="401.1621">jobOpening : JobOpening</text><polygon fill="#181818" points="957.5,431.2148,967.5,435.2148,957.5,439.2148,961.5,435.2148" style="stroke:#181818;stroke-width:1.0;"/><line style="stroke:#181818;stroke-width:1.0;" x1="615.5" x2="963.5" y1="435.2148" y2="435.2148"/><text fill="#000000" font-family="sans-serif" font-size="13" lengthAdjust="spacing" textLength="303" x="622.5" y="430.4727">create(recruitmentProcess : RecruitmentProcess)</text><polygon fill="#181818" points="2001,460.5254,2011,464.5254,2001,468.5254,2005,464.5254" style="stroke:#181818;stroke-width:1.0;"/><line style="stroke:#181818;stroke-width:1.0;" x1="979.5" x2="2007" y1="464.5254" y2="464.5254"/><text fill="#000000" font-family="sans-serif" font-size="13" lengthAdjust="spacing" textLength="165" x="986.5" y="459.7832">repositories().application()</text><polygon fill="#181818" points="2337.5,489.8359,2347.5,493.8359,2337.5,497.8359,2341.5,493.8359" style="stroke:#181818;stroke-width:1.0;"/><line style="stroke:#181818;stroke-width:1.0;" x1="2023" x2="2343.5" y1="493.8359" y2="493.8359"/><text fill="#000000" font-family="sans-serif" font-size="13" lengthAdjust="spacing" textLength="38" x="2030" y="489.0938">create</text><polygon fill="#181818" points="990.5,519.1465,980.5,523.1465,990.5,527.1465,986.5,523.1465" style="stroke:#181818;stroke-width:1.0;"/><line style="stroke:#181818;stroke-width:1.0;stroke-dasharray:2.0,2.0;" x1="984.5" x2="2017" y1="523.1465" y2="523.1465"/><text fill="#000000" font-family="sans-serif" font-size="13" lengthAdjust="spacing" textLength="288" x="996.5" y="518.4043">applicationRepository : ApplicationRepository</text><polygon fill="#181818" points="2001,548.457,2011,552.457,2001,556.457,2005,552.457" style="stroke:#181818;stroke-width:1.0;"/><line style="stroke:#181818;stroke-width:1.0;" x1="979.5" x2="2007" y1="552.457" y2="552.457"/><text fill="#000000" font-family="sans-serif" font-size="13" lengthAdjust="spacing" textLength="123" x="986.5" y="547.7148">repositories().rank()</text><polygon fill="#181818" points="2482.5,577.7676,2492.5,581.7676,2482.5,585.7676,2486.5,581.7676" style="stroke:#181818;stroke-width:1.0;"/><line style="stroke:#181818;stroke-width:1.0;" x1="2023" x2="2488.5" y1="581.7676" y2="581.7676"/><text fill="#000000" font-family="sans-serif" font-size="13" lengthAdjust="spacing" textLength="38" x="2030" y="577.0254">create</text><polygon fill="#181818" points="990.5,607.0781,980.5,611.0781,990.5,615.0781,986.5,611.0781" style="stroke:#181818;stroke-width:1.0;"/><line style="stroke:#181818;stroke-width:1.0;stroke-dasharray:2.0,2.0;" x1="984.5" x2="2017" y1="611.0781" y2="611.0781"/><text fill="#000000" font-family="sans-serif" font-size="13" lengthAdjust="spacing" textLength="205" x="996.5" y="606.3359">rankRepository : RankRepository</text><polygon fill="#181818" points="626.5,636.3887,616.5,640.3887,626.5,644.3887,622.5,640.3887" style="stroke:#181818;stroke-width:1.0;"/><line style="stroke:#181818;stroke-width:1.0;stroke-dasharray:2.0,2.0;" x1="620.5" x2="973.5" y1="640.3887" y2="640.3887"/><text fill="#000000" font-family="sans-serif" font-size="13" lengthAdjust="spacing" textLength="285" x="632.5" y="635.6465">phaseValidatorService : PhaseValidatorService</text><polygon fill="#181818" points="957.5,665.6992,967.5,669.6992,957.5,673.6992,961.5,669.6992" style="stroke:#181818;stroke-width:1.0;"/><line style="stroke:#181818;stroke-width:1.0;" x1="615.5" x2="963.5" y1="669.6992" y2="669.6992"/><text fill="#000000" font-family="sans-serif" font-size="13" lengthAdjust="spacing" textLength="335" x="622.5" y="664.957">validatePhaseTransition(jobReference : JobReference))</text><path d="M876.5,684.6992 L938.5,684.6992 L938.5,692.0098 L928.5,702.0098 L876.5,702.0098 L876.5,684.6992 " fill="#EEEEEE" style="stroke:#000000;stroke-width:1.5;"/><rect fill="none" height="469.9707" style="stroke:#000000;stroke-width:1.5;" width="1684.5" x="876.5" y="684.6992"/><text fill="#000000" font-family="sans-serif" font-size="13" font-weight="bold" lengthAdjust="spacing" textLength="17" x="891.5" y="698.2676">alt</text><text fill="#000000" font-family="sans-serif" font-size="11" font-weight="bold" lengthAdjust="spacing" textLength="154" x="953.5" y="697.334">[PhaseName == "Analysis"]</text><polygon fill="#181818" points="2477.5,719.3203,2487.5,723.3203,2477.5,727.3203,2481.5,723.3203" style="stroke:#181818;stroke-width:1.0;"/><line style="stroke:#181818;stroke-width:1.0;" x1="979.5" x2="2483.5" y1="723.3203" y2="723.3203"/><text fill="#000000" font-family="sans-serif" font-size="13" lengthAdjust="spacing" textLength="302" x="986.5" y="718.5781">findByJobReference(jobReference : JobReference)</text><polygon fill="#181818" points="990.5,748.6309,980.5,752.6309,990.5,756.6309,986.5,752.6309" style="stroke:#181818;stroke-width:1.0;"/><line style="stroke:#181818;stroke-width:1.0;stroke-dasharray:2.0,2.0;" x1="984.5" x2="2493.5" y1="752.6309" y2="752.6309"/><text fill="#000000" font-family="sans-serif" font-size="13" lengthAdjust="spacing" textLength="71" x="996.5" y="747.8887">rank : Rank</text><line style="stroke:#000000;stroke-width:1.0;stroke-dasharray:2.0,2.0;" x1="876.5" x2="2561" y1="761.6309" y2="761.6309"/><text fill="#000000" font-family="sans-serif" font-size="11" font-weight="bold" lengthAdjust="spacing" textLength="148" x="881.5" y="772.2656">[PhaseName != "Analysis"]</text><polygon fill="#181818" points="2332.5,792.8965,2342.5,796.8965,2332.5,800.8965,2336.5,796.8965" style="stroke:#181818;stroke-width:1.0;"/><line style="stroke:#181818;stroke-width:1.0;" x1="979.5" x2="2338.5" y1="796.8965" y2="796.8965"/><text fill="#000000" font-family="sans-serif" font-size="13" lengthAdjust="spacing" textLength="302" x="986.5" y="792.1543">findByJobReference(jobReference : JobReference)</text><polygon fill="#181818" points="990.5,822.207,980.5,826.207,990.5,830.207,986.5,826.207" style="stroke:#181818;stroke-width:1.0;"/><line style="stroke:#181818;stroke-width:1.0;stroke-dasharray:2.0,2.0;" x1="984.5" x2="2348.5" y1="826.207" y2="826.207"/><text fill="#000000" font-family="sans-serif" font-size="13" lengthAdjust="spacing" textLength="246" x="996.5" y="821.4648">List&lt;JobApplication&gt; : jobApplications</text><line style="stroke:#181818;stroke-width:1.0;" x1="979.5" x2="1026.5" y1="850.5176" y2="850.5176"/><line style="stroke:#181818;stroke-width:1.0;" x1="1026.5" x2="1026.5" y1="850.5176" y2="863.5176"/><line style="stroke:#181818;stroke-width:1.0;" x1="985.5" x2="1026.5" y1="863.5176" y2="863.5176"/><polygon fill="#181818" points="995.5,859.5176,985.5,863.5176,995.5,867.5176,991.5,863.5176" style="stroke:#181818;stroke-width:1.0;"/><text fill="#000000" font-family="sans-serif" font-size="13" lengthAdjust="spacing" textLength="570" x="991.5" y="845.7754">getSpecificPhaseCount(currentPhase : PhaseName, jobApplications : List&lt;jobApplication&gt;)</text><path d="M886.5,883.5176 L948.5,883.5176 L948.5,890.8281 L938.5,900.8281 L886.5,900.8281 L886.5,883.5176 " fill="#EEEEEE" style="stroke:#000000;stroke-width:1.5;"/><rect fill="none" height="264.1523" style="stroke:#000000;stroke-width:1.5;" width="476" x="886.5" y="883.5176"/><text fill="#000000" font-family="sans-serif" font-size="13" font-weight="bold" lengthAdjust="spacing" textLength="17" x="901.5" y="897.0859">alt</text><text fill="#000000" font-family="sans-serif" font-size="11" font-weight="bold" lengthAdjust="spacing" textLength="161" x="963.5" y="896.1523">[PhaseName == "Screening"]</text><line style="stroke:#181818;stroke-width:1.0;" x1="989.5" x2="1031.5" y1="922.1387" y2="922.1387"/><line style="stroke:#181818;stroke-width:1.0;" x1="1031.5" x2="1031.5" y1="922.1387" y2="935.1387"/><line style="stroke:#181818;stroke-width:1.0;" x1="990.5" x2="1031.5" y1="935.1387" y2="935.1387"/><polygon fill="#181818" points="1000.5,931.1387,990.5,935.1387,1000.5,939.1387,996.5,935.1387" style="stroke:#181818;stroke-width:1.0;"/><text fill="#000000" font-family="sans-serif" font-size="13" lengthAdjust="spacing" textLength="351" x="996.5" y="917.3965">countScreening(jobApplications : List&lt;jobApplication&gt;)</text><line style="stroke:#000000;stroke-width:1.0;stroke-dasharray:2.0,2.0;" x1="886.5" x2="1362.5" y1="974.1387" y2="974.1387"/><text fill="#000000" font-family="sans-serif" font-size="11" font-weight="bold" lengthAdjust="spacing" textLength="165" x="891.5" y="984.7734">[PhaseName == "Interviews"]</text><line style="stroke:#181818;stroke-width:1.0;" x1="989.5" x2="1031.5" y1="1009.4043" y2="1009.4043"/><line style="stroke:#181818;stroke-width:1.0;" x1="1031.5" x2="1031.5" y1="1009.4043" y2="1022.4043"/><line style="stroke:#181818;stroke-width:1.0;" x1="990.5" x2="1031.5" y1="1022.4043" y2="1022.4043"/><polygon fill="#181818" points="1000.5,1018.4043,990.5,1022.4043,1000.5,1026.4043,996.5,1022.4043" style="stroke:#181818;stroke-width:1.0;"/><text fill="#000000" font-family="sans-serif" font-size="13" lengthAdjust="spacing" textLength="354" x="996.5" y="1004.6621">countInterviews(jobApplications : List&lt;jobApplication&gt;)</text><line style="stroke:#000000;stroke-width:1.0;stroke-dasharray:2.0,2.0;" x1="886.5" x2="1362.5" y1="1061.4043" y2="1061.4043"/><text fill="#000000" font-family="sans-serif" font-size="11" font-weight="bold" lengthAdjust="spacing" textLength="142" x="891.5" y="1072.0391">[PhaseName == "Result"]</text><line style="stroke:#181818;stroke-width:1.0;" x1="989.5" x2="1031.5" y1="1096.6699" y2="1096.6699"/><line style="stroke:#181818;stroke-width:1.0;" x1="1031.5" x2="1031.5" y1="1096.6699" y2="1109.6699"/><line style="stroke:#181818;stroke-width:1.0;" x1="990.5" x2="1031.5" y1="1109.6699" y2="1109.6699"/><polygon fill="#181818" points="1000.5,1105.6699,990.5,1109.6699,1000.5,1113.6699,996.5,1109.6699" style="stroke:#181818;stroke-width:1.0;"/><text fill="#000000" font-family="sans-serif" font-size="13" lengthAdjust="spacing" textLength="336" x="996.5" y="1091.9277">countResults(jobApplications : List&lt;jobApplication&gt;)</text><line style="stroke:#181818;stroke-width:1.0;" x1="984.5" x2="1026.5" y1="1182.9805" y2="1182.9805"/><line style="stroke:#181818;stroke-width:1.0;" x1="1026.5" x2="1026.5" y1="1182.9805" y2="1195.9805"/><line style="stroke:#181818;stroke-width:1.0;" x1="985.5" x2="1026.5" y1="1195.9805" y2="1195.9805"/><polygon fill="#181818" points="995.5,1191.9805,985.5,1195.9805,995.5,1199.9805,991.5,1195.9805" style="stroke:#181818;stroke-width:1.0;"/><text fill="#000000" font-family="sans-serif" font-size="13" lengthAdjust="spacing" textLength="711" x="991.5" y="1178.2383">validatePhaseTransitionForward(currentPhase : PhaseName, numberOfApplications : int, specificPhaseCount : int)</text><line style="stroke:#181818;stroke-width:1.0;" x1="984.5" x2="1026.5" y1="1255.291" y2="1255.291"/><line style="stroke:#181818;stroke-width:1.0;" x1="1026.5" x2="1026.5" y1="1255.291" y2="1268.291"/><line style="stroke:#181818;stroke-width:1.0;" x1="985.5" x2="1026.5" y1="1268.291" y2="1268.291"/><polygon fill="#181818" points="995.5,1264.291,985.5,1268.291,995.5,1272.291,991.5,1268.291" style="stroke:#181818;stroke-width:1.0;"/><text fill="#000000" font-family="sans-serif" font-size="13" lengthAdjust="spacing" textLength="541" x="991.5" y="1250.5488">validatePhaseTransitionBackward(currentPhase : PhaseName, specificPhaseCount : int)</text><polygon fill="#181818" points="626.5,1323.6016,616.5,1327.6016,626.5,1331.6016,622.5,1327.6016" style="stroke:#181818;stroke-width:1.0;"/><line style="stroke:#181818;stroke-width:1.0;stroke-dasharray:2.0,2.0;" x1="620.5" x2="973.5" y1="1327.6016" y2="1327.6016"/><text fill="#000000" font-family="sans-serif" font-size="13" lengthAdjust="spacing" textLength="164" x="632.5" y="1322.8594">options : Iterable&lt;String&gt;</text><polygon fill="#181818" points="285.5,1352.9121,275.5,1356.9121,285.5,1360.9121,281.5,1356.9121" style="stroke:#181818;stroke-width:1.0;"/><line style="stroke:#181818;stroke-width:1.0;stroke-dasharray:2.0,2.0;" x1="279.5" x2="609.5" y1="1356.9121" y2="1356.9121"/><text fill="#000000" font-family="sans-serif" font-size="13" lengthAdjust="spacing" textLength="164" x="291.5" y="1352.1699">options : Iterable&lt;String&gt;</text><polygon fill="#181818" points="82.5,1382.2227,72.5,1386.2227,82.5,1390.2227,78.5,1386.2227" style="stroke:#181818;stroke-width:1.0;"/><line style="stroke:#181818;stroke-width:1.0;stroke-dasharray:2.0,2.0;" x1="76.5" x2="263.5" y1="1386.2227" y2="1386.2227"/><text fill="#000000" font-family="sans-serif" font-size="13" lengthAdjust="spacing" textLength="85" x="88.5" y="1381.4805">Show options</text><polygon fill="#181818" points="252.5,1411.5332,262.5,1415.5332,252.5,1419.5332,256.5,1415.5332" style="stroke:#181818;stroke-width:1.0;"/><line style="stroke:#181818;stroke-width:1.0;stroke-dasharray:2.0,2.0;" x1="71.5" x2="258.5" y1="1415.5332" y2="1415.5332"/><text fill="#000000" font-family="sans-serif" font-size="13" lengthAdjust="spacing" textLength="92" x="78.5" y="1410.791">Choose option</text><polygon fill="#181818" points="593.5,1440.8438,603.5,1444.8438,593.5,1448.8438,597.5,1444.8438" style="stroke:#181818;stroke-width:1.0;"/><line style="stroke:#181818;stroke-width:1.0;" x1="274.5" x2="599.5" y1="1444.8438" y2="1444.8438"/><text fill="#000000" font-family="sans-serif" font-size="13" lengthAdjust="spacing" textLength="257" x="281.5" y="1440.1016">ProcessTransition(chosenOption : String)</text><path d="M539,1459.8438 L601,1459.8438 L601,1467.1543 L591,1477.1543 L539,1477.1543 L539,1459.8438 " fill="#EEEEEE" style="stroke:#000000;stroke-width:1.5;"/><rect fill="none" height="90.8867" style="stroke:#000000;stroke-width:1.5;" width="1406" x="539" y="1459.8438"/><text fill="#000000" font-family="sans-serif" font-size="13" font-weight="bold" lengthAdjust="spacing" textLength="17" x="554" y="1473.4121">alt</text><text fill="#000000" font-family="sans-serif" font-size="11" font-weight="bold" lengthAdjust="spacing" textLength="166" x="616" y="1472.4785">[chosenOption == "Forward"]</text><polygon fill="#181818" points="1852.5,1494.4648,1862.5,1498.4648,1852.5,1502.4648,1856.5,1498.4648" style="stroke:#181818;stroke-width:1.0;"/><line style="stroke:#181818;stroke-width:1.0;" x1="615.5" x2="1858.5" y1="1498.4648" y2="1498.4648"/><text fill="#000000" font-family="sans-serif" font-size="13" lengthAdjust="spacing" textLength="72" x="622.5" y="1493.7227">nextPhase()</text><line style="stroke:#000000;stroke-width:1.0;stroke-dasharray:2.0,2.0;" x1="539" x2="1945" y1="1507.4648" y2="1507.4648"/><text fill="#000000" font-family="sans-serif" font-size="11" font-weight="bold" lengthAdjust="spacing" textLength="174" x="544" y="1518.0996">[chosenOption == "Backward"]</text><polygon fill="#181818" points="1852.5,1538.7305,1862.5,1542.7305,1852.5,1546.7305,1856.5,1542.7305" style="stroke:#181818;stroke-width:1.0;"/><line style="stroke:#181818;stroke-width:1.0;" x1="615.5" x2="1858.5" y1="1542.7305" y2="1542.7305"/><text fill="#000000" font-family="sans-serif" font-size="13" lengthAdjust="spacing" textLength="98" x="622.5" y="1537.9883">previousPhase()</text><polygon fill="#181818" points="1697.5,1575.041,1707.5,1579.041,1697.5,1583.041,1701.5,1579.041" style="stroke:#181818;stroke-width:1.0;"/><line style="stroke:#181818;stroke-width:1.0;" x1="615.5" x2="1703.5" y1="1579.041" y2="1579.041"/><text fill="#000000" font-family="sans-serif" font-size="13" lengthAdjust="spacing" textLength="233" x="622.5" y="1574.2988">ensureAuthenticatedUserHasAnyOf();</text><polygon fill="#181818" points="2169,1604.3516,2179,1608.3516,2169,1612.3516,2173,1608.3516" style="stroke:#181818;stroke-width:1.0;"/><line style="stroke:#181818;stroke-width:1.0;" x1="615.5" x2="2175" y1="1608.3516" y2="1608.3516"/><text fill="#000000" font-family="sans-serif" font-size="13" lengthAdjust="spacing" textLength="241" x="622.5" y="1603.6094">save(jobOpeningChosen : JobOpening)</text><polygon fill="#181818" points="285.5,1633.6621,275.5,1637.6621,285.5,1641.6621,281.5,1637.6621" style="stroke:#181818;stroke-width:1.0;"/><line style="stroke:#181818;stroke-width:1.0;stroke-dasharray:2.0,2.0;" x1="279.5" x2="609.5" y1="1637.6621" y2="1637.6621"/><text fill="#000000" font-family="sans-serif" font-size="13" lengthAdjust="spacing" textLength="183" x="291.5" y="1632.9199">Display confirmation or error</text><polygon fill="#181818" points="82.5,1662.9727,72.5,1666.9727,82.5,1670.9727,78.5,1666.9727" style="stroke:#181818;stroke-width:1.0;"/><line style="stroke:#181818;stroke-width:1.0;stroke-dasharray:2.0,2.0;" x1="76.5" x2="268.5" y1="1666.9727" y2="1666.9727"/><text fill="#000000" font-family="sans-serif" font-size="13" lengthAdjust="spacing" textLength="169" x="88.5" y="1662.2305">Show confirmation or error</text><!--SRC=[pLZ1Sjem4Btp5MfECDFq0sZ23A7JAPssPA3fNOWbA36IPoMJqg_loiRObcLiIATjJh6rsjttjFkiXGkhaKqIO_KMy2jN_16mjzI9Md7Si_iDDs0UfZsXbKKT7LvCigU8J45PQG-6FtWaLvmSBW1tKa2-E4xiHgFynQtKobkRWy14sYqztgCMO4mlvcYba35Nbjq36caiA04kAFoqFOh0bnIDVTRBMGnAgiSvnDf82hmlLiTn74cHXWmjpxbwBhtlNO-EO8TifHSR_T8VzBYmSiSj54Ja_x3ZXe8CDcG2WSpzVIM-QdkSdnf8yeHvSX9CV_3kwGZMLFAgynFmHZ52P1NvXlQ40Jw5_OJF0axcMMEYT0OkjNBO6ezbts6EtHcHHw-sXsnidWrRKzLJpdDO0xgaUfvP9PaXcoe3QAixJbN2aEsoNe3oblvJwI4ZxVWuEBDcGeGFsLggLR5ojwz4RmWNFBfWkLm7aHOLKQc3yWa5GmGx8IGZnpBjOqqiQAsk83wNDLqAX-dOYRmGbeiwCIXCtLenm0nlyDOWV-qTUIajI89w4HzL9RwO2FJTU0f_4VHWmSSD6OHhpHUgS35swOD2LDBbxuIOiBaoFAKhhSt08vkjVEDROBUtx6giUBGdXgwQAw9sQ4vvFBtffdRUCNcEhvl9S0T-EEOooPu_Y0oKuBtf1g-fHoz66Mx7S9WJcBzGsTvGYDB6KVPHBhqnPJh2WPixlQ6s7y4kOX1oBKLgCg4ReksB1D79hdkJDu2Z-QsV4JkaNdqzQgrDHd_r-boGGgHVawlKu6mmmYL_TDBlcckQJ7k-hGtlZBooTAYcf4Ha02_cDR0AB_yBhZcO9BAlmPHv-4U0rAgRiJCy6rw3e7_K-C9nTQA_LB9T0ixM7XzIsRVCr1erMsdjjcwVgZ-0xuwBvnQ0Vnr4y5EluvpPARKLNqPmix18eZ6wvBjU6IdESDrzjd5ZQ-wvPQIPRBGcqZFZbc7cSAyktJZ4XZQhMRgP86IPdvfXd8fNDZbfEDJvLV0ELB_N3vcYkrfgIpVDL6fgBlFIwkupHjX9dPYZtxoHlRsXNp48EYYJ8BX5zui6jIAi7cXO_CJDMErdw_xWVUVvZRmPlakl58UrIGglCbSDsWhhWpHnnFTkVbvBtARfCXft0L7ZQskhezE7wMy0]--></g></svg>