<?xml version="1.0" encoding="us-ascii" standalone="no"?><svg xmlns="http://www.w3.org/2000/svg" xmlns:xlink="http://www.w3.org/1999/xlink" contentStyleType="text/css" height="785px" preserveAspectRatio="none" style="width:1357px;height:785px;background:#FFFFFF;" version="1.1" viewBox="0 0 1357 785" width="1357px" zoomAndPan="magnify"><defs/><g><rect fill="none" height="149.5078" style="stroke:#000000;stroke-width:1.5;" width="787" x="563.5" y="245.041"/><line style="stroke:#181818;stroke-width:0.5;stroke-dasharray:5.0,5.0;" x1="71" x2="71" y1="81.4883" y2="704.6543"/><line style="stroke:#181818;stroke-width:0.5;stroke-dasharray:5.0,5.0;" x1="264" x2="264" y1="81.4883" y2="704.6543"/><line style="stroke:#181818;stroke-width:0.5;stroke-dasharray:5.0,5.0;" x1="471" x2="471" y1="81.4883" y2="704.6543"/><line style="stroke:#181818;stroke-width:0.5;stroke-dasharray:5.0,5.0;" x1="651.5" x2="651.5" y1="81.4883" y2="704.6543"/><line style="stroke:#181818;stroke-width:0.5;stroke-dasharray:5.0,5.0;" x1="809.5" x2="809.5" y1="81.4883" y2="704.6543"/><line style="stroke:#181818;stroke-width:0.5;stroke-dasharray:5.0,5.0;" x1="970.5" x2="970.5" y1="81.4883" y2="704.6543"/><line style="stroke:#181818;stroke-width:0.5;stroke-dasharray:5.0,5.0;" x1="1138.5" x2="1138.5" y1="81.4883" y2="704.6543"/><line style="stroke:#181818;stroke-width:0.5;stroke-dasharray:5.0,5.0;" x1="1283.5" x2="1283.5" y1="81.4883" y2="704.6543"/><text fill="#000000" font-family="sans-serif" font-size="14" lengthAdjust="spacing" textLength="127" x="5" y="78.5352">CustomerManager</text><ellipse cx="71.5" cy="13.5" fill="#E2E2F0" rx="8" ry="8" style="stroke:#181818;stroke-width:0.5;"/><path d="M71.5,21.5 L71.5,48.5 M58.5,29.5 L84.5,29.5 M71.5,48.5 L58.5,63.5 M71.5,48.5 L84.5,63.5 " fill="none" style="stroke:#181818;stroke-width:0.5;"/><text fill="#000000" font-family="sans-serif" font-size="14" lengthAdjust="spacing" textLength="127" x="5" y="717.1895">CustomerManager</text><ellipse cx="71.5" cy="728.6426" fill="#E2E2F0" rx="8" ry="8" style="stroke:#181818;stroke-width:0.5;"/><path d="M71.5,736.6426 L71.5,763.6426 M58.5,744.6426 L84.5,744.6426 M71.5,763.6426 L58.5,778.6426 M71.5,763.6426 L84.5,778.6426 " fill="none" style="stroke:#181818;stroke-width:0.5;"/><text fill="#000000" font-family="sans-serif" font-size="14" lengthAdjust="spacing" textLength="61" x="231" y="78.5352">PhasesUI</text><path d="M244,37 L244,61 M244,49 L261,49 " fill="none" style="stroke:#181818;stroke-width:0.5;"/><ellipse cx="273" cy="49" fill="#E2E2F0" rx="12" ry="12" style="stroke:#181818;stroke-width:0.5;"/><text fill="#000000" font-family="sans-serif" font-size="14" lengthAdjust="spacing" textLength="61" x="231" y="717.1895">PhasesUI</text><path d="M244,724.1426 L244,748.1426 M244,736.1426 L261,736.1426 " fill="none" style="stroke:#181818;stroke-width:0.5;"/><ellipse cx="273" cy="736.1426" fill="#E2E2F0" rx="12" ry="12" style="stroke:#181818;stroke-width:0.5;"/><text fill="#000000" font-family="sans-serif" font-size="14" lengthAdjust="spacing" textLength="117" x="410" y="78.5352">PhasesController</text><ellipse cx="471.5" cy="49" fill="#E2E2F0" rx="12" ry="12" style="stroke:#181818;stroke-width:0.5;"/><polygon fill="#181818" points="467.5,37,473.5,32,471.5,37,473.5,42,467.5,37" style="stroke:#181818;stroke-width:1.0;"/><text fill="#000000" font-family="sans-serif" font-size="14" lengthAdjust="spacing" textLength="117" x="410" y="717.1895">PhasesController</text><ellipse cx="471.5" cy="736.1426" fill="#E2E2F0" rx="12" ry="12" style="stroke:#181818;stroke-width:0.5;"/><polygon fill="#181818" points="467.5,724.1426,473.5,719.1426,471.5,724.1426,473.5,729.1426,467.5,724.1426" style="stroke:#181818;stroke-width:1.0;"/><text fill="#000000" font-family="sans-serif" font-size="14" lengthAdjust="spacing" textLength="150" x="573.5" y="78.5352">PhaseValidatorService</text><ellipse cx="651.5" cy="49" fill="#E2E2F0" rx="12" ry="12" style="stroke:#181818;stroke-width:0.5;"/><line style="stroke:#181818;stroke-width:0.5;" x1="639.5" x2="663.5" y1="63" y2="63"/><text fill="#000000" font-family="sans-serif" font-size="14" lengthAdjust="spacing" textLength="150" x="573.5" y="717.1895">PhaseValidatorService</text><ellipse cx="651.5" cy="736.1426" fill="#E2E2F0" rx="12" ry="12" style="stroke:#181818;stroke-width:0.5;"/><line style="stroke:#181818;stroke-width:0.5;" x1="639.5" x2="663.5" y1="750.1426" y2="750.1426"/><text fill="#000000" font-family="sans-serif" font-size="14" lengthAdjust="spacing" textLength="135" x="739.5" y="78.5352">RecruitmentProcess</text><ellipse cx="810" cy="49" fill="#E2E2F0" rx="12" ry="12" style="stroke:#181818;stroke-width:0.5;"/><line style="stroke:#181818;stroke-width:0.5;" x1="798" x2="822" y1="63" y2="63"/><text fill="#000000" font-family="sans-serif" font-size="14" lengthAdjust="spacing" textLength="135" x="739.5" y="717.1895">RecruitmentProcess</text><ellipse cx="810" cy="736.1426" fill="#E2E2F0" rx="12" ry="12" style="stroke:#181818;stroke-width:0.5;"/><line style="stroke:#181818;stroke-width:0.5;" x1="798" x2="822" y1="750.1426" y2="750.1426"/><text fill="#000000" font-family="sans-serif" font-size="14" lengthAdjust="spacing" textLength="154" x="890.5" y="78.5352">JobOpeningRepository</text><ellipse cx="970.5" cy="49" fill="#E2E2F0" rx="12" ry="12" style="stroke:#181818;stroke-width:0.5;"/><line style="stroke:#181818;stroke-width:0.5;" x1="958.5" x2="982.5" y1="63" y2="63"/><text fill="#000000" font-family="sans-serif" font-size="14" lengthAdjust="spacing" textLength="154" x="890.5" y="717.1895">JobOpeningRepository</text><ellipse cx="970.5" cy="736.1426" fill="#E2E2F0" rx="12" ry="12" style="stroke:#181818;stroke-width:0.5;"/><line style="stroke:#181818;stroke-width:0.5;" x1="958.5" x2="982.5" y1="750.1426" y2="750.1426"/><text fill="#000000" font-family="sans-serif" font-size="14" lengthAdjust="spacing" textLength="151" x="1060.5" y="78.5352">ApplicationRepository</text><ellipse cx="1139" cy="49" fill="#E2E2F0" rx="12" ry="12" style="stroke:#181818;stroke-width:0.5;"/><line style="stroke:#181818;stroke-width:0.5;" x1="1127" x2="1151" y1="63" y2="63"/><text fill="#000000" font-family="sans-serif" font-size="14" lengthAdjust="spacing" textLength="151" x="1060.5" y="717.1895">ApplicationRepository</text><ellipse cx="1139" cy="736.1426" fill="#E2E2F0" rx="12" ry="12" style="stroke:#181818;stroke-width:0.5;"/><line style="stroke:#181818;stroke-width:0.5;" x1="1127" x2="1151" y1="750.1426" y2="750.1426"/><text fill="#000000" font-family="sans-serif" font-size="14" lengthAdjust="spacing" textLength="107" x="1227.5" y="78.5352">RankRepository</text><ellipse cx="1284" cy="49" fill="#E2E2F0" rx="12" ry="12" style="stroke:#181818;stroke-width:0.5;"/><line style="stroke:#181818;stroke-width:0.5;" x1="1272" x2="1296" y1="63" y2="63"/><text fill="#000000" font-family="sans-serif" font-size="14" lengthAdjust="spacing" textLength="107" x="1227.5" y="717.1895">RankRepository</text><ellipse cx="1284" cy="736.1426" fill="#E2E2F0" rx="12" ry="12" style="stroke:#181818;stroke-width:0.5;"/><line style="stroke:#181818;stroke-width:0.5;" x1="1272" x2="1296" y1="750.1426" y2="750.1426"/><polygon fill="#181818" points="252.5,108.7988,262.5,112.7988,252.5,116.7988,256.5,112.7988" style="stroke:#181818;stroke-width:1.0;"/><line style="stroke:#181818;stroke-width:1.0;" x1="71.5" x2="258.5" y1="112.7988" y2="112.7988"/><text fill="#000000" font-family="sans-serif" font-size="13" lengthAdjust="spacing" textLength="121" x="78.5" y="108.0566">Insert JobReference</text><polygon fill="#181818" points="459.5,138.1094,469.5,142.1094,459.5,146.1094,463.5,142.1094" style="stroke:#181818;stroke-width:1.0;"/><line style="stroke:#181818;stroke-width:1.0;" x1="264.5" x2="465.5" y1="142.1094" y2="142.1094"/><text fill="#000000" font-family="sans-serif" font-size="13" lengthAdjust="spacing" textLength="129" x="271.5" y="137.3672">Submit JobReference</text><polygon fill="#181818" points="958.5,167.4199,968.5,171.4199,958.5,175.4199,962.5,171.4199" style="stroke:#181818;stroke-width:1.0;"/><line style="stroke:#181818;stroke-width:1.0;" x1="471.5" x2="964.5" y1="171.4199" y2="171.4199"/><text fill="#000000" font-family="sans-serif" font-size="13" lengthAdjust="spacing" textLength="135" x="478.5" y="166.6777">Validate JobReference</text><polygon fill="#181818" points="482.5,196.7305,472.5,200.7305,482.5,204.7305,478.5,200.7305" style="stroke:#181818;stroke-width:1.0;"/><line style="stroke:#181818;stroke-width:1.0;stroke-dasharray:2.0,2.0;" x1="476.5" x2="969.5" y1="200.7305" y2="200.7305"/><text fill="#000000" font-family="sans-serif" font-size="13" lengthAdjust="spacing" textLength="187" x="488.5" y="195.9883">JobReference validation result</text><polygon fill="#181818" points="639.5,226.041,649.5,230.041,639.5,234.041,643.5,230.041" style="stroke:#181818;stroke-width:1.0;"/><line style="stroke:#181818;stroke-width:1.0;" x1="471.5" x2="645.5" y1="230.041" y2="230.041"/><text fill="#000000" font-family="sans-serif" font-size="13" lengthAdjust="spacing" textLength="156" x="478.5" y="225.2988">Validate phase transition</text><path d="M563.5,245.041 L625.5,245.041 L625.5,252.3516 L615.5,262.3516 L563.5,262.3516 L563.5,245.041 " fill="#EEEEEE" style="stroke:#000000;stroke-width:1.5;"/><rect fill="none" height="149.5078" style="stroke:#000000;stroke-width:1.5;" width="787" x="563.5" y="245.041"/><text fill="#000000" font-family="sans-serif" font-size="13" font-weight="bold" lengthAdjust="spacing" textLength="17" x="578.5" y="258.6094">alt</text><text fill="#000000" font-family="sans-serif" font-size="11" font-weight="bold" lengthAdjust="spacing" textLength="177" x="640.5" y="257.6758">[Phase is for application check]</text><polygon fill="#181818" points="1127,279.6621,1137,283.6621,1127,287.6621,1131,283.6621" style="stroke:#181818;stroke-width:1.0;"/><line style="stroke:#181818;stroke-width:1.0;" x1="651.5" x2="1133" y1="283.6621" y2="283.6621"/><text fill="#000000" font-family="sans-serif" font-size="13" lengthAdjust="spacing" textLength="163" x="658.5" y="278.9199">Check applications status</text><polygon fill="#181818" points="662.5,308.9727,652.5,312.9727,662.5,316.9727,658.5,312.9727" style="stroke:#181818;stroke-width:1.0;"/><line style="stroke:#181818;stroke-width:1.0;stroke-dasharray:2.0,2.0;" x1="656.5" x2="1138" y1="312.9727" y2="312.9727"/><text fill="#000000" font-family="sans-serif" font-size="13" lengthAdjust="spacing" textLength="122" x="668.5" y="308.2305">Applications status</text><line style="stroke:#000000;stroke-width:1.0;stroke-dasharray:2.0,2.0;" x1="563.5" x2="1350.5" y1="321.9727" y2="321.9727"/><text fill="#000000" font-family="sans-serif" font-size="11" font-weight="bold" lengthAdjust="spacing" textLength="140" x="568.5" y="332.6074">[Phase is for rank check]</text><polygon fill="#181818" points="1272,353.2383,1282,357.2383,1272,361.2383,1276,357.2383" style="stroke:#181818;stroke-width:1.0;"/><line style="stroke:#181818;stroke-width:1.0;" x1="651.5" x2="1278" y1="357.2383" y2="357.2383"/><text fill="#000000" font-family="sans-serif" font-size="13" lengthAdjust="spacing" textLength="114" x="658.5" y="352.4961">Check rank status</text><polygon fill="#181818" points="662.5,382.5488,652.5,386.5488,662.5,390.5488,658.5,386.5488" style="stroke:#181818;stroke-width:1.0;"/><line style="stroke:#181818;stroke-width:1.0;stroke-dasharray:2.0,2.0;" x1="656.5" x2="1283" y1="386.5488" y2="386.5488"/><text fill="#000000" font-family="sans-serif" font-size="13" lengthAdjust="spacing" textLength="74" x="668.5" y="381.8066">Rank status</text><polygon fill="#181818" points="482.5,418.8594,472.5,422.8594,482.5,426.8594,478.5,422.8594" style="stroke:#181818;stroke-width:1.0;"/><line style="stroke:#181818;stroke-width:1.0;stroke-dasharray:2.0,2.0;" x1="476.5" x2="650.5" y1="422.8594" y2="422.8594"/><text fill="#000000" font-family="sans-serif" font-size="13" lengthAdjust="spacing" textLength="103" x="488.5" y="418.1172">Validation result</text><polygon fill="#181818" points="275.5,448.1699,265.5,452.1699,275.5,456.1699,271.5,452.1699" style="stroke:#181818;stroke-width:1.0;"/><line style="stroke:#181818;stroke-width:1.0;stroke-dasharray:2.0,2.0;" x1="269.5" x2="470.5" y1="452.1699" y2="452.1699"/><text fill="#000000" font-family="sans-serif" font-size="13" lengthAdjust="spacing" textLength="164" x="281.5" y="447.4277">Display transition options</text><polygon fill="#181818" points="252.5,477.4805,262.5,481.4805,252.5,485.4805,256.5,481.4805" style="stroke:#181818;stroke-width:1.0;"/><line style="stroke:#181818;stroke-width:1.0;" x1="71.5" x2="258.5" y1="481.4805" y2="481.4805"/><text fill="#000000" font-family="sans-serif" font-size="13" lengthAdjust="spacing" textLength="80" x="78.5" y="476.7383">Select action</text><polygon fill="#181818" points="459.5,506.791,469.5,510.791,459.5,514.791,463.5,510.791" style="stroke:#181818;stroke-width:1.0;"/><line style="stroke:#181818;stroke-width:1.0;" x1="264.5" x2="465.5" y1="510.791" y2="510.791"/><text fill="#000000" font-family="sans-serif" font-size="13" lengthAdjust="spacing" textLength="87" x="271.5" y="506.0488">Submit action</text><polygon fill="#181818" points="798,536.1016,808,540.1016,798,544.1016,802,540.1016" style="stroke:#181818;stroke-width:1.0;"/><line style="stroke:#181818;stroke-width:1.0;" x1="471.5" x2="804" y1="540.1016" y2="540.1016"/><text fill="#000000" font-family="sans-serif" font-size="13" lengthAdjust="spacing" textLength="128" x="478.5" y="535.3594">Update phase status</text><polygon fill="#181818" points="958.5,565.4121,968.5,569.4121,958.5,573.4121,962.5,569.4121" style="stroke:#181818;stroke-width:1.0;"/><line style="stroke:#181818;stroke-width:1.0;" x1="810" x2="964.5" y1="569.4121" y2="569.4121"/><text fill="#000000" font-family="sans-serif" font-size="13" lengthAdjust="spacing" textLength="84" x="817" y="564.6699">Save changes</text><polygon fill="#181818" points="821,594.7227,811,598.7227,821,602.7227,817,598.7227" style="stroke:#181818;stroke-width:1.0;"/><line style="stroke:#181818;stroke-width:1.0;stroke-dasharray:2.0,2.0;" x1="815" x2="969.5" y1="598.7227" y2="598.7227"/><text fill="#000000" font-family="sans-serif" font-size="13" lengthAdjust="spacing" textLength="94" x="827" y="593.9805">Changes saved</text><polygon fill="#181818" points="482.5,624.0332,472.5,628.0332,482.5,632.0332,478.5,628.0332" style="stroke:#181818;stroke-width:1.0;"/><line style="stroke:#181818;stroke-width:1.0;stroke-dasharray:2.0,2.0;" x1="476.5" x2="809" y1="628.0332" y2="628.0332"/><text fill="#000000" font-family="sans-serif" font-size="13" lengthAdjust="spacing" textLength="94" x="488.5" y="623.291">Status updated</text><polygon fill="#181818" points="275.5,653.3438,265.5,657.3438,275.5,661.3438,271.5,657.3438" style="stroke:#181818;stroke-width:1.0;"/><line style="stroke:#181818;stroke-width:1.0;stroke-dasharray:2.0,2.0;" x1="269.5" x2="470.5" y1="657.3438" y2="657.3438"/><text fill="#000000" font-family="sans-serif" font-size="13" lengthAdjust="spacing" textLength="183" x="281.5" y="652.6016">Display confirmation or error</text><polygon fill="#181818" points="82.5,682.6543,72.5,686.6543,82.5,690.6543,78.5,686.6543" style="stroke:#181818;stroke-width:1.0;"/><line style="stroke:#181818;stroke-width:1.0;stroke-dasharray:2.0,2.0;" x1="76.5" x2="263.5" y1="686.6543" y2="686.6543"/><text fill="#000000" font-family="sans-serif" font-size="13" lengthAdjust="spacing" textLength="169" x="88.5" y="681.9121">Show confirmation or error</text><!--SRC=[ZLJBZi8m3BptA_m3_40FAw7kXPLMYrh1tQG68jAaIb9M_FswhsrA0sflYJsUiSSf2cyiP8tpfYBxZHelP9EJQNI9zW7xApfoXrqYZFRMgE4Ywq-AKqbxwOV48ofP8XSioDwbe36Oax2Dz1KVzzO8ScwCV9dJJqrQwajEjN6IiOynjgrh9GLwQVGocAE-1RV9KmUm-VZNdi9EExA-9SlfJ9OqInkZK-RKL0f5Swfa535bjSYO_XI6ET0S7yk5JPG-nC6zhyPZ04kkKJwg96f08ALku-0jQcRcMac2olSea0xEl0Ku3Hp4bSGj0VwYXLl6g3yfP2qohEN0UVIDwwf5GTCKbWri8uL8iUYPT6xhjaRpV6r6iHqw43dFUgSk3v2aooHvmHnr-RZ2sDaUVqfNAtm4BeAfkycyt_-250aFA3hZLst-B7U-QSlNdCAX3fPicCSox_MBAV1Ex1_g2xdN3oN6dFKWS5oXZ7B6s-mqGjFfBjSEdl-2PschtZDUExBMs62W37eoWfckvZSE_0C0]--></g></svg>