<?xml version="1.0" encoding="us-ascii" standalone="no"?><svg xmlns="http://www.w3.org/2000/svg" xmlns:xlink="http://www.w3.org/1999/xlink" contentStyleType="text/css" height="1434px" preserveAspectRatio="none" style="width:1860px;height:1434px;background:#FFFFFF;" version="1.1" viewBox="0 0 1860 1434" width="1860px" zoomAndPan="magnify"><defs/><g><rect fill="#FFFFFF" height="1222.6875" style="stroke:#181818;stroke-width:1.0;" width="10" x="264.5" y="112.7988"/><rect fill="#FFFFFF" height="87.9316" style="stroke:#181818;stroke-width:1.0;" width="10" x="605.5" y="142.1094"/><rect fill="#FFFFFF" height="736.7637" style="stroke:#181818;stroke-width:1.0;" width="10" x="605.5" y="317.9727"/><rect fill="#FFFFFF" height="163.5078" style="stroke:#181818;stroke-width:1.0;" width="10" x="605.5" y="1142.668"/><rect fill="#FFFFFF" height="146.5527" style="stroke:#181818;stroke-width:1.0;" width="10" x="937.5" y="405.9043"/><rect fill="#FFFFFF" height="29.3105" style="stroke:#181818;stroke-width:1.0;" width="10" x="1321" y="171.4199"/><rect fill="#FFFFFF" height="29.3105" style="stroke:#181818;stroke-width:1.0;" width="10" x="1321" y="435.2148"/><rect fill="#FFFFFF" height="29.3105" style="stroke:#181818;stroke-width:1.0;" width="10" x="1321" y="493.8359"/><rect fill="#FFFFFF" height="29.3105" style="stroke:#181818;stroke-width:1.0;" width="10" x="1484" y="347.2832"/><rect fill="#FFFFFF" height="29.3105" style="stroke:#181818;stroke-width:1.0;" width="10" x="1652.5" y="706.3203"/><rect fill="#FFFFFF" height="29.3105" style="stroke:#181818;stroke-width:1.0;" width="10" x="1652.5" y="764.9414"/><rect fill="#FFFFFF" height="29.3105" style="stroke:#181818;stroke-width:1.0;" width="10" x="1652.5" y="823.5625"/><rect fill="#FFFFFF" height="29.3105" style="stroke:#181818;stroke-width:1.0;" width="10" x="1652.5" y="882.1836"/><rect fill="#FFFFFF" height="29.3105" style="stroke:#181818;stroke-width:1.0;" width="10" x="1797.5" y="647.6992"/><rect fill="none" height="90.8867" style="stroke:#000000;stroke-width:1.5;" width="714" x="539" y="1157.668"/><line style="stroke:#181818;stroke-width:0.5;stroke-dasharray:5.0,5.0;" x1="71" x2="71" y1="81.4883" y2="1353.4863"/><line style="stroke:#181818;stroke-width:0.5;stroke-dasharray:5.0,5.0;" x1="269" x2="269" y1="81.4883" y2="1353.4863"/><line style="stroke:#181818;stroke-width:0.5;stroke-dasharray:5.0,5.0;" x1="610" x2="610" y1="81.4883" y2="1353.4863"/><line style="stroke:#181818;stroke-width:0.5;stroke-dasharray:5.0,5.0;" x1="942.5" x2="942.5" y1="81.4883" y2="1353.4863"/><line style="stroke:#181818;stroke-width:0.5;stroke-dasharray:5.0,5.0;" x1="1172" x2="1172" y1="81.4883" y2="1353.4863"/><line style="stroke:#181818;stroke-width:0.5;stroke-dasharray:5.0,5.0;" x1="1326" x2="1326" y1="81.4883" y2="1353.4863"/><line style="stroke:#181818;stroke-width:0.5;stroke-dasharray:5.0,5.0;" x1="1489" x2="1489" y1="81.4883" y2="1353.4863"/><line style="stroke:#181818;stroke-width:0.5;stroke-dasharray:5.0,5.0;" x1="1657" x2="1657" y1="81.4883" y2="1353.4863"/><line style="stroke:#181818;stroke-width:0.5;stroke-dasharray:5.0,5.0;" x1="1802" x2="1802" y1="81.4883" y2="1353.4863"/><text fill="#000000" font-family="sans-serif" font-size="14" lengthAdjust="spacing" textLength="127" x="5" y="78.5352">CustomerManager</text><ellipse cx="71.5" cy="13.5" fill="#E2E2F0" rx="8" ry="8" style="stroke:#181818;stroke-width:0.5;"/><path d="M71.5,21.5 L71.5,48.5 M58.5,29.5 L84.5,29.5 M71.5,48.5 L58.5,63.5 M71.5,48.5 L84.5,63.5 " fill="none" style="stroke:#181818;stroke-width:0.5;"/><text fill="#000000" font-family="sans-serif" font-size="14" lengthAdjust="spacing" textLength="127" x="5" y="1366.0215">CustomerManager</text><ellipse cx="71.5" cy="1377.4746" fill="#E2E2F0" rx="8" ry="8" style="stroke:#181818;stroke-width:0.5;"/><path d="M71.5,1385.4746 L71.5,1412.4746 M58.5,1393.4746 L84.5,1393.4746 M71.5,1412.4746 L58.5,1427.4746 M71.5,1412.4746 L84.5,1427.4746 " fill="none" style="stroke:#181818;stroke-width:0.5;"/><text fill="#000000" font-family="sans-serif" font-size="14" lengthAdjust="spacing" textLength="61" x="236" y="78.5352">PhasesUI</text><path d="M249,37 L249,61 M249,49 L266,49 " fill="none" style="stroke:#181818;stroke-width:0.5;"/><ellipse cx="278" cy="49" fill="#E2E2F0" rx="12" ry="12" style="stroke:#181818;stroke-width:0.5;"/><text fill="#000000" font-family="sans-serif" font-size="14" lengthAdjust="spacing" textLength="61" x="236" y="1366.0215">PhasesUI</text><path d="M249,1372.9746 L249,1396.9746 M249,1384.9746 L266,1384.9746 " fill="none" style="stroke:#181818;stroke-width:0.5;"/><ellipse cx="278" cy="1384.9746" fill="#E2E2F0" rx="12" ry="12" style="stroke:#181818;stroke-width:0.5;"/><text fill="#000000" font-family="sans-serif" font-size="14" lengthAdjust="spacing" textLength="117" x="549" y="78.5352">PhasesController</text><ellipse cx="610.5" cy="49" fill="#E2E2F0" rx="12" ry="12" style="stroke:#181818;stroke-width:0.5;"/><polygon fill="#181818" points="606.5,37,612.5,32,610.5,37,612.5,42,606.5,37" style="stroke:#181818;stroke-width:1.0;"/><text fill="#000000" font-family="sans-serif" font-size="14" lengthAdjust="spacing" textLength="117" x="549" y="1366.0215">PhasesController</text><ellipse cx="610.5" cy="1384.9746" fill="#E2E2F0" rx="12" ry="12" style="stroke:#181818;stroke-width:0.5;"/><polygon fill="#181818" points="606.5,1372.9746,612.5,1367.9746,610.5,1372.9746,612.5,1377.9746,606.5,1372.9746" style="stroke:#181818;stroke-width:1.0;"/><text fill="#000000" font-family="sans-serif" font-size="14" lengthAdjust="spacing" textLength="150" x="864.5" y="78.5352">PhaseValidatorService</text><ellipse cx="942.5" cy="49" fill="#E2E2F0" rx="12" ry="12" style="stroke:#181818;stroke-width:0.5;"/><line style="stroke:#181818;stroke-width:0.5;" x1="930.5" x2="954.5" y1="63" y2="63"/><text fill="#000000" font-family="sans-serif" font-size="14" lengthAdjust="spacing" textLength="150" x="864.5" y="1366.0215">PhaseValidatorService</text><ellipse cx="942.5" cy="1384.9746" fill="#E2E2F0" rx="12" ry="12" style="stroke:#181818;stroke-width:0.5;"/><line style="stroke:#181818;stroke-width:0.5;" x1="930.5" x2="954.5" y1="1398.9746" y2="1398.9746"/><text fill="#000000" font-family="sans-serif" font-size="14" lengthAdjust="spacing" textLength="135" x="1102" y="78.5352">RecruitmentProcess</text><ellipse cx="1172.5" cy="49" fill="#E2E2F0" rx="12" ry="12" style="stroke:#181818;stroke-width:0.5;"/><line style="stroke:#181818;stroke-width:0.5;" x1="1160.5" x2="1184.5" y1="63" y2="63"/><text fill="#000000" font-family="sans-serif" font-size="14" lengthAdjust="spacing" textLength="135" x="1102" y="1366.0215">RecruitmentProcess</text><ellipse cx="1172.5" cy="1384.9746" fill="#E2E2F0" rx="12" ry="12" style="stroke:#181818;stroke-width:0.5;"/><line style="stroke:#181818;stroke-width:0.5;" x1="1160.5" x2="1184.5" y1="1398.9746" y2="1398.9746"/><rect fill="#E2E2F0" height="30.4883" rx="2.5" ry="2.5" style="stroke:#181818;stroke-width:0.5;" width="146" x="1253" y="50"/><text fill="#000000" font-family="sans-serif" font-size="14" lengthAdjust="spacing" textLength="132" x="1260" y="70.5352">PersistenceContext</text><rect fill="#E2E2F0" height="30.4883" rx="2.5" ry="2.5" style="stroke:#181818;stroke-width:0.5;" width="146" x="1253" y="1352.4863"/><text fill="#000000" font-family="sans-serif" font-size="14" lengthAdjust="spacing" textLength="132" x="1260" y="1373.0215">PersistenceContext</text><text fill="#000000" font-family="sans-serif" font-size="14" lengthAdjust="spacing" textLength="154" x="1409" y="78.5352">JobOpeningRepository</text><path d="M1471,29 C1471,19 1489,19 1489,19 C1489,19 1507,19 1507,29 L1507,55 C1507,65 1489,65 1489,65 C1489,65 1471,65 1471,55 L1471,29 " fill="#E2E2F0" style="stroke:#181818;stroke-width:1.5;"/><path d="M1471,29 C1471,39 1489,39 1489,39 C1489,39 1507,39 1507,29 " fill="none" style="stroke:#181818;stroke-width:1.5;"/><text fill="#000000" font-family="sans-serif" font-size="14" lengthAdjust="spacing" textLength="154" x="1409" y="1366.0215">JobOpeningRepository</text><path d="M1471,1378.9746 C1471,1368.9746 1489,1368.9746 1489,1368.9746 C1489,1368.9746 1507,1368.9746 1507,1378.9746 L1507,1404.9746 C1507,1414.9746 1489,1414.9746 1489,1414.9746 C1489,1414.9746 1471,1414.9746 1471,1404.9746 L1471,1378.9746 " fill="#E2E2F0" style="stroke:#181818;stroke-width:1.5;"/><path d="M1471,1378.9746 C1471,1388.9746 1489,1388.9746 1489,1388.9746 C1489,1388.9746 1507,1388.9746 1507,1378.9746 " fill="none" style="stroke:#181818;stroke-width:1.5;"/><text fill="#000000" font-family="sans-serif" font-size="14" lengthAdjust="spacing" textLength="151" x="1579" y="78.5352">ApplicationRepository</text><path d="M1639.5,29 C1639.5,19 1657.5,19 1657.5,19 C1657.5,19 1675.5,19 1675.5,29 L1675.5,55 C1675.5,65 1657.5,65 1657.5,65 C1657.5,65 1639.5,65 1639.5,55 L1639.5,29 " fill="#E2E2F0" style="stroke:#181818;stroke-width:1.5;"/><path d="M1639.5,29 C1639.5,39 1657.5,39 1657.5,39 C1657.5,39 1675.5,39 1675.5,29 " fill="none" style="stroke:#181818;stroke-width:1.5;"/><text fill="#000000" font-family="sans-serif" font-size="14" lengthAdjust="spacing" textLength="151" x="1579" y="1366.0215">ApplicationRepository</text><path d="M1639.5,1378.9746 C1639.5,1368.9746 1657.5,1368.9746 1657.5,1368.9746 C1657.5,1368.9746 1675.5,1368.9746 1675.5,1378.9746 L1675.5,1404.9746 C1675.5,1414.9746 1657.5,1414.9746 1657.5,1414.9746 C1657.5,1414.9746 1639.5,1414.9746 1639.5,1404.9746 L1639.5,1378.9746 " fill="#E2E2F0" style="stroke:#181818;stroke-width:1.5;"/><path d="M1639.5,1378.9746 C1639.5,1388.9746 1657.5,1388.9746 1657.5,1388.9746 C1657.5,1388.9746 1675.5,1388.9746 1675.5,1378.9746 " fill="none" style="stroke:#181818;stroke-width:1.5;"/><text fill="#000000" font-family="sans-serif" font-size="14" lengthAdjust="spacing" textLength="107" x="1746" y="78.5352">RankRepository</text><path d="M1784.5,29 C1784.5,19 1802.5,19 1802.5,19 C1802.5,19 1820.5,19 1820.5,29 L1820.5,55 C1820.5,65 1802.5,65 1802.5,65 C1802.5,65 1784.5,65 1784.5,55 L1784.5,29 " fill="#E2E2F0" style="stroke:#181818;stroke-width:1.5;"/><path d="M1784.5,29 C1784.5,39 1802.5,39 1802.5,39 C1802.5,39 1820.5,39 1820.5,29 " fill="none" style="stroke:#181818;stroke-width:1.5;"/><text fill="#000000" font-family="sans-serif" font-size="14" lengthAdjust="spacing" textLength="107" x="1746" y="1366.0215">RankRepository</text><path d="M1784.5,1378.9746 C1784.5,1368.9746 1802.5,1368.9746 1802.5,1368.9746 C1802.5,1368.9746 1820.5,1368.9746 1820.5,1378.9746 L1820.5,1404.9746 C1820.5,1414.9746 1802.5,1414.9746 1802.5,1414.9746 C1802.5,1414.9746 1784.5,1414.9746 1784.5,1404.9746 L1784.5,1378.9746 " fill="#E2E2F0" style="stroke:#181818;stroke-width:1.5;"/><path d="M1784.5,1378.9746 C1784.5,1388.9746 1802.5,1388.9746 1802.5,1388.9746 C1802.5,1388.9746 1820.5,1388.9746 1820.5,1378.9746 " fill="none" style="stroke:#181818;stroke-width:1.5;"/><rect fill="#FFFFFF" height="1222.6875" style="stroke:#181818;stroke-width:1.0;" width="10" x="264.5" y="112.7988"/><rect fill="#FFFFFF" height="87.9316" style="stroke:#181818;stroke-width:1.0;" width="10" x="605.5" y="142.1094"/><rect fill="#FFFFFF" height="736.7637" style="stroke:#181818;stroke-width:1.0;" width="10" x="605.5" y="317.9727"/><rect fill="#FFFFFF" height="163.5078" style="stroke:#181818;stroke-width:1.0;" width="10" x="605.5" y="1142.668"/><rect fill="#FFFFFF" height="146.5527" style="stroke:#181818;stroke-width:1.0;" width="10" x="937.5" y="405.9043"/><rect fill="#FFFFFF" height="29.3105" style="stroke:#181818;stroke-width:1.0;" width="10" x="1321" y="171.4199"/><rect fill="#FFFFFF" height="29.3105" style="stroke:#181818;stroke-width:1.0;" width="10" x="1321" y="435.2148"/><rect fill="#FFFFFF" height="29.3105" style="stroke:#181818;stroke-width:1.0;" width="10" x="1321" y="493.8359"/><rect fill="#FFFFFF" height="29.3105" style="stroke:#181818;stroke-width:1.0;" width="10" x="1484" y="347.2832"/><rect fill="#FFFFFF" height="29.3105" style="stroke:#181818;stroke-width:1.0;" width="10" x="1652.5" y="706.3203"/><rect fill="#FFFFFF" height="29.3105" style="stroke:#181818;stroke-width:1.0;" width="10" x="1652.5" y="764.9414"/><rect fill="#FFFFFF" height="29.3105" style="stroke:#181818;stroke-width:1.0;" width="10" x="1652.5" y="823.5625"/><rect fill="#FFFFFF" height="29.3105" style="stroke:#181818;stroke-width:1.0;" width="10" x="1652.5" y="882.1836"/><rect fill="#FFFFFF" height="29.3105" style="stroke:#181818;stroke-width:1.0;" width="10" x="1797.5" y="647.6992"/><polygon fill="#181818" points="252.5,108.7988,262.5,112.7988,252.5,116.7988,256.5,112.7988" style="stroke:#181818;stroke-width:1.0;"/><line style="stroke:#181818;stroke-width:1.0;" x1="0" x2="258.5" y1="112.7988" y2="112.7988"/><text fill="#000000" font-family="sans-serif" font-size="13" lengthAdjust="spacing" textLength="57" x="7" y="108.0566">doShow()</text><polygon fill="#181818" points="593.5,138.1094,603.5,142.1094,593.5,146.1094,597.5,142.1094" style="stroke:#181818;stroke-width:1.0;"/><line style="stroke:#181818;stroke-width:1.0;" x1="274.5" x2="599.5" y1="142.1094" y2="142.1094"/><text fill="#000000" font-family="sans-serif" font-size="13" lengthAdjust="spacing" textLength="38" x="281.5" y="137.3672">create</text><polygon fill="#181818" points="1309,167.4199,1319,171.4199,1309,175.4199,1313,171.4199" style="stroke:#181818;stroke-width:1.0;"/><line style="stroke:#181818;stroke-width:1.0;" x1="615.5" x2="1315" y1="171.4199" y2="171.4199"/><text fill="#000000" font-family="sans-serif" font-size="13" lengthAdjust="spacing" textLength="168" x="622.5" y="166.6777">repositories().jobOpening()</text><polygon fill="#181818" points="626.5,196.7305,616.5,200.7305,626.5,204.7305,622.5,200.7305" style="stroke:#181818;stroke-width:1.0;"/><line style="stroke:#181818;stroke-width:1.0;stroke-dasharray:2.0,2.0;" x1="620.5" x2="1325" y1="200.7305" y2="200.7305"/><text fill="#000000" font-family="sans-serif" font-size="13" lengthAdjust="spacing" textLength="292" x="632.5" y="195.9883">jobOpeningRepository : JobOpeningRepository</text><polygon fill="#181818" points="285.5,226.041,275.5,230.041,285.5,234.041,281.5,230.041" style="stroke:#181818;stroke-width:1.0;"/><line style="stroke:#181818;stroke-width:1.0;stroke-dasharray:2.0,2.0;" x1="279.5" x2="609.5" y1="230.041" y2="230.041"/><text fill="#000000" font-family="sans-serif" font-size="13" lengthAdjust="spacing" textLength="179" x="291.5" y="225.2988">controller : PhasesController</text><polygon fill="#181818" points="82.5,255.3516,72.5,259.3516,82.5,263.3516,78.5,259.3516" style="stroke:#181818;stroke-width:1.0;"/><line style="stroke:#181818;stroke-width:1.0;stroke-dasharray:2.0,2.0;" x1="76.5" x2="263.5" y1="259.3516" y2="259.3516"/><text fill="#000000" font-family="sans-serif" font-size="13" lengthAdjust="spacing" textLength="138" x="88.5" y="254.6094">Asks for JobReference</text><polygon fill="#181818" points="252.5,284.6621,262.5,288.6621,252.5,292.6621,256.5,288.6621" style="stroke:#181818;stroke-width:1.0;"/><line style="stroke:#181818;stroke-width:1.0;stroke-dasharray:2.0,2.0;" x1="71.5" x2="258.5" y1="288.6621" y2="288.6621"/><text fill="#000000" font-family="sans-serif" font-size="13" lengthAdjust="spacing" textLength="121" x="78.5" y="283.9199">Insert JobReference</text><polygon fill="#181818" points="593.5,313.9727,603.5,317.9727,593.5,321.9727,597.5,317.9727" style="stroke:#181818;stroke-width:1.0;"/><line style="stroke:#181818;stroke-width:1.0;" x1="274.5" x2="599.5" y1="317.9727" y2="317.9727"/><text fill="#000000" font-family="sans-serif" font-size="13" lengthAdjust="spacing" textLength="312" x="281.5" y="313.2305">validateJobReference(jobReference : JobReference)</text><polygon fill="#181818" points="1472,343.2832,1482,347.2832,1472,351.2832,1476,347.2832" style="stroke:#181818;stroke-width:1.0;"/><line style="stroke:#181818;stroke-width:1.0;" x1="615.5" x2="1478" y1="347.2832" y2="347.2832"/><text fill="#000000" font-family="sans-serif" font-size="13" lengthAdjust="spacing" textLength="282" x="622.5" y="342.541">findJobOpeningByJobReference(JobReference)</text><polygon fill="#181818" points="626.5,372.5938,616.5,376.5938,626.5,380.5938,622.5,376.5938" style="stroke:#181818;stroke-width:1.0;"/><line style="stroke:#181818;stroke-width:1.0;stroke-dasharray:2.0,2.0;" x1="620.5" x2="1488" y1="376.5938" y2="376.5938"/><text fill="#000000" font-family="sans-serif" font-size="13" lengthAdjust="spacing" textLength="158" x="632.5" y="371.8516">jobOpening : JobOpening</text><polygon fill="#181818" points="925.5,401.9043,935.5,405.9043,925.5,409.9043,929.5,405.9043" style="stroke:#181818;stroke-width:1.0;"/><line style="stroke:#181818;stroke-width:1.0;" x1="615.5" x2="931.5" y1="405.9043" y2="405.9043"/><text fill="#000000" font-family="sans-serif" font-size="13" lengthAdjust="spacing" textLength="303" x="622.5" y="401.1621">create(recruitmentProcess : RecruitmentProcess)</text><polygon fill="#181818" points="1309,431.2148,1319,435.2148,1309,439.2148,1313,435.2148" style="stroke:#181818;stroke-width:1.0;"/><line style="stroke:#181818;stroke-width:1.0;" x1="947.5" x2="1315" y1="435.2148" y2="435.2148"/><text fill="#000000" font-family="sans-serif" font-size="13" lengthAdjust="spacing" textLength="165" x="954.5" y="430.4727">repositories().application()</text><polygon fill="#181818" points="958.5,460.5254,948.5,464.5254,958.5,468.5254,954.5,464.5254" style="stroke:#181818;stroke-width:1.0;"/><line style="stroke:#181818;stroke-width:1.0;stroke-dasharray:2.0,2.0;" x1="952.5" x2="1325" y1="464.5254" y2="464.5254"/><text fill="#000000" font-family="sans-serif" font-size="13" lengthAdjust="spacing" textLength="288" x="964.5" y="459.7832">applicationRepository : ApplicationRepository</text><polygon fill="#181818" points="1309,489.8359,1319,493.8359,1309,497.8359,1313,493.8359" style="stroke:#181818;stroke-width:1.0;"/><line style="stroke:#181818;stroke-width:1.0;" x1="947.5" x2="1315" y1="493.8359" y2="493.8359"/><text fill="#000000" font-family="sans-serif" font-size="13" lengthAdjust="spacing" textLength="123" x="954.5" y="489.0938">repositories().rank()</text><polygon fill="#181818" points="958.5,519.1465,948.5,523.1465,958.5,527.1465,954.5,523.1465" style="stroke:#181818;stroke-width:1.0;"/><line style="stroke:#181818;stroke-width:1.0;stroke-dasharray:2.0,2.0;" x1="952.5" x2="1325" y1="523.1465" y2="523.1465"/><text fill="#000000" font-family="sans-serif" font-size="13" lengthAdjust="spacing" textLength="205" x="964.5" y="518.4043">rankRepository : RankRepository</text><polygon fill="#181818" points="626.5,548.457,616.5,552.457,626.5,556.457,622.5,552.457" style="stroke:#181818;stroke-width:1.0;"/><line style="stroke:#181818;stroke-width:1.0;stroke-dasharray:2.0,2.0;" x1="620.5" x2="941.5" y1="552.457" y2="552.457"/><text fill="#000000" font-family="sans-serif" font-size="13" lengthAdjust="spacing" textLength="285" x="632.5" y="547.7148">phaseValidatorService : PhaseValidatorService</text><polygon fill="#181818" points="930.5,596.0781,940.5,600.0781,930.5,604.0781,934.5,600.0781" style="stroke:#181818;stroke-width:1.0;"/><line style="stroke:#181818;stroke-width:1.0;" x1="615.5" x2="936.5" y1="600.0781" y2="600.0781"/><text fill="#000000" font-family="sans-serif" font-size="13" lengthAdjust="spacing" textLength="157" x="622.5" y="595.3359">validatePhaseTransition()</text><path d="M947,565.457 L947,620.457 L1172,620.457 L1172,575.457 L1162,565.457 L947,565.457 " fill="#FEFFDD" style="stroke:#181818;stroke-width:0.5;"/><path d="M1162,565.457 L1162,575.457 L1172,575.457 L1162,565.457 " fill="#FEFFDD" style="stroke:#181818;stroke-width:0.5;"/><text fill="#000000" font-family="sans-serif" font-size="13" lengthAdjust="spacing" textLength="204" x="953" y="583.0254">The method/methods called will</text><text fill="#000000" font-family="sans-serif" font-size="13" lengthAdjust="spacing" textLength="197" x="953" y="598.3359">depend on the current phase of</text><text fill="#000000" font-family="sans-serif" font-size="13" lengthAdjust="spacing" textLength="154" x="953" y="613.6465">the recruitment process.</text><polygon fill="#181818" points="1785.5,643.6992,1795.5,647.6992,1785.5,651.6992,1789.5,647.6992" style="stroke:#181818;stroke-width:1.0;"/><line style="stroke:#181818;stroke-width:1.0;" x1="942.5" x2="1791.5" y1="647.6992" y2="647.6992"/><text fill="#000000" font-family="sans-serif" font-size="13" lengthAdjust="spacing" textLength="333" x="949.5" y="642.957">findRankByJobReference(jobReference : JobReference)</text><polygon fill="#181818" points="953.5,673.0098,943.5,677.0098,953.5,681.0098,949.5,677.0098" style="stroke:#181818;stroke-width:1.0;"/><line style="stroke:#181818;stroke-width:1.0;stroke-dasharray:2.0,2.0;" x1="947.5" x2="1801.5" y1="677.0098" y2="677.0098"/><text fill="#000000" font-family="sans-serif" font-size="13" lengthAdjust="spacing" textLength="71" x="959.5" y="672.2676">rank : Rank</text><polygon fill="#181818" points="1640.5,702.3203,1650.5,706.3203,1640.5,710.3203,1644.5,706.3203" style="stroke:#181818;stroke-width:1.0;"/><line style="stroke:#181818;stroke-width:1.0;" x1="942.5" x2="1646.5" y1="706.3203" y2="706.3203"/><text fill="#000000" font-family="sans-serif" font-size="13" lengthAdjust="spacing" textLength="384" x="949.5" y="701.5781">countApplicatiosByJobReference(jobReference : JobReference)</text><polygon fill="#181818" points="953.5,731.6309,943.5,735.6309,953.5,739.6309,949.5,735.6309" style="stroke:#181818;stroke-width:1.0;"/><line style="stroke:#181818;stroke-width:1.0;stroke-dasharray:2.0,2.0;" x1="947.5" x2="1656.5" y1="735.6309" y2="735.6309"/><text fill="#000000" font-family="sans-serif" font-size="13" lengthAdjust="spacing" textLength="171" x="959.5" y="730.8887">numberOfApplications : int</text><polygon fill="#181818" points="1640.5,760.9414,1650.5,764.9414,1640.5,768.9414,1644.5,764.9414" style="stroke:#181818;stroke-width:1.0;"/><line style="stroke:#181818;stroke-width:1.0;" x1="942.5" x2="1646.5" y1="764.9414" y2="764.9414"/><text fill="#000000" font-family="sans-serif" font-size="13" lengthAdjust="spacing" textLength="446" x="949.5" y="760.1992">countApplicationScreeningByJobReference(jobReference : JobReference)</text><polygon fill="#181818" points="953.5,790.252,943.5,794.252,953.5,798.252,949.5,794.252" style="stroke:#181818;stroke-width:1.0;"/><line style="stroke:#181818;stroke-width:1.0;stroke-dasharray:2.0,2.0;" x1="947.5" x2="1656.5" y1="794.252" y2="794.252"/><text fill="#000000" font-family="sans-serif" font-size="13" lengthAdjust="spacing" textLength="232" x="959.5" y="789.5098">numberOfApplicationsScreening : int</text><polygon fill="#181818" points="1640.5,819.5625,1650.5,823.5625,1640.5,827.5625,1644.5,823.5625" style="stroke:#181818;stroke-width:1.0;"/><line style="stroke:#181818;stroke-width:1.0;" x1="942.5" x2="1646.5" y1="823.5625" y2="823.5625"/><text fill="#000000" font-family="sans-serif" font-size="13" lengthAdjust="spacing" textLength="449" x="949.5" y="818.8203">countApplicationInterviewsByJobReference(jobReference : JobReference)</text><polygon fill="#181818" points="953.5,848.873,943.5,852.873,953.5,856.873,949.5,852.873" style="stroke:#181818;stroke-width:1.0;"/><line style="stroke:#181818;stroke-width:1.0;stroke-dasharray:2.0,2.0;" x1="947.5" x2="1656.5" y1="852.873" y2="852.873"/><text fill="#000000" font-family="sans-serif" font-size="13" lengthAdjust="spacing" textLength="235" x="959.5" y="848.1309">numberOfApplicationsInterviews : int</text><polygon fill="#181818" points="1640.5,878.1836,1650.5,882.1836,1640.5,886.1836,1644.5,882.1836" style="stroke:#181818;stroke-width:1.0;"/><line style="stroke:#181818;stroke-width:1.0;" x1="942.5" x2="1646.5" y1="882.1836" y2="882.1836"/><text fill="#000000" font-family="sans-serif" font-size="13" lengthAdjust="spacing" textLength="424" x="949.5" y="877.4414">countApplicationResultByJobReference(jobReference : JobReference)</text><polygon fill="#181818" points="953.5,907.4941,943.5,911.4941,953.5,915.4941,949.5,911.4941" style="stroke:#181818;stroke-width:1.0;"/><line style="stroke:#181818;stroke-width:1.0;stroke-dasharray:2.0,2.0;" x1="947.5" x2="1656.5" y1="911.4941" y2="911.4941"/><text fill="#000000" font-family="sans-serif" font-size="13" lengthAdjust="spacing" textLength="217" x="959.5" y="906.752">numberOfApplicationsResults : int</text><line style="stroke:#181818;stroke-width:1.0;" x1="942.5" x2="984.5" y1="940.8047" y2="940.8047"/><line style="stroke:#181818;stroke-width:1.0;" x1="984.5" x2="984.5" y1="940.8047" y2="953.8047"/><line style="stroke:#181818;stroke-width:1.0;" x1="943.5" x2="984.5" y1="953.8047" y2="953.8047"/><polygon fill="#181818" points="953.5,949.8047,943.5,953.8047,953.5,957.8047,949.5,953.8047" style="stroke:#181818;stroke-width:1.0;"/><text fill="#000000" font-family="sans-serif" font-size="13" lengthAdjust="spacing" textLength="207" x="949.5" y="936.0625">validatePhaseTransitionForward()</text><line style="stroke:#181818;stroke-width:1.0;" x1="942.5" x2="984.5" y1="983.1152" y2="983.1152"/><line style="stroke:#181818;stroke-width:1.0;" x1="984.5" x2="984.5" y1="983.1152" y2="996.1152"/><line style="stroke:#181818;stroke-width:1.0;" x1="943.5" x2="984.5" y1="996.1152" y2="996.1152"/><polygon fill="#181818" points="953.5,992.1152,943.5,996.1152,953.5,1000.1152,949.5,996.1152" style="stroke:#181818;stroke-width:1.0;"/><text fill="#000000" font-family="sans-serif" font-size="13" lengthAdjust="spacing" textLength="216" x="949.5" y="978.373">validatePhaseTransitionBackward()</text><polygon fill="#181818" points="626.5,1021.4258,616.5,1025.4258,626.5,1029.4258,622.5,1025.4258" style="stroke:#181818;stroke-width:1.0;"/><line style="stroke:#181818;stroke-width:1.0;stroke-dasharray:2.0,2.0;" x1="620.5" x2="941.5" y1="1025.4258" y2="1025.4258"/><text fill="#000000" font-family="sans-serif" font-size="13" lengthAdjust="spacing" textLength="164" x="632.5" y="1020.6836">options : Iterable&lt;String&gt;</text><polygon fill="#181818" points="285.5,1050.7363,275.5,1054.7363,285.5,1058.7363,281.5,1054.7363" style="stroke:#181818;stroke-width:1.0;"/><line style="stroke:#181818;stroke-width:1.0;stroke-dasharray:2.0,2.0;" x1="279.5" x2="609.5" y1="1054.7363" y2="1054.7363"/><text fill="#000000" font-family="sans-serif" font-size="13" lengthAdjust="spacing" textLength="164" x="291.5" y="1049.9941">options : Iterable&lt;String&gt;</text><polygon fill="#181818" points="82.5,1080.0469,72.5,1084.0469,82.5,1088.0469,78.5,1084.0469" style="stroke:#181818;stroke-width:1.0;"/><line style="stroke:#181818;stroke-width:1.0;stroke-dasharray:2.0,2.0;" x1="76.5" x2="263.5" y1="1084.0469" y2="1084.0469"/><text fill="#000000" font-family="sans-serif" font-size="13" lengthAdjust="spacing" textLength="85" x="88.5" y="1079.3047">Show options</text><polygon fill="#181818" points="252.5,1109.3574,262.5,1113.3574,252.5,1117.3574,256.5,1113.3574" style="stroke:#181818;stroke-width:1.0;"/><line style="stroke:#181818;stroke-width:1.0;stroke-dasharray:2.0,2.0;" x1="71.5" x2="258.5" y1="1113.3574" y2="1113.3574"/><text fill="#000000" font-family="sans-serif" font-size="13" lengthAdjust="spacing" textLength="92" x="78.5" y="1108.6152">Choose option</text><polygon fill="#181818" points="593.5,1138.668,603.5,1142.668,593.5,1146.668,597.5,1142.668" style="stroke:#181818;stroke-width:1.0;"/><line style="stroke:#181818;stroke-width:1.0;" x1="274.5" x2="599.5" y1="1142.668" y2="1142.668"/><text fill="#000000" font-family="sans-serif" font-size="13" lengthAdjust="spacing" textLength="257" x="281.5" y="1137.9258">ProcessTransition(chosenOption : String)</text><path d="M539,1157.668 L601,1157.668 L601,1164.9785 L591,1174.9785 L539,1174.9785 L539,1157.668 " fill="#EEEEEE" style="stroke:#000000;stroke-width:1.5;"/><rect fill="none" height="90.8867" style="stroke:#000000;stroke-width:1.5;" width="714" x="539" y="1157.668"/><text fill="#000000" font-family="sans-serif" font-size="13" font-weight="bold" lengthAdjust="spacing" textLength="17" x="554" y="1171.2363">alt</text><text fill="#000000" font-family="sans-serif" font-size="11" font-weight="bold" lengthAdjust="spacing" textLength="166" x="616" y="1170.3027">[chosenOption == "Forward"]</text><polygon fill="#181818" points="1160.5,1192.2891,1170.5,1196.2891,1160.5,1200.2891,1164.5,1196.2891" style="stroke:#181818;stroke-width:1.0;"/><line style="stroke:#181818;stroke-width:1.0;" x1="615.5" x2="1166.5" y1="1196.2891" y2="1196.2891"/><text fill="#000000" font-family="sans-serif" font-size="13" lengthAdjust="spacing" textLength="72" x="622.5" y="1191.5469">nextPhase()</text><line style="stroke:#000000;stroke-width:1.0;stroke-dasharray:2.0,2.0;" x1="539" x2="1253" y1="1205.2891" y2="1205.2891"/><text fill="#000000" font-family="sans-serif" font-size="11" font-weight="bold" lengthAdjust="spacing" textLength="174" x="544" y="1215.9238">[chosenOption == "Backward"]</text><polygon fill="#181818" points="1160.5,1236.5547,1170.5,1240.5547,1160.5,1244.5547,1164.5,1240.5547" style="stroke:#181818;stroke-width:1.0;"/><line style="stroke:#181818;stroke-width:1.0;" x1="615.5" x2="1166.5" y1="1240.5547" y2="1240.5547"/><text fill="#000000" font-family="sans-serif" font-size="13" lengthAdjust="spacing" textLength="98" x="622.5" y="1235.8125">previousPhase()</text><polygon fill="#181818" points="1477,1272.8652,1487,1276.8652,1477,1280.8652,1481,1276.8652" style="stroke:#181818;stroke-width:1.0;"/><line style="stroke:#181818;stroke-width:1.0;" x1="615.5" x2="1483" y1="1276.8652" y2="1276.8652"/><text fill="#000000" font-family="sans-serif" font-size="13" lengthAdjust="spacing" textLength="293" x="622.5" y="1272.123">save(recruitmentProcess : RecruitmentProcess)</text><polygon fill="#181818" points="285.5,1302.1758,275.5,1306.1758,285.5,1310.1758,281.5,1306.1758" style="stroke:#181818;stroke-width:1.0;"/><line style="stroke:#181818;stroke-width:1.0;stroke-dasharray:2.0,2.0;" x1="279.5" x2="609.5" y1="1306.1758" y2="1306.1758"/><text fill="#000000" font-family="sans-serif" font-size="13" lengthAdjust="spacing" textLength="183" x="291.5" y="1301.4336">Display confirmation or error</text><polygon fill="#181818" points="82.5,1331.4863,72.5,1335.4863,82.5,1339.4863,78.5,1335.4863" style="stroke:#181818;stroke-width:1.0;"/><line style="stroke:#181818;stroke-width:1.0;stroke-dasharray:2.0,2.0;" x1="76.5" x2="268.5" y1="1335.4863" y2="1335.4863"/><text fill="#000000" font-family="sans-serif" font-size="13" lengthAdjust="spacing" textLength="169" x="88.5" y="1330.7441">Show confirmation or error</text><!--SRC=[pLTDR-8m4BtdLrWzmQ7TEzfMQhjQYPLMLD3ktJW3SHliQEp0ykztJ21n4YTGgBezGMpFyxmt7vbmOJMonznOlGBypHLV0aPpdQkOuvOz9To0UHb7GYkBEjqlF1PFAHq5PQNT7_p3Knbp0fm1hgM0m-OK1ERIhkZn2RK0OwACevL2PbnPzWHefB6W13XW-6iZGk5pGcI_z7oIWP9gEOLC6qdWsshtFijIARYLMeMsfrozUUlHzLr9QCHYFKlqPZ2CkB1opIrKP0z_M6bG4MOZ9X3eUDFEqwHbut1Q90a93yv9C8FXpMj9jkPMMvu0s7NOrzU0VhGSbXLwxsoHykHqglZNjYJniSDoERa9iP6A8tPltWnRK9AIprDO03gdeiQncZCZDbO6qDOj-e8wOkiYTS4t6Rnw3uLevUFmdU4F2JvY2wdYQkTXMxkzuxfWw4ABmPJmCwAM1tw4WbS4apfKzMM53B1LzxJNRWPDBLjj97pDYKN5gnvnGLK5IF9Gyw7rZgPqlBZEPOZKvZwM6jOQfmjQlPEUHIQOZLc71-54Q7QHSAQSagHLnU-sduanSIjoH6d2HxbCRFIS05k1JNJyhVWnJ702Zjb6fYdvGsKICwsOfOCYHofMMt1YUi4Yj-eL0SkAXB-9d9MxfZlmqsO8NAzmYuqkSLgFQiIl0NxThPBBX7tyVVKRU9qixZjgHD20OQjDSnQfSA65h-oXgFBL772oy0nTdvBA-ep3brrANCseLOQQ_tzNe7JiqwGOK_SW8zXykMoeFFiqCQPWyjH-DI4AhovNeUkzqz6JVshSS8ofDNyKuWCNR_sGmRULpWxTOKmPmUSfV9zPf2Avwn-FUotF7utT1ym1-SX4_9XexLvAkyD7Pk7zMEQz4qL2ncgoCoOAXUTz8p1FBQiPtTwogtqOhu9lwVPOI2b8qyJkB8K9KdA_1Nc8u-cO6S9QwjoKk2e-UM0dweQltp7N7ikA7z9aAT-wRwU5nDMkVXXzwW2YnaiJuqJGb_4_]--></g></svg>