<?xml version="1.0" encoding="us-ascii" standalone="no"?><svg xmlns="http://www.w3.org/2000/svg" xmlns:xlink="http://www.w3.org/1999/xlink" contentStyleType="text/css" height="680px" preserveAspectRatio="none" style="width:1253px;height:680px;background:#FFFFFF;" version="1.1" viewBox="0 0 1253 680" width="1253px" zoomAndPan="magnify"><defs/><g><line style="stroke:#181818;stroke-width:0.5;stroke-dasharray:5.0,5.0;" x1="71" x2="71" y1="81.4883" y2="599.7676"/><line style="stroke:#181818;stroke-width:0.5;stroke-dasharray:5.0,5.0;" x1="299" x2="299" y1="81.4883" y2="599.7676"/><line style="stroke:#181818;stroke-width:0.5;stroke-dasharray:5.0,5.0;" x1="506" x2="506" y1="81.4883" y2="599.7676"/><line style="stroke:#181818;stroke-width:0.5;stroke-dasharray:5.0,5.0;" x1="686.5" x2="686.5" y1="81.4883" y2="599.7676"/><line style="stroke:#181818;stroke-width:0.5;stroke-dasharray:5.0,5.0;" x1="844.5" x2="844.5" y1="81.4883" y2="599.7676"/><line style="stroke:#181818;stroke-width:0.5;stroke-dasharray:5.0,5.0;" x1="1005.5" x2="1005.5" y1="81.4883" y2="599.7676"/><line style="stroke:#181818;stroke-width:0.5;stroke-dasharray:5.0,5.0;" x1="1173.5" x2="1173.5" y1="81.4883" y2="599.7676"/><text fill="#000000" font-family="sans-serif" font-size="14" lengthAdjust="spacing" textLength="127" x="5" y="78.5352">CustomerManager</text><ellipse cx="71.5" cy="13.5" fill="#E2E2F0" rx="8" ry="8" style="stroke:#181818;stroke-width:0.5;"/><path d="M71.5,21.5 L71.5,48.5 M58.5,29.5 L84.5,29.5 M71.5,48.5 L58.5,63.5 M71.5,48.5 L84.5,63.5 " fill="none" style="stroke:#181818;stroke-width:0.5;"/><text fill="#000000" font-family="sans-serif" font-size="14" lengthAdjust="spacing" textLength="127" x="5" y="612.3027">CustomerManager</text><ellipse cx="71.5" cy="623.7559" fill="#E2E2F0" rx="8" ry="8" style="stroke:#181818;stroke-width:0.5;"/><path d="M71.5,631.7559 L71.5,658.7559 M58.5,639.7559 L84.5,639.7559 M71.5,658.7559 L58.5,673.7559 M71.5,658.7559 L84.5,673.7559 " fill="none" style="stroke:#181818;stroke-width:0.5;"/><text fill="#000000" font-family="sans-serif" font-size="14" lengthAdjust="spacing" textLength="61" x="266" y="78.5352">PhasesUI</text><path d="M279,37 L279,61 M279,49 L296,49 " fill="none" style="stroke:#181818;stroke-width:0.5;"/><ellipse cx="308" cy="49" fill="#E2E2F0" rx="12" ry="12" style="stroke:#181818;stroke-width:0.5;"/><text fill="#000000" font-family="sans-serif" font-size="14" lengthAdjust="spacing" textLength="61" x="266" y="612.3027">PhasesUI</text><path d="M279,619.2559 L279,643.2559 M279,631.2559 L296,631.2559 " fill="none" style="stroke:#181818;stroke-width:0.5;"/><ellipse cx="308" cy="631.2559" fill="#E2E2F0" rx="12" ry="12" style="stroke:#181818;stroke-width:0.5;"/><text fill="#000000" font-family="sans-serif" font-size="14" lengthAdjust="spacing" textLength="117" x="445" y="78.5352">PhasesController</text><ellipse cx="506.5" cy="49" fill="#E2E2F0" rx="12" ry="12" style="stroke:#181818;stroke-width:0.5;"/><polygon fill="#181818" points="502.5,37,508.5,32,506.5,37,508.5,42,502.5,37" style="stroke:#181818;stroke-width:1.0;"/><text fill="#000000" font-family="sans-serif" font-size="14" lengthAdjust="spacing" textLength="117" x="445" y="612.3027">PhasesController</text><ellipse cx="506.5" cy="631.2559" fill="#E2E2F0" rx="12" ry="12" style="stroke:#181818;stroke-width:0.5;"/><polygon fill="#181818" points="502.5,619.2559,508.5,614.2559,506.5,619.2559,508.5,624.2559,502.5,619.2559" style="stroke:#181818;stroke-width:1.0;"/><text fill="#000000" font-family="sans-serif" font-size="14" lengthAdjust="spacing" textLength="150" x="608.5" y="78.5352">PhaseValidatorService</text><ellipse cx="686.5" cy="49" fill="#E2E2F0" rx="12" ry="12" style="stroke:#181818;stroke-width:0.5;"/><line style="stroke:#181818;stroke-width:0.5;" x1="674.5" x2="698.5" y1="63" y2="63"/><text fill="#000000" font-family="sans-serif" font-size="14" lengthAdjust="spacing" textLength="150" x="608.5" y="612.3027">PhaseValidatorService</text><ellipse cx="686.5" cy="631.2559" fill="#E2E2F0" rx="12" ry="12" style="stroke:#181818;stroke-width:0.5;"/><line style="stroke:#181818;stroke-width:0.5;" x1="674.5" x2="698.5" y1="645.2559" y2="645.2559"/><text fill="#000000" font-family="sans-serif" font-size="14" lengthAdjust="spacing" textLength="135" x="774.5" y="78.5352">RecruitmentProcess</text><ellipse cx="845" cy="49" fill="#E2E2F0" rx="12" ry="12" style="stroke:#181818;stroke-width:0.5;"/><line style="stroke:#181818;stroke-width:0.5;" x1="833" x2="857" y1="63" y2="63"/><text fill="#000000" font-family="sans-serif" font-size="14" lengthAdjust="spacing" textLength="135" x="774.5" y="612.3027">RecruitmentProcess</text><ellipse cx="845" cy="631.2559" fill="#E2E2F0" rx="12" ry="12" style="stroke:#181818;stroke-width:0.5;"/><line style="stroke:#181818;stroke-width:0.5;" x1="833" x2="857" y1="645.2559" y2="645.2559"/><text fill="#000000" font-family="sans-serif" font-size="14" lengthAdjust="spacing" textLength="154" x="925.5" y="78.5352">JobOpeningRepository</text><ellipse cx="1005.5" cy="49" fill="#E2E2F0" rx="12" ry="12" style="stroke:#181818;stroke-width:0.5;"/><line style="stroke:#181818;stroke-width:0.5;" x1="993.5" x2="1017.5" y1="63" y2="63"/><text fill="#000000" font-family="sans-serif" font-size="14" lengthAdjust="spacing" textLength="154" x="925.5" y="612.3027">JobOpeningRepository</text><ellipse cx="1005.5" cy="631.2559" fill="#E2E2F0" rx="12" ry="12" style="stroke:#181818;stroke-width:0.5;"/><line style="stroke:#181818;stroke-width:0.5;" x1="993.5" x2="1017.5" y1="645.2559" y2="645.2559"/><text fill="#000000" font-family="sans-serif" font-size="14" lengthAdjust="spacing" textLength="151" x="1095.5" y="78.5352">ApplicationRepository</text><ellipse cx="1174" cy="49" fill="#E2E2F0" rx="12" ry="12" style="stroke:#181818;stroke-width:0.5;"/><line style="stroke:#181818;stroke-width:0.5;" x1="1162" x2="1186" y1="63" y2="63"/><text fill="#000000" font-family="sans-serif" font-size="14" lengthAdjust="spacing" textLength="151" x="1095.5" y="612.3027">ApplicationRepository</text><ellipse cx="1174" cy="631.2559" fill="#E2E2F0" rx="12" ry="12" style="stroke:#181818;stroke-width:0.5;"/><line style="stroke:#181818;stroke-width:0.5;" x1="1162" x2="1186" y1="645.2559" y2="645.2559"/><polygon fill="#181818" points="287.5,108.7988,297.5,112.7988,287.5,116.7988,291.5,112.7988" style="stroke:#181818;stroke-width:1.0;"/><line style="stroke:#181818;stroke-width:1.0;" x1="71.5" x2="293.5" y1="112.7988" y2="112.7988"/><text fill="#000000" font-family="sans-serif" font-size="13" lengthAdjust="spacing" textLength="121" x="78.5" y="108.0566">Insert JobReference</text><polygon fill="#181818" points="494.5,138.1094,504.5,142.1094,494.5,146.1094,498.5,142.1094" style="stroke:#181818;stroke-width:1.0;"/><line style="stroke:#181818;stroke-width:1.0;" x1="299.5" x2="500.5" y1="142.1094" y2="142.1094"/><text fill="#000000" font-family="sans-serif" font-size="13" lengthAdjust="spacing" textLength="129" x="306.5" y="137.3672">Submit JobReference</text><polygon fill="#181818" points="993.5,167.4199,1003.5,171.4199,993.5,175.4199,997.5,171.4199" style="stroke:#181818;stroke-width:1.0;"/><line style="stroke:#181818;stroke-width:1.0;" x1="506.5" x2="999.5" y1="171.4199" y2="171.4199"/><text fill="#000000" font-family="sans-serif" font-size="13" lengthAdjust="spacing" textLength="135" x="513.5" y="166.6777">Validate JobReference</text><polygon fill="#181818" points="517.5,196.7305,507.5,200.7305,517.5,204.7305,513.5,200.7305" style="stroke:#181818;stroke-width:1.0;"/><line style="stroke:#181818;stroke-width:1.0;stroke-dasharray:2.0,2.0;" x1="511.5" x2="1004.5" y1="200.7305" y2="200.7305"/><text fill="#000000" font-family="sans-serif" font-size="13" lengthAdjust="spacing" textLength="187" x="523.5" y="195.9883">JobReference validation result</text><polygon fill="#181818" points="674.5,226.041,684.5,230.041,674.5,234.041,678.5,230.041" style="stroke:#181818;stroke-width:1.0;"/><line style="stroke:#181818;stroke-width:1.0;" x1="506.5" x2="680.5" y1="230.041" y2="230.041"/><text fill="#000000" font-family="sans-serif" font-size="13" lengthAdjust="spacing" textLength="156" x="513.5" y="225.2988">Validate phase transition</text><polygon fill="#181818" points="1162,255.3516,1172,259.3516,1162,263.3516,1166,259.3516" style="stroke:#181818;stroke-width:1.0;"/><line style="stroke:#181818;stroke-width:1.0;" x1="686.5" x2="1168" y1="259.3516" y2="259.3516"/><text fill="#000000" font-family="sans-serif" font-size="13" lengthAdjust="spacing" textLength="163" x="693.5" y="254.6094">Check applications status</text><polygon fill="#181818" points="697.5,284.6621,687.5,288.6621,697.5,292.6621,693.5,288.6621" style="stroke:#181818;stroke-width:1.0;"/><line style="stroke:#181818;stroke-width:1.0;stroke-dasharray:2.0,2.0;" x1="691.5" x2="1173" y1="288.6621" y2="288.6621"/><text fill="#000000" font-family="sans-serif" font-size="13" lengthAdjust="spacing" textLength="122" x="703.5" y="283.9199">Applications status</text><polygon fill="#181818" points="517.5,313.9727,507.5,317.9727,517.5,321.9727,513.5,317.9727" style="stroke:#181818;stroke-width:1.0;"/><line style="stroke:#181818;stroke-width:1.0;stroke-dasharray:2.0,2.0;" x1="511.5" x2="685.5" y1="317.9727" y2="317.9727"/><text fill="#000000" font-family="sans-serif" font-size="13" lengthAdjust="spacing" textLength="103" x="523.5" y="313.2305">Validation result</text><polygon fill="#181818" points="310.5,343.2832,300.5,347.2832,310.5,351.2832,306.5,347.2832" style="stroke:#181818;stroke-width:1.0;"/><line style="stroke:#181818;stroke-width:1.0;stroke-dasharray:2.0,2.0;" x1="304.5" x2="505.5" y1="347.2832" y2="347.2832"/><text fill="#000000" font-family="sans-serif" font-size="13" lengthAdjust="spacing" textLength="164" x="316.5" y="342.541">Display transition options</text><polygon fill="#181818" points="287.5,372.5938,297.5,376.5938,287.5,380.5938,291.5,376.5938" style="stroke:#181818;stroke-width:1.0;"/><line style="stroke:#181818;stroke-width:1.0;" x1="71.5" x2="293.5" y1="376.5938" y2="376.5938"/><text fill="#000000" font-family="sans-serif" font-size="13" lengthAdjust="spacing" textLength="204" x="78.5" y="371.8516">Select action (open/close phase)</text><polygon fill="#181818" points="494.5,401.9043,504.5,405.9043,494.5,409.9043,498.5,405.9043" style="stroke:#181818;stroke-width:1.0;"/><line style="stroke:#181818;stroke-width:1.0;" x1="299.5" x2="500.5" y1="405.9043" y2="405.9043"/><text fill="#000000" font-family="sans-serif" font-size="13" lengthAdjust="spacing" textLength="87" x="306.5" y="401.1621">Submit action</text><polygon fill="#181818" points="833,431.2148,843,435.2148,833,439.2148,837,435.2148" style="stroke:#181818;stroke-width:1.0;"/><line style="stroke:#181818;stroke-width:1.0;" x1="506.5" x2="839" y1="435.2148" y2="435.2148"/><text fill="#000000" font-family="sans-serif" font-size="13" lengthAdjust="spacing" textLength="128" x="513.5" y="430.4727">Update phase status</text><polygon fill="#181818" points="993.5,460.5254,1003.5,464.5254,993.5,468.5254,997.5,464.5254" style="stroke:#181818;stroke-width:1.0;"/><line style="stroke:#181818;stroke-width:1.0;" x1="845" x2="999.5" y1="464.5254" y2="464.5254"/><text fill="#000000" font-family="sans-serif" font-size="13" lengthAdjust="spacing" textLength="84" x="852" y="459.7832">Save changes</text><polygon fill="#181818" points="856,489.8359,846,493.8359,856,497.8359,852,493.8359" style="stroke:#181818;stroke-width:1.0;"/><line style="stroke:#181818;stroke-width:1.0;stroke-dasharray:2.0,2.0;" x1="850" x2="1004.5" y1="493.8359" y2="493.8359"/><text fill="#000000" font-family="sans-serif" font-size="13" lengthAdjust="spacing" textLength="94" x="862" y="489.0938">Changes saved</text><polygon fill="#181818" points="517.5,519.1465,507.5,523.1465,517.5,527.1465,513.5,523.1465" style="stroke:#181818;stroke-width:1.0;"/><line style="stroke:#181818;stroke-width:1.0;stroke-dasharray:2.0,2.0;" x1="511.5" x2="844" y1="523.1465" y2="523.1465"/><text fill="#000000" font-family="sans-serif" font-size="13" lengthAdjust="spacing" textLength="94" x="523.5" y="518.4043">Status updated</text><polygon fill="#181818" points="310.5,548.457,300.5,552.457,310.5,556.457,306.5,552.457" style="stroke:#181818;stroke-width:1.0;"/><line style="stroke:#181818;stroke-width:1.0;stroke-dasharray:2.0,2.0;" x1="304.5" x2="505.5" y1="552.457" y2="552.457"/><text fill="#000000" font-family="sans-serif" font-size="13" lengthAdjust="spacing" textLength="183" x="316.5" y="547.7148">Display confirmation or error</text><polygon fill="#181818" points="82.5,577.7676,72.5,581.7676,82.5,585.7676,78.5,581.7676" style="stroke:#181818;stroke-width:1.0;"/><line style="stroke:#181818;stroke-width:1.0;stroke-dasharray:2.0,2.0;" x1="76.5" x2="298.5" y1="581.7676" y2="581.7676"/><text fill="#000000" font-family="sans-serif" font-size="13" lengthAdjust="spacing" textLength="169" x="88.5" y="577.0254">Show confirmation or error</text><!--SRC=[ZLHDRy8m3BttL_Yu7T3kFKn2tOL9qn0Lt4rg85gQH4xAnBzV-hMMOIQExVDxVdvsYoewXg89qTN47sZnI9pjNMChv0kiJnWeR5UPSZQoCyEBedyogPHir74etA7H5IR1alYi5OtWXXGtEjRfSSrEKGWZykxsdvwijiSDUHTqubv6REczqGgZTdO6Pd-ymkBrrsKEAnk8OokxeGCnsMHYHAVAoNuEPREljSYOgbgcv3I7OMAwvakri13RptbmxjNImC0K6XD59sBKCok-nI4osjGvQMKYeLKI4ywXE97w0fp0025YR48c4gR9Raqj1P4xTiHuTWyaSdK0RpfuWvVP-E1yr_x_mod9a8g0ggCykRI-5sLS6E9yVkoAUhgujTjl88UjdoriIEUsxlxrbNWcK2UqHmhtZqxgNFGa24cX4dlAOtOUeUbyLu_k8lqx3fhhVetfRqFCZcU19jAVtQHE9_Sj4ty0]--></g></svg>