<?xml version="1.0" encoding="us-ascii" standalone="no"?><svg xmlns="http://www.w3.org/2000/svg" xmlns:xlink="http://www.w3.org/1999/xlink" contentStyleType="text/css" height="1577px" preserveAspectRatio="none" style="width:1886px;height:1577px;background:#FFFFFF;" version="1.1" viewBox="0 0 1886 1577" width="1886px" zoomAndPan="magnify"><defs/><g><rect fill="#FFFFFF" height="1366.1738" style="stroke:#181818;stroke-width:1.0;" width="10" x="264.5" y="112.7988"/><rect fill="#FFFFFF" height="117.2422" style="stroke:#181818;stroke-width:1.0;" width="10" x="605.5" y="142.1094"/><rect fill="#FFFFFF" height="850.9395" style="stroke:#181818;stroke-width:1.0;" width="10" x="605.5" y="347.2832"/><rect fill="#FFFFFF" height="163.5078" style="stroke:#181818;stroke-width:1.0;" width="10" x="605.5" y="1286.1543"/><rect fill="#FFFFFF" height="205.1738" style="stroke:#181818;stroke-width:1.0;" width="10" x="937.5" y="435.2148"/><rect fill="#FFFFFF" height="514.5234" style="stroke:#181818;stroke-width:1.0;" width="10" x="937.5" y="654.3887"/><rect fill="#FFFFFF" height="58.6211" style="stroke:#181818;stroke-width:1.0;" width="10" x="1331" y="171.4199"/><rect fill="#FFFFFF" height="58.6211" style="stroke:#181818;stroke-width:1.0;" width="10" x="1331" y="464.5254"/><rect fill="#FFFFFF" height="58.6211" style="stroke:#181818;stroke-width:1.0;" width="10" x="1331" y="552.457"/><rect fill="#FFFFFF" height="29.3105" style="stroke:#181818;stroke-width:1.0;" width="10" x="1494" y="376.5938"/><rect fill="#FFFFFF" height="29.3105" style="stroke:#181818;stroke-width:1.0;" width="10" x="1662.5" y="781.5859"/><rect fill="#FFFFFF" height="29.3105" style="stroke:#181818;stroke-width:1.0;" width="10" x="1662.5" y="864.5176"/><rect fill="#FFFFFF" height="29.3105" style="stroke:#181818;stroke-width:1.0;" width="10" x="1662.5" y="938.0938"/><rect fill="#FFFFFF" height="29.3105" style="stroke:#181818;stroke-width:1.0;" width="10" x="1662.5" y="1011.6699"/><rect fill="#FFFFFF" height="29.3105" style="stroke:#181818;stroke-width:1.0;" width="10" x="1807.5" y="708.0098"/><rect fill="none" height="386.5918" style="stroke:#000000;stroke-width:1.5;" width="1034.5" x="844.5" y="669.3887"/><rect fill="none" height="223.084" style="stroke:#000000;stroke-width:1.5;" width="901.5" x="854.5" y="825.8965"/><rect fill="none" height="90.8867" style="stroke:#000000;stroke-width:1.5;" width="724" x="539" y="1301.1543"/><line style="stroke:#181818;stroke-width:0.5;stroke-dasharray:5.0,5.0;" x1="71" x2="71" y1="81.4883" y2="1496.9727"/><line style="stroke:#181818;stroke-width:0.5;stroke-dasharray:5.0,5.0;" x1="269" x2="269" y1="81.4883" y2="1496.9727"/><line style="stroke:#181818;stroke-width:0.5;stroke-dasharray:5.0,5.0;" x1="610" x2="610" y1="81.4883" y2="1496.9727"/><line style="stroke:#181818;stroke-width:0.5;stroke-dasharray:5.0,5.0;" x1="942.5" x2="942.5" y1="81.4883" y2="1496.9727"/><line style="stroke:#181818;stroke-width:0.5;stroke-dasharray:5.0,5.0;" x1="1182" x2="1182" y1="81.4883" y2="1496.9727"/><line style="stroke:#181818;stroke-width:0.5;stroke-dasharray:5.0,5.0;" x1="1336" x2="1336" y1="81.4883" y2="1496.9727"/><line style="stroke:#181818;stroke-width:0.5;stroke-dasharray:5.0,5.0;" x1="1499" x2="1499" y1="81.4883" y2="1496.9727"/><line style="stroke:#181818;stroke-width:0.5;stroke-dasharray:5.0,5.0;" x1="1667" x2="1667" y1="81.4883" y2="1496.9727"/><line style="stroke:#181818;stroke-width:0.5;stroke-dasharray:5.0,5.0;" x1="1812" x2="1812" y1="81.4883" y2="1496.9727"/><text fill="#000000" font-family="sans-serif" font-size="14" lengthAdjust="spacing" textLength="127" x="5" y="78.5352">CustomerManager</text><ellipse cx="71.5" cy="13.5" fill="#E2E2F0" rx="8" ry="8" style="stroke:#181818;stroke-width:0.5;"/><path d="M71.5,21.5 L71.5,48.5 M58.5,29.5 L84.5,29.5 M71.5,48.5 L58.5,63.5 M71.5,48.5 L84.5,63.5 " fill="none" style="stroke:#181818;stroke-width:0.5;"/><text fill="#000000" font-family="sans-serif" font-size="14" lengthAdjust="spacing" textLength="127" x="5" y="1509.5078">CustomerManager</text><ellipse cx="71.5" cy="1520.9609" fill="#E2E2F0" rx="8" ry="8" style="stroke:#181818;stroke-width:0.5;"/><path d="M71.5,1528.9609 L71.5,1555.9609 M58.5,1536.9609 L84.5,1536.9609 M71.5,1555.9609 L58.5,1570.9609 M71.5,1555.9609 L84.5,1570.9609 " fill="none" style="stroke:#181818;stroke-width:0.5;"/><text fill="#000000" font-family="sans-serif" font-size="14" lengthAdjust="spacing" textLength="61" x="236" y="78.5352">PhasesUI</text><path d="M249,37 L249,61 M249,49 L266,49 " fill="none" style="stroke:#181818;stroke-width:0.5;"/><ellipse cx="278" cy="49" fill="#E2E2F0" rx="12" ry="12" style="stroke:#181818;stroke-width:0.5;"/><text fill="#000000" font-family="sans-serif" font-size="14" lengthAdjust="spacing" textLength="61" x="236" y="1509.5078">PhasesUI</text><path d="M249,1516.4609 L249,1540.4609 M249,1528.4609 L266,1528.4609 " fill="none" style="stroke:#181818;stroke-width:0.5;"/><ellipse cx="278" cy="1528.4609" fill="#E2E2F0" rx="12" ry="12" style="stroke:#181818;stroke-width:0.5;"/><text fill="#000000" font-family="sans-serif" font-size="14" lengthAdjust="spacing" textLength="117" x="549" y="78.5352">PhasesController</text><ellipse cx="610.5" cy="49" fill="#E2E2F0" rx="12" ry="12" style="stroke:#181818;stroke-width:0.5;"/><polygon fill="#181818" points="606.5,37,612.5,32,610.5,37,612.5,42,606.5,37" style="stroke:#181818;stroke-width:1.0;"/><text fill="#000000" font-family="sans-serif" font-size="14" lengthAdjust="spacing" textLength="117" x="549" y="1509.5078">PhasesController</text><ellipse cx="610.5" cy="1528.4609" fill="#E2E2F0" rx="12" ry="12" style="stroke:#181818;stroke-width:0.5;"/><polygon fill="#181818" points="606.5,1516.4609,612.5,1511.4609,610.5,1516.4609,612.5,1521.4609,606.5,1516.4609" style="stroke:#181818;stroke-width:1.0;"/><text fill="#000000" font-family="sans-serif" font-size="14" lengthAdjust="spacing" textLength="150" x="864.5" y="78.5352">PhaseValidatorService</text><ellipse cx="942.5" cy="49" fill="#E2E2F0" rx="12" ry="12" style="stroke:#181818;stroke-width:0.5;"/><line style="stroke:#181818;stroke-width:0.5;" x1="930.5" x2="954.5" y1="63" y2="63"/><text fill="#000000" font-family="sans-serif" font-size="14" lengthAdjust="spacing" textLength="150" x="864.5" y="1509.5078">PhaseValidatorService</text><ellipse cx="942.5" cy="1528.4609" fill="#E2E2F0" rx="12" ry="12" style="stroke:#181818;stroke-width:0.5;"/><line style="stroke:#181818;stroke-width:0.5;" x1="930.5" x2="954.5" y1="1542.4609" y2="1542.4609"/><text fill="#000000" font-family="sans-serif" font-size="14" lengthAdjust="spacing" textLength="135" x="1112" y="78.5352">RecruitmentProcess</text><ellipse cx="1182.5" cy="49" fill="#E2E2F0" rx="12" ry="12" style="stroke:#181818;stroke-width:0.5;"/><line style="stroke:#181818;stroke-width:0.5;" x1="1170.5" x2="1194.5" y1="63" y2="63"/><text fill="#000000" font-family="sans-serif" font-size="14" lengthAdjust="spacing" textLength="135" x="1112" y="1509.5078">RecruitmentProcess</text><ellipse cx="1182.5" cy="1528.4609" fill="#E2E2F0" rx="12" ry="12" style="stroke:#181818;stroke-width:0.5;"/><line style="stroke:#181818;stroke-width:0.5;" x1="1170.5" x2="1194.5" y1="1542.4609" y2="1542.4609"/><rect fill="#E2E2F0" height="30.4883" rx="2.5" ry="2.5" style="stroke:#181818;stroke-width:0.5;" width="146" x="1263" y="50"/><text fill="#000000" font-family="sans-serif" font-size="14" lengthAdjust="spacing" textLength="132" x="1270" y="70.5352">PersistenceContext</text><rect fill="#E2E2F0" height="30.4883" rx="2.5" ry="2.5" style="stroke:#181818;stroke-width:0.5;" width="146" x="1263" y="1495.9727"/><text fill="#000000" font-family="sans-serif" font-size="14" lengthAdjust="spacing" textLength="132" x="1270" y="1516.5078">PersistenceContext</text><text fill="#000000" font-family="sans-serif" font-size="14" lengthAdjust="spacing" textLength="154" x="1419" y="78.5352">JobOpeningRepository</text><path d="M1481,29 C1481,19 1499,19 1499,19 C1499,19 1517,19 1517,29 L1517,55 C1517,65 1499,65 1499,65 C1499,65 1481,65 1481,55 L1481,29 " fill="#E2E2F0" style="stroke:#181818;stroke-width:1.5;"/><path d="M1481,29 C1481,39 1499,39 1499,39 C1499,39 1517,39 1517,29 " fill="none" style="stroke:#181818;stroke-width:1.5;"/><text fill="#000000" font-family="sans-serif" font-size="14" lengthAdjust="spacing" textLength="154" x="1419" y="1509.5078">JobOpeningRepository</text><path d="M1481,1522.4609 C1481,1512.4609 1499,1512.4609 1499,1512.4609 C1499,1512.4609 1517,1512.4609 1517,1522.4609 L1517,1548.4609 C1517,1558.4609 1499,1558.4609 1499,1558.4609 C1499,1558.4609 1481,1558.4609 1481,1548.4609 L1481,1522.4609 " fill="#E2E2F0" style="stroke:#181818;stroke-width:1.5;"/><path d="M1481,1522.4609 C1481,1532.4609 1499,1532.4609 1499,1532.4609 C1499,1532.4609 1517,1532.4609 1517,1522.4609 " fill="none" style="stroke:#181818;stroke-width:1.5;"/><text fill="#000000" font-family="sans-serif" font-size="14" lengthAdjust="spacing" textLength="151" x="1589" y="78.5352">ApplicationRepository</text><path d="M1649.5,29 C1649.5,19 1667.5,19 1667.5,19 C1667.5,19 1685.5,19 1685.5,29 L1685.5,55 C1685.5,65 1667.5,65 1667.5,65 C1667.5,65 1649.5,65 1649.5,55 L1649.5,29 " fill="#E2E2F0" style="stroke:#181818;stroke-width:1.5;"/><path d="M1649.5,29 C1649.5,39 1667.5,39 1667.5,39 C1667.5,39 1685.5,39 1685.5,29 " fill="none" style="stroke:#181818;stroke-width:1.5;"/><text fill="#000000" font-family="sans-serif" font-size="14" lengthAdjust="spacing" textLength="151" x="1589" y="1509.5078">ApplicationRepository</text><path d="M1649.5,1522.4609 C1649.5,1512.4609 1667.5,1512.4609 1667.5,1512.4609 C1667.5,1512.4609 1685.5,1512.4609 1685.5,1522.4609 L1685.5,1548.4609 C1685.5,1558.4609 1667.5,1558.4609 1667.5,1558.4609 C1667.5,1558.4609 1649.5,1558.4609 1649.5,1548.4609 L1649.5,1522.4609 " fill="#E2E2F0" style="stroke:#181818;stroke-width:1.5;"/><path d="M1649.5,1522.4609 C1649.5,1532.4609 1667.5,1532.4609 1667.5,1532.4609 C1667.5,1532.4609 1685.5,1532.4609 1685.5,1522.4609 " fill="none" style="stroke:#181818;stroke-width:1.5;"/><text fill="#000000" font-family="sans-serif" font-size="14" lengthAdjust="spacing" textLength="107" x="1756" y="78.5352">RankRepository</text><path d="M1794.5,29 C1794.5,19 1812.5,19 1812.5,19 C1812.5,19 1830.5,19 1830.5,29 L1830.5,55 C1830.5,65 1812.5,65 1812.5,65 C1812.5,65 1794.5,65 1794.5,55 L1794.5,29 " fill="#E2E2F0" style="stroke:#181818;stroke-width:1.5;"/><path d="M1794.5,29 C1794.5,39 1812.5,39 1812.5,39 C1812.5,39 1830.5,39 1830.5,29 " fill="none" style="stroke:#181818;stroke-width:1.5;"/><text fill="#000000" font-family="sans-serif" font-size="14" lengthAdjust="spacing" textLength="107" x="1756" y="1509.5078">RankRepository</text><path d="M1794.5,1522.4609 C1794.5,1512.4609 1812.5,1512.4609 1812.5,1512.4609 C1812.5,1512.4609 1830.5,1512.4609 1830.5,1522.4609 L1830.5,1548.4609 C1830.5,1558.4609 1812.5,1558.4609 1812.5,1558.4609 C1812.5,1558.4609 1794.5,1558.4609 1794.5,1548.4609 L1794.5,1522.4609 " fill="#E2E2F0" style="stroke:#181818;stroke-width:1.5;"/><path d="M1794.5,1522.4609 C1794.5,1532.4609 1812.5,1532.4609 1812.5,1532.4609 C1812.5,1532.4609 1830.5,1532.4609 1830.5,1522.4609 " fill="none" style="stroke:#181818;stroke-width:1.5;"/><rect fill="#FFFFFF" height="1366.1738" style="stroke:#181818;stroke-width:1.0;" width="10" x="264.5" y="112.7988"/><rect fill="#FFFFFF" height="117.2422" style="stroke:#181818;stroke-width:1.0;" width="10" x="605.5" y="142.1094"/><rect fill="#FFFFFF" height="850.9395" style="stroke:#181818;stroke-width:1.0;" width="10" x="605.5" y="347.2832"/><rect fill="#FFFFFF" height="163.5078" style="stroke:#181818;stroke-width:1.0;" width="10" x="605.5" y="1286.1543"/><rect fill="#FFFFFF" height="205.1738" style="stroke:#181818;stroke-width:1.0;" width="10" x="937.5" y="435.2148"/><rect fill="#FFFFFF" height="514.5234" style="stroke:#181818;stroke-width:1.0;" width="10" x="937.5" y="654.3887"/><rect fill="#FFFFFF" height="58.6211" style="stroke:#181818;stroke-width:1.0;" width="10" x="1331" y="171.4199"/><rect fill="#FFFFFF" height="58.6211" style="stroke:#181818;stroke-width:1.0;" width="10" x="1331" y="464.5254"/><rect fill="#FFFFFF" height="58.6211" style="stroke:#181818;stroke-width:1.0;" width="10" x="1331" y="552.457"/><rect fill="#FFFFFF" height="29.3105" style="stroke:#181818;stroke-width:1.0;" width="10" x="1494" y="376.5938"/><rect fill="#FFFFFF" height="29.3105" style="stroke:#181818;stroke-width:1.0;" width="10" x="1662.5" y="781.5859"/><rect fill="#FFFFFF" height="29.3105" style="stroke:#181818;stroke-width:1.0;" width="10" x="1662.5" y="864.5176"/><rect fill="#FFFFFF" height="29.3105" style="stroke:#181818;stroke-width:1.0;" width="10" x="1662.5" y="938.0938"/><rect fill="#FFFFFF" height="29.3105" style="stroke:#181818;stroke-width:1.0;" width="10" x="1662.5" y="1011.6699"/><rect fill="#FFFFFF" height="29.3105" style="stroke:#181818;stroke-width:1.0;" width="10" x="1807.5" y="708.0098"/><polygon fill="#181818" points="252.5,108.7988,262.5,112.7988,252.5,116.7988,256.5,112.7988" style="stroke:#181818;stroke-width:1.0;"/><line style="stroke:#181818;stroke-width:1.0;" x1="0" x2="258.5" y1="112.7988" y2="112.7988"/><text fill="#000000" font-family="sans-serif" font-size="13" lengthAdjust="spacing" textLength="57" x="7" y="108.0566">doShow()</text><polygon fill="#181818" points="593.5,138.1094,603.5,142.1094,593.5,146.1094,597.5,142.1094" style="stroke:#181818;stroke-width:1.0;"/><line style="stroke:#181818;stroke-width:1.0;" x1="274.5" x2="599.5" y1="142.1094" y2="142.1094"/><text fill="#000000" font-family="sans-serif" font-size="13" lengthAdjust="spacing" textLength="46" x="281.5" y="137.3672">create()</text><polygon fill="#181818" points="1319,167.4199,1329,171.4199,1319,175.4199,1323,171.4199" style="stroke:#181818;stroke-width:1.0;"/><line style="stroke:#181818;stroke-width:1.0;" x1="615.5" x2="1325" y1="171.4199" y2="171.4199"/><text fill="#000000" font-family="sans-serif" font-size="13" lengthAdjust="spacing" textLength="168" x="622.5" y="166.6777">repositories().jobOpening()</text><polygon fill="#181818" points="1487,196.7305,1497,200.7305,1487,204.7305,1491,200.7305" style="stroke:#181818;stroke-width:1.0;"/><line style="stroke:#181818;stroke-width:1.0;" x1="1341" x2="1493" y1="200.7305" y2="200.7305"/><text fill="#000000" font-family="sans-serif" font-size="13" lengthAdjust="spacing" textLength="46" x="1348" y="195.9883">create()</text><polygon fill="#181818" points="626.5,226.041,616.5,230.041,626.5,234.041,622.5,230.041" style="stroke:#181818;stroke-width:1.0;"/><line style="stroke:#181818;stroke-width:1.0;stroke-dasharray:2.0,2.0;" x1="620.5" x2="1335" y1="230.041" y2="230.041"/><text fill="#000000" font-family="sans-serif" font-size="13" lengthAdjust="spacing" textLength="292" x="632.5" y="225.2988">jobOpeningRepository : JobOpeningRepository</text><polygon fill="#181818" points="285.5,255.3516,275.5,259.3516,285.5,263.3516,281.5,259.3516" style="stroke:#181818;stroke-width:1.0;"/><line style="stroke:#181818;stroke-width:1.0;stroke-dasharray:2.0,2.0;" x1="279.5" x2="609.5" y1="259.3516" y2="259.3516"/><text fill="#000000" font-family="sans-serif" font-size="13" lengthAdjust="spacing" textLength="179" x="291.5" y="254.6094">controller : PhasesController</text><polygon fill="#181818" points="82.5,284.6621,72.5,288.6621,82.5,292.6621,78.5,288.6621" style="stroke:#181818;stroke-width:1.0;"/><line style="stroke:#181818;stroke-width:1.0;stroke-dasharray:2.0,2.0;" x1="76.5" x2="263.5" y1="288.6621" y2="288.6621"/><text fill="#000000" font-family="sans-serif" font-size="13" lengthAdjust="spacing" textLength="138" x="88.5" y="283.9199">Asks for JobReference</text><polygon fill="#181818" points="252.5,313.9727,262.5,317.9727,252.5,321.9727,256.5,317.9727" style="stroke:#181818;stroke-width:1.0;"/><line style="stroke:#181818;stroke-width:1.0;stroke-dasharray:2.0,2.0;" x1="71.5" x2="258.5" y1="317.9727" y2="317.9727"/><text fill="#000000" font-family="sans-serif" font-size="13" lengthAdjust="spacing" textLength="121" x="78.5" y="313.2305">Insert JobReference</text><polygon fill="#181818" points="593.5,343.2832,603.5,347.2832,593.5,351.2832,597.5,347.2832" style="stroke:#181818;stroke-width:1.0;"/><line style="stroke:#181818;stroke-width:1.0;" x1="274.5" x2="599.5" y1="347.2832" y2="347.2832"/><text fill="#000000" font-family="sans-serif" font-size="13" lengthAdjust="spacing" textLength="312" x="281.5" y="342.541">validateJobReference(jobReference : JobReference)</text><polygon fill="#181818" points="1482,372.5938,1492,376.5938,1482,380.5938,1486,376.5938" style="stroke:#181818;stroke-width:1.0;"/><line style="stroke:#181818;stroke-width:1.0;" x1="615.5" x2="1488" y1="376.5938" y2="376.5938"/><text fill="#000000" font-family="sans-serif" font-size="13" lengthAdjust="spacing" textLength="282" x="622.5" y="371.8516">findJobOpeningByJobReference(JobReference)</text><polygon fill="#181818" points="626.5,401.9043,616.5,405.9043,626.5,409.9043,622.5,405.9043" style="stroke:#181818;stroke-width:1.0;"/><line style="stroke:#181818;stroke-width:1.0;stroke-dasharray:2.0,2.0;" x1="620.5" x2="1498" y1="405.9043" y2="405.9043"/><text fill="#000000" font-family="sans-serif" font-size="13" lengthAdjust="spacing" textLength="158" x="632.5" y="401.1621">jobOpening : JobOpening</text><polygon fill="#181818" points="925.5,431.2148,935.5,435.2148,925.5,439.2148,929.5,435.2148" style="stroke:#181818;stroke-width:1.0;"/><line style="stroke:#181818;stroke-width:1.0;" x1="615.5" x2="931.5" y1="435.2148" y2="435.2148"/><text fill="#000000" font-family="sans-serif" font-size="13" lengthAdjust="spacing" textLength="303" x="622.5" y="430.4727">create(recruitmentProcess : RecruitmentProcess)</text><polygon fill="#181818" points="1319,460.5254,1329,464.5254,1319,468.5254,1323,464.5254" style="stroke:#181818;stroke-width:1.0;"/><line style="stroke:#181818;stroke-width:1.0;" x1="947.5" x2="1325" y1="464.5254" y2="464.5254"/><text fill="#000000" font-family="sans-serif" font-size="13" lengthAdjust="spacing" textLength="165" x="954.5" y="459.7832">repositories().application()</text><polygon fill="#181818" points="1655.5,489.8359,1665.5,493.8359,1655.5,497.8359,1659.5,493.8359" style="stroke:#181818;stroke-width:1.0;"/><line style="stroke:#181818;stroke-width:1.0;" x1="1341" x2="1661.5" y1="493.8359" y2="493.8359"/><text fill="#000000" font-family="sans-serif" font-size="13" lengthAdjust="spacing" textLength="46" x="1348" y="489.0938">create()</text><polygon fill="#181818" points="958.5,519.1465,948.5,523.1465,958.5,527.1465,954.5,523.1465" style="stroke:#181818;stroke-width:1.0;"/><line style="stroke:#181818;stroke-width:1.0;stroke-dasharray:2.0,2.0;" x1="952.5" x2="1335" y1="523.1465" y2="523.1465"/><text fill="#000000" font-family="sans-serif" font-size="13" lengthAdjust="spacing" textLength="288" x="964.5" y="518.4043">applicationRepository : ApplicationRepository</text><polygon fill="#181818" points="1319,548.457,1329,552.457,1319,556.457,1323,552.457" style="stroke:#181818;stroke-width:1.0;"/><line style="stroke:#181818;stroke-width:1.0;" x1="947.5" x2="1325" y1="552.457" y2="552.457"/><text fill="#000000" font-family="sans-serif" font-size="13" lengthAdjust="spacing" textLength="123" x="954.5" y="547.7148">repositories().rank()</text><polygon fill="#181818" points="1800.5,577.7676,1810.5,581.7676,1800.5,585.7676,1804.5,581.7676" style="stroke:#181818;stroke-width:1.0;"/><line style="stroke:#181818;stroke-width:1.0;" x1="1341" x2="1806.5" y1="581.7676" y2="581.7676"/><text fill="#000000" font-family="sans-serif" font-size="13" lengthAdjust="spacing" textLength="46" x="1348" y="577.0254">create()</text><polygon fill="#181818" points="958.5,607.0781,948.5,611.0781,958.5,615.0781,954.5,611.0781" style="stroke:#181818;stroke-width:1.0;"/><line style="stroke:#181818;stroke-width:1.0;stroke-dasharray:2.0,2.0;" x1="952.5" x2="1335" y1="611.0781" y2="611.0781"/><text fill="#000000" font-family="sans-serif" font-size="13" lengthAdjust="spacing" textLength="205" x="964.5" y="606.3359">rankRepository : RankRepository</text><polygon fill="#181818" points="626.5,636.3887,616.5,640.3887,626.5,644.3887,622.5,640.3887" style="stroke:#181818;stroke-width:1.0;"/><line style="stroke:#181818;stroke-width:1.0;stroke-dasharray:2.0,2.0;" x1="620.5" x2="941.5" y1="640.3887" y2="640.3887"/><text fill="#000000" font-family="sans-serif" font-size="13" lengthAdjust="spacing" textLength="285" x="632.5" y="635.6465">phaseValidatorService : PhaseValidatorService</text><polygon fill="#181818" points="925.5,650.3887,935.5,654.3887,925.5,658.3887,929.5,654.3887" style="stroke:#181818;stroke-width:1.0;"/><line style="stroke:#181818;stroke-width:1.0;" x1="615.5" x2="931.5" y1="654.3887" y2="654.3887"/><path d="M844.5,669.3887 L906.5,669.3887 L906.5,676.6992 L896.5,686.6992 L844.5,686.6992 L844.5,669.3887 " fill="#EEEEEE" style="stroke:#000000;stroke-width:1.5;"/><rect fill="none" height="386.5918" style="stroke:#000000;stroke-width:1.5;" width="1034.5" x="844.5" y="669.3887"/><text fill="#000000" font-family="sans-serif" font-size="13" font-weight="bold" lengthAdjust="spacing" textLength="17" x="859.5" y="682.957">alt</text><text fill="#000000" font-family="sans-serif" font-size="11" font-weight="bold" lengthAdjust="spacing" textLength="154" x="921.5" y="682.0234">[PhaseName == "Analysis"]</text><polygon fill="#181818" points="1795.5,704.0098,1805.5,708.0098,1795.5,712.0098,1799.5,708.0098" style="stroke:#181818;stroke-width:1.0;"/><line style="stroke:#181818;stroke-width:1.0;" x1="947.5" x2="1801.5" y1="708.0098" y2="708.0098"/><text fill="#000000" font-family="sans-serif" font-size="13" lengthAdjust="spacing" textLength="333" x="954.5" y="703.2676">findRankByJobReference(jobReference : JobReference)</text><polygon fill="#181818" points="958.5,733.3203,948.5,737.3203,958.5,741.3203,954.5,737.3203" style="stroke:#181818;stroke-width:1.0;"/><line style="stroke:#181818;stroke-width:1.0;stroke-dasharray:2.0,2.0;" x1="952.5" x2="1811.5" y1="737.3203" y2="737.3203"/><text fill="#000000" font-family="sans-serif" font-size="13" lengthAdjust="spacing" textLength="71" x="964.5" y="732.5781">rank : Rank</text><line style="stroke:#000000;stroke-width:1.0;stroke-dasharray:2.0,2.0;" x1="844.5" x2="1879" y1="746.3203" y2="746.3203"/><text fill="#000000" font-family="sans-serif" font-size="11" font-weight="bold" lengthAdjust="spacing" textLength="148" x="849.5" y="756.9551">[PhaseName != "Analysis"]</text><polygon fill="#181818" points="1650.5,777.5859,1660.5,781.5859,1650.5,785.5859,1654.5,781.5859" style="stroke:#181818;stroke-width:1.0;"/><line style="stroke:#181818;stroke-width:1.0;" x1="947.5" x2="1656.5" y1="781.5859" y2="781.5859"/><text fill="#000000" font-family="sans-serif" font-size="13" lengthAdjust="spacing" textLength="392" x="954.5" y="776.8438">countApplicationsByJobReference(jobReference : JobReference)</text><polygon fill="#181818" points="958.5,806.8965,948.5,810.8965,958.5,814.8965,954.5,810.8965" style="stroke:#181818;stroke-width:1.0;"/><line style="stroke:#181818;stroke-width:1.0;stroke-dasharray:2.0,2.0;" x1="952.5" x2="1666.5" y1="810.8965" y2="810.8965"/><text fill="#000000" font-family="sans-serif" font-size="13" lengthAdjust="spacing" textLength="171" x="964.5" y="806.1543">numberOfApplications : int</text><path d="M854.5,825.8965 L916.5,825.8965 L916.5,833.207 L906.5,843.207 L854.5,843.207 L854.5,825.8965 " fill="#EEEEEE" style="stroke:#000000;stroke-width:1.5;"/><rect fill="none" height="223.084" style="stroke:#000000;stroke-width:1.5;" width="901.5" x="854.5" y="825.8965"/><text fill="#000000" font-family="sans-serif" font-size="13" font-weight="bold" lengthAdjust="spacing" textLength="17" x="869.5" y="839.4648">alt</text><text fill="#000000" font-family="sans-serif" font-size="11" font-weight="bold" lengthAdjust="spacing" textLength="161" x="931.5" y="838.5313">[PhaseName == "Screening"]</text><polygon fill="#181818" points="1650.5,860.5176,1660.5,864.5176,1650.5,868.5176,1654.5,864.5176" style="stroke:#181818;stroke-width:1.0;"/><line style="stroke:#181818;stroke-width:1.0;" x1="947.5" x2="1656.5" y1="864.5176" y2="864.5176"/><text fill="#000000" font-family="sans-serif" font-size="13" lengthAdjust="spacing" textLength="374" x="954.5" y="859.7754">countScreeningByJobReference(jobReference : JobReference)</text><polygon fill="#181818" points="958.5,889.8281,948.5,893.8281,958.5,897.8281,954.5,893.8281" style="stroke:#181818;stroke-width:1.0;"/><line style="stroke:#181818;stroke-width:1.0;stroke-dasharray:2.0,2.0;" x1="952.5" x2="1666.5" y1="893.8281" y2="893.8281"/><text fill="#000000" font-family="sans-serif" font-size="13" lengthAdjust="spacing" textLength="232" x="964.5" y="889.0859">numberOfApplicationsScreening : int</text><line style="stroke:#000000;stroke-width:1.0;stroke-dasharray:2.0,2.0;" x1="854.5" x2="1756" y1="902.8281" y2="902.8281"/><text fill="#000000" font-family="sans-serif" font-size="11" font-weight="bold" lengthAdjust="spacing" textLength="165" x="859.5" y="913.4629">[PhaseName == "Interviews"]</text><polygon fill="#181818" points="1650.5,934.0938,1660.5,938.0938,1650.5,942.0938,1654.5,938.0938" style="stroke:#181818;stroke-width:1.0;"/><line style="stroke:#181818;stroke-width:1.0;" x1="947.5" x2="1656.5" y1="938.0938" y2="938.0938"/><text fill="#000000" font-family="sans-serif" font-size="13" lengthAdjust="spacing" textLength="377" x="954.5" y="933.3516">countInterviewsByJobReference(jobReference : JobReference)</text><polygon fill="#181818" points="958.5,963.4043,948.5,967.4043,958.5,971.4043,954.5,967.4043" style="stroke:#181818;stroke-width:1.0;"/><line style="stroke:#181818;stroke-width:1.0;stroke-dasharray:2.0,2.0;" x1="952.5" x2="1666.5" y1="967.4043" y2="967.4043"/><text fill="#000000" font-family="sans-serif" font-size="13" lengthAdjust="spacing" textLength="235" x="964.5" y="962.6621">numberOfApplicationsInterviews : int</text><line style="stroke:#000000;stroke-width:1.0;stroke-dasharray:2.0,2.0;" x1="854.5" x2="1756" y1="976.4043" y2="976.4043"/><text fill="#000000" font-family="sans-serif" font-size="11" font-weight="bold" lengthAdjust="spacing" textLength="142" x="859.5" y="987.0391">[PhaseName == "Result"]</text><polygon fill="#181818" points="1650.5,1007.6699,1660.5,1011.6699,1650.5,1015.6699,1654.5,1011.6699" style="stroke:#181818;stroke-width:1.0;"/><line style="stroke:#181818;stroke-width:1.0;" x1="947.5" x2="1656.5" y1="1011.6699" y2="1011.6699"/><text fill="#000000" font-family="sans-serif" font-size="13" lengthAdjust="spacing" textLength="352" x="954.5" y="1006.9277">countResultByJobReference(jobReference : JobReference)</text><polygon fill="#181818" points="958.5,1036.9805,948.5,1040.9805,958.5,1044.9805,954.5,1040.9805" style="stroke:#181818;stroke-width:1.0;"/><line style="stroke:#181818;stroke-width:1.0;stroke-dasharray:2.0,2.0;" x1="952.5" x2="1666.5" y1="1040.9805" y2="1040.9805"/><text fill="#000000" font-family="sans-serif" font-size="13" lengthAdjust="spacing" textLength="217" x="964.5" y="1036.2383">numberOfApplicationsResults : int</text><line style="stroke:#181818;stroke-width:1.0;" x1="947.5" x2="989.5" y1="1084.291" y2="1084.291"/><line style="stroke:#181818;stroke-width:1.0;" x1="989.5" x2="989.5" y1="1084.291" y2="1097.291"/><line style="stroke:#181818;stroke-width:1.0;" x1="948.5" x2="989.5" y1="1097.291" y2="1097.291"/><polygon fill="#181818" points="958.5,1093.291,948.5,1097.291,958.5,1101.291,954.5,1097.291" style="stroke:#181818;stroke-width:1.0;"/><text fill="#000000" font-family="sans-serif" font-size="13" lengthAdjust="spacing" textLength="207" x="954.5" y="1079.5488">validatePhaseTransitionForward()</text><line style="stroke:#181818;stroke-width:1.0;" x1="947.5" x2="989.5" y1="1126.6016" y2="1126.6016"/><line style="stroke:#181818;stroke-width:1.0;" x1="989.5" x2="989.5" y1="1126.6016" y2="1139.6016"/><line style="stroke:#181818;stroke-width:1.0;" x1="948.5" x2="989.5" y1="1139.6016" y2="1139.6016"/><polygon fill="#181818" points="958.5,1135.6016,948.5,1139.6016,958.5,1143.6016,954.5,1139.6016" style="stroke:#181818;stroke-width:1.0;"/><text fill="#000000" font-family="sans-serif" font-size="13" lengthAdjust="spacing" textLength="216" x="954.5" y="1121.8594">validatePhaseTransitionBackward()</text><polygon fill="#181818" points="626.5,1164.9121,616.5,1168.9121,626.5,1172.9121,622.5,1168.9121" style="stroke:#181818;stroke-width:1.0;"/><line style="stroke:#181818;stroke-width:1.0;stroke-dasharray:2.0,2.0;" x1="620.5" x2="941.5" y1="1168.9121" y2="1168.9121"/><text fill="#000000" font-family="sans-serif" font-size="13" lengthAdjust="spacing" textLength="164" x="632.5" y="1164.1699">options : Iterable&lt;String&gt;</text><polygon fill="#181818" points="285.5,1194.2227,275.5,1198.2227,285.5,1202.2227,281.5,1198.2227" style="stroke:#181818;stroke-width:1.0;"/><line style="stroke:#181818;stroke-width:1.0;stroke-dasharray:2.0,2.0;" x1="279.5" x2="609.5" y1="1198.2227" y2="1198.2227"/><text fill="#000000" font-family="sans-serif" font-size="13" lengthAdjust="spacing" textLength="164" x="291.5" y="1193.4805">options : Iterable&lt;String&gt;</text><polygon fill="#181818" points="82.5,1223.5332,72.5,1227.5332,82.5,1231.5332,78.5,1227.5332" style="stroke:#181818;stroke-width:1.0;"/><line style="stroke:#181818;stroke-width:1.0;stroke-dasharray:2.0,2.0;" x1="76.5" x2="263.5" y1="1227.5332" y2="1227.5332"/><text fill="#000000" font-family="sans-serif" font-size="13" lengthAdjust="spacing" textLength="85" x="88.5" y="1222.791">Show options</text><polygon fill="#181818" points="252.5,1252.8438,262.5,1256.8438,252.5,1260.8438,256.5,1256.8438" style="stroke:#181818;stroke-width:1.0;"/><line style="stroke:#181818;stroke-width:1.0;stroke-dasharray:2.0,2.0;" x1="71.5" x2="258.5" y1="1256.8438" y2="1256.8438"/><text fill="#000000" font-family="sans-serif" font-size="13" lengthAdjust="spacing" textLength="92" x="78.5" y="1252.1016">Choose option</text><polygon fill="#181818" points="593.5,1282.1543,603.5,1286.1543,593.5,1290.1543,597.5,1286.1543" style="stroke:#181818;stroke-width:1.0;"/><line style="stroke:#181818;stroke-width:1.0;" x1="274.5" x2="599.5" y1="1286.1543" y2="1286.1543"/><text fill="#000000" font-family="sans-serif" font-size="13" lengthAdjust="spacing" textLength="257" x="281.5" y="1281.4121">ProcessTransition(chosenOption : String)</text><path d="M539,1301.1543 L601,1301.1543 L601,1308.4648 L591,1318.4648 L539,1318.4648 L539,1301.1543 " fill="#EEEEEE" style="stroke:#000000;stroke-width:1.5;"/><rect fill="none" height="90.8867" style="stroke:#000000;stroke-width:1.5;" width="724" x="539" y="1301.1543"/><text fill="#000000" font-family="sans-serif" font-size="13" font-weight="bold" lengthAdjust="spacing" textLength="17" x="554" y="1314.7227">alt</text><text fill="#000000" font-family="sans-serif" font-size="11" font-weight="bold" lengthAdjust="spacing" textLength="166" x="616" y="1313.7891">[chosenOption == "Forward"]</text><polygon fill="#181818" points="1170.5,1335.7754,1180.5,1339.7754,1170.5,1343.7754,1174.5,1339.7754" style="stroke:#181818;stroke-width:1.0;"/><line style="stroke:#181818;stroke-width:1.0;" x1="615.5" x2="1176.5" y1="1339.7754" y2="1339.7754"/><text fill="#000000" font-family="sans-serif" font-size="13" lengthAdjust="spacing" textLength="72" x="622.5" y="1335.0332">nextPhase()</text><line style="stroke:#000000;stroke-width:1.0;stroke-dasharray:2.0,2.0;" x1="539" x2="1263" y1="1348.7754" y2="1348.7754"/><text fill="#000000" font-family="sans-serif" font-size="11" font-weight="bold" lengthAdjust="spacing" textLength="174" x="544" y="1359.4102">[chosenOption == "Backward"]</text><polygon fill="#181818" points="1170.5,1380.041,1180.5,1384.041,1170.5,1388.041,1174.5,1384.041" style="stroke:#181818;stroke-width:1.0;"/><line style="stroke:#181818;stroke-width:1.0;" x1="615.5" x2="1176.5" y1="1384.041" y2="1384.041"/><text fill="#000000" font-family="sans-serif" font-size="13" lengthAdjust="spacing" textLength="98" x="622.5" y="1379.2988">previousPhase()</text><polygon fill="#181818" points="1487,1416.3516,1497,1420.3516,1487,1424.3516,1491,1420.3516" style="stroke:#181818;stroke-width:1.0;"/><line style="stroke:#181818;stroke-width:1.0;" x1="615.5" x2="1493" y1="1420.3516" y2="1420.3516"/><text fill="#000000" font-family="sans-serif" font-size="13" lengthAdjust="spacing" textLength="293" x="622.5" y="1415.6094">save(recruitmentProcess : RecruitmentProcess)</text><polygon fill="#181818" points="285.5,1445.6621,275.5,1449.6621,285.5,1453.6621,281.5,1449.6621" style="stroke:#181818;stroke-width:1.0;"/><line style="stroke:#181818;stroke-width:1.0;stroke-dasharray:2.0,2.0;" x1="279.5" x2="609.5" y1="1449.6621" y2="1449.6621"/><text fill="#000000" font-family="sans-serif" font-size="13" lengthAdjust="spacing" textLength="183" x="291.5" y="1444.9199">Display confirmation or error</text><polygon fill="#181818" points="82.5,1474.9727,72.5,1478.9727,82.5,1482.9727,78.5,1478.9727" style="stroke:#181818;stroke-width:1.0;"/><line style="stroke:#181818;stroke-width:1.0;stroke-dasharray:2.0,2.0;" x1="76.5" x2="268.5" y1="1478.9727" y2="1478.9727"/><text fill="#000000" font-family="sans-serif" font-size="13" lengthAdjust="spacing" textLength="169" x="88.5" y="1474.2305">Show confirmation or error</text><!--SRC=[pLV1Rjim3BtxAxISqaFt0SPQeEqm80Es5icwks8pZLf7CYGbNVv-b1tRiaKdZjD3SuejwP5yVAHedbYbsSFMMBK1_OjB_W8wMggjJBdUiwSrDs2UPr6YfDKgExnuA9yot0hI2dlO-9Td8kK8k02z4mbKYtD8z5RO3Ju-QPM0CL7EjHM9oBcqx0cq4SQ2JC01mpyR8GfV8YBxgPQFEKWXN-QGAoCGVD-itkLv9X9kXPBKyfpBD-zzT7rR1nIpL2tMwdrw5V74YXstq0HR_M7rWIPW5hD40suFJtgi1ASSKX0cOkdAFG5cUlNrjGwt1HyIH82X2Oejts7g51tZAur4fmEEUXfGuQN1EUUR3OZqiMcINPeGiIFXcDsPDyDMA6xqUGuhqCwfgBEjvKpCPjA0jkqJnyGGirqfUV2FJ5-zXvAq-l5SqL24nsmbPDgitEzRrdlCaQaZ1NDDHjeeegK3FqEa2R8Kg6xH25K7_GBNmYRIvJ9eFxIPWQN8czuogXR9tZIq60bkU0zUJmyyNPDZYT7OLKSnqcx75r2Xkq2THZygU5BqUOy7jDwwpOeMv91QY4z9csUsNFdDDy1kRjZaJl9iZx5E-hCR9C3r4VUoqq66zQyEwHtmtloLwJiapQUiWmUP0I_4ByD2xAqwd6YijsX6XKpN6ctp205okrc2Vbpv_g1H8QtF1ssCuIzC_W9BgMYyasB3E7fga7EuAVmvxVA7S5GxU23B0GyYhACbnzWCcm6QWdTp2MKDocVbhF7m0qYRWzbczXB2IeJFIbRftTbCbNJ9bE47JthaSksvJAePibZ_WzqHeT783wNVkKxTzVX1YFSyUJiEILw2Agywr0orn9SPV5jOZMLuE-R6QmtSPq0Fd_pTTrs5V6BWVrWhXIelDvyOzGzJPqFdD5dZOVbO7COGIi-FJVYkSRSEkQ8wv7b2JWVXr8lAnIccs8jvB8eqWAmIFHmprx0JQcjgt4h80xv7C7J3TsUCxIT4yLsOFEDxzsMu4dfJL1p33pdGMkbBTJ4Gz7ds7m00]--></g></svg>