<?xml version="1.0" encoding="us-ascii" standalone="no"?><svg xmlns="http://www.w3.org/2000/svg" xmlns:xlink="http://www.w3.org/1999/xlink" contentStyleType="text/css" height="284px" preserveAspectRatio="none" style="width:417px;height:284px;background:#FFFFFF;" version="1.1" viewBox="0 0 417 284" width="417px" zoomAndPan="magnify"><defs/><g><text fill="#000000" font-family="sans-serif" font-size="14" font-weight="bold" lengthAdjust="spacing" textLength="389" x="10" y="29.5332">System Sequence Diagram (SSD) - List All Job Openings</text><line style="stroke:#181818;stroke-width:0.5;stroke-dasharray:5.0,5.0;" x1="118.75" x2="118.75" y1="121.2188" y2="201.9219"/><line style="stroke:#181818;stroke-width:0.5;stroke-dasharray:5.0,5.0;" x1="322.25" x2="322.25" y1="121.2188" y2="201.9219"/><text fill="#000000" font-family="sans-serif" font-size="14" lengthAdjust="spacing" textLength="121" x="55.75" y="118.1426">Customer Manager</text><ellipse cx="119.25" cy="52.1094" fill="#E2E2F0" rx="8" ry="8" style="stroke:#181818;stroke-width:0.5;"/><path d="M119.25,60.1094 L119.25,87.1094 M106.25,68.1094 L132.25,68.1094 M119.25,87.1094 L106.25,102.1094 M119.25,87.1094 L132.25,102.1094 " fill="none" style="stroke:#181818;stroke-width:0.5;"/><text fill="#000000" font-family="sans-serif" font-size="14" lengthAdjust="spacing" textLength="121" x="55.75" y="215.4551">Customer Manager</text><ellipse cx="119.25" cy="227.0313" fill="#E2E2F0" rx="8" ry="8" style="stroke:#181818;stroke-width:0.5;"/><path d="M119.25,235.0313 L119.25,262.0313 M106.25,243.0313 L132.25,243.0313 M119.25,262.0313 L106.25,277.0313 M119.25,262.0313 L132.25,277.0313 " fill="none" style="stroke:#181818;stroke-width:0.5;"/><rect fill="#E2E2F0" height="31.6094" rx="2.5" ry="2.5" style="stroke:#181818;stroke-width:0.5;" width="64" x="290.25" y="88.6094"/><text fill="#000000" font-family="sans-serif" font-size="14" lengthAdjust="spacing" textLength="50" x="297.25" y="110.1426">:System</text><rect fill="#E2E2F0" height="31.6094" rx="2.5" ry="2.5" style="stroke:#181818;stroke-width:0.5;" width="64" x="290.25" y="200.9219"/><text fill="#000000" font-family="sans-serif" font-size="14" lengthAdjust="spacing" textLength="50" x="297.25" y="222.4551">:System</text><polygon fill="#181818" points="310.25,149.5703,320.25,153.5703,310.25,157.5703,314.25,153.5703" style="stroke:#181818;stroke-width:1.0;"/><line style="stroke:#181818;stroke-width:1.0;" x1="119.25" x2="316.25" y1="153.5703" y2="153.5703"/><text fill="#000000" font-family="sans-serif" font-size="13" lengthAdjust="spacing" textLength="178" x="126.25" y="148.7139">Request to list all job openings</text><polygon fill="#181818" points="130.25,179.9219,120.25,183.9219,130.25,187.9219,126.25,183.9219" style="stroke:#181818;stroke-width:1.0;"/><line style="stroke:#181818;stroke-width:1.0;" x1="124.25" x2="321.25" y1="183.9219" y2="183.9219"/><text fill="#000000" font-family="sans-serif" font-size="13" lengthAdjust="spacing" textLength="179" x="136.25" y="179.0654">Displays list of all job openings</text><!--SRC=[PSun3i8m38NXFQTuwWH3Bz012RKJea8Y9p2LgOBI9CJkqDkJK34n-vU_fquzmswYlC3oU-KmCGP7SwO51sk78rfSdIZEtkCI7xWb3YxCOWnD6ZEQVXMD2sUC56Zct804_MWIPNMJInGKJRSRtvirfX_Hdc3HuLxHybuZV6MeCA_2n1zZQrdwhioIv6cJFOpF__O3]--></g></svg>