<?xml version="1.0" encoding="us-ascii" standalone="no"?><svg xmlns="http://www.w3.org/2000/svg" xmlns:xlink="http://www.w3.org/1999/xlink" contentStyleType="text/css" height="600px" preserveAspectRatio="none" style="width:1188px;height:600px;background:#FFFFFF;" version="1.1" viewBox="0 0 1188 600" width="1188px" zoomAndPan="magnify"><defs/><g><text fill="#000000" font-family="sans-serif" font-size="14" font-weight="bold" lengthAdjust="spacing" textLength="135" x="519.75" y="24.5332">CD - Add Candidate</text><!--class AddCandidateUI--><g id="elem_AddCandidateUI"><rect codeLine="3" fill="#F1F1F1" height="83.2188" id="AddCandidateUI" rx="2.5" ry="2.5" style="stroke:#181818;stroke-width:0.5;" width="832" x="325.5" y="45.6094"/><ellipse cx="686.25" cy="61.6094" fill="#ADD1B2" rx="11" ry="11" style="stroke:#181818;stroke-width:1.0;"/><path d="M689.0156,57.4844 Q689.1719,57.2656 689.3594,57.1563 Q689.5469,57.0469 689.7656,57.0469 Q690.1406,57.0469 690.375,57.3125 Q690.6094,57.5625 690.6094,58.1719 L690.6094,59.625 Q690.6094,60.2344 690.375,60.5 Q690.1406,60.7656 689.7656,60.7656 Q689.4219,60.7656 689.2188,60.5625 Q689.0156,60.375 688.9063,59.8594 Q688.8594,59.5 688.6719,59.3125 Q688.3438,58.9375 687.7344,58.7188 Q687.125,58.5 686.5,58.5 Q685.7344,58.5 685.0938,58.8281 Q684.4688,59.1563 683.9688,59.9063 Q683.4844,60.6563 683.4844,61.6875 L683.4844,62.7813 Q683.4844,64.0156 684.375,64.8438 Q685.2656,65.6563 686.8594,65.6563 Q687.7969,65.6563 688.4531,65.4063 Q688.8438,65.25 689.2656,64.8125 Q689.5313,64.5469 689.6719,64.4688 Q689.8281,64.3906 690.0313,64.3906 Q690.3594,64.3906 690.6094,64.6563 Q690.875,64.9063 690.875,65.25 Q690.875,65.5938 690.5313,66 Q690.0313,66.5781 689.2344,66.9063 Q688.1563,67.3594 686.8594,67.3594 Q685.3438,67.3594 684.1406,66.7344 Q683.1563,66.2344 682.4688,65.1719 Q681.7813,64.0938 681.7813,62.8125 L681.7813,61.6563 Q681.7813,60.3281 682.3906,59.1875 Q683.0156,58.0313 684.1094,57.4219 Q685.2031,56.7969 686.4375,56.7969 Q687.1719,56.7969 687.8125,56.9688 Q688.4688,57.125 689.0156,57.4844 Z " fill="#000000"/><text fill="#000000" font-family="sans-serif" font-size="14" lengthAdjust="spacing" textLength="102" x="706.75" y="67.3379">AddCandidateUI</text><line style="stroke:#181818;stroke-width:0.5;" x1="326.5" x2="1156.5" y1="77.6094" y2="77.6094"/><line style="stroke:#181818;stroke-width:0.5;" x1="326.5" x2="1156.5" y1="85.6094" y2="85.6094"/><ellipse cx="336.5" cy="99.9141" fill="#84BE84" rx="3" ry="3" style="stroke:#038048;stroke-width:1.0;"/><text fill="#000000" font-family="sans-serif" font-size="14" lengthAdjust="spacing" textLength="806" x="345.5" y="104.1426">sendCandidateDetails(username: String, password: String, firstName: String, lastName: String, email: String, phone: String): void</text><ellipse cx="336.5" cy="117.5234" fill="#84BE84" rx="3" ry="3" style="stroke:#038048;stroke-width:1.0;"/><text fill="#000000" font-family="sans-serif" font-size="14" lengthAdjust="spacing" textLength="570" x="345.5" y="121.752">confirmCandidateCreation(SystemUser, phone: String, email: String, fullName: String): void</text></g><!--class AddCandidateController--><g id="elem_AddCandidateController"><rect codeLine="8" fill="#F1F1F1" height="83.2188" id="AddCandidateController" rx="2.5" ry="2.5" style="stroke:#181818;stroke-width:0.5;" width="865" x="309" y="188.6094"/><ellipse cx="661.25" cy="204.6094" fill="#ADD1B2" rx="11" ry="11" style="stroke:#181818;stroke-width:1.0;"/><path d="M664.0156,200.4844 Q664.1719,200.2656 664.3594,200.1563 Q664.5469,200.0469 664.7656,200.0469 Q665.1406,200.0469 665.375,200.3125 Q665.6094,200.5625 665.6094,201.1719 L665.6094,202.625 Q665.6094,203.2344 665.375,203.5 Q665.1406,203.7656 664.7656,203.7656 Q664.4219,203.7656 664.2188,203.5625 Q664.0156,203.375 663.9063,202.8594 Q663.8594,202.5 663.6719,202.3125 Q663.3438,201.9375 662.7344,201.7188 Q662.125,201.5 661.5,201.5 Q660.7344,201.5 660.0938,201.8281 Q659.4688,202.1563 658.9688,202.9063 Q658.4844,203.6563 658.4844,204.6875 L658.4844,205.7813 Q658.4844,207.0156 659.375,207.8438 Q660.2656,208.6563 661.8594,208.6563 Q662.7969,208.6563 663.4531,208.4063 Q663.8438,208.25 664.2656,207.8125 Q664.5313,207.5469 664.6719,207.4688 Q664.8281,207.3906 665.0313,207.3906 Q665.3594,207.3906 665.6094,207.6563 Q665.875,207.9063 665.875,208.25 Q665.875,208.5938 665.5313,209 Q665.0313,209.5781 664.2344,209.9063 Q663.1563,210.3594 661.8594,210.3594 Q660.3438,210.3594 659.1406,209.7344 Q658.1563,209.2344 657.4688,208.1719 Q656.7813,207.0938 656.7813,205.8125 L656.7813,204.6563 Q656.7813,203.3281 657.3906,202.1875 Q658.0156,201.0313 659.1094,200.4219 Q660.2031,199.7969 661.4375,199.7969 Q662.1719,199.7969 662.8125,199.9688 Q663.4688,200.125 664.0156,200.4844 Z " fill="#000000"/><text fill="#000000" font-family="sans-serif" font-size="14" lengthAdjust="spacing" textLength="152" x="681.75" y="210.3379">AddCandidateController</text><line style="stroke:#181818;stroke-width:0.5;" x1="310" x2="1173" y1="220.6094" y2="220.6094"/><line style="stroke:#181818;stroke-width:0.5;" x1="310" x2="1173" y1="228.6094" y2="228.6094"/><ellipse cx="320" cy="242.9141" fill="#84BE84" rx="3" ry="3" style="stroke:#038048;stroke-width:1.0;"/><text fill="#000000" font-family="sans-serif" font-size="14" lengthAdjust="spacing" textLength="839" x="329" y="247.1426">registerNewUser(username: String, password: String, firstName: String, lastName: String, email: String, roles: Set&lt;Role&gt;): SystemUser</text><ellipse cx="320" cy="260.5234" fill="#84BE84" rx="3" ry="3" style="stroke:#038048;stroke-width:1.0;"/><text fill="#000000" font-family="sans-serif" font-size="14" lengthAdjust="spacing" textLength="586" x="329" y="264.752">saveNewCandidate(candidate: Candidate, phone: String, email: String, fullName: String): void</text></g><!--class UserManagementService--><g id="elem_UserManagementService"><rect codeLine="15" fill="#F1F1F1" height="65.6094" id="UserManagementService" rx="2.5" ry="2.5" style="stroke:#181818;stroke-width:0.5;" width="865" x="7" y="331.6094"/><ellipse cx="356.25" cy="347.6094" fill="#ADD1B2" rx="11" ry="11" style="stroke:#181818;stroke-width:1.0;"/><path d="M359.0156,343.4844 Q359.1719,343.2656 359.3594,343.1563 Q359.5469,343.0469 359.7656,343.0469 Q360.1406,343.0469 360.375,343.3125 Q360.6094,343.5625 360.6094,344.1719 L360.6094,345.625 Q360.6094,346.2344 360.375,346.5 Q360.1406,346.7656 359.7656,346.7656 Q359.4219,346.7656 359.2188,346.5625 Q359.0156,346.375 358.9063,345.8594 Q358.8594,345.5 358.6719,345.3125 Q358.3438,344.9375 357.7344,344.7188 Q357.125,344.5 356.5,344.5 Q355.7344,344.5 355.0938,344.8281 Q354.4688,345.1563 353.9688,345.9063 Q353.4844,346.6563 353.4844,347.6875 L353.4844,348.7813 Q353.4844,350.0156 354.375,350.8438 Q355.2656,351.6563 356.8594,351.6563 Q357.7969,351.6563 358.4531,351.4063 Q358.8438,351.25 359.2656,350.8125 Q359.5313,350.5469 359.6719,350.4688 Q359.8281,350.3906 360.0313,350.3906 Q360.3594,350.3906 360.6094,350.6563 Q360.875,350.9063 360.875,351.25 Q360.875,351.5938 360.5313,352 Q360.0313,352.5781 359.2344,352.9063 Q358.1563,353.3594 356.8594,353.3594 Q355.3438,353.3594 354.1406,352.7344 Q353.1563,352.2344 352.4688,351.1719 Q351.7813,350.0938 351.7813,348.8125 L351.7813,347.6563 Q351.7813,346.3281 352.3906,345.1875 Q353.0156,344.0313 354.1094,343.4219 Q355.2031,342.7969 356.4375,342.7969 Q357.1719,342.7969 357.8125,342.9688 Q358.4688,343.125 359.0156,343.4844 Z " fill="#000000"/><text fill="#000000" font-family="sans-serif" font-size="14" lengthAdjust="spacing" textLength="158" x="376.75" y="353.3379">UserManagementService</text><line style="stroke:#181818;stroke-width:0.5;" x1="8" x2="871" y1="363.6094" y2="363.6094"/><line style="stroke:#181818;stroke-width:0.5;" x1="8" x2="871" y1="371.6094" y2="371.6094"/><ellipse cx="18" cy="385.9141" fill="#84BE84" rx="3" ry="3" style="stroke:#038048;stroke-width:1.0;"/><text fill="#000000" font-family="sans-serif" font-size="14" lengthAdjust="spacing" textLength="839" x="27" y="390.1426">registerNewUser(username: String, password: String, firstName: String, lastName: String, email: String, roles: Set&lt;Role&gt;): SystemUser</text></g><!--class CandidateRepository--><g id="elem_CandidateRepository"><rect codeLine="19" fill="#F1F1F1" height="65.6094" id="CandidateRepository" rx="2.5" ry="2.5" style="stroke:#181818;stroke-width:0.5;" width="274" x="907.5" y="331.6094"/><ellipse cx="973.75" cy="347.6094" fill="#ADD1B2" rx="11" ry="11" style="stroke:#181818;stroke-width:1.0;"/><path d="M976.5156,343.4844 Q976.6719,343.2656 976.8594,343.1563 Q977.0469,343.0469 977.2656,343.0469 Q977.6406,343.0469 977.875,343.3125 Q978.1094,343.5625 978.1094,344.1719 L978.1094,345.625 Q978.1094,346.2344 977.875,346.5 Q977.6406,346.7656 977.2656,346.7656 Q976.9219,346.7656 976.7188,346.5625 Q976.5156,346.375 976.4063,345.8594 Q976.3594,345.5 976.1719,345.3125 Q975.8438,344.9375 975.2344,344.7188 Q974.625,344.5 974,344.5 Q973.2344,344.5 972.5938,344.8281 Q971.9688,345.1563 971.4688,345.9063 Q970.9844,346.6563 970.9844,347.6875 L970.9844,348.7813 Q970.9844,350.0156 971.875,350.8438 Q972.7656,351.6563 974.3594,351.6563 Q975.2969,351.6563 975.9531,351.4063 Q976.3438,351.25 976.7656,350.8125 Q977.0313,350.5469 977.1719,350.4688 Q977.3281,350.3906 977.5313,350.3906 Q977.8594,350.3906 978.1094,350.6563 Q978.375,350.9063 978.375,351.25 Q978.375,351.5938 978.0313,352 Q977.5313,352.5781 976.7344,352.9063 Q975.6563,353.3594 974.3594,353.3594 Q972.8438,353.3594 971.6406,352.7344 Q970.6563,352.2344 969.9688,351.1719 Q969.2813,350.0938 969.2813,348.8125 L969.2813,347.6563 Q969.2813,346.3281 969.8906,345.1875 Q970.5156,344.0313 971.6094,343.4219 Q972.7031,342.7969 973.9375,342.7969 Q974.6719,342.7969 975.3125,342.9688 Q975.9688,343.125 976.5156,343.4844 Z " fill="#000000"/><text fill="#000000" font-family="sans-serif" font-size="14" lengthAdjust="spacing" textLength="133" x="994.25" y="353.3379">CandidateRepository</text><line style="stroke:#181818;stroke-width:0.5;" x1="908.5" x2="1180.5" y1="363.6094" y2="363.6094"/><line style="stroke:#181818;stroke-width:0.5;" x1="908.5" x2="1180.5" y1="371.6094" y2="371.6094"/><ellipse cx="918.5" cy="385.9141" fill="#84BE84" rx="3" ry="3" style="stroke:#038048;stroke-width:1.0;"/><text fill="#000000" font-family="sans-serif" font-size="14" lengthAdjust="spacing" textLength="248" x="927.5" y="390.1426">save(candidate: Candidate): Candidate</text></g><!--class Candidate--><g id="elem_Candidate"><rect codeLine="24" fill="#F1F1F1" height="136.0469" id="Candidate" rx="2.5" ry="2.5" style="stroke:#181818;stroke-width:0.5;" width="182" x="953.5" y="457.6094"/><ellipse cx="1007.75" cy="473.6094" fill="#ADD1B2" rx="11" ry="11" style="stroke:#181818;stroke-width:1.0;"/><path d="M1010.5156,469.4844 Q1010.6719,469.2656 1010.8594,469.1563 Q1011.0469,469.0469 1011.2656,469.0469 Q1011.6406,469.0469 1011.875,469.3125 Q1012.1094,469.5625 1012.1094,470.1719 L1012.1094,471.625 Q1012.1094,472.2344 1011.875,472.5 Q1011.6406,472.7656 1011.2656,472.7656 Q1010.9219,472.7656 1010.7188,472.5625 Q1010.5156,472.375 1010.4063,471.8594 Q1010.3594,471.5 1010.1719,471.3125 Q1009.8438,470.9375 1009.2344,470.7188 Q1008.625,470.5 1008,470.5 Q1007.2344,470.5 1006.5938,470.8281 Q1005.9688,471.1563 1005.4688,471.9063 Q1004.9844,472.6563 1004.9844,473.6875 L1004.9844,474.7813 Q1004.9844,476.0156 1005.875,476.8438 Q1006.7656,477.6563 1008.3594,477.6563 Q1009.2969,477.6563 1009.9531,477.4063 Q1010.3438,477.25 1010.7656,476.8125 Q1011.0313,476.5469 1011.1719,476.4688 Q1011.3281,476.3906 1011.5313,476.3906 Q1011.8594,476.3906 1012.1094,476.6563 Q1012.375,476.9063 1012.375,477.25 Q1012.375,477.5938 1012.0313,478 Q1011.5313,478.5781 1010.7344,478.9063 Q1009.6563,479.3594 1008.3594,479.3594 Q1006.8438,479.3594 1005.6406,478.7344 Q1004.6563,478.2344 1003.9688,477.1719 Q1003.2813,476.0938 1003.2813,474.8125 L1003.2813,473.6563 Q1003.2813,472.3281 1003.8906,471.1875 Q1004.5156,470.0313 1005.6094,469.4219 Q1006.7031,468.7969 1007.9375,468.7969 Q1008.6719,468.7969 1009.3125,468.9688 Q1009.9688,469.125 1010.5156,469.4844 Z " fill="#000000"/><text fill="#000000" font-family="sans-serif" font-size="14" lengthAdjust="spacing" textLength="65" x="1028.25" y="479.3379">Candidate</text><line style="stroke:#181818;stroke-width:0.5;" x1="954.5" x2="1134.5" y1="489.6094" y2="489.6094"/><rect fill="none" height="6" style="stroke:#C82930;stroke-width:1.0;" width="6" x="961.5" y="500.9141"/><text fill="#000000" font-family="sans-serif" font-size="14" lengthAdjust="spacing" textLength="108" x="973.5" y="508.1426">username: String</text><rect fill="none" height="6" style="stroke:#C82930;stroke-width:1.0;" width="6" x="961.5" y="518.5234"/><text fill="#000000" font-family="sans-serif" font-size="14" lengthAdjust="spacing" textLength="78" x="973.5" y="525.752">email: String</text><rect fill="none" height="6" style="stroke:#C82930;stroke-width:1.0;" width="6" x="961.5" y="536.1328"/><text fill="#000000" font-family="sans-serif" font-size="14" lengthAdjust="spacing" textLength="85" x="973.5" y="543.3613">phone: String</text><rect fill="none" height="6" style="stroke:#C82930;stroke-width:1.0;" width="6" x="961.5" y="553.7422"/><text fill="#000000" font-family="sans-serif" font-size="14" lengthAdjust="spacing" textLength="99" x="973.5" y="560.9707">fullName: String</text><rect fill="none" height="6" style="stroke:#C82930;stroke-width:1.0;" width="6" x="961.5" y="571.3516"/><text fill="#000000" font-family="sans-serif" font-size="14" lengthAdjust="spacing" textLength="156" x="973.5" y="578.5801">systemUser: SystemUser</text><line style="stroke:#181818;stroke-width:0.5;" x1="954.5" x2="1134.5" y1="585.6563" y2="585.6563"/></g><!--link AddCandidateUI to AddCandidateController--><g id="link_AddCandidateUI_AddCandidateController"><path codeLine="32" d="M741.5,128.8894 C741.5,147.5994 741.5,163.7194 741.5,182.4194 " fill="none" id="AddCandidateUI-to-AddCandidateController" style="stroke:#181818;stroke-width:1.0;stroke-dasharray:7.0,7.0;"/><polygon fill="#181818" points="741.5,188.4194,745.5,179.4194,741.5,183.4194,737.5,179.4194,741.5,188.4194" style="stroke:#181818;stroke-width:1.0;"/></g><!--link AddCandidateController to UserManagementService--><g id="link_AddCandidateController_UserManagementService"><path codeLine="33" d="M648.84,271.7594 C605.14,290.9394 559.2443,311.0685 518.3143,329.0285 " fill="none" id="AddCandidateController-to-UserManagementService" style="stroke:#181818;stroke-width:1.0;stroke-dasharray:7.0,7.0;"/><polygon fill="#181818" points="512.82,331.4394,522.6687,331.4859,517.3986,329.4303,519.4542,324.1601,512.82,331.4394" style="stroke:#181818;stroke-width:1.0;"/></g><!--link AddCandidateController to CandidateRepository--><g id="link_AddCandidateController_CandidateRepository"><path codeLine="34" d="M834.47,271.7594 C878.31,290.9394 924.3727,311.0754 965.4427,329.0354 " fill="none" id="AddCandidateController-to-CandidateRepository" style="stroke:#181818;stroke-width:1.0;stroke-dasharray:7.0,7.0;"/><polygon fill="#181818" points="970.94,331.4394,964.2967,324.1685,966.3589,329.436,961.0913,331.4983,970.94,331.4394" style="stroke:#181818;stroke-width:1.0;"/></g><!--link CandidateRepository to Candidate--><g id="link_CandidateRepository_Candidate"><path codeLine="35" d="M1044.5,397.7894 C1044.5,414.9394 1044.5,430.7094 1044.5,451.3494 " fill="none" id="CandidateRepository-to-Candidate" style="stroke:#181818;stroke-width:1.0;stroke-dasharray:7.0,7.0;"/><polygon fill="#181818" points="1044.5,457.3494,1048.5,448.3494,1044.5,452.3494,1040.5,448.3494,1044.5,457.3494" style="stroke:#181818;stroke-width:1.0;"/></g><!--SRC=[pLD1QiCm4Bph5JewjCa3J0aKvz93SuZ90uIrSGMo5AIDGoZzUzT5bcpLwQKKwjDwBCtCpgvHeGPUxVYQFql9As6aaWA1iKOBxmSmOiSN_iuuFG_SWqdu3b0exOkB1sT41oMlqIdJFl8pKLojamavAUTnFpj4EXa27V5DMDwiYLzN9U-jai57OmqnTj5AvK2WigQeRnwXEvAZxFutzjD5wwdyAF2n545b3JghDRWOXODMaPRRmtMG-xCKI1OylG8-7QZSai_Kv3WMqGFvY7QBPgpADDfV1396CaY-2YDQwC1W3QvN3VopHEByOkC7E5klqBfRscCAR36arQJ-wZpZ2WnhdZSNu9dLWCrY3rWUTe1zx2FlAViXDvljdGLbT_PskB4ulvykB6J8bdATdMNi4m00]--></g></svg>