<?xml version="1.0" encoding="us-ascii" standalone="no"?><svg xmlns="http://www.w3.org/2000/svg" xmlns:xlink="http://www.w3.org/1999/xlink" contentStyleType="text/css" height="273px" preserveAspectRatio="none" style="width:629px;height:273px;background:#FFFFFF;" version="1.1" viewBox="0 0 629 273" width="629px" zoomAndPan="magnify"><defs/><g><!--cluster CandidateAgg--><g id="cluster_CandidateAgg"><path d="M8.5,6 L107.5,6 A3.75,3.75 0 0 1 110,8.5 L117,29.6094 L619.5,29.6094 A2.5,2.5 0 0 1 622,32.1094 L622,263.5 A2.5,2.5 0 0 1 619.5,266 L8.5,266 A2.5,2.5 0 0 1 6,263.5 L6,8.5 A2.5,2.5 0 0 1 8.5,6 " fill="#AABABB" style="stroke:#000000;stroke-width:1.5;"/><line style="stroke:#000000;stroke-width:1.5;" x1="6" x2="117" y1="29.6094" y2="29.6094"/><text fill="#000000" font-family="sans-serif" font-size="14" font-weight="bold" lengthAdjust="spacing" textLength="98" x="10" y="22.5332">CandidateAgg</text></g><!--class Candidate--><g id="elem_Candidate"><rect codeLine="2" fill="#F1F1F1" height="73.7969" id="Candidate" rx="2.5" ry="2.5" style="stroke:#181818;stroke-width:0.5;" width="97" x="254.5" y="42"/><ellipse cx="269.5" cy="70.8984" fill="#ADD1B2" rx="11" ry="11" style="stroke:#181818;stroke-width:1.0;"/><path d="M272.2656,66.7734 Q272.4219,66.5547 272.6094,66.4453 Q272.7969,66.3359 273.0156,66.3359 Q273.3906,66.3359 273.625,66.6016 Q273.8594,66.8516 273.8594,67.4609 L273.8594,68.9141 Q273.8594,69.5234 273.625,69.7891 Q273.3906,70.0547 273.0156,70.0547 Q272.6719,70.0547 272.4688,69.8516 Q272.2656,69.6641 272.1563,69.1484 Q272.1094,68.7891 271.9219,68.6016 Q271.5938,68.2266 270.9844,68.0078 Q270.375,67.7891 269.75,67.7891 Q268.9844,67.7891 268.3438,68.1172 Q267.7188,68.4453 267.2188,69.1953 Q266.7344,69.9453 266.7344,70.9766 L266.7344,72.0703 Q266.7344,73.3047 267.625,74.1328 Q268.5156,74.9453 270.1094,74.9453 Q271.0469,74.9453 271.7031,74.6953 Q272.0938,74.5391 272.5156,74.1016 Q272.7813,73.8359 272.9219,73.7578 Q273.0781,73.6797 273.2813,73.6797 Q273.6094,73.6797 273.8594,73.9453 Q274.125,74.1953 274.125,74.5391 Q274.125,74.8828 273.7813,75.2891 Q273.2813,75.8672 272.4844,76.1953 Q271.4063,76.6484 270.1094,76.6484 Q268.5938,76.6484 267.3906,76.0234 Q266.4063,75.5234 265.7188,74.4609 Q265.0313,73.3828 265.0313,72.1016 L265.0313,70.9453 Q265.0313,69.6172 265.6406,68.4766 Q266.2656,67.3203 267.3594,66.7109 Q268.4531,66.0859 269.6875,66.0859 Q270.4219,66.0859 271.0625,66.2578 Q271.7188,66.4141 272.2656,66.7734 Z " fill="#000000"/><text fill="#000000" font-family="sans-serif" font-size="12" font-style="italic" lengthAdjust="spacing" textLength="40" x="296" y="59.457">&#171;Root&#187;</text><text fill="#000000" font-family="sans-serif" font-size="12" font-style="italic" lengthAdjust="spacing" textLength="44" x="294" y="74.5508">&#171;Entity&#187;</text><text fill="#000000" font-family="sans-serif" font-size="14" lengthAdjust="spacing" textLength="65" x="283.5" y="91.7207">Candidate</text><line style="stroke:#181818;stroke-width:0.5;" x1="255.5" x2="350.5" y1="99.7969" y2="99.7969"/><line style="stroke:#181818;stroke-width:0.5;" x1="255.5" x2="350.5" y1="107.7969" y2="107.7969"/></g><!--class Email--><g id="elem_Email"><rect codeLine="3" fill="#F1F1F1" height="73.7969" id="Email" rx="2.5" ry="2.5" style="stroke:#181818;stroke-width:0.5;" width="113" x="22.5" y="176"/><ellipse cx="37.5" cy="204.8984" fill="#ADD1B2" rx="11" ry="11" style="stroke:#181818;stroke-width:1.0;"/><path d="M40.2656,200.7734 Q40.4219,200.5547 40.6094,200.4453 Q40.7969,200.3359 41.0156,200.3359 Q41.3906,200.3359 41.625,200.6016 Q41.8594,200.8516 41.8594,201.4609 L41.8594,202.9141 Q41.8594,203.5234 41.625,203.7891 Q41.3906,204.0547 41.0156,204.0547 Q40.6719,204.0547 40.4688,203.8516 Q40.2656,203.6641 40.1563,203.1484 Q40.1094,202.7891 39.9219,202.6016 Q39.5938,202.2266 38.9844,202.0078 Q38.375,201.7891 37.75,201.7891 Q36.9844,201.7891 36.3438,202.1172 Q35.7188,202.4453 35.2188,203.1953 Q34.7344,203.9453 34.7344,204.9766 L34.7344,206.0703 Q34.7344,207.3047 35.625,208.1328 Q36.5156,208.9453 38.1094,208.9453 Q39.0469,208.9453 39.7031,208.6953 Q40.0938,208.5391 40.5156,208.1016 Q40.7813,207.8359 40.9219,207.7578 Q41.0781,207.6797 41.2813,207.6797 Q41.6094,207.6797 41.8594,207.9453 Q42.125,208.1953 42.125,208.5391 Q42.125,208.8828 41.7813,209.2891 Q41.2813,209.8672 40.4844,210.1953 Q39.4063,210.6484 38.1094,210.6484 Q36.5938,210.6484 35.3906,210.0234 Q34.4063,209.5234 33.7188,208.4609 Q33.0313,207.3828 33.0313,206.1016 L33.0313,204.9453 Q33.0313,203.6172 33.6406,202.4766 Q34.2656,201.3203 35.3594,200.7109 Q36.4531,200.0859 37.6875,200.0859 Q38.4219,200.0859 39.0625,200.2578 Q39.7188,200.4141 40.2656,200.7734 Z " fill="#000000"/><text fill="#000000" font-family="sans-serif" font-size="12" font-style="italic" lengthAdjust="spacing" textLength="85" x="49.5" y="193.457">&#171;Value Object&#187;</text><text fill="#000000" font-family="sans-serif" font-size="12" font-style="italic" lengthAdjust="spacing" textLength="25" x="79.5" y="208.5508">&#171;Id&#187;</text><text fill="#000000" font-family="sans-serif" font-size="14" lengthAdjust="spacing" textLength="34" x="75" y="225.7207">Email</text><line style="stroke:#181818;stroke-width:0.5;" x1="23.5" x2="134.5" y1="233.7969" y2="233.7969"/><line style="stroke:#181818;stroke-width:0.5;" x1="23.5" x2="134.5" y1="241.7969" y2="241.7969"/></g><!--class Name--><g id="elem_Name"><rect codeLine="4" fill="#F1F1F1" height="58.7031" id="Name" rx="2.5" ry="2.5" style="stroke:#181818;stroke-width:0.5;" width="113" x="170.5" y="183.5"/><ellipse cx="185.5" cy="204.8516" fill="#ADD1B2" rx="11" ry="11" style="stroke:#181818;stroke-width:1.0;"/><path d="M188.2656,200.7266 Q188.4219,200.5078 188.6094,200.3984 Q188.7969,200.2891 189.0156,200.2891 Q189.3906,200.2891 189.625,200.5547 Q189.8594,200.8047 189.8594,201.4141 L189.8594,202.8672 Q189.8594,203.4766 189.625,203.7422 Q189.3906,204.0078 189.0156,204.0078 Q188.6719,204.0078 188.4688,203.8047 Q188.2656,203.6172 188.1563,203.1016 Q188.1094,202.7422 187.9219,202.5547 Q187.5938,202.1797 186.9844,201.9609 Q186.375,201.7422 185.75,201.7422 Q184.9844,201.7422 184.3438,202.0703 Q183.7188,202.3984 183.2188,203.1484 Q182.7344,203.8984 182.7344,204.9297 L182.7344,206.0234 Q182.7344,207.2578 183.625,208.0859 Q184.5156,208.8984 186.1094,208.8984 Q187.0469,208.8984 187.7031,208.6484 Q188.0938,208.4922 188.5156,208.0547 Q188.7813,207.7891 188.9219,207.7109 Q189.0781,207.6328 189.2813,207.6328 Q189.6094,207.6328 189.8594,207.8984 Q190.125,208.1484 190.125,208.4922 Q190.125,208.8359 189.7813,209.2422 Q189.2813,209.8203 188.4844,210.1484 Q187.4063,210.6016 186.1094,210.6016 Q184.5938,210.6016 183.3906,209.9766 Q182.4063,209.4766 181.7188,208.4141 Q181.0313,207.3359 181.0313,206.0547 L181.0313,204.8984 Q181.0313,203.5703 181.6406,202.4297 Q182.2656,201.2734 183.3594,200.6641 Q184.4531,200.0391 185.6875,200.0391 Q186.4219,200.0391 187.0625,200.2109 Q187.7188,200.3672 188.2656,200.7266 Z " fill="#000000"/><text fill="#000000" font-family="sans-serif" font-size="12" font-style="italic" lengthAdjust="spacing" textLength="85" x="197.5" y="200.957">&#171;Value Object&#187;</text><text fill="#000000" font-family="sans-serif" font-size="14" lengthAdjust="spacing" textLength="36" x="222" y="218.127">Name</text><line style="stroke:#181818;stroke-width:0.5;" x1="171.5" x2="282.5" y1="226.2031" y2="226.2031"/><line style="stroke:#181818;stroke-width:0.5;" x1="171.5" x2="282.5" y1="234.2031" y2="234.2031"/></g><!--class PhoneNumber--><g id="elem_PhoneNumber"><rect codeLine="5" fill="#F1F1F1" height="58.7031" id="PhoneNumber" rx="2.5" ry="2.5" style="stroke:#181818;stroke-width:0.5;" width="122" x="319" y="183.5"/><ellipse cx="334" cy="204.8516" fill="#ADD1B2" rx="11" ry="11" style="stroke:#181818;stroke-width:1.0;"/><path d="M336.7656,200.7266 Q336.9219,200.5078 337.1094,200.3984 Q337.2969,200.2891 337.5156,200.2891 Q337.8906,200.2891 338.125,200.5547 Q338.3594,200.8047 338.3594,201.4141 L338.3594,202.8672 Q338.3594,203.4766 338.125,203.7422 Q337.8906,204.0078 337.5156,204.0078 Q337.1719,204.0078 336.9688,203.8047 Q336.7656,203.6172 336.6563,203.1016 Q336.6094,202.7422 336.4219,202.5547 Q336.0938,202.1797 335.4844,201.9609 Q334.875,201.7422 334.25,201.7422 Q333.4844,201.7422 332.8438,202.0703 Q332.2188,202.3984 331.7188,203.1484 Q331.2344,203.8984 331.2344,204.9297 L331.2344,206.0234 Q331.2344,207.2578 332.125,208.0859 Q333.0156,208.8984 334.6094,208.8984 Q335.5469,208.8984 336.2031,208.6484 Q336.5938,208.4922 337.0156,208.0547 Q337.2813,207.7891 337.4219,207.7109 Q337.5781,207.6328 337.7813,207.6328 Q338.1094,207.6328 338.3594,207.8984 Q338.625,208.1484 338.625,208.4922 Q338.625,208.8359 338.2813,209.2422 Q337.7813,209.8203 336.9844,210.1484 Q335.9063,210.6016 334.6094,210.6016 Q333.0938,210.6016 331.8906,209.9766 Q330.9063,209.4766 330.2188,208.4141 Q329.5313,207.3359 329.5313,206.0547 L329.5313,204.8984 Q329.5313,203.5703 330.1406,202.4297 Q330.7656,201.2734 331.8594,200.6641 Q332.9531,200.0391 334.1875,200.0391 Q334.9219,200.0391 335.5625,200.2109 Q336.2188,200.3672 336.7656,200.7266 Z " fill="#000000"/><text fill="#000000" font-family="sans-serif" font-size="12" font-style="italic" lengthAdjust="spacing" textLength="85" x="350.5" y="200.957">&#171;Value Object&#187;</text><text fill="#000000" font-family="sans-serif" font-size="14" lengthAdjust="spacing" textLength="90" x="348" y="218.127">PhoneNumber</text><line style="stroke:#181818;stroke-width:0.5;" x1="320" x2="440" y1="226.2031" y2="226.2031"/><line style="stroke:#181818;stroke-width:0.5;" x1="320" x2="440" y1="234.2031" y2="234.2031"/></g><!--class CandidateState--><g id="elem_CandidateState"><rect codeLine="6" fill="#F1F1F1" height="58.7031" id="CandidateState" rx="2.5" ry="2.5" style="stroke:#181818;stroke-width:0.5;" width="130" x="476" y="183.5"/><ellipse cx="491" cy="204.8516" fill="#ADD1B2" rx="11" ry="11" style="stroke:#181818;stroke-width:1.0;"/><path d="M493.7656,200.7266 Q493.9219,200.5078 494.1094,200.3984 Q494.2969,200.2891 494.5156,200.2891 Q494.8906,200.2891 495.125,200.5547 Q495.3594,200.8047 495.3594,201.4141 L495.3594,202.8672 Q495.3594,203.4766 495.125,203.7422 Q494.8906,204.0078 494.5156,204.0078 Q494.1719,204.0078 493.9688,203.8047 Q493.7656,203.6172 493.6563,203.1016 Q493.6094,202.7422 493.4219,202.5547 Q493.0938,202.1797 492.4844,201.9609 Q491.875,201.7422 491.25,201.7422 Q490.4844,201.7422 489.8438,202.0703 Q489.2188,202.3984 488.7188,203.1484 Q488.2344,203.8984 488.2344,204.9297 L488.2344,206.0234 Q488.2344,207.2578 489.125,208.0859 Q490.0156,208.8984 491.6094,208.8984 Q492.5469,208.8984 493.2031,208.6484 Q493.5938,208.4922 494.0156,208.0547 Q494.2813,207.7891 494.4219,207.7109 Q494.5781,207.6328 494.7813,207.6328 Q495.1094,207.6328 495.3594,207.8984 Q495.625,208.1484 495.625,208.4922 Q495.625,208.8359 495.2813,209.2422 Q494.7813,209.8203 493.9844,210.1484 Q492.9063,210.6016 491.6094,210.6016 Q490.0938,210.6016 488.8906,209.9766 Q487.9063,209.4766 487.2188,208.4141 Q486.5313,207.3359 486.5313,206.0547 L486.5313,204.8984 Q486.5313,203.5703 487.1406,202.4297 Q487.7656,201.2734 488.8594,200.6641 Q489.9531,200.0391 491.1875,200.0391 Q491.9219,200.0391 492.5625,200.2109 Q493.2188,200.3672 493.7656,200.7266 Z " fill="#000000"/><text fill="#000000" font-family="sans-serif" font-size="12" font-style="italic" lengthAdjust="spacing" textLength="85" x="511.5" y="200.957">&#171;Value Object&#187;</text><text fill="#000000" font-family="sans-serif" font-size="14" lengthAdjust="spacing" textLength="98" x="505" y="218.127">CandidateState</text><line style="stroke:#181818;stroke-width:0.5;" x1="477" x2="605" y1="226.2031" y2="226.2031"/><line style="stroke:#181818;stroke-width:0.5;" x1="477" x2="605" y1="234.2031" y2="234.2031"/></g><!--link Candidate to Email--><g id="link_Candidate_Email"><path codeLine="9" d="M254.4,108.64 C219.53,129.19 177.5988,153.8932 140.9888,175.4732 " fill="none" id="Candidate-to-Email" style="stroke:#181818;stroke-width:1.0;"/><polygon fill="#181818" points="135.82,178.52,145.6045,177.3957,140.1274,175.981,141.5421,170.5039,135.82,178.52" style="stroke:#181818;stroke-width:1.0;"/><text fill="#000000" font-family="sans-serif" font-size="13" lengthAdjust="spacing" textLength="7" x="239.4222" y="109.4912">1</text><text fill="#000000" font-family="sans-serif" font-size="13" lengthAdjust="spacing" textLength="7" x="143.5485" y="170.6079">1</text></g><!--link Candidate to Name--><g id="link_Candidate_Name"><path codeLine="10" d="M282.23,116.07 C270.1,137.14 257.9933,158.17 246.6533,177.87 " fill="none" id="Candidate-to-Name" style="stroke:#181818;stroke-width:1.0;"/><polygon fill="#181818" points="243.66,183.07,251.6166,177.2655,246.1544,178.7367,244.6833,173.2744,243.66,183.07" style="stroke:#181818;stroke-width:1.0;"/><text fill="#000000" font-family="sans-serif" font-size="13" lengthAdjust="spacing" textLength="7" x="271.0586" y="137.3592">1</text><text fill="#000000" font-family="sans-serif" font-size="13" lengthAdjust="spacing" textLength="7" x="239.3743" y="172.8089">1</text></g><!--link Candidate to PhoneNumber--><g id="link_Candidate_PhoneNumber"><path codeLine="11" d="M324.04,116.07 C336.33,137.14 348.6051,158.1883 360.1051,177.8883 " fill="none" id="Candidate-to-PhoneNumber" style="stroke:#181818;stroke-width:1.0;"/><polygon fill="#181818" points="363.13,183.07,362.0472,173.2808,360.6093,178.7519,355.1382,177.314,363.13,183.07" style="stroke:#181818;stroke-width:1.0;"/><text fill="#000000" font-family="sans-serif" font-size="13" lengthAdjust="spacing" textLength="7" x="320.0547" y="137.3592">1</text><text fill="#000000" font-family="sans-serif" font-size="13" lengthAdjust="spacing" textLength="7" x="351.9287" y="172.8089">1</text></g><!--link Candidate to CandidateState--><g id="link_Candidate_CandidateState"><path codeLine="12" d="M351.74,107.03 C391.86,129.28 443.3228,157.8302 484.2028,180.5002 " fill="none" id="Candidate-to-CandidateState" style="stroke:#181818;stroke-width:1.0;"/><polygon fill="#181818" points="489.45,183.41,483.5191,175.5471,485.0773,180.9851,479.6393,182.5434,489.45,183.41" style="stroke:#181818;stroke-width:1.0;"/><text fill="#000000" font-family="sans-serif" font-size="13" lengthAdjust="spacing" textLength="7" x="359.4128" y="107.5078">1</text><text fill="#000000" font-family="sans-serif" font-size="13" lengthAdjust="spacing" textLength="7" x="470.4078" y="172.7532">1</text></g><!--SRC=[VSu_2y8m48VXFP_Yg7C7zn0GwU1IHS7zaXmncZzYqq74xwvcg6c7t7B3xndUEweR6e8j1cqr9jeO0oj4YLB2Yy7tbCDX-0FEZp4c8JZlGhBfAKIXEe_MSNv6DnBivPLKbZizKprwMg9YFbnYe7xqaXuLDGMTKgvQG9RfXA1PDz2s8lzSMTb_VPMvwAkeUHzxVm00]--></g></svg>