<?xml version="1.0" encoding="us-ascii" standalone="no"?><svg xmlns="http://www.w3.org/2000/svg" xmlns:xlink="http://www.w3.org/1999/xlink" contentStyleType="text/css" height="587px" preserveAspectRatio="none" style="width:1785px;height:587px;background:#FFFFFF;" version="1.1" viewBox="0 0 1785 587" width="1785px" zoomAndPan="magnify"><defs/><g><text fill="#000000" font-family="sans-serif" font-size="14" font-weight="bold" lengthAdjust="spacing" textLength="167" x="808" y="29.5332">Add Candidate - UC1002</text><line style="stroke:#181818;stroke-width:0.5;stroke-dasharray:5.0,5.0;" x1="36" x2="36" y1="121.2188" y2="505.4375"/><line style="stroke:#181818;stroke-width:0.5;stroke-dasharray:5.0,5.0;" x1="553.5" x2="553.5" y1="121.2188" y2="505.4375"/><line style="stroke:#181818;stroke-width:0.5;stroke-dasharray:5.0,5.0;" x1="1043.5" x2="1043.5" y1="121.2188" y2="505.4375"/><line style="stroke:#181818;stroke-width:0.5;stroke-dasharray:5.0,5.0;" x1="1368" x2="1368" y1="121.2188" y2="505.4375"/><line style="stroke:#181818;stroke-width:0.5;stroke-dasharray:5.0,5.0;" x1="1536" x2="1536" y1="121.2188" y2="505.4375"/><line style="stroke:#181818;stroke-width:0.5;stroke-dasharray:5.0,5.0;" x1="1705" x2="1705" y1="121.2188" y2="505.4375"/><text fill="#000000" font-family="sans-serif" font-size="14" lengthAdjust="spacing" textLength="57" x="5" y="118.1426">Operator</text><ellipse cx="36.5" cy="52.1094" fill="#E2E2F0" rx="8" ry="8" style="stroke:#181818;stroke-width:0.5;"/><path d="M36.5,60.1094 L36.5,87.1094 M23.5,68.1094 L49.5,68.1094 M36.5,87.1094 L23.5,102.1094 M36.5,87.1094 L49.5,102.1094 " fill="none" style="stroke:#181818;stroke-width:0.5;"/><text fill="#000000" font-family="sans-serif" font-size="14" lengthAdjust="spacing" textLength="57" x="5" y="518.9707">Operator</text><ellipse cx="36.5" cy="530.5469" fill="#E2E2F0" rx="8" ry="8" style="stroke:#181818;stroke-width:0.5;"/><path d="M36.5,538.5469 L36.5,565.5469 M23.5,546.5469 L49.5,546.5469 M36.5,565.5469 L23.5,580.5469 M36.5,565.5469 L49.5,580.5469 " fill="none" style="stroke:#181818;stroke-width:0.5;"/><rect fill="#E2E2F0" height="31.6094" rx="2.5" ry="2.5" style="stroke:#181818;stroke-width:0.5;" width="116" x="495.5" y="88.6094"/><text fill="#000000" font-family="sans-serif" font-size="14" lengthAdjust="spacing" textLength="102" x="502.5" y="110.1426">AddCandidateUI</text><rect fill="#E2E2F0" height="31.6094" rx="2.5" ry="2.5" style="stroke:#181818;stroke-width:0.5;" width="116" x="495.5" y="504.4375"/><text fill="#000000" font-family="sans-serif" font-size="14" lengthAdjust="spacing" textLength="102" x="502.5" y="525.9707">AddCandidateUI</text><rect fill="#E2E2F0" height="31.6094" rx="2.5" ry="2.5" style="stroke:#181818;stroke-width:0.5;" width="166" x="960.5" y="88.6094"/><text fill="#000000" font-family="sans-serif" font-size="14" lengthAdjust="spacing" textLength="152" x="967.5" y="110.1426">AddCandidateController</text><rect fill="#E2E2F0" height="31.6094" rx="2.5" ry="2.5" style="stroke:#181818;stroke-width:0.5;" width="166" x="960.5" y="504.4375"/><text fill="#000000" font-family="sans-serif" font-size="14" lengthAdjust="spacing" textLength="152" x="967.5" y="525.9707">AddCandidateController</text><rect fill="#E2E2F0" height="31.6094" rx="2.5" ry="2.5" style="stroke:#181818;stroke-width:0.5;" width="143" x="1297" y="88.6094"/><text fill="#000000" font-family="sans-serif" font-size="14" lengthAdjust="spacing" textLength="129" x="1304" y="110.1426">AuthorizationService</text><rect fill="#E2E2F0" height="31.6094" rx="2.5" ry="2.5" style="stroke:#181818;stroke-width:0.5;" width="143" x="1297" y="504.4375"/><text fill="#000000" font-family="sans-serif" font-size="14" lengthAdjust="spacing" textLength="129" x="1304" y="525.9707">AuthorizationService</text><rect fill="#E2E2F0" height="31.6094" rx="2.5" ry="2.5" style="stroke:#181818;stroke-width:0.5;" width="172" x="1450" y="88.6094"/><text fill="#000000" font-family="sans-serif" font-size="14" lengthAdjust="spacing" textLength="158" x="1457" y="110.1426">UserManagementService</text><rect fill="#E2E2F0" height="31.6094" rx="2.5" ry="2.5" style="stroke:#181818;stroke-width:0.5;" width="172" x="1450" y="504.4375"/><text fill="#000000" font-family="sans-serif" font-size="14" lengthAdjust="spacing" textLength="158" x="1457" y="525.9707">UserManagementService</text><rect fill="#E2E2F0" height="31.6094" rx="2.5" ry="2.5" style="stroke:#181818;stroke-width:0.5;" width="147" x="1632" y="88.6094"/><text fill="#000000" font-family="sans-serif" font-size="14" lengthAdjust="spacing" textLength="133" x="1639" y="110.1426">CandidateRepository</text><rect fill="#E2E2F0" height="31.6094" rx="2.5" ry="2.5" style="stroke:#181818;stroke-width:0.5;" width="147" x="1632" y="504.4375"/><text fill="#000000" font-family="sans-serif" font-size="14" lengthAdjust="spacing" textLength="133" x="1639" y="525.9707">CandidateRepository</text><polygon fill="#181818" points="541.5,149.5703,551.5,153.5703,541.5,157.5703,545.5,153.5703" style="stroke:#181818;stroke-width:1.0;"/><line style="stroke:#181818;stroke-width:1.0;" x1="36.5" x2="547.5" y1="153.5703" y2="153.5703"/><text fill="#000000" font-family="sans-serif" font-size="13" lengthAdjust="spacing" textLength="186" x="43.5" y="148.7139">Request to add a new candidate</text><polygon fill="#181818" points="47.5,179.9219,37.5,183.9219,47.5,187.9219,43.5,183.9219" style="stroke:#181818;stroke-width:1.0;"/><line style="stroke:#181818;stroke-width:1.0;stroke-dasharray:2.0,2.0;" x1="41.5" x2="552.5" y1="183.9219" y2="183.9219"/><text fill="#000000" font-family="sans-serif" font-size="13" lengthAdjust="spacing" textLength="260" x="53.5" y="179.0654">Displays form for candidate details (readLine)</text><polygon fill="#181818" points="541.5,210.2734,551.5,214.2734,541.5,218.2734,545.5,214.2734" style="stroke:#181818;stroke-width:1.0;"/><line style="stroke:#181818;stroke-width:1.0;" x1="36.5" x2="547.5" y1="214.2734" y2="214.2734"/><text fill="#000000" font-family="sans-serif" font-size="13" lengthAdjust="spacing" textLength="493" x="43.5" y="209.417">Enters candidate's details (username, password, first name, last name, email, phone)</text><polygon fill="#181818" points="1031.5,240.625,1041.5,244.625,1031.5,248.625,1035.5,244.625" style="stroke:#181818;stroke-width:1.0;"/><line style="stroke:#181818;stroke-width:1.0;" x1="553.5" x2="1037.5" y1="244.625" y2="244.625"/><text fill="#000000" font-family="sans-serif" font-size="13" lengthAdjust="spacing" textLength="466" x="560.5" y="239.7686">sendCandidateDetails (username, password, firstName, lastName, email, phone)</text><polygon fill="#181818" points="1356.5,270.9766,1366.5,274.9766,1356.5,278.9766,1360.5,274.9766" style="stroke:#181818;stroke-width:1.0;"/><line style="stroke:#181818;stroke-width:1.0;" x1="1043.5" x2="1362.5" y1="274.9766" y2="274.9766"/><text fill="#000000" font-family="sans-serif" font-size="13" lengthAdjust="spacing" textLength="301" x="1050.5" y="270.1201">ensureAuthenticatedUserHasAnyOf (ExemploRoles)</text><polygon fill="#181818" points="1054.5,301.3281,1044.5,305.3281,1054.5,309.3281,1050.5,305.3281" style="stroke:#181818;stroke-width:1.0;"/><line style="stroke:#181818;stroke-width:1.0;stroke-dasharray:2.0,2.0;" x1="1048.5" x2="1367.5" y1="305.3281" y2="305.3281"/><text fill="#000000" font-family="sans-serif" font-size="13" lengthAdjust="spacing" textLength="136" x="1060.5" y="300.4717">Authorization confirmed</text><polygon fill="#181818" points="1524,331.6797,1534,335.6797,1524,339.6797,1528,335.6797" style="stroke:#181818;stroke-width:1.0;"/><line style="stroke:#181818;stroke-width:1.0;" x1="1043.5" x2="1530" y1="335.6797" y2="335.6797"/><text fill="#000000" font-family="sans-serif" font-size="13" lengthAdjust="spacing" textLength="428" x="1050.5" y="330.8232">registerNewUser (username, password, firstName, lastName, email, roles)</text><polygon fill="#181818" points="1054.5,362.0313,1044.5,366.0313,1054.5,370.0313,1050.5,366.0313" style="stroke:#181818;stroke-width:1.0;"/><line style="stroke:#181818;stroke-width:1.0;stroke-dasharray:2.0,2.0;" x1="1048.5" x2="1535" y1="366.0313" y2="366.0313"/><text fill="#000000" font-family="sans-serif" font-size="13" lengthAdjust="spacing" textLength="119" x="1060.5" y="361.1748">SystemUser created</text><polygon fill="#181818" points="1693.5,392.3828,1703.5,396.3828,1693.5,400.3828,1697.5,396.3828" style="stroke:#181818;stroke-width:1.0;"/><line style="stroke:#181818;stroke-width:1.0;" x1="1043.5" x2="1699.5" y1="396.3828" y2="396.3828"/><text fill="#000000" font-family="sans-serif" font-size="13" lengthAdjust="spacing" textLength="317" x="1050.5" y="391.5264">saveNewCandidate (candidate, phone, email, fullName)</text><polygon fill="#181818" points="1054.5,422.7344,1044.5,426.7344,1054.5,430.7344,1050.5,426.7344" style="stroke:#181818;stroke-width:1.0;"/><line style="stroke:#181818;stroke-width:1.0;stroke-dasharray:2.0,2.0;" x1="1048.5" x2="1704.5" y1="426.7344" y2="426.7344"/><text fill="#000000" font-family="sans-serif" font-size="13" lengthAdjust="spacing" textLength="123" x="1060.5" y="421.8779">save (new Candidate)</text><polygon fill="#181818" points="564.5,453.0859,554.5,457.0859,564.5,461.0859,560.5,457.0859" style="stroke:#181818;stroke-width:1.0;"/><line style="stroke:#181818;stroke-width:1.0;stroke-dasharray:2.0,2.0;" x1="558.5" x2="1042.5" y1="457.0859" y2="457.0859"/><text fill="#000000" font-family="sans-serif" font-size="13" lengthAdjust="spacing" textLength="372" x="570.5" y="452.2295">confirmCandidateCreation (SystemUser, phone, email, fullName)</text><polygon fill="#181818" points="47.5,483.4375,37.5,487.4375,47.5,491.4375,43.5,487.4375" style="stroke:#181818;stroke-width:1.0;"/><line style="stroke:#181818;stroke-width:1.0;stroke-dasharray:2.0,2.0;" x1="41.5" x2="552.5" y1="487.4375" y2="487.4375"/><text fill="#000000" font-family="sans-serif" font-size="13" lengthAdjust="spacing" textLength="279" x="53.5" y="482.5811">Confirms candidate creation (System.out.println)</text><!--SRC=[bPHHQzim4CVV_IcEl3I1fhJTrWq_589RM61DmS4VG5YNHY1BdYGdIp_zJd8iESlIiPTWn_-x-ztTNtB2IOG5vr0mnGLd3c4ELN5tUtkVPQnssi1hYuRv1sPXChnCignbnebQj4mvc52AcA5QJhosMbwM55evewL44wIBuWzfvxRQY7VcX5PhD3jHOo-a3- -dsigYUM6AlM63oet5rSlwL1hBbzXgAwYDGn0MPPPTmTfX2tTvwjVWpmwji-0qC1eH0uLxg8SaMHJE7wdP7CfUVqbUBM5EoY4gXoTXMyaE5ZRQDFudYO6ZOq9Qc1fa_8TGE8k8zoF4rkYTu6ZF8y_edfL3Cn9UsLIaenagrk0rjCpQlJRy6ZR2K2_zlvB5HsmeX7HRFMRwb5CDiAZuNr3yGDmMeOvB3xDufBNd8IRkvUcVGAl8i_e0vtCEoM6mGoCsWeR4nhRA5aLWy8xA0PNj3FeNCf6eYOLxOtrdTg4EhnkOFl_2ffMwr1BjB0jHOPs-XnEx-ZO9jK4USRwSuDIqKkTfWZ_imJfim3Ty92BRvkIzDq4Vp0htdkF_9s9wK4eMCTUXL4ZNCoJ2Xmy8auDxlgAahR4T4bgwDAPHTLn61DbqKdgoj9sl-UYsePE2V728YUSoAyh8xOl1rAF4i9JisobvFtiBjgjhj9QAZ_mO-XfMVpmMnuXqCnqrC4tZkjpIsPak1e3pgaF66zsvczO8vQIQ_GO0]--></g></svg>