<?xml version="1.0" encoding="us-ascii" standalone="no"?><svg xmlns="http://www.w3.org/2000/svg" xmlns:xlink="http://www.w3.org/1999/xlink" contentStyleType="text/css" height="811px" preserveAspectRatio="none" style="width:337px;height:811px;background:#FFFFFF;" version="1.1" viewBox="0 0 337 811" width="337px" zoomAndPan="magnify"><defs/><g><text fill="#000000" font-family="sans-serif" font-size="14" font-weight="bold" lengthAdjust="spacing" textLength="160" x="81.5" y="24.5332">CD - List Job Openings</text><!--class ListJobOpeningsUI--><g id="elem_ListJobOpeningsUI"><rect codeLine="6" fill="#F1F1F1" height="171.2656" id="ListJobOpeningsUI" rx="2.5" ry="2.5" style="stroke:#181818;stroke-width:0.5;" width="287" x="25" y="45.6094"/><ellipse cx="105.75" cy="61.6094" fill="#ADD1B2" rx="11" ry="11" style="stroke:#181818;stroke-width:1.0;"/><path d="M108.5156,57.4844 Q108.6719,57.2656 108.8594,57.1563 Q109.0469,57.0469 109.2656,57.0469 Q109.6406,57.0469 109.875,57.3125 Q110.1094,57.5625 110.1094,58.1719 L110.1094,59.625 Q110.1094,60.2344 109.875,60.5 Q109.6406,60.7656 109.2656,60.7656 Q108.9219,60.7656 108.7188,60.5625 Q108.5156,60.375 108.4063,59.8594 Q108.3594,59.5 108.1719,59.3125 Q107.8438,58.9375 107.2344,58.7188 Q106.625,58.5 106,58.5 Q105.2344,58.5 104.5938,58.8281 Q103.9688,59.1563 103.4688,59.9063 Q102.9844,60.6563 102.9844,61.6875 L102.9844,62.7813 Q102.9844,64.0156 103.875,64.8438 Q104.7656,65.6563 106.3594,65.6563 Q107.2969,65.6563 107.9531,65.4063 Q108.3438,65.25 108.7656,64.8125 Q109.0313,64.5469 109.1719,64.4688 Q109.3281,64.3906 109.5313,64.3906 Q109.8594,64.3906 110.1094,64.6563 Q110.375,64.9063 110.375,65.25 Q110.375,65.5938 110.0313,66 Q109.5313,66.5781 108.7344,66.9063 Q107.6563,67.3594 106.3594,67.3594 Q104.8438,67.3594 103.6406,66.7344 Q102.6563,66.2344 101.9688,65.1719 Q101.2813,64.0938 101.2813,62.8125 L101.2813,61.6563 Q101.2813,60.3281 101.8906,59.1875 Q102.5156,58.0313 103.6094,57.4219 Q104.7031,56.7969 105.9375,56.7969 Q106.6719,56.7969 107.3125,56.9688 Q107.9688,57.125 108.5156,57.4844 Z " fill="#000000"/><text fill="#000000" font-family="sans-serif" font-size="14" lengthAdjust="spacing" textLength="117" x="126.25" y="67.3379">ListJobOpeningsUI</text><line style="stroke:#181818;stroke-width:0.5;" x1="26" x2="311" y1="77.6094" y2="77.6094"/><rect fill="none" height="6" style="stroke:#C82930;stroke-width:1.0;" width="6" x="33" y="88.9141"/><text fill="#000000" font-family="sans-serif" font-size="14" lengthAdjust="spacing" textLength="261" x="45" y="96.1426">theController : ListJobOpeningsController</text><line style="stroke:#181818;stroke-width:0.5;" x1="26" x2="311" y1="103.2188" y2="103.2188"/><ellipse cx="36" cy="117.5234" fill="#84BE84" rx="3" ry="3" style="stroke:#038048;stroke-width:1.0;"/><text fill="#000000" font-family="sans-serif" font-size="14" lengthAdjust="spacing" textLength="109" x="45" y="121.752">headline(): String</text><ellipse cx="36" cy="135.1328" fill="#84BE84" rx="3" ry="3" style="stroke:#038048;stroke-width:1.0;"/><text fill="#000000" font-family="sans-serif" font-size="14" lengthAdjust="spacing" textLength="150" x="45" y="139.3613">emptyMessage(): String</text><ellipse cx="36" cy="152.7422" fill="#84BE84" rx="3" ry="3" style="stroke:#038048;stroke-width:1.0;"/><text fill="#000000" font-family="sans-serif" font-size="14" lengthAdjust="spacing" textLength="214" x="45" y="156.9707">elements(): Iterable&lt;JobOpening&gt;</text><ellipse cx="36" cy="170.3516" fill="#84BE84" rx="3" ry="3" style="stroke:#038048;stroke-width:1.0;"/><text fill="#000000" font-family="sans-serif" font-size="14" lengthAdjust="spacing" textLength="241" x="45" y="174.5801">elementPrinter(): Visitor&lt;JobOpening&gt;</text><ellipse cx="36" cy="187.9609" fill="#84BE84" rx="3" ry="3" style="stroke:#038048;stroke-width:1.0;"/><text fill="#000000" font-family="sans-serif" font-size="14" lengthAdjust="spacing" textLength="141" x="45" y="192.1895">elementName(): String</text><ellipse cx="36" cy="205.5703" fill="#84BE84" rx="3" ry="3" style="stroke:#038048;stroke-width:1.0;"/><text fill="#000000" font-family="sans-serif" font-size="14" lengthAdjust="spacing" textLength="118" x="45" y="209.7988">listHeader(): String</text></g><!--class ListJobOpeningsController--><g id="elem_ListJobOpeningsController"><rect codeLine="17" fill="#F1F1F1" height="83.2188" id="ListJobOpeningsController" rx="2.5" ry="2.5" style="stroke:#181818;stroke-width:0.5;" width="323" x="7" y="276.6094"/><ellipse cx="80.75" cy="292.6094" fill="#ADD1B2" rx="11" ry="11" style="stroke:#181818;stroke-width:1.0;"/><path d="M83.5156,288.4844 Q83.6719,288.2656 83.8594,288.1563 Q84.0469,288.0469 84.2656,288.0469 Q84.6406,288.0469 84.875,288.3125 Q85.1094,288.5625 85.1094,289.1719 L85.1094,290.625 Q85.1094,291.2344 84.875,291.5 Q84.6406,291.7656 84.2656,291.7656 Q83.9219,291.7656 83.7188,291.5625 Q83.5156,291.375 83.4063,290.8594 Q83.3594,290.5 83.1719,290.3125 Q82.8438,289.9375 82.2344,289.7188 Q81.625,289.5 81,289.5 Q80.2344,289.5 79.5938,289.8281 Q78.9688,290.1563 78.4688,290.9063 Q77.9844,291.6563 77.9844,292.6875 L77.9844,293.7813 Q77.9844,295.0156 78.875,295.8438 Q79.7656,296.6563 81.3594,296.6563 Q82.2969,296.6563 82.9531,296.4063 Q83.3438,296.25 83.7656,295.8125 Q84.0313,295.5469 84.1719,295.4688 Q84.3281,295.3906 84.5313,295.3906 Q84.8594,295.3906 85.1094,295.6563 Q85.375,295.9063 85.375,296.25 Q85.375,296.5938 85.0313,297 Q84.5313,297.5781 83.7344,297.9063 Q82.6563,298.3594 81.3594,298.3594 Q79.8438,298.3594 78.6406,297.7344 Q77.6563,297.2344 76.9688,296.1719 Q76.2813,295.0938 76.2813,293.8125 L76.2813,292.6563 Q76.2813,291.3281 76.8906,290.1875 Q77.5156,289.0313 78.6094,288.4219 Q79.7031,287.7969 80.9375,287.7969 Q81.6719,287.7969 82.3125,287.9688 Q82.9688,288.125 83.5156,288.4844 Z " fill="#000000"/><text fill="#000000" font-family="sans-serif" font-size="14" lengthAdjust="spacing" textLength="167" x="101.25" y="298.3379">ListJobOpeningsController</text><line style="stroke:#181818;stroke-width:0.5;" x1="8" x2="329" y1="308.6094" y2="308.6094"/><rect fill="none" height="6" style="stroke:#C82930;stroke-width:1.0;" width="6" x="15" y="319.9141"/><text fill="#000000" font-family="sans-serif" font-size="14" lengthAdjust="spacing" textLength="297" x="27" y="327.1426">jobOpeningRepository : JobOpeningRepository</text><line style="stroke:#181818;stroke-width:0.5;" x1="8" x2="329" y1="334.2188" y2="334.2188"/><ellipse cx="18" cy="348.5234" fill="#84BE84" rx="3" ry="3" style="stroke:#038048;stroke-width:1.0;"/><text fill="#000000" font-family="sans-serif" font-size="14" lengthAdjust="spacing" textLength="254" x="27" y="352.752">allJobOpenings(): Iterable&lt;JobOpening&gt;</text></g><!--class JobOpeningRepository--><g id="elem_JobOpeningRepository"><rect codeLine="23" fill="#F1F1F1" height="65.6094" id="JobOpeningRepository" rx="2.5" ry="2.5" style="stroke:#181818;stroke-width:0.5;" width="221" x="58" y="419.6094"/><ellipse cx="93.25" cy="435.6094" fill="#ADD1B2" rx="11" ry="11" style="stroke:#181818;stroke-width:1.0;"/><path d="M96.0156,431.4844 Q96.1719,431.2656 96.3594,431.1563 Q96.5469,431.0469 96.7656,431.0469 Q97.1406,431.0469 97.375,431.3125 Q97.6094,431.5625 97.6094,432.1719 L97.6094,433.625 Q97.6094,434.2344 97.375,434.5 Q97.1406,434.7656 96.7656,434.7656 Q96.4219,434.7656 96.2188,434.5625 Q96.0156,434.375 95.9063,433.8594 Q95.8594,433.5 95.6719,433.3125 Q95.3438,432.9375 94.7344,432.7188 Q94.125,432.5 93.5,432.5 Q92.7344,432.5 92.0938,432.8281 Q91.4688,433.1563 90.9688,433.9063 Q90.4844,434.6563 90.4844,435.6875 L90.4844,436.7813 Q90.4844,438.0156 91.375,438.8438 Q92.2656,439.6563 93.8594,439.6563 Q94.7969,439.6563 95.4531,439.4063 Q95.8438,439.25 96.2656,438.8125 Q96.5313,438.5469 96.6719,438.4688 Q96.8281,438.3906 97.0313,438.3906 Q97.3594,438.3906 97.6094,438.6563 Q97.875,438.9063 97.875,439.25 Q97.875,439.5938 97.5313,440 Q97.0313,440.5781 96.2344,440.9063 Q95.1563,441.3594 93.8594,441.3594 Q92.3438,441.3594 91.1406,440.7344 Q90.1563,440.2344 89.4688,439.1719 Q88.7813,438.0938 88.7813,436.8125 L88.7813,435.6563 Q88.7813,434.3281 89.3906,433.1875 Q90.0156,432.0313 91.1094,431.4219 Q92.2031,430.7969 93.4375,430.7969 Q94.1719,430.7969 94.8125,430.9688 Q95.4688,431.125 96.0156,431.4844 Z " fill="#000000"/><text fill="#000000" font-family="sans-serif" font-size="14" lengthAdjust="spacing" textLength="144" x="111.75" y="441.3379">JobOpeningRepository</text><line style="stroke:#181818;stroke-width:0.5;" x1="59" x2="278" y1="451.6094" y2="451.6094"/><line style="stroke:#181818;stroke-width:0.5;" x1="59" x2="278" y1="459.6094" y2="459.6094"/><ellipse cx="69" cy="473.9141" fill="#84BE84" rx="3" ry="3" style="stroke:#038048;stroke-width:1.0;"/><text fill="#000000" font-family="sans-serif" font-size="14" lengthAdjust="spacing" textLength="195" x="78" y="478.1426">findAll(): Iterable&lt;JobOpening&gt;</text></g><!--class JobOpening--><g id="elem_JobOpening"><rect codeLine="27" fill="#F1F1F1" height="259.3125" id="JobOpening" rx="2.5" ry="2.5" style="stroke:#181818;stroke-width:0.5;" width="295" x="21" y="545.6094"/><ellipse cx="126.25" cy="561.6094" fill="#ADD1B2" rx="11" ry="11" style="stroke:#181818;stroke-width:1.0;"/><path d="M129.0156,557.4844 Q129.1719,557.2656 129.3594,557.1563 Q129.5469,557.0469 129.7656,557.0469 Q130.1406,557.0469 130.375,557.3125 Q130.6094,557.5625 130.6094,558.1719 L130.6094,559.625 Q130.6094,560.2344 130.375,560.5 Q130.1406,560.7656 129.7656,560.7656 Q129.4219,560.7656 129.2188,560.5625 Q129.0156,560.375 128.9063,559.8594 Q128.8594,559.5 128.6719,559.3125 Q128.3438,558.9375 127.7344,558.7188 Q127.125,558.5 126.5,558.5 Q125.7344,558.5 125.0938,558.8281 Q124.4688,559.1563 123.9688,559.9063 Q123.4844,560.6563 123.4844,561.6875 L123.4844,562.7813 Q123.4844,564.0156 124.375,564.8438 Q125.2656,565.6563 126.8594,565.6563 Q127.7969,565.6563 128.4531,565.4063 Q128.8438,565.25 129.2656,564.8125 Q129.5313,564.5469 129.6719,564.4688 Q129.8281,564.3906 130.0313,564.3906 Q130.3594,564.3906 130.6094,564.6563 Q130.875,564.9063 130.875,565.25 Q130.875,565.5938 130.5313,566 Q130.0313,566.5781 129.2344,566.9063 Q128.1563,567.3594 126.8594,567.3594 Q125.3438,567.3594 124.1406,566.7344 Q123.1563,566.2344 122.4688,565.1719 Q121.7813,564.0938 121.7813,562.8125 L121.7813,561.6563 Q121.7813,560.3281 122.3906,559.1875 Q123.0156,558.0313 124.1094,557.4219 Q125.2031,556.7969 126.4375,556.7969 Q127.1719,556.7969 127.8125,556.9688 Q128.4688,557.125 129.0156,557.4844 Z " fill="#000000"/><text fill="#000000" font-family="sans-serif" font-size="14" lengthAdjust="spacing" textLength="76" x="146.75" y="567.3379">JobOpening</text><line style="stroke:#181818;stroke-width:0.5;" x1="22" x2="315" y1="577.6094" y2="577.6094"/><rect fill="none" height="6" style="stroke:#C82930;stroke-width:1.0;" width="6" x="29" y="588.9141"/><text fill="#000000" font-family="sans-serif" font-size="14" lengthAdjust="spacing" textLength="185" x="41" y="596.1426">jobReference : JobReference</text><rect fill="none" height="6" style="stroke:#C82930;stroke-width:1.0;" width="6" x="29" y="606.5234"/><text fill="#000000" font-family="sans-serif" font-size="14" lengthAdjust="spacing" textLength="107" x="41" y="613.752">jobTitle : JobTitle</text><rect fill="none" height="6" style="stroke:#C82930;stroke-width:1.0;" width="6" x="29" y="624.1328"/><text fill="#000000" font-family="sans-serif" font-size="14" lengthAdjust="spacing" textLength="119" x="41" y="631.3613">jobState : JobState</text><rect fill="none" height="6" style="stroke:#C82930;stroke-width:1.0;" width="6" x="29" y="641.7422"/><text fill="#000000" font-family="sans-serif" font-size="14" lengthAdjust="spacing" textLength="181" x="41" y="648.9707">contractType : ContractType</text><rect fill="none" height="6" style="stroke:#C82930;stroke-width:1.0;" width="6" x="29" y="659.3516"/><text fill="#000000" font-family="sans-serif" font-size="14" lengthAdjust="spacing" textLength="104" x="41" y="666.5801">mode : JobMode</text><rect fill="none" height="6" style="stroke:#C82930;stroke-width:1.0;" width="6" x="29" y="676.9609"/><text fill="#000000" font-family="sans-serif" font-size="14" lengthAdjust="spacing" textLength="152" x="41" y="684.1895">description : Description</text><rect fill="none" height="6" style="stroke:#C82930;stroke-width:1.0;" width="6" x="29" y="694.5703"/><text fill="#000000" font-family="sans-serif" font-size="14" lengthAdjust="spacing" textLength="115" x="41" y="701.7988">address : Address</text><rect fill="none" height="6" style="stroke:#C82930;stroke-width:1.0;" width="6" x="29" y="712.1797"/><text fill="#000000" font-family="sans-serif" font-size="14" lengthAdjust="spacing" textLength="269" x="41" y="719.4082">numberOfVacancies : NumberOfVacancies</text><rect fill="none" height="6" style="stroke:#C82930;stroke-width:1.0;" width="6" x="29" y="729.7891"/><text fill="#000000" font-family="sans-serif" font-size="14" lengthAdjust="spacing" textLength="261" x="41" y="737.0176">recruitmentProcess : RecruitmentProcess</text><rect fill="none" height="6" style="stroke:#C82930;stroke-width:1.0;" width="6" x="29" y="747.3984"/><text fill="#000000" font-family="sans-serif" font-size="14" lengthAdjust="spacing" textLength="179" x="41" y="754.627">activeSince : JobActiveSince</text><line style="stroke:#181818;stroke-width:0.5;" x1="22" x2="315" y1="761.7031" y2="761.7031"/><ellipse cx="32" cy="776.0078" fill="#84BE84" rx="3" ry="3" style="stroke:#038048;stroke-width:1.0;"/><text fill="#000000" font-family="sans-serif" font-size="14" lengthAdjust="spacing" textLength="151" x="41" y="780.2363">identity(): JobReference</text><ellipse cx="32" cy="793.6172" fill="#84BE84" rx="3" ry="3" style="stroke:#038048;stroke-width:1.0;"/><text fill="#000000" font-family="sans-serif" font-size="14" lengthAdjust="spacing" textLength="234" x="41" y="797.8457">compareTo(other: JobReference): int</text></g><!--link ListJobOpeningsUI to ListJobOpeningsController--><g id="link_ListJobOpeningsUI_ListJobOpeningsController"><path codeLine="45" d="M168.5,216.7594 C168.5,237.4994 168.5,258.7694 168.5,276.3594 " fill="none" id="ListJobOpeningsUI-ListJobOpeningsController" style="stroke:#181818;stroke-width:1.0;"/></g><!--link ListJobOpeningsController to JobOpeningRepository--><g id="link_ListJobOpeningsController_JobOpeningRepository"><path codeLine="46" d="M168.5,359.9494 C168.5,379.1094 168.5,401.6094 168.5,419.5294 " fill="none" id="ListJobOpeningsController-JobOpeningRepository" style="stroke:#181818;stroke-width:1.0;"/></g><!--link JobOpeningRepository to JobOpening--><g id="link_JobOpeningRepository_JobOpening"><path codeLine="47" d="M168.5,485.6694 C168.5,502.0394 168.5,523.1294 168.5,545.2594 " fill="none" id="JobOpeningRepository-JobOpening" style="stroke:#181818;stroke-width:1.0;"/></g><!--SRC=[bLFBRi8m4BpdAtoaGla1L5L2S2YeG0MKkt4MSENOaRrKYgh-UzUncmIILC8dUsRsuV4Q9IfWipbBsPjqo9Rco3O5QAdFBg4b57UkeeZv8puMx3jXj5AymCnej4Ofi6noBsoufDAFBy0p9JMCdYPiXvOq0OUym785pl5pbrEGWqRdyGM2vKS5pqsHbnlLEyMHnciFqaaqTb2wvdcdbgB-Nwd7a24oFmCsj6uUxVYioIqKfYfVaYlB7ZWQmfLgPHoyOjr2NwfOVNoIEfigzKYILkDRE845BI0qN1zhmRuQbOgijZMnGuwHgBQ14DuTBd1V5fwSjOv1a9iiHgre5x0CdB2oG6aqKVFc56YUPPQ6XAXfs0LON_CZsCtfm0NNGe8NhE-n8BKWx5LY61KZGh9j1upb1CelsCdQb6a3nFUJ6GL9BBtf7TV6mkG5jx0t8qC_nTvAA89crRzAadG_64jJzizt6Xv57zSxSBsZu-KDaVm2]--></g></svg>