<?xml version="1.0" encoding="us-ascii" standalone="no"?><svg xmlns="http://www.w3.org/2000/svg" xmlns:xlink="http://www.w3.org/1999/xlink" contentStyleType="text/css" height="448px" preserveAspectRatio="none" style="width:805px;height:448px;background:#FFFFFF;" version="1.1" viewBox="0 0 805 448" width="805px" zoomAndPan="magnify"><defs/><g><text fill="#000000" font-family="sans-serif" font-size="14" font-weight="bold" lengthAdjust="spacing" textLength="159" x="322" y="29.5332">SD - List Job Openings</text><rect fill="#FFFFFF" height="195.1094" style="stroke:#181818;stroke-width:1.0;" width="10" x="165.5" y="153.5703"/><rect fill="#FFFFFF" height="91.0547" style="stroke:#181818;stroke-width:1.0;" width="10" x="418.5" y="183.9219"/><rect fill="#FFFFFF" height="30.3516" style="stroke:#181818;stroke-width:1.0;" width="10" x="675" y="214.2734"/><line style="stroke:#181818;stroke-width:0.5;stroke-dasharray:5.0,5.0;" x1="22" x2="22" y1="121.2188" y2="366.6797"/><line style="stroke:#181818;stroke-width:0.5;stroke-dasharray:5.0,5.0;" x1="170" x2="170" y1="121.2188" y2="366.6797"/><line style="stroke:#181818;stroke-width:0.5;stroke-dasharray:5.0,5.0;" x1="423" x2="423" y1="121.2188" y2="366.6797"/><line style="stroke:#181818;stroke-width:0.5;stroke-dasharray:5.0,5.0;" x1="680" x2="680" y1="121.2188" y2="366.6797"/><text fill="#000000" font-family="sans-serif" font-size="14" lengthAdjust="spacing" textLength="29" x="5" y="118.1426">User</text><ellipse cx="22.5" cy="52.1094" fill="#E2E2F0" rx="8" ry="8" style="stroke:#181818;stroke-width:0.5;"/><path d="M22.5,60.1094 L22.5,87.1094 M9.5,68.1094 L35.5,68.1094 M22.5,87.1094 L9.5,102.1094 M22.5,87.1094 L35.5,102.1094 " fill="none" style="stroke:#181818;stroke-width:0.5;"/><text fill="#000000" font-family="sans-serif" font-size="14" lengthAdjust="spacing" textLength="29" x="5" y="380.2129">User</text><ellipse cx="22.5" cy="391.7891" fill="#E2E2F0" rx="8" ry="8" style="stroke:#181818;stroke-width:0.5;"/><path d="M22.5,399.7891 L22.5,426.7891 M9.5,407.7891 L35.5,407.7891 M22.5,426.7891 L9.5,441.7891 M22.5,426.7891 L35.5,441.7891 " fill="none" style="stroke:#181818;stroke-width:0.5;"/><rect fill="#E2E2F0" height="31.6094" rx="2.5" ry="2.5" style="stroke:#181818;stroke-width:0.5;" width="155" x="93" y="88.6094"/><text fill="#000000" font-family="sans-serif" font-size="14" lengthAdjust="spacing" textLength="141" x="100" y="110.1426">UI : ListJobOpeningsUI</text><rect fill="#E2E2F0" height="31.6094" rx="2.5" ry="2.5" style="stroke:#181818;stroke-width:0.5;" width="155" x="93" y="365.6797"/><text fill="#000000" font-family="sans-serif" font-size="14" lengthAdjust="spacing" textLength="141" x="100" y="387.2129">UI : ListJobOpeningsUI</text><rect fill="#E2E2F0" height="31.6094" rx="2.5" ry="2.5" style="stroke:#181818;stroke-width:0.5;" width="255" x="296" y="88.6094"/><text fill="#000000" font-family="sans-serif" font-size="14" lengthAdjust="spacing" textLength="241" x="303" y="110.1426">Controller : ListJobOpeningsController</text><rect fill="#E2E2F0" height="31.6094" rx="2.5" ry="2.5" style="stroke:#181818;stroke-width:0.5;" width="255" x="296" y="365.6797"/><text fill="#000000" font-family="sans-serif" font-size="14" lengthAdjust="spacing" textLength="241" x="303" y="387.2129">Controller : ListJobOpeningsController</text><rect fill="#E2E2F0" height="31.6094" rx="2.5" ry="2.5" style="stroke:#181818;stroke-width:0.5;" width="238" x="561" y="88.6094"/><text fill="#000000" font-family="sans-serif" font-size="14" lengthAdjust="spacing" textLength="224" x="568" y="110.1426">Repository : JobOpeningRepository</text><rect fill="#E2E2F0" height="31.6094" rx="2.5" ry="2.5" style="stroke:#181818;stroke-width:0.5;" width="238" x="561" y="365.6797"/><text fill="#000000" font-family="sans-serif" font-size="14" lengthAdjust="spacing" textLength="224" x="568" y="387.2129">Repository : JobOpeningRepository</text><rect fill="#FFFFFF" height="195.1094" style="stroke:#181818;stroke-width:1.0;" width="10" x="165.5" y="153.5703"/><rect fill="#FFFFFF" height="91.0547" style="stroke:#181818;stroke-width:1.0;" width="10" x="418.5" y="183.9219"/><rect fill="#FFFFFF" height="30.3516" style="stroke:#181818;stroke-width:1.0;" width="10" x="675" y="214.2734"/><polygon fill="#181818" points="153.5,149.5703,163.5,153.5703,153.5,157.5703,157.5,153.5703" style="stroke:#181818;stroke-width:1.0;"/><line style="stroke:#181818;stroke-width:1.0;" x1="22.5" x2="159.5" y1="153.5703" y2="153.5703"/><text fill="#000000" font-family="sans-serif" font-size="13" lengthAdjust="spacing" textLength="38" x="29.5" y="148.7139">show()</text><polygon fill="#181818" points="406.5,179.9219,416.5,183.9219,406.5,187.9219,410.5,183.9219" style="stroke:#181818;stroke-width:1.0;"/><line style="stroke:#181818;stroke-width:1.0;" x1="175.5" x2="412.5" y1="183.9219" y2="183.9219"/><text fill="#000000" font-family="sans-serif" font-size="13" lengthAdjust="spacing" textLength="96" x="182.5" y="179.0654">allJobOpenings()</text><polygon fill="#181818" points="663,210.2734,673,214.2734,663,218.2734,667,214.2734" style="stroke:#181818;stroke-width:1.0;"/><line style="stroke:#181818;stroke-width:1.0;" x1="428.5" x2="669" y1="214.2734" y2="214.2734"/><text fill="#000000" font-family="sans-serif" font-size="13" lengthAdjust="spacing" textLength="43" x="435.5" y="209.417">findAll()</text><polygon fill="#181818" points="439.5,240.625,429.5,244.625,439.5,248.625,435.5,244.625" style="stroke:#181818;stroke-width:1.0;"/><line style="stroke:#181818;stroke-width:1.0;stroke-dasharray:2.0,2.0;" x1="433.5" x2="679" y1="244.625" y2="244.625"/><text fill="#000000" font-family="sans-serif" font-size="13" lengthAdjust="spacing" textLength="105" x="445.5" y="239.7686">List&lt;JobOpening&gt;</text><polygon fill="#181818" points="186.5,270.9766,176.5,274.9766,186.5,278.9766,182.5,274.9766" style="stroke:#181818;stroke-width:1.0;"/><line style="stroke:#181818;stroke-width:1.0;stroke-dasharray:2.0,2.0;" x1="180.5" x2="422.5" y1="274.9766" y2="274.9766"/><text fill="#000000" font-family="sans-serif" font-size="13" lengthAdjust="spacing" textLength="105" x="192.5" y="270.1201">List&lt;JobOpening&gt;</text><line style="stroke:#181818;stroke-width:1.0;" x1="175.5" x2="217.5" y1="305.3281" y2="305.3281"/><line style="stroke:#181818;stroke-width:1.0;" x1="217.5" x2="217.5" y1="305.3281" y2="318.3281"/><line style="stroke:#181818;stroke-width:1.0;" x1="176.5" x2="217.5" y1="318.3281" y2="318.3281"/><polygon fill="#181818" points="186.5,314.3281,176.5,318.3281,186.5,322.3281,182.5,318.3281" style="stroke:#181818;stroke-width:1.0;"/><text fill="#000000" font-family="sans-serif" font-size="13" lengthAdjust="spacing" textLength="229" x="182.5" y="300.4717">displayJobOpenings(List&lt;JobOpening&gt;)</text><polygon fill="#181818" points="33.5,344.6797,23.5,348.6797,33.5,352.6797,29.5,348.6797" style="stroke:#181818;stroke-width:1.0;"/><line style="stroke:#181818;stroke-width:1.0;stroke-dasharray:2.0,2.0;" x1="27.5" x2="169.5" y1="348.6797" y2="348.6797"/><text fill="#000000" font-family="sans-serif" font-size="13" lengthAdjust="spacing" textLength="119" x="39.5" y="343.8232">renderJobOpenings()</text><!--SRC=[VP312i8m38RlVOhWIGzx0H51z38H16KFKBUeWTAMj2XxUzkABbFnsER_aY-950t2SGCLx2X4sBeJx3rQifUWb6wZOsW2ilAQ8xNajOqmQMgObtoAlz9DFG4TeAd7qRMpaPqnoD_8K2je-twEMnpGkq39f4yj1dpuBZI_dqfbOwYMK3p3rTsdixmBtNJ4RAXI8PLRwQQD4MeI45vA8Aa1IxCpsMvbZ2I5auXMdwFpMHR3yANgy5UBqV3NTlzOAVxSk20T1MzqBxVzx39x0fa8HP7HTiZZ0ub9wQOF]--></g></svg>