<?xml version="1.0" encoding="us-ascii" standalone="no"?><svg xmlns="http://www.w3.org/2000/svg" xmlns:xlink="http://www.w3.org/1999/xlink" contentStyleType="text/css" height="682px" preserveAspectRatio="none" style="width:2719px;height:682px;background:#FFFFFF;" version="1.1" viewBox="0 0 2719 682" width="2719px" zoomAndPan="magnify"><defs/><g><!--class CreateJobOpeningUI--><g id="elem_CreateJobOpeningUI"><rect codeLine="6" fill="#F1F1F1" height="83.2188" id="CreateJobOpeningUI" rx="2.5" ry="2.5" style="stroke:#181818;stroke-width:0.5;" width="341" x="1758.5" y="7"/><ellipse cx="1859.25" cy="23" fill="#C2C2C2" rx="11" ry="11" style="stroke:#181818;stroke-width:1.0;"/><path d="M1862.0156,18.875 Q1862.1719,18.6563 1862.3594,18.5469 Q1862.5469,18.4375 1862.7656,18.4375 Q1863.1406,18.4375 1863.375,18.7031 Q1863.6094,18.9531 1863.6094,19.5625 L1863.6094,21.0156 Q1863.6094,21.625 1863.375,21.8906 Q1863.1406,22.1563 1862.7656,22.1563 Q1862.4219,22.1563 1862.2188,21.9531 Q1862.0156,21.7656 1861.9063,21.25 Q1861.8594,20.8906 1861.6719,20.7031 Q1861.3438,20.3281 1860.7344,20.1094 Q1860.125,19.8906 1859.5,19.8906 Q1858.7344,19.8906 1858.0938,20.2188 Q1857.4688,20.5469 1856.9688,21.2969 Q1856.4844,22.0469 1856.4844,23.0781 L1856.4844,24.1719 Q1856.4844,25.4063 1857.375,26.2344 Q1858.2656,27.0469 1859.8594,27.0469 Q1860.7969,27.0469 1861.4531,26.7969 Q1861.8438,26.6406 1862.2656,26.2031 Q1862.5313,25.9375 1862.6719,25.8594 Q1862.8281,25.7813 1863.0313,25.7813 Q1863.3594,25.7813 1863.6094,26.0469 Q1863.875,26.2969 1863.875,26.6406 Q1863.875,26.9844 1863.5313,27.3906 Q1863.0313,27.9688 1862.2344,28.2969 Q1861.1563,28.75 1859.8594,28.75 Q1858.3438,28.75 1857.1406,28.125 Q1856.1563,27.625 1855.4688,26.5625 Q1854.7813,25.4844 1854.7813,24.2031 L1854.7813,23.0469 Q1854.7813,21.7188 1855.3906,20.5781 Q1856.0156,19.4219 1857.1094,18.8125 Q1858.2031,18.1875 1859.4375,18.1875 Q1860.1719,18.1875 1860.8125,18.3594 Q1861.4688,18.5156 1862.0156,18.875 Z " fill="#000000"/><text fill="#000000" font-family="sans-serif" font-size="14" lengthAdjust="spacing" textLength="131" x="1879.75" y="28.7285">CreateJobOpeningUI</text><line style="stroke:#181818;stroke-width:0.5;" x1="1759.5" x2="2098.5" y1="39" y2="39"/><line style="stroke:#181818;stroke-width:0.5;" x1="1759.5" x2="2098.5" y1="47" y2="47"/><ellipse cx="1769.5" cy="61.3047" fill="#A6A6A6" rx="3" ry="3" style="stroke:#545454;stroke-width:1.0;"/><text fill="#000000" font-family="sans-serif" font-size="14" lengthAdjust="spacing" textLength="119" x="1778.5" y="65.5332">doShow(): boolean</text><ellipse cx="1769.5" cy="78.9141" fill="#A6A6A6" rx="3" ry="3" style="stroke:#545454;stroke-width:1.0;"/><text fill="#000000" font-family="sans-serif" font-size="14" lengthAdjust="spacing" textLength="315" x="1778.5" y="83.1426">selectEnum(values: Enum&lt;T&gt;[], prompt: String): T</text></g><!--class CreateJobOpeningController--><g id="elem_CreateJobOpeningController"><rect codeLine="11" fill="#F1F1F1" height="118.4375" id="CreateJobOpeningController" rx="2.5" ry="2.5" style="stroke:#181818;stroke-width:0.5;" width="1427" x="1215.5" y="150"/><ellipse cx="1834.25" cy="166" fill="#C2C2C2" rx="11" ry="11" style="stroke:#181818;stroke-width:1.0;"/><path d="M1837.0156,161.875 Q1837.1719,161.6563 1837.3594,161.5469 Q1837.5469,161.4375 1837.7656,161.4375 Q1838.1406,161.4375 1838.375,161.7031 Q1838.6094,161.9531 1838.6094,162.5625 L1838.6094,164.0156 Q1838.6094,164.625 1838.375,164.8906 Q1838.1406,165.1563 1837.7656,165.1563 Q1837.4219,165.1563 1837.2188,164.9531 Q1837.0156,164.7656 1836.9063,164.25 Q1836.8594,163.8906 1836.6719,163.7031 Q1836.3438,163.3281 1835.7344,163.1094 Q1835.125,162.8906 1834.5,162.8906 Q1833.7344,162.8906 1833.0938,163.2188 Q1832.4688,163.5469 1831.9688,164.2969 Q1831.4844,165.0469 1831.4844,166.0781 L1831.4844,167.1719 Q1831.4844,168.4063 1832.375,169.2344 Q1833.2656,170.0469 1834.8594,170.0469 Q1835.7969,170.0469 1836.4531,169.7969 Q1836.8438,169.6406 1837.2656,169.2031 Q1837.5313,168.9375 1837.6719,168.8594 Q1837.8281,168.7813 1838.0313,168.7813 Q1838.3594,168.7813 1838.6094,169.0469 Q1838.875,169.2969 1838.875,169.6406 Q1838.875,169.9844 1838.5313,170.3906 Q1838.0313,170.9688 1837.2344,171.2969 Q1836.1563,171.75 1834.8594,171.75 Q1833.3438,171.75 1832.1406,171.125 Q1831.1563,170.625 1830.4688,169.5625 Q1829.7813,168.4844 1829.7813,167.2031 L1829.7813,166.0469 Q1829.7813,164.7188 1830.3906,163.5781 Q1831.0156,162.4219 1832.1094,161.8125 Q1833.2031,161.1875 1834.4375,161.1875 Q1835.1719,161.1875 1835.8125,161.3594 Q1836.4688,161.5156 1837.0156,161.875 Z " fill="#000000"/><text fill="#000000" font-family="sans-serif" font-size="14" lengthAdjust="spacing" textLength="181" x="1854.75" y="171.7285">CreateJobOpeningController</text><line style="stroke:#181818;stroke-width:0.5;" x1="1216.5" x2="2641.5" y1="182" y2="182"/><rect fill="none" height="6" style="stroke:#595959;stroke-width:1.0;" width="6" x="1223.5" y="193.3047"/><text fill="#000000" font-family="sans-serif" font-size="14" lengthAdjust="spacing" textLength="263" x="1235.5" y="200.5332">customerRepository: CustomerRepository</text><rect fill="none" height="6" style="stroke:#595959;stroke-width:1.0;" width="6" x="1223.5" y="210.9141"/><text fill="#000000" font-family="sans-serif" font-size="14" lengthAdjust="spacing" textLength="293" x="1235.5" y="218.1426">jobOpeningRepository: JobOpeningRepository</text><line style="stroke:#181818;stroke-width:0.5;" x1="1216.5" x2="2641.5" y1="225.2188" y2="225.2188"/><ellipse cx="1226.5" cy="239.5234" fill="#A6A6A6" rx="3" ry="3" style="stroke:#545454;stroke-width:1.0;"/><text fill="#000000" font-family="sans-serif" font-size="14" lengthAdjust="spacing" textLength="344" x="1235.5" y="243.752">verifyIfCustomerExists(customerCode: String): boolean</text><ellipse cx="1226.5" cy="257.1328" fill="#A6A6A6" rx="3" ry="3" style="stroke:#545454;stroke-width:1.0;"/><text fill="#000000" font-family="sans-serif" font-size="14" lengthAdjust="spacing" textLength="1401" x="1235.5" y="261.3613">createJobOpening(customerCode: String, jobTitle: String, contractType: ContractType, mode: JobMode, descriptionText: String, street: String, doorNumber: int, floor: String, postalCode: String, numberOfVacancies: int): void</text></g><!--class CustomerRepository--><g id="elem_CustomerRepository"><rect codeLine="18" fill="#F1F1F1" height="100.8281" id="CustomerRepository" rx="2.5" ry="2.5" style="stroke:#181818;stroke-width:0.5;" width="503" x="1677.5" y="451"/><ellipse cx="1860.25" cy="467" fill="#C2C2C2" rx="11" ry="11" style="stroke:#181818;stroke-width:1.0;"/><path d="M1863.0156,462.875 Q1863.1719,462.6563 1863.3594,462.5469 Q1863.5469,462.4375 1863.7656,462.4375 Q1864.1406,462.4375 1864.375,462.7031 Q1864.6094,462.9531 1864.6094,463.5625 L1864.6094,465.0156 Q1864.6094,465.625 1864.375,465.8906 Q1864.1406,466.1563 1863.7656,466.1563 Q1863.4219,466.1563 1863.2188,465.9531 Q1863.0156,465.7656 1862.9063,465.25 Q1862.8594,464.8906 1862.6719,464.7031 Q1862.3438,464.3281 1861.7344,464.1094 Q1861.125,463.8906 1860.5,463.8906 Q1859.7344,463.8906 1859.0938,464.2188 Q1858.4688,464.5469 1857.9688,465.2969 Q1857.4844,466.0469 1857.4844,467.0781 L1857.4844,468.1719 Q1857.4844,469.4063 1858.375,470.2344 Q1859.2656,471.0469 1860.8594,471.0469 Q1861.7969,471.0469 1862.4531,470.7969 Q1862.8438,470.6406 1863.2656,470.2031 Q1863.5313,469.9375 1863.6719,469.8594 Q1863.8281,469.7813 1864.0313,469.7813 Q1864.3594,469.7813 1864.6094,470.0469 Q1864.875,470.2969 1864.875,470.6406 Q1864.875,470.9844 1864.5313,471.3906 Q1864.0313,471.9688 1863.2344,472.2969 Q1862.1563,472.75 1860.8594,472.75 Q1859.3438,472.75 1858.1406,472.125 Q1857.1563,471.625 1856.4688,470.5625 Q1855.7813,469.4844 1855.7813,468.2031 L1855.7813,467.0469 Q1855.7813,465.7188 1856.3906,464.5781 Q1857.0156,463.4219 1858.1094,462.8125 Q1859.2031,462.1875 1860.4375,462.1875 Q1861.1719,462.1875 1861.8125,462.3594 Q1862.4688,462.5156 1863.0156,462.875 Z " fill="#000000"/><text fill="#000000" font-family="sans-serif" font-size="14" lengthAdjust="spacing" textLength="129" x="1880.75" y="472.7285">CustomerRepository</text><line style="stroke:#181818;stroke-width:0.5;" x1="1678.5" x2="2179.5" y1="483" y2="483"/><line style="stroke:#181818;stroke-width:0.5;" x1="1678.5" x2="2179.5" y1="491" y2="491"/><ellipse cx="1688.5" cy="505.3047" fill="#A6A6A6" rx="3" ry="3" style="stroke:#545454;stroke-width:1.0;"/><text fill="#000000" font-family="sans-serif" font-size="14" lengthAdjust="spacing" textLength="352" x="1697.5" y="509.5332">findByRepresentatice(user: Username): List&lt;Customer&gt;</text><ellipse cx="1688.5" cy="522.9141" fill="#A6A6A6" rx="3" ry="3" style="stroke:#545454;stroke-width:1.0;"/><text fill="#000000" font-family="sans-serif" font-size="14" lengthAdjust="spacing" textLength="477" x="1697.5" y="527.1426">findByCustomerCode(customerCode: CustomerCode): Optional&lt;Customer&gt;</text><ellipse cx="1688.5" cy="540.5234" fill="#A6A6A6" rx="3" ry="3" style="stroke:#545454;stroke-width:1.0;"/><text fill="#000000" font-family="sans-serif" font-size="14" lengthAdjust="spacing" textLength="387" x="1697.5" y="544.752">findBySystemUser(systemUser: SystemUser): List&lt;Customer&gt;</text></g><!--class JobOpeningRepository--><g id="elem_JobOpeningRepository"><rect codeLine="24" fill="#F1F1F1" height="100.8281" id="JobOpeningRepository" rx="2.5" ry="2.5" style="stroke:#181818;stroke-width:0.5;" width="497" x="2215.5" y="451"/><ellipse cx="2387.75" cy="467" fill="#C2C2C2" rx="11" ry="11" style="stroke:#181818;stroke-width:1.0;"/><path d="M2390.5156,462.875 Q2390.6719,462.6563 2390.8594,462.5469 Q2391.0469,462.4375 2391.2656,462.4375 Q2391.6406,462.4375 2391.875,462.7031 Q2392.1094,462.9531 2392.1094,463.5625 L2392.1094,465.0156 Q2392.1094,465.625 2391.875,465.8906 Q2391.6406,466.1563 2391.2656,466.1563 Q2390.9219,466.1563 2390.7188,465.9531 Q2390.5156,465.7656 2390.4063,465.25 Q2390.3594,464.8906 2390.1719,464.7031 Q2389.8438,464.3281 2389.2344,464.1094 Q2388.625,463.8906 2388,463.8906 Q2387.2344,463.8906 2386.5938,464.2188 Q2385.9688,464.5469 2385.4688,465.2969 Q2384.9844,466.0469 2384.9844,467.0781 L2384.9844,468.1719 Q2384.9844,469.4063 2385.875,470.2344 Q2386.7656,471.0469 2388.3594,471.0469 Q2389.2969,471.0469 2389.9531,470.7969 Q2390.3438,470.6406 2390.7656,470.2031 Q2391.0313,469.9375 2391.1719,469.8594 Q2391.3281,469.7813 2391.5313,469.7813 Q2391.8594,469.7813 2392.1094,470.0469 Q2392.375,470.2969 2392.375,470.6406 Q2392.375,470.9844 2392.0313,471.3906 Q2391.5313,471.9688 2390.7344,472.2969 Q2389.6563,472.75 2388.3594,472.75 Q2386.8438,472.75 2385.6406,472.125 Q2384.6563,471.625 2383.9688,470.5625 Q2383.2813,469.4844 2383.2813,468.2031 L2383.2813,467.0469 Q2383.2813,465.7188 2383.8906,464.5781 Q2384.5156,463.4219 2385.6094,462.8125 Q2386.7031,462.1875 2387.9375,462.1875 Q2388.6719,462.1875 2389.3125,462.3594 Q2389.9688,462.5156 2390.5156,462.875 Z " fill="#000000"/><text fill="#000000" font-family="sans-serif" font-size="14" lengthAdjust="spacing" textLength="144" x="2408.25" y="472.7285">JobOpeningRepository</text><line style="stroke:#181818;stroke-width:0.5;" x1="2216.5" x2="2711.5" y1="483" y2="483"/><line style="stroke:#181818;stroke-width:0.5;" x1="2216.5" x2="2711.5" y1="491" y2="491"/><ellipse cx="2226.5" cy="505.3047" fill="#A6A6A6" rx="3" ry="3" style="stroke:#545454;stroke-width:1.0;"/><text fill="#000000" font-family="sans-serif" font-size="14" lengthAdjust="spacing" textLength="334" x="2235.5" y="509.5332">findAllByState(jobState: JobState): List&lt;JobOpening&gt;</text><ellipse cx="2226.5" cy="522.9141" fill="#A6A6A6" rx="3" ry="3" style="stroke:#545454;stroke-width:1.0;"/><text fill="#000000" font-family="sans-serif" font-size="14" lengthAdjust="spacing" textLength="471" x="2235.5" y="527.1426">findByJobReference(jobReference: JobReference): Optional&lt;JobOpening&gt;</text><ellipse cx="2226.5" cy="540.5234" fill="#A6A6A6" rx="3" ry="3" style="stroke:#545454;stroke-width:1.0;"/><text fill="#000000" font-family="sans-serif" font-size="14" lengthAdjust="spacing" textLength="267" x="2235.5" y="544.752">nextJobNumber(customerCode: String): int</text></g><!--class JobOpening--><g id="elem_JobOpening"><rect codeLine="30" fill="#F1F1F1" height="347.3594" id="JobOpening" rx="2.5" ry="2.5" style="stroke:#181818;stroke-width:0.5;" width="1368" x="7" y="328"/><ellipse cx="648.75" cy="344" fill="#C2C2C2" rx="11" ry="11" style="stroke:#181818;stroke-width:1.0;"/><path d="M651.5156,339.875 Q651.6719,339.6563 651.8594,339.5469 Q652.0469,339.4375 652.2656,339.4375 Q652.6406,339.4375 652.875,339.7031 Q653.1094,339.9531 653.1094,340.5625 L653.1094,342.0156 Q653.1094,342.625 652.875,342.8906 Q652.6406,343.1563 652.2656,343.1563 Q651.9219,343.1563 651.7188,342.9531 Q651.5156,342.7656 651.4063,342.25 Q651.3594,341.8906 651.1719,341.7031 Q650.8438,341.3281 650.2344,341.1094 Q649.625,340.8906 649,340.8906 Q648.2344,340.8906 647.5938,341.2188 Q646.9688,341.5469 646.4688,342.2969 Q645.9844,343.0469 645.9844,344.0781 L645.9844,345.1719 Q645.9844,346.4063 646.875,347.2344 Q647.7656,348.0469 649.3594,348.0469 Q650.2969,348.0469 650.9531,347.7969 Q651.3438,347.6406 651.7656,347.2031 Q652.0313,346.9375 652.1719,346.8594 Q652.3281,346.7813 652.5313,346.7813 Q652.8594,346.7813 653.1094,347.0469 Q653.375,347.2969 653.375,347.6406 Q653.375,347.9844 653.0313,348.3906 Q652.5313,348.9688 651.7344,349.2969 Q650.6563,349.75 649.3594,349.75 Q647.8438,349.75 646.6406,349.125 Q645.6563,348.625 644.9688,347.5625 Q644.2813,346.4844 644.2813,345.2031 L644.2813,344.0469 Q644.2813,342.7188 644.8906,341.5781 Q645.5156,340.4219 646.6094,339.8125 Q647.7031,339.1875 648.9375,339.1875 Q649.6719,339.1875 650.3125,339.3594 Q650.9688,339.5156 651.5156,339.875 Z " fill="#000000"/><text fill="#000000" font-family="sans-serif" font-size="14" lengthAdjust="spacing" textLength="76" x="669.25" y="349.7285">JobOpening</text><line style="stroke:#181818;stroke-width:0.5;" x1="8" x2="1374" y1="360" y2="360"/><rect fill="none" height="6" style="stroke:#595959;stroke-width:1.0;" width="6" x="15" y="371.3047"/><text fill="#000000" font-family="sans-serif" font-size="14" lengthAdjust="spacing" textLength="181" x="27" y="378.5332">jobReference: JobReference</text><rect fill="none" height="6" style="stroke:#595959;stroke-width:1.0;" width="6" x="15" y="388.9141"/><text fill="#000000" font-family="sans-serif" font-size="14" lengthAdjust="spacing" textLength="103" x="27" y="396.1426">jobTitle: JobTitle</text><rect fill="none" height="6" style="stroke:#595959;stroke-width:1.0;" width="6" x="15" y="406.5234"/><text fill="#000000" font-family="sans-serif" font-size="14" lengthAdjust="spacing" textLength="115" x="27" y="413.752">jobState: JobState</text><rect fill="none" height="6" style="stroke:#595959;stroke-width:1.0;" width="6" x="15" y="424.1328"/><text fill="#000000" font-family="sans-serif" font-size="14" lengthAdjust="spacing" textLength="177" x="27" y="431.3613">contractType: ContractType</text><rect fill="none" height="6" style="stroke:#595959;stroke-width:1.0;" width="6" x="15" y="441.7422"/><text fill="#000000" font-family="sans-serif" font-size="14" lengthAdjust="spacing" textLength="100" x="27" y="448.9707">mode: JobMode</text><rect fill="none" height="6" style="stroke:#595959;stroke-width:1.0;" width="6" x="15" y="459.3516"/><text fill="#000000" font-family="sans-serif" font-size="14" lengthAdjust="spacing" textLength="148" x="27" y="466.5801">description: Description</text><rect fill="none" height="6" style="stroke:#595959;stroke-width:1.0;" width="6" x="15" y="476.9609"/><text fill="#000000" font-family="sans-serif" font-size="14" lengthAdjust="spacing" textLength="111" x="27" y="484.1895">address: Address</text><rect fill="none" height="6" style="stroke:#595959;stroke-width:1.0;" width="6" x="15" y="494.5703"/><text fill="#000000" font-family="sans-serif" font-size="14" lengthAdjust="spacing" textLength="265" x="27" y="501.7988">numberOfVacancies: NumberOfVacancies</text><rect fill="none" height="6" style="stroke:#595959;stroke-width:1.0;" width="6" x="15" y="512.1797"/><text fill="#000000" font-family="sans-serif" font-size="14" lengthAdjust="spacing" textLength="257" x="27" y="519.4082">recruitmentProcess: RecruitmentProcess</text><rect fill="none" height="6" style="stroke:#595959;stroke-width:1.0;" width="6" x="15" y="529.7891"/><text fill="#000000" font-family="sans-serif" font-size="14" lengthAdjust="spacing" textLength="339" x="27" y="537.0176">requirementsSpecification: RequirementsSpecification</text><rect fill="none" height="6" style="stroke:#595959;stroke-width:1.0;" width="6" x="15" y="547.3984"/><text fill="#000000" font-family="sans-serif" font-size="14" lengthAdjust="spacing" textLength="194" x="27" y="554.627">interviewModel: InterviewModel</text><rect fill="none" height="6" style="stroke:#595959;stroke-width:1.0;" width="6" x="15" y="565.0078"/><text fill="#000000" font-family="sans-serif" font-size="14" lengthAdjust="spacing" textLength="175" x="27" y="572.2363">activeSince: JobActiveSince</text><line style="stroke:#181818;stroke-width:0.5;" x1="8" x2="1374" y1="579.3125" y2="579.3125"/><ellipse cx="18" cy="593.6172" fill="#A6A6A6" rx="3" ry="3" style="stroke:#545454;stroke-width:1.0;"/><text fill="#000000" font-family="sans-serif" font-size="14" lengthAdjust="spacing" textLength="1342" x="27" y="597.8457">JobOpening(jobReference: JobReference, jobTitle: JobTitle, jobState: JobState, contractType: ContractType, mode: JobMode, description: Description, address: Address, numberOfVacancies: NumberOfVacancies)</text><ellipse cx="18" cy="611.2266" fill="#A6A6A6" rx="3" ry="3" style="stroke:#545454;stroke-width:1.0;"/><text fill="#000000" font-family="sans-serif" font-size="14" lengthAdjust="spacing" textLength="201" x="27" y="615.4551">sameAs(other: Object): boolean</text><ellipse cx="18" cy="628.8359" fill="#A6A6A6" rx="3" ry="3" style="stroke:#545454;stroke-width:1.0;"/><text fill="#000000" font-family="sans-serif" font-size="14" lengthAdjust="spacing" textLength="234" x="27" y="633.0645">compareTo(other: JobReference): int</text><ellipse cx="18" cy="646.4453" fill="#A6A6A6" rx="3" ry="3" style="stroke:#545454;stroke-width:1.0;"/><text fill="#000000" font-family="sans-serif" font-size="14" lengthAdjust="spacing" textLength="151" x="27" y="650.6738">identity(): JobReference</text><ellipse cx="18" cy="664.0547" fill="#A6A6A6" rx="3" ry="3" style="stroke:#545454;stroke-width:1.0;"/><text fill="#000000" font-family="sans-serif" font-size="14" lengthAdjust="spacing" textLength="244" x="27" y="668.2832">hasIdentity(id: JobReference): boolean</text></g><g id="elem_GMN11"><path d="M1410,488.5 L1410,497.5 L1375.15,501.5 L1410,505.5 L1410,514.8516 A0,0 0 0 0 1410,514.8516 L1642,514.8516 A0,0 0 0 0 1642,514.8516 L1642,498.5 L1632,488.5 L1410,488.5 A0,0 0 0 0 1410,488.5 " fill="#FAFAFA" style="stroke:#181818;stroke-width:0.5;"/><path d="M1632,488.5 L1632,498.5 L1642,498.5 L1632,488.5 " fill="#FAFAFA" style="stroke:#181818;stroke-width:0.5;"/><text fill="#000000" font-family="sans-serif" font-size="13" lengthAdjust="spacing" textLength="211" x="1416" y="506.9951">Aggregate Root in the domain model</text></g><!--link CreateJobOpeningUI to CreateJobOpeningController--><g id="link_CreateJobOpeningUI_CreateJobOpeningController"><path codeLine="51" d="M1929,90.32 C1929,108.48 1929,124.19 1929,144 " fill="none" id="CreateJobOpeningUI-to-CreateJobOpeningController" style="stroke:#181818;stroke-width:1.0;"/><polygon fill="#181818" points="1929,150,1933,141,1929,145,1925,141,1929,150" style="stroke:#181818;stroke-width:1.0;"/><text fill="#000000" font-family="sans-serif" font-size="13" lengthAdjust="spacing" textLength="7" x="1921.5734" y="139.3243">1</text></g><!--link CreateJobOpeningController to CustomerRepository--><g id="link_CreateJobOpeningController_CustomerRepository"><path codeLine="52" d="M1929,268.09 C1929,321.57 1929,394.07 1929,444.74 " fill="none" id="CreateJobOpeningController-to-CustomerRepository" style="stroke:#181818;stroke-width:1.0;"/><polygon fill="#181818" points="1929,450.74,1933,441.74,1929,445.74,1925,441.74,1929,450.74" style="stroke:#181818;stroke-width:1.0;"/><text fill="#000000" font-family="sans-serif" font-size="13" lengthAdjust="spacing" textLength="7" x="1921.5078" y="440.0088">1</text></g><!--link CreateJobOpeningController to JobOpeningRepository--><g id="link_CreateJobOpeningController_JobOpeningRepository"><path codeLine="53" d="M2073.11,268.09 C2114.11,285.99 2158.38,306.65 2198,328 C2267.16,365.28 2336.9647,411.2078 2389.5547,447.5678 " fill="none" id="CreateJobOpeningController-to-JobOpeningRepository" style="stroke:#181818;stroke-width:1.0;"/><polygon fill="#181818" points="2394.49,450.98,2389.3619,442.5715,2390.3773,448.1365,2384.8123,449.1519,2394.49,450.98" style="stroke:#181818;stroke-width:1.0;"/><text fill="#000000" font-family="sans-serif" font-size="13" lengthAdjust="spacing" textLength="7" x="2377.223" y="440.2825">1</text></g><!--link CreateJobOpeningController to JobOpening--><g id="link_CreateJobOpeningController_JobOpening"><path codeLine="54" d="M1658.62,268.03 C1573.22,286.73 1478.57,307.84 1392,328 C1386.51,329.28 1386.8337,329.2093 1381.2937,330.4993 " fill="none" id="CreateJobOpeningController-to-JobOpening" style="stroke:#181818;stroke-width:1.0;"/><polygon fill="#181818" points="1375.45,331.86,1385.1226,333.7147,1380.3197,330.7261,1383.3084,325.9232,1375.45,331.86" style="stroke:#181818;stroke-width:1.0;"/><text fill="#000000" font-family="sans-serif" font-size="13" lengthAdjust="spacing" textLength="5" x="1382.9635" y="327.4121">*</text></g><!--SRC=[dLLBRzim3BxxLmWzkQjxsDKe2cHP3ocsPaZINOOT59bsrCgI9z5fZM7_VRJZPsntnN88nDSdaXzbkcUfCsvvobAZZJXOam93cuFdMal6nJDFO8k50cP18DU90ez-Gd7dsD82HxWt-tK6MkhaSSL-Uun-LomosuDvyIz3jZT60TUrte4Yd3kTf_wHgnnSo4hXPdVxusV0CieYmv1jqH8S1U-yFtENBOr6QvG2MrzwpKJkaCgm6yYCasXi4RBbI5SxFxL8VVVx2MsT-X6iZ8jLt23UlKg7pcykNPe8UfaFonPdoKz61MLEEucgfn5bbLpWhiX8k-n90H5NnXBeLpe4B08dhCnG6hs3L-mm75g0dXmPOn_oT0ysP59Zm695civETIDNmynqvR-EltF1jP0bRnHATHwDZ7eaZRhTJaGiTVIf88C51nevIW5-xiea7kbVynG8xWlrzAP1kHs4BdijE-jVtqGWwwe9NCq0RGk7a9QN-guzKgdjUPn7M-3KV0nAN2X5Dr1vu1ERrQ7Yg3erm1tAC3FIRo062rfKuQrGGRHIlyGnb2RoINjYU6uyYRofejgdD7zvvr2FwdrzwWndLJUlStQKQuV1FDUwtb27x7Cdr6OUHJHED8oBqw5MJqphmxcgTgNFciqbfZIItwmH5TXcf6kTV-NIGcbmsmo4ZANWfzmsSwOwb1eEzYZXfInEXMmra9jo1CeZR6NJz4Kdr-JsFY7p50KJx0GJnFplvsN0H30Y8NXN_o-RZK0FV-5yWuVo4QxtJxGVnjzFsWlSmiuqVcVFeHpdawUCY069HRbwHcDxnGxShHeF6OrmcblfQNWJs-tw-fPTVBnuOnTvRwofDdgyajuHDRcP_XNteH_dUTeWBNAP792PkF_iYRiaiP0G6DiOWzHGHescLP5oEgRLZ7f_0G00]--></g></svg>