<?xml version="1.0" encoding="us-ascii" standalone="no"?><svg xmlns="http://www.w3.org/2000/svg" xmlns:xlink="http://www.w3.org/1999/xlink" contentStyleType="text/css" height="882px" preserveAspectRatio="none" style="width:418px;height:882px;background:#FFFFFF;" version="1.1" viewBox="0 0 418 882" width="418px" zoomAndPan="magnify"><defs/><g><text fill="#000000" font-family="sans-serif" font-size="14" font-weight="bold" lengthAdjust="spacing" textLength="342" x="31" y="24.5332">Job Opening Management System Class Diagram</text><!--class ListJobOpeningsUI--><g id="elem_ListJobOpeningsUI"><rect codeLine="5" fill="#F1F1F1" height="171.2656" id="ListJobOpeningsUI" rx="2.5" ry="2.5" style="stroke:#181818;stroke-width:0.5;" width="283" x="67.5" y="45.6094"/><ellipse cx="146.25" cy="61.6094" fill="#ADD1B2" rx="11" ry="11" style="stroke:#181818;stroke-width:1.0;"/><path d="M149.0156,57.4844 Q149.1719,57.2656 149.3594,57.1563 Q149.5469,57.0469 149.7656,57.0469 Q150.1406,57.0469 150.375,57.3125 Q150.6094,57.5625 150.6094,58.1719 L150.6094,59.625 Q150.6094,60.2344 150.375,60.5 Q150.1406,60.7656 149.7656,60.7656 Q149.4219,60.7656 149.2188,60.5625 Q149.0156,60.375 148.9063,59.8594 Q148.8594,59.5 148.6719,59.3125 Q148.3438,58.9375 147.7344,58.7188 Q147.125,58.5 146.5,58.5 Q145.7344,58.5 145.0938,58.8281 Q144.4688,59.1563 143.9688,59.9063 Q143.4844,60.6563 143.4844,61.6875 L143.4844,62.7813 Q143.4844,64.0156 144.375,64.8438 Q145.2656,65.6563 146.8594,65.6563 Q147.7969,65.6563 148.4531,65.4063 Q148.8438,65.25 149.2656,64.8125 Q149.5313,64.5469 149.6719,64.4688 Q149.8281,64.3906 150.0313,64.3906 Q150.3594,64.3906 150.6094,64.6563 Q150.875,64.9063 150.875,65.25 Q150.875,65.5938 150.5313,66 Q150.0313,66.5781 149.2344,66.9063 Q148.1563,67.3594 146.8594,67.3594 Q145.3438,67.3594 144.1406,66.7344 Q143.1563,66.2344 142.4688,65.1719 Q141.7813,64.0938 141.7813,62.8125 L141.7813,61.6563 Q141.7813,60.3281 142.3906,59.1875 Q143.0156,58.0313 144.1094,57.4219 Q145.2031,56.7969 146.4375,56.7969 Q147.1719,56.7969 147.8125,56.9688 Q148.4688,57.125 149.0156,57.4844 Z " fill="#000000"/><text fill="#000000" font-family="sans-serif" font-size="14" lengthAdjust="spacing" textLength="117" x="166.75" y="67.3379">ListJobOpeningsUI</text><line style="stroke:#181818;stroke-width:0.5;" x1="68.5" x2="349.5" y1="77.6094" y2="77.6094"/><rect fill="none" height="6" style="stroke:#C82930;stroke-width:1.0;" width="6" x="75.5" y="88.9141"/><text fill="#000000" font-family="sans-serif" font-size="14" lengthAdjust="spacing" textLength="257" x="87.5" y="96.1426">theController: ListJobOpeningsController</text><line style="stroke:#181818;stroke-width:0.5;" x1="68.5" x2="349.5" y1="103.2188" y2="103.2188"/><ellipse cx="78.5" cy="117.5234" fill="#84BE84" rx="3" ry="3" style="stroke:#038048;stroke-width:1.0;"/><text fill="#000000" font-family="sans-serif" font-size="14" lengthAdjust="spacing" textLength="109" x="87.5" y="121.752">headline(): String</text><ellipse cx="78.5" cy="135.1328" fill="#84BE84" rx="3" ry="3" style="stroke:#038048;stroke-width:1.0;"/><text fill="#000000" font-family="sans-serif" font-size="14" lengthAdjust="spacing" textLength="150" x="87.5" y="139.3613">emptyMessage(): String</text><ellipse cx="78.5" cy="152.7422" fill="#84BE84" rx="3" ry="3" style="stroke:#038048;stroke-width:1.0;"/><text fill="#000000" font-family="sans-serif" font-size="14" lengthAdjust="spacing" textLength="214" x="87.5" y="156.9707">elements(): Iterable&lt;JobOpening&gt;</text><ellipse cx="78.5" cy="170.3516" fill="#84BE84" rx="3" ry="3" style="stroke:#038048;stroke-width:1.0;"/><text fill="#000000" font-family="sans-serif" font-size="14" lengthAdjust="spacing" textLength="241" x="87.5" y="174.5801">elementPrinter(): Visitor&lt;JobOpening&gt;</text><ellipse cx="78.5" cy="187.9609" fill="#84BE84" rx="3" ry="3" style="stroke:#038048;stroke-width:1.0;"/><text fill="#000000" font-family="sans-serif" font-size="14" lengthAdjust="spacing" textLength="141" x="87.5" y="192.1895">elementName(): String</text><ellipse cx="78.5" cy="205.5703" fill="#84BE84" rx="3" ry="3" style="stroke:#038048;stroke-width:1.0;"/><text fill="#000000" font-family="sans-serif" font-size="14" lengthAdjust="spacing" textLength="118" x="87.5" y="209.7988">listHeader(): String</text></g><!--class ListJobOpeningsController--><g id="elem_ListJobOpeningsController"><rect codeLine="15" fill="#F1F1F1" height="65.6094" id="ListJobOpeningsController" rx="2.5" ry="2.5" style="stroke:#181818;stroke-width:0.5;" width="280" x="69" y="276.6094"/><ellipse cx="121.25" cy="292.6094" fill="#ADD1B2" rx="11" ry="11" style="stroke:#181818;stroke-width:1.0;"/><path d="M124.0156,288.4844 Q124.1719,288.2656 124.3594,288.1563 Q124.5469,288.0469 124.7656,288.0469 Q125.1406,288.0469 125.375,288.3125 Q125.6094,288.5625 125.6094,289.1719 L125.6094,290.625 Q125.6094,291.2344 125.375,291.5 Q125.1406,291.7656 124.7656,291.7656 Q124.4219,291.7656 124.2188,291.5625 Q124.0156,291.375 123.9063,290.8594 Q123.8594,290.5 123.6719,290.3125 Q123.3438,289.9375 122.7344,289.7188 Q122.125,289.5 121.5,289.5 Q120.7344,289.5 120.0938,289.8281 Q119.4688,290.1563 118.9688,290.9063 Q118.4844,291.6563 118.4844,292.6875 L118.4844,293.7813 Q118.4844,295.0156 119.375,295.8438 Q120.2656,296.6563 121.8594,296.6563 Q122.7969,296.6563 123.4531,296.4063 Q123.8438,296.25 124.2656,295.8125 Q124.5313,295.5469 124.6719,295.4688 Q124.8281,295.3906 125.0313,295.3906 Q125.3594,295.3906 125.6094,295.6563 Q125.875,295.9063 125.875,296.25 Q125.875,296.5938 125.5313,297 Q125.0313,297.5781 124.2344,297.9063 Q123.1563,298.3594 121.8594,298.3594 Q120.3438,298.3594 119.1406,297.7344 Q118.1563,297.2344 117.4688,296.1719 Q116.7813,295.0938 116.7813,293.8125 L116.7813,292.6563 Q116.7813,291.3281 117.3906,290.1875 Q118.0156,289.0313 119.1094,288.4219 Q120.2031,287.7969 121.4375,287.7969 Q122.1719,287.7969 122.8125,287.9688 Q123.4688,288.125 124.0156,288.4844 Z " fill="#000000"/><text fill="#000000" font-family="sans-serif" font-size="14" lengthAdjust="spacing" textLength="167" x="141.75" y="298.3379">ListJobOpeningsController</text><line style="stroke:#181818;stroke-width:0.5;" x1="70" x2="348" y1="308.6094" y2="308.6094"/><line style="stroke:#181818;stroke-width:0.5;" x1="70" x2="348" y1="316.6094" y2="316.6094"/><ellipse cx="80" cy="330.9141" fill="#84BE84" rx="3" ry="3" style="stroke:#038048;stroke-width:1.0;"/><text fill="#000000" font-family="sans-serif" font-size="14" lengthAdjust="spacing" textLength="254" x="89" y="335.1426">allJobOpenings(): Iterable&lt;JobOpening&gt;</text></g><!--class JobOpeningRepository--><g id="elem_JobOpeningRepository"><rect codeLine="19" fill="#F1F1F1" height="83.2188" id="JobOpeningRepository" rx="2.5" ry="2.5" style="stroke:#181818;stroke-width:0.5;" width="404" x="7" y="402.6094"/><ellipse cx="132.75" cy="418.6094" fill="#ADD1B2" rx="11" ry="11" style="stroke:#181818;stroke-width:1.0;"/><path d="M135.5156,414.4844 Q135.6719,414.2656 135.8594,414.1563 Q136.0469,414.0469 136.2656,414.0469 Q136.6406,414.0469 136.875,414.3125 Q137.1094,414.5625 137.1094,415.1719 L137.1094,416.625 Q137.1094,417.2344 136.875,417.5 Q136.6406,417.7656 136.2656,417.7656 Q135.9219,417.7656 135.7188,417.5625 Q135.5156,417.375 135.4063,416.8594 Q135.3594,416.5 135.1719,416.3125 Q134.8438,415.9375 134.2344,415.7188 Q133.625,415.5 133,415.5 Q132.2344,415.5 131.5938,415.8281 Q130.9688,416.1563 130.4688,416.9063 Q129.9844,417.6563 129.9844,418.6875 L129.9844,419.7813 Q129.9844,421.0156 130.875,421.8438 Q131.7656,422.6563 133.3594,422.6563 Q134.2969,422.6563 134.9531,422.4063 Q135.3438,422.25 135.7656,421.8125 Q136.0313,421.5469 136.1719,421.4688 Q136.3281,421.3906 136.5313,421.3906 Q136.8594,421.3906 137.1094,421.6563 Q137.375,421.9063 137.375,422.25 Q137.375,422.5938 137.0313,423 Q136.5313,423.5781 135.7344,423.9063 Q134.6563,424.3594 133.3594,424.3594 Q131.8438,424.3594 130.6406,423.7344 Q129.6563,423.2344 128.9688,422.1719 Q128.2813,421.0938 128.2813,419.8125 L128.2813,418.6563 Q128.2813,417.3281 128.8906,416.1875 Q129.5156,415.0313 130.6094,414.4219 Q131.7031,413.7969 132.9375,413.7969 Q133.6719,413.7969 134.3125,413.9688 Q134.9688,414.125 135.5156,414.4844 Z " fill="#000000"/><text fill="#000000" font-family="sans-serif" font-size="14" lengthAdjust="spacing" textLength="144" x="153.25" y="424.3379">JobOpeningRepository</text><line style="stroke:#181818;stroke-width:0.5;" x1="8" x2="410" y1="434.6094" y2="434.6094"/><line style="stroke:#181818;stroke-width:0.5;" x1="8" x2="410" y1="442.6094" y2="442.6094"/><ellipse cx="18" cy="456.9141" fill="#84BE84" rx="3" ry="3" style="stroke:#038048;stroke-width:1.0;"/><text fill="#000000" font-family="sans-serif" font-size="14" lengthAdjust="spacing" textLength="274" x="27" y="461.1426">findAllByState(JobState): List&lt;JobOpening&gt;</text><ellipse cx="18" cy="474.5234" fill="#84BE84" rx="3" ry="3" style="stroke:#038048;stroke-width:1.0;"/><text fill="#000000" font-family="sans-serif" font-size="14" lengthAdjust="spacing" textLength="378" x="27" y="478.752">findByJobReference(JobReference): Optional&lt;JobOpening&gt;</text></g><!--class JobOpening--><g id="elem_JobOpening"><rect codeLine="24" fill="#F1F1F1" height="329.75" id="JobOpening" rx="2.5" ry="2.5" style="stroke:#181818;stroke-width:0.5;" width="291" x="63.5" y="545.6094"/><ellipse cx="166.75" cy="561.6094" fill="#ADD1B2" rx="11" ry="11" style="stroke:#181818;stroke-width:1.0;"/><path d="M169.5156,557.4844 Q169.6719,557.2656 169.8594,557.1563 Q170.0469,557.0469 170.2656,557.0469 Q170.6406,557.0469 170.875,557.3125 Q171.1094,557.5625 171.1094,558.1719 L171.1094,559.625 Q171.1094,560.2344 170.875,560.5 Q170.6406,560.7656 170.2656,560.7656 Q169.9219,560.7656 169.7188,560.5625 Q169.5156,560.375 169.4063,559.8594 Q169.3594,559.5 169.1719,559.3125 Q168.8438,558.9375 168.2344,558.7188 Q167.625,558.5 167,558.5 Q166.2344,558.5 165.5938,558.8281 Q164.9688,559.1563 164.4688,559.9063 Q163.9844,560.6563 163.9844,561.6875 L163.9844,562.7813 Q163.9844,564.0156 164.875,564.8438 Q165.7656,565.6563 167.3594,565.6563 Q168.2969,565.6563 168.9531,565.4063 Q169.3438,565.25 169.7656,564.8125 Q170.0313,564.5469 170.1719,564.4688 Q170.3281,564.3906 170.5313,564.3906 Q170.8594,564.3906 171.1094,564.6563 Q171.375,564.9063 171.375,565.25 Q171.375,565.5938 171.0313,566 Q170.5313,566.5781 169.7344,566.9063 Q168.6563,567.3594 167.3594,567.3594 Q165.8438,567.3594 164.6406,566.7344 Q163.6563,566.2344 162.9688,565.1719 Q162.2813,564.0938 162.2813,562.8125 L162.2813,561.6563 Q162.2813,560.3281 162.8906,559.1875 Q163.5156,558.0313 164.6094,557.4219 Q165.7031,556.7969 166.9375,556.7969 Q167.6719,556.7969 168.3125,556.9688 Q168.9688,557.125 169.5156,557.4844 Z " fill="#000000"/><text fill="#000000" font-family="sans-serif" font-size="14" lengthAdjust="spacing" textLength="76" x="187.25" y="567.3379">JobOpening</text><line style="stroke:#181818;stroke-width:0.5;" x1="64.5" x2="353.5" y1="577.6094" y2="577.6094"/><rect fill="none" height="6" style="stroke:#C82930;stroke-width:1.0;" width="6" x="71.5" y="588.9141"/><text fill="#000000" font-family="sans-serif" font-size="14" lengthAdjust="spacing" textLength="181" x="83.5" y="596.1426">jobReference: JobReference</text><rect fill="none" height="6" style="stroke:#C82930;stroke-width:1.0;" width="6" x="71.5" y="606.5234"/><text fill="#000000" font-family="sans-serif" font-size="14" lengthAdjust="spacing" textLength="103" x="83.5" y="613.752">jobTitle: JobTitle</text><rect fill="none" height="6" style="stroke:#C82930;stroke-width:1.0;" width="6" x="71.5" y="624.1328"/><text fill="#000000" font-family="sans-serif" font-size="14" lengthAdjust="spacing" textLength="115" x="83.5" y="631.3613">jobState: JobState</text><rect fill="none" height="6" style="stroke:#C82930;stroke-width:1.0;" width="6" x="71.5" y="641.7422"/><text fill="#000000" font-family="sans-serif" font-size="14" lengthAdjust="spacing" textLength="177" x="83.5" y="648.9707">contractType: ContractType</text><rect fill="none" height="6" style="stroke:#C82930;stroke-width:1.0;" width="6" x="71.5" y="659.3516"/><text fill="#000000" font-family="sans-serif" font-size="14" lengthAdjust="spacing" textLength="100" x="83.5" y="666.5801">mode: JobMode</text><rect fill="none" height="6" style="stroke:#C82930;stroke-width:1.0;" width="6" x="71.5" y="676.9609"/><text fill="#000000" font-family="sans-serif" font-size="14" lengthAdjust="spacing" textLength="148" x="83.5" y="684.1895">description: Description</text><rect fill="none" height="6" style="stroke:#C82930;stroke-width:1.0;" width="6" x="71.5" y="694.5703"/><text fill="#000000" font-family="sans-serif" font-size="14" lengthAdjust="spacing" textLength="111" x="83.5" y="701.7988">address: Address</text><rect fill="none" height="6" style="stroke:#C82930;stroke-width:1.0;" width="6" x="71.5" y="712.1797"/><text fill="#000000" font-family="sans-serif" font-size="14" lengthAdjust="spacing" textLength="265" x="83.5" y="719.4082">numberOfVacancies: NumberOfVacancies</text><rect fill="none" height="6" style="stroke:#C82930;stroke-width:1.0;" width="6" x="71.5" y="729.7891"/><text fill="#000000" font-family="sans-serif" font-size="14" lengthAdjust="spacing" textLength="257" x="83.5" y="737.0176">recruitmentProcess: RecruitmentProcess</text><rect fill="none" height="6" style="stroke:#C82930;stroke-width:1.0;" width="6" x="71.5" y="747.3984"/><text fill="#000000" font-family="sans-serif" font-size="14" lengthAdjust="spacing" textLength="175" x="83.5" y="754.627">activeSince: JobActiveSince</text><ellipse cx="74.5" cy="768.0078" fill="none" rx="3" ry="3" style="stroke:#038048;stroke-width:1.0;"/><text fill="#000000" font-family="sans-serif" font-size="14" lengthAdjust="spacing" textLength="156" x="83.5" y="772.2363">{getters for all attributes}</text><ellipse cx="74.5" cy="785.6172" fill="none" rx="3" ry="3" style="stroke:#038048;stroke-width:1.0;"/><text fill="#000000" font-family="sans-serif" font-size="14" lengthAdjust="spacing" textLength="175" x="83.5" y="789.8457">{setters for some attributes}</text><line style="stroke:#181818;stroke-width:0.5;" x1="64.5" x2="353.5" y1="796.9219" y2="796.9219"/><ellipse cx="74.5" cy="811.2266" fill="#84BE84" rx="3" ry="3" style="stroke:#038048;stroke-width:1.0;"/><text fill="#000000" font-family="sans-serif" font-size="14" lengthAdjust="spacing" textLength="160" x="83.5" y="815.4551">sameAs(Object): boolean</text><ellipse cx="74.5" cy="828.8359" fill="#84BE84" rx="3" ry="3" style="stroke:#038048;stroke-width:1.0;"/><text fill="#000000" font-family="sans-serif" font-size="14" lengthAdjust="spacing" textLength="193" x="83.5" y="833.0645">compareTo(JobReference): int</text><ellipse cx="74.5" cy="846.4453" fill="#84BE84" rx="3" ry="3" style="stroke:#038048;stroke-width:1.0;"/><text fill="#000000" font-family="sans-serif" font-size="14" lengthAdjust="spacing" textLength="151" x="83.5" y="850.6738">identity(): JobReference</text><ellipse cx="74.5" cy="864.0547" fill="#84BE84" rx="3" ry="3" style="stroke:#038048;stroke-width:1.0;"/><text fill="#000000" font-family="sans-serif" font-size="14" lengthAdjust="spacing" textLength="225" x="83.5" y="868.2832">hasIdentity(JobReference): boolean</text></g><!--reverse link ListJobOpeningsUI to ListJobOpeningsController--><g id="link_ListJobOpeningsUI_ListJobOpeningsController"><path codeLine="43" d="M209,228.7394 C209,249.9694 209,259.4894 209,276.3494 " fill="none" id="ListJobOpeningsUI-backto-ListJobOpeningsController" style="stroke:#181818;stroke-width:1.0;"/><polygon fill="#181818" points="209,216.7394,205,222.7394,209,228.7394,213,222.7394,209,216.7394" style="stroke:#181818;stroke-width:1.0;"/></g><!--reverse link ListJobOpeningsController to JobOpeningRepository--><g id="link_ListJobOpeningsController_JobOpeningRepository"><path codeLine="44" d="M209,354.6794 C209,372.6094 209,383.1194 209,402.2894 " fill="none" id="ListJobOpeningsController-backto-JobOpeningRepository" style="stroke:#181818;stroke-width:1.0;"/><polygon fill="#181818" points="209,342.6794,205,348.6794,209,354.6794,213,348.6794,209,342.6794" style="stroke:#181818;stroke-width:1.0;"/></g><!--reverse link JobOpeningRepository to JobOpening--><g id="link_JobOpeningRepository_JobOpening"><path codeLine="45" d="M209,491.8594 C209,508.7394 209,523.5194 209,545.5594 " fill="none" id="JobOpeningRepository-backto-JobOpening" style="stroke:#181818;stroke-width:1.0;"/><polygon fill="#181818" points="209,485.8594,205,494.8594,209,490.8594,213,494.8594,209,485.8594" style="stroke:#181818;stroke-width:1.0;"/></g><!--SRC=[XLFRRk8m47tFL_WH5l43KLM9qeTbLQ02jkyJPm1NlaJsK2cg-kyxiGC9f7JpD3xdpCMJOrAaKVnnXLXNQ9KzY2LOEA11Is9R1q8ZvXf24CyA3XvCbcKodbzK8CvhqyBVXVZC17zJEkBSMV9EQ_JvhQwZedfoH2YriZWQvs9BdYK9HrDHlSGGU9W1f-DyeS4NX1uAZGzTZyShrIldiQRHlgcWoFcxqXMOGI_Du__c6LE5blcwiuJkSkqo9g1rZxyxyALW1swmSd7S-bnhhsmvq_gftX8GZbWQWt7QyV1MZVwfPdY3U_HePSov73XlNP5o5lJ_PZd_slTUUYxwnIxyhZ5Kv69qmUEe4OzHmcMpBv2qgolcvhrJueqhKywIWmIL6AHNSUvSF7U7n49PUlPCBcOfIAWzcGBzUly64gnKoFpg5afAZzAV52NVE1bBRGPOsqkI-i2jEkzYrftJ_WFRQHP6w-8T9V6s2-SqGffq8fsfmEFEtVuJTcjIg98xAgeRqmnMFJb2M9m5DnMk-dmUaDXnGUoT5-n60SGUBaw4uQjLX9uYE8DN4dR3yAN_cav_UDVt7qMJzvt3iszjBnvOtjDdyVi7]--></g></svg>