<?xml version="1.0" encoding="us-ascii" standalone="no"?><svg xmlns="http://www.w3.org/2000/svg" xmlns:xlink="http://www.w3.org/1999/xlink" contentStyleType="text/css" height="526px" preserveAspectRatio="none" style="width:1529px;height:526px;background:#FFFFFF;" version="1.1" viewBox="0 0 1529 526" width="1529px" zoomAndPan="magnify"><defs/><g><text fill="#000000" font-family="sans-serif" font-size="14" font-weight="bold" lengthAdjust="spacing" textLength="186" x="670.75" y="29.5332">SD - Register Job Opening</text><rect fill="#FFFFFF" height="273.1641" style="stroke:#181818;stroke-width:1.0;" width="10" x="163.5" y="153.5703"/><rect fill="#FFFFFF" height="212.4609" style="stroke:#181818;stroke-width:1.0;" width="10" x="402.5" y="183.9219"/><rect fill="#FFFFFF" height="151.7578" style="stroke:#181818;stroke-width:1.0;" width="10" x="620.5" y="214.2734"/><rect fill="#FFFFFF" height="30.3516" style="stroke:#181818;stroke-width:1.0;" width="10" x="1305.5" y="244.625"/><rect fill="#FFFFFF" height="30.3516" style="stroke:#181818;stroke-width:1.0;" width="10" x="1439.5" y="305.3281"/><line style="stroke:#181818;stroke-width:0.5;stroke-dasharray:5.0,5.0;" x1="37" x2="37" y1="121.2188" y2="444.7344"/><line style="stroke:#181818;stroke-width:0.5;stroke-dasharray:5.0,5.0;" x1="168" x2="168" y1="121.2188" y2="444.7344"/><line style="stroke:#181818;stroke-width:0.5;stroke-dasharray:5.0,5.0;" x1="407" x2="407" y1="121.2188" y2="444.7344"/><line style="stroke:#181818;stroke-width:0.5;stroke-dasharray:5.0,5.0;" x1="625" x2="625" y1="121.2188" y2="444.7344"/><line style="stroke:#181818;stroke-width:0.5;stroke-dasharray:5.0,5.0;" x1="1310.5" x2="1310.5" y1="121.2188" y2="444.7344"/><line style="stroke:#181818;stroke-width:0.5;stroke-dasharray:5.0,5.0;" x1="1444.5" x2="1444.5" y1="121.2188" y2="444.7344"/><text fill="#000000" font-family="sans-serif" font-size="14" lengthAdjust="spacing" textLength="58" x="5" y="118.1426">Recruiter</text><ellipse cx="37" cy="52.1094" fill="#E2E2F0" rx="8" ry="8" style="stroke:#181818;stroke-width:0.5;"/><path d="M37,60.1094 L37,87.1094 M24,68.1094 L50,68.1094 M37,87.1094 L24,102.1094 M37,87.1094 L50,102.1094 " fill="none" style="stroke:#181818;stroke-width:0.5;"/><text fill="#000000" font-family="sans-serif" font-size="14" lengthAdjust="spacing" textLength="58" x="5" y="458.2676">Recruiter</text><ellipse cx="37" cy="469.8438" fill="#E2E2F0" rx="8" ry="8" style="stroke:#181818;stroke-width:0.5;"/><path d="M37,477.8438 L37,504.8438 M24,485.8438 L50,485.8438 M37,504.8438 L24,519.8438 M37,504.8438 L50,519.8438 " fill="none" style="stroke:#181818;stroke-width:0.5;"/><rect fill="#E2E2F0" height="31.6094" rx="2.5" ry="2.5" style="stroke:#181818;stroke-width:0.5;" width="179" x="79" y="88.6094"/><text fill="#000000" font-family="sans-serif" font-size="14" lengthAdjust="spacing" textLength="165" x="86" y="110.1426">UI : RegisterJobOpeningUI</text><rect fill="#E2E2F0" height="31.6094" rx="2.5" ry="2.5" style="stroke:#181818;stroke-width:0.5;" width="179" x="79" y="443.7344"/><text fill="#000000" font-family="sans-serif" font-size="14" lengthAdjust="spacing" textLength="165" x="86" y="465.2676">UI : RegisterJobOpeningUI</text><rect fill="#E2E2F0" height="31.6094" rx="2.5" ry="2.5" style="stroke:#181818;stroke-width:0.5;" width="279" x="268" y="88.6094"/><text fill="#000000" font-family="sans-serif" font-size="14" lengthAdjust="spacing" textLength="265" x="275" y="110.1426">Controller : RegisterJobOpeningController</text><rect fill="#E2E2F0" height="31.6094" rx="2.5" ry="2.5" style="stroke:#181818;stroke-width:0.5;" width="279" x="268" y="443.7344"/><text fill="#000000" font-family="sans-serif" font-size="14" lengthAdjust="spacing" textLength="265" x="275" y="465.2676">Controller : RegisterJobOpeningController</text><rect fill="#E2E2F0" height="31.6094" rx="2.5" ry="2.5" style="stroke:#181818;stroke-width:0.5;" width="137" x="557" y="88.6094"/><text fill="#000000" font-family="sans-serif" font-size="14" lengthAdjust="spacing" textLength="123" x="564" y="110.1426">JobOpeningService</text><rect fill="#E2E2F0" height="31.6094" rx="2.5" ry="2.5" style="stroke:#181818;stroke-width:0.5;" width="137" x="557" y="443.7344"/><text fill="#000000" font-family="sans-serif" font-size="14" lengthAdjust="spacing" textLength="123" x="564" y="465.2676">JobOpeningService</text><rect fill="#E2E2F0" height="31.6094" rx="2.5" ry="2.5" style="stroke:#181818;stroke-width:0.5;" width="90" x="1265.5" y="88.6094"/><text fill="#000000" font-family="sans-serif" font-size="14" lengthAdjust="spacing" textLength="76" x="1272.5" y="110.1426">JobOpening</text><rect fill="#E2E2F0" height="31.6094" rx="2.5" ry="2.5" style="stroke:#181818;stroke-width:0.5;" width="90" x="1265.5" y="443.7344"/><text fill="#000000" font-family="sans-serif" font-size="14" lengthAdjust="spacing" textLength="76" x="1272.5" y="465.2676">JobOpening</text><rect fill="#E2E2F0" height="31.6094" rx="2.5" ry="2.5" style="stroke:#181818;stroke-width:0.5;" width="158" x="1365.5" y="88.6094"/><text fill="#000000" font-family="sans-serif" font-size="14" lengthAdjust="spacing" textLength="144" x="1372.5" y="110.1426">JobOpeningRepository</text><rect fill="#E2E2F0" height="31.6094" rx="2.5" ry="2.5" style="stroke:#181818;stroke-width:0.5;" width="158" x="1365.5" y="443.7344"/><text fill="#000000" font-family="sans-serif" font-size="14" lengthAdjust="spacing" textLength="144" x="1372.5" y="465.2676">JobOpeningRepository</text><rect fill="#FFFFFF" height="273.1641" style="stroke:#181818;stroke-width:1.0;" width="10" x="163.5" y="153.5703"/><rect fill="#FFFFFF" height="212.4609" style="stroke:#181818;stroke-width:1.0;" width="10" x="402.5" y="183.9219"/><rect fill="#FFFFFF" height="151.7578" style="stroke:#181818;stroke-width:1.0;" width="10" x="620.5" y="214.2734"/><rect fill="#FFFFFF" height="30.3516" style="stroke:#181818;stroke-width:1.0;" width="10" x="1305.5" y="244.625"/><rect fill="#FFFFFF" height="30.3516" style="stroke:#181818;stroke-width:1.0;" width="10" x="1439.5" y="305.3281"/><polygon fill="#181818" points="151.5,149.5703,161.5,153.5703,151.5,157.5703,155.5,153.5703" style="stroke:#181818;stroke-width:1.0;"/><line style="stroke:#181818;stroke-width:1.0;" x1="37" x2="157.5" y1="153.5703" y2="153.5703"/><text fill="#000000" font-family="sans-serif" font-size="13" lengthAdjust="spacing" textLength="38" x="44" y="148.7139">show()</text><polygon fill="#181818" points="390.5,179.9219,400.5,183.9219,390.5,187.9219,394.5,183.9219" style="stroke:#181818;stroke-width:1.0;"/><line style="stroke:#181818;stroke-width:1.0;" x1="173.5" x2="396.5" y1="183.9219" y2="183.9219"/><text fill="#000000" font-family="sans-serif" font-size="13" lengthAdjust="spacing" textLength="121" x="180.5" y="179.0654">getJobOpeningData()</text><polygon fill="#181818" points="608.5,210.2734,618.5,214.2734,608.5,218.2734,612.5,214.2734" style="stroke:#181818;stroke-width:1.0;"/><line style="stroke:#181818;stroke-width:1.0;" x1="412.5" x2="614.5" y1="214.2734" y2="214.2734"/><text fill="#000000" font-family="sans-serif" font-size="13" lengthAdjust="spacing" textLength="137" x="419.5" y="209.417">createJobOpening(data)</text><polygon fill="#181818" points="1293.5,240.625,1303.5,244.625,1293.5,248.625,1297.5,244.625" style="stroke:#181818;stroke-width:1.0;"/><line style="stroke:#181818;stroke-width:1.0;" x1="630.5" x2="1299.5" y1="244.625" y2="244.625"/><text fill="#000000" font-family="sans-serif" font-size="13" lengthAdjust="spacing" textLength="656" x="637.5" y="239.7686">new JobOpening(jobReference, jobTitle, jobState, contractType, mode, description, address, numberOfVacancies)</text><polygon fill="#181818" points="641.5,270.9766,631.5,274.9766,641.5,278.9766,637.5,274.9766" style="stroke:#181818;stroke-width:1.0;"/><line style="stroke:#181818;stroke-width:1.0;stroke-dasharray:2.0,2.0;" x1="635.5" x2="1309.5" y1="274.9766" y2="274.9766"/><text fill="#000000" font-family="sans-serif" font-size="13" lengthAdjust="spacing" textLength="65" x="647.5" y="270.1201">jobOpening</text><polygon fill="#181818" points="1427.5,301.3281,1437.5,305.3281,1427.5,309.3281,1431.5,305.3281" style="stroke:#181818;stroke-width:1.0;"/><line style="stroke:#181818;stroke-width:1.0;" x1="630.5" x2="1433.5" y1="305.3281" y2="305.3281"/><text fill="#000000" font-family="sans-serif" font-size="13" lengthAdjust="spacing" textLength="99" x="637.5" y="300.4717">save(jobOpening)</text><polygon fill="#181818" points="641.5,331.6797,631.5,335.6797,641.5,339.6797,637.5,335.6797" style="stroke:#181818;stroke-width:1.0;"/><line style="stroke:#181818;stroke-width:1.0;stroke-dasharray:2.0,2.0;" x1="635.5" x2="1443.5" y1="335.6797" y2="335.6797"/><text fill="#000000" font-family="sans-serif" font-size="13" lengthAdjust="spacing" textLength="65" x="647.5" y="330.8232">jobOpening</text><polygon fill="#181818" points="423.5,362.0313,413.5,366.0313,423.5,370.0313,419.5,366.0313" style="stroke:#181818;stroke-width:1.0;"/><line style="stroke:#181818;stroke-width:1.0;stroke-dasharray:2.0,2.0;" x1="417.5" x2="624.5" y1="366.0313" y2="366.0313"/><text fill="#000000" font-family="sans-serif" font-size="13" lengthAdjust="spacing" textLength="65" x="429.5" y="361.1748">jobOpening</text><polygon fill="#181818" points="184.5,392.3828,174.5,396.3828,184.5,400.3828,180.5,396.3828" style="stroke:#181818;stroke-width:1.0;"/><line style="stroke:#181818;stroke-width:1.0;stroke-dasharray:2.0,2.0;" x1="178.5" x2="406.5" y1="396.3828" y2="396.3828"/><text fill="#000000" font-family="sans-serif" font-size="13" lengthAdjust="spacing" textLength="165" x="190.5" y="391.5264">displaySuccess(jobOpening)</text><polygon fill="#181818" points="48,422.7344,38,426.7344,48,430.7344,44,426.7344" style="stroke:#181818;stroke-width:1.0;"/><line style="stroke:#181818;stroke-width:1.0;" x1="42" x2="167.5" y1="426.7344" y2="426.7344"/><text fill="#000000" font-family="sans-serif" font-size="13" lengthAdjust="spacing" textLength="75" x="54" y="421.8779">showResult()</text><!--SRC=[ZLB1Ri8m3BtdAonEJ2e_m66NSM4N90gxXyImJ2M9aXJ4tyzfQUCoa7P1f7xlsSz-oQG6eLx10hPuCZ5XW4ztW8r7Q-n92AcI2rHJeJLK55w6P9JnqYQOxTUm77b4kxFswnd82Flr5FtXR0gkQQZ5CrOfTsmrFgSgXL1Zk1Y57Vh77UxFL-W1DZXx0TkYTz6Gvzj0o5-463S0YtVeVCTlTvs_vGMPYqoOxGegK5bneoTCHNqba-GSPb8m5caKGwIX0XAwoCmrwJ0PvbumOYzpvv2CnIimaSxR4GDQXLL6xd8Okdzr8jcg7u-wx6wUNcUdwLTZLC7uP9ojG6eTCCOAR7i-ODWSlwIILXcCq-c6fRDn5eyc6KpZC_9VQ_aq-HBoWlC2dBRkpZTW_z-qlphl-7ZObzJn5FoYGsgqYRwHjxfLYXOtcPgfy5pqcIhvwvEtnTWsYRB4QHJ1Nm00]--></g></svg>