<?xml version="1.0" encoding="us-ascii" standalone="no"?><svg xmlns="http://www.w3.org/2000/svg" xmlns:xlink="http://www.w3.org/1999/xlink" contentStyleType="text/css" height="685px" preserveAspectRatio="none" style="width:1478px;height:685px;background:#FFFFFF;" version="1.1" viewBox="0 0 1478 685" width="1478px" zoomAndPan="magnify"><defs/><g><rect fill="#FFFFFF" height="501.625" style="stroke:#181818;stroke-width:1.0;" width="10" x="55" y="92.6094"/><rect fill="#FFFFFF" height="470.2734" style="stroke:#181818;stroke-width:1.0;" width="10" x="194.5" y="114.9609"/><rect fill="#FFFFFF" height="409.5703" style="stroke:#181818;stroke-width:1.0;" width="10" x="567.5" y="145.3125"/><rect fill="#FFFFFF" height="30.3516" style="stroke:#181818;stroke-width:1.0;" width="10" x="858.5" y="231.3672"/><rect fill="#FFFFFF" height="30.3516" style="stroke:#181818;stroke-width:1.0;" width="10" x="1160.5" y="372.7734"/><rect fill="#FFFFFF" height="30.3516" style="stroke:#181818;stroke-width:1.0;" width="10" x="1160.5" y="494.1797"/><rect fill="#FFFFFF" height="30.3516" style="stroke:#181818;stroke-width:1.0;" width="10" x="1369" y="433.4766"/><rect fill="none" height="109.4063" style="stroke:#000000;stroke-width:1.5;" width="897" x="115" y="160.3125"/><line style="stroke:#181818;stroke-width:0.5;stroke-dasharray:5.0,5.0;" x1="60" x2="60" y1="82.6094" y2="603.2344"/><line style="stroke:#181818;stroke-width:0.5;stroke-dasharray:5.0,5.0;" x1="199" x2="199" y1="82.6094" y2="603.2344"/><line style="stroke:#181818;stroke-width:0.5;stroke-dasharray:5.0,5.0;" x1="572" x2="572" y1="82.6094" y2="603.2344"/><line style="stroke:#181818;stroke-width:0.5;stroke-dasharray:5.0,5.0;" x1="863" x2="863" y1="82.6094" y2="603.2344"/><line style="stroke:#181818;stroke-width:0.5;stroke-dasharray:5.0,5.0;" x1="1165" x2="1165" y1="82.6094" y2="603.2344"/><line style="stroke:#181818;stroke-width:0.5;stroke-dasharray:5.0,5.0;" x1="1374" x2="1374" y1="82.6094" y2="603.2344"/><line style="stroke:#181818;stroke-width:0.5;stroke-dasharray:5.0,5.0;" x1="1450" x2="1450" y1="82.6094" y2="603.2344"/><text fill="#000000" font-family="sans-serif" font-size="14" lengthAdjust="spacing" textLength="104" x="5" y="79.5332">CustomManager</text><ellipse cx="60" cy="13.5" fill="#E3E3E3" rx="8" ry="8" style="stroke:#181818;stroke-width:0.5;"/><path d="M60,21.5 L60,48.5 M47,29.5 L73,29.5 M60,48.5 L47,63.5 M60,48.5 L73,63.5 " fill="none" style="stroke:#181818;stroke-width:0.5;"/><text fill="#000000" font-family="sans-serif" font-size="14" lengthAdjust="spacing" textLength="104" x="5" y="616.7676">CustomManager</text><ellipse cx="60" cy="628.3438" fill="#E3E3E3" rx="8" ry="8" style="stroke:#181818;stroke-width:0.5;"/><path d="M60,636.3438 L60,663.3438 M47,644.3438 L73,644.3438 M60,663.3438 L47,678.3438 M60,663.3438 L73,678.3438 " fill="none" style="stroke:#181818;stroke-width:0.5;"/><rect fill="#E3E3E3" height="31.6094" rx="2.5" ry="2.5" style="stroke:#181818;stroke-width:0.5;" width="149" x="125" y="50"/><text fill="#000000" font-family="sans-serif" font-size="14" lengthAdjust="spacing" textLength="135" x="132" y="71.5332">:CreateJobOpeningUI</text><rect fill="#E3E3E3" height="31.6094" rx="2.5" ry="2.5" style="stroke:#181818;stroke-width:0.5;" width="149" x="125" y="602.2344"/><text fill="#000000" font-family="sans-serif" font-size="14" lengthAdjust="spacing" textLength="135" x="132" y="623.7676">:CreateJobOpeningUI</text><rect fill="#E3E3E3" height="31.6094" rx="2.5" ry="2.5" style="stroke:#181818;stroke-width:0.5;" width="285" x="430" y="50"/><text fill="#000000" font-family="sans-serif" font-size="14" lengthAdjust="spacing" textLength="271" x="437" y="71.5332">theController: CreateJobOpeningController</text><rect fill="#E3E3E3" height="31.6094" rx="2.5" ry="2.5" style="stroke:#181818;stroke-width:0.5;" width="285" x="430" y="602.2344"/><text fill="#000000" font-family="sans-serif" font-size="14" lengthAdjust="spacing" textLength="271" x="437" y="623.7676">theController: CreateJobOpeningController</text><rect fill="#E3E3E3" height="31.6094" rx="2.5" ry="2.5" style="stroke:#181818;stroke-width:0.5;" width="277" x="725" y="50"/><text fill="#000000" font-family="sans-serif" font-size="14" lengthAdjust="spacing" textLength="263" x="732" y="71.5332">customerRepository: CustomerRepository</text><rect fill="#E3E3E3" height="31.6094" rx="2.5" ry="2.5" style="stroke:#181818;stroke-width:0.5;" width="277" x="725" y="602.2344"/><text fill="#000000" font-family="sans-serif" font-size="14" lengthAdjust="spacing" textLength="263" x="732" y="623.7676">customerRepository: CustomerRepository</text><rect fill="#E3E3E3" height="31.6094" rx="2.5" ry="2.5" style="stroke:#181818;stroke-width:0.5;" width="307" x="1012" y="50"/><text fill="#000000" font-family="sans-serif" font-size="14" lengthAdjust="spacing" textLength="293" x="1019" y="71.5332">jobOpeningRepository: JobOpeningRepository</text><rect fill="#E3E3E3" height="31.6094" rx="2.5" ry="2.5" style="stroke:#181818;stroke-width:0.5;" width="307" x="1012" y="602.2344"/><text fill="#000000" font-family="sans-serif" font-size="14" lengthAdjust="spacing" textLength="293" x="1019" y="623.7676">jobOpeningRepository: JobOpeningRepository</text><rect fill="#E3E3E3" height="31.6094" rx="2.5" ry="2.5" style="stroke:#181818;stroke-width:0.5;" width="90" x="1329" y="50"/><text fill="#000000" font-family="sans-serif" font-size="14" lengthAdjust="spacing" textLength="76" x="1336" y="71.5332">JobOpening</text><rect fill="#E3E3E3" height="31.6094" rx="2.5" ry="2.5" style="stroke:#181818;stroke-width:0.5;" width="90" x="1329" y="602.2344"/><text fill="#000000" font-family="sans-serif" font-size="14" lengthAdjust="spacing" textLength="76" x="1336" y="623.7676">JobOpening</text><rect fill="#E3E3E3" height="31.6094" rx="2.5" ry="2.5" style="stroke:#181818;stroke-width:0.5;" width="43" x="1429" y="50"/><text fill="#000000" font-family="sans-serif" font-size="14" lengthAdjust="spacing" textLength="29" x="1436" y="71.5332">User</text><rect fill="#E3E3E3" height="31.6094" rx="2.5" ry="2.5" style="stroke:#181818;stroke-width:0.5;" width="43" x="1429" y="602.2344"/><text fill="#000000" font-family="sans-serif" font-size="14" lengthAdjust="spacing" textLength="29" x="1436" y="623.7676">User</text><rect fill="#FFFFFF" height="501.625" style="stroke:#181818;stroke-width:1.0;" width="10" x="55" y="92.6094"/><rect fill="#FFFFFF" height="470.2734" style="stroke:#181818;stroke-width:1.0;" width="10" x="194.5" y="114.9609"/><rect fill="#FFFFFF" height="409.5703" style="stroke:#181818;stroke-width:1.0;" width="10" x="567.5" y="145.3125"/><rect fill="#FFFFFF" height="30.3516" style="stroke:#181818;stroke-width:1.0;" width="10" x="858.5" y="231.3672"/><rect fill="#FFFFFF" height="30.3516" style="stroke:#181818;stroke-width:1.0;" width="10" x="1160.5" y="372.7734"/><rect fill="#FFFFFF" height="30.3516" style="stroke:#181818;stroke-width:1.0;" width="10" x="1160.5" y="494.1797"/><rect fill="#FFFFFF" height="30.3516" style="stroke:#181818;stroke-width:1.0;" width="10" x="1369" y="433.4766"/><polygon fill="#181818" points="182.5,110.9609,192.5,114.9609,182.5,118.9609,186.5,114.9609" style="stroke:#181818;stroke-width:1.0;"/><line style="stroke:#181818;stroke-width:1.0;" x1="65" x2="188.5" y1="114.9609" y2="114.9609"/><text fill="#000000" font-family="sans-serif" font-size="13" lengthAdjust="spacing" textLength="54" x="72" y="110.1045">doShow()</text><polygon fill="#181818" points="555.5,141.3125,565.5,145.3125,555.5,149.3125,559.5,145.3125" style="stroke:#181818;stroke-width:1.0;"/><line style="stroke:#181818;stroke-width:1.0;" x1="204.5" x2="561.5" y1="145.3125" y2="145.3125"/><text fill="#000000" font-family="sans-serif" font-size="13" lengthAdjust="spacing" textLength="344" x="211.5" y="140.4561">createJobOpening(customerCode, jobTitle, contractType...);</text><path d="M115,160.3125 L188,160.3125 L188,168.6641 L178,178.6641 L115,178.6641 L115,160.3125 " fill="#EEEEEE" style="stroke:#000000;stroke-width:1.5;"/><rect fill="none" height="109.4063" style="stroke:#000000;stroke-width:1.5;" width="897" x="115" y="160.3125"/><text fill="#000000" font-family="sans-serif" font-size="13" font-weight="bold" lengthAdjust="spacing" textLength="28" x="130" y="174.8076">loop</text><text fill="#000000" font-family="sans-serif" font-size="11" font-weight="bold" lengthAdjust="spacing" textLength="147" x="203" y="173.7314">[until valid customer code]</text><polygon fill="#181818" points="555.5,197.0156,565.5,201.0156,555.5,205.0156,559.5,201.0156" style="stroke:#181818;stroke-width:1.0;"/><line style="stroke:#181818;stroke-width:1.0;" x1="204.5" x2="561.5" y1="201.0156" y2="201.0156"/><text fill="#000000" font-family="sans-serif" font-size="13" lengthAdjust="spacing" textLength="115" x="211.5" y="196.1592">read customer code</text><polygon fill="#181818" points="846.5,227.3672,856.5,231.3672,846.5,235.3672,850.5,231.3672" style="stroke:#181818;stroke-width:1.0;"/><line style="stroke:#181818;stroke-width:1.0;" x1="577.5" x2="852.5" y1="231.3672" y2="231.3672"/><text fill="#000000" font-family="sans-serif" font-size="13" lengthAdjust="spacing" textLength="220" x="584.5" y="226.5107">verifyIfCustomerExists(customerCode)</text><polygon fill="#181818" points="588.5,257.7188,578.5,261.7188,588.5,265.7188,584.5,261.7188" style="stroke:#181818;stroke-width:1.0;"/><line style="stroke:#181818;stroke-width:1.0;stroke-dasharray:2.0,2.0;" x1="582.5" x2="862.5" y1="261.7188" y2="261.7188"/><text fill="#000000" font-family="sans-serif" font-size="13" lengthAdjust="spacing" textLength="82" x="594.5" y="256.8623">return boolean</text><polygon fill="#181818" points="555.5,295.0703,565.5,299.0703,555.5,303.0703,559.5,299.0703" style="stroke:#181818;stroke-width:1.0;"/><line style="stroke:#181818;stroke-width:1.0;" x1="204.5" x2="561.5" y1="299.0703" y2="299.0703"/><text fill="#000000" font-family="sans-serif" font-size="13" lengthAdjust="spacing" textLength="148" x="211.5" y="294.2139">gather job opening details</text><line style="stroke:#181818;stroke-width:1.0;" x1="577.5" x2="619.5" y1="329.4219" y2="329.4219"/><line style="stroke:#181818;stroke-width:1.0;" x1="619.5" x2="619.5" y1="329.4219" y2="342.4219"/><line style="stroke:#181818;stroke-width:1.0;" x1="578.5" x2="619.5" y1="342.4219" y2="342.4219"/><polygon fill="#181818" points="588.5,338.4219,578.5,342.4219,588.5,346.4219,584.5,342.4219" style="stroke:#181818;stroke-width:1.0;"/><text fill="#000000" font-family="sans-serif" font-size="13" lengthAdjust="spacing" textLength="82" x="584.5" y="324.5654">validate inputs</text><polygon fill="#181818" points="1148.5,368.7734,1158.5,372.7734,1148.5,376.7734,1152.5,372.7734" style="stroke:#181818;stroke-width:1.0;"/><line style="stroke:#181818;stroke-width:1.0;" x1="577.5" x2="1154.5" y1="372.7734" y2="372.7734"/><text fill="#000000" font-family="sans-serif" font-size="13" lengthAdjust="spacing" textLength="182" x="584.5" y="367.917">nextJobNumber(customerCode)</text><polygon fill="#181818" points="588.5,399.125,578.5,403.125,588.5,407.125,584.5,403.125" style="stroke:#181818;stroke-width:1.0;"/><line style="stroke:#181818;stroke-width:1.0;stroke-dasharray:2.0,2.0;" x1="582.5" x2="1164.5" y1="403.125" y2="403.125"/><text fill="#000000" font-family="sans-serif" font-size="13" lengthAdjust="spacing" textLength="64" x="594.5" y="398.2686">job number</text><polygon fill="#181818" points="1357,429.4766,1367,433.4766,1357,437.4766,1361,433.4766" style="stroke:#181818;stroke-width:1.0;"/><line style="stroke:#181818;stroke-width:1.0;" x1="577.5" x2="1363" y1="433.4766" y2="433.4766"/><text fill="#000000" font-family="sans-serif" font-size="13" lengthAdjust="spacing" textLength="168" x="584.5" y="428.6201">new JobOpening(parameters)</text><polygon fill="#181818" points="588.5,459.8281,578.5,463.8281,588.5,467.8281,584.5,463.8281" style="stroke:#181818;stroke-width:1.0;"/><line style="stroke:#181818;stroke-width:1.0;stroke-dasharray:2.0,2.0;" x1="582.5" x2="1373" y1="463.8281" y2="463.8281"/><text fill="#000000" font-family="sans-serif" font-size="13" lengthAdjust="spacing" textLength="119" x="594.5" y="458.9717">job opening instance</text><polygon fill="#181818" points="1148.5,490.1797,1158.5,494.1797,1148.5,498.1797,1152.5,494.1797" style="stroke:#181818;stroke-width:1.0;"/><line style="stroke:#181818;stroke-width:1.0;" x1="577.5" x2="1154.5" y1="494.1797" y2="494.1797"/><text fill="#000000" font-family="sans-serif" font-size="13" lengthAdjust="spacing" textLength="102" x="584.5" y="489.3232">save(JobOpening)</text><polygon fill="#181818" points="588.5,520.5313,578.5,524.5313,588.5,528.5313,584.5,524.5313" style="stroke:#181818;stroke-width:1.0;"/><line style="stroke:#181818;stroke-width:1.0;stroke-dasharray:2.0,2.0;" x1="582.5" x2="1164.5" y1="524.5313" y2="524.5313"/><text fill="#000000" font-family="sans-serif" font-size="13" lengthAdjust="spacing" textLength="70" x="594.5" y="519.6748">confirmation</text><polygon fill="#181818" points="215.5,550.8828,205.5,554.8828,215.5,558.8828,211.5,554.8828" style="stroke:#181818;stroke-width:1.0;"/><line style="stroke:#181818;stroke-width:1.0;stroke-dasharray:2.0,2.0;" x1="209.5" x2="571.5" y1="554.8828" y2="554.8828"/><text fill="#000000" font-family="sans-serif" font-size="13" lengthAdjust="spacing" textLength="77" x="221.5" y="550.0264">display result</text><polygon fill="#181818" points="1438.5,581.2344,1448.5,585.2344,1438.5,589.2344,1442.5,585.2344" style="stroke:#181818;stroke-width:1.0;"/><line style="stroke:#181818;stroke-width:1.0;stroke-dasharray:2.0,2.0;" x1="199.5" x2="1444.5" y1="585.2344" y2="585.2344"/><text fill="#000000" font-family="sans-serif" font-size="13" lengthAdjust="spacing" textLength="77" x="206.5" y="580.3779">display result</text><!--SRC=[jPJ1Rjim38RlUWeXfmHOym0fi4kmGmfi0zhc0HYPITJAaY7HIVtsezKbbcqr2JBC9viKFv8_BOPtRIlmKChIMQVstfKeoTSemjbJWNg77RvGOr1wL0HsPz83OG-5Esgxarim0OK0HSxBoR8EvCgVO3dQJoG4sRC8ZYQjT0MMv6Inz0Y4JsxpkqBBiFNgCsHaxiVH7fVEadV6e5-CZdU-BArpzwag5eh-6IiND7VJBFuMdzgIdb9p7_LsJfR2dZBMYCiv-i3kn20W2gyFtE10wDwNVFYU4LKkPE5UzkuudIMKiVOY4ve1TheoM0sSqvEwIrVWDya2lMeo_ARQACx-sbGudyzdZr-NaWnE6ESgMLlIHXx0w4AU-0miK4X-xgYQVRUGafYMEFePc7H0hxVDQdjo_lZGWK9FXLba3yRN-wTYxZ7zuNeRL7ihDyuP11in1LvAXBQuQyexuAlessbAz-dcH0JQ1755iqlKED2sKbusDGLnXPMxFKon-47i-bMN6_G3uSzQP6zU5dXLz5O46vE9HEniWfiRYcqS4yCqRbyaz27RHLBxRHMVngPju1slC5_xdIC8SC1fv_i_klC2sMfV0cbd_qtvBvUa3fM1XgzLg0sbEIvjgDnruWph4Ak-dRbU_G40]--></g></svg>