<?xml version="1.0" encoding="us-ascii" standalone="no"?><svg xmlns="http://www.w3.org/2000/svg" xmlns:xlink="http://www.w3.org/1999/xlink" contentStyleType="text/css" height="666px" preserveAspectRatio="none" style="width:1529px;height:666px;background:#FFFFFF;" version="1.1" viewBox="0 0 1529 666" width="1529px" zoomAndPan="magnify"><defs/><g><rect fill="#FFFFFF" height="484.9688" style="stroke:#181818;stroke-width:1.0;" width="10" x="59.5" y="91.4883"/><rect fill="#FFFFFF" height="454.6582" style="stroke:#181818;stroke-width:1.0;" width="10" x="208" y="112.7988"/><rect fill="#FFFFFF" height="396.0371" style="stroke:#181818;stroke-width:1.0;" width="10" x="609" y="142.1094"/><rect fill="#FFFFFF" height="29.3105" style="stroke:#181818;stroke-width:1.0;" width="10" x="923.5" y="225.041"/><rect fill="#FFFFFF" height="29.3105" style="stroke:#181818;stroke-width:1.0;" width="10" x="1248" y="362.2832"/><rect fill="#FFFFFF" height="29.3105" style="stroke:#181818;stroke-width:1.0;" width="10" x="1248" y="479.5254"/><rect fill="#FFFFFF" height="29.3105" style="stroke:#181818;stroke-width:1.0;" width="10" x="1470.5" y="420.9043"/><rect fill="none" height="105.2422" style="stroke:#000000;stroke-width:1.5;" width="964" x="124" y="157.1094"/><line style="stroke:#181818;stroke-width:0.5;stroke-dasharray:5.0,5.0;" x1="64" x2="64" y1="81.4883" y2="585.457"/><line style="stroke:#181818;stroke-width:0.5;stroke-dasharray:5.0,5.0;" x1="213" x2="213" y1="81.4883" y2="585.457"/><line style="stroke:#181818;stroke-width:0.5;stroke-dasharray:5.0,5.0;" x1="614" x2="614" y1="81.4883" y2="585.457"/><line style="stroke:#181818;stroke-width:0.5;stroke-dasharray:5.0,5.0;" x1="928" x2="928" y1="81.4883" y2="585.457"/><line style="stroke:#181818;stroke-width:0.5;stroke-dasharray:5.0,5.0;" x1="1253" x2="1253" y1="81.4883" y2="585.457"/><line style="stroke:#181818;stroke-width:0.5;stroke-dasharray:5.0,5.0;" x1="1475" x2="1475" y1="81.4883" y2="585.457"/><text fill="#000000" font-family="sans-serif" font-size="14" lengthAdjust="spacing" textLength="113" x="5" y="78.5352">CustomManager</text><ellipse cx="64.5" cy="13.5" fill="#E3E3E3" rx="8" ry="8" style="stroke:#181818;stroke-width:0.5;"/><path d="M64.5,21.5 L64.5,48.5 M51.5,29.5 L77.5,29.5 M64.5,48.5 L51.5,63.5 M64.5,48.5 L77.5,63.5 " fill="none" style="stroke:#181818;stroke-width:0.5;"/><text fill="#000000" font-family="sans-serif" font-size="14" lengthAdjust="spacing" textLength="113" x="5" y="597.9922">CustomManager</text><ellipse cx="64.5" cy="609.4453" fill="#E3E3E3" rx="8" ry="8" style="stroke:#181818;stroke-width:0.5;"/><path d="M64.5,617.4453 L64.5,644.4453 M51.5,625.4453 L77.5,625.4453 M64.5,644.4453 L51.5,659.4453 M64.5,644.4453 L77.5,659.4453 " fill="none" style="stroke:#181818;stroke-width:0.5;"/><rect fill="#E3E3E3" height="30.4883" rx="2.5" ry="2.5" style="stroke:#181818;stroke-width:0.5;" width="158" x="134" y="50"/><text fill="#000000" font-family="sans-serif" font-size="14" lengthAdjust="spacing" textLength="144" x="141" y="70.5352">:CreateJobOpeningUI</text><rect fill="#E3E3E3" height="30.4883" rx="2.5" ry="2.5" style="stroke:#181818;stroke-width:0.5;" width="158" x="134" y="584.457"/><text fill="#000000" font-family="sans-serif" font-size="14" lengthAdjust="spacing" textLength="144" x="141" y="604.9922">:CreateJobOpeningUI</text><rect fill="#E3E3E3" height="30.4883" rx="2.5" ry="2.5" style="stroke:#181818;stroke-width:0.5;" width="310" x="459" y="50"/><text fill="#000000" font-family="sans-serif" font-size="14" lengthAdjust="spacing" textLength="296" x="466" y="70.5352">theController: CreateJobOpeningController</text><rect fill="#E3E3E3" height="30.4883" rx="2.5" ry="2.5" style="stroke:#181818;stroke-width:0.5;" width="310" x="459" y="584.457"/><text fill="#000000" font-family="sans-serif" font-size="14" lengthAdjust="spacing" textLength="296" x="466" y="604.9922">theController: CreateJobOpeningController</text><rect fill="#E3E3E3" height="30.4883" rx="2.5" ry="2.5" style="stroke:#181818;stroke-width:0.5;" width="299" x="779" y="50"/><text fill="#000000" font-family="sans-serif" font-size="14" lengthAdjust="spacing" textLength="285" x="786" y="70.5352">customerRepository: CustomerRepository</text><rect fill="#E3E3E3" height="30.4883" rx="2.5" ry="2.5" style="stroke:#181818;stroke-width:0.5;" width="299" x="779" y="584.457"/><text fill="#000000" font-family="sans-serif" font-size="14" lengthAdjust="spacing" textLength="285" x="786" y="604.9922">customerRepository: CustomerRepository</text><rect fill="#E3E3E3" height="30.4883" rx="2.5" ry="2.5" style="stroke:#181818;stroke-width:0.5;" width="330" x="1088" y="50"/><text fill="#000000" font-family="sans-serif" font-size="14" lengthAdjust="spacing" textLength="316" x="1095" y="70.5352">jobOpeningRepository: JobOpeningRepository</text><rect fill="#E3E3E3" height="30.4883" rx="2.5" ry="2.5" style="stroke:#181818;stroke-width:0.5;" width="330" x="1088" y="584.457"/><text fill="#000000" font-family="sans-serif" font-size="14" lengthAdjust="spacing" textLength="316" x="1095" y="604.9922">jobOpeningRepository: JobOpeningRepository</text><rect fill="#E3E3E3" height="30.4883" rx="2.5" ry="2.5" style="stroke:#181818;stroke-width:0.5;" width="95" x="1428" y="50"/><text fill="#000000" font-family="sans-serif" font-size="14" lengthAdjust="spacing" textLength="81" x="1435" y="70.5352">JobOpening</text><rect fill="#E3E3E3" height="30.4883" rx="2.5" ry="2.5" style="stroke:#181818;stroke-width:0.5;" width="95" x="1428" y="584.457"/><text fill="#000000" font-family="sans-serif" font-size="14" lengthAdjust="spacing" textLength="81" x="1435" y="604.9922">JobOpening</text><rect fill="#FFFFFF" height="484.9688" style="stroke:#181818;stroke-width:1.0;" width="10" x="59.5" y="91.4883"/><rect fill="#FFFFFF" height="454.6582" style="stroke:#181818;stroke-width:1.0;" width="10" x="208" y="112.7988"/><rect fill="#FFFFFF" height="396.0371" style="stroke:#181818;stroke-width:1.0;" width="10" x="609" y="142.1094"/><rect fill="#FFFFFF" height="29.3105" style="stroke:#181818;stroke-width:1.0;" width="10" x="923.5" y="225.041"/><rect fill="#FFFFFF" height="29.3105" style="stroke:#181818;stroke-width:1.0;" width="10" x="1248" y="362.2832"/><rect fill="#FFFFFF" height="29.3105" style="stroke:#181818;stroke-width:1.0;" width="10" x="1248" y="479.5254"/><rect fill="#FFFFFF" height="29.3105" style="stroke:#181818;stroke-width:1.0;" width="10" x="1470.5" y="420.9043"/><polygon fill="#181818" points="196,108.7988,206,112.7988,196,116.7988,200,112.7988" style="stroke:#181818;stroke-width:1.0;"/><line style="stroke:#181818;stroke-width:1.0;" x1="69.5" x2="202" y1="112.7988" y2="112.7988"/><text fill="#000000" font-family="sans-serif" font-size="13" lengthAdjust="spacing" textLength="57" x="76.5" y="108.0566">doShow()</text><polygon fill="#181818" points="597,138.1094,607,142.1094,597,146.1094,601,142.1094" style="stroke:#181818;stroke-width:1.0;"/><line style="stroke:#181818;stroke-width:1.0;" x1="218" x2="603" y1="142.1094" y2="142.1094"/><text fill="#000000" font-family="sans-serif" font-size="13" lengthAdjust="spacing" textLength="372" x="225" y="137.3672">createJobOpening(customerCode, jobTitle, contractType...);</text><path d="M124,157.1094 L198,157.1094 L198,164.4199 L188,174.4199 L124,174.4199 L124,157.1094 " fill="#EEEEEE" style="stroke:#000000;stroke-width:1.5;"/><rect fill="none" height="105.2422" style="stroke:#000000;stroke-width:1.5;" width="964" x="124" y="157.1094"/><text fill="#000000" font-family="sans-serif" font-size="13" font-weight="bold" lengthAdjust="spacing" textLength="29" x="139" y="170.6777">loop</text><text fill="#000000" font-family="sans-serif" font-size="11" font-weight="bold" lengthAdjust="spacing" textLength="152" x="213" y="169.7441">[until valid customer code]</text><polygon fill="#181818" points="597,191.7305,607,195.7305,597,199.7305,601,195.7305" style="stroke:#181818;stroke-width:1.0;"/><line style="stroke:#181818;stroke-width:1.0;" x1="218" x2="603" y1="195.7305" y2="195.7305"/><text fill="#000000" font-family="sans-serif" font-size="13" lengthAdjust="spacing" textLength="124" x="225" y="190.9883">read customer code</text><polygon fill="#181818" points="911.5,221.041,921.5,225.041,911.5,229.041,915.5,225.041" style="stroke:#181818;stroke-width:1.0;"/><line style="stroke:#181818;stroke-width:1.0;" x1="619" x2="917.5" y1="225.041" y2="225.041"/><text fill="#000000" font-family="sans-serif" font-size="13" lengthAdjust="spacing" textLength="242" x="626" y="220.2988">verifyIfCustomerExists(customerCode)</text><polygon fill="#181818" points="630,250.3516,620,254.3516,630,258.3516,626,254.3516" style="stroke:#181818;stroke-width:1.0;"/><line style="stroke:#181818;stroke-width:1.0;stroke-dasharray:2.0,2.0;" x1="624" x2="927.5" y1="254.3516" y2="254.3516"/><text fill="#000000" font-family="sans-serif" font-size="13" lengthAdjust="spacing" textLength="92" x="636" y="249.6094">return boolean</text><polygon fill="#181818" points="597,286.6621,607,290.6621,597,294.6621,601,290.6621" style="stroke:#181818;stroke-width:1.0;"/><line style="stroke:#181818;stroke-width:1.0;" x1="218" x2="603" y1="290.6621" y2="290.6621"/><text fill="#000000" font-family="sans-serif" font-size="13" lengthAdjust="spacing" textLength="165" x="225" y="285.9199">gather job opening details</text><line style="stroke:#181818;stroke-width:1.0;" x1="619" x2="661" y1="319.9727" y2="319.9727"/><line style="stroke:#181818;stroke-width:1.0;" x1="661" x2="661" y1="319.9727" y2="332.9727"/><line style="stroke:#181818;stroke-width:1.0;" x1="620" x2="661" y1="332.9727" y2="332.9727"/><polygon fill="#181818" points="630,328.9727,620,332.9727,630,336.9727,626,332.9727" style="stroke:#181818;stroke-width:1.0;"/><text fill="#000000" font-family="sans-serif" font-size="13" lengthAdjust="spacing" textLength="93" x="626" y="315.2305">validate inputs</text><polygon fill="#181818" points="1236,358.2832,1246,362.2832,1236,366.2832,1240,362.2832" style="stroke:#181818;stroke-width:1.0;"/><line style="stroke:#181818;stroke-width:1.0;" x1="619" x2="1242" y1="362.2832" y2="362.2832"/><text fill="#000000" font-family="sans-serif" font-size="13" lengthAdjust="spacing" textLength="197" x="626" y="357.541">nextJobNumber(customerCode)</text><polygon fill="#181818" points="630,387.5938,620,391.5938,630,395.5938,626,391.5938" style="stroke:#181818;stroke-width:1.0;"/><line style="stroke:#181818;stroke-width:1.0;stroke-dasharray:2.0,2.0;" x1="624" x2="1252" y1="391.5938" y2="391.5938"/><text fill="#000000" font-family="sans-serif" font-size="13" lengthAdjust="spacing" textLength="72" x="636" y="386.8516">job number</text><polygon fill="#181818" points="1458.5,416.9043,1468.5,420.9043,1458.5,424.9043,1462.5,420.9043" style="stroke:#181818;stroke-width:1.0;"/><line style="stroke:#181818;stroke-width:1.0;" x1="619" x2="1464.5" y1="420.9043" y2="420.9043"/><text fill="#000000" font-family="sans-serif" font-size="13" lengthAdjust="spacing" textLength="180" x="626" y="416.1621">new JobOpening(parameters)</text><polygon fill="#181818" points="630,446.2148,620,450.2148,630,454.2148,626,450.2148" style="stroke:#181818;stroke-width:1.0;"/><line style="stroke:#181818;stroke-width:1.0;stroke-dasharray:2.0,2.0;" x1="624" x2="1474.5" y1="450.2148" y2="450.2148"/><text fill="#000000" font-family="sans-serif" font-size="13" lengthAdjust="spacing" textLength="132" x="636" y="445.4727">job opening instance</text><polygon fill="#181818" points="1236,475.5254,1246,479.5254,1236,483.5254,1240,479.5254" style="stroke:#181818;stroke-width:1.0;"/><line style="stroke:#181818;stroke-width:1.0;" x1="619" x2="1242" y1="479.5254" y2="479.5254"/><text fill="#000000" font-family="sans-serif" font-size="13" lengthAdjust="spacing" textLength="109" x="626" y="474.7832">save(JobOpening)</text><polygon fill="#181818" points="630,504.8359,620,508.8359,630,512.8359,626,508.8359" style="stroke:#181818;stroke-width:1.0;"/><line style="stroke:#181818;stroke-width:1.0;stroke-dasharray:2.0,2.0;" x1="624" x2="1252" y1="508.8359" y2="508.8359"/><text fill="#000000" font-family="sans-serif" font-size="13" lengthAdjust="spacing" textLength="81" x="636" y="504.0938">confirmation</text><polygon fill="#181818" points="229,534.1465,219,538.1465,229,542.1465,225,538.1465" style="stroke:#181818;stroke-width:1.0;"/><line style="stroke:#181818;stroke-width:1.0;stroke-dasharray:2.0,2.0;" x1="223" x2="613" y1="538.1465" y2="538.1465"/><text fill="#000000" font-family="sans-serif" font-size="13" lengthAdjust="spacing" textLength="85" x="235" y="533.4043">display result</text><polygon fill="#181818" points="80.5,563.457,70.5,567.457,80.5,571.457,76.5,567.457" style="stroke:#181818;stroke-width:1.0;"/><line style="stroke:#181818;stroke-width:1.0;stroke-dasharray:2.0,2.0;" x1="74.5" x2="212" y1="567.457" y2="567.457"/><text fill="#000000" font-family="sans-serif" font-size="13" lengthAdjust="spacing" textLength="85" x="86.5" y="562.7148">display result</text><!--SRC=[jPJ1Rjim38RlUWeXfmHOym0Pi4kmGmfi0zRs0HIPIRJAeY7HIVtsezKvbcqroJBC9viKFv8_BOPNuohbLIbBTAWF7akGv6iGuUofb7vLUtYYneBqe4cvlKqFX8Cgy6JSNkwK3I24qeHUpjPr82o_ASVHVYPLa0EBu6WosbJAaPojrXuKmIDkVrJW6FQoUG-Pc8TnT80rEl9eBVZLv7Zloz9wzv2gOw7WVqA5mN0tpUfFyQajwIar3r6_pibIs6F66d4vnn3OdnW5HE7DaHiS2JtuaWzVCgBAbIpmwO2d-IAXJBKNcT0CiDULmNhad7Vghh60Jv85UZPa-KstKPpzkQbWkLmkFdzSIZ8uOH4hMJioLXwLDONi-0miG4X-xgYQVRUGafYMEFaPc7G4RtRDPjSvlxwPG66WmYAoH-CR_5CnzvJ-SBqDghsJMqGBoaLC0PSIWIlkcl9UyLNqxJGblhiv4IbZWxYYsILg76XRAI-RceAumihT7gOuU2DsVQ_BBVYHy6SjiZSl2xmgUYk2Yyb48dOsmSqDnJPEYM4UjoyG-93j8gdzjegxiHaNUCThoDT-vmY2EiAyz_qVtNc1x8ml5Hbq_wRyXqlIXCggXgzLg2sbEIvjgDnrEc-BRY__3Vnbyni0]--></g></svg>