<?xml version="1.0" encoding="us-ascii" standalone="no"?><svg xmlns="http://www.w3.org/2000/svg" xmlns:xlink="http://www.w3.org/1999/xlink" contentStyleType="text/css" height="328.73px" preserveAspectRatio="none" style="width:489px;height:328px;background:#FFFFFF;" version="1.1" viewBox="0 0 489 328" width="489.9px" zoomAndPan="magnify"><defs/><g><!--class UploadRequirementsController--><g id="elem_UploadRequirementsController"><rect codeLine="3" fill="#F1F1F1" height="86.9639" id="UploadRequirementsController" rx="1.775" ry="1.775" style="stroke:#181818;stroke-width:0.355;" width="265.54" x="183.535" y="134.19"/><ellipse cx="244.4175" cy="145.55" fill="#ADD1B2" rx="7.81" ry="7.81" style="stroke:#181818;stroke-width:0.71;"/><path d="M246.3811,142.6213 Q246.492,142.4659 246.6252,142.3883 Q246.7583,142.3106 246.9136,142.3106 Q247.1798,142.3106 247.3463,142.4992 Q247.5127,142.6767 247.5127,143.1094 L247.5127,144.1411 Q247.5127,144.5738 247.3463,144.7623 Q247.1798,144.9509 246.9136,144.9509 Q246.6695,144.9509 246.5253,144.8067 Q246.3811,144.6736 246.3034,144.3075 Q246.2702,144.0523 246.137,143.9192 Q245.9041,143.653 245.4714,143.4977 Q245.0388,143.3423 244.595,143.3423 Q244.0514,143.3423 243.5966,143.5753 Q243.1528,143.8083 242.7978,144.3408 Q242.4539,144.8733 242.4539,145.6055 L242.4539,146.382 Q242.4539,147.2584 243.0862,147.8464 Q243.7186,148.4233 244.8502,148.4233 Q245.5158,148.4233 245.9817,148.2458 Q246.2591,148.1348 246.5586,147.8242 Q246.7472,147.6356 246.847,147.5802 Q246.958,147.5247 247.1022,147.5247 Q247.3352,147.5247 247.5127,147.7133 Q247.7013,147.8908 247.7013,148.1348 Q247.7013,148.3789 247.4572,148.6673 Q247.1022,149.0778 246.5364,149.3108 Q245.7709,149.6325 244.8502,149.6325 Q243.7741,149.6325 242.9198,149.1888 Q242.2209,148.8337 241.7328,148.0794 Q241.2447,147.3139 241.2447,146.4042 L241.2447,145.5833 Q241.2447,144.6403 241.6773,143.8305 Q242.1211,143.0095 242.8977,142.5769 Q243.6742,142.1331 244.5506,142.1331 Q245.072,142.1331 245.5269,142.2552 Q245.9928,142.3661 246.3811,142.6213 Z " fill="#000000"/><text fill="#000000" font-family="sans-serif" font-size="9.94" lengthAdjust="spacing" textLength="137.74" x="258.9725" y="149.6658">UploadRequirementsController</text><line style="stroke:#181818;stroke-width:0.355;" x1="184.245" x2="448.365" y1="156.91" y2="156.91"/><line style="stroke:#181818;stroke-width:0.355;" x1="184.245" x2="448.365" y1="162.59" y2="162.59"/><ellipse cx="191.345" cy="173.1055" fill="#84BE84" rx="2.13" ry="2.13" style="stroke:#038048;stroke-width:0.71;"/><text fill="#000000" font-family="sans-serif" font-size="9.94" lengthAdjust="spacing" textLength="188.15" x="197.735" y="176.1563">getApplications(): Iterable&lt;jobApplication&gt;</text><ellipse cx="191.345" cy="186.3265" fill="#84BE84" rx="2.13" ry="2.13" style="stroke:#038048;stroke-width:0.71;"/><text fill="#000000" font-family="sans-serif" font-size="9.94" lengthAdjust="spacing" textLength="247.08" x="197.735" y="189.3772">uploadTextFile(application: jobApplication, path: String)</text><rect fill="#F24D5C" height="4.26" style="stroke:#C82930;stroke-width:0.71;" width="4.26" x="189.215" y="197.4174"/><text fill="#000000" font-family="sans-serif" font-size="9.94" lengthAdjust="spacing" textLength="198.09" x="197.735" y="202.5982">extractAfterSecondColon(line: String): String</text><rect fill="#F24D5C" height="4.26" style="stroke:#C82930;stroke-width:0.71;" width="4.26" x="189.215" y="210.6384"/><text fill="#000000" font-family="sans-serif" font-size="9.94" lengthAdjust="spacing" textLength="192.41" x="197.735" y="215.8192">readFileLines(filePath: String): List&lt;String&gt;</text></g><!--class UploadRequirementsUI--><g id="elem_UploadRequirementsUI"><rect codeLine="12" fill="#F1F1F1" height="86.9639" id="UploadRequirementsUI" rx="1.775" ry="1.775" style="stroke:#181818;stroke-width:0.355;" width="203.77" x="214.42" y="4.97"/><ellipse cx="262.1675" cy="16.33" fill="#ADD1B2" rx="7.81" ry="7.81" style="stroke:#181818;stroke-width:0.71;"/><path d="M264.1311,13.4013 Q264.242,13.2459 264.3752,13.1683 Q264.5083,13.0906 264.6636,13.0906 Q264.9298,13.0906 265.0963,13.2792 Q265.2627,13.4567 265.2627,13.8894 L265.2627,14.9211 Q265.2627,15.3538 265.0963,15.5423 Q264.9298,15.7309 264.6636,15.7309 Q264.4195,15.7309 264.2753,15.5867 Q264.1311,15.4536 264.0534,15.0875 Q264.0202,14.8323 263.887,14.6992 Q263.6541,14.433 263.2214,14.2777 Q262.7888,14.1223 262.345,14.1223 Q261.8014,14.1223 261.3466,14.3553 Q260.9028,14.5883 260.5478,15.1208 Q260.2039,15.6533 260.2039,16.3855 L260.2039,17.162 Q260.2039,18.0384 260.8363,18.6264 Q261.4686,19.2033 262.6002,19.2033 Q263.2658,19.2033 263.7317,19.0258 Q264.0091,18.9148 264.3086,18.6042 Q264.4972,18.4156 264.597,18.3602 Q264.708,18.3047 264.8522,18.3047 Q265.0852,18.3047 265.2627,18.4933 Q265.4512,18.6708 265.4512,18.9148 Q265.4512,19.1589 265.2072,19.4473 Q264.8522,19.8578 264.2864,20.0908 Q263.5209,20.4125 262.6002,20.4125 Q261.5241,20.4125 260.6698,19.9688 Q259.9709,19.6138 259.4828,18.8594 Q258.9947,18.0939 258.9947,17.1842 L258.9947,16.3633 Q258.9947,15.4203 259.4273,14.6105 Q259.8711,13.7895 260.6477,13.3569 Q261.4242,12.9131 262.3006,12.9131 Q262.822,12.9131 263.2769,13.0352 Q263.7428,13.1461 264.1311,13.4013 Z " fill="#000000"/><text fill="#000000" font-family="sans-serif" font-size="9.94" lengthAdjust="spacing" textLength="102.24" x="276.7225" y="20.4458">UploadRequirementsUI</text><line style="stroke:#181818;stroke-width:0.355;" x1="215.13" x2="417.48" y1="27.69" y2="27.69"/><rect fill="none" height="4.26" style="stroke:#C82930;stroke-width:0.71;" width="4.26" x="220.1" y="36.0755"/><text fill="#000000" font-family="sans-serif" font-size="9.94" lengthAdjust="spacing" textLength="185.31" x="228.62" y="41.2563">controller: UploadRequirementsController</text><line style="stroke:#181818;stroke-width:0.355;" x1="215.13" x2="417.48" y1="46.591" y2="46.591"/><ellipse cx="222.23" cy="57.1065" fill="#84BE84" rx="2.13" ry="2.13" style="stroke:#038048;stroke-width:0.71;"/><text fill="#000000" font-family="sans-serif" font-size="9.94" lengthAdjust="spacing" textLength="84.49" x="228.62" y="60.1572">doShow(): boolean</text><ellipse cx="222.23" cy="70.3274" fill="#84BE84" rx="2.13" ry="2.13" style="stroke:#038048;stroke-width:0.71;"/><text fill="#000000" font-family="sans-serif" font-size="9.94" lengthAdjust="spacing" textLength="77.39" x="228.62" y="73.3782">headline(): String</text><rect fill="#F24D5C" height="4.26" style="stroke:#C82930;stroke-width:0.71;" width="4.26" x="220.1" y="81.4184"/><text fill="#000000" font-family="sans-serif" font-size="9.94" lengthAdjust="spacing" textLength="83.78" x="228.62" y="86.5992">listHeader(): String</text></g><!--class ApplicationService--><g id="elem_ApplicationService"><rect codeLine="21" fill="#F1F1F1" height="60.522" id="ApplicationService" rx="1.775" ry="1.775" style="stroke:#181818;stroke-width:0.355;" width="369.91" x="4.97" y="263.41"/><ellipse cx="145.7275" cy="274.77" fill="#ADD1B2" rx="7.81" ry="7.81" style="stroke:#181818;stroke-width:0.71;"/><path d="M147.6911,271.8413 Q147.802,271.6859 147.9352,271.6083 Q148.0683,271.5306 148.2236,271.5306 Q148.4898,271.5306 148.6563,271.7192 Q148.8227,271.8967 148.8227,272.3294 L148.8227,273.3611 Q148.8227,273.7938 148.6563,273.9823 Q148.4898,274.1709 148.2236,274.1709 Q147.9795,274.1709 147.8353,274.0267 Q147.6911,273.8936 147.6134,273.5275 Q147.5802,273.2723 147.447,273.1392 Q147.2141,272.873 146.7814,272.7177 Q146.3488,272.5623 145.905,272.5623 Q145.3614,272.5623 144.9066,272.7953 Q144.4628,273.0283 144.1078,273.5608 Q143.7639,274.0933 143.7639,274.8255 L143.7639,275.602 Q143.7639,276.4784 144.3962,277.0664 Q145.0286,277.6433 146.1602,277.6433 Q146.8258,277.6433 147.2917,277.4658 Q147.5691,277.3548 147.8686,277.0442 Q148.0572,276.8556 148.157,276.8002 Q148.268,276.7447 148.4122,276.7447 Q148.6452,276.7447 148.8227,276.9333 Q149.0113,277.1108 149.0113,277.3548 Q149.0113,277.5989 148.7672,277.8873 Q148.4122,278.2978 147.8464,278.5308 Q147.0809,278.8525 146.1602,278.8525 Q145.0841,278.8525 144.2298,278.4088 Q143.5309,278.0538 143.0428,277.2994 Q142.5547,276.5339 142.5547,275.6242 L142.5547,274.8033 Q142.5547,273.8603 142.9873,273.0505 Q143.4311,272.2295 144.2077,271.7969 Q144.9842,271.3531 145.8606,271.3531 Q146.382,271.3531 146.8369,271.4752 Q147.3028,271.5861 147.6911,271.8413 Z " fill="#000000"/><text fill="#000000" font-family="sans-serif" font-size="9.94" lengthAdjust="spacing" textLength="82.36" x="160.2825" y="278.8858">ApplicationService</text><line style="stroke:#181818;stroke-width:0.355;" x1="5.68" x2="374.17" y1="286.13" y2="286.13"/><line style="stroke:#181818;stroke-width:0.355;" x1="5.68" x2="374.17" y1="291.81" y2="291.81"/><ellipse cx="12.78" cy="302.3255" fill="#84BE84" rx="2.13" ry="2.13" style="stroke:#038048;stroke-width:0.71;"/><text fill="#000000" font-family="sans-serif" font-size="9.94" lengthAdjust="spacing" textLength="73.13" x="19.17" y="305.3763">findAll(): Iterable</text><ellipse cx="12.78" cy="315.5465" fill="#84BE84" rx="2.13" ry="2.13" style="stroke:#038048;stroke-width:0.71;"/><text fill="#000000" font-family="sans-serif" font-size="9.94" lengthAdjust="spacing" textLength="351.45" x="19.17" y="318.5972">uploadRequirementsResponses(application: jobApplication, responses: String)</text></g><!--class jobApplication--><g id="elem_jobApplication"><rect codeLine="28" fill="#F1F1F1" height="34.08" id="jobApplication" rx="1.775" ry="1.775" style="stroke:#181818;stroke-width:0.355;" width="85.2" x="400.085" y="276.545"/><ellipse cx="410.735" cy="287.905" fill="#ADD1B2" rx="7.81" ry="7.81" style="stroke:#181818;stroke-width:0.71;"/><path d="M412.6986,284.9763 Q412.8095,284.8209 412.9427,284.7433 Q413.0758,284.6656 413.2311,284.6656 Q413.4973,284.6656 413.6638,284.8542 Q413.8302,285.0317 413.8302,285.4644 L413.8302,286.4961 Q413.8302,286.9288 413.6638,287.1173 Q413.4973,287.3059 413.2311,287.3059 Q412.987,287.3059 412.8428,287.1617 Q412.6986,287.0286 412.6209,286.6625 Q412.5877,286.4073 412.4545,286.2742 Q412.2216,286.008 411.7889,285.8527 Q411.3563,285.6973 410.9125,285.6973 Q410.3689,285.6973 409.9141,285.9303 Q409.4703,286.1633 409.1153,286.6958 Q408.7714,287.2283 408.7714,287.9605 L408.7714,288.737 Q408.7714,289.6134 409.4038,290.2014 Q410.0361,290.7783 411.1677,290.7783 Q411.8333,290.7783 412.2992,290.6008 Q412.5766,290.4898 412.8761,290.1792 Q413.0647,289.9906 413.1645,289.9352 Q413.2755,289.8797 413.4197,289.8797 Q413.6527,289.8797 413.8302,290.0683 Q414.0187,290.2458 414.0187,290.4898 Q414.0187,290.7339 413.7747,291.0223 Q413.4197,291.4328 412.8539,291.6658 Q412.0884,291.9875 411.1677,291.9875 Q410.0916,291.9875 409.2373,291.5438 Q408.5384,291.1887 408.0503,290.4344 Q407.5622,289.6689 407.5622,288.7592 L407.5622,287.9383 Q407.5622,286.9953 407.9948,286.1855 Q408.4386,285.3645 409.2152,284.9319 Q409.9917,284.4881 410.8681,284.4881 Q411.3895,284.4881 411.8444,284.6102 Q412.3103,284.7211 412.6986,284.9763 Z " fill="#000000"/><text fill="#000000" font-family="sans-serif" font-size="9.94" lengthAdjust="spacing" textLength="62.48" x="420.675" y="292.0208">jobApplication</text><line style="stroke:#181818;stroke-width:0.355;" x1="400.795" x2="484.575" y1="299.265" y2="299.265"/><line style="stroke:#181818;stroke-width:0.355;" x1="400.795" x2="484.575" y1="304.945" y2="304.945"/></g><!--link UploadRequirementsUI to UploadRequirementsController--><g id="link_UploadRequirementsUI_UploadRequirementsController"><path codeLine="31" d="M316.305,91.7249 C316.305,105.364 316.305,116.1986 316.305,129.8377 " fill="none" id="UploadRequirementsUI-to-UploadRequirementsController" style="stroke:#181818;stroke-width:0.71;"/><polygon fill="#181818" points="316.305,134.0977,319.145,127.7077,316.305,130.5477,313.465,127.7077,316.305,134.0977" style="stroke:#181818;stroke-width:0.71;"/></g><!--link UploadRequirementsController to ApplicationService--><g id="link_UploadRequirementsController_ApplicationService"><path codeLine="32" d="M269.2462,220.9094 C253.6688,235.0455 239.8414,247.5909 225.5988,260.5058 " fill="none" id="UploadRequirementsController-to-ApplicationService" style="stroke:#181818;stroke-width:0.71;"/><polygon fill="#181818" points="222.443,263.3674,229.0844,261.1789,225.0728,260.9827,225.2689,256.9712,222.443,263.3674" style="stroke:#181818;stroke-width:0.71;"/></g><!--link UploadRequirementsController to jobApplication--><g id="link_UploadRequirementsController_jobApplication"><path codeLine="33" d="M363.3638,220.9094 C384.6993,240.264 405.507,259.1416 421.4536,273.6114 " fill="none" id="UploadRequirementsController-to-jobApplication" style="stroke:#181818;stroke-width:0.71;"/><polygon fill="#181818" points="424.6084,276.474,421.7846,270.0768,421.9794,274.0885,417.9677,274.2832,424.6084,276.474" style="stroke:#181818;stroke-width:0.71;"/></g><!--SRC=[XPBHQiCm34NV-nLwJDdo0w4KGc6iq8VHj1_WE4hZeLgPxNQ3iN-VigwPavRCJmxIjQxE3G209kKzx5jYLMtnxMGS7j46ls8R71EXWyyP_9u7E638svQCLi6mzSayWtL0fqh2nIkNKMqPgKu_p-_m8pmPmaJzTMKmL3r2gqAJGH6SiOTv_qOA8dPAXxoMSGLgjjMAYMr2ncBVVxr4EeUgwgPkfCydjTnUuWaPR8mFYylNnVFNJ0vCiDcl8oOfw1vLDWao0b9nqV1xHwza9bGsgZLYk5igkRSDYTbdQK0tAezCHqWBT6UZSH1ZRMoL4yNntSGLBx55tqhS0d0oEtTj6mOuyZPKIUakuJHTJjES_6SxzIs3_pLZRzy0]--></g></svg>