<?xml version="1.0" encoding="us-ascii" standalone="no"?><svg xmlns="http://www.w3.org/2000/svg" xmlns:xlink="http://www.w3.org/1999/xlink" contentStyleType="text/css" height="427px" preserveAspectRatio="none" style="width:690px;height:427px;background:#FFFFFF;" version="1.1" viewBox="0 0 690 427" width="690px" zoomAndPan="magnify"><defs/><g><!--class UploadRequirementsController--><g id="elem_UploadRequirementsController"><rect codeLine="2" fill="#F1F1F1" height="103.8633" id="UploadRequirementsController" rx="2.5" ry="2.5" style="stroke:#181818;stroke-width:0.5;" width="374" x="258.5" y="171"/><ellipse cx="344.25" cy="187" fill="#ADD1B2" rx="11" ry="11" style="stroke:#181818;stroke-width:1.0;"/><path d="M347.0156,182.875 Q347.1719,182.6563 347.3594,182.5469 Q347.5469,182.4375 347.7656,182.4375 Q348.1406,182.4375 348.375,182.7031 Q348.6094,182.9531 348.6094,183.5625 L348.6094,185.0156 Q348.6094,185.625 348.375,185.8906 Q348.1406,186.1563 347.7656,186.1563 Q347.4219,186.1563 347.2188,185.9531 Q347.0156,185.7656 346.9063,185.25 Q346.8594,184.8906 346.6719,184.7031 Q346.3438,184.3281 345.7344,184.1094 Q345.125,183.8906 344.5,183.8906 Q343.7344,183.8906 343.0938,184.2188 Q342.4688,184.5469 341.9688,185.2969 Q341.4844,186.0469 341.4844,187.0781 L341.4844,188.1719 Q341.4844,189.4063 342.375,190.2344 Q343.2656,191.0469 344.8594,191.0469 Q345.7969,191.0469 346.4531,190.7969 Q346.8438,190.6406 347.2656,190.2031 Q347.5313,189.9375 347.6719,189.8594 Q347.8281,189.7813 348.0313,189.7813 Q348.3594,189.7813 348.6094,190.0469 Q348.875,190.2969 348.875,190.6406 Q348.875,190.9844 348.5313,191.3906 Q348.0313,191.9688 347.2344,192.2969 Q346.1563,192.75 344.8594,192.75 Q343.3438,192.75 342.1406,192.125 Q341.1563,191.625 340.4688,190.5625 Q339.7813,189.4844 339.7813,188.2031 L339.7813,187.0469 Q339.7813,185.7188 340.3906,184.5781 Q341.0156,183.4219 342.1094,182.8125 Q343.2031,182.1875 344.4375,182.1875 Q345.1719,182.1875 345.8125,182.3594 Q346.4688,182.5156 347.0156,182.875 Z " fill="#000000"/><text fill="#000000" font-family="sans-serif" font-size="14" lengthAdjust="spacing" textLength="194" x="364.75" y="192.7969">UploadRequirementsController</text><line style="stroke:#181818;stroke-width:0.5;" x1="259.5" x2="631.5" y1="203" y2="203"/><line style="stroke:#181818;stroke-width:0.5;" x1="259.5" x2="631.5" y1="211" y2="211"/><ellipse cx="269.5" cy="225.8105" fill="#84BE84" rx="3" ry="3" style="stroke:#038048;stroke-width:1.0;"/><text fill="#000000" font-family="sans-serif" font-size="14" lengthAdjust="spacing" textLength="265" x="278.5" y="230.1074">getApplications(): Iterable&lt;jobApplication&gt;</text><ellipse cx="269.5" cy="244.4316" fill="#84BE84" rx="3" ry="3" style="stroke:#038048;stroke-width:1.0;"/><text fill="#000000" font-family="sans-serif" font-size="14" lengthAdjust="spacing" textLength="348" x="278.5" y="248.7285">uploadTextFile(application: jobApplication, path: String)</text><ellipse cx="269.5" cy="263.0527" fill="#84BE84" rx="3" ry="3" style="stroke:#038048;stroke-width:1.0;"/><text fill="#000000" font-family="sans-serif" font-size="14" lengthAdjust="spacing" textLength="231" x="278.5" y="267.3496">passGrammar(path: String): boolean</text></g><!--class UploadRequirementsUI--><g id="elem_UploadRequirementsUI"><rect codeLine="9" fill="#F1F1F1" height="103.8633" id="UploadRequirementsUI" rx="2.5" ry="2.5" style="stroke:#181818;stroke-width:0.5;" width="287" x="302" y="7"/><ellipse cx="369.25" cy="23" fill="#ADD1B2" rx="11" ry="11" style="stroke:#181818;stroke-width:1.0;"/><path d="M372.0156,18.875 Q372.1719,18.6563 372.3594,18.5469 Q372.5469,18.4375 372.7656,18.4375 Q373.1406,18.4375 373.375,18.7031 Q373.6094,18.9531 373.6094,19.5625 L373.6094,21.0156 Q373.6094,21.625 373.375,21.8906 Q373.1406,22.1563 372.7656,22.1563 Q372.4219,22.1563 372.2188,21.9531 Q372.0156,21.7656 371.9063,21.25 Q371.8594,20.8906 371.6719,20.7031 Q371.3438,20.3281 370.7344,20.1094 Q370.125,19.8906 369.5,19.8906 Q368.7344,19.8906 368.0938,20.2188 Q367.4688,20.5469 366.9688,21.2969 Q366.4844,22.0469 366.4844,23.0781 L366.4844,24.1719 Q366.4844,25.4063 367.375,26.2344 Q368.2656,27.0469 369.8594,27.0469 Q370.7969,27.0469 371.4531,26.7969 Q371.8438,26.6406 372.2656,26.2031 Q372.5313,25.9375 372.6719,25.8594 Q372.8281,25.7813 373.0313,25.7813 Q373.3594,25.7813 373.6094,26.0469 Q373.875,26.2969 373.875,26.6406 Q373.875,26.9844 373.5313,27.3906 Q373.0313,27.9688 372.2344,28.2969 Q371.1563,28.75 369.8594,28.75 Q368.3438,28.75 367.1406,28.125 Q366.1563,27.625 365.4688,26.5625 Q364.7813,25.4844 364.7813,24.2031 L364.7813,23.0469 Q364.7813,21.7188 365.3906,20.5781 Q366.0156,19.4219 367.1094,18.8125 Q368.2031,18.1875 369.4375,18.1875 Q370.1719,18.1875 370.8125,18.3594 Q371.4688,18.5156 372.0156,18.875 Z " fill="#000000"/><text fill="#000000" font-family="sans-serif" font-size="14" lengthAdjust="spacing" textLength="144" x="389.75" y="28.7969">UploadRequirementsUI</text><line style="stroke:#181818;stroke-width:0.5;" x1="303" x2="588" y1="39" y2="39"/><rect fill="none" height="6" style="stroke:#C82930;stroke-width:1.0;" width="6" x="310" y="50.8105"/><text fill="#000000" font-family="sans-serif" font-size="14" lengthAdjust="spacing" textLength="261" x="322" y="58.1074">controller: UploadRequirementsController</text><line style="stroke:#181818;stroke-width:0.5;" x1="303" x2="588" y1="65.6211" y2="65.6211"/><ellipse cx="313" cy="80.4316" fill="#84BE84" rx="3" ry="3" style="stroke:#038048;stroke-width:1.0;"/><text fill="#000000" font-family="sans-serif" font-size="14" lengthAdjust="spacing" textLength="119" x="322" y="84.7285">doShow(): boolean</text><ellipse cx="313" cy="99.0527" fill="#84BE84" rx="3" ry="3" style="stroke:#038048;stroke-width:1.0;"/><text fill="#000000" font-family="sans-serif" font-size="14" lengthAdjust="spacing" textLength="109" x="322" y="103.3496">headline(): String</text></g><!--class ApplicationService--><g id="elem_ApplicationService"><rect codeLine="16" fill="#F1F1F1" height="85.2422" id="ApplicationService" rx="2.5" ry="2.5" style="stroke:#181818;stroke-width:0.5;" width="521" x="7" y="335"/><ellipse cx="205.25" cy="351" fill="#ADD1B2" rx="11" ry="11" style="stroke:#181818;stroke-width:1.0;"/><path d="M208.0156,346.875 Q208.1719,346.6563 208.3594,346.5469 Q208.5469,346.4375 208.7656,346.4375 Q209.1406,346.4375 209.375,346.7031 Q209.6094,346.9531 209.6094,347.5625 L209.6094,349.0156 Q209.6094,349.625 209.375,349.8906 Q209.1406,350.1563 208.7656,350.1563 Q208.4219,350.1563 208.2188,349.9531 Q208.0156,349.7656 207.9063,349.25 Q207.8594,348.8906 207.6719,348.7031 Q207.3438,348.3281 206.7344,348.1094 Q206.125,347.8906 205.5,347.8906 Q204.7344,347.8906 204.0938,348.2188 Q203.4688,348.5469 202.9688,349.2969 Q202.4844,350.0469 202.4844,351.0781 L202.4844,352.1719 Q202.4844,353.4063 203.375,354.2344 Q204.2656,355.0469 205.8594,355.0469 Q206.7969,355.0469 207.4531,354.7969 Q207.8438,354.6406 208.2656,354.2031 Q208.5313,353.9375 208.6719,353.8594 Q208.8281,353.7813 209.0313,353.7813 Q209.3594,353.7813 209.6094,354.0469 Q209.875,354.2969 209.875,354.6406 Q209.875,354.9844 209.5313,355.3906 Q209.0313,355.9688 208.2344,356.2969 Q207.1563,356.75 205.8594,356.75 Q204.3438,356.75 203.1406,356.125 Q202.1563,355.625 201.4688,354.5625 Q200.7813,353.4844 200.7813,352.2031 L200.7813,351.0469 Q200.7813,349.7188 201.3906,348.5781 Q202.0156,347.4219 203.1094,346.8125 Q204.2031,346.1875 205.4375,346.1875 Q206.1719,346.1875 206.8125,346.3594 Q207.4688,346.5156 208.0156,346.875 Z " fill="#000000"/><text fill="#000000" font-family="sans-serif" font-size="14" lengthAdjust="spacing" textLength="116" x="225.75" y="356.7969">ApplicationService</text><line style="stroke:#181818;stroke-width:0.5;" x1="8" x2="527" y1="367" y2="367"/><line style="stroke:#181818;stroke-width:0.5;" x1="8" x2="527" y1="375" y2="375"/><ellipse cx="18" cy="389.8105" fill="#84BE84" rx="3" ry="3" style="stroke:#038048;stroke-width:1.0;"/><text fill="#000000" font-family="sans-serif" font-size="14" lengthAdjust="spacing" textLength="103" x="27" y="394.1074">findAll(): Iterable</text><ellipse cx="18" cy="408.4316" fill="#84BE84" rx="3" ry="3" style="stroke:#038048;stroke-width:1.0;"/><text fill="#000000" font-family="sans-serif" font-size="14" lengthAdjust="spacing" textLength="495" x="27" y="412.7285">uploadRequirementsResponses(application: jobApplication, responses: String)</text></g><!--class jobApplication--><g id="elem_jobApplication"><rect codeLine="21" fill="#F1F1F1" height="48" id="jobApplication" rx="2.5" ry="2.5" style="stroke:#181818;stroke-width:0.5;" width="120" x="563.5" y="353.5"/><ellipse cx="578.5" cy="369.5" fill="#ADD1B2" rx="11" ry="11" style="stroke:#181818;stroke-width:1.0;"/><path d="M581.2656,365.375 Q581.4219,365.1563 581.6094,365.0469 Q581.7969,364.9375 582.0156,364.9375 Q582.3906,364.9375 582.625,365.2031 Q582.8594,365.4531 582.8594,366.0625 L582.8594,367.5156 Q582.8594,368.125 582.625,368.3906 Q582.3906,368.6563 582.0156,368.6563 Q581.6719,368.6563 581.4688,368.4531 Q581.2656,368.2656 581.1563,367.75 Q581.1094,367.3906 580.9219,367.2031 Q580.5938,366.8281 579.9844,366.6094 Q579.375,366.3906 578.75,366.3906 Q577.9844,366.3906 577.3438,366.7188 Q576.7188,367.0469 576.2188,367.7969 Q575.7344,368.5469 575.7344,369.5781 L575.7344,370.6719 Q575.7344,371.9063 576.625,372.7344 Q577.5156,373.5469 579.1094,373.5469 Q580.0469,373.5469 580.7031,373.2969 Q581.0938,373.1406 581.5156,372.7031 Q581.7813,372.4375 581.9219,372.3594 Q582.0781,372.2813 582.2813,372.2813 Q582.6094,372.2813 582.8594,372.5469 Q583.125,372.7969 583.125,373.1406 Q583.125,373.4844 582.7813,373.8906 Q582.2813,374.4688 581.4844,374.7969 Q580.4063,375.25 579.1094,375.25 Q577.5938,375.25 576.3906,374.625 Q575.4063,374.125 574.7188,373.0625 Q574.0313,371.9844 574.0313,370.7031 L574.0313,369.5469 Q574.0313,368.2188 574.6406,367.0781 Q575.2656,365.9219 576.3594,365.3125 Q577.4531,364.6875 578.6875,364.6875 Q579.4219,364.6875 580.0625,364.8594 Q580.7188,365.0156 581.2656,365.375 Z " fill="#000000"/><text fill="#000000" font-family="sans-serif" font-size="14" lengthAdjust="spacing" textLength="88" x="592.5" y="375.2969">jobApplication</text><line style="stroke:#181818;stroke-width:0.5;" x1="564.5" x2="682.5" y1="385.5" y2="385.5"/><line style="stroke:#181818;stroke-width:0.5;" x1="564.5" x2="682.5" y1="393.5" y2="393.5"/></g><!--link UploadRequirementsUI to UploadRequirementsController--><g id="link_UploadRequirementsUI_UploadRequirementsController"><path codeLine="23" d="M445.5,111.26 C445.5,130.26 445.5,145.8 445.5,164.8 " fill="none" id="UploadRequirementsUI-to-UploadRequirementsController" style="stroke:#181818;stroke-width:1.0;"/><polygon fill="#181818" points="445.5,170.8,449.5,161.8,445.5,165.8,441.5,161.8,445.5,170.8" style="stroke:#181818;stroke-width:1.0;"/></g><!--link UploadRequirementsController to ApplicationService--><g id="link_UploadRequirementsController_ApplicationService"><path codeLine="24" d="M385.73,275.2 C363.11,294.59 342.2067,312.4966 320.7267,330.8966 " fill="none" id="UploadRequirementsController-to-ApplicationService" style="stroke:#181818;stroke-width:1.0;"/><polygon fill="#181818" points="316.17,334.8,325.6073,331.9828,319.9673,331.5472,320.4029,325.9071,316.17,334.8" style="stroke:#181818;stroke-width:1.0;"/></g><!--link UploadRequirementsController to jobApplication--><g id="link_UploadRequirementsController_jobApplication"><path codeLine="25" d="M505.27,275.2 C536.17,301.68 567.8141,328.7857 591.9341,349.4557 " fill="none" id="UploadRequirementsController-to-jobApplication" style="stroke:#181818;stroke-width:1.0;"/><polygon fill="#181818" points="596.49,353.36,592.2589,344.4663,592.6934,350.1064,587.0532,350.5409,596.49,353.36" style="stroke:#181818;stroke-width:1.0;"/></g><!--SRC=[XP91JiCm44NtFiKiKz5Sm4ALgaf5tJRq01DdQ8mcjckxBHBYxYGb94w1uAN_VC__JrQC8S31iSLgJwUpzjIGYM5ZJVIMcJoy2sZF0nmfhfrZhJ1gQqAsaB2BvB5aUdorPQAjUiVvzkmplSMjPifmd90mTIp1OQmb5D5hSrpqVjTcU_BODEYpYIwXj9O9ZG3n8OJweyHXruVFGGrzv6pRVdDbYzfUitJHxRuch5WRwfIlB9qmPaWg5UGlMj60xqMRQisSOfjWIlFiARWMCOLvPlvxR0Gt99dE2l4hdJnVpTEO_HYT-sVX_prtqJu1]--></g></svg>