<?xml version="1.0" encoding="us-ascii" standalone="no"?><svg xmlns="http://www.w3.org/2000/svg" xmlns:xlink="http://www.w3.org/1999/xlink" contentStyleType="text/css" height="839px" preserveAspectRatio="none" style="width:1117px;height:839px;background:#FFFFFF;" version="1.1" viewBox="0 0 1117 839" width="1117px" zoomAndPan="magnify"><defs/><g><rect fill="#FFFFFF" height="629.1602" style="stroke:#181818;stroke-width:1.0;" width="10" x="282.5" y="116.9121"/><rect fill="#FFFFFF" height="93.873" style="stroke:#181818;stroke-width:1.0;" width="10" x="526.5" y="148.2031"/><rect fill="#FFFFFF" height="253.3281" style="stroke:#181818;stroke-width:1.0;" width="10" x="526.5" y="398.5313"/><rect fill="#FFFFFF" height="31.291" style="stroke:#181818;stroke-width:1.0;" width="10" x="869.5" y="179.4941"/><rect fill="#FFFFFF" height="93.873" style="stroke:#181818;stroke-width:1.0;" width="10" x="869.5" y="526.6953"/><rect fill="#FFFFFF" height="31.291" style="stroke:#181818;stroke-width:1.0;" width="10" x="1044.5" y="557.9863"/><rect fill="none" height="254.959" style="stroke:#000000;stroke-width:1.5;" width="1090.5" x="20" y="484.1133"/><line style="stroke:#181818;stroke-width:0.5;stroke-dasharray:5.0,5.0;" x1="61" x2="61" y1="83.6211" y2="756.0723"/><line style="stroke:#181818;stroke-width:0.5;stroke-dasharray:5.0,5.0;" x1="287.5" x2="287.5" y1="83.6211" y2="756.0723"/><line style="stroke:#181818;stroke-width:0.5;stroke-dasharray:5.0,5.0;" x1="531.5" x2="531.5" y1="83.6211" y2="756.0723"/><line style="stroke:#181818;stroke-width:0.5;stroke-dasharray:5.0,5.0;" x1="874.5" x2="874.5" y1="83.6211" y2="756.0723"/><line style="stroke:#181818;stroke-width:0.5;stroke-dasharray:5.0,5.0;" x1="1049.5" x2="1049.5" y1="83.6211" y2="756.0723"/><text fill="#000000" font-family="sans-serif" font-size="14" lengthAdjust="spacing" textLength="57" x="30" y="80.1074">Operator</text><ellipse cx="61.5" cy="13.5" fill="#E2E2F0" rx="8" ry="8" style="stroke:#181818;stroke-width:0.5;"/><path d="M61.5,21.5 L61.5,48.5 M48.5,29.5 L74.5,29.5 M61.5,48.5 L48.5,63.5 M61.5,48.5 L74.5,63.5 " fill="none" style="stroke:#181818;stroke-width:0.5;"/><text fill="#000000" font-family="sans-serif" font-size="14" lengthAdjust="spacing" textLength="57" x="30" y="770.1797">Operator</text><ellipse cx="61.5" cy="782.1934" fill="#E2E2F0" rx="8" ry="8" style="stroke:#181818;stroke-width:0.5;"/><path d="M61.5,790.1934 L61.5,817.1934 M48.5,798.1934 L74.5,798.1934 M61.5,817.1934 L48.5,832.1934 M61.5,817.1934 L74.5,832.1934 " fill="none" style="stroke:#181818;stroke-width:0.5;"/><rect fill="#E2E2F0" height="32.6211" rx="2.5" ry="2.5" style="stroke:#181818;stroke-width:0.5;" width="158" x="208.5" y="50"/><text fill="#000000" font-family="sans-serif" font-size="14" lengthAdjust="spacing" textLength="144" x="215.5" y="72.1074">UploadRequirementsUI</text><rect fill="#E2E2F0" height="32.6211" rx="2.5" ry="2.5" style="stroke:#181818;stroke-width:0.5;" width="158" x="208.5" y="755.0723"/><text fill="#000000" font-family="sans-serif" font-size="14" lengthAdjust="spacing" textLength="144" x="215.5" y="777.1797">UploadRequirementsUI</text><rect fill="#E2E2F0" height="32.6211" rx="2.5" ry="2.5" style="stroke:#181818;stroke-width:0.5;" width="208" x="427.5" y="50"/><text fill="#000000" font-family="sans-serif" font-size="14" lengthAdjust="spacing" textLength="194" x="434.5" y="72.1074">UploadRequirementsController</text><rect fill="#E2E2F0" height="32.6211" rx="2.5" ry="2.5" style="stroke:#181818;stroke-width:0.5;" width="208" x="427.5" y="755.0723"/><text fill="#000000" font-family="sans-serif" font-size="14" lengthAdjust="spacing" textLength="194" x="434.5" y="777.1797">UploadRequirementsController</text><rect fill="#E2E2F0" height="32.6211" rx="2.5" ry="2.5" style="stroke:#181818;stroke-width:0.5;" width="130" x="809.5" y="50"/><text fill="#000000" font-family="sans-serif" font-size="14" lengthAdjust="spacing" textLength="116" x="816.5" y="72.1074">ApplicationService</text><rect fill="#E2E2F0" height="32.6211" rx="2.5" ry="2.5" style="stroke:#181818;stroke-width:0.5;" width="130" x="809.5" y="755.0723"/><text fill="#000000" font-family="sans-serif" font-size="14" lengthAdjust="spacing" textLength="116" x="816.5" y="777.1797">ApplicationService</text><rect fill="#E2E2F0" height="32.6211" rx="2.5" ry="2.5" style="stroke:#181818;stroke-width:0.5;" width="102" x="998.5" y="50"/><text fill="#000000" font-family="sans-serif" font-size="14" lengthAdjust="spacing" textLength="88" x="1005.5" y="72.1074">jobApplication</text><rect fill="#E2E2F0" height="32.6211" rx="2.5" ry="2.5" style="stroke:#181818;stroke-width:0.5;" width="102" x="998.5" y="755.0723"/><text fill="#000000" font-family="sans-serif" font-size="14" lengthAdjust="spacing" textLength="88" x="1005.5" y="777.1797">jobApplication</text><rect fill="#FFFFFF" height="629.1602" style="stroke:#181818;stroke-width:1.0;" width="10" x="282.5" y="116.9121"/><rect fill="#FFFFFF" height="93.873" style="stroke:#181818;stroke-width:1.0;" width="10" x="526.5" y="148.2031"/><rect fill="#FFFFFF" height="253.3281" style="stroke:#181818;stroke-width:1.0;" width="10" x="526.5" y="398.5313"/><rect fill="#FFFFFF" height="31.291" style="stroke:#181818;stroke-width:1.0;" width="10" x="869.5" y="179.4941"/><rect fill="#FFFFFF" height="93.873" style="stroke:#181818;stroke-width:1.0;" width="10" x="869.5" y="526.6953"/><rect fill="#FFFFFF" height="31.291" style="stroke:#181818;stroke-width:1.0;" width="10" x="1044.5" y="557.9863"/><polygon fill="#181818" points="270.5,112.9121,280.5,116.9121,270.5,120.9121,274.5,116.9121" style="stroke:#181818;stroke-width:1.0;"/><line style="stroke:#181818;stroke-width:1.0;" x1="61.5" x2="276.5" y1="116.9121" y2="116.9121"/><text fill="#000000" font-family="sans-serif" font-size="13" lengthAdjust="spacing" textLength="202" x="68.5" y="111.6494">Asks to import candidate response</text><polygon fill="#181818" points="514.5,144.2031,524.5,148.2031,514.5,152.2031,518.5,148.2031" style="stroke:#181818;stroke-width:1.0;"/><line style="stroke:#181818;stroke-width:1.0;" x1="292.5" x2="520.5" y1="148.2031" y2="148.2031"/><text fill="#000000" font-family="sans-serif" font-size="13" lengthAdjust="spacing" textLength="97" x="299.5" y="142.9404">getApplications()</text><polygon fill="#181818" points="857.5,175.4941,867.5,179.4941,857.5,183.4941,861.5,179.4941" style="stroke:#181818;stroke-width:1.0;"/><line style="stroke:#181818;stroke-width:1.0;" x1="536.5" x2="863.5" y1="179.4941" y2="179.4941"/><text fill="#000000" font-family="sans-serif" font-size="13" lengthAdjust="spacing" textLength="43" x="543.5" y="174.2314">findAll()</text><polygon fill="#181818" points="547.5,206.7852,537.5,210.7852,547.5,214.7852,543.5,210.7852" style="stroke:#181818;stroke-width:1.0;"/><line style="stroke:#181818;stroke-width:1.0;stroke-dasharray:2.0,2.0;" x1="541.5" x2="873.5" y1="210.7852" y2="210.7852"/><text fill="#000000" font-family="sans-serif" font-size="13" lengthAdjust="spacing" textLength="139" x="553.5" y="205.5225">Iterable&lt;jobApplication&gt;</text><polygon fill="#181818" points="303.5,238.0762,293.5,242.0762,303.5,246.0762,299.5,242.0762" style="stroke:#181818;stroke-width:1.0;"/><line style="stroke:#181818;stroke-width:1.0;stroke-dasharray:2.0,2.0;" x1="297.5" x2="530.5" y1="242.0762" y2="242.0762"/><text fill="#000000" font-family="sans-serif" font-size="13" lengthAdjust="spacing" textLength="139" x="309.5" y="236.8135">Iterable&lt;jobApplication&gt;</text><polygon fill="#181818" points="72.5,269.3672,62.5,273.3672,72.5,277.3672,68.5,273.3672" style="stroke:#181818;stroke-width:1.0;"/><line style="stroke:#181818;stroke-width:1.0;" x1="66.5" x2="281.5" y1="273.3672" y2="273.3672"/><text fill="#000000" font-family="sans-serif" font-size="13" lengthAdjust="spacing" textLength="168" x="78.5" y="268.1045">Asks to select an application</text><polygon fill="#181818" points="270.5,300.6582,280.5,304.6582,270.5,308.6582,274.5,304.6582" style="stroke:#181818;stroke-width:1.0;"/><line style="stroke:#181818;stroke-width:1.0;" x1="61.5" x2="276.5" y1="304.6582" y2="304.6582"/><text fill="#000000" font-family="sans-serif" font-size="13" lengthAdjust="spacing" textLength="121" x="68.5" y="299.3955">Select an application</text><polygon fill="#181818" points="72.5,331.9492,62.5,335.9492,72.5,339.9492,68.5,335.9492" style="stroke:#181818;stroke-width:1.0;"/><line style="stroke:#181818;stroke-width:1.0;" x1="66.5" x2="281.5" y1="335.9492" y2="335.9492"/><text fill="#000000" font-family="sans-serif" font-size="13" lengthAdjust="spacing" textLength="68" x="78.5" y="330.6865">Request file</text><polygon fill="#181818" points="270.5,363.2402,280.5,367.2402,270.5,371.2402,274.5,367.2402" style="stroke:#181818;stroke-width:1.0;"/><line style="stroke:#181818;stroke-width:1.0;" x1="61.5" x2="276.5" y1="367.2402" y2="367.2402"/><text fill="#000000" font-family="sans-serif" font-size="13" lengthAdjust="spacing" textLength="192" x="68.5" y="361.9775">Upload text file with requirements</text><polygon fill="#181818" points="514.5,394.5313,524.5,398.5313,514.5,402.5313,518.5,398.5313" style="stroke:#181818;stroke-width:1.0;"/><line style="stroke:#181818;stroke-width:1.0;" x1="292.5" x2="520.5" y1="398.5313" y2="398.5313"/><text fill="#000000" font-family="sans-serif" font-size="13" lengthAdjust="spacing" textLength="215" x="299.5" y="393.2686">uploadTextFile(jobApplication, String)</text><line style="stroke:#181818;stroke-width:1.0;" x1="536.5" x2="578.5" y1="429.8223" y2="429.8223"/><line style="stroke:#181818;stroke-width:1.0;" x1="578.5" x2="578.5" y1="429.8223" y2="442.8223"/><line style="stroke:#181818;stroke-width:1.0;" x1="537.5" x2="578.5" y1="442.8223" y2="442.8223"/><polygon fill="#181818" points="547.5,438.8223,537.5,442.8223,547.5,446.8223,543.5,442.8223" style="stroke:#181818;stroke-width:1.0;"/><text fill="#000000" font-family="sans-serif" font-size="13" lengthAdjust="spacing" textLength="124" x="543.5" y="424.5596">passGrammar(String)</text><path d="M20,484.1133 L81,484.1133 L81,493.4043 L71,503.4043 L20,503.4043 L20,484.1133 " fill="#EEEEEE" style="stroke:#000000;stroke-width:1.5;"/><rect fill="none" height="254.959" style="stroke:#000000;stroke-width:1.5;" width="1090.5" x="20" y="484.1133"/><text fill="#000000" font-family="sans-serif" font-size="13" font-weight="bold" lengthAdjust="spacing" textLength="16" x="35" y="499.1416">alt</text><text fill="#000000" font-family="sans-serif" font-size="11" font-weight="bold" lengthAdjust="spacing" textLength="76" x="96" y="497.9834">[if file is valid]</text><polygon fill="#181818" points="857.5,522.6953,867.5,526.6953,857.5,530.6953,861.5,526.6953" style="stroke:#181818;stroke-width:1.0;"/><line style="stroke:#181818;stroke-width:1.0;" x1="536.5" x2="863.5" y1="526.6953" y2="526.6953"/><text fill="#000000" font-family="sans-serif" font-size="13" lengthAdjust="spacing" textLength="314" x="543.5" y="521.4326">uploadRequirementsResponses(jobApplication, String)</text><polygon fill="#181818" points="1032.5,553.9863,1042.5,557.9863,1032.5,561.9863,1036.5,557.9863" style="stroke:#181818;stroke-width:1.0;"/><line style="stroke:#181818;stroke-width:1.0;" x1="879.5" x2="1038.5" y1="557.9863" y2="557.9863"/><text fill="#000000" font-family="sans-serif" font-size="13" lengthAdjust="spacing" textLength="146" x="886.5" y="552.7236">updateResponses(String)</text><polygon fill="#181818" points="890.5,585.2773,880.5,589.2773,890.5,593.2773,886.5,589.2773" style="stroke:#181818;stroke-width:1.0;"/><line style="stroke:#181818;stroke-width:1.0;" x1="884.5" x2="1048.5" y1="589.2773" y2="589.2773"/><text fill="#000000" font-family="sans-serif" font-size="13" lengthAdjust="spacing" textLength="119" x="896.5" y="584.0146">"Update Successful"</text><polygon fill="#181818" points="547.5,616.5684,537.5,620.5684,547.5,624.5684,543.5,620.5684" style="stroke:#181818;stroke-width:1.0;"/><line style="stroke:#181818;stroke-width:1.0;stroke-dasharray:2.0,2.0;" x1="541.5" x2="873.5" y1="620.5684" y2="620.5684"/><text fill="#000000" font-family="sans-serif" font-size="13" lengthAdjust="spacing" textLength="119" x="553.5" y="615.3057">"Update Successful"</text><polygon fill="#181818" points="303.5,647.8594,293.5,651.8594,303.5,655.8594,299.5,651.8594" style="stroke:#181818;stroke-width:1.0;"/><line style="stroke:#181818;stroke-width:1.0;stroke-dasharray:2.0,2.0;" x1="297.5" x2="530.5" y1="651.8594" y2="651.8594"/><text fill="#000000" font-family="sans-serif" font-size="13" lengthAdjust="spacing" textLength="119" x="309.5" y="646.5967">"Update Successful"</text><polygon fill="#181818" points="72.5,679.1504,62.5,683.1504,72.5,687.1504,68.5,683.1504" style="stroke:#181818;stroke-width:1.0;"/><line style="stroke:#181818;stroke-width:1.0;" x1="66.5" x2="281.5" y1="683.1504" y2="683.1504"/><text fill="#000000" font-family="sans-serif" font-size="13" lengthAdjust="spacing" textLength="148" x="78.5" y="677.8877">Return success message</text><line style="stroke:#000000;stroke-width:1.0;stroke-dasharray:2.0,2.0;" x1="20" x2="1110.5" y1="692.1504" y2="692.1504"/><text fill="#000000" font-family="sans-serif" font-size="11" font-weight="bold" lengthAdjust="spacing" textLength="86" x="25" y="704.0205">[if file is invalid]</text><polygon fill="#181818" points="303.5,727.0723,293.5,731.0723,303.5,735.0723,299.5,731.0723" style="stroke:#181818;stroke-width:1.0;"/><line style="stroke:#181818;stroke-width:1.0;stroke-dasharray:2.0,2.0;" x1="297.5" x2="530.5" y1="731.0723" y2="731.0723"/><text fill="#000000" font-family="sans-serif" font-size="13" lengthAdjust="spacing" textLength="125" x="309.5" y="725.8096">Return error message</text><!--SRC=[ZLJ1Rjim3BthAuYSKc3zWM8841JOaDE0PjcTbPbCgonf4ftryqlRbIKtJXSVWiZYU-GZ7usQVOGVWIBA7nKmij4ce6DO7OBrs3pHtyv4QibnEknMW0aEk_y5Fdh7qLjBSG2Kunou3S4QZMoysrCy6qr3kBn-Fyx3__Zd2f53yrcfB0FkDr8ZFC0slIHW3wODFZ9eT8rfa0aYfU1T8eMQpRb_8vgKO0HPYXM64t6L8gtl2g8IfIgCC9JwXU5eNBErjaPM-bGLU_yn-Ov5pxEbhtFX6zNG8bTTHMx1BHorah47KoTB3nDPqWpe0AkUNxHylnXsITkxXH9BUonTieoE0gRNCGB-6VujKoiEMvnMDy1-2kgRWDPpoLzWpz6uqqqZBAS729ZIzuXjYt6TAHHQXZu9_A9eZbadoDFVcEDOjabmHckQuQ9_FZ5ATx55J-ykJLULPDebE-Ixsc6RUc66dFqwb3oVyPPXLimJrqSryb4ODctVQKqf7Jkxcd1p-oxoNjs9stcdjLZgVJRQZNIrKVBrWgMvYmxII0Mj_E1fd0FPHBKfZBjkYw6qYOrY5FAQwtffv9fwhUMJzWO0]--></g></svg>