<?xml version="1.0" encoding="us-ascii" standalone="no"?><svg xmlns="http://www.w3.org/2000/svg" xmlns:xlink="http://www.w3.org/1999/xlink" contentStyleType="text/css" height="618.3px" preserveAspectRatio="none" style="width:972px;height:618px;background:#FFFFFF;" version="1.1" viewBox="0 0 972 618" width="972.9px" zoomAndPan="magnify"><defs/><g><rect fill="#FFFFFF" height="422.4287" style="stroke:#181818;stroke-width:0.9;" width="9" x="231.75" y="105.2209"/><rect fill="#FFFFFF" height="84.4857" style="stroke:#181818;stroke-width:0.9;" width="9" x="451.35" y="133.3828"/><rect fill="#FFFFFF" height="140.8096" style="stroke:#181818;stroke-width:0.9;" width="9" x="451.35" y="358.6781"/><rect fill="#FFFFFF" height="28.1619" style="stroke:#181818;stroke-width:0.9;" width="9" x="760.05" y="161.5447"/><rect fill="#FFFFFF" height="84.4857" style="stroke:#181818;stroke-width:0.9;" width="9" x="760.05" y="386.84"/><rect fill="#FFFFFF" height="28.1619" style="stroke:#181818;stroke-width:0.9;" width="9" x="917.55" y="415.002"/><line style="stroke:#181818;stroke-width:0.45;stroke-dasharray:5.0,5.0;" x1="32.4" x2="32.4" y1="75.259" y2="543.8496"/><line style="stroke:#181818;stroke-width:0.45;stroke-dasharray:5.0,5.0;" x1="236.25" x2="236.25" y1="75.259" y2="543.8496"/><line style="stroke:#181818;stroke-width:0.45;stroke-dasharray:5.0,5.0;" x1="455.85" x2="455.85" y1="75.259" y2="543.8496"/><line style="stroke:#181818;stroke-width:0.45;stroke-dasharray:5.0,5.0;" x1="764.55" x2="764.55" y1="75.259" y2="543.8496"/><line style="stroke:#181818;stroke-width:0.45;stroke-dasharray:5.0,5.0;" x1="922.05" x2="922.05" y1="75.259" y2="543.8496"/><text fill="#000000" font-family="sans-serif" font-size="12.6" lengthAdjust="spacing" textLength="51.3" x="4.5" y="72.0967">Operator</text><ellipse cx="32.85" cy="12.15" fill="#E2E2F0" rx="7.2" ry="7.2" style="stroke:#181818;stroke-width:0.45;"/><path d="M32.85,19.35 L32.85,43.65 M21.15,26.55 L44.55,26.55 M32.85,43.65 L21.15,57.15 M32.85,43.65 L44.55,57.15 " fill="none" style="stroke:#181818;stroke-width:0.45;"/><text fill="#000000" font-family="sans-serif" font-size="12.6" lengthAdjust="spacing" textLength="51.3" x="4.5" y="556.5463">Operator</text><ellipse cx="32.85" cy="567.3586" fill="#E2E2F0" rx="7.2" ry="7.2" style="stroke:#181818;stroke-width:0.45;"/><path d="M32.85,574.5586 L32.85,598.8586 M21.15,581.7586 L44.55,581.7586 M32.85,598.8586 L21.15,612.3586 M32.85,598.8586 L44.55,612.3586 " fill="none" style="stroke:#181818;stroke-width:0.45;"/><rect fill="#E2E2F0" height="29.359" rx="2.25" ry="2.25" style="stroke:#181818;stroke-width:0.45;" width="142.2" x="165.15" y="45"/><text fill="#000000" font-family="sans-serif" font-size="12.6" lengthAdjust="spacing" textLength="129.6" x="171.45" y="64.8967">UploadRequirementsUI</text><rect fill="#E2E2F0" height="29.359" rx="2.25" ry="2.25" style="stroke:#181818;stroke-width:0.45;" width="142.2" x="165.15" y="542.9496"/><text fill="#000000" font-family="sans-serif" font-size="12.6" lengthAdjust="spacing" textLength="129.6" x="171.45" y="562.8463">UploadRequirementsUI</text><rect fill="#E2E2F0" height="29.359" rx="2.25" ry="2.25" style="stroke:#181818;stroke-width:0.45;" width="187.2" x="362.25" y="45"/><text fill="#000000" font-family="sans-serif" font-size="12.6" lengthAdjust="spacing" textLength="174.6" x="368.55" y="64.8967">UploadRequirementsController</text><rect fill="#E2E2F0" height="29.359" rx="2.25" ry="2.25" style="stroke:#181818;stroke-width:0.45;" width="187.2" x="362.25" y="542.9496"/><text fill="#000000" font-family="sans-serif" font-size="12.6" lengthAdjust="spacing" textLength="174.6" x="368.55" y="562.8463">UploadRequirementsController</text><rect fill="#E2E2F0" height="29.359" rx="2.25" ry="2.25" style="stroke:#181818;stroke-width:0.45;" width="117" x="706.05" y="45"/><text fill="#000000" font-family="sans-serif" font-size="12.6" lengthAdjust="spacing" textLength="104.4" x="712.35" y="64.8967">ApplicationService</text><rect fill="#E2E2F0" height="29.359" rx="2.25" ry="2.25" style="stroke:#181818;stroke-width:0.45;" width="117" x="706.05" y="542.9496"/><text fill="#000000" font-family="sans-serif" font-size="12.6" lengthAdjust="spacing" textLength="104.4" x="712.35" y="562.8463">ApplicationService</text><rect fill="#E2E2F0" height="29.359" rx="2.25" ry="2.25" style="stroke:#181818;stroke-width:0.45;" width="91.8" x="876.15" y="45"/><text fill="#000000" font-family="sans-serif" font-size="12.6" lengthAdjust="spacing" textLength="79.2" x="882.45" y="64.8967">jobApplication</text><rect fill="#E2E2F0" height="29.359" rx="2.25" ry="2.25" style="stroke:#181818;stroke-width:0.45;" width="91.8" x="876.15" y="542.9496"/><text fill="#000000" font-family="sans-serif" font-size="12.6" lengthAdjust="spacing" textLength="79.2" x="882.45" y="562.8463">jobApplication</text><rect fill="#FFFFFF" height="422.4287" style="stroke:#181818;stroke-width:0.9;" width="9" x="231.75" y="105.2209"/><rect fill="#FFFFFF" height="84.4857" style="stroke:#181818;stroke-width:0.9;" width="9" x="451.35" y="133.3828"/><rect fill="#FFFFFF" height="140.8096" style="stroke:#181818;stroke-width:0.9;" width="9" x="451.35" y="358.6781"/><rect fill="#FFFFFF" height="28.1619" style="stroke:#181818;stroke-width:0.9;" width="9" x="760.05" y="161.5447"/><rect fill="#FFFFFF" height="84.4857" style="stroke:#181818;stroke-width:0.9;" width="9" x="760.05" y="386.84"/><rect fill="#FFFFFF" height="28.1619" style="stroke:#181818;stroke-width:0.9;" width="9" x="917.55" y="415.002"/><polygon fill="#181818" points="220.95,101.6209,229.95,105.2209,220.95,108.8209,224.55,105.2209" style="stroke:#181818;stroke-width:0.9;"/><line style="stroke:#181818;stroke-width:0.9;" x1="32.85" x2="226.35" y1="105.2209" y2="105.2209"/><text fill="#000000" font-family="sans-serif" font-size="11.7" lengthAdjust="spacing" textLength="181.8" x="39.15" y="100.4845">Asks to import candidate response</text><polygon fill="#181818" points="440.55,129.7828,449.55,133.3828,440.55,136.9828,444.15,133.3828" style="stroke:#181818;stroke-width:0.9;"/><line style="stroke:#181818;stroke-width:0.9;" x1="240.75" x2="445.95" y1="133.3828" y2="133.3828"/><text fill="#000000" font-family="sans-serif" font-size="11.7" lengthAdjust="spacing" textLength="87.3" x="247.05" y="128.6464">getApplications()</text><polygon fill="#181818" points="749.25,157.9447,758.25,161.5447,749.25,165.1447,752.85,161.5447" style="stroke:#181818;stroke-width:0.9;"/><line style="stroke:#181818;stroke-width:0.9;" x1="460.35" x2="754.65" y1="161.5447" y2="161.5447"/><text fill="#000000" font-family="sans-serif" font-size="11.7" lengthAdjust="spacing" textLength="38.7" x="466.65" y="156.8083">findAll()</text><polygon fill="#181818" points="470.25,186.1066,461.25,189.7066,470.25,193.3066,466.65,189.7066" style="stroke:#181818;stroke-width:0.9;"/><line style="stroke:#181818;stroke-width:0.9;stroke-dasharray:2.0,2.0;" x1="464.85" x2="763.65" y1="189.7066" y2="189.7066"/><text fill="#000000" font-family="sans-serif" font-size="11.7" lengthAdjust="spacing" textLength="125.1" x="475.65" y="184.9702">Iterable&lt;jobApplication&gt;</text><polygon fill="#181818" points="250.65,214.2686,241.65,217.8686,250.65,221.4686,247.05,217.8686" style="stroke:#181818;stroke-width:0.9;"/><line style="stroke:#181818;stroke-width:0.9;stroke-dasharray:2.0,2.0;" x1="245.25" x2="454.95" y1="217.8686" y2="217.8686"/><text fill="#000000" font-family="sans-serif" font-size="11.7" lengthAdjust="spacing" textLength="125.1" x="256.05" y="213.1321">Iterable&lt;jobApplication&gt;</text><polygon fill="#181818" points="42.75,242.4305,33.75,246.0305,42.75,249.6305,39.15,246.0305" style="stroke:#181818;stroke-width:0.9;"/><line style="stroke:#181818;stroke-width:0.9;" x1="37.35" x2="230.85" y1="246.0305" y2="246.0305"/><text fill="#000000" font-family="sans-serif" font-size="11.7" lengthAdjust="spacing" textLength="151.2" x="48.15" y="241.294">Asks to select an application</text><polygon fill="#181818" points="220.95,270.5924,229.95,274.1924,220.95,277.7924,224.55,274.1924" style="stroke:#181818;stroke-width:0.9;"/><line style="stroke:#181818;stroke-width:0.9;" x1="32.85" x2="226.35" y1="274.1924" y2="274.1924"/><text fill="#000000" font-family="sans-serif" font-size="11.7" lengthAdjust="spacing" textLength="108.9" x="39.15" y="269.456">Select an application</text><polygon fill="#181818" points="42.75,298.7543,33.75,302.3543,42.75,305.9543,39.15,302.3543" style="stroke:#181818;stroke-width:0.9;"/><line style="stroke:#181818;stroke-width:0.9;" x1="37.35" x2="230.85" y1="302.3543" y2="302.3543"/><text fill="#000000" font-family="sans-serif" font-size="11.7" lengthAdjust="spacing" textLength="61.2" x="48.15" y="297.6179">Request file</text><polygon fill="#181818" points="220.95,326.9162,229.95,330.5162,220.95,334.1162,224.55,330.5162" style="stroke:#181818;stroke-width:0.9;"/><line style="stroke:#181818;stroke-width:0.9;" x1="32.85" x2="226.35" y1="330.5162" y2="330.5162"/><text fill="#000000" font-family="sans-serif" font-size="11.7" lengthAdjust="spacing" textLength="172.8" x="39.15" y="325.7798">Upload text file with requirements</text><polygon fill="#181818" points="440.55,355.0781,449.55,358.6781,440.55,362.2781,444.15,358.6781" style="stroke:#181818;stroke-width:0.9;"/><line style="stroke:#181818;stroke-width:0.9;" x1="240.75" x2="445.95" y1="358.6781" y2="358.6781"/><text fill="#000000" font-family="sans-serif" font-size="11.7" lengthAdjust="spacing" textLength="193.5" x="247.05" y="353.9417">uploadTextFile(jobApplication, String)</text><polygon fill="#181818" points="749.25,383.24,758.25,386.84,749.25,390.44,752.85,386.84" style="stroke:#181818;stroke-width:0.9;"/><line style="stroke:#181818;stroke-width:0.9;" x1="460.35" x2="754.65" y1="386.84" y2="386.84"/><text fill="#000000" font-family="sans-serif" font-size="11.7" lengthAdjust="spacing" textLength="282.6" x="466.65" y="382.1036">uploadRequirementsResponses(jobApplication, String)</text><polygon fill="#181818" points="906.75,411.402,915.75,415.002,906.75,418.602,910.35,415.002" style="stroke:#181818;stroke-width:0.9;"/><line style="stroke:#181818;stroke-width:0.9;" x1="769.05" x2="912.15" y1="415.002" y2="415.002"/><text fill="#000000" font-family="sans-serif" font-size="11.7" lengthAdjust="spacing" textLength="131.4" x="775.35" y="410.2655">updateResponses(String)</text><polygon fill="#181818" points="778.95,439.5639,769.95,443.1639,778.95,446.7639,775.35,443.1639" style="stroke:#181818;stroke-width:0.9;"/><line style="stroke:#181818;stroke-width:0.9;" x1="773.55" x2="921.15" y1="443.1639" y2="443.1639"/><text fill="#000000" font-family="sans-serif" font-size="11.7" lengthAdjust="spacing" textLength="107.1" x="784.35" y="438.4274">"Update Successful"</text><polygon fill="#181818" points="470.25,467.7258,461.25,471.3258,470.25,474.9258,466.65,471.3258" style="stroke:#181818;stroke-width:0.9;"/><line style="stroke:#181818;stroke-width:0.9;stroke-dasharray:2.0,2.0;" x1="464.85" x2="763.65" y1="471.3258" y2="471.3258"/><text fill="#000000" font-family="sans-serif" font-size="11.7" lengthAdjust="spacing" textLength="107.1" x="475.65" y="466.5894">"Update Successful"</text><polygon fill="#181818" points="250.65,495.8877,241.65,499.4877,250.65,503.0877,247.05,499.4877" style="stroke:#181818;stroke-width:0.9;"/><line style="stroke:#181818;stroke-width:0.9;stroke-dasharray:2.0,2.0;" x1="245.25" x2="454.95" y1="499.4877" y2="499.4877"/><text fill="#000000" font-family="sans-serif" font-size="11.7" lengthAdjust="spacing" textLength="107.1" x="256.05" y="494.7513">"Update Successful"</text><polygon fill="#181818" points="42.75,524.0496,33.75,527.6496,42.75,531.2496,39.15,527.6496" style="stroke:#181818;stroke-width:0.9;"/><line style="stroke:#181818;stroke-width:0.9;" x1="37.35" x2="235.35" y1="527.6496" y2="527.6496"/><text fill="#000000" font-family="sans-serif" font-size="11.7" lengthAdjust="spacing" textLength="133.2" x="48.15" y="522.9132">Return success message</text><!--SRC=[bLD1JiCm4Bpx5QkUYaG_W52b2Wcf9wI6Fi1rjiNWsCRU59xFDccmqwGDNABOsfdTcHrBHIx0YySW-KS8BmDffRsq1BEjDqwM6_oiTS0ABSNjUWOomdOzLVZaB0Ld38O6a8vzuCfxevKaxMo1uQWLDkLyVJxsoz_TBaDqfTrPY4u7B9Oy8pp0Adv480UwyYuGA6bBNKf221Yzin65LAIFfnlM91Z3o3GiCnoGiXPnVfSGcIYHOPWXpSyCUstBbJ4vCjCdijh5PVCriPwTmSU-yAKeSPGhdwApu2ySkPBMWrydauSH3Ie2QK5cdWyiBqRBXhIdj60ajiVWaALD511-jnNmfUcDjvOIDhgjke6zCkgPGVE-v7ieA6Xx-FyAwq6-D-VynEaUrvQzpBFRD3abCn6F4IK_S-pbkFmUcv0NjL8Ouxusiul4z7Yknc-QvsRo9k0tGxT1geE5s4AXueyyS9yCpm_s1m00]--></g></svg>