<?xml version="1.0" encoding="us-ascii" standalone="no"?><svg xmlns="http://www.w3.org/2000/svg" xmlns:xlink="http://www.w3.org/1999/xlink" contentStyleType="text/css" height="585.9px" preserveAspectRatio="none" style="width:765px;height:585px;background:#FFFFFF;" version="1.1" viewBox="0 0 765 585" width="765.1px" zoomAndPan="magnify"><defs/><g><rect fill="#FFFFFF" height="439.5084" style="stroke:#181818;stroke-width:0.6999999999999998;" width="7" x="197.75" y="81.8385"/><rect fill="#FFFFFF" height="65.7111" style="stroke:#181818;stroke-width:0.6999999999999998;" width="7" x="351.75" y="103.7422"/><rect fill="#FFFFFF" height="176.426" style="stroke:#181818;stroke-width:0.6999999999999998;" width="7" x="351.75" y="278.9719"/><rect fill="#FFFFFF" height="21.9037" style="stroke:#181818;stroke-width:0.6999999999999998;" width="7" x="591.85" y="125.6459"/><rect fill="#FFFFFF" height="64.8074" style="stroke:#181818;stroke-width:0.6999999999999998;" width="7" x="591.85" y="368.6867"/><rect fill="#FFFFFF" height="21" style="stroke:#181818;stroke-width:0.6999999999999998;" width="7" x="714.35" y="390.5904"/><rect fill="none" height="177.5676" style="stroke:#000000;stroke-width:1.0499999999999998;" width="746.55" x="14" y="338.8793"/><line style="stroke:#181818;stroke-width:0.3499999999999999;stroke-dasharray:5.0,5.0;" x1="42.7" x2="42.7" y1="58.5348" y2="528.3469"/><line style="stroke:#181818;stroke-width:0.3499999999999999;stroke-dasharray:5.0,5.0;" x1="201.25" x2="201.25" y1="58.5348" y2="528.3469"/><line style="stroke:#181818;stroke-width:0.3499999999999999;stroke-dasharray:5.0,5.0;" x1="355.25" x2="355.25" y1="58.5348" y2="528.3469"/><line style="stroke:#181818;stroke-width:0.3499999999999999;stroke-dasharray:5.0,5.0;" x1="595.35" x2="595.35" y1="58.5348" y2="528.3469"/><line style="stroke:#181818;stroke-width:0.3499999999999999;stroke-dasharray:5.0,5.0;" x1="717.85" x2="717.85" y1="58.5348" y2="528.3469"/><text fill="#000000" font-family="sans-serif" font-size="9.8" lengthAdjust="spacing" textLength="39.9" x="21" y="56.0752">Operator</text><ellipse cx="43.05" cy="9.45" fill="#E2E2F0" rx="5.6" ry="5.6" style="stroke:#181818;stroke-width:0.3499999999999999;"/><path d="M43.05,15.05 L43.05,33.95 M33.95,20.65 L52.15,20.65 M43.05,33.95 L33.95,44.45 M43.05,33.95 L52.15,44.45 " fill="none" style="stroke:#181818;stroke-width:0.3499999999999999;"/><text fill="#000000" font-family="sans-serif" font-size="9.8" lengthAdjust="spacing" textLength="39.9" x="21" y="538.2221">Operator</text><ellipse cx="43.05" cy="546.6316" fill="#E2E2F0" rx="5.6" ry="5.6" style="stroke:#181818;stroke-width:0.3499999999999999;"/><path d="M43.05,552.2316 L43.05,571.1316 M33.95,557.8316 L52.15,557.8316 M43.05,571.1316 L33.95,581.6316 M43.05,571.1316 L52.15,581.6316 " fill="none" style="stroke:#181818;stroke-width:0.3499999999999999;"/><rect fill="#E2E2F0" height="22.8348" rx="1.75" ry="1.75" style="stroke:#181818;stroke-width:0.3499999999999999;" width="110.6" x="145.95" y="35"/><text fill="#000000" font-family="sans-serif" font-size="9.8" lengthAdjust="spacing" textLength="100.8" x="150.85" y="50.4752">UploadRequirementsUI</text><rect fill="#E2E2F0" height="22.8348" rx="1.75" ry="1.75" style="stroke:#181818;stroke-width:0.3499999999999999;" width="110.6" x="145.95" y="527.6469"/><text fill="#000000" font-family="sans-serif" font-size="9.8" lengthAdjust="spacing" textLength="100.8" x="150.85" y="543.1221">UploadRequirementsUI</text><rect fill="#E2E2F0" height="22.8348" rx="1.75" ry="1.75" style="stroke:#181818;stroke-width:0.3499999999999999;" width="145.6" x="282.45" y="35"/><text fill="#000000" font-family="sans-serif" font-size="9.8" lengthAdjust="spacing" textLength="135.8" x="287.35" y="50.4752">UploadRequirementsController</text><rect fill="#E2E2F0" height="22.8348" rx="1.75" ry="1.75" style="stroke:#181818;stroke-width:0.3499999999999999;" width="145.6" x="282.45" y="527.6469"/><text fill="#000000" font-family="sans-serif" font-size="9.8" lengthAdjust="spacing" textLength="135.8" x="287.35" y="543.1221">UploadRequirementsController</text><rect fill="#E2E2F0" height="22.8348" rx="1.75" ry="1.75" style="stroke:#181818;stroke-width:0.3499999999999999;" width="91" x="549.85" y="35"/><text fill="#000000" font-family="sans-serif" font-size="9.8" lengthAdjust="spacing" textLength="81.2" x="554.75" y="50.4752">ApplicationService</text><rect fill="#E2E2F0" height="22.8348" rx="1.75" ry="1.75" style="stroke:#181818;stroke-width:0.3499999999999999;" width="91" x="549.85" y="527.6469"/><text fill="#000000" font-family="sans-serif" font-size="9.8" lengthAdjust="spacing" textLength="81.2" x="554.75" y="543.1221">ApplicationService</text><rect fill="#E2E2F0" height="22.8348" rx="1.75" ry="1.75" style="stroke:#181818;stroke-width:0.3499999999999999;" width="71.4" x="682.15" y="35"/><text fill="#000000" font-family="sans-serif" font-size="9.8" lengthAdjust="spacing" textLength="61.6" x="687.05" y="50.4752">jobApplication</text><rect fill="#E2E2F0" height="22.8348" rx="1.75" ry="1.75" style="stroke:#181818;stroke-width:0.3499999999999999;" width="71.4" x="682.15" y="527.6469"/><text fill="#000000" font-family="sans-serif" font-size="9.8" lengthAdjust="spacing" textLength="61.6" x="687.05" y="543.1221">jobApplication</text><rect fill="#FFFFFF" height="439.5084" style="stroke:#181818;stroke-width:0.6999999999999998;" width="7" x="197.75" y="81.8385"/><rect fill="#FFFFFF" height="65.7111" style="stroke:#181818;stroke-width:0.6999999999999998;" width="7" x="351.75" y="103.7422"/><rect fill="#FFFFFF" height="176.426" style="stroke:#181818;stroke-width:0.6999999999999998;" width="7" x="351.75" y="278.9719"/><rect fill="#FFFFFF" height="21.9037" style="stroke:#181818;stroke-width:0.6999999999999998;" width="7" x="591.85" y="125.6459"/><rect fill="#FFFFFF" height="64.8074" style="stroke:#181818;stroke-width:0.6999999999999998;" width="7" x="591.85" y="368.6867"/><rect fill="#FFFFFF" height="21" style="stroke:#181818;stroke-width:0.6999999999999998;" width="7" x="714.35" y="390.5904"/><polygon fill="#181818" points="189.35,79.0385,196.35,81.8385,189.35,84.6385,192.15,81.8385" style="stroke:#181818;stroke-width:0.6999999999999998;"/><line style="stroke:#181818;stroke-width:0.6999999999999998;" x1="43.05" x2="193.55" y1="81.8385" y2="81.8385"/><text fill="#000000" font-family="sans-serif" font-size="9.1" lengthAdjust="spacing" textLength="141.4" x="47.95" y="78.1546">Asks to import candidate response</text><polygon fill="#181818" points="343.35,100.9422,350.35,103.7422,343.35,106.5422,346.15,103.7422" style="stroke:#181818;stroke-width:0.6999999999999998;"/><line style="stroke:#181818;stroke-width:0.6999999999999998;" x1="204.75" x2="347.55" y1="103.7422" y2="103.7422"/><text fill="#000000" font-family="sans-serif" font-size="9.1" lengthAdjust="spacing" textLength="67.9" x="209.65" y="100.0583">getApplications()</text><polygon fill="#181818" points="583.45,122.8459,590.45,125.6459,583.45,128.4459,586.25,125.6459" style="stroke:#181818;stroke-width:0.6999999999999998;"/><line style="stroke:#181818;stroke-width:0.6999999999999998;" x1="358.75" x2="587.65" y1="125.6459" y2="125.6459"/><text fill="#000000" font-family="sans-serif" font-size="9.1" lengthAdjust="spacing" textLength="30.1" x="363.65" y="121.962">findAll()</text><polygon fill="#181818" points="366.45,144.7496,359.45,147.5496,366.45,150.3496,363.65,147.5496" style="stroke:#181818;stroke-width:0.6999999999999998;"/><line style="stroke:#181818;stroke-width:0.6999999999999998;stroke-dasharray:2.0,2.0;" x1="362.25" x2="594.65" y1="147.5496" y2="147.5496"/><text fill="#000000" font-family="sans-serif" font-size="9.1" lengthAdjust="spacing" textLength="130.2" x="370.65" y="143.8657">Iterable&lt;jobApplication&gt; findAll()</text><polygon fill="#181818" points="212.45,166.6533,205.45,169.4533,212.45,172.2533,209.65,169.4533" style="stroke:#181818;stroke-width:0.6999999999999998;"/><line style="stroke:#181818;stroke-width:0.6999999999999998;stroke-dasharray:2.0,2.0;" x1="208.25" x2="354.55" y1="169.4533" y2="169.4533"/><text fill="#000000" font-family="sans-serif" font-size="9.1" lengthAdjust="spacing" textLength="130.2" x="216.65" y="165.7694">Iterable&lt;jobApplication&gt; findAll()</text><polygon fill="#181818" points="50.75,188.557,43.75,191.357,50.75,194.157,47.95,191.357" style="stroke:#181818;stroke-width:0.6999999999999998;"/><line style="stroke:#181818;stroke-width:0.6999999999999998;" x1="46.55" x2="197.05" y1="191.357" y2="191.357"/><text fill="#000000" font-family="sans-serif" font-size="9.1" lengthAdjust="spacing" textLength="117.6" x="54.95" y="187.6731">Asks to select an application</text><polygon fill="#181818" points="189.35,210.4607,196.35,213.2607,189.35,216.0607,192.15,213.2607" style="stroke:#181818;stroke-width:0.6999999999999998;"/><line style="stroke:#181818;stroke-width:0.6999999999999998;" x1="43.05" x2="193.55" y1="213.2607" y2="213.2607"/><text fill="#000000" font-family="sans-serif" font-size="9.1" lengthAdjust="spacing" textLength="84.7" x="47.95" y="209.5769">Select an application</text><polygon fill="#181818" points="50.75,232.3645,43.75,235.1645,50.75,237.9645,47.95,235.1645" style="stroke:#181818;stroke-width:0.6999999999999998;"/><line style="stroke:#181818;stroke-width:0.6999999999999998;" x1="46.55" x2="197.05" y1="235.1645" y2="235.1645"/><text fill="#000000" font-family="sans-serif" font-size="9.1" lengthAdjust="spacing" textLength="47.6" x="54.95" y="231.4806">Request file</text><polygon fill="#181818" points="189.35,254.2682,196.35,257.0682,189.35,259.8682,192.15,257.0682" style="stroke:#181818;stroke-width:0.6999999999999998;"/><line style="stroke:#181818;stroke-width:0.6999999999999998;" x1="43.05" x2="193.55" y1="257.0682" y2="257.0682"/><text fill="#000000" font-family="sans-serif" font-size="9.1" lengthAdjust="spacing" textLength="134.4" x="47.95" y="253.3843">Upload text file with requirements</text><polygon fill="#181818" points="343.35,276.1719,350.35,278.9719,343.35,281.7719,346.15,278.9719" style="stroke:#181818;stroke-width:0.6999999999999998;"/><line style="stroke:#181818;stroke-width:0.6999999999999998;" x1="204.75" x2="347.55" y1="278.9719" y2="278.9719"/><text fill="#000000" font-family="sans-serif" font-size="9.1" lengthAdjust="spacing" textLength="130.9" x="209.65" y="275.288">uploadTextFile(application, path)</text><line style="stroke:#181818;stroke-width:0.6999999999999998;" x1="358.75" x2="388.15" y1="300.8756" y2="300.8756"/><line style="stroke:#181818;stroke-width:0.6999999999999998;" x1="388.15" x2="388.15" y1="300.8756" y2="309.9756"/><line style="stroke:#181818;stroke-width:0.6999999999999998;" x1="359.45" x2="388.15" y1="309.9756" y2="309.9756"/><polygon fill="#181818" points="366.45,307.1756,359.45,309.9756,366.45,312.7756,363.65,309.9756" style="stroke:#181818;stroke-width:0.6999999999999998;"/><text fill="#000000" font-family="sans-serif" font-size="9.1" lengthAdjust="spacing" textLength="86.8" x="363.65" y="297.1917">passGrammar(String)</text><path d="M14,338.8793 L56.7,338.8793 L56.7,345.383 L49.7,352.383 L14,352.383 L14,338.8793 " fill="#EEEEEE" style="stroke:#000000;stroke-width:1.0499999999999998;"/><rect fill="none" height="177.5676" style="stroke:#000000;stroke-width:1.0499999999999998;" width="746.55" x="14" y="338.8793"/><text fill="#000000" font-family="sans-serif" font-size="9.1" font-weight="bold" lengthAdjust="spacing" textLength="11.2" x="24.5" y="349.3991">alt</text><text fill="#000000" font-family="sans-serif" font-size="7.7" font-weight="bold" lengthAdjust="spacing" textLength="53.2" x="67.2" y="348.5884">[if file is valid]</text><polygon fill="#181818" points="583.45,365.8867,590.45,368.6867,583.45,371.4867,586.25,368.6867" style="stroke:#181818;stroke-width:0.6999999999999998;"/><line style="stroke:#181818;stroke-width:0.6999999999999998;" x1="358.75" x2="587.65" y1="368.6867" y2="368.6867"/><text fill="#000000" font-family="sans-serif" font-size="9.1" lengthAdjust="spacing" textLength="219.8" x="363.65" y="365.0028">uploadRequirementsResponses(jobApplication, String)</text><polygon fill="#181818" points="705.95,387.7904,712.95,390.5904,705.95,393.3904,708.75,390.5904" style="stroke:#181818;stroke-width:0.6999999999999998;"/><line style="stroke:#181818;stroke-width:0.6999999999999998;" x1="598.85" x2="710.15" y1="390.5904" y2="390.5904"/><text fill="#000000" font-family="sans-serif" font-size="9.1" lengthAdjust="spacing" textLength="102.2" x="603.75" y="386.9065">updateResponses(String)</text><polygon fill="#181818" points="366.45,430.6941,359.45,433.4941,366.45,436.2941,363.65,433.4941" style="stroke:#181818;stroke-width:0.6999999999999998;"/><line style="stroke:#181818;stroke-width:0.6999999999999998;stroke-dasharray:2.0,2.0;" x1="362.25" x2="594.65" y1="433.4941" y2="433.4941"/><text fill="#000000" font-family="sans-serif" font-size="9.1" lengthAdjust="spacing" textLength="83.3" x="370.65" y="429.8103">"Update Successful"</text><polygon fill="#181818" points="212.45,452.5979,205.45,455.3979,212.45,458.1979,209.65,455.3979" style="stroke:#181818;stroke-width:0.6999999999999998;"/><line style="stroke:#181818;stroke-width:0.6999999999999998;stroke-dasharray:2.0,2.0;" x1="208.25" x2="354.55" y1="455.3979" y2="455.3979"/><text fill="#000000" font-family="sans-serif" font-size="9.1" lengthAdjust="spacing" textLength="83.3" x="216.65" y="451.714">"Update Successful"</text><polygon fill="#181818" points="50.75,474.5016,43.75,477.3016,50.75,480.1016,47.95,477.3016" style="stroke:#181818;stroke-width:0.6999999999999998;"/><line style="stroke:#181818;stroke-width:0.6999999999999998;" x1="46.55" x2="197.05" y1="477.3016" y2="477.3016"/><text fill="#000000" font-family="sans-serif" font-size="9.1" lengthAdjust="spacing" textLength="103.6" x="54.95" y="473.6177">Return success message</text><line style="stroke:#000000;stroke-width:0.6999999999999998;stroke-dasharray:2.0,2.0;" x1="14" x2="760.55" y1="483.6016" y2="483.6016"/><text fill="#000000" font-family="sans-serif" font-size="7.7" font-weight="bold" lengthAdjust="spacing" textLength="60.2" x="17.5" y="491.9106">[if file is invalid]</text><polygon fill="#181818" points="212.45,508.0469,205.45,510.8469,212.45,513.6469,209.65,510.8469" style="stroke:#181818;stroke-width:0.6999999999999998;"/><line style="stroke:#181818;stroke-width:0.6999999999999998;stroke-dasharray:2.0,2.0;" x1="208.25" x2="354.55" y1="510.8469" y2="510.8469"/><text fill="#000000" font-family="sans-serif" font-size="9.1" lengthAdjust="spacing" textLength="87.5" x="216.65" y="507.163">Return error message</text><!--SRC=[bLHDJ-Cm4BtxLunwAXBy0OGgLKYxwWc9RhaRPrgyEBRNddJtvpD9S3sXAGivL7Kyxyt7UnDjA2HuY9Wq_r5H9xB6Hkq95hleWcuUyKzd4xReAUys2z0PTfl_1Tu7JoauXsa0rECKk8xHMQF91h_5TBG6Xt1-_NwSXlyEpm9HGijPgT86tAouHhY5TNxDG05i6qCYCDetjj64a337u3CgRSWU-pVSas8C8sknp7104YdoygeYH5DAO9YXriyCU-kRjNCIAVfJ8lRcO_8DSJ_F3k-cZQy4PuEphBAUCepliSdknhcSfbldcj6X8T0UjD3XJ8RjRDWvRUyWpCG5EJnd6Lq6XF_62FXhwOMLhAwRLR0ROByOzOD1Ir71DKHDBrzIj9vk6PJppwJRLgVbbfBrXokbj2Fe-U49azsN5e6V_iRknufjXgDsjXak-kSJttHdI_NuRjgyd2fu3QMCGZldYN8d3RUI-pFaxBUZvlcCj-fukfwQiGRCfVue4tz4XitSTiPWpllEBIxmdam-DyHYbY_IISNBzOmjgKiUyaW5BV_empXGT1cbkjPVrdSexSI6AJ6vvBfS6lf6hYP_gju0]--></g></svg>