<?xml version="1.0" encoding="us-ascii" standalone="no"?><svg xmlns="http://www.w3.org/2000/svg" xmlns:xlink="http://www.w3.org/1999/xlink" contentStyleType="text/css" height="627.9px" preserveAspectRatio="none" style="width:884px;height:627px;background:#FFFFFF;" version="1.1" viewBox="0 0 884 627" width="884.1px" zoomAndPan="magnify"><defs/><g><!--cluster InterviewModelAgg--><g id="cluster_InterviewModelAgg"><path d="M5.95,17.1596 L102.55,17.1596 A2.625,2.625 0 0 1 104.3,18.9096 L109.2,34.3943 L268.45,34.3943 A1.75,1.75 0 0 1 270.2,36.1443 L270.2,217.0096 A1.75,1.75 0 0 1 268.45,218.7596 L5.95,218.7596 A1.75,1.75 0 0 1 4.2,217.0096 L4.2,18.9096 A1.75,1.75 0 0 1 5.95,17.1596 " fill="none" style="stroke:#000000;stroke-width:1.0499999999999998;"/><line style="stroke:#000000;stroke-width:1.0499999999999998;" x1="4.2" x2="109.2" y1="34.3943" y2="34.3943"/><text fill="#000000" font-family="sans-serif" font-size="9.8" font-weight="bold" lengthAdjust="spacing" textLength="95.9" x="7" y="29.1348">InterviewModelAgg</text></g><!--cluster JobApplicationAgg--><g id="cluster_JobApplicationAgg"><path d="M634.55,4.2096 L726.95,4.2096 A2.625,2.625 0 0 1 728.7,5.9596 L733.6,21.4443 L877.45,21.4443 A1.75,1.75 0 0 1 879.2,23.1943 L879.2,339.1596 A1.75,1.75 0 0 1 877.45,340.9096 L634.55,340.9096 A1.75,1.75 0 0 1 632.8,339.1596 L632.8,5.9596 A1.75,1.75 0 0 1 634.55,4.2096 " fill="none" style="stroke:#000000;stroke-width:1.0499999999999998;"/><line style="stroke:#000000;stroke-width:1.0499999999999998;" x1="632.8" x2="733.6" y1="21.4443" y2="21.4443"/><text fill="#000000" font-family="sans-serif" font-size="9.8" font-weight="bold" lengthAdjust="spacing" textLength="91.7" x="635.6" y="16.1848">JobApplicationAgg</text></g><!--cluster JobOpeningAgg--><g id="cluster_JobOpeningAgg"><path d="M288.75,135.1096 L368.55,135.1096 A2.625,2.625 0 0 1 370.3,136.8596 L375.2,152.3443 L614.25,152.3443 A1.75,1.75 0 0 1 616,154.0943 L616,621.6096 A1.75,1.75 0 0 1 614.25,623.3596 L288.75,623.3596 A1.75,1.75 0 0 1 287,621.6096 L287,136.8596 A1.75,1.75 0 0 1 288.75,135.1096 " fill="none" style="stroke:#000000;stroke-width:1.0499999999999998;"/><line style="stroke:#000000;stroke-width:1.0499999999999998;" x1="287" x2="375.2" y1="152.3443" y2="152.3443"/><text fill="#000000" font-family="sans-serif" font-size="9.8" font-weight="bold" lengthAdjust="spacing" textLength="79.1" x="289.8" y="147.0848">JobOpeningAgg</text></g><!--class InterviewModel--><g id="elem_InterviewModel"><rect codeLine="5" fill="#F1F1F1" height="33.6" id="InterviewModel" rx="1.75" ry="1.75" style="stroke:#181818;stroke-width:0.3499999999999999;" width="87.5" x="131.25" y="43.0596"/><ellipse cx="141.75" cy="54.2596" fill="#ADD1B2" rx="7.7" ry="7.7" style="stroke:#181818;stroke-width:0.6999999999999998;"/><path d="M143.6859,51.3721 Q143.7953,51.2189 143.9266,51.1424 Q144.0578,51.0658 144.2109,51.0658 Q144.4734,51.0658 144.6375,51.2518 Q144.8016,51.4268 144.8016,51.8533 L144.8016,52.8705 Q144.8016,53.2971 144.6375,53.483 Q144.4734,53.6689 144.2109,53.6689 Q143.9703,53.6689 143.8281,53.5268 Q143.6859,53.3955 143.6094,53.0346 Q143.5766,52.783 143.4453,52.6518 Q143.2156,52.3893 142.7891,52.2361 Q142.3625,52.083 141.925,52.083 Q141.3891,52.083 140.9406,52.3127 Q140.5031,52.5424 140.1531,53.0674 Q139.8141,53.5924 139.8141,54.3143 L139.8141,55.0799 Q139.8141,55.9439 140.4375,56.5236 Q141.0609,57.0924 142.1766,57.0924 Q142.8328,57.0924 143.2922,56.9174 Q143.5656,56.808 143.8609,56.5018 Q144.0469,56.3158 144.1453,56.2611 Q144.2547,56.2064 144.3969,56.2064 Q144.6266,56.2064 144.8016,56.3924 Q144.9875,56.5674 144.9875,56.808 Q144.9875,57.0486 144.7469,57.333 Q144.3969,57.7377 143.8391,57.9674 Q143.0844,58.2846 142.1766,58.2846 Q141.1156,58.2846 140.2734,57.8471 Q139.5844,57.4971 139.1031,56.7533 Q138.6219,55.9986 138.6219,55.1018 L138.6219,54.2924 Q138.6219,53.3627 139.0484,52.5643 Q139.4859,51.7549 140.2516,51.3283 Q141.0172,50.8908 141.8812,50.8908 Q142.3953,50.8908 142.8437,51.0111 Q143.3031,51.1205 143.6859,51.3721 Z " fill="#000000"/><text fill="#000000" font-family="sans-serif" font-size="9.8" lengthAdjust="spacing" textLength="65.1" x="151.55" y="58.3174">InterviewModel</text><line style="stroke:#181818;stroke-width:0.3499999999999999;" x1="131.95" x2="218.05" y1="65.4596" y2="65.4596"/><line style="stroke:#181818;stroke-width:0.3499999999999999;" x1="131.95" x2="218.05" y1="71.0596" y2="71.0596"/></g><!--class SpecName--><g id="elem_SpecName"><rect codeLine="10" fill="#F1F1F1" height="33.6" id="SpecName" rx="1.75" ry="1.75" style="stroke:#181818;stroke-width:0.3499999999999999;" width="70" x="15.4" y="173.9596"/><ellipse cx="25.9" cy="185.1596" fill="#ADD1B2" rx="7.7" ry="7.7" style="stroke:#181818;stroke-width:0.6999999999999998;"/><path d="M27.8359,182.2721 Q27.9453,182.1189 28.0766,182.0424 Q28.2078,181.9658 28.3609,181.9658 Q28.6234,181.9658 28.7875,182.1518 Q28.9516,182.3268 28.9516,182.7533 L28.9516,183.7705 Q28.9516,184.1971 28.7875,184.383 Q28.6234,184.5689 28.3609,184.5689 Q28.1203,184.5689 27.9781,184.4268 Q27.8359,184.2955 27.7594,183.9346 Q27.7266,183.683 27.5953,183.5518 Q27.3656,183.2893 26.9391,183.1361 Q26.5125,182.983 26.075,182.983 Q25.5391,182.983 25.0906,183.2127 Q24.6531,183.4424 24.3031,183.9674 Q23.9641,184.4924 23.9641,185.2143 L23.9641,185.9799 Q23.9641,186.8439 24.5875,187.4236 Q25.2109,187.9924 26.3266,187.9924 Q26.9828,187.9924 27.4422,187.8174 Q27.7156,187.708 28.0109,187.4018 Q28.1969,187.2158 28.2953,187.1611 Q28.4047,187.1064 28.5469,187.1064 Q28.7766,187.1064 28.9516,187.2924 Q29.1375,187.4674 29.1375,187.708 Q29.1375,187.9486 28.8969,188.233 Q28.5469,188.6377 27.9891,188.8674 Q27.2344,189.1846 26.3266,189.1846 Q25.2656,189.1846 24.4234,188.7471 Q23.7344,188.3971 23.2531,187.6533 Q22.7719,186.8986 22.7719,186.0018 L22.7719,185.1924 Q22.7719,184.2627 23.1984,183.4643 Q23.6359,182.6549 24.4016,182.2283 Q25.1672,181.7908 26.0312,181.7908 Q26.5453,181.7908 26.9937,181.9111 Q27.4531,182.0205 27.8359,182.2721 Z " fill="#000000"/><text fill="#000000" font-family="sans-serif" font-size="9.8" lengthAdjust="spacing" textLength="47.6" x="35.7" y="189.2174">SpecName</text><line style="stroke:#181818;stroke-width:0.3499999999999999;" x1="16.1" x2="84.7" y1="196.3596" y2="196.3596"/><line style="stroke:#181818;stroke-width:0.3499999999999999;" x1="16.1" x2="84.7" y1="201.9596" y2="201.9596"/></g><!--class JarFile--><g id="elem_JarFile"><rect codeLine="16" fill="#F1F1F1" height="33.6" id="JarFile" rx="1.75" ry="1.75" style="stroke:#181818;stroke-width:0.3499999999999999;" width="51.8" x="109.9" y="173.9596"/><ellipse cx="120.4" cy="185.1596" fill="#ADD1B2" rx="7.7" ry="7.7" style="stroke:#181818;stroke-width:0.6999999999999998;"/><path d="M122.3359,182.2721 Q122.4453,182.1189 122.5766,182.0424 Q122.7078,181.9658 122.8609,181.9658 Q123.1234,181.9658 123.2875,182.1518 Q123.4516,182.3268 123.4516,182.7533 L123.4516,183.7705 Q123.4516,184.1971 123.2875,184.383 Q123.1234,184.5689 122.8609,184.5689 Q122.6203,184.5689 122.4781,184.4268 Q122.3359,184.2955 122.2594,183.9346 Q122.2266,183.683 122.0953,183.5518 Q121.8656,183.2893 121.4391,183.1361 Q121.0125,182.983 120.575,182.983 Q120.0391,182.983 119.5906,183.2127 Q119.1531,183.4424 118.8031,183.9674 Q118.4641,184.4924 118.4641,185.2143 L118.4641,185.9799 Q118.4641,186.8439 119.0875,187.4236 Q119.7109,187.9924 120.8266,187.9924 Q121.4828,187.9924 121.9422,187.8174 Q122.2156,187.708 122.5109,187.4018 Q122.6969,187.2158 122.7953,187.1611 Q122.9047,187.1064 123.0469,187.1064 Q123.2766,187.1064 123.4516,187.2924 Q123.6375,187.4674 123.6375,187.708 Q123.6375,187.9486 123.3969,188.233 Q123.0469,188.6377 122.4891,188.8674 Q121.7344,189.1846 120.8266,189.1846 Q119.7656,189.1846 118.9234,188.7471 Q118.2344,188.3971 117.7531,187.6533 Q117.2719,186.8986 117.2719,186.0018 L117.2719,185.1924 Q117.2719,184.2627 117.6984,183.4643 Q118.1359,182.6549 118.9016,182.2283 Q119.6672,181.7908 120.5312,181.7908 Q121.0453,181.7908 121.4937,181.9111 Q121.9531,182.0205 122.3359,182.2721 Z " fill="#000000"/><text fill="#000000" font-family="sans-serif" font-size="9.8" lengthAdjust="spacing" textLength="29.4" x="130.2" y="189.2174">JarFile</text><line style="stroke:#181818;stroke-width:0.3499999999999999;" x1="110.6" x2="161" y1="196.3596" y2="196.3596"/><line style="stroke:#181818;stroke-width:0.3499999999999999;" x1="110.6" x2="161" y1="201.9596" y2="201.9596"/></g><!--class Description--><g id="elem_Description"><rect codeLine="22" fill="#F1F1F1" height="33.6" id="Description" rx="1.75" ry="1.75" style="stroke:#181818;stroke-width:0.3499999999999999;" width="72.1" x="186.55" y="173.9596"/><ellipse cx="197.05" cy="185.1596" fill="#ADD1B2" rx="7.7" ry="7.7" style="stroke:#181818;stroke-width:0.6999999999999998;"/><path d="M198.9859,182.2721 Q199.0953,182.1189 199.2266,182.0424 Q199.3578,181.9658 199.5109,181.9658 Q199.7734,181.9658 199.9375,182.1518 Q200.1016,182.3268 200.1016,182.7533 L200.1016,183.7705 Q200.1016,184.1971 199.9375,184.383 Q199.7734,184.5689 199.5109,184.5689 Q199.2703,184.5689 199.1281,184.4268 Q198.9859,184.2955 198.9094,183.9346 Q198.8766,183.683 198.7453,183.5518 Q198.5156,183.2893 198.0891,183.1361 Q197.6625,182.983 197.225,182.983 Q196.6891,182.983 196.2406,183.2127 Q195.8031,183.4424 195.4531,183.9674 Q195.1141,184.4924 195.1141,185.2143 L195.1141,185.9799 Q195.1141,186.8439 195.7375,187.4236 Q196.3609,187.9924 197.4766,187.9924 Q198.1328,187.9924 198.5922,187.8174 Q198.8656,187.708 199.1609,187.4018 Q199.3469,187.2158 199.4453,187.1611 Q199.5547,187.1064 199.6969,187.1064 Q199.9266,187.1064 200.1016,187.2924 Q200.2875,187.4674 200.2875,187.708 Q200.2875,187.9486 200.0469,188.233 Q199.6969,188.6377 199.1391,188.8674 Q198.3844,189.1846 197.4766,189.1846 Q196.4156,189.1846 195.5734,188.7471 Q194.8844,188.3971 194.4031,187.6533 Q193.9219,186.8986 193.9219,186.0018 L193.9219,185.1924 Q193.9219,184.2627 194.3484,183.4643 Q194.7859,182.6549 195.5516,182.2283 Q196.3172,181.7908 197.1812,181.7908 Q197.6953,181.7908 198.1437,181.9111 Q198.6031,182.0205 198.9859,182.2721 Z " fill="#000000"/><text fill="#000000" font-family="sans-serif" font-size="9.8" lengthAdjust="spacing" textLength="49.7" x="206.85" y="189.2174">Description</text><line style="stroke:#181818;stroke-width:0.3499999999999999;" x1="187.25" x2="257.95" y1="196.3596" y2="196.3596"/><line style="stroke:#181818;stroke-width:0.3499999999999999;" x1="187.25" x2="257.95" y1="201.9596" y2="201.9596"/></g><!--class JobApplication--><g id="elem_JobApplication"><rect codeLine="35" fill="#F1F1F1" height="59.6695" id="JobApplication" rx="1.75" ry="1.75" style="stroke:#181818;stroke-width:0.3499999999999999;" width="86.1" x="644.35" y="30.1096"/><ellipse cx="654.85" cy="41.3096" fill="#ADD1B2" rx="7.7" ry="7.7" style="stroke:#181818;stroke-width:0.6999999999999998;"/><path d="M656.7859,38.4221 Q656.8953,38.2689 657.0266,38.1924 Q657.1578,38.1158 657.3109,38.1158 Q657.5734,38.1158 657.7375,38.3018 Q657.9016,38.4768 657.9016,38.9033 L657.9016,39.9205 Q657.9016,40.3471 657.7375,40.533 Q657.5734,40.7189 657.3109,40.7189 Q657.0703,40.7189 656.9281,40.5768 Q656.7859,40.4455 656.7094,40.0846 Q656.6766,39.833 656.5453,39.7018 Q656.3156,39.4393 655.8891,39.2861 Q655.4625,39.133 655.025,39.133 Q654.4891,39.133 654.0406,39.3627 Q653.6031,39.5924 653.2531,40.1174 Q652.9141,40.6424 652.9141,41.3643 L652.9141,42.1299 Q652.9141,42.9939 653.5375,43.5736 Q654.1609,44.1424 655.2766,44.1424 Q655.9328,44.1424 656.3922,43.9674 Q656.6656,43.858 656.9609,43.5518 Q657.1469,43.3658 657.2453,43.3111 Q657.3547,43.2564 657.4969,43.2564 Q657.7266,43.2564 657.9016,43.4424 Q658.0875,43.6174 658.0875,43.858 Q658.0875,44.0986 657.8469,44.383 Q657.4969,44.7877 656.9391,45.0174 Q656.1844,45.3346 655.2766,45.3346 Q654.2156,45.3346 653.3734,44.8971 Q652.6844,44.5471 652.2031,43.8033 Q651.7219,43.0486 651.7219,42.1518 L651.7219,41.3424 Q651.7219,40.4127 652.1484,39.6143 Q652.5859,38.8049 653.3516,38.3783 Q654.1172,37.9408 654.9812,37.9408 Q655.4953,37.9408 655.9437,38.0611 Q656.4031,38.1705 656.7859,38.4221 Z " fill="#000000"/><text fill="#000000" font-family="sans-serif" font-size="9.8" lengthAdjust="spacing" textLength="63.7" x="664.65" y="45.3674">JobApplication</text><line style="stroke:#181818;stroke-width:0.3499999999999999;" x1="645.05" x2="729.75" y1="52.5096" y2="52.5096"/><ellipse cx="652.05" cy="62.877" fill="none" rx="2.1" ry="2.1" style="stroke:#038048;stroke-width:0.6999999999999998;"/><text fill="#000000" font-family="sans-serif" font-size="9.8" lengthAdjust="spacing" textLength="35.7" x="658.35" y="65.8848">id: Long</text><ellipse cx="652.05" cy="75.9117" fill="none" rx="2.1" ry="2.1" style="stroke:#038048;stroke-width:0.6999999999999998;"/><text fill="#000000" font-family="sans-serif" font-size="9.8" lengthAdjust="spacing" textLength="65.8" x="658.35" y="78.9195">files: List&lt;File&gt;</text><line style="stroke:#181818;stroke-width:0.3499999999999999;" x1="645.05" x2="729.75" y1="84.1791" y2="84.1791"/></g><!--class File--><g id="elem_File"><rect codeLine="40" fill="#F1F1F1" height="72.7043" id="File" rx="1.75" ry="1.75" style="stroke:#181818;stroke-width:0.3499999999999999;" width="84" x="645.4" y="154.3596"/><ellipse cx="676.375" cy="165.5596" fill="#ADD1B2" rx="7.7" ry="7.7" style="stroke:#181818;stroke-width:0.6999999999999998;"/><path d="M678.3109,162.6721 Q678.4203,162.5189 678.5516,162.4424 Q678.6828,162.3658 678.8359,162.3658 Q679.0984,162.3658 679.2625,162.5518 Q679.4266,162.7268 679.4266,163.1533 L679.4266,164.1705 Q679.4266,164.5971 679.2625,164.783 Q679.0984,164.9689 678.8359,164.9689 Q678.5953,164.9689 678.4531,164.8268 Q678.3109,164.6955 678.2344,164.3346 Q678.2016,164.083 678.0703,163.9518 Q677.8406,163.6893 677.4141,163.5361 Q676.9875,163.383 676.55,163.383 Q676.0141,163.383 675.5656,163.6127 Q675.1281,163.8424 674.7781,164.3674 Q674.4391,164.8924 674.4391,165.6143 L674.4391,166.3799 Q674.4391,167.2439 675.0625,167.8236 Q675.6859,168.3924 676.8016,168.3924 Q677.4578,168.3924 677.9172,168.2174 Q678.1906,168.108 678.4859,167.8018 Q678.6719,167.6158 678.7703,167.5611 Q678.8797,167.5064 679.0219,167.5064 Q679.2516,167.5064 679.4266,167.6924 Q679.6125,167.8674 679.6125,168.108 Q679.6125,168.3486 679.3719,168.633 Q679.0219,169.0377 678.4641,169.2674 Q677.7094,169.5846 676.8016,169.5846 Q675.7406,169.5846 674.8984,169.1471 Q674.2094,168.7971 673.7281,168.0533 Q673.2469,167.2986 673.2469,166.4018 L673.2469,165.5924 Q673.2469,164.6627 673.6734,163.8643 Q674.1109,163.0549 674.8766,162.6283 Q675.6422,162.1908 676.5062,162.1908 Q677.0203,162.1908 677.4687,162.3111 Q677.9281,162.4205 678.3109,162.6721 Z " fill="#000000"/><text fill="#000000" font-family="sans-serif" font-size="9.8" lengthAdjust="spacing" textLength="16.1" x="690.725" y="169.6174">File</text><line style="stroke:#181818;stroke-width:0.3499999999999999;" x1="646.1" x2="728.7" y1="176.7596" y2="176.7596"/><ellipse cx="653.1" cy="187.127" fill="none" rx="2.1" ry="2.1" style="stroke:#038048;stroke-width:0.6999999999999998;"/><text fill="#000000" font-family="sans-serif" font-size="9.8" lengthAdjust="spacing" textLength="35" x="659.4" y="190.1348">id : long</text><ellipse cx="653.1" cy="200.1617" fill="none" rx="2.1" ry="2.1" style="stroke:#038048;stroke-width:0.6999999999999998;"/><text fill="#000000" font-family="sans-serif" font-size="9.8" lengthAdjust="spacing" textLength="64.4" x="659.4" y="203.1695">path : FilePath</text><ellipse cx="653.1" cy="213.1965" fill="none" rx="2.1" ry="2.1" style="stroke:#038048;stroke-width:0.6999999999999998;"/><text fill="#000000" font-family="sans-serif" font-size="9.8" lengthAdjust="spacing" textLength="65.8" x="659.4" y="216.2043">type : FileType</text><line style="stroke:#181818;stroke-width:0.3499999999999999;" x1="646.1" x2="728.7" y1="221.4639" y2="221.4639"/></g><!--class FilePath--><g id="elem_FilePath"><rect codeLine="47" fill="#F1F1F1" height="46.6348" id="FilePath" rx="1.75" ry="1.75" style="stroke:#181818;stroke-width:0.3499999999999999;" width="69.3" x="644.35" y="282.8096"/><ellipse cx="659.575" cy="294.0096" fill="#ADD1B2" rx="7.7" ry="7.7" style="stroke:#181818;stroke-width:0.6999999999999998;"/><path d="M661.5109,291.1221 Q661.6203,290.9689 661.7516,290.8924 Q661.8828,290.8158 662.0359,290.8158 Q662.2984,290.8158 662.4625,291.0018 Q662.6266,291.1768 662.6266,291.6033 L662.6266,292.6205 Q662.6266,293.0471 662.4625,293.233 Q662.2984,293.4189 662.0359,293.4189 Q661.7953,293.4189 661.6531,293.2768 Q661.5109,293.1455 661.4344,292.7846 Q661.4016,292.533 661.2703,292.4018 Q661.0406,292.1393 660.6141,291.9861 Q660.1875,291.833 659.75,291.833 Q659.2141,291.833 658.7656,292.0627 Q658.3281,292.2924 657.9781,292.8174 Q657.6391,293.3424 657.6391,294.0643 L657.6391,294.8299 Q657.6391,295.6939 658.2625,296.2736 Q658.8859,296.8424 660.0016,296.8424 Q660.6578,296.8424 661.1172,296.6674 Q661.3906,296.558 661.6859,296.2518 Q661.8719,296.0658 661.9703,296.0111 Q662.0797,295.9564 662.2219,295.9564 Q662.4516,295.9564 662.6266,296.1424 Q662.8125,296.3174 662.8125,296.558 Q662.8125,296.7986 662.5719,297.083 Q662.2219,297.4877 661.6641,297.7174 Q660.9094,298.0346 660.0016,298.0346 Q658.9406,298.0346 658.0984,297.5971 Q657.4094,297.2471 656.9281,296.5033 Q656.4469,295.7486 656.4469,294.8518 L656.4469,294.0424 Q656.4469,293.1127 656.8734,292.3143 Q657.3109,291.5049 658.0766,291.0783 Q658.8422,290.6408 659.7062,290.6408 Q660.2203,290.6408 660.6687,290.7611 Q661.1281,290.8705 661.5109,291.1221 Z " fill="#000000"/><text fill="#000000" font-family="sans-serif" font-size="9.8" lengthAdjust="spacing" textLength="36.4" x="670.425" y="298.0674">FilePath</text><line style="stroke:#181818;stroke-width:0.3499999999999999;" x1="645.05" x2="712.95" y1="305.2096" y2="305.2096"/><ellipse cx="652.05" cy="315.577" fill="none" rx="2.1" ry="2.1" style="stroke:#038048;stroke-width:0.6999999999999998;"/><text fill="#000000" font-family="sans-serif" font-size="9.8" lengthAdjust="spacing" textLength="51.1" x="658.35" y="318.5848">path: String</text><line style="stroke:#181818;stroke-width:0.3499999999999999;" x1="645.05" x2="712.95" y1="323.8443" y2="323.8443"/></g><!--class FileType--><g id="elem_FileType"><rect codeLine="51" fill="#F1F1F1" height="46.6348" id="FileType" rx="1.75" ry="1.75" style="stroke:#181818;stroke-width:0.3499999999999999;" width="129.5" x="738.15" y="282.8096"/><ellipse cx="780.675" cy="294.0096" fill="#EB937F" rx="7.7" ry="7.7" style="stroke:#181818;stroke-width:0.6999999999999998;"/><path d="M779.8766,294.5674 L779.8766,296.3174 L782.9062,296.3174 L782.9062,295.6721 Q782.9062,295.2455 783.0703,295.0596 Q783.2453,294.8736 783.5078,294.8736 Q783.7703,294.8736 783.9344,295.0596 Q784.0984,295.2455 784.0984,295.6721 L784.0984,297.5096 L778.4984,297.5096 Q778.0609,297.5096 777.875,297.3455 Q777.7,297.1814 777.7,296.908 Q777.7,296.6455 777.8859,296.4814 Q778.0719,296.3174 778.4984,296.3174 L778.6844,296.3174 L778.6844,291.658 L778.4984,291.658 Q778.0609,291.658 777.875,291.4939 Q777.7,291.3299 777.7,291.0564 Q777.7,290.7939 777.875,290.6299 Q778.0609,290.4658 778.4984,290.4658 L783.8359,290.4658 L783.8359,292.2814 Q783.8359,292.708 783.6719,292.8939 Q783.5187,293.0689 783.2453,293.0689 Q782.9828,293.0689 782.8187,292.8939 Q782.6547,292.708 782.6547,292.2814 L782.6547,291.658 L779.8766,291.658 L779.8766,293.3752 L780.9156,293.3752 Q780.9156,292.9158 781.0031,292.7846 Q781.1891,292.5002 781.5172,292.5002 Q781.7797,292.5002 781.9437,292.6861 Q782.1078,292.8611 782.1078,293.2877 L782.1078,294.6658 Q782.1078,295.0486 782.0203,295.1799 Q781.8344,295.4533 781.5172,295.4533 Q781.1891,295.4533 781.0031,295.1689 Q780.9156,295.0377 780.9156,294.5674 L779.8766,294.5674 Z " fill="#000000"/><text fill="#000000" font-family="sans-serif" font-size="9.8" lengthAdjust="spacing" textLength="38.5" x="795.025" y="298.0674">FileType</text><line style="stroke:#181818;stroke-width:0.3499999999999999;" x1="738.85" x2="866.95" y1="305.2096" y2="305.2096"/><text fill="#000000" font-family="sans-serif" font-size="9.8" lengthAdjust="spacing" textLength="121.1" x="742.35" y="318.5848">CandidateInterviewAnswers</text><line style="stroke:#181818;stroke-width:0.3499999999999999;" x1="738.85" x2="866.95" y1="323.8443" y2="323.8443"/></g><!--class JobOpening--><g id="elem_JobOpening"><rect codeLine="64" fill="#F1F1F1" height="59.6695" id="JobOpening" rx="1.75" ry="1.75" style="stroke:#181818;stroke-width:0.3499999999999999;" width="198.1" x="352.45" y="161.0096"/><ellipse cx="421.925" cy="172.2096" fill="#ADD1B2" rx="7.7" ry="7.7" style="stroke:#181818;stroke-width:0.6999999999999998;"/><path d="M423.8609,169.3221 Q423.9703,169.1689 424.1016,169.0924 Q424.2328,169.0158 424.3859,169.0158 Q424.6484,169.0158 424.8125,169.2018 Q424.9766,169.3768 424.9766,169.8033 L424.9766,170.8205 Q424.9766,171.2471 424.8125,171.433 Q424.6484,171.6189 424.3859,171.6189 Q424.1453,171.6189 424.0031,171.4768 Q423.8609,171.3455 423.7844,170.9846 Q423.7516,170.733 423.6203,170.6018 Q423.3906,170.3393 422.9641,170.1861 Q422.5375,170.033 422.1,170.033 Q421.5641,170.033 421.1156,170.2627 Q420.6781,170.4924 420.3281,171.0174 Q419.9891,171.5424 419.9891,172.2643 L419.9891,173.0299 Q419.9891,173.8939 420.6125,174.4736 Q421.2359,175.0424 422.3516,175.0424 Q423.0078,175.0424 423.4672,174.8674 Q423.7406,174.758 424.0359,174.4518 Q424.2219,174.2658 424.3203,174.2111 Q424.4297,174.1564 424.5719,174.1564 Q424.8016,174.1564 424.9766,174.3424 Q425.1625,174.5174 425.1625,174.758 Q425.1625,174.9986 424.9219,175.283 Q424.5719,175.6877 424.0141,175.9174 Q423.2594,176.2346 422.3516,176.2346 Q421.2906,176.2346 420.4484,175.7971 Q419.7594,175.4471 419.2781,174.7033 Q418.7969,173.9486 418.7969,173.0518 L418.7969,172.2424 Q418.7969,171.3127 419.2234,170.5143 Q419.6609,169.7049 420.4266,169.2783 Q421.1922,168.8408 422.0562,168.8408 Q422.5703,168.8408 423.0187,168.9611 Q423.4781,169.0705 423.8609,169.3221 Z " fill="#000000"/><text fill="#000000" font-family="sans-serif" font-size="9.8" lengthAdjust="spacing" textLength="53.2" x="436.275" y="176.2674">JobOpening</text><line style="stroke:#181818;stroke-width:0.3499999999999999;" x1="353.15" x2="549.85" y1="183.4096" y2="183.4096"/><ellipse cx="360.15" cy="193.777" fill="none" rx="2.1" ry="2.1" style="stroke:#038048;stroke-width:0.6999999999999998;"/><text fill="#000000" font-family="sans-serif" font-size="9.8" lengthAdjust="spacing" textLength="74.9" x="366.45" y="196.7848">id: JobReference</text><ellipse cx="360.15" cy="206.8117" fill="none" rx="2.1" ry="2.1" style="stroke:#038048;stroke-width:0.6999999999999998;"/><text fill="#000000" font-family="sans-serif" font-size="9.8" lengthAdjust="spacing" textLength="179.9" x="366.45" y="209.8195">recruitmentProcess: RecruitmentProcess</text><line style="stroke:#181818;stroke-width:0.3499999999999999;" x1="353.15" x2="549.85" y1="215.0791" y2="215.0791"/></g><!--class JobReference--><g id="elem_JobReference"><rect codeLine="69" fill="#F1F1F1" height="59.6695" id="JobReference" rx="1.75" ry="1.75" style="stroke:#181818;stroke-width:0.3499999999999999;" width="114.1" x="298.55" y="276.5096"/><ellipse cx="322.595" cy="287.7096" fill="#ADD1B2" rx="7.7" ry="7.7" style="stroke:#181818;stroke-width:0.6999999999999998;"/><path d="M324.5309,284.8221 Q324.6403,284.6689 324.7716,284.5924 Q324.9028,284.5158 325.0559,284.5158 Q325.3184,284.5158 325.4825,284.7018 Q325.6466,284.8768 325.6466,285.3033 L325.6466,286.3205 Q325.6466,286.7471 325.4825,286.933 Q325.3184,287.1189 325.0559,287.1189 Q324.8153,287.1189 324.6731,286.9768 Q324.5309,286.8455 324.4544,286.4846 Q324.4216,286.233 324.2903,286.1018 Q324.0606,285.8393 323.6341,285.6861 Q323.2075,285.533 322.77,285.533 Q322.2341,285.533 321.7856,285.7627 Q321.3481,285.9924 320.9981,286.5174 Q320.6591,287.0424 320.6591,287.7643 L320.6591,288.5299 Q320.6591,289.3939 321.2825,289.9736 Q321.9059,290.5424 323.0216,290.5424 Q323.6778,290.5424 324.1372,290.3674 Q324.4106,290.258 324.7059,289.9518 Q324.8919,289.7658 324.9903,289.7111 Q325.0997,289.6564 325.2419,289.6564 Q325.4716,289.6564 325.6466,289.8424 Q325.8325,290.0174 325.8325,290.258 Q325.8325,290.4986 325.5919,290.783 Q325.2419,291.1877 324.6841,291.4174 Q323.9294,291.7346 323.0216,291.7346 Q321.9606,291.7346 321.1184,291.2971 Q320.4294,290.9471 319.9481,290.2033 Q319.4669,289.4486 319.4669,288.5518 L319.4669,287.7424 Q319.4669,286.8127 319.8934,286.0143 Q320.3309,285.2049 321.0966,284.7783 Q321.8622,284.3408 322.7262,284.3408 Q323.2403,284.3408 323.6887,284.4611 Q324.1481,284.5705 324.5309,284.8221 Z " fill="#000000"/><text fill="#000000" font-family="sans-serif" font-size="9.8" lengthAdjust="spacing" textLength="61.6" x="335.405" y="291.7674">JobReference</text><line style="stroke:#181818;stroke-width:0.3499999999999999;" x1="299.25" x2="411.95" y1="298.9096" y2="298.9096"/><ellipse cx="306.25" cy="309.277" fill="none" rx="2.1" ry="2.1" style="stroke:#038048;stroke-width:0.6999999999999998;"/><text fill="#000000" font-family="sans-serif" font-size="9.8" lengthAdjust="spacing" textLength="95.9" x="312.55" y="312.2848">customerCode: String</text><ellipse cx="306.25" cy="322.3117" fill="none" rx="2.1" ry="2.1" style="stroke:#038048;stroke-width:0.6999999999999998;"/><text fill="#000000" font-family="sans-serif" font-size="9.8" lengthAdjust="spacing" textLength="63.7" x="312.55" y="325.3195">jobNumber: int</text><line style="stroke:#181818;stroke-width:0.3499999999999999;" x1="299.25" x2="411.95" y1="330.5791" y2="330.5791"/></g><!--class RecruitmentProcess--><g id="elem_RecruitmentProcess"><rect codeLine="75" fill="#F1F1F1" height="72.7043" id="RecruitmentProcess" rx="1.75" ry="1.75" style="stroke:#181818;stroke-width:0.3499999999999999;" width="167.3" x="437.15" y="269.8596"/><ellipse cx="473.375" cy="281.0596" fill="#ADD1B2" rx="7.7" ry="7.7" style="stroke:#181818;stroke-width:0.6999999999999998;"/><path d="M475.3109,278.1721 Q475.4203,278.0189 475.5516,277.9424 Q475.6828,277.8658 475.8359,277.8658 Q476.0984,277.8658 476.2625,278.0518 Q476.4266,278.2268 476.4266,278.6533 L476.4266,279.6705 Q476.4266,280.0971 476.2625,280.283 Q476.0984,280.4689 475.8359,280.4689 Q475.5953,280.4689 475.4531,280.3268 Q475.3109,280.1955 475.2344,279.8346 Q475.2016,279.583 475.0703,279.4518 Q474.8406,279.1893 474.4141,279.0361 Q473.9875,278.883 473.55,278.883 Q473.0141,278.883 472.5656,279.1127 Q472.1281,279.3424 471.7781,279.8674 Q471.4391,280.3924 471.4391,281.1143 L471.4391,281.8799 Q471.4391,282.7439 472.0625,283.3236 Q472.6859,283.8924 473.8016,283.8924 Q474.4578,283.8924 474.9172,283.7174 Q475.1906,283.608 475.4859,283.3018 Q475.6719,283.1158 475.7703,283.0611 Q475.8797,283.0064 476.0219,283.0064 Q476.2516,283.0064 476.4266,283.1924 Q476.6125,283.3674 476.6125,283.608 Q476.6125,283.8486 476.3719,284.133 Q476.0219,284.5377 475.4641,284.7674 Q474.7094,285.0846 473.8016,285.0846 Q472.7406,285.0846 471.8984,284.6471 Q471.2094,284.2971 470.7281,283.5533 Q470.2469,282.7986 470.2469,281.9018 L470.2469,281.0924 Q470.2469,280.1627 470.6734,279.3643 Q471.1109,278.5549 471.8766,278.1283 Q472.6422,277.6908 473.5062,277.6908 Q474.0203,277.6908 474.4687,277.8111 Q474.9281,277.9205 475.3109,278.1721 Z " fill="#000000"/><text fill="#000000" font-family="sans-serif" font-size="9.8" lengthAdjust="spacing" textLength="88.9" x="487.725" y="285.1174">RecruitmentProcess</text><line style="stroke:#181818;stroke-width:0.3499999999999999;" x1="437.85" x2="603.75" y1="292.2596" y2="292.2596"/><ellipse cx="444.85" cy="302.627" fill="none" rx="2.1" ry="2.1" style="stroke:#038048;stroke-width:0.6999999999999998;"/><text fill="#000000" font-family="sans-serif" font-size="9.8" lengthAdjust="spacing" textLength="23.8" x="451.15" y="305.6348">id: int</text><ellipse cx="444.85" cy="315.6617" fill="none" rx="2.1" ry="2.1" style="stroke:#038048;stroke-width:0.6999999999999998;"/><text fill="#000000" font-family="sans-serif" font-size="9.8" lengthAdjust="spacing" textLength="149.1" x="451.15" y="318.6695">status: RecruitmentProcessStatus</text><ellipse cx="444.85" cy="328.6965" fill="none" rx="2.1" ry="2.1" style="stroke:#038048;stroke-width:0.6999999999999998;"/><text fill="#000000" font-family="sans-serif" font-size="9.8" lengthAdjust="spacing" textLength="92.4" x="451.15" y="331.7043">phases: List&lt;Phase&gt;</text><line style="stroke:#181818;stroke-width:0.3499999999999999;" x1="437.85" x2="603.75" y1="336.9639" y2="336.9639"/></g><!--class Phase--><g id="elem_Phase"><rect codeLine="81" fill="#F1F1F1" height="72.7043" id="Phase" rx="1.75" ry="1.75" style="stroke:#181818;stroke-width:0.3499999999999999;" width="106.4" x="330.4" y="397.9596"/><ellipse cx="366.625" cy="409.1596" fill="#ADD1B2" rx="7.7" ry="7.7" style="stroke:#181818;stroke-width:0.6999999999999998;"/><path d="M368.5609,406.2721 Q368.6703,406.1189 368.8016,406.0424 Q368.9328,405.9658 369.0859,405.9658 Q369.3484,405.9658 369.5125,406.1518 Q369.6766,406.3268 369.6766,406.7533 L369.6766,407.7705 Q369.6766,408.1971 369.5125,408.383 Q369.3484,408.5689 369.0859,408.5689 Q368.8453,408.5689 368.7031,408.4268 Q368.5609,408.2955 368.4844,407.9346 Q368.4516,407.683 368.3203,407.5518 Q368.0906,407.2893 367.6641,407.1361 Q367.2375,406.983 366.8,406.983 Q366.2641,406.983 365.8156,407.2127 Q365.3781,407.4424 365.0281,407.9674 Q364.6891,408.4924 364.6891,409.2143 L364.6891,409.9799 Q364.6891,410.8439 365.3125,411.4236 Q365.9359,411.9924 367.0516,411.9924 Q367.7078,411.9924 368.1672,411.8174 Q368.4406,411.708 368.7359,411.4018 Q368.9219,411.2158 369.0203,411.1611 Q369.1297,411.1064 369.2719,411.1064 Q369.5016,411.1064 369.6766,411.2924 Q369.8625,411.4674 369.8625,411.708 Q369.8625,411.9486 369.6219,412.233 Q369.2719,412.6377 368.7141,412.8674 Q367.9594,413.1846 367.0516,413.1846 Q365.9906,413.1846 365.1484,412.7471 Q364.4594,412.3971 363.9781,411.6533 Q363.4969,410.8986 363.4969,410.0018 L363.4969,409.1924 Q363.4969,408.2627 363.9234,407.4643 Q364.3609,406.6549 365.1266,406.2283 Q365.8922,405.7908 366.7562,405.7908 Q367.2703,405.7908 367.7187,405.9111 Q368.1781,406.0205 368.5609,406.2721 Z " fill="#000000"/><text fill="#000000" font-family="sans-serif" font-size="9.8" lengthAdjust="spacing" textLength="28" x="380.975" y="413.2174">Phase</text><line style="stroke:#181818;stroke-width:0.3499999999999999;" x1="331.1" x2="436.1" y1="420.3596" y2="420.3596"/><ellipse cx="338.1" cy="430.727" fill="none" rx="2.1" ry="2.1" style="stroke:#038048;stroke-width:0.6999999999999998;"/><text fill="#000000" font-family="sans-serif" font-size="9.8" lengthAdjust="spacing" textLength="35.7" x="344.4" y="433.7348">id: Long</text><ellipse cx="338.1" cy="443.7617" fill="none" rx="2.1" ry="2.1" style="stroke:#038048;stroke-width:0.6999999999999998;"/><text fill="#000000" font-family="sans-serif" font-size="9.8" lengthAdjust="spacing" textLength="83.3" x="344.4" y="446.7695">name: PhaseName</text><ellipse cx="338.1" cy="456.7965" fill="none" rx="2.1" ry="2.1" style="stroke:#038048;stroke-width:0.6999999999999998;"/><text fill="#000000" font-family="sans-serif" font-size="9.8" lengthAdjust="spacing" textLength="88.2" x="344.4" y="459.8043">status: PhaseStatus</text><line style="stroke:#181818;stroke-width:0.3499999999999999;" x1="331.1" x2="436.1" y1="465.0639" y2="465.0639"/></g><!--class PhaseName--><g id="elem_PhaseName"><rect codeLine="87" fill="#F1F1F1" height="98.7738" id="PhaseName" rx="1.75" ry="1.75" style="stroke:#181818;stroke-width:0.3499999999999999;" width="75.6" x="317.8" y="513.4596"/><ellipse cx="328.3" cy="524.6596" fill="#EB937F" rx="7.7" ry="7.7" style="stroke:#181818;stroke-width:0.6999999999999998;"/><path d="M327.5016,525.2174 L327.5016,526.9674 L330.5312,526.9674 L330.5312,526.3221 Q330.5312,525.8955 330.6953,525.7096 Q330.8703,525.5236 331.1328,525.5236 Q331.3953,525.5236 331.5594,525.7096 Q331.7234,525.8955 331.7234,526.3221 L331.7234,528.1596 L326.1234,528.1596 Q325.6859,528.1596 325.5,527.9955 Q325.325,527.8314 325.325,527.558 Q325.325,527.2955 325.5109,527.1314 Q325.6969,526.9674 326.1234,526.9674 L326.3094,526.9674 L326.3094,522.308 L326.1234,522.308 Q325.6859,522.308 325.5,522.1439 Q325.325,521.9799 325.325,521.7064 Q325.325,521.4439 325.5,521.2799 Q325.6859,521.1158 326.1234,521.1158 L331.4609,521.1158 L331.4609,522.9314 Q331.4609,523.358 331.2969,523.5439 Q331.1437,523.7189 330.8703,523.7189 Q330.6078,523.7189 330.4437,523.5439 Q330.2797,523.358 330.2797,522.9314 L330.2797,522.308 L327.5016,522.308 L327.5016,524.0252 L328.5406,524.0252 Q328.5406,523.5658 328.6281,523.4346 Q328.8141,523.1502 329.1422,523.1502 Q329.4047,523.1502 329.5687,523.3361 Q329.7328,523.5111 329.7328,523.9377 L329.7328,525.3158 Q329.7328,525.6986 329.6453,525.8299 Q329.4594,526.1033 329.1422,526.1033 Q328.8141,526.1033 328.6281,525.8189 Q328.5406,525.6877 328.5406,525.2174 L327.5016,525.2174 Z " fill="#000000"/><text fill="#000000" font-family="sans-serif" font-size="9.8" lengthAdjust="spacing" textLength="53.2" x="338.1" y="528.7174">PhaseName</text><line style="stroke:#181818;stroke-width:0.3499999999999999;" x1="318.5" x2="392.7" y1="535.8596" y2="535.8596"/><text fill="#000000" font-family="sans-serif" font-size="9.8" lengthAdjust="spacing" textLength="65.1" x="322" y="549.2348">APPLICATION,</text><text fill="#000000" font-family="sans-serif" font-size="9.8" lengthAdjust="spacing" textLength="58.1" x="322" y="562.2695">SCREENING,</text><text fill="#000000" font-family="sans-serif" font-size="9.8" lengthAdjust="spacing" textLength="60.9" x="322" y="575.3043">INTERVIEWS,</text><text fill="#000000" font-family="sans-serif" font-size="9.8" lengthAdjust="spacing" textLength="48.3" x="322" y="588.3391">ANALYSIS,</text><text fill="#000000" font-family="sans-serif" font-size="9.8" lengthAdjust="spacing" textLength="37.8" x="322" y="601.3738">RESULT</text><line style="stroke:#181818;stroke-width:0.3499999999999999;" x1="318.5" x2="392.7" y1="606.6334" y2="606.6334"/></g><!--class PhaseStatus--><g id="elem_PhaseStatus"><rect codeLine="95" fill="#F1F1F1" height="59.6695" id="PhaseStatus" rx="1.75" ry="1.75" style="stroke:#181818;stroke-width:0.3499999999999999;" width="78.4" x="417.9" y="533.0596"/><ellipse cx="428.4" cy="544.2596" fill="#EB937F" rx="7.7" ry="7.7" style="stroke:#181818;stroke-width:0.6999999999999998;"/><path d="M427.6016,544.8174 L427.6016,546.5674 L430.6312,546.5674 L430.6312,545.9221 Q430.6312,545.4955 430.7953,545.3096 Q430.9703,545.1236 431.2328,545.1236 Q431.4953,545.1236 431.6594,545.3096 Q431.8234,545.4955 431.8234,545.9221 L431.8234,547.7596 L426.2234,547.7596 Q425.7859,547.7596 425.6,547.5955 Q425.425,547.4314 425.425,547.158 Q425.425,546.8955 425.6109,546.7314 Q425.7969,546.5674 426.2234,546.5674 L426.4094,546.5674 L426.4094,541.908 L426.2234,541.908 Q425.7859,541.908 425.6,541.7439 Q425.425,541.5799 425.425,541.3064 Q425.425,541.0439 425.6,540.8799 Q425.7859,540.7158 426.2234,540.7158 L431.5609,540.7158 L431.5609,542.5314 Q431.5609,542.958 431.3969,543.1439 Q431.2437,543.3189 430.9703,543.3189 Q430.7078,543.3189 430.5437,543.1439 Q430.3797,542.958 430.3797,542.5314 L430.3797,541.908 L427.6016,541.908 L427.6016,543.6252 L428.6406,543.6252 Q428.6406,543.1658 428.7281,543.0346 Q428.9141,542.7502 429.2422,542.7502 Q429.5047,542.7502 429.6687,542.9361 Q429.8328,543.1111 429.8328,543.5377 L429.8328,544.9158 Q429.8328,545.2986 429.7453,545.4299 Q429.5594,545.7033 429.2422,545.7033 Q428.9141,545.7033 428.7281,545.4189 Q428.6406,545.2877 428.6406,544.8174 L427.6016,544.8174 Z " fill="#000000"/><text fill="#000000" font-family="sans-serif" font-size="9.8" lengthAdjust="spacing" textLength="56" x="438.2" y="548.3174">PhaseStatus</text><line style="stroke:#181818;stroke-width:0.3499999999999999;" x1="418.6" x2="495.6" y1="555.4596" y2="555.4596"/><text fill="#000000" font-family="sans-serif" font-size="9.8" lengthAdjust="spacing" textLength="24.5" x="422.1" y="568.8348">Open</text><text fill="#000000" font-family="sans-serif" font-size="9.8" lengthAdjust="spacing" textLength="30.8" x="422.1" y="581.8695">Closed</text><line style="stroke:#181818;stroke-width:0.3499999999999999;" x1="418.6" x2="495.6" y1="587.1291" y2="587.1291"/></g><!--class RecruitmentProcessStatus--><g id="elem_RecruitmentProcessStatus"><rect codeLine="100" fill="#F1F1F1" height="72.7043" id="RecruitmentProcessStatus" rx="1.75" ry="1.75" style="stroke:#181818;stroke-width:0.3499999999999999;" width="139.3" x="461.65" y="397.9596"/><ellipse cx="472.15" cy="409.1596" fill="#EB937F" rx="7.7" ry="7.7" style="stroke:#181818;stroke-width:0.6999999999999998;"/><path d="M471.3516,409.7174 L471.3516,411.4674 L474.3812,411.4674 L474.3812,410.8221 Q474.3812,410.3955 474.5453,410.2096 Q474.7203,410.0236 474.9828,410.0236 Q475.2453,410.0236 475.4094,410.2096 Q475.5734,410.3955 475.5734,410.8221 L475.5734,412.6596 L469.9734,412.6596 Q469.5359,412.6596 469.35,412.4955 Q469.175,412.3314 469.175,412.058 Q469.175,411.7955 469.3609,411.6314 Q469.5469,411.4674 469.9734,411.4674 L470.1594,411.4674 L470.1594,406.808 L469.9734,406.808 Q469.5359,406.808 469.35,406.6439 Q469.175,406.4799 469.175,406.2064 Q469.175,405.9439 469.35,405.7799 Q469.5359,405.6158 469.9734,405.6158 L475.3109,405.6158 L475.3109,407.4314 Q475.3109,407.858 475.1469,408.0439 Q474.9937,408.2189 474.7203,408.2189 Q474.4578,408.2189 474.2937,408.0439 Q474.1297,407.858 474.1297,407.4314 L474.1297,406.808 L471.3516,406.808 L471.3516,408.5252 L472.3906,408.5252 Q472.3906,408.0658 472.4781,407.9346 Q472.6641,407.6502 472.9922,407.6502 Q473.2547,407.6502 473.4187,407.8361 Q473.5828,408.0111 473.5828,408.4377 L473.5828,409.8158 Q473.5828,410.1986 473.4953,410.3299 Q473.3094,410.6033 472.9922,410.6033 Q472.6641,410.6033 472.4781,410.3189 Q472.3906,410.1877 472.3906,409.7174 L471.3516,409.7174 Z " fill="#000000"/><text fill="#000000" font-family="sans-serif" font-size="9.8" lengthAdjust="spacing" textLength="116.9" x="481.95" y="413.2174">RecruitmentProcessStatus</text><line style="stroke:#181818;stroke-width:0.3499999999999999;" x1="462.35" x2="600.25" y1="420.3596" y2="420.3596"/><text fill="#000000" font-family="sans-serif" font-size="9.8" lengthAdjust="spacing" textLength="46.2" x="465.85" y="433.7348">Uninitiated</text><text fill="#000000" font-family="sans-serif" font-size="9.8" lengthAdjust="spacing" textLength="46.2" x="465.85" y="446.7695">In Process</text><text fill="#000000" font-family="sans-serif" font-size="9.8" lengthAdjust="spacing" textLength="37.8" x="465.85" y="459.8043">Finished</text><line style="stroke:#181818;stroke-width:0.3499999999999999;" x1="462.35" x2="600.25" y1="465.0639" y2="465.0639"/></g><!--link InterviewModel to JarFile--><g id="link_InterviewModel_JarFile"><path codeLine="27" d="M170.114,76.7016 C162.582,101.5796 149.435,145.0198 141.903,169.8978 " fill="none" id="InterviewModel-to-JarFile" style="stroke:#181818;stroke-width:0.6999999999999998;"/><polygon fill="#181818" points="140.686,173.9176,145.1914,168.6992,141.7002,170.5677,139.8317,167.0765,140.686,173.9176" style="stroke:#181818;stroke-width:0.6999999999999998;"/><text fill="#000000" font-family="sans-serif" font-size="9.1" lengthAdjust="spacing" textLength="4.9" x="163.4258" y="92.1018">1</text><text fill="#000000" font-family="sans-serif" font-size="9.1" lengthAdjust="spacing" textLength="4.9" x="136.4102" y="166.023">1</text></g><!--link InterviewModel to SpecName--><g id="link_InterviewModel_SpecName"><path codeLine="28" d="M154.588,76.8836 C138.341,90.2886 115.409,110.1476 97.3,129.5096 C84.126,143.5936 73.2873,157.7343 64.2293,170.3133 " fill="none" id="InterviewModel-to-SpecName" style="stroke:#181818;stroke-width:0.6999999999999998;"/><polygon fill="#181818" points="61.775,173.7216,67.7286,170.2453,63.8202,170.8813,63.1842,166.9729,61.775,173.7216" style="stroke:#181818;stroke-width:0.6999999999999998;"/><text fill="#000000" font-family="sans-serif" font-size="9.1" lengthAdjust="spacing" textLength="4.9" x="144.4012" y="92.0397">1</text><text fill="#000000" font-family="sans-serif" font-size="9.1" lengthAdjust="spacing" textLength="4.9" x="59.0505" y="166.0629">1</text></g><!--link InterviewModel to Description--><g id="link_InterviewModel_Description"><path codeLine="29" d="M180.929,76.7016 C190.078,101.5796 206.0724,145.0977 215.2214,169.9757 " fill="none" id="InterviewModel-to-Description" style="stroke:#181818;stroke-width:0.6999999999999998;"/><polygon fill="#181818" points="216.671,173.9176,217.1245,167.0383,215.463,170.6327,211.8686,168.9712,216.671,173.9176" style="stroke:#181818;stroke-width:0.6999999999999998;"/><text fill="#000000" font-family="sans-serif" font-size="9.1" lengthAdjust="spacing" textLength="4.9" x="176.877" y="92.1018">1</text><text fill="#000000" font-family="sans-serif" font-size="9.1" lengthAdjust="spacing" textLength="4.9" x="209.6239" y="166.023">1</text></g><!--link JobApplication to File--><g id="link_JobApplication_File"><path codeLine="57" d="M687.4,89.6236 C687.4,108.7126 687.4,129.6216 687.4,149.9566 " fill="none" id="JobApplication-to-File" style="stroke:#181818;stroke-width:0.6999999999999998;"/><polygon fill="#181818" points="687.4,154.1566,690.2,147.8566,687.4,150.6566,684.6,147.8566,687.4,154.1566" style="stroke:#181818;stroke-width:0.6999999999999998;"/></g><!--link File to FilePath--><g id="link_File_FilePath"><path codeLine="59" d="M684.768,227.2506 C683.438,245.2896 682.1701,262.4438 681.0081,278.2918 " fill="none" id="File-to-FilePath" style="stroke:#181818;stroke-width:0.6999999999999998;"/><polygon fill="#181818" points="680.701,282.4806,683.9542,276.4022,680.9569,278.9899,678.3692,275.9927,680.701,282.4806" style="stroke:#181818;stroke-width:0.6999999999999998;"/></g><!--link File to FileType--><g id="link_File_FileType"><path codeLine="60" d="M723.625,227.2506 C741.888,245.2896 760.509,263.681 776.553,279.529 " fill="none" id="File-to-FileType" style="stroke:#181818;stroke-width:0.6999999999999998;"/><polygon fill="#181818" points="779.541,282.4806,777.0266,276.0612,777.051,280.021,773.0912,280.0453,779.541,282.4806" style="stroke:#181818;stroke-width:0.6999999999999998;"/></g><!--link JobOpening to RecruitmentProcess--><g id="link_JobOpening_RecruitmentProcess"><path codeLine="106" d="M469.168,220.5446 C478.268,235.5316 487.2663,250.352 496.8983,266.207 " fill="none" id="JobOpening-to-RecruitmentProcess" style="stroke:#181818;stroke-width:0.6999999999999998;"/><polygon fill="#181818" points="499.079,269.7966,498.201,262.9585,497.2618,266.8053,493.415,265.866,499.079,269.7966" style="stroke:#181818;stroke-width:0.6999999999999998;"/></g><!--link RecruitmentProcess to RecruitmentProcessStatus--><g id="link_RecruitmentProcess_RecruitmentProcessStatus"><path codeLine="107" d="M523.782,342.9256 C525.203,360.1176 526.5561,376.456 527.9841,393.634 " fill="none" id="RecruitmentProcess-to-RecruitmentProcessStatus" style="stroke:#181818;stroke-width:0.6999999999999998;"/><polygon fill="#181818" points="528.332,397.8196,530.6005,391.3093,528.042,394.3316,525.0197,391.7732,528.332,397.8196" style="stroke:#181818;stroke-width:0.6999999999999998;"/></g><!--link RecruitmentProcess to Phase--><g id="link_RecruitmentProcess_Phase"><path codeLine="108" d="M475.615,342.6736 C467.446,349.4776 459.109,356.6666 451.5,363.6596 C439.845,374.3696 430.5575,383.5735 419.7705,394.7735 " fill="none" id="RecruitmentProcess-to-Phase" style="stroke:#181818;stroke-width:0.6999999999999998;"/><polygon fill="#181818" points="416.857,397.7986,423.2441,395.2033,419.285,395.2777,419.2106,391.3186,416.857,397.7986" style="stroke:#181818;stroke-width:0.6999999999999998;"/><text fill="#000000" font-family="sans-serif" font-size="9.1" lengthAdjust="spacing" textLength="67.2" x="452.2" y="374.1794">Is separated into</text></g><!--link Phase to PhaseName--><g id="link_Phase_PhaseName"><path codeLine="109" d="M375.725,470.7876 C372.813,483.9966 370.3638,495.106 367.2418,509.274 " fill="none" id="Phase-to-PhaseName" style="stroke:#181818;stroke-width:0.6999999999999998;"/><polygon fill="#181818" points="366.338,513.3756,370.4281,507.8257,367.0912,509.9576,364.9593,506.6206,366.338,513.3756" style="stroke:#181818;stroke-width:0.6999999999999998;"/></g><!--link Phase to PhaseStatus--><g id="link_Phase_PhaseStatus"><path codeLine="110" d="M404.271,470.7876 C415.646,490.4576 427.4868,510.9231 438.1898,529.4241 " fill="none" id="Phase-to-PhaseStatus" style="stroke:#181818;stroke-width:0.6999999999999998;"/><polygon fill="#181818" points="440.293,533.0596,439.5619,526.2042,438.5404,530.03,434.7146,529.0085,440.293,533.0596" style="stroke:#181818;stroke-width:0.6999999999999998;"/></g><!--link JobOpening to JobReference--><g id="link_JobOpening_JobReference"><path codeLine="112" d="M427.049,220.5446 C412.678,237.6456 397.2638,255.9829 382.8718,273.1119 " fill="none" id="JobOpening-to-JobReference" style="stroke:#181818;stroke-width:0.6999999999999998;"/><polygon fill="#181818" points="380.17,276.3276,386.3665,273.3053,382.4215,273.6479,382.079,269.7029,380.17,276.3276" style="stroke:#181818;stroke-width:0.6999999999999998;"/></g><!--link InterviewModel to JobOpening--><g id="link_InterviewModel_JobOpening"><path codeLine="115" d="M209.461,76.7016 C254.408,97.7506 330.0544,133.1813 385.6274,159.2073 " fill="none" id="InterviewModel-to-JobOpening" style="stroke:#181818;stroke-width:0.6999999999999998;"/><polygon fill="#181818" points="389.431,160.9886,384.9132,155.7809,386.2614,159.5042,382.5381,160.8523,389.431,160.9886" style="stroke:#181818;stroke-width:0.6999999999999998;"/></g><!--link JobApplication to JobOpening--><g id="link_JobApplication_JobOpening"><path codeLine="118" d="M644.133,84.3106 C604.828,105.8916 550.4099,135.7627 508.2979,158.8767 " fill="none" id="JobApplication-to-JobOpening" style="stroke:#181818;stroke-width:0.6999999999999998;"/><polygon fill="#181818" points="504.616,160.8976,511.486,160.3209,507.6842,159.2135,508.7916,155.4117,504.616,160.8976" style="stroke:#181818;stroke-width:0.6999999999999998;"/><text fill="#000000" font-family="sans-serif" font-size="9.1" lengthAdjust="spacing" textLength="38.5" x="590.8" y="121.1294">Refers To</text></g><!--SRC=[XLHTRvim57tdLrXvxVgmLpHLGXchg3AAW6xQemEtYJkmBTkicgh-zzdW6Xj8nWDnxZdt-nYEcz_u12YZ2iGV0g_VMGjTSZeXz1OX_OolfiDIBZXlqGYzpooFMd5eSjo39brXFM3nZNJ_8Nq5sGZ25M5q9eu_OJsxpxlRsplzjb6lKJxAkyRnykgqxn6tatfWnuJpZZJOG6PITXAsfm2sGpJF3MbZT63qD5kUTPbI6ubKNqp9TtvtKpZNIH08nQWB8d6ipjfes8K-pe3woy42jJvk9p0kVW8JBKQL4iJci1v0XpuCDJljCMr9YnMuSIPKleAGZk57Man9JtpgT0JDoPbSEu5rB23OoIC7gilTseU5bhlGI0dF880sC2C26Z4GrGDLXM0DIBsWScLRpz6FvcTg1gbO3sAlnHNCT4HVs34V-YE8616gedNOTUfb6yRF6QJ2QjYik1eHRyTdB9tu2lDdGtsZ_Rg6gRv6yKHqDoeePOIyxBwMd9kNmpn9KHooVL9dZ_cd0AZsPPhcMNuVchEyJiiVMVgp2kr9dXn-LTd2MgRLqw7UBcOgr2l7Y6SMUSSaj2lFIzFsmZnf1H95zFredIsZo9VJ979Av3bCuIdOoF-263U4iitsLd71PzfwZ7QPH18u5gPgepEs6zqct37TsXTscsYhX-3gRNtCFrZMIL_rQEEJuKKrajS19QhPFm00]--></g></svg>