<?xml version="1.0" encoding="us-ascii" standalone="no"?><svg xmlns="http://www.w3.org/2000/svg" xmlns:xlink="http://www.w3.org/1999/xlink" contentStyleType="text/css" height="298.9px" preserveAspectRatio="none" style="width:459px;height:298px;background:#FFFFFF;" version="1.1" viewBox="0 0 459 298" width="459.9px" zoomAndPan="magnify"><defs/><g><!--class UploadInterviewController--><g id="elem_UploadInterviewController"><rect codeLine="2" fill="#F1F1F1" height="72.7043" id="UploadInterviewController" rx="1.75" ry="1.75" style="stroke:#181818;stroke-width:0.3499999999999999;" width="261.8" x="163.1" y="119.7"/><ellipse cx="234.675" cy="130.9" fill="#ADD1B2" rx="7.7" ry="7.7" style="stroke:#181818;stroke-width:0.6999999999999998;"/><path d="M236.6109,128.0125 Q236.7203,127.8594 236.8516,127.7828 Q236.9828,127.7062 237.1359,127.7062 Q237.3984,127.7062 237.5625,127.8922 Q237.7266,128.0672 237.7266,128.4937 L237.7266,129.5109 Q237.7266,129.9375 237.5625,130.1234 Q237.3984,130.3094 237.1359,130.3094 Q236.8953,130.3094 236.7531,130.1672 Q236.6109,130.0359 236.5344,129.675 Q236.5016,129.4234 236.3703,129.2922 Q236.1406,129.0297 235.7141,128.8766 Q235.2875,128.7234 234.85,128.7234 Q234.3141,128.7234 233.8656,128.9531 Q233.4281,129.1828 233.0781,129.7078 Q232.7391,130.2328 232.7391,130.9547 L232.7391,131.7203 Q232.7391,132.5844 233.3625,133.1641 Q233.9859,133.7328 235.1016,133.7328 Q235.7578,133.7328 236.2172,133.5578 Q236.4906,133.4484 236.7859,133.1422 Q236.9719,132.9562 237.0703,132.9016 Q237.1797,132.8469 237.3219,132.8469 Q237.5516,132.8469 237.7266,133.0328 Q237.9125,133.2078 237.9125,133.4484 Q237.9125,133.6891 237.6719,133.9734 Q237.3219,134.3781 236.7641,134.6078 Q236.0094,134.925 235.1016,134.925 Q234.0406,134.925 233.1984,134.4875 Q232.5094,134.1375 232.0281,133.3937 Q231.5469,132.6391 231.5469,131.7422 L231.5469,130.9328 Q231.5469,130.0031 231.9734,129.2047 Q232.4109,128.3953 233.1766,127.9687 Q233.9422,127.5312 234.8062,127.5312 Q235.3203,127.5312 235.7687,127.6516 Q236.2281,127.7609 236.6109,128.0125 Z " fill="#000000"/><text fill="#000000" font-family="sans-serif" font-size="9.8" lengthAdjust="spacing" textLength="112.7" x="249.025" y="134.9578">UploadInterviewController</text><line style="stroke:#181818;stroke-width:0.3499999999999999;" x1="163.8" x2="424.2" y1="142.1" y2="142.1"/><line style="stroke:#181818;stroke-width:0.3499999999999999;" x1="163.8" x2="424.2" y1="147.7" y2="147.7"/><ellipse cx="170.8" cy="158.0674" fill="#84BE84" rx="2.1" ry="2.1" style="stroke:#038048;stroke-width:0.6999999999999998;"/><text fill="#000000" font-family="sans-serif" font-size="9.8" lengthAdjust="spacing" textLength="185.5" x="177.1" y="161.0752">getApplications(): Iterable&lt;jobApplication&gt;</text><ellipse cx="170.8" cy="171.1021" fill="#84BE84" rx="2.1" ry="2.1" style="stroke:#038048;stroke-width:0.6999999999999998;"/><text fill="#000000" font-family="sans-serif" font-size="9.8" lengthAdjust="spacing" textLength="243.6" x="177.1" y="174.11">uploadTextFile(application: jobApplication, path: String)</text><ellipse cx="170.8" cy="184.1369" fill="#84BE84" rx="2.1" ry="2.1" style="stroke:#038048;stroke-width:0.6999999999999998;"/><text fill="#000000" font-family="sans-serif" font-size="9.8" lengthAdjust="spacing" textLength="161.7" x="177.1" y="187.1447">passGrammar(path: String): boolean</text></g><!--class UploadInterviewUI--><g id="elem_UploadInterviewUI"><rect codeLine="9" fill="#F1F1F1" height="72.7043" id="UploadInterviewUI" rx="1.75" ry="1.75" style="stroke:#181818;stroke-width:0.3499999999999999;" width="177.8" x="205.1" y="4.9"/><ellipse cx="252.175" cy="16.1" fill="#ADD1B2" rx="7.7" ry="7.7" style="stroke:#181818;stroke-width:0.6999999999999998;"/><path d="M254.1109,13.2125 Q254.2203,13.0594 254.3516,12.9828 Q254.4828,12.9062 254.6359,12.9062 Q254.8984,12.9062 255.0625,13.0922 Q255.2266,13.2672 255.2266,13.6937 L255.2266,14.7109 Q255.2266,15.1375 255.0625,15.3234 Q254.8984,15.5094 254.6359,15.5094 Q254.3953,15.5094 254.2531,15.3672 Q254.1109,15.2359 254.0344,14.875 Q254.0016,14.6234 253.8703,14.4922 Q253.6406,14.2297 253.2141,14.0766 Q252.7875,13.9234 252.35,13.9234 Q251.8141,13.9234 251.3656,14.1531 Q250.9281,14.3828 250.5781,14.9078 Q250.2391,15.4328 250.2391,16.1547 L250.2391,16.9203 Q250.2391,17.7844 250.8625,18.3641 Q251.4859,18.9328 252.6016,18.9328 Q253.2578,18.9328 253.7172,18.7578 Q253.9906,18.6484 254.2859,18.3422 Q254.4719,18.1562 254.5703,18.1016 Q254.6797,18.0469 254.8219,18.0469 Q255.0516,18.0469 255.2266,18.2328 Q255.4125,18.4078 255.4125,18.6484 Q255.4125,18.8891 255.1719,19.1734 Q254.8219,19.5781 254.2641,19.8078 Q253.5094,20.125 252.6016,20.125 Q251.5406,20.125 250.6984,19.6875 Q250.0094,19.3375 249.5281,18.5937 Q249.0469,17.8391 249.0469,16.9422 L249.0469,16.1328 Q249.0469,15.2031 249.4734,14.4047 Q249.9109,13.5953 250.6766,13.1687 Q251.4422,12.7312 252.3062,12.7312 Q252.8203,12.7312 253.2687,12.8516 Q253.7281,12.9609 254.1109,13.2125 Z " fill="#000000"/><text fill="#000000" font-family="sans-serif" font-size="9.8" lengthAdjust="spacing" textLength="77.7" x="266.525" y="20.1578">UploadInterviewUI</text><line style="stroke:#181818;stroke-width:0.3499999999999999;" x1="205.8" x2="382.2" y1="27.3" y2="27.3"/><rect fill="none" height="4.2" style="stroke:#C82930;stroke-width:0.6999999999999998;" width="4.2" x="210.7" y="35.5674"/><text fill="#000000" font-family="sans-serif" font-size="9.8" lengthAdjust="spacing" textLength="159.6" x="219.1" y="40.6752">controller: UploadInterviewController</text><line style="stroke:#181818;stroke-width:0.3499999999999999;" x1="205.8" x2="382.2" y1="45.9348" y2="45.9348"/><ellipse cx="212.8" cy="56.3021" fill="#84BE84" rx="2.1" ry="2.1" style="stroke:#038048;stroke-width:0.6999999999999998;"/><text fill="#000000" font-family="sans-serif" font-size="9.8" lengthAdjust="spacing" textLength="83.3" x="219.1" y="59.31">doShow(): boolean</text><ellipse cx="212.8" cy="69.3369" fill="#84BE84" rx="2.1" ry="2.1" style="stroke:#038048;stroke-width:0.6999999999999998;"/><text fill="#000000" font-family="sans-serif" font-size="9.8" lengthAdjust="spacing" textLength="76.3" x="219.1" y="72.3447">headline(): String</text></g><!--class ApplicationService--><g id="elem_ApplicationService"><rect codeLine="16" fill="#F1F1F1" height="59.6695" id="ApplicationService" rx="1.75" ry="1.75" style="stroke:#181818;stroke-width:0.3499999999999999;" width="341.6" x="4.9" y="234.5"/><ellipse cx="132.125" cy="245.7" fill="#ADD1B2" rx="7.7" ry="7.7" style="stroke:#181818;stroke-width:0.6999999999999998;"/><path d="M134.0609,242.8125 Q134.1703,242.6594 134.3016,242.5828 Q134.4328,242.5062 134.5859,242.5062 Q134.8484,242.5062 135.0125,242.6922 Q135.1766,242.8672 135.1766,243.2937 L135.1766,244.3109 Q135.1766,244.7375 135.0125,244.9234 Q134.8484,245.1094 134.5859,245.1094 Q134.3453,245.1094 134.2031,244.9672 Q134.0609,244.8359 133.9844,244.475 Q133.9516,244.2234 133.8203,244.0922 Q133.5906,243.8297 133.1641,243.6766 Q132.7375,243.5234 132.3,243.5234 Q131.7641,243.5234 131.3156,243.7531 Q130.8781,243.9828 130.5281,244.5078 Q130.1891,245.0328 130.1891,245.7547 L130.1891,246.5203 Q130.1891,247.3844 130.8125,247.9641 Q131.4359,248.5328 132.5516,248.5328 Q133.2078,248.5328 133.6672,248.3578 Q133.9406,248.2484 134.2359,247.9422 Q134.4219,247.7562 134.5203,247.7016 Q134.6297,247.6469 134.7719,247.6469 Q135.0016,247.6469 135.1766,247.8328 Q135.3625,248.0078 135.3625,248.2484 Q135.3625,248.4891 135.1219,248.7734 Q134.7719,249.1781 134.2141,249.4078 Q133.4594,249.725 132.5516,249.725 Q131.4906,249.725 130.6484,249.2875 Q129.9594,248.9375 129.4781,248.1937 Q128.9969,247.4391 128.9969,246.5422 L128.9969,245.7328 Q128.9969,244.8031 129.4234,244.0047 Q129.8609,243.1953 130.6266,242.7687 Q131.3922,242.3312 132.2562,242.3312 Q132.7703,242.3312 133.2187,242.4516 Q133.6781,242.5609 134.0609,242.8125 Z " fill="#000000"/><text fill="#000000" font-family="sans-serif" font-size="9.8" lengthAdjust="spacing" textLength="81.2" x="146.475" y="249.7578">ApplicationService</text><line style="stroke:#181818;stroke-width:0.3499999999999999;" x1="5.6" x2="345.8" y1="256.9" y2="256.9"/><line style="stroke:#181818;stroke-width:0.3499999999999999;" x1="5.6" x2="345.8" y1="262.5" y2="262.5"/><ellipse cx="12.6" cy="272.8674" fill="#84BE84" rx="2.1" ry="2.1" style="stroke:#038048;stroke-width:0.6999999999999998;"/><text fill="#000000" font-family="sans-serif" font-size="9.8" lengthAdjust="spacing" textLength="72.1" x="18.9" y="275.8752">findAll(): Iterable</text><ellipse cx="12.6" cy="285.9021" fill="#84BE84" rx="2.1" ry="2.1" style="stroke:#038048;stroke-width:0.6999999999999998;"/><text fill="#000000" font-family="sans-serif" font-size="9.8" lengthAdjust="spacing" textLength="323.4" x="18.9" y="288.91">uploadInterviewResponses(application: jobApplication, responses: String)</text></g><!--class jobApplication--><g id="elem_jobApplication"><rect codeLine="21" fill="#F1F1F1" height="33.6" id="jobApplication" rx="1.75" ry="1.75" style="stroke:#181818;stroke-width:0.3499999999999999;" width="84" x="371" y="247.45"/><ellipse cx="381.5" cy="258.65" fill="#ADD1B2" rx="7.7" ry="7.7" style="stroke:#181818;stroke-width:0.6999999999999998;"/><path d="M383.4359,255.7625 Q383.5453,255.6094 383.6766,255.5328 Q383.8078,255.4562 383.9609,255.4562 Q384.2234,255.4562 384.3875,255.6422 Q384.5516,255.8172 384.5516,256.2437 L384.5516,257.2609 Q384.5516,257.6875 384.3875,257.8734 Q384.2234,258.0594 383.9609,258.0594 Q383.7203,258.0594 383.5781,257.9172 Q383.4359,257.7859 383.3594,257.425 Q383.3266,257.1734 383.1953,257.0422 Q382.9656,256.7797 382.5391,256.6266 Q382.1125,256.4734 381.675,256.4734 Q381.1391,256.4734 380.6906,256.7031 Q380.2531,256.9328 379.9031,257.4578 Q379.5641,257.9828 379.5641,258.7047 L379.5641,259.4703 Q379.5641,260.3344 380.1875,260.9141 Q380.8109,261.4828 381.9266,261.4828 Q382.5828,261.4828 383.0422,261.3078 Q383.3156,261.1984 383.6109,260.8922 Q383.7969,260.7062 383.8953,260.6516 Q384.0047,260.5969 384.1469,260.5969 Q384.3766,260.5969 384.5516,260.7828 Q384.7375,260.9578 384.7375,261.1984 Q384.7375,261.4391 384.4969,261.7234 Q384.1469,262.1281 383.5891,262.3578 Q382.8344,262.675 381.9266,262.675 Q380.8656,262.675 380.0234,262.2375 Q379.3344,261.8875 378.8531,261.1437 Q378.3719,260.3891 378.3719,259.4922 L378.3719,258.6828 Q378.3719,257.7531 378.7984,256.9547 Q379.2359,256.1453 380.0016,255.7187 Q380.7672,255.2812 381.6312,255.2812 Q382.1453,255.2812 382.5937,255.4016 Q383.0531,255.5109 383.4359,255.7625 Z " fill="#000000"/><text fill="#000000" font-family="sans-serif" font-size="9.8" lengthAdjust="spacing" textLength="61.6" x="391.3" y="262.7078">jobApplication</text><line style="stroke:#181818;stroke-width:0.3499999999999999;" x1="371.7" x2="454.3" y1="269.85" y2="269.85"/><line style="stroke:#181818;stroke-width:0.3499999999999999;" x1="371.7" x2="454.3" y1="275.45" y2="275.45"/></g><!--link UploadInterviewUI to UploadInterviewController--><g id="link_UploadInterviewUI_UploadInterviewController"><path codeLine="23" d="M294,77.882 C294,91.182 294,102.06 294,115.36 " fill="none" id="UploadInterviewUI-to-UploadInterviewController" style="stroke:#181818;stroke-width:0.6999999999999998;"/><polygon fill="#181818" points="294,119.56,296.8,113.26,294,116.06,291.2,113.26,294,119.56" style="stroke:#181818;stroke-width:0.6999999999999998;"/></g><!--link UploadInterviewController to ApplicationService--><g id="link_UploadInterviewController_ApplicationService"><path codeLine="24" d="M254.282,192.64 C239.246,206.213 225.4381,218.6662 211.1651,231.5462 " fill="none" id="UploadInterviewController-to-ApplicationService" style="stroke:#181818;stroke-width:0.6999999999999998;"/><polygon fill="#181818" points="208.047,234.36,214.6,232.2181,210.6454,232.0152,210.8483,228.0606,208.047,234.36" style="stroke:#181818;stroke-width:0.6999999999999998;"/></g><!--link UploadInterviewController to jobApplication--><g id="link_UploadInterviewController_jobApplication"><path codeLine="25" d="M333.956,192.64 C354.62,211.176 375.6927,230.0783 391.8207,244.5473 " fill="none" id="UploadInterviewController-to-jobApplication" style="stroke:#181818;stroke-width:0.6999999999999998;"/><polygon fill="#181818" points="394.947,247.352,392.1274,241.0608,392.3418,245.0147,388.3878,245.2291,394.947,247.352" style="stroke:#181818;stroke-width:0.6999999999999998;"/></g><!--SRC=[XP91JiCm44NtFiKiKq4kO5MLAYHGjWqzmCGP6gEfnx9DYuIuEmaDgKDfyTBpl-V_9nl6667hMR2jNA9mi7Hy49U2C5E03mNzkOCTfRNtR0qcAouM2mrLhyQ6QVagJJPRZOwtxpUVwJqzMgO2pmeDSySzU4oTXZe5wtQBqU_xO4y1ztiCnMokeH5XGgVKfrBchmBRQWnUWfcwwEirnvMjr9qSYsp3wRuZRDaw6YQd4Ddgh4Wzl6jeWlPYNRjcpc7Du4n9DXHzJvNYRKpXHtPcDSMOQvMw95AMgni4hd-1mNTPyX_3hpXV]--></g></svg>