<?xml version="1.0" encoding="us-ascii" standalone="no"?><svg xmlns="http://www.w3.org/2000/svg" xmlns:xlink="http://www.w3.org/1999/xlink" contentStyleType="text/css" height="475px" preserveAspectRatio="none" style="width:763px;height:475px;background:#FFFFFF;" version="1.1" viewBox="0 0 763 475" width="763px" zoomAndPan="magnify"><defs/><g><line style="stroke:#181818;stroke-width:0.5;stroke-dasharray:5.0,5.0;" x1="41" x2="41" y1="81.4883" y2="394.5938"/><line style="stroke:#181818;stroke-width:0.5;stroke-dasharray:5.0,5.0;" x1="201" x2="201" y1="81.4883" y2="394.5938"/><line style="stroke:#181818;stroke-width:0.5;stroke-dasharray:5.0,5.0;" x1="349.5" x2="349.5" y1="81.4883" y2="394.5938"/><line style="stroke:#181818;stroke-width:0.5;stroke-dasharray:5.0,5.0;" x1="464.5" x2="464.5" y1="81.4883" y2="394.5938"/><line style="stroke:#181818;stroke-width:0.5;stroke-dasharray:5.0,5.0;" x1="580.5" x2="580.5" y1="81.4883" y2="394.5938"/><line style="stroke:#181818;stroke-width:0.5;stroke-dasharray:5.0,5.0;" x1="706.5" x2="706.5" y1="81.4883" y2="394.5938"/><text fill="#000000" font-family="sans-serif" font-size="14" lengthAdjust="spacing" textLength="67" x="5" y="78.5352">Customer</text><ellipse cx="41.5" cy="13.5" fill="#E2E2F0" rx="8" ry="8" style="stroke:#181818;stroke-width:0.5;"/><path d="M41.5,21.5 L41.5,48.5 M28.5,29.5 L54.5,29.5 M41.5,48.5 L28.5,63.5 M41.5,48.5 L54.5,63.5 " fill="none" style="stroke:#181818;stroke-width:0.5;"/><text fill="#000000" font-family="sans-serif" font-size="14" lengthAdjust="spacing" textLength="67" x="5" y="407.1289">Customer</text><ellipse cx="41.5" cy="418.582" fill="#E2E2F0" rx="8" ry="8" style="stroke:#181818;stroke-width:0.5;"/><path d="M41.5,426.582 L41.5,453.582 M28.5,434.582 L54.5,434.582 M41.5,453.582 L28.5,468.582 M41.5,453.582 L54.5,468.582 " fill="none" style="stroke:#181818;stroke-width:0.5;"/><text fill="#000000" font-family="sans-serif" font-size="14" lengthAdjust="spacing" textLength="14" x="191.5" y="78.5352">UI</text><path d="M181,37 L181,61 M181,49 L198,49 " fill="none" style="stroke:#181818;stroke-width:0.5;"/><ellipse cx="210" cy="49" fill="#E2E2F0" rx="12" ry="12" style="stroke:#181818;stroke-width:0.5;"/><text fill="#000000" font-family="sans-serif" font-size="14" lengthAdjust="spacing" textLength="14" x="191.5" y="407.1289">UI</text><path d="M181,414.082 L181,438.082 M181,426.082 L198,426.082 " fill="none" style="stroke:#181818;stroke-width:0.5;"/><ellipse cx="210" cy="426.082" fill="#E2E2F0" rx="12" ry="12" style="stroke:#181818;stroke-width:0.5;"/><text fill="#000000" font-family="sans-serif" font-size="14" lengthAdjust="spacing" textLength="110" x="291.5" y="78.5352">OrderController</text><ellipse cx="349.5" cy="49" fill="#E2E2F0" rx="12" ry="12" style="stroke:#181818;stroke-width:0.5;"/><polygon fill="#181818" points="345.5,37,351.5,32,349.5,37,351.5,42,345.5,37" style="stroke:#181818;stroke-width:1.0;"/><text fill="#000000" font-family="sans-serif" font-size="14" lengthAdjust="spacing" textLength="110" x="291.5" y="407.1289">OrderController</text><ellipse cx="349.5" cy="426.082" fill="#E2E2F0" rx="12" ry="12" style="stroke:#181818;stroke-width:0.5;"/><polygon fill="#181818" points="345.5,414.082,351.5,409.082,349.5,414.082,351.5,419.082,345.5,414.082" style="stroke:#181818;stroke-width:1.0;"/><text fill="#000000" font-family="sans-serif" font-size="14" lengthAdjust="spacing" textLength="88" x="417.5" y="78.5352">OrderService</text><ellipse cx="464.5" cy="49" fill="#E2E2F0" rx="12" ry="12" style="stroke:#181818;stroke-width:0.5;"/><line style="stroke:#181818;stroke-width:0.5;" x1="452.5" x2="476.5" y1="63" y2="63"/><text fill="#000000" font-family="sans-serif" font-size="14" lengthAdjust="spacing" textLength="88" x="417.5" y="407.1289">OrderService</text><ellipse cx="464.5" cy="426.082" fill="#E2E2F0" rx="12" ry="12" style="stroke:#181818;stroke-width:0.5;"/><line style="stroke:#181818;stroke-width:0.5;" x1="452.5" x2="476.5" y1="440.082" y2="440.082"/><text fill="#000000" font-family="sans-serif" font-size="14" lengthAdjust="spacing" textLength="113" x="521.5" y="78.5352">OrderRepository</text><ellipse cx="581" cy="49" fill="#E2E2F0" rx="12" ry="12" style="stroke:#181818;stroke-width:0.5;"/><line style="stroke:#181818;stroke-width:0.5;" x1="569" x2="593" y1="63" y2="63"/><text fill="#000000" font-family="sans-serif" font-size="14" lengthAdjust="spacing" textLength="113" x="521.5" y="407.1289">OrderRepository</text><ellipse cx="581" cy="426.082" fill="#E2E2F0" rx="12" ry="12" style="stroke:#181818;stroke-width:0.5;"/><line style="stroke:#181818;stroke-width:0.5;" x1="569" x2="593" y1="440.082" y2="440.082"/><text fill="#000000" font-family="sans-serif" font-size="14" lengthAdjust="spacing" textLength="106" x="650.5" y="78.5352">PaymentService</text><ellipse cx="706.5" cy="49" fill="#E2E2F0" rx="12" ry="12" style="stroke:#181818;stroke-width:0.5;"/><line style="stroke:#181818;stroke-width:0.5;" x1="694.5" x2="718.5" y1="63" y2="63"/><text fill="#000000" font-family="sans-serif" font-size="14" lengthAdjust="spacing" textLength="106" x="650.5" y="407.1289">PaymentService</text><ellipse cx="706.5" cy="426.082" fill="#E2E2F0" rx="12" ry="12" style="stroke:#181818;stroke-width:0.5;"/><line style="stroke:#181818;stroke-width:0.5;" x1="694.5" x2="718.5" y1="440.082" y2="440.082"/><polygon fill="#181818" points="189.5,108.7988,199.5,112.7988,189.5,116.7988,193.5,112.7988" style="stroke:#181818;stroke-width:1.0;"/><line style="stroke:#181818;stroke-width:1.0;" x1="41.5" x2="195.5" y1="112.7988" y2="112.7988"/><text fill="#000000" font-family="sans-serif" font-size="13" lengthAdjust="spacing" textLength="76" x="48.5" y="108.0566">placeOrder()</text><polygon fill="#181818" points="337.5,138.1094,347.5,142.1094,337.5,146.1094,341.5,142.1094" style="stroke:#181818;stroke-width:1.0;"/><line style="stroke:#181818;stroke-width:1.0;" x1="201.5" x2="343.5" y1="142.1094" y2="142.1094"/><text fill="#000000" font-family="sans-serif" font-size="13" lengthAdjust="spacing" textLength="76" x="208.5" y="137.3672">placeOrder()</text><polygon fill="#181818" points="452.5,167.4199,462.5,171.4199,452.5,175.4199,456.5,171.4199" style="stroke:#181818;stroke-width:1.0;"/><line style="stroke:#181818;stroke-width:1.0;" x1="349.5" x2="458.5" y1="171.4199" y2="171.4199"/><text fill="#000000" font-family="sans-serif" font-size="13" lengthAdjust="spacing" textLength="81" x="356.5" y="166.6777">createOrder()</text><polygon fill="#181818" points="569,196.7305,579,200.7305,569,204.7305,573,200.7305" style="stroke:#181818;stroke-width:1.0;"/><line style="stroke:#181818;stroke-width:1.0;" x1="464.5" x2="575" y1="200.7305" y2="200.7305"/><text fill="#000000" font-family="sans-serif" font-size="13" lengthAdjust="spacing" textLength="71" x="471.5" y="195.9883">saveOrder()</text><polygon fill="#181818" points="475.5,226.041,465.5,230.041,475.5,234.041,471.5,230.041" style="stroke:#181818;stroke-width:1.0;"/><line style="stroke:#181818;stroke-width:1.0;stroke-dasharray:2.0,2.0;" x1="469.5" x2="580" y1="230.041" y2="230.041"/><text fill="#000000" font-family="sans-serif" font-size="13" lengthAdjust="spacing" textLength="77" x="481.5" y="225.2988">orderSaved()</text><polygon fill="#181818" points="694.5,255.3516,704.5,259.3516,694.5,263.3516,698.5,259.3516" style="stroke:#181818;stroke-width:1.0;"/><line style="stroke:#181818;stroke-width:1.0;" x1="464.5" x2="700.5" y1="259.3516" y2="259.3516"/><text fill="#000000" font-family="sans-serif" font-size="13" lengthAdjust="spacing" textLength="110" x="471.5" y="254.6094">processPayment()</text><polygon fill="#181818" points="475.5,284.6621,465.5,288.6621,475.5,292.6621,471.5,288.6621" style="stroke:#181818;stroke-width:1.0;"/><line style="stroke:#181818;stroke-width:1.0;stroke-dasharray:2.0,2.0;" x1="469.5" x2="705.5" y1="288.6621" y2="288.6621"/><text fill="#000000" font-family="sans-serif" font-size="13" lengthAdjust="spacing" textLength="128" x="481.5" y="283.9199">paymentConfirmed()</text><polygon fill="#181818" points="360.5,313.9727,350.5,317.9727,360.5,321.9727,356.5,317.9727" style="stroke:#181818;stroke-width:1.0;"/><line style="stroke:#181818;stroke-width:1.0;stroke-dasharray:2.0,2.0;" x1="354.5" x2="463.5" y1="317.9727" y2="317.9727"/><text fill="#000000" font-family="sans-serif" font-size="13" lengthAdjust="spacing" textLength="89" x="366.5" y="313.2305">orderCreated()</text><polygon fill="#181818" points="212.5,343.2832,202.5,347.2832,212.5,351.2832,208.5,347.2832" style="stroke:#181818;stroke-width:1.0;"/><line style="stroke:#181818;stroke-width:1.0;stroke-dasharray:2.0,2.0;" x1="206.5" x2="348.5" y1="347.2832" y2="347.2832"/><text fill="#000000" font-family="sans-serif" font-size="13" lengthAdjust="spacing" textLength="124" x="218.5" y="342.541">orderConfirmation()</text><polygon fill="#181818" points="52.5,372.5938,42.5,376.5938,52.5,380.5938,48.5,376.5938" style="stroke:#181818;stroke-width:1.0;"/><line style="stroke:#181818;stroke-width:1.0;stroke-dasharray:2.0,2.0;" x1="46.5" x2="200.5" y1="376.5938" y2="376.5938"/><text fill="#000000" font-family="sans-serif" font-size="13" lengthAdjust="spacing" textLength="136" x="58.5" y="371.8516">displayConfirmation()</text><!--SRC=[RL4n3eCm3DnvXSTsu0CCNPYOMhNY0MdYIf408oTKokzh8812iyNdyvrzKTeJGpqvJproyQPfC8e3j4sXQV1C7TpP8DThqGa71szzME4NyjTgJB0dZkIio8ODVgZGotCZ5viTb3Sngc3ibCPbzd8jscQ6JwOdpgcx3qI72ZIZyYazzdRkiMO5JdrJyj64ya-Sbaf6J4OxlLNsPjBeN8Hb82LavCUL8ETzBFSParmyoqxrShN91HIJfeZFoifR6cBWqju-fG9ZdQGTKjeF]--></g></svg>