<?xml version="1.0" encoding="us-ascii" standalone="no"?><svg xmlns="http://www.w3.org/2000/svg" xmlns:xlink="http://www.w3.org/1999/xlink" contentStyleType="text/css" height="529.9px" preserveAspectRatio="none" style="width:763px;height:529px;background:#FFFFFF;" version="1.1" viewBox="0 0 763 529" width="763.7px" zoomAndPan="magnify"><defs/><g><rect fill="#FFFFFF" height="377.9631" style="stroke:#181818;stroke-width:0.6999999999999998;" width="7" x="208.95" y="81.8385"/><rect fill="#FFFFFF" height="65.7111" style="stroke:#181818;stroke-width:0.6999999999999998;" width="7" x="379.75" y="103.7422"/><rect fill="#FFFFFF" height="158.926" style="stroke:#181818;stroke-width:0.6999999999999998;" width="7" x="379.75" y="278.9719"/><rect fill="#FFFFFF" height="21.9037" style="stroke:#181818;stroke-width:0.6999999999999998;" width="7" x="598.15" y="125.6459"/><rect fill="#FFFFFF" height="65.7111" style="stroke:#181818;stroke-width:0.6999999999999998;" width="7" x="598.15" y="350.283"/><rect fill="#FFFFFF" height="21.9037" style="stroke:#181818;stroke-width:0.6999999999999998;" width="7" x="720.65" y="372.1867"/><line style="stroke:#181818;stroke-width:0.3499999999999999;stroke-dasharray:5.0,5.0;" x1="56.7" x2="56.7" y1="58.5348" y2="472.4016"/><line style="stroke:#181818;stroke-width:0.3499999999999999;stroke-dasharray:5.0,5.0;" x1="212.1" x2="212.1" y1="58.5348" y2="472.4016"/><line style="stroke:#181818;stroke-width:0.3499999999999999;stroke-dasharray:5.0,5.0;" x1="382.9" x2="382.9" y1="58.5348" y2="472.4016"/><line style="stroke:#181818;stroke-width:0.3499999999999999;stroke-dasharray:5.0,5.0;" x1="601.65" x2="601.65" y1="58.5348" y2="472.4016"/><line style="stroke:#181818;stroke-width:0.3499999999999999;stroke-dasharray:5.0,5.0;" x1="724.15" x2="724.15" y1="58.5348" y2="472.4016"/><text fill="#000000" font-family="sans-serif" font-size="9.8" lengthAdjust="spacing" textLength="81.9" x="14" y="56.0752">CustomerManager</text><ellipse cx="57.05" cy="9.45" fill="#E2E2F0" rx="5.6" ry="5.6" style="stroke:#181818;stroke-width:0.3499999999999999;"/><path d="M57.05,15.05 L57.05,33.95 M47.95,20.65 L66.15,20.65 M57.05,33.95 L47.95,44.45 M57.05,33.95 L66.15,44.45 " fill="none" style="stroke:#181818;stroke-width:0.3499999999999999;"/><text fill="#000000" font-family="sans-serif" font-size="9.8" lengthAdjust="spacing" textLength="81.9" x="14" y="482.2768">CustomerManager</text><ellipse cx="57.05" cy="490.6863" fill="#E2E2F0" rx="5.6" ry="5.6" style="stroke:#181818;stroke-width:0.3499999999999999;"/><path d="M57.05,496.2863 L57.05,515.1863 M47.95,501.8863 L66.15,501.8863 M57.05,515.1863 L47.95,525.6863 M57.05,515.1863 L66.15,525.6863 " fill="none" style="stroke:#181818;stroke-width:0.3499999999999999;"/><rect fill="#E2E2F0" height="22.8348" rx="1.75" ry="1.75" style="stroke:#181818;stroke-width:0.3499999999999999;" width="87.5" x="168.7" y="35"/><text fill="#000000" font-family="sans-serif" font-size="9.8" lengthAdjust="spacing" textLength="77.7" x="173.6" y="50.4752">UploadInterviewUI</text><rect fill="#E2E2F0" height="22.8348" rx="1.75" ry="1.75" style="stroke:#181818;stroke-width:0.3499999999999999;" width="87.5" x="168.7" y="471.7016"/><text fill="#000000" font-family="sans-serif" font-size="9.8" lengthAdjust="spacing" textLength="77.7" x="173.6" y="487.1768">UploadInterviewUI</text><rect fill="#E2E2F0" height="22.8348" rx="1.75" ry="1.75" style="stroke:#181818;stroke-width:0.3499999999999999;" width="122.5" x="322" y="35"/><text fill="#000000" font-family="sans-serif" font-size="9.8" lengthAdjust="spacing" textLength="112.7" x="326.9" y="50.4752">UploadInterviewController</text><rect fill="#E2E2F0" height="22.8348" rx="1.75" ry="1.75" style="stroke:#181818;stroke-width:0.3499999999999999;" width="122.5" x="322" y="471.7016"/><text fill="#000000" font-family="sans-serif" font-size="9.8" lengthAdjust="spacing" textLength="112.7" x="326.9" y="487.1768">UploadInterviewController</text><rect fill="#E2E2F0" height="22.8348" rx="1.75" ry="1.75" style="stroke:#181818;stroke-width:0.3499999999999999;" width="91" x="556.15" y="35"/><text fill="#000000" font-family="sans-serif" font-size="9.8" lengthAdjust="spacing" textLength="81.2" x="561.05" y="50.4752">ApplicationService</text><rect fill="#E2E2F0" height="22.8348" rx="1.75" ry="1.75" style="stroke:#181818;stroke-width:0.3499999999999999;" width="91" x="556.15" y="471.7016"/><text fill="#000000" font-family="sans-serif" font-size="9.8" lengthAdjust="spacing" textLength="81.2" x="561.05" y="487.1768">ApplicationService</text><rect fill="#E2E2F0" height="22.8348" rx="1.75" ry="1.75" style="stroke:#181818;stroke-width:0.3499999999999999;" width="71.4" x="688.45" y="35"/><text fill="#000000" font-family="sans-serif" font-size="9.8" lengthAdjust="spacing" textLength="61.6" x="693.35" y="50.4752">jobApplication</text><rect fill="#E2E2F0" height="22.8348" rx="1.75" ry="1.75" style="stroke:#181818;stroke-width:0.3499999999999999;" width="71.4" x="688.45" y="471.7016"/><text fill="#000000" font-family="sans-serif" font-size="9.8" lengthAdjust="spacing" textLength="61.6" x="693.35" y="487.1768">jobApplication</text><rect fill="#FFFFFF" height="377.9631" style="stroke:#181818;stroke-width:0.6999999999999998;" width="7" x="208.95" y="81.8385"/><rect fill="#FFFFFF" height="65.7111" style="stroke:#181818;stroke-width:0.6999999999999998;" width="7" x="379.75" y="103.7422"/><rect fill="#FFFFFF" height="158.926" style="stroke:#181818;stroke-width:0.6999999999999998;" width="7" x="379.75" y="278.9719"/><rect fill="#FFFFFF" height="21.9037" style="stroke:#181818;stroke-width:0.6999999999999998;" width="7" x="598.15" y="125.6459"/><rect fill="#FFFFFF" height="65.7111" style="stroke:#181818;stroke-width:0.6999999999999998;" width="7" x="598.15" y="350.283"/><rect fill="#FFFFFF" height="21.9037" style="stroke:#181818;stroke-width:0.6999999999999998;" width="7" x="720.65" y="372.1867"/><polygon fill="#181818" points="200.55,79.0385,207.55,81.8385,200.55,84.6385,203.35,81.8385" style="stroke:#181818;stroke-width:0.6999999999999998;"/><line style="stroke:#181818;stroke-width:0.6999999999999998;" x1="57.05" x2="204.75" y1="81.8385" y2="81.8385"/><text fill="#000000" font-family="sans-serif" font-size="9.1" lengthAdjust="spacing" textLength="138.6" x="61.95" y="78.1546">Asks to import candidate interview</text><polygon fill="#181818" points="371.35,100.9422,378.35,103.7422,371.35,106.5422,374.15,103.7422" style="stroke:#181818;stroke-width:0.6999999999999998;"/><line style="stroke:#181818;stroke-width:0.6999999999999998;" x1="215.95" x2="375.55" y1="103.7422" y2="103.7422"/><text fill="#000000" font-family="sans-serif" font-size="9.1" lengthAdjust="spacing" textLength="67.9" x="220.85" y="100.0583">getApplications()</text><polygon fill="#181818" points="589.75,122.8459,596.75,125.6459,589.75,128.4459,592.55,125.6459" style="stroke:#181818;stroke-width:0.6999999999999998;"/><line style="stroke:#181818;stroke-width:0.6999999999999998;" x1="386.75" x2="593.95" y1="125.6459" y2="125.6459"/><text fill="#000000" font-family="sans-serif" font-size="9.1" lengthAdjust="spacing" textLength="30.1" x="391.65" y="121.962">findAll()</text><polygon fill="#181818" points="394.45,144.7496,387.45,147.5496,394.45,150.3496,391.65,147.5496" style="stroke:#181818;stroke-width:0.6999999999999998;"/><line style="stroke:#181818;stroke-width:0.6999999999999998;stroke-dasharray:2.0,2.0;" x1="390.25" x2="600.95" y1="147.5496" y2="147.5496"/><text fill="#000000" font-family="sans-serif" font-size="9.1" lengthAdjust="spacing" textLength="97.3" x="398.65" y="143.8657">Iterable&lt;jobApplication&gt;</text><polygon fill="#181818" points="223.65,166.6533,216.65,169.4533,223.65,172.2533,220.85,169.4533" style="stroke:#181818;stroke-width:0.6999999999999998;"/><line style="stroke:#181818;stroke-width:0.6999999999999998;stroke-dasharray:2.0,2.0;" x1="219.45" x2="382.55" y1="169.4533" y2="169.4533"/><text fill="#000000" font-family="sans-serif" font-size="9.1" lengthAdjust="spacing" textLength="97.3" x="227.85" y="165.7694">Iterable&lt;jobApplication&gt;</text><polygon fill="#181818" points="64.75,188.557,57.75,191.357,64.75,194.157,61.95,191.357" style="stroke:#181818;stroke-width:0.6999999999999998;"/><line style="stroke:#181818;stroke-width:0.6999999999999998;" x1="60.55" x2="208.25" y1="191.357" y2="191.357"/><text fill="#000000" font-family="sans-serif" font-size="9.1" lengthAdjust="spacing" textLength="117.6" x="68.95" y="187.6731">Asks to select an application</text><polygon fill="#181818" points="200.55,210.4607,207.55,213.2607,200.55,216.0607,203.35,213.2607" style="stroke:#181818;stroke-width:0.6999999999999998;"/><line style="stroke:#181818;stroke-width:0.6999999999999998;" x1="57.05" x2="204.75" y1="213.2607" y2="213.2607"/><text fill="#000000" font-family="sans-serif" font-size="9.1" lengthAdjust="spacing" textLength="84.7" x="61.95" y="209.5769">Select an application</text><polygon fill="#181818" points="64.75,232.3645,57.75,235.1645,64.75,237.9645,61.95,235.1645" style="stroke:#181818;stroke-width:0.6999999999999998;"/><line style="stroke:#181818;stroke-width:0.6999999999999998;" x1="60.55" x2="208.25" y1="235.1645" y2="235.1645"/><text fill="#000000" font-family="sans-serif" font-size="9.1" lengthAdjust="spacing" textLength="47.6" x="68.95" y="231.4806">Request file</text><polygon fill="#181818" points="200.55,254.2682,207.55,257.0682,200.55,259.8682,203.35,257.0682" style="stroke:#181818;stroke-width:0.6999999999999998;"/><line style="stroke:#181818;stroke-width:0.6999999999999998;" x1="57.05" x2="204.75" y1="257.0682" y2="257.0682"/><text fill="#000000" font-family="sans-serif" font-size="9.1" lengthAdjust="spacing" textLength="116.2" x="61.95" y="253.3843">Upload text file with Interview</text><polygon fill="#181818" points="371.35,276.1719,378.35,278.9719,371.35,281.7719,374.15,278.9719" style="stroke:#181818;stroke-width:0.6999999999999998;"/><line style="stroke:#181818;stroke-width:0.6999999999999998;" x1="215.95" x2="375.55" y1="278.9719" y2="278.9719"/><text fill="#000000" font-family="sans-serif" font-size="9.1" lengthAdjust="spacing" textLength="150.5" x="220.85" y="275.288">uploadTextFile(jobApplication, String)</text><line style="stroke:#181818;stroke-width:0.6999999999999998;" x1="386.75" x2="416.15" y1="300.8756" y2="300.8756"/><line style="stroke:#181818;stroke-width:0.6999999999999998;" x1="416.15" x2="416.15" y1="300.8756" y2="309.9756"/><line style="stroke:#181818;stroke-width:0.6999999999999998;" x1="387.45" x2="416.15" y1="309.9756" y2="309.9756"/><polygon fill="#181818" points="394.45,307.1756,387.45,309.9756,394.45,312.7756,391.65,309.9756" style="stroke:#181818;stroke-width:0.6999999999999998;"/><text fill="#000000" font-family="sans-serif" font-size="9.1" lengthAdjust="spacing" textLength="86.8" x="391.65" y="297.1917">passGrammar(String)</text><polygon fill="#181818" points="589.75,347.483,596.75,350.283,589.75,353.083,592.55,350.283" style="stroke:#181818;stroke-width:0.6999999999999998;"/><line style="stroke:#181818;stroke-width:0.6999999999999998;" x1="386.75" x2="593.95" y1="350.283" y2="350.283"/><text fill="#000000" font-family="sans-serif" font-size="9.1" lengthAdjust="spacing" textLength="198.1" x="391.65" y="346.5991">uploadInterviewResponses(jobApplication, String)</text><polygon fill="#181818" points="712.25,369.3867,719.25,372.1867,712.25,374.9867,715.05,372.1867" style="stroke:#181818;stroke-width:0.6999999999999998;"/><line style="stroke:#181818;stroke-width:0.6999999999999998;" x1="605.15" x2="716.45" y1="372.1867" y2="372.1867"/><text fill="#000000" font-family="sans-serif" font-size="9.1" lengthAdjust="spacing" textLength="102.2" x="610.05" y="368.5028">updateResponses(String)</text><polygon fill="#181818" points="612.85,391.2904,605.85,394.0904,612.85,396.8904,610.05,394.0904" style="stroke:#181818;stroke-width:0.6999999999999998;"/><line style="stroke:#181818;stroke-width:0.6999999999999998;" x1="608.65" x2="723.45" y1="394.0904" y2="394.0904"/><text fill="#000000" font-family="sans-serif" font-size="9.1" lengthAdjust="spacing" textLength="83.3" x="617.05" y="390.4065">"Update Successful"</text><polygon fill="#181818" points="394.45,413.1941,387.45,415.9941,394.45,418.7941,391.65,415.9941" style="stroke:#181818;stroke-width:0.6999999999999998;"/><line style="stroke:#181818;stroke-width:0.6999999999999998;stroke-dasharray:2.0,2.0;" x1="390.25" x2="600.95" y1="415.9941" y2="415.9941"/><text fill="#000000" font-family="sans-serif" font-size="9.1" lengthAdjust="spacing" textLength="83.3" x="398.65" y="412.3103">"Update Successful"</text><polygon fill="#181818" points="223.65,435.0979,216.65,437.8979,223.65,440.6979,220.85,437.8979" style="stroke:#181818;stroke-width:0.6999999999999998;"/><line style="stroke:#181818;stroke-width:0.6999999999999998;stroke-dasharray:2.0,2.0;" x1="219.45" x2="382.55" y1="437.8979" y2="437.8979"/><text fill="#000000" font-family="sans-serif" font-size="9.1" lengthAdjust="spacing" textLength="83.3" x="227.85" y="434.214">"Update Successful"</text><polygon fill="#181818" points="64.75,457.0016,57.75,459.8016,64.75,462.6016,61.95,459.8016" style="stroke:#181818;stroke-width:0.6999999999999998;"/><line style="stroke:#181818;stroke-width:0.6999999999999998;" x1="60.55" x2="211.75" y1="459.8016" y2="459.8016"/><text fill="#000000" font-family="sans-serif" font-size="9.1" lengthAdjust="spacing" textLength="103.6" x="68.95" y="456.1177">Return success message</text><!--SRC=[ZLJDRi8m3BxdAInEJDfU04r826aJXrrWF8193SkM9btYmXv_ff0sHIsYXqg9_Nt- -npKx0CiwyY-fF213WyKL8M1ZJOLEeR9jh8UYvLZ2aT3f-rg0XXXkxhhjVIEWxUMGkFT7VkeHLLPev6DTvipK5FZBjVNOz_zs-yoH79DPwLkwe2NkUG9CrZ4dmZimPIL3mmQNM4AP0AJybMesHpFLrAO4f10kwI5ua2SXOhJfmwH5QSoZ31qTGZ3thXYOMsEpEfKcU_BRV2LP8axIw_z1inLGODSUHQf1uzmv9LSUt3JqQwNaInf1dI0sGZ69h0Pz1uDigRVcY9BpooDSbua1qn_5qSu6Vw2LeA3OwmRpAT0tWGnxVVY6JOSZ3iyDDlkD8CAOtmFM9OOfeb2AP0FBOFPNz8p4OveJT4OpjyTiTJzTLfJh4Hr54SpJfn3UaYsN6BpV7EQWEU5wEBSu-tcbp6tNBUboDFGxDgcrffYtDTsqkBw-Xta7LsAntdRlHXgV5BJWtIv899vNCLS1mVnmWYb_CJIm5I-TlBa_0C0]--></g></svg>