<?xml version="1.0" encoding="us-ascii" standalone="no"?><svg xmlns="http://www.w3.org/2000/svg" xmlns:xlink="http://www.w3.org/1999/xlink" contentStyleType="text/css" height="1559px" preserveAspectRatio="none" style="width:1950px;height:1559px;background:#FFFFFF;" version="1.1" viewBox="0 0 1950 1559" width="1950px" zoomAndPan="magnify"><defs/><g><!--cluster Controller--><g id="cluster_Controller"><path d="M591.5,196.0137 L663.5,196.0137 A3.75,3.75 0 0 1 666,198.5137 L673,220.6348 L1144.5,220.6348 A2.5,2.5 0 0 1 1147,223.1348 L1147,406.5137 A2.5,2.5 0 0 1 1144.5,409.0137 L591.5,409.0137 A2.5,2.5 0 0 1 589,406.5137 L589,198.5137 A2.5,2.5 0 0 1 591.5,196.0137 " fill="none" style="stroke:#000000;stroke-width:1.5;"/><line style="stroke:#000000;stroke-width:1.5;" x1="589" x2="673" y1="220.6348" y2="220.6348"/><text fill="#000000" font-family="sans-serif" font-size="14" font-weight="bold" lengthAdjust="spacing" textLength="71" x="593" y="213.1211">Controller</text></g><!--cluster UI--><g id="cluster_UI"><path d="M760.5,6.0137 L775.5,6.0137 A3.75,3.75 0 0 1 778,8.5137 L785,30.6348 L975.5,30.6348 A2.5,2.5 0 0 1 978,33.1348 L978,160.5137 A2.5,2.5 0 0 1 975.5,163.0137 L760.5,163.0137 A2.5,2.5 0 0 1 758,160.5137 L758,8.5137 A2.5,2.5 0 0 1 760.5,6.0137 " fill="none" style="stroke:#000000;stroke-width:1.5;"/><line style="stroke:#000000;stroke-width:1.5;" x1="758" x2="785" y1="30.6348" y2="30.6348"/><text fill="#000000" font-family="sans-serif" font-size="14" font-weight="bold" lengthAdjust="spacing" textLength="14" x="762" y="23.1211">UI</text></g><!--cluster Repository--><g id="cluster_Repository"><path d="M8.5,505.5137 L85.5,505.5137 A3.75,3.75 0 0 1 88,508.0137 L95,530.1348 L969.5,530.1348 A2.5,2.5 0 0 1 972,532.6348 L972,623.0137 A2.5,2.5 0 0 1 969.5,625.5137 L8.5,625.5137 A2.5,2.5 0 0 1 6,623.0137 L6,508.0137 A2.5,2.5 0 0 1 8.5,505.5137 " fill="none" style="stroke:#000000;stroke-width:1.5;"/><line style="stroke:#000000;stroke-width:1.5;" x1="6" x2="95" y1="530.1348" y2="530.1348"/><text fill="#000000" font-family="sans-serif" font-size="14" font-weight="bold" lengthAdjust="spacing" textLength="76" x="10" y="522.6211">Repository</text></g><!--cluster Model--><g id="cluster_Model"><path d="M998.5,442.0137 L1043.5,442.0137 A3.75,3.75 0 0 1 1046,444.5137 L1053,466.6348 L1940.5,466.6348 A2.5,2.5 0 0 1 1943,469.1348 L1943,1549.5137 A2.5,2.5 0 0 1 1940.5,1552.0137 L998.5,1552.0137 A2.5,2.5 0 0 1 996,1549.5137 L996,444.5137 A2.5,2.5 0 0 1 998.5,442.0137 " fill="none" style="stroke:#000000;stroke-width:1.5;"/><line style="stroke:#000000;stroke-width:1.5;" x1="996" x2="1053" y1="466.6348" y2="466.6348"/><text fill="#000000" font-family="sans-serif" font-size="14" font-weight="bold" lengthAdjust="spacing" textLength="44" x="1000" y="459.1211">Model</text></g><!--cluster JobOpeningAgg--><g id="cluster_JobOpeningAgg"><path d="M1022.5,487.0137 L1136.5,487.0137 A3.75,3.75 0 0 1 1139,489.5137 L1146,511.6348 L1558.5,511.6348 A2.5,2.5 0 0 1 1561,514.1348 L1561,1395.5137 A2.5,2.5 0 0 1 1558.5,1398.0137 L1022.5,1398.0137 A2.5,2.5 0 0 1 1020,1395.5137 L1020,489.5137 A2.5,2.5 0 0 1 1022.5,487.0137 " fill="none" style="stroke:#000000;stroke-width:1.5;"/><line style="stroke:#000000;stroke-width:1.5;" x1="1020" x2="1146" y1="511.6348" y2="511.6348"/><text fill="#000000" font-family="sans-serif" font-size="14" font-weight="bold" lengthAdjust="spacing" textLength="113" x="1024" y="504.1211">JobOpeningAgg</text></g><!--cluster RankAgg--><g id="cluster_RankAgg"><path d="M1587.5,726.0137 L1650.5,726.0137 A3.75,3.75 0 0 1 1653,728.5137 L1660,750.6348 L1916.5,750.6348 A2.5,2.5 0 0 1 1919,753.1348 L1919,1147.5137 A2.5,2.5 0 0 1 1916.5,1150.0137 L1587.5,1150.0137 A2.5,2.5 0 0 1 1585,1147.5137 L1585,728.5137 A2.5,2.5 0 0 1 1587.5,726.0137 " fill="none" style="stroke:#000000;stroke-width:1.5;"/><line style="stroke:#000000;stroke-width:1.5;" x1="1585" x2="1660" y1="750.6348" y2="750.6348"/><text fill="#000000" font-family="sans-serif" font-size="14" font-weight="bold" lengthAdjust="spacing" textLength="62" x="1589" y="743.1211">RankAgg</text></g><!--cluster CandidateAgg--><g id="cluster_CandidateAgg"><path d="M1587.5,1241.0137 L1686.5,1241.0137 A3.75,3.75 0 0 1 1689,1243.5137 L1696,1265.6348 L1830.5,1265.6348 A2.5,2.5 0 0 1 1833,1268.1348 L1833,1525.5137 A2.5,2.5 0 0 1 1830.5,1528.0137 L1587.5,1528.0137 A2.5,2.5 0 0 1 1585,1525.5137 L1585,1243.5137 A2.5,2.5 0 0 1 1587.5,1241.0137 " fill="none" style="stroke:#000000;stroke-width:1.5;"/><line style="stroke:#000000;stroke-width:1.5;" x1="1585" x2="1696" y1="1265.6348" y2="1265.6348"/><text fill="#000000" font-family="sans-serif" font-size="14" font-weight="bold" lengthAdjust="spacing" textLength="98" x="1589" y="1258.1211">CandidateAgg</text></g><!--class RankController--><g id="elem_RankController"><rect codeLine="3" fill="#F1F1F1" height="159.7266" id="RankController" rx="2.5" ry="2.5" style="stroke:#181818;stroke-width:0.5;" width="526" x="605" y="233.0137"/><ellipse cx="816.25" cy="249.0137" fill="#ADD1B2" rx="11" ry="11" style="stroke:#181818;stroke-width:1.0;"/><path d="M819.0156,244.8887 Q819.1719,244.6699 819.3594,244.5605 Q819.5469,244.4512 819.7656,244.4512 Q820.1406,244.4512 820.375,244.7168 Q820.6094,244.9668 820.6094,245.5762 L820.6094,247.0293 Q820.6094,247.6387 820.375,247.9043 Q820.1406,248.1699 819.7656,248.1699 Q819.4219,248.1699 819.2188,247.9668 Q819.0156,247.7793 818.9063,247.2637 Q818.8594,246.9043 818.6719,246.7168 Q818.3438,246.3418 817.7344,246.123 Q817.125,245.9043 816.5,245.9043 Q815.7344,245.9043 815.0938,246.2324 Q814.4688,246.5605 813.9688,247.3105 Q813.4844,248.0605 813.4844,249.0918 L813.4844,250.1855 Q813.4844,251.4199 814.375,252.248 Q815.2656,253.0605 816.8594,253.0605 Q817.7969,253.0605 818.4531,252.8105 Q818.8438,252.6543 819.2656,252.2168 Q819.5313,251.9512 819.6719,251.873 Q819.8281,251.7949 820.0313,251.7949 Q820.3594,251.7949 820.6094,252.0605 Q820.875,252.3105 820.875,252.6543 Q820.875,252.998 820.5313,253.4043 Q820.0313,253.9824 819.2344,254.3105 Q818.1563,254.7637 816.8594,254.7637 Q815.3438,254.7637 814.1406,254.1387 Q813.1563,253.6387 812.4688,252.5762 Q811.7813,251.498 811.7813,250.2168 L811.7813,249.0605 Q811.7813,247.7324 812.3906,246.5918 Q813.0156,245.4355 814.1094,244.8262 Q815.2031,244.2012 816.4375,244.2012 Q817.1719,244.2012 817.8125,244.373 Q818.4688,244.5293 819.0156,244.8887 Z " fill="#000000"/><text fill="#000000" font-family="sans-serif" font-size="14" lengthAdjust="spacing" textLength="95" x="836.75" y="254.8105">RankController</text><line style="stroke:#181818;stroke-width:0.5;" x1="606" x2="1130" y1="265.0137" y2="265.0137"/><rect fill="none" height="6" style="stroke:#C82930;stroke-width:1.0;" width="6" x="613" y="276.8242"/><text fill="#000000" font-family="sans-serif" font-size="14" lengthAdjust="spacing" textLength="293" x="625" y="284.1211">jobOpeningRepository: JobOpeningRepository</text><rect fill="none" height="6" style="stroke:#C82930;stroke-width:1.0;" width="6" x="613" y="295.4453"/><text fill="#000000" font-family="sans-serif" font-size="14" lengthAdjust="spacing" textLength="301" x="625" y="302.7422">jobApplicationRepository: ApplicationRepository</text><rect fill="none" height="6" style="stroke:#C82930;stroke-width:1.0;" width="6" x="613" y="314.0664"/><text fill="#000000" font-family="sans-serif" font-size="14" lengthAdjust="spacing" textLength="205" x="625" y="321.3633">rankRepository: RankRepository</text><line style="stroke:#181818;stroke-width:0.5;" x1="606" x2="1130" y1="328.877" y2="328.877"/><ellipse cx="616" cy="343.6875" fill="#84BE84" rx="3" ry="3" style="stroke:#038048;stroke-width:1.0;"/><text fill="#000000" font-family="sans-serif" font-size="14" lengthAdjust="spacing" textLength="298" x="625" y="347.9844">getJobOpeningsInAnalysis(): List&lt;JobOpening&gt;</text><ellipse cx="616" cy="362.3086" fill="#84BE84" rx="3" ry="3" style="stroke:#038048;stroke-width:1.0;"/><text fill="#000000" font-family="sans-serif" font-size="14" lengthAdjust="spacing" textLength="436" x="625" y="366.6055">generateRankPosition(jobOpening: JobOpening): List&lt;RankPosition&gt;</text><ellipse cx="616" cy="380.9297" fill="#84BE84" rx="3" ry="3" style="stroke:#038048;stroke-width:1.0;"/><text fill="#000000" font-family="sans-serif" font-size="14" lengthAdjust="spacing" textLength="500" x="625" y="385.2266">updateRank(jobOpening: JobOpening, rankPositions: List&lt;RankPosition&gt;): void</text></g><!--class RankCandidatesUI--><g id="elem_RankCandidatesUI"><rect codeLine="14" fill="#F1F1F1" height="103.8633" id="RankCandidatesUI" rx="2.5" ry="2.5" style="stroke:#181818;stroke-width:0.5;" width="188" x="774" y="43.0137"/><ellipse cx="806.55" cy="59.0137" fill="#ADD1B2" rx="11" ry="11" style="stroke:#181818;stroke-width:1.0;"/><path d="M809.3156,54.8887 Q809.4719,54.6699 809.6594,54.5605 Q809.8469,54.4512 810.0656,54.4512 Q810.4406,54.4512 810.675,54.7168 Q810.9094,54.9668 810.9094,55.5762 L810.9094,57.0293 Q810.9094,57.6387 810.675,57.9043 Q810.4406,58.1699 810.0656,58.1699 Q809.7219,58.1699 809.5188,57.9668 Q809.3156,57.7793 809.2063,57.2637 Q809.1594,56.9043 808.9719,56.7168 Q808.6438,56.3418 808.0344,56.123 Q807.425,55.9043 806.8,55.9043 Q806.0344,55.9043 805.3938,56.2324 Q804.7688,56.5605 804.2688,57.3105 Q803.7844,58.0605 803.7844,59.0918 L803.7844,60.1855 Q803.7844,61.4199 804.675,62.248 Q805.5656,63.0605 807.1594,63.0605 Q808.0969,63.0605 808.7531,62.8105 Q809.1438,62.6543 809.5656,62.2168 Q809.8313,61.9512 809.9719,61.873 Q810.1281,61.7949 810.3313,61.7949 Q810.6594,61.7949 810.9094,62.0605 Q811.175,62.3105 811.175,62.6543 Q811.175,62.998 810.8313,63.4043 Q810.3313,63.9824 809.5344,64.3105 Q808.4563,64.7637 807.1594,64.7637 Q805.6438,64.7637 804.4406,64.1387 Q803.4563,63.6387 802.7688,62.5762 Q802.0813,61.498 802.0813,60.2168 L802.0813,59.0605 Q802.0813,57.7324 802.6906,56.5918 Q803.3156,55.4355 804.4094,54.8262 Q805.5031,54.2012 806.7375,54.2012 Q807.4719,54.2012 808.1125,54.373 Q808.7688,54.5293 809.3156,54.8887 Z " fill="#000000"/><text fill="#000000" font-family="sans-serif" font-size="14" lengthAdjust="spacing" textLength="117" x="824.45" y="64.8105">RankCandidatesUI</text><line style="stroke:#181818;stroke-width:0.5;" x1="775" x2="961" y1="75.0137" y2="75.0137"/><rect fill="none" height="6" style="stroke:#C82930;stroke-width:1.0;" width="6" x="782" y="86.8242"/><text fill="#000000" font-family="sans-serif" font-size="14" lengthAdjust="spacing" textLength="162" x="794" y="94.1211">controller: RankController</text><line style="stroke:#181818;stroke-width:0.5;" x1="775" x2="961" y1="101.6348" y2="101.6348"/><ellipse cx="785" cy="116.4453" fill="#84BE84" rx="3" ry="3" style="stroke:#038048;stroke-width:1.0;"/><text fill="#000000" font-family="sans-serif" font-size="14" lengthAdjust="spacing" textLength="119" x="794" y="120.7422">doShow(): boolean</text><ellipse cx="785" cy="135.0664" fill="#84BE84" rx="3" ry="3" style="stroke:#038048;stroke-width:1.0;"/><text fill="#000000" font-family="sans-serif" font-size="14" lengthAdjust="spacing" textLength="109" x="794" y="139.3633">headline(): String</text></g><!--class ApplicationRepository--><g id="elem_ApplicationRepository"><rect codeLine="22" fill="#F1F1F1" height="66.6211" id="ApplicationRepository" rx="2.5" ry="2.5" style="stroke:#181818;stroke-width:0.5;" width="491" x="22.5" y="542.5137"/><ellipse cx="195.25" cy="558.5137" fill="#ADD1B2" rx="11" ry="11" style="stroke:#181818;stroke-width:1.0;"/><path d="M198.0156,554.3887 Q198.1719,554.1699 198.3594,554.0605 Q198.5469,553.9512 198.7656,553.9512 Q199.1406,553.9512 199.375,554.2168 Q199.6094,554.4668 199.6094,555.0762 L199.6094,556.5293 Q199.6094,557.1387 199.375,557.4043 Q199.1406,557.6699 198.7656,557.6699 Q198.4219,557.6699 198.2188,557.4668 Q198.0156,557.2793 197.9063,556.7637 Q197.8594,556.4043 197.6719,556.2168 Q197.3438,555.8418 196.7344,555.623 Q196.125,555.4043 195.5,555.4043 Q194.7344,555.4043 194.0938,555.7324 Q193.4688,556.0605 192.9688,556.8105 Q192.4844,557.5605 192.4844,558.5918 L192.4844,559.6855 Q192.4844,560.9199 193.375,561.748 Q194.2656,562.5605 195.8594,562.5605 Q196.7969,562.5605 197.4531,562.3105 Q197.8438,562.1543 198.2656,561.7168 Q198.5313,561.4512 198.6719,561.373 Q198.8281,561.2949 199.0313,561.2949 Q199.3594,561.2949 199.6094,561.5605 Q199.875,561.8105 199.875,562.1543 Q199.875,562.498 199.5313,562.9043 Q199.0313,563.4824 198.2344,563.8105 Q197.1563,564.2637 195.8594,564.2637 Q194.3438,564.2637 193.1406,563.6387 Q192.1563,563.1387 191.4688,562.0762 Q190.7813,560.998 190.7813,559.7168 L190.7813,558.5605 Q190.7813,557.2324 191.3906,556.0918 Q192.0156,554.9355 193.1094,554.3262 Q194.2031,553.7012 195.4375,553.7012 Q196.1719,553.7012 196.8125,553.873 Q197.4688,554.0293 198.0156,554.3887 Z " fill="#000000"/><text fill="#000000" font-family="sans-serif" font-size="14" lengthAdjust="spacing" textLength="137" x="215.75" y="564.3105">ApplicationRepository</text><line style="stroke:#181818;stroke-width:0.5;" x1="23.5" x2="512.5" y1="574.5137" y2="574.5137"/><line style="stroke:#181818;stroke-width:0.5;" x1="23.5" x2="512.5" y1="582.5137" y2="582.5137"/><ellipse cx="33.5" cy="597.3242" fill="#84BE84" rx="3" ry="3" style="stroke:#038048;stroke-width:1.0;"/><text fill="#000000" font-family="sans-serif" font-size="14" lengthAdjust="spacing" textLength="465" x="42.5" y="601.6211">findCandidatesByJobOpening(jobOpening: JobOpening): List&lt;Candidate&gt;</text></g><!--class JobOpeningRepository--><g id="elem_JobOpeningRepository"><rect codeLine="26" fill="#F1F1F1" height="66.6211" id="JobOpeningRepository" rx="2.5" ry="2.5" style="stroke:#181818;stroke-width:0.5;" width="196" x="549" y="542.5137"/><ellipse cx="573" cy="558.5137" fill="#ADD1B2" rx="11" ry="11" style="stroke:#181818;stroke-width:1.0;"/><path d="M575.7656,554.3887 Q575.9219,554.1699 576.1094,554.0605 Q576.2969,553.9512 576.5156,553.9512 Q576.8906,553.9512 577.125,554.2168 Q577.3594,554.4668 577.3594,555.0762 L577.3594,556.5293 Q577.3594,557.1387 577.125,557.4043 Q576.8906,557.6699 576.5156,557.6699 Q576.1719,557.6699 575.9688,557.4668 Q575.7656,557.2793 575.6563,556.7637 Q575.6094,556.4043 575.4219,556.2168 Q575.0938,555.8418 574.4844,555.623 Q573.875,555.4043 573.25,555.4043 Q572.4844,555.4043 571.8438,555.7324 Q571.2188,556.0605 570.7188,556.8105 Q570.2344,557.5605 570.2344,558.5918 L570.2344,559.6855 Q570.2344,560.9199 571.125,561.748 Q572.0156,562.5605 573.6094,562.5605 Q574.5469,562.5605 575.2031,562.3105 Q575.5938,562.1543 576.0156,561.7168 Q576.2813,561.4512 576.4219,561.373 Q576.5781,561.2949 576.7813,561.2949 Q577.1094,561.2949 577.3594,561.5605 Q577.625,561.8105 577.625,562.1543 Q577.625,562.498 577.2813,562.9043 Q576.7813,563.4824 575.9844,563.8105 Q574.9063,564.2637 573.6094,564.2637 Q572.0938,564.2637 570.8906,563.6387 Q569.9063,563.1387 569.2188,562.0762 Q568.5313,560.998 568.5313,559.7168 L568.5313,558.5605 Q568.5313,557.2324 569.1406,556.0918 Q569.7656,554.9355 570.8594,554.3262 Q571.9531,553.7012 573.1875,553.7012 Q573.9219,553.7012 574.5625,553.873 Q575.2188,554.0293 575.7656,554.3887 Z " fill="#000000"/><text fill="#000000" font-family="sans-serif" font-size="14" lengthAdjust="spacing" textLength="144" x="589" y="564.3105">JobOpeningRepository</text><line style="stroke:#181818;stroke-width:0.5;" x1="550" x2="744" y1="574.5137" y2="574.5137"/><line style="stroke:#181818;stroke-width:0.5;" x1="550" x2="744" y1="582.5137" y2="582.5137"/><ellipse cx="560" cy="597.3242" fill="#84BE84" rx="3" ry="3" style="stroke:#038048;stroke-width:1.0;"/><text fill="#000000" font-family="sans-serif" font-size="14" lengthAdjust="spacing" textLength="170" x="569" y="601.6211">findAll(): List&lt;JobOpening&gt;</text></g><!--class RankRepository--><g id="elem_RankRepository"><rect codeLine="30" fill="#F1F1F1" height="66.6211" id="RankRepository" rx="2.5" ry="2.5" style="stroke:#181818;stroke-width:0.5;" width="176" x="780" y="542.5137"/><ellipse cx="814.35" cy="558.5137" fill="#ADD1B2" rx="11" ry="11" style="stroke:#181818;stroke-width:1.0;"/><path d="M817.1156,554.3887 Q817.2719,554.1699 817.4594,554.0605 Q817.6469,553.9512 817.8656,553.9512 Q818.2406,553.9512 818.475,554.2168 Q818.7094,554.4668 818.7094,555.0762 L818.7094,556.5293 Q818.7094,557.1387 818.475,557.4043 Q818.2406,557.6699 817.8656,557.6699 Q817.5219,557.6699 817.3188,557.4668 Q817.1156,557.2793 817.0063,556.7637 Q816.9594,556.4043 816.7719,556.2168 Q816.4438,555.8418 815.8344,555.623 Q815.225,555.4043 814.6,555.4043 Q813.8344,555.4043 813.1938,555.7324 Q812.5688,556.0605 812.0688,556.8105 Q811.5844,557.5605 811.5844,558.5918 L811.5844,559.6855 Q811.5844,560.9199 812.475,561.748 Q813.3656,562.5605 814.9594,562.5605 Q815.8969,562.5605 816.5531,562.3105 Q816.9438,562.1543 817.3656,561.7168 Q817.6313,561.4512 817.7719,561.373 Q817.9281,561.2949 818.1313,561.2949 Q818.4594,561.2949 818.7094,561.5605 Q818.975,561.8105 818.975,562.1543 Q818.975,562.498 818.6313,562.9043 Q818.1313,563.4824 817.3344,563.8105 Q816.2563,564.2637 814.9594,564.2637 Q813.4438,564.2637 812.2406,563.6387 Q811.2563,563.1387 810.5688,562.0762 Q809.8813,560.998 809.8813,559.7168 L809.8813,558.5605 Q809.8813,557.2324 810.4906,556.0918 Q811.1156,554.9355 812.2094,554.3262 Q813.3031,553.7012 814.5375,553.7012 Q815.2719,553.7012 815.9125,553.873 Q816.5688,554.0293 817.1156,554.3887 Z " fill="#000000"/><text fill="#000000" font-family="sans-serif" font-size="14" lengthAdjust="spacing" textLength="101" x="832.65" y="564.3105">RankRepository</text><line style="stroke:#181818;stroke-width:0.5;" x1="781" x2="955" y1="574.5137" y2="574.5137"/><line style="stroke:#181818;stroke-width:0.5;" x1="781" x2="955" y1="582.5137" y2="582.5137"/><ellipse cx="791" cy="597.3242" fill="#84BE84" rx="3" ry="3" style="stroke:#038048;stroke-width:1.0;"/><text fill="#000000" font-family="sans-serif" font-size="14" lengthAdjust="spacing" textLength="150" x="800" y="601.6211">save(rank: Rank): Rank</text></g><!--class JobOpening--><g id="elem_JobOpening"><rect codeLine="37" fill="#F1F1F1" height="103.8633" id="JobOpening" rx="2.5" ry="2.5" style="stroke:#181818;stroke-width:0.5;" width="283" x="1167.5" y="524.0137"/><ellipse cx="1266.75" cy="540.0137" fill="#ADD1B2" rx="11" ry="11" style="stroke:#181818;stroke-width:1.0;"/><path d="M1269.5156,535.8887 Q1269.6719,535.6699 1269.8594,535.5605 Q1270.0469,535.4512 1270.2656,535.4512 Q1270.6406,535.4512 1270.875,535.7168 Q1271.1094,535.9668 1271.1094,536.5762 L1271.1094,538.0293 Q1271.1094,538.6387 1270.875,538.9043 Q1270.6406,539.1699 1270.2656,539.1699 Q1269.9219,539.1699 1269.7188,538.9668 Q1269.5156,538.7793 1269.4063,538.2637 Q1269.3594,537.9043 1269.1719,537.7168 Q1268.8438,537.3418 1268.2344,537.123 Q1267.625,536.9043 1267,536.9043 Q1266.2344,536.9043 1265.5938,537.2324 Q1264.9688,537.5605 1264.4688,538.3105 Q1263.9844,539.0605 1263.9844,540.0918 L1263.9844,541.1855 Q1263.9844,542.4199 1264.875,543.248 Q1265.7656,544.0605 1267.3594,544.0605 Q1268.2969,544.0605 1268.9531,543.8105 Q1269.3438,543.6543 1269.7656,543.2168 Q1270.0313,542.9512 1270.1719,542.873 Q1270.3281,542.7949 1270.5313,542.7949 Q1270.8594,542.7949 1271.1094,543.0605 Q1271.375,543.3105 1271.375,543.6543 Q1271.375,543.998 1271.0313,544.4043 Q1270.5313,544.9824 1269.7344,545.3105 Q1268.6563,545.7637 1267.3594,545.7637 Q1265.8438,545.7637 1264.6406,545.1387 Q1263.6563,544.6387 1262.9688,543.5762 Q1262.2813,542.498 1262.2813,541.2168 L1262.2813,540.0605 Q1262.2813,538.7324 1262.8906,537.5918 Q1263.5156,536.4355 1264.6094,535.8262 Q1265.7031,535.2012 1266.9375,535.2012 Q1267.6719,535.2012 1268.3125,535.373 Q1268.9688,535.5293 1269.5156,535.8887 Z " fill="#000000"/><text fill="#000000" font-family="sans-serif" font-size="14" lengthAdjust="spacing" textLength="76" x="1287.25" y="545.8105">JobOpening</text><line style="stroke:#181818;stroke-width:0.5;" x1="1168.5" x2="1449.5" y1="556.0137" y2="556.0137"/><ellipse cx="1178.5" cy="570.8242" fill="none" rx="3" ry="3" style="stroke:#038048;stroke-width:1.0;"/><text fill="#000000" font-family="sans-serif" font-size="14" lengthAdjust="spacing" textLength="107" x="1187.5" y="575.1211">id: JobReference</text><ellipse cx="1178.5" cy="589.4453" fill="none" rx="3" ry="3" style="stroke:#038048;stroke-width:1.0;"/><text fill="#000000" font-family="sans-serif" font-size="14" lengthAdjust="spacing" textLength="257" x="1187.5" y="593.7422">recruitmentProcess: RecruitmentProcess</text><ellipse cx="1178.5" cy="608.0664" fill="none" rx="3" ry="3" style="stroke:#038048;stroke-width:1.0;"/><text fill="#000000" font-family="sans-serif" font-size="14" lengthAdjust="spacing" textLength="69" x="1187.5" y="612.3633">rank: Rank</text><line style="stroke:#181818;stroke-width:0.5;" x1="1168.5" x2="1449.5" y1="619.877" y2="619.877"/></g><!--class RecruitmentProcess--><g id="elem_RecruitmentProcess"><rect codeLine="43" fill="#F1F1F1" height="215.5898" id="RecruitmentProcess" rx="2.5" ry="2.5" style="stroke:#181818;stroke-width:0.5;" width="378" x="1120" y="707.0137"/><ellipse cx="1241.25" cy="723.0137" fill="#ADD1B2" rx="11" ry="11" style="stroke:#181818;stroke-width:1.0;"/><path d="M1244.0156,718.8887 Q1244.1719,718.6699 1244.3594,718.5605 Q1244.5469,718.4512 1244.7656,718.4512 Q1245.1406,718.4512 1245.375,718.7168 Q1245.6094,718.9668 1245.6094,719.5762 L1245.6094,721.0293 Q1245.6094,721.6387 1245.375,721.9043 Q1245.1406,722.1699 1244.7656,722.1699 Q1244.4219,722.1699 1244.2188,721.9668 Q1244.0156,721.7793 1243.9063,721.2637 Q1243.8594,720.9043 1243.6719,720.7168 Q1243.3438,720.3418 1242.7344,720.123 Q1242.125,719.9043 1241.5,719.9043 Q1240.7344,719.9043 1240.0938,720.2324 Q1239.4688,720.5605 1238.9688,721.3105 Q1238.4844,722.0605 1238.4844,723.0918 L1238.4844,724.1855 Q1238.4844,725.4199 1239.375,726.248 Q1240.2656,727.0605 1241.8594,727.0605 Q1242.7969,727.0605 1243.4531,726.8105 Q1243.8438,726.6543 1244.2656,726.2168 Q1244.5313,725.9512 1244.6719,725.873 Q1244.8281,725.7949 1245.0313,725.7949 Q1245.3594,725.7949 1245.6094,726.0605 Q1245.875,726.3105 1245.875,726.6543 Q1245.875,726.998 1245.5313,727.4043 Q1245.0313,727.9824 1244.2344,728.3105 Q1243.1563,728.7637 1241.8594,728.7637 Q1240.3438,728.7637 1239.1406,728.1387 Q1238.1563,727.6387 1237.4688,726.5762 Q1236.7813,725.498 1236.7813,724.2168 L1236.7813,723.0605 Q1236.7813,721.7324 1237.3906,720.5918 Q1238.0156,719.4355 1239.1094,718.8262 Q1240.2031,718.2012 1241.4375,718.2012 Q1242.1719,718.2012 1242.8125,718.373 Q1243.4688,718.5293 1244.0156,718.8887 Z " fill="#000000"/><text fill="#000000" font-family="sans-serif" font-size="14" lengthAdjust="spacing" textLength="127" x="1261.75" y="728.8105">RecruitmentProcess</text><line style="stroke:#181818;stroke-width:0.5;" x1="1121" x2="1497" y1="739.0137" y2="739.0137"/><ellipse cx="1131" cy="753.8242" fill="none" rx="3" ry="3" style="stroke:#038048;stroke-width:1.0;"/><text fill="#000000" font-family="sans-serif" font-size="14" lengthAdjust="spacing" textLength="51" x="1140" y="758.1211">id: Long</text><ellipse cx="1131" cy="772.4453" fill="none" rx="3" ry="3" style="stroke:#038048;stroke-width:1.0;"/><text fill="#000000" font-family="sans-serif" font-size="14" lengthAdjust="spacing" textLength="213" x="1140" y="776.7422">status: RecruitmentProcessStatus</text><ellipse cx="1131" cy="791.0664" fill="none" rx="3" ry="3" style="stroke:#038048;stroke-width:1.0;"/><text fill="#000000" font-family="sans-serif" font-size="14" lengthAdjust="spacing" textLength="132" x="1140" y="795.3633">phases: List&lt;Phase&gt;</text><line style="stroke:#181818;stroke-width:0.5;" x1="1121" x2="1497" y1="802.877" y2="802.877"/><ellipse cx="1131" cy="817.6875" fill="#84BE84" rx="3" ry="3" style="stroke:#038048;stroke-width:1.0;"/><text fill="#000000" font-family="sans-serif" font-size="14" lengthAdjust="spacing" textLength="195" x="1140" y="821.9844">addPhase(phase: Phase): void</text><ellipse cx="1131" cy="836.3086" fill="#84BE84" rx="3" ry="3" style="stroke:#038048;stroke-width:1.0;"/><text fill="#000000" font-family="sans-serif" font-size="14" lengthAdjust="spacing" textLength="218" x="1140" y="840.6055">removePhase(phase: Phase): void</text><ellipse cx="1131" cy="854.9297" fill="#84BE84" rx="3" ry="3" style="stroke:#038048;stroke-width:1.0;"/><text fill="#000000" font-family="sans-serif" font-size="14" lengthAdjust="spacing" textLength="135" x="1140" y="859.2266">nextPhase(): boolean</text><ellipse cx="1131" cy="873.5508" fill="#84BE84" rx="3" ry="3" style="stroke:#038048;stroke-width:1.0;"/><text fill="#000000" font-family="sans-serif" font-size="14" lengthAdjust="spacing" textLength="163" x="1140" y="877.8477">previousPhase(): boolean</text><ellipse cx="1131" cy="892.1719" fill="#84BE84" rx="3" ry="3" style="stroke:#038048;stroke-width:1.0;"/><text fill="#000000" font-family="sans-serif" font-size="14" lengthAdjust="spacing" textLength="143" x="1140" y="896.4688">currentPhase(): Phase</text><rect fill="#F24D5C" height="6" style="stroke:#C82930;stroke-width:1.0;" width="6" x="1128" y="907.793"/><text fill="#000000" font-family="sans-serif" font-size="14" lengthAdjust="spacing" textLength="352" x="1140" y="915.0898">openPhaseByName(phaseName: PhaseName): boolean</text></g><!--class Phase--><g id="elem_Phase"><rect codeLine="55" fill="#F1F1F1" height="159.7266" id="Phase" rx="2.5" ry="2.5" style="stroke:#181818;stroke-width:0.5;" width="152" x="1153" y="1002.0137"/><ellipse cx="1204.75" cy="1018.0137" fill="#ADD1B2" rx="11" ry="11" style="stroke:#181818;stroke-width:1.0;"/><path d="M1207.5156,1013.8887 Q1207.6719,1013.6699 1207.8594,1013.5605 Q1208.0469,1013.4512 1208.2656,1013.4512 Q1208.6406,1013.4512 1208.875,1013.7168 Q1209.1094,1013.9668 1209.1094,1014.5762 L1209.1094,1016.0293 Q1209.1094,1016.6387 1208.875,1016.9043 Q1208.6406,1017.1699 1208.2656,1017.1699 Q1207.9219,1017.1699 1207.7188,1016.9668 Q1207.5156,1016.7793 1207.4063,1016.2637 Q1207.3594,1015.9043 1207.1719,1015.7168 Q1206.8438,1015.3418 1206.2344,1015.123 Q1205.625,1014.9043 1205,1014.9043 Q1204.2344,1014.9043 1203.5938,1015.2324 Q1202.9688,1015.5605 1202.4688,1016.3105 Q1201.9844,1017.0605 1201.9844,1018.0918 L1201.9844,1019.1855 Q1201.9844,1020.4199 1202.875,1021.248 Q1203.7656,1022.0605 1205.3594,1022.0605 Q1206.2969,1022.0605 1206.9531,1021.8105 Q1207.3438,1021.6543 1207.7656,1021.2168 Q1208.0313,1020.9512 1208.1719,1020.873 Q1208.3281,1020.7949 1208.5313,1020.7949 Q1208.8594,1020.7949 1209.1094,1021.0605 Q1209.375,1021.3105 1209.375,1021.6543 Q1209.375,1021.998 1209.0313,1022.4043 Q1208.5313,1022.9824 1207.7344,1023.3105 Q1206.6563,1023.7637 1205.3594,1023.7637 Q1203.8438,1023.7637 1202.6406,1023.1387 Q1201.6563,1022.6387 1200.9688,1021.5762 Q1200.2813,1020.498 1200.2813,1019.2168 L1200.2813,1018.0605 Q1200.2813,1016.7324 1200.8906,1015.5918 Q1201.5156,1014.4355 1202.6094,1013.8262 Q1203.7031,1013.2012 1204.9375,1013.2012 Q1205.6719,1013.2012 1206.3125,1013.373 Q1206.9688,1013.5293 1207.5156,1013.8887 Z " fill="#000000"/><text fill="#000000" font-family="sans-serif" font-size="14" lengthAdjust="spacing" textLength="40" x="1225.25" y="1023.8105">Phase</text><line style="stroke:#181818;stroke-width:0.5;" x1="1154" x2="1304" y1="1034.0137" y2="1034.0137"/><ellipse cx="1164" cy="1048.8242" fill="none" rx="3" ry="3" style="stroke:#038048;stroke-width:1.0;"/><text fill="#000000" font-family="sans-serif" font-size="14" lengthAdjust="spacing" textLength="119" x="1173" y="1053.1211">name: PhaseName</text><ellipse cx="1164" cy="1067.4453" fill="none" rx="3" ry="3" style="stroke:#038048;stroke-width:1.0;"/><text fill="#000000" font-family="sans-serif" font-size="14" lengthAdjust="spacing" textLength="126" x="1173" y="1071.7422">startDate: StartDate</text><ellipse cx="1164" cy="1086.0664" fill="none" rx="3" ry="3" style="stroke:#038048;stroke-width:1.0;"/><text fill="#000000" font-family="sans-serif" font-size="14" lengthAdjust="spacing" textLength="117" x="1173" y="1090.3633">endDate: EndDate</text><ellipse cx="1164" cy="1104.6875" fill="none" rx="3" ry="3" style="stroke:#038048;stroke-width:1.0;"/><text fill="#000000" font-family="sans-serif" font-size="14" lengthAdjust="spacing" textLength="126" x="1173" y="1108.9844">status: PhaseStatus</text><line style="stroke:#181818;stroke-width:0.5;" x1="1154" x2="1304" y1="1116.498" y2="1116.498"/><ellipse cx="1164" cy="1131.3086" fill="#84BE84" rx="3" ry="3" style="stroke:#038048;stroke-width:1.0;"/><text fill="#000000" font-family="sans-serif" font-size="14" lengthAdjust="spacing" textLength="76" x="1173" y="1135.6055">open(): void</text><ellipse cx="1164" cy="1149.9297" fill="#84BE84" rx="3" ry="3" style="stroke:#038048;stroke-width:1.0;"/><text fill="#000000" font-family="sans-serif" font-size="14" lengthAdjust="spacing" textLength="77" x="1173" y="1154.2266">close(): void</text></g><!--class PhaseName--><g id="elem_PhaseName"><rect codeLine="64" fill="#F1F1F1" height="141.1055" id="PhaseName" rx="2.5" ry="2.5" style="stroke:#181818;stroke-width:0.5;" width="108" x="1036" y="1241.0137"/><ellipse cx="1051" cy="1257.0137" fill="#EB937F" rx="11" ry="11" style="stroke:#181818;stroke-width:1.0;"/><path d="M1049.8594,1257.8105 L1049.8594,1260.3105 L1054.1875,1260.3105 L1054.1875,1259.3887 Q1054.1875,1258.7793 1054.4219,1258.5137 Q1054.6719,1258.248 1055.0469,1258.248 Q1055.4219,1258.248 1055.6563,1258.5137 Q1055.8906,1258.7793 1055.8906,1259.3887 L1055.8906,1262.0137 L1047.8906,1262.0137 Q1047.2656,1262.0137 1047,1261.7793 Q1046.75,1261.5449 1046.75,1261.1543 Q1046.75,1260.7793 1047.0156,1260.5449 Q1047.2813,1260.3105 1047.8906,1260.3105 L1048.1563,1260.3105 L1048.1563,1253.6543 L1047.8906,1253.6543 Q1047.2656,1253.6543 1047,1253.4199 Q1046.75,1253.1855 1046.75,1252.7949 Q1046.75,1252.4199 1047,1252.1855 Q1047.2656,1251.9512 1047.8906,1251.9512 L1055.5156,1251.9512 L1055.5156,1254.5449 Q1055.5156,1255.1543 1055.2813,1255.4199 Q1055.0625,1255.6699 1054.6719,1255.6699 Q1054.2969,1255.6699 1054.0625,1255.4199 Q1053.8281,1255.1543 1053.8281,1254.5449 L1053.8281,1253.6543 L1049.8594,1253.6543 L1049.8594,1256.1074 L1051.3438,1256.1074 Q1051.3438,1255.4512 1051.4688,1255.2637 Q1051.7344,1254.8574 1052.2031,1254.8574 Q1052.5781,1254.8574 1052.8125,1255.123 Q1053.0469,1255.373 1053.0469,1255.9824 L1053.0469,1257.9512 Q1053.0469,1258.498 1052.9219,1258.6855 Q1052.6563,1259.0762 1052.2031,1259.0762 Q1051.7344,1259.0762 1051.4688,1258.6699 Q1051.3438,1258.4824 1051.3438,1257.8105 L1049.8594,1257.8105 Z " fill="#000000"/><text fill="#000000" font-family="sans-serif" font-size="14" lengthAdjust="spacing" textLength="76" x="1065" y="1262.8105">PhaseName</text><line style="stroke:#181818;stroke-width:0.5;" x1="1037" x2="1143" y1="1273.0137" y2="1273.0137"/><text fill="#000000" font-family="sans-serif" font-size="14" lengthAdjust="spacing" textLength="93" x="1042" y="1292.1211">APPLICATION,</text><text fill="#000000" font-family="sans-serif" font-size="14" lengthAdjust="spacing" textLength="83" x="1042" y="1310.7422">SCREENING,</text><text fill="#000000" font-family="sans-serif" font-size="14" lengthAdjust="spacing" textLength="87" x="1042" y="1329.3633">INTERVIEWS,</text><text fill="#000000" font-family="sans-serif" font-size="14" lengthAdjust="spacing" textLength="69" x="1042" y="1347.9844">ANALYSIS,</text><text fill="#000000" font-family="sans-serif" font-size="14" lengthAdjust="spacing" textLength="54" x="1042" y="1366.6055">RESULT</text><line style="stroke:#181818;stroke-width:0.5;" x1="1037" x2="1143" y1="1374.1191" y2="1374.1191"/></g><!--class StartDate--><g id="elem_StartDate"><rect codeLine="72" fill="#F1F1F1" height="66.6211" id="StartDate" rx="2.5" ry="2.5" style="stroke:#181818;stroke-width:0.5;" width="92" x="1179" y="1278.0137"/><ellipse cx="1194" cy="1294.0137" fill="#ADD1B2" rx="11" ry="11" style="stroke:#181818;stroke-width:1.0;"/><path d="M1196.7656,1289.8887 Q1196.9219,1289.6699 1197.1094,1289.5605 Q1197.2969,1289.4512 1197.5156,1289.4512 Q1197.8906,1289.4512 1198.125,1289.7168 Q1198.3594,1289.9668 1198.3594,1290.5762 L1198.3594,1292.0293 Q1198.3594,1292.6387 1198.125,1292.9043 Q1197.8906,1293.1699 1197.5156,1293.1699 Q1197.1719,1293.1699 1196.9688,1292.9668 Q1196.7656,1292.7793 1196.6563,1292.2637 Q1196.6094,1291.9043 1196.4219,1291.7168 Q1196.0938,1291.3418 1195.4844,1291.123 Q1194.875,1290.9043 1194.25,1290.9043 Q1193.4844,1290.9043 1192.8438,1291.2324 Q1192.2188,1291.5605 1191.7188,1292.3105 Q1191.2344,1293.0605 1191.2344,1294.0918 L1191.2344,1295.1855 Q1191.2344,1296.4199 1192.125,1297.248 Q1193.0156,1298.0605 1194.6094,1298.0605 Q1195.5469,1298.0605 1196.2031,1297.8105 Q1196.5938,1297.6543 1197.0156,1297.2168 Q1197.2813,1296.9512 1197.4219,1296.873 Q1197.5781,1296.7949 1197.7813,1296.7949 Q1198.1094,1296.7949 1198.3594,1297.0605 Q1198.625,1297.3105 1198.625,1297.6543 Q1198.625,1297.998 1198.2813,1298.4043 Q1197.7813,1298.9824 1196.9844,1299.3105 Q1195.9063,1299.7637 1194.6094,1299.7637 Q1193.0938,1299.7637 1191.8906,1299.1387 Q1190.9063,1298.6387 1190.2188,1297.5762 Q1189.5313,1296.498 1189.5313,1295.2168 L1189.5313,1294.0605 Q1189.5313,1292.7324 1190.1406,1291.5918 Q1190.7656,1290.4355 1191.8594,1289.8262 Q1192.9531,1289.2012 1194.1875,1289.2012 Q1194.9219,1289.2012 1195.5625,1289.373 Q1196.2188,1289.5293 1196.7656,1289.8887 Z " fill="#000000"/><text fill="#000000" font-family="sans-serif" font-size="14" lengthAdjust="spacing" textLength="60" x="1208" y="1299.8105">StartDate</text><line style="stroke:#181818;stroke-width:0.5;" x1="1180" x2="1270" y1="1310.0137" y2="1310.0137"/><ellipse cx="1190" cy="1324.8242" fill="none" rx="3" ry="3" style="stroke:#038048;stroke-width:1.0;"/><text fill="#000000" font-family="sans-serif" font-size="14" lengthAdjust="spacing" textLength="66" x="1199" y="1329.1211">date: Date</text><line style="stroke:#181818;stroke-width:0.5;" x1="1180" x2="1270" y1="1336.6348" y2="1336.6348"/></g><!--class EndDate--><g id="elem_EndDate"><rect codeLine="76" fill="#F1F1F1" height="66.6211" id="EndDate" rx="2.5" ry="2.5" style="stroke:#181818;stroke-width:0.5;" width="92" x="1306" y="1278.0137"/><ellipse cx="1323.25" cy="1294.0137" fill="#ADD1B2" rx="11" ry="11" style="stroke:#181818;stroke-width:1.0;"/><path d="M1326.0156,1289.8887 Q1326.1719,1289.6699 1326.3594,1289.5605 Q1326.5469,1289.4512 1326.7656,1289.4512 Q1327.1406,1289.4512 1327.375,1289.7168 Q1327.6094,1289.9668 1327.6094,1290.5762 L1327.6094,1292.0293 Q1327.6094,1292.6387 1327.375,1292.9043 Q1327.1406,1293.1699 1326.7656,1293.1699 Q1326.4219,1293.1699 1326.2188,1292.9668 Q1326.0156,1292.7793 1325.9063,1292.2637 Q1325.8594,1291.9043 1325.6719,1291.7168 Q1325.3438,1291.3418 1324.7344,1291.123 Q1324.125,1290.9043 1323.5,1290.9043 Q1322.7344,1290.9043 1322.0938,1291.2324 Q1321.4688,1291.5605 1320.9688,1292.3105 Q1320.4844,1293.0605 1320.4844,1294.0918 L1320.4844,1295.1855 Q1320.4844,1296.4199 1321.375,1297.248 Q1322.2656,1298.0605 1323.8594,1298.0605 Q1324.7969,1298.0605 1325.4531,1297.8105 Q1325.8438,1297.6543 1326.2656,1297.2168 Q1326.5313,1296.9512 1326.6719,1296.873 Q1326.8281,1296.7949 1327.0313,1296.7949 Q1327.3594,1296.7949 1327.6094,1297.0605 Q1327.875,1297.3105 1327.875,1297.6543 Q1327.875,1297.998 1327.5313,1298.4043 Q1327.0313,1298.9824 1326.2344,1299.3105 Q1325.1563,1299.7637 1323.8594,1299.7637 Q1322.3438,1299.7637 1321.1406,1299.1387 Q1320.1563,1298.6387 1319.4688,1297.5762 Q1318.7813,1296.498 1318.7813,1295.2168 L1318.7813,1294.0605 Q1318.7813,1292.7324 1319.3906,1291.5918 Q1320.0156,1290.4355 1321.1094,1289.8262 Q1322.2031,1289.2012 1323.4375,1289.2012 Q1324.1719,1289.2012 1324.8125,1289.373 Q1325.4688,1289.5293 1326.0156,1289.8887 Z " fill="#000000"/><text fill="#000000" font-family="sans-serif" font-size="14" lengthAdjust="spacing" textLength="55" x="1337.75" y="1299.8105">EndDate</text><line style="stroke:#181818;stroke-width:0.5;" x1="1307" x2="1397" y1="1310.0137" y2="1310.0137"/><ellipse cx="1317" cy="1324.8242" fill="none" rx="3" ry="3" style="stroke:#038048;stroke-width:1.0;"/><text fill="#000000" font-family="sans-serif" font-size="14" lengthAdjust="spacing" textLength="66" x="1326" y="1329.1211">date: Date</text><line style="stroke:#181818;stroke-width:0.5;" x1="1307" x2="1397" y1="1336.6348" y2="1336.6348"/></g><!--class PhaseStatus--><g id="elem_PhaseStatus"><rect codeLine="80" fill="#F1F1F1" height="85.2422" id="PhaseStatus" rx="2.5" ry="2.5" style="stroke:#181818;stroke-width:0.5;" width="112" x="1433" y="1269.0137"/><ellipse cx="1448" cy="1285.0137" fill="#EB937F" rx="11" ry="11" style="stroke:#181818;stroke-width:1.0;"/><path d="M1446.8594,1285.8105 L1446.8594,1288.3105 L1451.1875,1288.3105 L1451.1875,1287.3887 Q1451.1875,1286.7793 1451.4219,1286.5137 Q1451.6719,1286.248 1452.0469,1286.248 Q1452.4219,1286.248 1452.6563,1286.5137 Q1452.8906,1286.7793 1452.8906,1287.3887 L1452.8906,1290.0137 L1444.8906,1290.0137 Q1444.2656,1290.0137 1444,1289.7793 Q1443.75,1289.5449 1443.75,1289.1543 Q1443.75,1288.7793 1444.0156,1288.5449 Q1444.2813,1288.3105 1444.8906,1288.3105 L1445.1563,1288.3105 L1445.1563,1281.6543 L1444.8906,1281.6543 Q1444.2656,1281.6543 1444,1281.4199 Q1443.75,1281.1855 1443.75,1280.7949 Q1443.75,1280.4199 1444,1280.1855 Q1444.2656,1279.9512 1444.8906,1279.9512 L1452.5156,1279.9512 L1452.5156,1282.5449 Q1452.5156,1283.1543 1452.2813,1283.4199 Q1452.0625,1283.6699 1451.6719,1283.6699 Q1451.2969,1283.6699 1451.0625,1283.4199 Q1450.8281,1283.1543 1450.8281,1282.5449 L1450.8281,1281.6543 L1446.8594,1281.6543 L1446.8594,1284.1074 L1448.3438,1284.1074 Q1448.3438,1283.4512 1448.4688,1283.2637 Q1448.7344,1282.8574 1449.2031,1282.8574 Q1449.5781,1282.8574 1449.8125,1283.123 Q1450.0469,1283.373 1450.0469,1283.9824 L1450.0469,1285.9512 Q1450.0469,1286.498 1449.9219,1286.6855 Q1449.6563,1287.0762 1449.2031,1287.0762 Q1448.7344,1287.0762 1448.4688,1286.6699 Q1448.3438,1286.4824 1448.3438,1285.8105 L1446.8594,1285.8105 Z " fill="#000000"/><text fill="#000000" font-family="sans-serif" font-size="14" lengthAdjust="spacing" textLength="80" x="1462" y="1290.8105">PhaseStatus</text><line style="stroke:#181818;stroke-width:0.5;" x1="1434" x2="1544" y1="1301.0137" y2="1301.0137"/><text fill="#000000" font-family="sans-serif" font-size="14" lengthAdjust="spacing" textLength="42" x="1439" y="1320.1211">OPEN,</text><text fill="#000000" font-family="sans-serif" font-size="14" lengthAdjust="spacing" textLength="57" x="1439" y="1338.7422">CLOSED</text><line style="stroke:#181818;stroke-width:0.5;" x1="1434" x2="1544" y1="1346.2559" y2="1346.2559"/></g><!--class RecruitmentProcessStatus--><g id="elem_RecruitmentProcessStatus"><rect codeLine="85" fill="#F1F1F1" height="103.8633" id="RecruitmentProcessStatus" rx="2.5" ry="2.5" style="stroke:#181818;stroke-width:0.5;" width="199" x="1340.5" y="1030.0137"/><ellipse cx="1355.5" cy="1046.0137" fill="#EB937F" rx="11" ry="11" style="stroke:#181818;stroke-width:1.0;"/><path d="M1354.3594,1046.8105 L1354.3594,1049.3105 L1358.6875,1049.3105 L1358.6875,1048.3887 Q1358.6875,1047.7793 1358.9219,1047.5137 Q1359.1719,1047.248 1359.5469,1047.248 Q1359.9219,1047.248 1360.1563,1047.5137 Q1360.3906,1047.7793 1360.3906,1048.3887 L1360.3906,1051.0137 L1352.3906,1051.0137 Q1351.7656,1051.0137 1351.5,1050.7793 Q1351.25,1050.5449 1351.25,1050.1543 Q1351.25,1049.7793 1351.5156,1049.5449 Q1351.7813,1049.3105 1352.3906,1049.3105 L1352.6563,1049.3105 L1352.6563,1042.6543 L1352.3906,1042.6543 Q1351.7656,1042.6543 1351.5,1042.4199 Q1351.25,1042.1855 1351.25,1041.7949 Q1351.25,1041.4199 1351.5,1041.1855 Q1351.7656,1040.9512 1352.3906,1040.9512 L1360.0156,1040.9512 L1360.0156,1043.5449 Q1360.0156,1044.1543 1359.7813,1044.4199 Q1359.5625,1044.6699 1359.1719,1044.6699 Q1358.7969,1044.6699 1358.5625,1044.4199 Q1358.3281,1044.1543 1358.3281,1043.5449 L1358.3281,1042.6543 L1354.3594,1042.6543 L1354.3594,1045.1074 L1355.8438,1045.1074 Q1355.8438,1044.4512 1355.9688,1044.2637 Q1356.2344,1043.8574 1356.7031,1043.8574 Q1357.0781,1043.8574 1357.3125,1044.123 Q1357.5469,1044.373 1357.5469,1044.9824 L1357.5469,1046.9512 Q1357.5469,1047.498 1357.4219,1047.6855 Q1357.1563,1048.0762 1356.7031,1048.0762 Q1356.2344,1048.0762 1355.9688,1047.6699 Q1355.8438,1047.4824 1355.8438,1046.8105 L1354.3594,1046.8105 Z " fill="#000000"/><text fill="#000000" font-family="sans-serif" font-size="14" lengthAdjust="spacing" textLength="167" x="1369.5" y="1051.8105">RecruitmentProcessStatus</text><line style="stroke:#181818;stroke-width:0.5;" x1="1341.5" x2="1538.5" y1="1062.0137" y2="1062.0137"/><text fill="#000000" font-family="sans-serif" font-size="14" lengthAdjust="spacing" textLength="86" x="1346.5" y="1081.1211">UNINITIATED,</text><text fill="#000000" font-family="sans-serif" font-size="14" lengthAdjust="spacing" textLength="91" x="1346.5" y="1099.7422">IN_PROCESS,</text><text fill="#000000" font-family="sans-serif" font-size="14" lengthAdjust="spacing" textLength="61" x="1346.5" y="1118.3633">FINISHED</text><line style="stroke:#181818;stroke-width:0.5;" x1="1341.5" x2="1538.5" y1="1125.877" y2="1125.877"/></g><!--class Rank--><g id="elem_Rank"><rect codeLine="101" fill="#F1F1F1" height="103.8633" id="Rank" rx="2.5" ry="2.5" style="stroke:#181818;stroke-width:0.5;" width="233" x="1601.5" y="763.0137"/><ellipse cx="1697.25" cy="779.0137" fill="#ADD1B2" rx="11" ry="11" style="stroke:#181818;stroke-width:1.0;"/><path d="M1700.0156,774.8887 Q1700.1719,774.6699 1700.3594,774.5605 Q1700.5469,774.4512 1700.7656,774.4512 Q1701.1406,774.4512 1701.375,774.7168 Q1701.6094,774.9668 1701.6094,775.5762 L1701.6094,777.0293 Q1701.6094,777.6387 1701.375,777.9043 Q1701.1406,778.1699 1700.7656,778.1699 Q1700.4219,778.1699 1700.2188,777.9668 Q1700.0156,777.7793 1699.9063,777.2637 Q1699.8594,776.9043 1699.6719,776.7168 Q1699.3438,776.3418 1698.7344,776.123 Q1698.125,775.9043 1697.5,775.9043 Q1696.7344,775.9043 1696.0938,776.2324 Q1695.4688,776.5605 1694.9688,777.3105 Q1694.4844,778.0605 1694.4844,779.0918 L1694.4844,780.1855 Q1694.4844,781.4199 1695.375,782.248 Q1696.2656,783.0605 1697.8594,783.0605 Q1698.7969,783.0605 1699.4531,782.8105 Q1699.8438,782.6543 1700.2656,782.2168 Q1700.5313,781.9512 1700.6719,781.873 Q1700.8281,781.7949 1701.0313,781.7949 Q1701.3594,781.7949 1701.6094,782.0605 Q1701.875,782.3105 1701.875,782.6543 Q1701.875,782.998 1701.5313,783.4043 Q1701.0313,783.9824 1700.2344,784.3105 Q1699.1563,784.7637 1697.8594,784.7637 Q1696.3438,784.7637 1695.1406,784.1387 Q1694.1563,783.6387 1693.4688,782.5762 Q1692.7813,781.498 1692.7813,780.2168 L1692.7813,779.0605 Q1692.7813,777.7324 1693.3906,776.5918 Q1694.0156,775.4355 1695.1094,774.8262 Q1696.2031,774.2012 1697.4375,774.2012 Q1698.1719,774.2012 1698.8125,774.373 Q1699.4688,774.5293 1700.0156,774.8887 Z " fill="#000000"/><text fill="#000000" font-family="sans-serif" font-size="14" lengthAdjust="spacing" textLength="33" x="1717.75" y="784.8105">Rank</text><line style="stroke:#181818;stroke-width:0.5;" x1="1602.5" x2="1833.5" y1="795.0137" y2="795.0137"/><ellipse cx="1612.5" cy="809.8242" fill="none" rx="3" ry="3" style="stroke:#038048;stroke-width:1.0;"/><text fill="#000000" font-family="sans-serif" font-size="14" lengthAdjust="spacing" textLength="51" x="1621.5" y="814.1211">id: Long</text><ellipse cx="1612.5" cy="828.4453" fill="none" rx="3" ry="3" style="stroke:#038048;stroke-width:1.0;"/><text fill="#000000" font-family="sans-serif" font-size="14" lengthAdjust="spacing" textLength="207" x="1621.5" y="832.7422">rankPosition: List&lt;RankPosition&gt;</text><ellipse cx="1612.5" cy="847.0664" fill="none" rx="3" ry="3" style="stroke:#038048;stroke-width:1.0;"/><text fill="#000000" font-family="sans-serif" font-size="14" lengthAdjust="spacing" textLength="149" x="1621.5" y="851.3633">rankStatus: RankStatus</text><line style="stroke:#181818;stroke-width:0.5;" x1="1602.5" x2="1833.5" y1="858.877" y2="858.877"/></g><!--class RankPosition--><g id="elem_RankPosition"><rect codeLine="107" fill="#F1F1F1" height="85.2422" id="RankPosition" rx="2.5" ry="2.5" style="stroke:#181818;stroke-width:0.5;" width="161" x="1601.5" y="1039.5137"/><ellipse cx="1637.2" cy="1055.5137" fill="#ADD1B2" rx="11" ry="11" style="stroke:#181818;stroke-width:1.0;"/><path d="M1639.9656,1051.3887 Q1640.1219,1051.1699 1640.3094,1051.0605 Q1640.4969,1050.9512 1640.7156,1050.9512 Q1641.0906,1050.9512 1641.325,1051.2168 Q1641.5594,1051.4668 1641.5594,1052.0762 L1641.5594,1053.5293 Q1641.5594,1054.1387 1641.325,1054.4043 Q1641.0906,1054.6699 1640.7156,1054.6699 Q1640.3719,1054.6699 1640.1688,1054.4668 Q1639.9656,1054.2793 1639.8563,1053.7637 Q1639.8094,1053.4043 1639.6219,1053.2168 Q1639.2938,1052.8418 1638.6844,1052.623 Q1638.075,1052.4043 1637.45,1052.4043 Q1636.6844,1052.4043 1636.0438,1052.7324 Q1635.4188,1053.0605 1634.9188,1053.8105 Q1634.4344,1054.5605 1634.4344,1055.5918 L1634.4344,1056.6855 Q1634.4344,1057.9199 1635.325,1058.748 Q1636.2156,1059.5605 1637.8094,1059.5605 Q1638.7469,1059.5605 1639.4031,1059.3105 Q1639.7938,1059.1543 1640.2156,1058.7168 Q1640.4813,1058.4512 1640.6219,1058.373 Q1640.7781,1058.2949 1640.9813,1058.2949 Q1641.3094,1058.2949 1641.5594,1058.5605 Q1641.825,1058.8105 1641.825,1059.1543 Q1641.825,1059.498 1641.4813,1059.9043 Q1640.9813,1060.4824 1640.1844,1060.8105 Q1639.1063,1061.2637 1637.8094,1061.2637 Q1636.2938,1061.2637 1635.0906,1060.6387 Q1634.1063,1060.1387 1633.4188,1059.0762 Q1632.7313,1057.998 1632.7313,1056.7168 L1632.7313,1055.5605 Q1632.7313,1054.2324 1633.3406,1053.0918 Q1633.9656,1051.9355 1635.0594,1051.3262 Q1636.1531,1050.7012 1637.3875,1050.7012 Q1638.1219,1050.7012 1638.7625,1050.873 Q1639.4188,1051.0293 1639.9656,1051.3887 Z " fill="#000000"/><text fill="#000000" font-family="sans-serif" font-size="14" lengthAdjust="spacing" textLength="83" x="1655.8" y="1061.3105">RankPosition</text><line style="stroke:#181818;stroke-width:0.5;" x1="1602.5" x2="1761.5" y1="1071.5137" y2="1071.5137"/><ellipse cx="1612.5" cy="1086.3242" fill="none" rx="3" ry="3" style="stroke:#038048;stroke-width:1.0;"/><text fill="#000000" font-family="sans-serif" font-size="14" lengthAdjust="spacing" textLength="57" x="1621.5" y="1090.6211">value: int</text><ellipse cx="1612.5" cy="1104.9453" fill="none" rx="3" ry="3" style="stroke:#038048;stroke-width:1.0;"/><text fill="#000000" font-family="sans-serif" font-size="14" lengthAdjust="spacing" textLength="135" x="1621.5" y="1109.2422">candidate: Candidate</text><line style="stroke:#181818;stroke-width:0.5;" x1="1602.5" x2="1761.5" y1="1116.7559" y2="1116.7559"/></g><!--class RankStatus--><g id="elem_RankStatus"><rect codeLine="112" fill="#F1F1F1" height="103.8633" id="RankStatus" rx="2.5" ry="2.5" style="stroke:#181818;stroke-width:0.5;" width="105" x="1797.5" y="1030.0137"/><ellipse cx="1812.5" cy="1046.0137" fill="#EB937F" rx="11" ry="11" style="stroke:#181818;stroke-width:1.0;"/><path d="M1811.3594,1046.8105 L1811.3594,1049.3105 L1815.6875,1049.3105 L1815.6875,1048.3887 Q1815.6875,1047.7793 1815.9219,1047.5137 Q1816.1719,1047.248 1816.5469,1047.248 Q1816.9219,1047.248 1817.1563,1047.5137 Q1817.3906,1047.7793 1817.3906,1048.3887 L1817.3906,1051.0137 L1809.3906,1051.0137 Q1808.7656,1051.0137 1808.5,1050.7793 Q1808.25,1050.5449 1808.25,1050.1543 Q1808.25,1049.7793 1808.5156,1049.5449 Q1808.7813,1049.3105 1809.3906,1049.3105 L1809.6563,1049.3105 L1809.6563,1042.6543 L1809.3906,1042.6543 Q1808.7656,1042.6543 1808.5,1042.4199 Q1808.25,1042.1855 1808.25,1041.7949 Q1808.25,1041.4199 1808.5,1041.1855 Q1808.7656,1040.9512 1809.3906,1040.9512 L1817.0156,1040.9512 L1817.0156,1043.5449 Q1817.0156,1044.1543 1816.7813,1044.4199 Q1816.5625,1044.6699 1816.1719,1044.6699 Q1815.7969,1044.6699 1815.5625,1044.4199 Q1815.3281,1044.1543 1815.3281,1043.5449 L1815.3281,1042.6543 L1811.3594,1042.6543 L1811.3594,1045.1074 L1812.8438,1045.1074 Q1812.8438,1044.4512 1812.9688,1044.2637 Q1813.2344,1043.8574 1813.7031,1043.8574 Q1814.0781,1043.8574 1814.3125,1044.123 Q1814.5469,1044.373 1814.5469,1044.9824 L1814.5469,1046.9512 Q1814.5469,1047.498 1814.4219,1047.6855 Q1814.1563,1048.0762 1813.7031,1048.0762 Q1813.2344,1048.0762 1812.9688,1047.6699 Q1812.8438,1047.4824 1812.8438,1046.8105 L1811.3594,1046.8105 Z " fill="#000000"/><text fill="#000000" font-family="sans-serif" font-size="14" lengthAdjust="spacing" textLength="73" x="1826.5" y="1051.8105">RankStatus</text><line style="stroke:#181818;stroke-width:0.5;" x1="1798.5" x2="1901.5" y1="1062.0137" y2="1062.0137"/><text fill="#000000" font-family="sans-serif" font-size="14" lengthAdjust="spacing" textLength="87" x="1803.5" y="1081.1211">UNSTARTED,</text><text fill="#000000" font-family="sans-serif" font-size="14" lengthAdjust="spacing" textLength="69" x="1803.5" y="1099.7422">STARTED,</text><text fill="#000000" font-family="sans-serif" font-size="14" lengthAdjust="spacing" textLength="61" x="1803.5" y="1118.3633">FINISHED</text><line style="stroke:#181818;stroke-width:0.5;" x1="1798.5" x2="1901.5" y1="1125.877" y2="1125.877"/></g><!--class Candidate--><g id="elem_Candidate"><rect codeLine="124" fill="#F1F1F1" height="66.6211" id="Candidate" rx="2.5" ry="2.5" style="stroke:#181818;stroke-width:0.5;" width="216" x="1601" y="1278.0137"/><ellipse cx="1672.25" cy="1294.0137" fill="#ADD1B2" rx="11" ry="11" style="stroke:#181818;stroke-width:1.0;"/><path d="M1675.0156,1289.8887 Q1675.1719,1289.6699 1675.3594,1289.5605 Q1675.5469,1289.4512 1675.7656,1289.4512 Q1676.1406,1289.4512 1676.375,1289.7168 Q1676.6094,1289.9668 1676.6094,1290.5762 L1676.6094,1292.0293 Q1676.6094,1292.6387 1676.375,1292.9043 Q1676.1406,1293.1699 1675.7656,1293.1699 Q1675.4219,1293.1699 1675.2188,1292.9668 Q1675.0156,1292.7793 1674.9063,1292.2637 Q1674.8594,1291.9043 1674.6719,1291.7168 Q1674.3438,1291.3418 1673.7344,1291.123 Q1673.125,1290.9043 1672.5,1290.9043 Q1671.7344,1290.9043 1671.0938,1291.2324 Q1670.4688,1291.5605 1669.9688,1292.3105 Q1669.4844,1293.0605 1669.4844,1294.0918 L1669.4844,1295.1855 Q1669.4844,1296.4199 1670.375,1297.248 Q1671.2656,1298.0605 1672.8594,1298.0605 Q1673.7969,1298.0605 1674.4531,1297.8105 Q1674.8438,1297.6543 1675.2656,1297.2168 Q1675.5313,1296.9512 1675.6719,1296.873 Q1675.8281,1296.7949 1676.0313,1296.7949 Q1676.3594,1296.7949 1676.6094,1297.0605 Q1676.875,1297.3105 1676.875,1297.6543 Q1676.875,1297.998 1676.5313,1298.4043 Q1676.0313,1298.9824 1675.2344,1299.3105 Q1674.1563,1299.7637 1672.8594,1299.7637 Q1671.3438,1299.7637 1670.1406,1299.1387 Q1669.1563,1298.6387 1668.4688,1297.5762 Q1667.7813,1296.498 1667.7813,1295.2168 L1667.7813,1294.0605 Q1667.7813,1292.7324 1668.3906,1291.5918 Q1669.0156,1290.4355 1670.1094,1289.8262 Q1671.2031,1289.2012 1672.4375,1289.2012 Q1673.1719,1289.2012 1673.8125,1289.373 Q1674.4688,1289.5293 1675.0156,1289.8887 Z " fill="#000000"/><text fill="#000000" font-family="sans-serif" font-size="14" lengthAdjust="spacing" textLength="65" x="1692.75" y="1299.8105">Candidate</text><line style="stroke:#181818;stroke-width:0.5;" x1="1602" x2="1816" y1="1310.0137" y2="1310.0137"/><ellipse cx="1612" cy="1324.8242" fill="none" rx="3" ry="3" style="stroke:#038048;stroke-width:1.0;"/><text fill="#000000" font-family="sans-serif" font-size="14" lengthAdjust="spacing" textLength="190" x="1621" y="1329.1211">candidateEmail: EmailAddress</text><line style="stroke:#181818;stroke-width:0.5;" x1="1602" x2="1816" y1="1336.6348" y2="1336.6348"/></g><!--class EmailAddress--><g id="elem_EmailAddress"><rect codeLine="128" fill="#F1F1F1" height="66.6211" id="EmailAddress" rx="2.5" ry="2.5" style="stroke:#181818;stroke-width:0.5;" width="118" x="1650" y="1445.0137"/><ellipse cx="1665" cy="1461.0137" fill="#ADD1B2" rx="11" ry="11" style="stroke:#181818;stroke-width:1.0;"/><path d="M1667.7656,1456.8887 Q1667.9219,1456.6699 1668.1094,1456.5605 Q1668.2969,1456.4512 1668.5156,1456.4512 Q1668.8906,1456.4512 1669.125,1456.7168 Q1669.3594,1456.9668 1669.3594,1457.5762 L1669.3594,1459.0293 Q1669.3594,1459.6387 1669.125,1459.9043 Q1668.8906,1460.1699 1668.5156,1460.1699 Q1668.1719,1460.1699 1667.9688,1459.9668 Q1667.7656,1459.7793 1667.6563,1459.2637 Q1667.6094,1458.9043 1667.4219,1458.7168 Q1667.0938,1458.3418 1666.4844,1458.123 Q1665.875,1457.9043 1665.25,1457.9043 Q1664.4844,1457.9043 1663.8438,1458.2324 Q1663.2188,1458.5605 1662.7188,1459.3105 Q1662.2344,1460.0605 1662.2344,1461.0918 L1662.2344,1462.1855 Q1662.2344,1463.4199 1663.125,1464.248 Q1664.0156,1465.0605 1665.6094,1465.0605 Q1666.5469,1465.0605 1667.2031,1464.8105 Q1667.5938,1464.6543 1668.0156,1464.2168 Q1668.2813,1463.9512 1668.4219,1463.873 Q1668.5781,1463.7949 1668.7813,1463.7949 Q1669.1094,1463.7949 1669.3594,1464.0605 Q1669.625,1464.3105 1669.625,1464.6543 Q1669.625,1464.998 1669.2813,1465.4043 Q1668.7813,1465.9824 1667.9844,1466.3105 Q1666.9063,1466.7637 1665.6094,1466.7637 Q1664.0938,1466.7637 1662.8906,1466.1387 Q1661.9063,1465.6387 1661.2188,1464.5762 Q1660.5313,1463.498 1660.5313,1462.2168 L1660.5313,1461.0605 Q1660.5313,1459.7324 1661.1406,1458.5918 Q1661.7656,1457.4355 1662.8594,1456.8262 Q1663.9531,1456.2012 1665.1875,1456.2012 Q1665.9219,1456.2012 1666.5625,1456.373 Q1667.2188,1456.5293 1667.7656,1456.8887 Z " fill="#000000"/><text fill="#000000" font-family="sans-serif" font-size="14" lengthAdjust="spacing" textLength="86" x="1679" y="1466.8105">EmailAddress</text><line style="stroke:#181818;stroke-width:0.5;" x1="1651" x2="1767" y1="1477.0137" y2="1477.0137"/><ellipse cx="1661" cy="1491.8242" fill="none" rx="3" ry="3" style="stroke:#038048;stroke-width:1.0;"/><text fill="#000000" font-family="sans-serif" font-size="14" lengthAdjust="spacing" textLength="78" x="1670" y="1496.1211">email: String</text><line style="stroke:#181818;stroke-width:0.5;" x1="1651" x2="1767" y1="1503.6348" y2="1503.6348"/></g><!--link JobOpening to RecruitmentProcess--><g id="link_JobOpening_RecruitmentProcess"><path codeLine="91" d="M1309,628.1437 C1309,651.2837 1309,673.5437 1309,700.9737 " fill="none" id="JobOpening-to-RecruitmentProcess" style="stroke:#181818;stroke-width:1.0;"/><polygon fill="#181818" points="1309,706.9737,1313,697.9737,1309,701.9737,1305,697.9737,1309,706.9737" style="stroke:#181818;stroke-width:1.0;"/></g><!--link RecruitmentProcess to RecruitmentProcessStatus--><g id="link_RecruitmentProcess_RecruitmentProcessStatus"><path codeLine="92" d="M1361.91,923.0337 C1380.15,959.9537 1397.1016,994.2348 1412.1016,1024.5848 " fill="none" id="RecruitmentProcess-to-RecruitmentProcessStatus" style="stroke:#181818;stroke-width:1.0;"/><polygon fill="#181818" points="1414.76,1029.9637,1414.3583,1020.123,1412.5446,1025.4812,1407.1864,1023.6676,1414.76,1029.9637" style="stroke:#181818;stroke-width:1.0;"/></g><!--link RecruitmentProcess to Phase--><g id="link_RecruitmentProcess_Phase"><path codeLine="93" d="M1276.69,923.0337 C1268.76,949.3237 1262.1341,971.2597 1254.6741,995.9697 " fill="none" id="RecruitmentProcess-to-Phase" style="stroke:#181818;stroke-width:1.0;"/><polygon fill="#181818" points="1252.94,1001.7137,1259.3705,994.2538,1254.3851,996.9271,1251.7119,991.9417,1252.94,1001.7137" style="stroke:#181818;stroke-width:1.0;"/><text fill="#000000" font-family="sans-serif" font-size="13" lengthAdjust="spacing" textLength="21" x="1267" y="968.042">has</text></g><!--link Phase to PhaseName--><g id="link_Phase_PhaseName"><path codeLine="94" d="M1180.58,1162.2637 C1164.99,1187.7837 1150.9573,1210.7431 1135.8173,1235.5331 " fill="none" id="Phase-to-PhaseName" style="stroke:#181818;stroke-width:1.0;"/><polygon fill="#181818" points="1132.69,1240.6537,1140.7946,1235.0577,1135.2961,1236.3865,1133.9672,1230.888,1132.69,1240.6537" style="stroke:#181818;stroke-width:1.0;"/></g><!--link Phase to StartDate--><g id="link_Phase_StartDate"><path codeLine="95" d="M1227.61,1162.2637 C1226.91,1201.8837 1226.2037,1241.6846 1225.6837,1271.7646 " fill="none" id="Phase-to-StartDate" style="stroke:#181818;stroke-width:1.0;"/><polygon fill="#181818" points="1225.58,1277.7637,1229.735,1268.8342,1225.6664,1272.7644,1221.7362,1268.6959,1225.58,1277.7637" style="stroke:#181818;stroke-width:1.0;"/></g><!--link Phase to EndDate--><g id="link_Phase_EndDate"><path codeLine="96" d="M1271.85,1162.2637 C1293.27,1201.8837 1315.1768,1242.4055 1331.4368,1272.4855 " fill="none" id="Phase-to-EndDate" style="stroke:#181818;stroke-width:1.0;"/><polygon fill="#181818" points="1334.29,1277.7637,1333.529,1267.9443,1331.9124,1273.3652,1326.4914,1271.7485,1334.29,1277.7637" style="stroke:#181818;stroke-width:1.0;"/></g><!--link Phase to PhaseStatus--><g id="link_Phase_PhaseStatus"><path codeLine="97" d="M1305.19,1147.5537 C1311.19,1152.4837 1317.18,1157.3437 1323,1162.0137 C1363.58,1194.5337 1377.38,1198.1937 1416,1233.0137 C1428.22,1244.0337 1436.6555,1252.3773 1447.8255,1264.2873 " fill="none" id="Phase-to-PhaseStatus" style="stroke:#181818;stroke-width:1.0;"/><polygon fill="#181818" points="1451.93,1268.6637,1448.6909,1259.3627,1448.5096,1265.0167,1442.8556,1264.8354,1451.93,1268.6637" style="stroke:#181818;stroke-width:1.0;"/></g><!--link Rank to RankPosition--><g id="link_Rank_RankPosition"><path codeLine="118" d="M1711.06,867.1037 C1704.25,917.1937 1694.8174,986.6682 1688.4874,1033.2782 " fill="none" id="Rank-to-RankPosition" style="stroke:#181818;stroke-width:1.0;"/><polygon fill="#181818" points="1687.68,1039.2237,1692.8548,1030.8438,1688.3529,1034.2692,1684.9275,1029.7672,1687.68,1039.2237" style="stroke:#181818;stroke-width:1.0;"/></g><!--link Rank to RankStatus--><g id="link_Rank_RankStatus"><path codeLine="119" d="M1743.45,867.1037 C1766.75,913.8837 1798.3854,977.3828 1821.7254,1024.2528 " fill="none" id="Rank-to-RankStatus" style="stroke:#181818;stroke-width:1.0;"/><polygon fill="#181818" points="1824.4,1029.6237,1823.9688,1019.7843,1822.1712,1025.1479,1816.8075,1023.3504,1824.4,1029.6237" style="stroke:#181818;stroke-width:1.0;"/></g><!--link JobOpening to Rank--><g id="link_JobOpening_Rank"><path codeLine="120" d="M1415.08,628.1237 C1460.68,651.0237 1514.16,679.1137 1561,707.0137 C1589.76,724.1437 1615.4672,741.0979 1641.9672,759.4479 " fill="none" id="JobOpening-to-Rank" style="stroke:#181818;stroke-width:1.0;"/><polygon fill="#181818" points="1646.9,762.8637,1641.7779,754.4515,1642.7893,760.0172,1637.2236,761.0286,1646.9,762.8637" style="stroke:#181818;stroke-width:1.0;"/><text fill="#000000" font-family="sans-serif" font-size="13" lengthAdjust="spacing" textLength="21" x="1508" y="673.042">has</text></g><!--link Candidate to EmailAddress--><g id="link_Candidate_EmailAddress"><path codeLine="132" d="M1709,1345.1137 C1709,1374.0437 1709,1410.0737 1709,1438.9837 " fill="none" id="Candidate-to-EmailAddress" style="stroke:#181818;stroke-width:1.0;"/><polygon fill="#181818" points="1709,1444.9837,1713,1435.9837,1709,1439.9837,1705,1435.9837,1709,1444.9837" style="stroke:#181818;stroke-width:1.0;"/></g><!--link RankPosition to Candidate--><g id="link_RankPosition_Candidate"><path codeLine="133" d="M1686.95,1124.7437 C1692.19,1168.8637 1699.6322,1231.6056 1704.4222,1271.9256 " fill="none" id="RankPosition-to-Candidate" style="stroke:#181818;stroke-width:1.0;"/><polygon fill="#181818" points="1705.13,1277.8837,1708.0403,1268.4746,1704.5401,1272.9186,1700.0962,1269.4184,1705.13,1277.8837" style="stroke:#181818;stroke-width:1.0;"/><text fill="#000000" font-family="sans-serif" font-size="13" lengthAdjust="spacing" textLength="71" x="1698" y="1207.042">is ranked by</text></g><!--link RankController to JobOpeningRepository--><g id="link_RankController_JobOpeningRepository"><path codeLine="137" d="M798.19,393.1137 C786.37,406.6937 774.28,420.7137 763,434.0137 C731.83,470.7537 700.5633,508.9167 677.2233,537.6467 " fill="none" id="RankController-to-JobOpeningRepository" style="stroke:#181818;stroke-width:1.0;"/><polygon fill="#181818" points="673.44,542.3037,682.2195,537.8404,676.5927,538.4229,676.0103,532.7961,673.44,542.3037" style="stroke:#181818;stroke-width:1.0;"/></g><!--link RankController to ApplicationRepository--><g id="link_RankController_ApplicationRepository"><path codeLine="138" d="M632.63,393.0737 C598.55,405.9637 564.14,419.7837 532,434.0137 C457.76,466.8837 380.9995,509.1595 328.3995,539.4495 " fill="none" id="RankController-to-ApplicationRepository" style="stroke:#181818;stroke-width:1.0;"/><polygon fill="#181818" points="323.2,542.4437,332.9954,541.4188,327.5329,539.9485,329.0032,534.4861,323.2,542.4437" style="stroke:#181818;stroke-width:1.0;"/></g><!--link RankController to RankRepository--><g id="link_RankController_RankRepository"><path codeLine="139" d="M868,393.0337 C868,443.1437 868,499.3137 868,536.4937 " fill="none" id="RankController-to-RankRepository" style="stroke:#181818;stroke-width:1.0;"/><polygon fill="#181818" points="868,542.4937,872,533.4937,868,537.4937,864,533.4937,868,542.4937" style="stroke:#181818;stroke-width:1.0;"/></g><!--link RankController to JobOpening--><g id="link_RankController_JobOpening"><path codeLine="140" d="M1001.51,393.0337 C1073.25,435.4937 1154.4665,483.5579 1217.3765,520.7879 " fill="none" id="RankController-to-JobOpening" style="stroke:#181818;stroke-width:1.0;stroke-dasharray:7.0,7.0;"/><polygon fill="#181818" points="1222.54,523.8437,1216.8319,515.8176,1218.237,521.2972,1212.7575,522.7024,1222.54,523.8437" style="stroke:#181818;stroke-width:1.0;"/></g><!--link RankController to Rank--><g id="link_RankController_Rank"><path codeLine="141" d="M1131.15,333.3337 C1298.29,350.4837 1495.12,381.2537 1561,434.0137 C1664.63,517.0037 1699.6979,674.0545 1711.5979,756.9945 " fill="none" id="RankController-to-Rank" style="stroke:#181818;stroke-width:1.0;stroke-dasharray:7.0,7.0;"/><polygon fill="#181818" points="1712.45,762.9337,1715.1312,753.4568,1711.7399,757.9844,1707.2123,754.593,1712.45,762.9337" style="stroke:#181818;stroke-width:1.0;"/></g><!--link RankCandidatesUI to RankController--><g id="link_RankCandidatesUI_RankController"><path codeLine="142" d="M868,147.2037 C868,172.7737 868,198.2937 868,226.8937 " fill="none" id="RankCandidatesUI-to-RankController" style="stroke:#181818;stroke-width:1.0;"/><polygon fill="#181818" points="868,232.8937,872,223.8937,868,227.8937,864,223.8937,868,232.8937" style="stroke:#181818;stroke-width:1.0;"/></g><!--SRC=[bLTRRvim57xFhq1zIjNB3uYcIZHb6rEM84WtxMboiPjw9JOo95iqzR_FDc2ROzDsUOavz_ET2wP6vJFQaMZ9MIjuLH4H_Pr5ybTMg6cY7B5dZpNyhg9V_65J4qRPBYSrRsZBnMaHVGbGVSMuhYjQefPovYe7oK1RoAXSdNpqF1A-Y7QajG4rAOiPgauDRURdYsX5c_Q3vTvugem8r19bFrFMPL1pcxERwM3C5ONc3ZNkZKqOkTIP3UfDoAJqS-GKQyilivVPhEuBU9_wXKCCK-MoCSmElz9KT04gFBFHObuyyTyAfGVEAuAOmtiY25UK4SKjMY53zmEo1Ha55gol4zr5z4WPjg7VdYm-Rs1lb6xwQ1otePu4xTnvZgjgiZD65iTDDygWGKSoLwNiu3tl_do8ld9Cgbvpe5cVyMxdM8LfUC5Jh379oICHX9K4i0KfnO6sUyBQJF2IDBAzSey6bKmEXj5ZuE3W6Gc6jk9zapWmjQWz1CCeD0U8rq-e8SDGPEe13XZ2MDFdMdGHwGTtObmuzln8tYlDo9-samsCGn-T84VA3yqROkL129Nd8AKFOBrnMM5DlpsjqRwFJvrwSNKCEF0geuMzOh2n8RycehsJCwG6kpy24S9m9v1qXucgQW_1Gghyvc6Wouftk8nuJcQ47VOsU91Sd6MhT1blqytwSiGebdcIhDFrfp4vNM-J_5kQV2_6z7WThtuKAQ3cIN6_sax3RV3o8CSQhX5MddOFvd_gMZWwf87w9ai04ilLfaZk9arDZIAmUo-nJBTfl4tk8A8_itopJ0g0tKSfNtmEEtPssjNLpMjBAR1gmXgWxIRqklbOH6Vo_ym8TrJ37ys8vVd3ONbmBe159xWU1VFAb8isjFKL_RrBrRr1lEDEeiIBOG-RyolRth7bXNH4rK4sAsKj7ElXpRo8p4jwkWTD65xN5TiuztekI7ojuJISkd6SPC9S00TiLINgzW-efyarL5J3z60qQ2LxH2kvPzLVZB5mPy5V88wKPv9qbfox6h1Xez4T7F8uAhsIiZeI0zheNY8uUZYTsQiE-81GQi7FWu1S-4iW80Yk_q3Y-jfr6UBg-urtOHuiEvVZVm00]--></g></svg>