<?xml version="1.0" encoding="us-ascii" standalone="no"?><svg xmlns="http://www.w3.org/2000/svg" xmlns:xlink="http://www.w3.org/1999/xlink" contentStyleType="text/css" height="952px" preserveAspectRatio="none" style="width:1283px;height:952px;background:#FFFFFF;" version="1.1" viewBox="0 0 1283 952" width="1283.2px" zoomAndPan="magnify"><defs/><g><rect fill="#FFFFFF" height="777.6172" style="stroke:#181818;stroke-width:0.8000000000000002;" width="8" x="211.6" y="93.5297"/><rect fill="#FFFFFF" height="325.4266" style="stroke:#181818;stroke-width:0.8000000000000002;" width="8" x="582.8" y="118.5625"/><rect fill="#FFFFFF" height="75.0984" style="stroke:#181818;stroke-width:0.8000000000000002;" width="8" x="582.8" y="469.0219"/><rect fill="#FFFFFF" height="75.0984" style="stroke:#181818;stroke-width:0.8000000000000002;" width="8" x="582.8" y="619.2188"/><rect fill="#FFFFFF" height="50.0656" style="stroke:#181818;stroke-width:0.8000000000000002;" width="8" x="582.8" y="796.0484"/><rect fill="#FFFFFF" height="75.0984" style="stroke:#181818;stroke-width:0.8000000000000002;" width="8" x="762.8" y="143.5953"/><rect fill="#FFFFFF" height="75.0984" style="stroke:#181818;stroke-width:0.8000000000000002;" width="8" x="762.8" y="243.7266"/><rect fill="#FFFFFF" height="75.0984" style="stroke:#181818;stroke-width:0.8000000000000002;" width="8" x="762.8" y="343.8578"/><rect fill="#FFFFFF" height="25.0328" style="stroke:#181818;stroke-width:0.8000000000000002;" width="8" x="999.6" y="268.7594"/><rect fill="#FFFFFF" height="25.0328" style="stroke:#181818;stroke-width:0.8000000000000002;" width="8" x="999.6" y="644.2516"/><rect fill="#FFFFFF" height="25.0328" style="stroke:#181818;stroke-width:0.8000000000000002;" width="8" x="1124.8" y="168.6281"/><rect fill="#FFFFFF" height="25.0328" style="stroke:#181818;stroke-width:0.8000000000000002;" width="8" x="1124.8" y="494.0547"/><rect fill="#FFFFFF" height="25.0328" style="stroke:#181818;stroke-width:0.8000000000000002;" width="8" x="1235.6" y="368.8906"/><rect fill="none" height="65.4984" style="stroke:#000000;stroke-width:1.2000000000000002;" width="264.8" x="8" y="706.3172"/><line style="stroke:#181818;stroke-width:0.4000000000000001;stroke-dasharray:5.0,5.0;" x1="42.4" x2="42.4" y1="66.8969" y2="885.5469"/><line style="stroke:#181818;stroke-width:0.4000000000000001;stroke-dasharray:5.0,5.0;" x1="215.2" x2="215.2" y1="66.8969" y2="885.5469"/><line style="stroke:#181818;stroke-width:0.4000000000000001;stroke-dasharray:5.0,5.0;" x1="586.4" x2="586.4" y1="66.8969" y2="885.5469"/><line style="stroke:#181818;stroke-width:0.4000000000000001;stroke-dasharray:5.0,5.0;" x1="766.8" x2="766.8" y1="66.8969" y2="885.5469"/><line style="stroke:#181818;stroke-width:0.4000000000000001;stroke-dasharray:5.0,5.0;" x1="1003.2" x2="1003.2" y1="66.8969" y2="885.5469"/><line style="stroke:#181818;stroke-width:0.4000000000000001;stroke-dasharray:5.0,5.0;" x1="1128.8" x2="1128.8" y1="66.8969" y2="885.5469"/><line style="stroke:#181818;stroke-width:0.4000000000000001;stroke-dasharray:5.0,5.0;" x1="1239.2" x2="1239.2" y1="66.8969" y2="885.5469"/><text fill="#000000" font-family="sans-serif" font-size="11.2" lengthAdjust="spacing" textLength="48.8" x="16" y="64.0859">Customer</text><ellipse cx="42.8" cy="10.8" fill="#E2E2F0" rx="6.4" ry="6.4" style="stroke:#181818;stroke-width:0.4000000000000001;"/><path d="M42.8,17.2 L42.8,38.8 M32.4,23.6 L53.2,23.6 M42.8,38.8 L32.4,50.8 M42.8,38.8 L53.2,50.8 " fill="none" style="stroke:#181818;stroke-width:0.4000000000000001;"/><text fill="#000000" font-family="sans-serif" font-size="11.2" lengthAdjust="spacing" textLength="48.8" x="16" y="896.8328">Customer</text><ellipse cx="42.8" cy="906.4438" fill="#E2E2F0" rx="6.4" ry="6.4" style="stroke:#181818;stroke-width:0.4000000000000001;"/><path d="M42.8,912.8438 L42.8,934.4438 M32.4,919.2438 L53.2,919.2438 M42.8,934.4438 L32.4,946.4438 M42.8,934.4438 L53.2,946.4438 " fill="none" style="stroke:#181818;stroke-width:0.4000000000000001;"/><text fill="#000000" font-family="sans-serif" font-size="11.2" lengthAdjust="spacing" textLength="93.6" x="166.4" y="64.0859">RankCandidatesUI</text><path d="M199.2,29.6 L199.2,48.8 M199.2,39.2 L212.8,39.2 " fill="none" style="stroke:#181818;stroke-width:0.4000000000000001;"/><ellipse cx="222.4" cy="39.2" fill="#E2E2F0" rx="9.6" ry="9.6" style="stroke:#181818;stroke-width:0.4000000000000001;"/><text fill="#000000" font-family="sans-serif" font-size="11.2" lengthAdjust="spacing" textLength="93.6" x="166.4" y="896.8328">RankCandidatesUI</text><path d="M199.2,902.8438 L199.2,922.0438 M199.2,912.4438 L212.8,912.4438 " fill="none" style="stroke:#181818;stroke-width:0.4000000000000001;"/><ellipse cx="222.4" cy="912.4438" fill="#E2E2F0" rx="9.6" ry="9.6" style="stroke:#181818;stroke-width:0.4000000000000001;"/><text fill="#000000" font-family="sans-serif" font-size="11.2" lengthAdjust="spacing" textLength="76" x="546.4" y="64.0859">RankController</text><ellipse cx="586.8" cy="39.2" fill="#E2E2F0" rx="9.6" ry="9.6" style="stroke:#181818;stroke-width:0.4000000000000001;"/><polygon fill="#181818" points="583.6,29.6,588.4,25.6,586.8,29.6,588.4,33.6,583.6,29.6" style="stroke:#181818;stroke-width:0.8000000000000002;"/><text fill="#000000" font-family="sans-serif" font-size="11.2" lengthAdjust="spacing" textLength="76" x="546.4" y="896.8328">RankController</text><ellipse cx="586.8" cy="912.4438" fill="#E2E2F0" rx="9.6" ry="9.6" style="stroke:#181818;stroke-width:0.4000000000000001;"/><polygon fill="#181818" points="583.6,902.8438,588.4,898.8438,586.8,902.8438,588.4,906.8438,583.6,902.8438" style="stroke:#181818;stroke-width:0.8000000000000002;"/><rect fill="#E2E2F0" height="26.0969" rx="2" ry="2" style="stroke:#181818;stroke-width:0.4000000000000001;" width="108.8" x="712.4" y="40"/><text fill="#000000" font-family="sans-serif" font-size="11.2" lengthAdjust="spacing" textLength="97.6" x="718" y="57.6859">PersistenceContext</text><rect fill="#E2E2F0" height="26.0969" rx="2" ry="2" style="stroke:#181818;stroke-width:0.4000000000000001;" width="108.8" x="712.4" y="884.7469"/><text fill="#000000" font-family="sans-serif" font-size="11.2" lengthAdjust="spacing" textLength="97.6" x="718" y="902.4328">PersistenceContext</text><text fill="#000000" font-family="sans-serif" font-size="11.2" lengthAdjust="spacing" textLength="109.6" x="946.4" y="64.0859">ApplicationRepository</text><path d="M989.2,23.2 C989.2,15.2 1003.6,15.2 1003.6,15.2 C1003.6,15.2 1018,15.2 1018,23.2 L1018,44 C1018,52 1003.6,52 1003.6,52 C1003.6,52 989.2,52 989.2,44 L989.2,23.2 " fill="#E2E2F0" style="stroke:#181818;stroke-width:1.2000000000000002;"/><path d="M989.2,23.2 C989.2,31.2 1003.6,31.2 1003.6,31.2 C1003.6,31.2 1018,31.2 1018,23.2 " fill="none" style="stroke:#181818;stroke-width:1.2000000000000002;"/><text fill="#000000" font-family="sans-serif" font-size="11.2" lengthAdjust="spacing" textLength="109.6" x="946.4" y="896.8328">ApplicationRepository</text><path d="M989.2,907.6438 C989.2,899.6438 1003.6,899.6438 1003.6,899.6438 C1003.6,899.6438 1018,899.6438 1018,907.6438 L1018,928.4438 C1018,936.4438 1003.6,936.4438 1003.6,936.4438 C1003.6,936.4438 989.2,936.4438 989.2,928.4438 L989.2,907.6438 " fill="#E2E2F0" style="stroke:#181818;stroke-width:1.2000000000000002;"/><path d="M989.2,907.6438 C989.2,915.6438 1003.6,915.6438 1003.6,915.6438 C1003.6,915.6438 1018,915.6438 1018,907.6438 " fill="none" style="stroke:#181818;stroke-width:1.2000000000000002;"/><text fill="#000000" font-family="sans-serif" font-size="11.2" lengthAdjust="spacing" textLength="115.2" x="1068.8" y="64.0859">JobOpeningRepository</text><path d="M1114.4,23.2 C1114.4,15.2 1128.8,15.2 1128.8,15.2 C1128.8,15.2 1143.2,15.2 1143.2,23.2 L1143.2,44 C1143.2,52 1128.8,52 1128.8,52 C1128.8,52 1114.4,52 1114.4,44 L1114.4,23.2 " fill="#E2E2F0" style="stroke:#181818;stroke-width:1.2000000000000002;"/><path d="M1114.4,23.2 C1114.4,31.2 1128.8,31.2 1128.8,31.2 C1128.8,31.2 1143.2,31.2 1143.2,23.2 " fill="none" style="stroke:#181818;stroke-width:1.2000000000000002;"/><text fill="#000000" font-family="sans-serif" font-size="11.2" lengthAdjust="spacing" textLength="115.2" x="1068.8" y="896.8328">JobOpeningRepository</text><path d="M1114.4,907.6438 C1114.4,899.6438 1128.8,899.6438 1128.8,899.6438 C1128.8,899.6438 1143.2,899.6438 1143.2,907.6438 L1143.2,928.4438 C1143.2,936.4438 1128.8,936.4438 1128.8,936.4438 C1128.8,936.4438 1114.4,936.4438 1114.4,928.4438 L1114.4,907.6438 " fill="#E2E2F0" style="stroke:#181818;stroke-width:1.2000000000000002;"/><path d="M1114.4,907.6438 C1114.4,915.6438 1128.8,915.6438 1128.8,915.6438 C1128.8,915.6438 1143.2,915.6438 1143.2,907.6438 " fill="none" style="stroke:#181818;stroke-width:1.2000000000000002;"/><text fill="#000000" font-family="sans-serif" font-size="11.2" lengthAdjust="spacing" textLength="80.8" x="1196.8" y="64.0859">RankRepository</text><path d="M1225.2,23.2 C1225.2,15.2 1239.6,15.2 1239.6,15.2 C1239.6,15.2 1254,15.2 1254,23.2 L1254,44 C1254,52 1239.6,52 1239.6,52 C1239.6,52 1225.2,52 1225.2,44 L1225.2,23.2 " fill="#E2E2F0" style="stroke:#181818;stroke-width:1.2000000000000002;"/><path d="M1225.2,23.2 C1225.2,31.2 1239.6,31.2 1239.6,31.2 C1239.6,31.2 1254,31.2 1254,23.2 " fill="none" style="stroke:#181818;stroke-width:1.2000000000000002;"/><text fill="#000000" font-family="sans-serif" font-size="11.2" lengthAdjust="spacing" textLength="80.8" x="1196.8" y="896.8328">RankRepository</text><path d="M1225.2,907.6438 C1225.2,899.6438 1239.6,899.6438 1239.6,899.6438 C1239.6,899.6438 1254,899.6438 1254,907.6438 L1254,928.4438 C1254,936.4438 1239.6,936.4438 1239.6,936.4438 C1239.6,936.4438 1225.2,936.4438 1225.2,928.4438 L1225.2,907.6438 " fill="#E2E2F0" style="stroke:#181818;stroke-width:1.2000000000000002;"/><path d="M1225.2,907.6438 C1225.2,915.6438 1239.6,915.6438 1239.6,915.6438 C1239.6,915.6438 1254,915.6438 1254,907.6438 " fill="none" style="stroke:#181818;stroke-width:1.2000000000000002;"/><rect fill="#FFFFFF" height="777.6172" style="stroke:#181818;stroke-width:0.8000000000000002;" width="8" x="211.6" y="93.5297"/><rect fill="#FFFFFF" height="325.4266" style="stroke:#181818;stroke-width:0.8000000000000002;" width="8" x="582.8" y="118.5625"/><rect fill="#FFFFFF" height="75.0984" style="stroke:#181818;stroke-width:0.8000000000000002;" width="8" x="582.8" y="469.0219"/><rect fill="#FFFFFF" height="75.0984" style="stroke:#181818;stroke-width:0.8000000000000002;" width="8" x="582.8" y="619.2188"/><rect fill="#FFFFFF" height="50.0656" style="stroke:#181818;stroke-width:0.8000000000000002;" width="8" x="582.8" y="796.0484"/><rect fill="#FFFFFF" height="75.0984" style="stroke:#181818;stroke-width:0.8000000000000002;" width="8" x="762.8" y="143.5953"/><rect fill="#FFFFFF" height="75.0984" style="stroke:#181818;stroke-width:0.8000000000000002;" width="8" x="762.8" y="243.7266"/><rect fill="#FFFFFF" height="75.0984" style="stroke:#181818;stroke-width:0.8000000000000002;" width="8" x="762.8" y="343.8578"/><rect fill="#FFFFFF" height="25.0328" style="stroke:#181818;stroke-width:0.8000000000000002;" width="8" x="999.6" y="268.7594"/><rect fill="#FFFFFF" height="25.0328" style="stroke:#181818;stroke-width:0.8000000000000002;" width="8" x="999.6" y="644.2516"/><rect fill="#FFFFFF" height="25.0328" style="stroke:#181818;stroke-width:0.8000000000000002;" width="8" x="1124.8" y="168.6281"/><rect fill="#FFFFFF" height="25.0328" style="stroke:#181818;stroke-width:0.8000000000000002;" width="8" x="1124.8" y="494.0547"/><rect fill="#FFFFFF" height="25.0328" style="stroke:#181818;stroke-width:0.8000000000000002;" width="8" x="1235.6" y="368.8906"/><polygon fill="#181818" points="202,90.3297,210,93.5297,202,96.7297,205.2,93.5297" style="stroke:#181818;stroke-width:0.8000000000000002;"/><line style="stroke:#181818;stroke-width:0.8000000000000002;" x1="0" x2="206.8" y1="93.5297" y2="93.5297"/><text fill="#000000" font-family="sans-serif" font-size="10.4" lengthAdjust="spacing" textLength="43.2" x="5.6" y="89.3195">doShow()</text><polygon fill="#181818" points="573.2,115.3625,581.2,118.5625,573.2,121.7625,576.4,118.5625" style="stroke:#181818;stroke-width:0.8000000000000002;"/><line style="stroke:#181818;stroke-width:0.8000000000000002;" x1="219.6" x2="578" y1="118.5625" y2="118.5625"/><text fill="#000000" font-family="sans-serif" font-size="10.4" lengthAdjust="spacing" textLength="28.8" x="225.2" y="114.3523">create</text><polygon fill="#181818" points="753.2,140.3953,761.2,143.5953,753.2,146.7953,756.4,143.5953" style="stroke:#181818;stroke-width:0.8000000000000002;"/><line style="stroke:#181818;stroke-width:0.8000000000000002;" x1="590.8" x2="758" y1="143.5953" y2="143.5953"/><text fill="#000000" font-family="sans-serif" font-size="10.4" lengthAdjust="spacing" textLength="127.2" x="596.4" y="139.3852">repositories().jobOpenings()</text><polygon fill="#181818" points="1115.2,165.4281,1123.2,168.6281,1115.2,171.8281,1118.4,168.6281" style="stroke:#181818;stroke-width:0.8000000000000002;"/><line style="stroke:#181818;stroke-width:0.8000000000000002;" x1="770.8" x2="1120" y1="168.6281" y2="168.6281"/><text fill="#000000" font-family="sans-serif" font-size="10.4" lengthAdjust="spacing" textLength="28.8" x="776.4" y="164.418">create</text><polygon fill="#181818" points="779.6,190.4609,771.6,193.6609,779.6,196.8609,776.4,193.6609" style="stroke:#181818;stroke-width:0.8000000000000002;"/><line style="stroke:#181818;stroke-width:0.8000000000000002;stroke-dasharray:2.0,2.0;" x1="774.8" x2="1128" y1="193.6609" y2="193.6609"/><text fill="#000000" font-family="sans-serif" font-size="10.4" lengthAdjust="spacing" textLength="215.2" x="784.4" y="189.4508">jobOpeningRepository : JobOpeningRepository</text><polygon fill="#181818" points="599.6,215.4938,591.6,218.6938,599.6,221.8938,596.4,218.6938" style="stroke:#181818;stroke-width:0.8000000000000002;"/><line style="stroke:#181818;stroke-width:0.8000000000000002;stroke-dasharray:2.0,2.0;" x1="594.8" x2="766" y1="218.6938" y2="218.6938"/><text fill="#000000" font-family="sans-serif" font-size="10.4" lengthAdjust="spacing" textLength="101.6" x="604.4" y="214.4836">jobOpeningRepository</text><polygon fill="#181818" points="753.2,240.5266,761.2,243.7266,753.2,246.9266,756.4,243.7266" style="stroke:#181818;stroke-width:0.8000000000000002;"/><line style="stroke:#181818;stroke-width:0.8000000000000002;" x1="590.8" x2="758" y1="243.7266" y2="243.7266"/><text fill="#000000" font-family="sans-serif" font-size="10.4" lengthAdjust="spacing" textLength="119.2" x="596.4" y="239.5164">repositories().application()</text><polygon fill="#181818" points="990,265.5594,998,268.7594,990,271.9594,993.2,268.7594" style="stroke:#181818;stroke-width:0.8000000000000002;"/><line style="stroke:#181818;stroke-width:0.8000000000000002;" x1="770.8" x2="994.8" y1="268.7594" y2="268.7594"/><text fill="#000000" font-family="sans-serif" font-size="10.4" lengthAdjust="spacing" textLength="28.8" x="776.4" y="264.5492">create</text><polygon fill="#181818" points="779.6,290.5922,771.6,293.7922,779.6,296.9922,776.4,293.7922" style="stroke:#181818;stroke-width:0.8000000000000002;"/><line style="stroke:#181818;stroke-width:0.8000000000000002;stroke-dasharray:2.0,2.0;" x1="774.8" x2="1002.8" y1="293.7922" y2="293.7922"/><text fill="#000000" font-family="sans-serif" font-size="10.4" lengthAdjust="spacing" textLength="209.6" x="784.4" y="289.582">applicationRepository : ApplicationRepository</text><polygon fill="#181818" points="599.6,315.625,591.6,318.825,599.6,322.025,596.4,318.825" style="stroke:#181818;stroke-width:0.8000000000000002;"/><line style="stroke:#181818;stroke-width:0.8000000000000002;stroke-dasharray:2.0,2.0;" x1="594.8" x2="766" y1="318.825" y2="318.825"/><text fill="#000000" font-family="sans-serif" font-size="10.4" lengthAdjust="spacing" textLength="99.2" x="604.4" y="314.6148">applicationRepository</text><polygon fill="#181818" points="753.2,340.6578,761.2,343.8578,753.2,347.0578,756.4,343.8578" style="stroke:#181818;stroke-width:0.8000000000000002;"/><line style="stroke:#181818;stroke-width:0.8000000000000002;" x1="590.8" x2="758" y1="343.8578" y2="343.8578"/><text fill="#000000" font-family="sans-serif" font-size="10.4" lengthAdjust="spacing" textLength="89.6" x="596.4" y="339.6477">repositories().rank()</text><polygon fill="#181818" points="1226,365.6906,1234,368.8906,1226,372.0906,1229.2,368.8906" style="stroke:#181818;stroke-width:0.8000000000000002;"/><line style="stroke:#181818;stroke-width:0.8000000000000002;" x1="770.8" x2="1230.8" y1="368.8906" y2="368.8906"/><text fill="#000000" font-family="sans-serif" font-size="10.4" lengthAdjust="spacing" textLength="28.8" x="776.4" y="364.6805">create</text><polygon fill="#181818" points="779.6,390.7234,771.6,393.9234,779.6,397.1234,776.4,393.9234" style="stroke:#181818;stroke-width:0.8000000000000002;"/><line style="stroke:#181818;stroke-width:0.8000000000000002;stroke-dasharray:2.0,2.0;" x1="774.8" x2="1238.8" y1="393.9234" y2="393.9234"/><text fill="#000000" font-family="sans-serif" font-size="10.4" lengthAdjust="spacing" textLength="152.8" x="784.4" y="389.7133">rankRepository : RankRepository</text><polygon fill="#181818" points="599.6,415.7563,591.6,418.9563,599.6,422.1563,596.4,418.9563" style="stroke:#181818;stroke-width:0.8000000000000002;"/><line style="stroke:#181818;stroke-width:0.8000000000000002;stroke-dasharray:2.0,2.0;" x1="594.8" x2="766" y1="418.9563" y2="418.9563"/><text fill="#000000" font-family="sans-serif" font-size="10.4" lengthAdjust="spacing" textLength="152.8" x="604.4" y="414.7461">rankRepository : RankRepository</text><polygon fill="#181818" points="228.4,440.7891,220.4,443.9891,228.4,447.1891,225.2,443.9891" style="stroke:#181818;stroke-width:0.8000000000000002;"/><line style="stroke:#181818;stroke-width:0.8000000000000002;stroke-dasharray:2.0,2.0;" x1="223.6" x2="586" y1="443.9891" y2="443.9891"/><text fill="#000000" font-family="sans-serif" font-size="10.4" lengthAdjust="spacing" textLength="136" x="233.2" y="439.7789">theController : RankController</text><polygon fill="#181818" points="573.2,465.8219,581.2,469.0219,573.2,472.2219,576.4,469.0219" style="stroke:#181818;stroke-width:0.8000000000000002;"/><line style="stroke:#181818;stroke-width:0.8000000000000002;" x1="219.6" x2="578" y1="469.0219" y2="469.0219"/><text fill="#000000" font-family="sans-serif" font-size="10.4" lengthAdjust="spacing" textLength="128.8" x="225.2" y="464.8117">getJobOpeningsInAnalysis()</text><polygon fill="#181818" points="1115.2,490.8547,1123.2,494.0547,1115.2,497.2547,1118.4,494.0547" style="stroke:#181818;stroke-width:0.8000000000000002;"/><line style="stroke:#181818;stroke-width:0.8000000000000002;" x1="590.8" x2="1120" y1="494.0547" y2="494.0547"/><text fill="#000000" font-family="sans-serif" font-size="10.4" lengthAdjust="spacing" textLength="34.4" x="596.4" y="489.8445">findAll()</text><polygon fill="#181818" points="599.6,515.8875,591.6,519.0875,599.6,522.2875,596.4,519.0875" style="stroke:#181818;stroke-width:0.8000000000000002;"/><line style="stroke:#181818;stroke-width:0.8000000000000002;stroke-dasharray:2.0,2.0;" x1="594.8" x2="1128" y1="519.0875" y2="519.0875"/><text fill="#000000" font-family="sans-serif" font-size="10.4" lengthAdjust="spacing" textLength="164" x="604.4" y="514.8773">allJobOpenings : List&lt;JobOpening&gt;</text><polygon fill="#181818" points="228.4,540.9203,220.4,544.1203,228.4,547.3203,225.2,544.1203" style="stroke:#181818;stroke-width:0.8000000000000002;"/><line style="stroke:#181818;stroke-width:0.8000000000000002;stroke-dasharray:2.0,2.0;" x1="223.6" x2="586" y1="544.1203" y2="544.1203"/><text fill="#000000" font-family="sans-serif" font-size="10.4" lengthAdjust="spacing" textLength="151.2" x="233.2" y="539.9102">jobOpenings : List&lt;JobOpening&gt;</text><polygon fill="#181818" points="51.6,565.9531,43.6,569.1531,51.6,572.3531,48.4,569.1531" style="stroke:#181818;stroke-width:0.8000000000000002;"/><line style="stroke:#181818;stroke-width:0.8000000000000002;stroke-dasharray:2.0,2.0;" x1="46.8" x2="210.8" y1="569.1531" y2="569.1531"/><text fill="#000000" font-family="sans-serif" font-size="10.4" lengthAdjust="spacing" textLength="149.6" x="56.4" y="564.943">Display jobOpenings in Analysis</text><polygon fill="#181818" points="202,590.9859,210,594.1859,202,597.3859,205.2,594.1859" style="stroke:#181818;stroke-width:0.8000000000000002;"/><line style="stroke:#181818;stroke-width:0.8000000000000002;stroke-dasharray:2.0,2.0;" x1="42.8" x2="206.8" y1="594.1859" y2="594.1859"/><text fill="#000000" font-family="sans-serif" font-size="10.4" lengthAdjust="spacing" textLength="90.4" x="48.4" y="589.9758">Selects jobOpening</text><polygon fill="#181818" points="573.2,616.0188,581.2,619.2188,573.2,622.4188,576.4,619.2188" style="stroke:#181818;stroke-width:0.8000000000000002;"/><line style="stroke:#181818;stroke-width:0.8000000000000002;" x1="219.6" x2="578" y1="619.2188" y2="619.2188"/><text fill="#000000" font-family="sans-serif" font-size="10.4" lengthAdjust="spacing" textLength="224" x="225.2" y="615.0086">generateRankPosition(jobOpening : JobOpening)</text><polygon fill="#181818" points="990,641.0516,998,644.2516,990,647.4516,993.2,644.2516" style="stroke:#181818;stroke-width:0.8000000000000002;"/><line style="stroke:#181818;stroke-width:0.8000000000000002;" x1="590.8" x2="994.8" y1="644.2516" y2="644.2516"/><text fill="#000000" font-family="sans-serif" font-size="10.4" lengthAdjust="spacing" textLength="257.6" x="596.4" y="640.0414">findCandidatesByJobOpening(jobOpening : JobOpening)</text><polygon fill="#181818" points="599.6,666.0844,591.6,669.2844,599.6,672.4844,596.4,669.2844" style="stroke:#181818;stroke-width:0.8000000000000002;"/><line style="stroke:#181818;stroke-width:0.8000000000000002;stroke-dasharray:2.0,2.0;" x1="594.8" x2="1002.8" y1="669.2844" y2="669.2844"/><text fill="#000000" font-family="sans-serif" font-size="10.4" lengthAdjust="spacing" textLength="140.8" x="604.4" y="665.0742">candidates : List&lt;Application&gt;</text><polygon fill="#181818" points="228.4,691.1172,220.4,694.3172,228.4,697.5172,225.2,694.3172" style="stroke:#181818;stroke-width:0.8000000000000002;"/><line style="stroke:#181818;stroke-width:0.8000000000000002;stroke-dasharray:2.0,2.0;" x1="223.6" x2="586" y1="694.3172" y2="694.3172"/><text fill="#000000" font-family="sans-serif" font-size="10.4" lengthAdjust="spacing" textLength="164" x="233.2" y="690.107">rankPositions : List&lt;RankPosition&gt;</text><path d="M8,706.3172 L66.4,706.3172 L66.4,713.75 L58.4,721.75 L8,721.75 L8,706.3172 " fill="#EEEEEE" style="stroke:#000000;stroke-width:1.2000000000000002;"/><rect fill="none" height="65.4984" style="stroke:#000000;stroke-width:1.2000000000000002;" width="264.8" x="8" y="706.3172"/><text fill="#000000" font-family="sans-serif" font-size="10.4" font-weight="bold" lengthAdjust="spacing" textLength="22.4" x="20" y="718.3398">loop</text><text fill="#000000" font-family="sans-serif" font-size="8.8" font-weight="bold" lengthAdjust="spacing" textLength="78.4" x="78.4" y="717.4133">[while choice != 0]</text><polygon fill="#181818" points="51.6,737.1828,43.6,740.3828,51.6,743.5828,48.4,740.3828" style="stroke:#181818;stroke-width:0.8000000000000002;"/><line style="stroke:#181818;stroke-width:0.8000000000000002;stroke-dasharray:2.0,2.0;" x1="46.8" x2="210.8" y1="740.3828" y2="740.3828"/><text fill="#000000" font-family="sans-serif" font-size="10.4" lengthAdjust="spacing" textLength="123.2" x="56.4" y="736.1727">Display candidates to rank</text><polygon fill="#181818" points="202,762.2156,210,765.4156,202,768.6156,205.2,765.4156" style="stroke:#181818;stroke-width:0.8000000000000002;"/><line style="stroke:#181818;stroke-width:0.8000000000000002;stroke-dasharray:2.0,2.0;" x1="42.8" x2="206.8" y1="765.4156" y2="765.4156"/><text fill="#000000" font-family="sans-serif" font-size="10.4" lengthAdjust="spacing" textLength="83.2" x="48.4" y="761.2055">Selects candidate</text><polygon fill="#181818" points="573.2,792.8484,581.2,796.0484,573.2,799.2484,576.4,796.0484" style="stroke:#181818;stroke-width:0.8000000000000002;"/><line style="stroke:#181818;stroke-width:0.8000000000000002;" x1="219.6" x2="578" y1="796.0484" y2="796.0484"/><text fill="#000000" font-family="sans-serif" font-size="10.4" lengthAdjust="spacing" textLength="348" x="225.2" y="791.8383">updateRank(jobOpening : JobOpening, rankPositions : List&lt;RankPosition&gt;)</text><polygon fill="#181818" points="1230,817.8813,1238,821.0813,1230,824.2813,1233.2,821.0813" style="stroke:#181818;stroke-width:0.8000000000000002;"/><line style="stroke:#181818;stroke-width:0.8000000000000002;" x1="590.8" x2="1234.8" y1="821.0813" y2="821.0813"/><text fill="#000000" font-family="sans-serif" font-size="10.4" lengthAdjust="spacing" textLength="80.8" x="596.4" y="816.8711">save(rank : Rank)</text><polygon fill="#181818" points="228.4,842.9141,220.4,846.1141,228.4,849.3141,225.2,846.1141" style="stroke:#181818;stroke-width:0.8000000000000002;"/><line style="stroke:#181818;stroke-width:0.8000000000000002;stroke-dasharray:2.0,2.0;" x1="223.6" x2="586" y1="846.1141" y2="846.1141"/><text fill="#000000" font-family="sans-serif" font-size="10.4" lengthAdjust="spacing" textLength="129.6" x="233.2" y="841.9039">Display confirmation or error</text><polygon fill="#181818" points="51.6,867.9469,43.6,871.1469,51.6,874.3469,48.4,871.1469" style="stroke:#181818;stroke-width:0.8000000000000002;"/><line style="stroke:#181818;stroke-width:0.8000000000000002;stroke-dasharray:2.0,2.0;" x1="46.8" x2="214.8" y1="871.1469" y2="871.1469"/><text fill="#000000" font-family="sans-serif" font-size="10.4" lengthAdjust="spacing" textLength="129.6" x="56.4" y="866.9367">Display confirmation or error</text><!--SRC=[hLPDJ-Cm5BpdLxozjTAoubpjLkh21OG40l43NEVHcZMsPRkm-VSuG1B77urJSMljUEQzcUT92BLImyN1MFc2kjhAWwY9Rk2UY7yNHDIi9XRDurL5fR1Qyi-Dpz_S7L14MqQP8iB27Mh3Z4L1iNq2_zlAdIPROX0sId56YMLItAEIXZdQPjY-bjjRXOA9NMgtvVJMgxDrLDyAQlcmbs-BPKMePQzkDUuXN80EgEzd1LIZsmn0Xdx7Vrk0k6jOWUwgPMWMor_FVNl6Bp0XM0BDSQJaWRZMf8h9isUvmf_JJ6b_y3XpgfT8yGod3vwGwJGRo3249zcG7EA43-bXJv_EEa4oP9cRX1FifMQGAVXlSqExKoVPC8u3IDzPh_ZW-QpYEiGDS3mHWfrISMSm5CYSY447QVSuuWm2B6WYZBQ9TDoX7QwwkH8RGNZZwenYzrXYPjBiYObwmxaFDI_GubdctAlMBTmuHNyFI-l922kGtC-lAOv9nHr-zovsK9VCA4wQ4G4Jq8bUzOzcHk41EL9hlFE59WlKRhjTlskLQFDom1Yz3kRudelFrlYXfh_DW5x0EZTheo6XFNDdddTuFHsiPRTIUrhsHBx0n-Q4IwdWRSyu0jrBHX5-_87pul7nEhJoevBYoUcFLYZgek4vgFfhT7Bc_ImGOyvOHQy3GrvnqN9yfT-oqADUBocUc7xvC1hSrp5gBVKtNECoN0_e7G00]--></g></svg>