<?xml version="1.0" encoding="us-ascii" standalone="no"?><svg xmlns="http://www.w3.org/2000/svg" xmlns:xlink="http://www.w3.org/1999/xlink" contentStyleType="text/css" height="278px" preserveAspectRatio="none" style="width:302px;height:278px;background:#FFFFFF;" version="1.1" viewBox="0 0 302 278" width="302px" zoomAndPan="magnify"><defs/><g><text fill="#000000" font-family="sans-serif" font-size="14" font-weight="bold" lengthAdjust="spacing" textLength="270" x="14.25" y="28.5352">US1016 - Notify Candidates by Email</text><line style="stroke:#181818;stroke-width:0.5;stroke-dasharray:5.0,5.0;" x1="71" x2="71" y1="118.9766" y2="197.5977"/><line style="stroke:#181818;stroke-width:0.5;stroke-dasharray:5.0,5.0;" x1="261.5" x2="261.5" y1="118.9766" y2="197.5977"/><text fill="#000000" font-family="sans-serif" font-size="14" lengthAdjust="spacing" textLength="127" x="5" y="116.0234">CustomerManager</text><ellipse cx="71.5" cy="50.9883" fill="#E2E2F0" rx="8" ry="8" style="stroke:#181818;stroke-width:0.5;"/><path d="M71.5,58.9883 L71.5,85.9883 M58.5,66.9883 L84.5,66.9883 M71.5,85.9883 L58.5,100.9883 M71.5,85.9883 L84.5,100.9883 " fill="none" style="stroke:#181818;stroke-width:0.5;"/><text fill="#000000" font-family="sans-serif" font-size="14" lengthAdjust="spacing" textLength="127" x="5" y="210.1328">CustomerManager</text><ellipse cx="71.5" cy="221.5859" fill="#E2E2F0" rx="8" ry="8" style="stroke:#181818;stroke-width:0.5;"/><path d="M71.5,229.5859 L71.5,256.5859 M58.5,237.5859 L84.5,237.5859 M71.5,256.5859 L58.5,271.5859 M71.5,256.5859 L84.5,271.5859 " fill="none" style="stroke:#181818;stroke-width:0.5;"/><rect fill="#E2E2F0" height="30.4883" rx="2.5" ry="2.5" style="stroke:#181818;stroke-width:0.5;" width="66" x="228.5" y="87.4883"/><text fill="#000000" font-family="sans-serif" font-size="14" lengthAdjust="spacing" textLength="52" x="235.5" y="108.0234">:System</text><rect fill="#E2E2F0" height="30.4883" rx="2.5" ry="2.5" style="stroke:#181818;stroke-width:0.5;" width="66" x="228.5" y="196.5977"/><text fill="#000000" font-family="sans-serif" font-size="14" lengthAdjust="spacing" textLength="52" x="235.5" y="217.1328">:System</text><polygon fill="#181818" points="249.5,146.2871,259.5,150.2871,249.5,154.2871,253.5,150.2871" style="stroke:#181818;stroke-width:1.0;"/><line style="stroke:#181818;stroke-width:1.0;" x1="71.5" x2="255.5" y1="150.2871" y2="150.2871"/><text fill="#000000" font-family="sans-serif" font-size="13" lengthAdjust="spacing" textLength="113" x="78.5" y="145.5449">Notify Candidates</text><polygon fill="#181818" points="82.5,175.5977,72.5,179.5977,82.5,183.5977,78.5,179.5977" style="stroke:#181818;stroke-width:1.0;"/><line style="stroke:#181818;stroke-width:1.0;stroke-dasharray:2.0,2.0;" x1="76.5" x2="260.5" y1="179.5977" y2="179.5977"/><text fill="#000000" font-family="sans-serif" font-size="13" lengthAdjust="spacing" textLength="166" x="88.5" y="174.8555">Confirm sent notifications</text><!--SRC=[POqn3i8m40JxUyKgVIJIKBYWiIYXiNZ0uJZefDYEV9V2loUqePwPNHDR4rvXkanNZ7XMawN3SvbbPakATySziwn47Aqs-5sjvjGUNFYJ6ctSJA9iN0o32rqjvG6i24Gd5-CDmVr_KC1ue9Fju6jPf6LeEhRBhvB89hNe5m00]--></g></svg>